<?xml version="1.0" encoding="UTF-8" standalone="no"?>
<svg
   xmlns:dc="http://purl.org/dc/elements/1.1/"
   xmlns:cc="http://creativecommons.org/ns#"
   xmlns:rdf="http://www.w3.org/1999/02/22-rdf-syntax-ns#"
   xmlns:svg="http://www.w3.org/2000/svg"
   xmlns="http://www.w3.org/2000/svg"
   xmlns:sodipodi="http://sodipodi.sourceforge.net/DTD/sodipodi-0.dtd"
   xmlns:inkscape="http://www.inkscape.org/namespaces/inkscape"
   width="31.334858mm"
   height="30.000002mm"
   viewBox="0 0 31.334858 30.000002"
   version="1.1"
   id="svg864"
   sodipodi:docname="Kitchen_Logo_30mm.svg"
   inkscape:version="1.0.1 (3bc2e813f5, 2020-09-07)">
  <defs
     id="defs858" />
  <sodipodi:namedview
     id="base"
     pagecolor="#ffffff"
     bordercolor="#666666"
     borderopacity="1.0"
     inkscape:pageopacity="0.0"
     inkscape:pageshadow="2"
     inkscape:zoom="2.1530437"
     inkscape:cx="106.07548"
     inkscape:cy="6.9438179"
     inkscape:document-units="mm"
     inkscape:current-layer="g1452"
     inkscape:document-rotation="0"
     showgrid="true"
     inkscape:window-width="1920"
     inkscape:window-height="983"
     inkscape:window-x="0"
     inkscape:window-y="27"
     inkscape:window-maximized="1"
     borderlayer="true"
     fit-margin-top="0"
     fit-margin-left="0"
     fit-margin-right="0"
     fit-margin-bottom="0">
    <inkscape:grid
       spacingx="2.54"
       spacingy="2.54"
       empspacing="1"
       type="xygrid"
       units="mm"
       id="grid1428"
       originx="-22.5355"
       originy="-17.73187" />
  </sodipodi:namedview>
  <metadata
     id="metadata861">
    <rdf:RDF>
      <cc:Work
         rdf:about="">
        <dc:format>image/svg+xml</dc:format>
        <dc:type
           rdf:resource="http://purl.org/dc/dcmitype/StillImage" />
        <dc:title></dc:title>
      </cc:Work>
    </rdf:RDF>
  </metadata>
  <g
     inkscape:label="[fixed] BG"
     inkscape:groupmode="layer"
     sodipodi:insensitive="true"
     id="g1434"
     transform="translate(-22.5355,-17.73187)">
    <rect
       x="0"
       y="0"
       width="100"
       height="100"
       style="fill:#ffffff;fill-opacity:1;stroke:none"
       id="rect1432" />
  </g>
  <g
     inkscape:label="F.Cu"
     inkscape:groupmode="layer"
     id="g1436"
     transform="translate(-22.5355,-17.73187)" />
  <g
     inkscape:label="B.Cu-disabled"
     inkscape:groupmode="layer"
     id="g1438"
     transform="translate(-22.5355,-17.73187)" />
  <g
     inkscape:label="B.Adhes-disabled"
     inkscape:groupmode="layer"
     id="g1440"
     transform="translate(-22.5355,-17.73187)" />
  <g
     inkscape:label="F.Adhes-disabled"
     inkscape:groupmode="layer"
     id="g1442"
     transform="translate(-22.5355,-17.73187)" />
  <g
     inkscape:label="B.Paste-disabled"
     inkscape:groupmode="layer"
     id="g1444"
     transform="translate(-22.5355,-17.73187)" />
  <g
     inkscape:label="F.Paste-disabled"
     inkscape:groupmode="layer"
     id="g1446"
     transform="translate(-22.5355,-17.73187)" />
  <g
     inkscape:label="B.SilkS-disabled"
     inkscape:groupmode="layer"
     id="g1448"
     transform="translate(-22.5355,-17.73187)" />
  <g
     inkscape:label="F.SilkS-disabled"
     inkscape:groupmode="layer"
     id="g1450"
     transform="translate(-22.5355,-17.73187)" />
  <g
     inkscape:label="B.Mask"
     inkscape:groupmode="layer"
     id="g1452"
     transform="translate(-22.5355,-17.73187)">
    <g
       id="g842"
       transform="matrix(-0.06102212,0,0,0.06102212,56.759375,-12.683059)">
      <path
         style="font-style:normal;font-variant:normal;font-weight:bold;font-stretch:normal;font-size:54.5499px;line-height:125%;font-family:FreeMono;-inkscape-font-specification:'FreeMono Bold';letter-spacing:0px;word-spacing:0px;fill:#ccbbbb;fill-opacity:1;stroke:none"
         d="m 451.5625,484.4375 c -2.39062,0 -4.25,0.60093 -4.25,3.25 0,2.64906 1.79477,3.21875 4.25,3.21875 h 1.03125 v 27.40625 h -0.375 c -2.32602,0 -4.28125,0.56969 -4.28125,3.21875 0,2.45523 1.82602,3.25 4.28125,3.25 h 7.21875 c 2.39061,0 4.34375,-0.60094 4.34375,-3.25 0,-2.64906 -1.88852,-3.21875 -4.34375,-3.21875 h -0.375 v -11.84375 c 3.68285,-3.55362 5.08827,-4.3125 8.125,-4.3125 5.03967,0 5.6875,2.31546 5.6875,5.09375 v 11.0625 H 472.5 c -2.32601,0 -4.34375,0.50508 -4.34375,3.21875 0,2.58445 2.01774,3.25 4.34375,3.25 h 7.25 c 2.39062,0 4.25,-0.66555 4.25,-3.25 0,-2.58444 -1.73017,-3.21875 -4.25,-3.21875 h -0.40625 v -11.90625 c 0,-6.46112 -4.5887,-10.71875 -11.4375,-10.71875 -3.35979,0 -6.2593,1.28844 -8.84375,3.9375 V 484.4375 Z M 96.96875,484.5 v 6.8125 h 7.625 V 484.5 Z m 256.28125,0 v 6.8125 h 7.625 V 484.5 Z m 29.90625,2.09375 c -2.71368,0 -3.21875,1.9886 -3.21875,4.25 v 5.6875 h -2.28125 c -2.51984,0 -4.25,0.56969 -4.25,3.21875 0,2.58444 1.85939,3.25 4.25,3.25 h 2.28125 v 13.875 c 0,5.49195 4.57181,8.9375 11.9375,8.9375 4.91045,0 14.875,-2.21706 14.875,-6.09375 0,-1.8091 -1.34924,-3.28125 -3.09375,-3.28125 -2.26138,0 -4.35307,2.90625 -11.71875,2.90625 -4.78124,0 -5.53125,-1.23226 -5.53125,-3.6875 V 503 h 11.6875 c 2.39064,0 4.25,-0.66556 4.25,-3.25 0,-2.64906 -1.79475,-3.21875 -4.25,-3.21875 h -11.6875 v -5.6875 c 0,-2.51984 -0.60094,-4.25 -3.25,-4.25 z m -331.5625,0.5 c -2.261394,0 -4.25,0.47172 -4.25,3.25 0,2.64907 1.859383,3.21875 4.25,3.21875 h 0.96875 v 24.75 h -0.96875 c -2.390617,0 -4.25,0.56969 -4.25,3.21875 0,1.35685 0.631769,3.25 4.25,3.25 h 19.0625 c 7.624127,0 12.75,-4.14107 12.75,-10.34375 0,-4.07052 -2.191734,-7.04899 -6.84375,-9.375 2.842894,-2.19679 4.0625,-4.34039 4.0625,-7.3125 0,-6.13808 -5.355174,-10.65625 -12.65625,-10.65625 z m 253.375,0 c -2.51983,0 -4.25,0.60094 -4.25,3.25 0,2.64907 1.85939,3.21875 4.25,3.21875 h 0.96875 v 24.75 h -0.96875 c -2.39061,0 -4.25,0.56969 -4.25,3.21875 0,1.35685 0.63176,3.25 4.25,3.25 h 9.6875 c 2.51984,0 4.28125,-0.79477 4.28125,-3.25 0,-2.71367 -2.01984,-3.21875 -4.28125,-3.21875 h -2.25 v -7 l 3.875,-3.28125 c 3.94129,1.22761 8.05702,7.51059 11.09375,16.75 h 7.125 c 2.51985,0 4.25,-0.79477 4.25,-3.25 0,-2.71367 -1.9886,-3.21875 -4.25,-3.21875 h -2.0625 c -2.97211,-7.4303 -6.99621,-12.80744 -10.9375,-14.875 l 11.375,-9.875 c 2.64906,0 4,-1.08658 4,-3.21875 0,-2.58444 -1.73017,-3.25 -4.25,-3.25 h -6.46875 c -2.51983,0 -4.25,0.92189 -4.25,3.3125 0,1.48607 0.64316,2.38937 2,2.90625 l -11.5,9.875 v -9.625 h 2.25 c 2.39061,0 4.28125,-0.56968 4.28125,-3.21875 0,-2.71367 -2.01984,-3.25 -4.28125,-3.25 z M 59.03125,493.5625 H 67.625 c 4.070509,0 6.53125,1.54055 6.53125,4.125 0,2.97211 -3.160489,4.96875 -7.8125,4.96875 h -7.3125 z m 82.78125,2.125 c -3.55361,0 -5.77367,0.96538 -8.875,3.9375 v -3.09375 h -6.0625 c -2.51984,0 -4.3125,0.89274 -4.3125,3.21875 0,2.06755 1.41766,3.18539 3.9375,3.25 v 15.3125 h -0.40625 c -2.32601,0 -4.25,0.56969 -4.25,3.21875 0,2.45523 1.73017,3.25 4.25,3.25 h 7.25 c 2.2614,0 4.25,-0.60094 4.25,-3.25 0,-2.71367 -1.9886,-3.21875 -4.25,-3.21875 h -0.40625 v -11.78125 c 3.03671,-3.29517 5.12163,-4.375 8.09375,-4.375 4.0059,0 5.8125,1.49029 5.8125,4.65625 v 11.5 c -2.51983,0 -3.9375,1.1512 -3.9375,3.21875 0,2.13217 1.405,3.25 4.3125,3.25 h 5.75 c 2.39061,0 4.28125,-0.66555 4.28125,-3.25 0,-2.06755 -1.41767,-3.21875 -3.9375,-3.21875 v -11.78125 c 0,-7.10724 -5.03886,-10.84375 -11.5,-10.84375 z m 34.875,0 c -3.23055,0 -7.9924,0.83911 -11.09375,1.9375 -1.29223,0.45228 -1.9375,1.36191 -1.9375,2.71875 0,1.87373 1.34714,3.28125 3.15625,3.28125 2.06756,0 5.41049,-1.46875 10.0625,-1.46875 4.13511,0 6.03125,0.95946 6.03125,3.15625 v 1.5 c -2.64906,-0.45228 -4.65121,-0.65625 -6.71875,-0.65625 -9.6917,0 -15.65625,5.28507 -15.65625,10.90625 0,4.78124 5.22848,8.75 11.625,8.75 3.81205,0 7.64865,-0.91598 10.75,-2.53125 v 1.5 h 7.5625 c 2.39063,0 4.25,-0.66555 4.25,-3.25 0,-2.58444 -1.73015,-3.21875 -4.25,-3.21875 H 189.4375 V 505.25 c 0,-6.00885 -4.80281,-9.5625 -12.75,-9.5625 z m 251.0625,0 c -9.75631,0 -16.53125,6.47934 -16.53125,15.71875 0,6.2673 3.48358,14.40625 17.375,14.40625 9.6917,0 15.625,-3.22764 15.625,-6.78125 0,-1.80913 -1.47424,-3.3125 -3.21875,-3.3125 -2.64906,0 -2.01862,3.625 -11.96875,3.625 -7.55952,0 -11.375,-2.63937 -11.375,-7.9375 0,-5.49195 3.95567,-9.25 10.09375,-9.25 2.84289,0 5.16384,0.59121 6.84375,1.625 2.326,1.67989 0.77534,5.40625 4.78125,5.40625 2.71366,0 3.21875,-1.9886 3.21875,-4.25 v -4.96875 c 0,-2.97212 -0.96159,-4.28125 -3.09375,-4.28125 -1.35685,0 -2.04983,0.58067 -2.4375,1.9375 -2.51983,-1.29222 -5.62967,-1.9375 -9.3125,-1.9375 z m 76.25,0 c -9.43326,0 -16.65625,6.59633 -16.65625,15.125 0,8.78715 7.04776,15 17.0625,15 2.77829,0 16.34375,-0.7876 16.34375,-5.375 0,-1.80911 -1.38049,-3.21875 -3.125,-3.21875 -2.51982,0 -6.6474,2.125 -12.65625,2.125 -5.68579,0 -9.10768,-1.81082 -10.59375,-5.6875 H 520.75 V 511.125 c 0,-8.91634 -7.12292,-15.4375 -16.75,-15.4375 z m 41.40625,0 c -3.55363,0 -5.77366,0.96538 -8.875,3.9375 v -3.09375 h -6.0625 c -2.51982,0 -4.34375,0.89274 -4.34375,3.21875 0,2.06755 1.44891,3.18539 3.96875,3.25 v 15.3125 h -0.40625 c -2.32602,0 -4.25,0.56969 -4.25,3.21875 0,2.45523 1.73015,3.25 4.25,3.25 h 7.25 c 2.2614,0 4.25,-0.60094 4.25,-3.25 0,-2.71367 -1.9886,-3.21875 -4.25,-3.21875 h -0.40625 v -11.78125 c 3.03673,-3.29516 5.12162,-4.375 8.09375,-4.375 4.00589,0 5.8125,1.4903 5.8125,4.65625 v 11.5 c -2.51985,0 -3.9375,1.1512 -3.9375,3.21875 0,2.13217 1.40498,3.25 4.3125,3.25 h 5.75 c 2.39061,0 4.28125,-0.66555 4.28125,-3.25 0,-2.06755 -1.41766,-3.21875 -3.9375,-3.21875 v -11.78125 c 0,-7.10723 -5.03888,-10.84375 -11.5,-10.84375 z M 224.0625,495.75 c -3.16596,0 -5.61235,1.09207 -10.78125,4.96875 v -4.1875 h -8.75 c -2.84289,0 -4.25,1.21581 -4.25,3.21875 0,2.45522 1.73017,3.25 4.25,3.25 h 2.28125 v 15.3125 h -3.75 c -2.51983,0 -4.28125,0.56969 -4.28125,3.21875 0,2.45523 1.82604,3.25 4.28125,3.25 H 222.25 c 2.39061,0 4.3125,-0.66555 4.3125,-3.25 0,-2.64906 -1.85727,-3.21875 -4.3125,-3.21875 h -8.96875 v -9.5 c 6.13807,-5.03968 8.58869,-6.59375 10.65625,-6.59375 2.13217,0 2.89907,2.3125 5.03125,2.3125 1.7445,0 3.21875,-1.47213 3.21875,-3.28125 0,-2.97212 -4.76522,-5.5 -8.125,-5.5 z M 94,496.53125 c -2.390637,0 -4.34375,0.44046 -4.34375,3.21875 0,2.58444 1.953113,3.25 4.34375,3.25 h 5.03125 v 15.3125 h -7.875 c -2.519831,0 -4.28125,0.56969 -4.28125,3.21875 0,1.35685 0.663024,3.25 4.28125,3.25 H 113.375 c 2.51985,0 4.25,-0.79477 4.25,-3.25 0,-2.71367 -1.98859,-3.21875 -4.25,-3.21875 H 105.5 v -21.78125 z m 146.1875,0 c -2.39061,0 -4.25,0.95735 -4.25,3.21875 0,1.80911 1.15331,2.99156 3.15625,3.25 l 11.125,21.5625 -3.5625,6.65625 h -6.46875 c -2.39061,0 -4.25,0.60093 -4.25,3.25 0,1.22761 0.7175,3.21875 3.625,3.21875 h 0.625 13.90625 c 2.32601,0 4.25,-0.63431 4.25,-3.21875 0,-2.64907 -1.79478,-3.25 -4.25,-3.25 H 253.75 L 268.625,503 c 2.13216,-0.19382 3.375,-1.37629 3.375,-3.25 0,-2.64906 -1.82603,-3.21875 -4.28125,-3.21875 h -5.9375 c -2.51983,0 -4.34375,0.89274 -4.34375,3.21875 0,2.06755 1.5072,3.25 4.15625,3.25 l -7.75,14.40625 L 246.46875,503 c 2.45522,-0.0647 3.8125,-1.24706 3.8125,-3.25 0,-2.64906 -1.82603,-3.21875 -4.28125,-3.21875 z m 110.09375,0 c -2.39063,0 -4.34375,0.44046 -4.34375,3.21875 0,2.58444 1.95312,3.25 4.34375,3.25 h 5.03125 v 15.3125 h -7.875 c -2.51983,0 -4.28125,0.56969 -4.28125,3.21875 0,1.35685 0.66303,3.25 4.28125,3.25 h 22.21875 c 2.51984,0 4.25,-0.79477 4.25,-3.25 0,-2.71367 -1.9886,-3.21875 -4.25,-3.21875 h -7.875 v -21.78125 z m 153.78125,5.625 c 4.71661,0 8.46622,2.25888 9.5,5.8125 h -19 c 0.96917,-3.48901 4.78338,-5.8125 9.5,-5.8125 z M 59.03125,509.125 H 67.75 c 5.491958,0 9.1875,2.2631 9.1875,5.6875 0,2.326 -2.200187,3.5 -6.59375,3.5 h -11.3125 z m 116.75,2.96875 c 2.19678,0 4.60305,0.26647 7.1875,0.71875 v 3.21875 c -3.55362,2.19679 -7.16724,3.3125 -10.65625,3.3125 -2.7783,0 -4.9375,-1.1098 -4.9375,-2.53125 0,-2.45522 4.01269,-4.71875 8.40625,-4.71875 z"
         transform="translate(0,452.36218)"
         id="path4555" />
      <path
         style="font-style:normal;font-variant:normal;font-weight:bold;font-stretch:normal;font-size:23.902px;line-height:125%;font-family:FreeMono;-inkscape-font-specification:'FreeMono Bold';letter-spacing:0px;word-spacing:0px;fill:#ccbbbb;fill-opacity:1;stroke:none"
         d="m 243,457.59375 c -1.17181,0 -2.09375,0.29526 -2.09375,1.59375 0,1.29849 0.89027,1.5625 2.09375,1.5625 h 0.5 v 13.4375 H 243 c -1.23515,0 -2.09375,0.29526 -2.09375,1.59375 0,1.04514 0.70025,1.59375 2.09375,1.59375 h 3.6875 v -5.21875 l 0.5625,-0.4375 3.25,2.875 c -0.38005,0.41171 -0.5,0.74411 -0.5,1.1875 0,1.04514 0.70024,1.59375 2.09375,1.59375 h 3.75 c 1.14014,0 2.09375,-0.29526 2.09375,-1.59375 0,-1.29849 -0.89028,-1.59375 -2.09375,-1.59375 h -1.0625 l -5.0625,-4.46875 3.75,-3.03125 h 0.875 c 1.14013,0 2.09375,-0.32693 2.09375,-1.59375 0,-1.26682 -0.82693,-1.5625 -2.09375,-1.5625 h -3.5625 c -1.14015,0 -2.09375,0.23234 -2.09375,1.5625 0,0.44339 0.11995,0.74411 0.5,1.1875 l -2.5,2 v -10.6875 z m 237.625,0 c -1.17182,0 -2.09375,0.29526 -2.09375,1.59375 0,1.29849 0.89026,1.5625 2.09375,1.5625 h 0.5 v 13.4375 h -0.5 c -1.23516,0 -2.09375,0.29526 -2.09375,1.59375 0,1.26683 0.92193,1.59375 2.09375,1.59375 h 3.6875 v -1.125 c 1.64686,1.14014 2.91269,1.5625 4.78125,1.5625 4.75059,0 7.78125,-3.22658 7.78125,-7.34375 0,-4.08551 -2.93523,-7.40625 -7.8125,-7.40625 -1.90023,0 -3.38816,0.51695 -4.75,1.59375 v -7.0625 z m -294.28125,1.3125 c -1.23516,0 -2.09375,0.264 -2.09375,1.5625 0,0.91844 0.61113,1.49873 1.65625,1.59375 v 12.125 h -0.1875 c -1.23516,0 -2.09375,0.29526 -2.09375,1.59375 0,1.26683 0.92194,1.59375 2.09375,1.59375 h 3.84375 c 1.17182,0 2.0625,-0.32692 2.0625,-1.59375 0,-1.33015 -0.95403,-1.59375 -2.0625,-1.59375 h -0.5 v -4.46875 h 6.78125 v 4.46875 H 195.375 c -1.17182,0 -2.09375,0.29526 -2.09375,1.59375 0,1.20349 0.89026,1.59375 2.09375,1.59375 h 3.84375 c 1.17181,0 2.09375,-0.32692 2.09375,-1.59375 0,-1.33015 -0.98528,-1.59375 -2.09375,-1.59375 h -0.1875 v -12.125 c 1.04512,-0.095 1.625,-0.67531 1.625,-1.59375 0,-1.26682 -0.8586,-1.5625 -2.09375,-1.5625 h -3.1875 c -1.23516,0 -2.09375,0.264 -2.09375,1.5625 0,1.29849 0.92193,1.59375 2.09375,1.59375 h 0.46875 v 4.5 h -6.78125 v -4.5 h 0.5 c 1.17182,0 2.0625,-0.29526 2.0625,-1.59375 0,-1.33017 -0.95403,-1.5625 -2.0625,-1.5625 z m 181,0 c -1.23515,0 -2.09375,0.264 -2.09375,1.5625 0,1.29849 0.92195,1.59375 2.09375,1.59375 h 0.5 v 12.125 h -0.5 c -1.1718,0 -2.09375,0.29526 -2.09375,1.59375 0,0.66508 0.3202,1.59375 2.09375,1.59375 h 4.75 c 1.23514,0 2.09375,-0.39026 2.09375,-1.59375 0,-1.26682 -0.85861,-1.59375 -2.09375,-1.59375 H 371 v -3.84375 h 3.03125 c 1.33016,0.47506 4.26023,3.95921 5.84375,7.03125 h 2.5 c 1.23515,0 2.09375,-0.39026 2.09375,-1.59375 0,-1.26682 -0.8586,-1.59375 -2.09375,-1.59375 h -0.40625 c -1.33016,-2.12192 -2.51149,-3.57651 -4,-4.875 2.31196,-1.26682 3.40625,-2.786 3.40625,-4.78125 0,-3.32541 -2.85158,-5.625 -6.96875,-5.625 z M 371,462.0625 h 3.53125 c 2.02691,0 3.5,1.01316 3.5,2.375 0,1.58353 -1.96467,2.71875 -4.625,2.71875 H 371 Z m 40.34375,1 c -4.24386,0 -7.46875,3.19407 -7.46875,7.40625 0,4.18052 3.22489,7.34375 7.46875,7.34375 1.64686,0 3.0119,-0.4857 4.46875,-1.5625 V 478 c 0,1.64688 -1.16352,2.53125 -2.96875,2.53125 H 409.375 c -1.23516,0 -2.09375,0.29525 -2.09375,1.59375 0,1.20347 0.85859,1.5625 2.09375,1.5625 h 3.5625 c 3.45209,0 6.03125,-2.33042 6.03125,-5.6875 V 466.6875 H 419.5 c 1.17181,0 2.09375,-0.29526 2.09375,-1.59375 0,-1.26682 -0.8586,-1.5625 -2.09375,-1.5625 h -3.6875 v 1.125 c -1.23515,-1.04512 -2.75854,-1.59375 -4.46875,-1.59375 z m 132.9375,0 c -4.24384,0 -7.46875,3.19407 -7.46875,7.40625 0,4.18052 3.22491,7.34375 7.46875,7.34375 1.64688,0 3.01191,-0.4857 4.46875,-1.5625 V 478 c 0,1.64688 -1.16353,2.53125 -2.96875,2.53125 h -3.46875 c -1.23515,0 -2.09375,0.29525 -2.09375,1.59375 0,1.20347 0.8586,1.5625 2.09375,1.5625 h 3.5625 c 3.45209,0 6.03125,-2.33042 6.03125,-5.6875 v -11.3125 h 0.5 c 1.17182,0 2.09375,-0.29526 2.09375,-1.59375 0,-1.26682 -0.8586,-1.5625 -2.09375,-1.5625 H 548.75 v 1.125 c -1.23516,-1.04512 -2.75854,-1.59375 -4.46875,-1.59375 z M 211.125,463.0937 c -1.58353,0 -3.91732,0.43035 -5.4375,0.96875 -0.63341,0.2217 -0.9375,0.64742 -0.9375,1.3125 0,0.91845 0.64446,1.625 1.53125,1.625 1.01345,0 2.65722,-0.71875 4.9375,-0.71875 2.02692,0 2.96875,0.45446 2.96875,1.53125 v 0.75 c -1.29849,-0.22168 -2.29905,-0.3125 -3.3125,-0.3125 -4.75059,0 -7.65625,2.58842 -7.65625,5.34375 0,2.34363 2.55213,4.28125 5.6875,4.28125 1.86857,0 3.76105,-0.45824 5.28125,-1.25 v 0.75 h 3.6875 c 1.1718,0 2.09375,-0.32692 2.09375,-1.59375 0,-1.26682 -0.85861,-1.59375 -2.09375,-1.59375 h -0.5 v -6.40625 c 0,-2.94536 -2.35454,-4.6875 -6.25,-4.6875 z m 19.5625,0 c -4.78225,0 -8.09375,3.18987 -8.09375,7.71875 0,3.07205 1.69083,7.0625 8.5,7.0625 4.75058,0 7.6875,-1.60187 7.6875,-3.34375 0,-0.88677 -0.73864,-1.59375 -1.59375,-1.59375 -1.29849,0 -0.96648,1.75 -5.84375,1.75 -3.70546,0 -5.59375,-1.27801 -5.59375,-3.875 0,-2.692 1.9288,-4.53125 4.9375,-4.53125 1.39351,0 2.55157,0.27451 3.375,0.78125 1.14014,0.82343 0.38018,2.65625 2.34375,2.65625 1.33017,0 1.5625,-0.98529 1.5625,-2.09375 v -2.4375 c 0,-1.45686 -0.45488,-2.09375 -1.5,-2.09375 -0.6651,0 -1.02873,0.30367 -1.21875,0.96875 -1.23515,-0.63341 -2.75729,-0.96875 -4.5625,-0.96875 z m 37.59375,0 c -3.80047,0 -6.5,1.81011 -6.5,4.34375 0,2.50198 1.84737,3.77494 6.28125,4.25 0.95011,0.095 4,0.32608 4,1.65625 0,0.72841 -1.66058,1.34375 -3.6875,1.34375 -1.71021,0 -3.05031,-0.39531 -3.96875,-1.21875 -0.28503,-0.95012 -0.80156,-1.40625 -1.625,-1.40625 -1.33016,0 -1.625,0.95319 -1.625,2.125 v 1.0625 c 0,1.10847 0.26317,2.09375 1.625,2.09375 0.41172,0 0.68288,-0.12121 1.03125,-0.40625 1.26682,0.60173 2.88227,0.9375 4.6875,0.9375 4.0855,0 7.0625,-1.87177 7.0625,-4.46875 0,-1.45684 -0.82526,-2.83366 -2.21875,-3.59375 -2.692,-1.52018 -8.09375,-0.98066 -8.09375,-2.4375 0,-0.57008 1.54106,-1.09375 3.15625,-1.09375 4.18052,0 3.10103,2.1875 4.90625,2.1875 1.2985,0 1.5625,-0.89026 1.5625,-2.09375 v -1.1875 c 0,-1.45686 -0.45529,-2.09375 -1.46875,-2.09375 -0.47505,0 -0.77789,0.242 -1.03125,0.84375 -1.23515,-0.57008 -2.54191,-0.84375 -4.09375,-0.84375 z m 19.9375,0 c -1.96358,0 -3.2919,0.51359 -4.84375,1.84375 v -1.40625 h -3.6875 c -1.17181,0 -2.09375,0.26401 -2.09375,1.5625 0,1.29849 0.89027,1.59375 2.09375,1.59375 h 0.5 v 13.84375 h -0.5 c -1.17181,0 -2.09375,0.29525 -2.09375,1.59375 0,1.29849 0.92194,1.5625 2.09375,1.5625 h 5.5 c 1.14014,0 2.09375,-0.29568 2.09375,-1.5625 0,-1.2985 -0.82693,-1.59375 -2.09375,-1.59375 h -1.8125 v -5.25 c 1.64686,1.26682 3.03769,1.75 4.90625,1.75 4.40221,0 7.65625,-2.85452 7.65625,-6.75 0,-4.08551 -3.28487,-7.1875 -7.71875,-7.1875 z m 17.875,0 c -1.58353,0 -3.94857,0.43035 -5.46875,0.96875 -0.63341,0.2217 -0.9375,0.64742 -0.9375,1.3125 0,0.91845 0.67572,1.625 1.5625,1.625 1.01345,0 2.65723,-0.71875 4.9375,-0.71875 2.02692,0 2.9375,0.45446 2.9375,1.53125 v 0.75 c -1.29849,-0.22168 -2.2678,-0.3125 -3.28125,-0.3125 -4.75059,0 -7.6875,2.58842 -7.6875,5.34375 0,2.34363 2.58336,4.28125 5.71875,4.28125 1.86855,0 3.72981,-0.45824 5.25,-1.25 v 0.75 h 3.71875 c 1.17181,0 2.09375,-0.32692 2.09375,-1.59375 0,-1.26682 -0.8586,-1.59375 -2.09375,-1.59375 h -0.53125 v -6.40625 c 0,-2.94536 -2.32328,-4.6875 -6.21875,-4.6875 z m 19.5625,0 c -4.78225,0 -8.125,3.18987 -8.125,7.71875 0,3.07205 1.72208,7.0625 8.53125,7.0625 4.75058,0 7.65625,-1.60187 7.65625,-3.34375 0,-0.88677 -0.73865,-1.59375 -1.59375,-1.59375 -1.29849,0 -0.96648,1.75 -5.84375,1.75 -3.70545,0 -5.5625,-1.27801 -5.5625,-3.875 0,-2.692 1.9288,-4.53125 4.9375,-4.53125 1.3935,0 2.52032,0.27451 3.34375,0.78125 1.14013,0.82343 0.38017,2.65625 2.34375,2.65625 1.33016,0 1.59375,-0.98529 1.59375,-2.09375 v -2.4375 c 0,-1.45686 -0.48612,-2.09375 -1.53125,-2.09375 -0.66508,0 -0.99748,0.30367 -1.1875,0.96875 -1.23515,-0.63341 -2.75727,-0.96875 -4.5625,-0.96875 z m 18.375,0 c -4.6239,0 -8.15625,3.25698 -8.15625,7.4375 0,4.30719 3.43481,7.34375 8.34375,7.34375 1.36183,0 8.03125,-0.37639 8.03125,-2.625 0,-0.88678 -0.67615,-1.59375 -1.53125,-1.59375 -1.23515,0 -3.27338,1.03125 -6.21875,1.03125 -2.787,0 -4.45907,-0.88102 -5.1875,-2.78125 H 352.25 v -1.21875 c 0,-4.37054 -3.49984,-7.59375 -8.21875,-7.59375 z m 49.03125,0 c -4.6239,0 -8.1875,3.25698 -8.1875,7.4375 0,4.30719 3.46606,7.34375 8.375,7.34375 1.36183,0 8,-0.37639 8,-2.625 0,-0.88678 -0.64488,-1.59375 -1.5,-1.59375 -1.23514,0 -3.2734,1.03125 -6.21875,1.03125 -2.78702,0 -4.45908,-0.88102 -5.1875,-2.78125 H 401.25 v -1.21875 c 0,-4.37054 -3.4686,-7.59375 -8.1875,-7.59375 z m 37.96875,0 c -4.6239,0 -8.15625,3.25698 -8.15625,7.4375 0,4.30719 3.43481,7.34375 8.34375,7.34375 1.36184,0 8.03125,-0.37639 8.03125,-2.625 0,-0.88678 -0.67615,-1.59375 -1.53125,-1.59375 -1.23516,0 -3.27339,1.03125 -6.21875,1.03125 -2.78702,0 -4.45908,-0.88102 -5.1875,-2.78125 H 439.25 v -1.21875 c 0,-4.37054 -3.49984,-7.59375 -8.21875,-7.59375 z m 20.28125,0 c -1.74188,0 -2.79231,0.48064 -4.3125,1.9375 v -1.5 h -3 c -1.23515,0 -2.125,0.42236 -2.125,1.5625 0,1.01345 0.70235,1.56208 1.9375,1.59375 v 7.5 h -0.1875 c -1.14015,0 -2.09375,0.29526 -2.09375,1.59375 0,1.20349 0.8586,1.59375 2.09375,1.59375 h 3.5625 c 1.10847,0 2.09375,-0.29526 2.09375,-1.59375 0,-1.33015 -0.98528,-1.59375 -2.09375,-1.59375 H 447 v -5.75 c 1.48851,-1.6152 2.48065,-2.15625 3.9375,-2.15625 1.96358,0 2.84375,0.72939 2.84375,2.28125 v 5.625 c -1.23514,0 -1.90625,0.5803 -1.90625,1.59375 0,1.04514 0.69983,1.59375 2.125,1.59375 h 2.8125 c 1.17181,0 2.09375,-0.32692 2.09375,-1.59375 0,-1.01345 -0.70235,-1.59375 -1.9375,-1.59375 v -5.75 c 0,-3.48376 -2.48919,-5.34375 -5.65625,-5.34375 z m 17.9375,0 c -3.80047,0 -6.53125,1.81011 -6.53125,4.34375 0,2.50198 1.87862,3.77494 6.3125,4.25 0.95012,0.095 3.96875,0.32608 3.96875,1.65625 0,0.72841 -1.6606,1.34375 -3.6875,1.34375 -1.71022,0 -3.0503,-0.39531 -3.96875,-1.21875 -0.28502,-0.95012 -0.80157,-1.40625 -1.625,-1.40625 -1.33016,0 -1.59375,0.95319 -1.59375,2.125 v 1.0625 c 0,1.10847 0.23192,2.09375 1.59375,2.09375 0.41172,0 0.68287,-0.12121 1.03125,-0.40625 1.26683,0.60173 2.88227,0.9375 4.6875,0.9375 4.08549,0 7.0625,-1.87177 7.0625,-4.46875 0,-1.45684 -0.82524,-2.83366 -2.21875,-3.59375 -2.692,-1.52018 -8.09375,-0.98066 -8.09375,-2.4375 0,-0.57008 1.54106,-1.09375 3.15625,-1.09375 4.18051,0 3.10103,2.1875 4.90625,2.1875 1.29849,0 1.5625,-0.89026 1.5625,-2.09375 v -1.1875 c 0,-1.45686 -0.4553,-2.09375 -1.46875,-2.09375 -0.47506,0 -0.77788,0.242 -1.03125,0.84375 -1.23514,-0.57008 -2.51064,-0.84375 -4.0625,-0.84375 z m 61.625,0.0312 c -1.55186,0 -2.77886,0.56852 -5.3125,2.46875 v -2.0625 h -4.25 c -1.3935,0 -2.09375,0.58072 -2.09375,1.5625 0,1.20349 0.8586,1.59375 2.09375,1.59375 h 1.09375 v 7.5 h -1.84375 c -1.23516,0 -2.09375,0.29526 -2.09375,1.59375 0,1.20349 0.89027,1.59375 2.09375,1.59375 h 9.40625 c 1.17182,0 2.125,-0.32692 2.125,-1.59375 0,-1.29849 -0.92152,-1.59375 -2.125,-1.59375 h -4.40625 v -4.65625 c 3.0087,-2.4703 4.23655,-3.21875 5.25,-3.21875 1.04513,0 1.42363,1.125 2.46875,1.125 0.85511,0 1.5625,-0.70698 1.5625,-1.59375 0,-1.45686 -2.32189,-2.71875 -3.96875,-2.71875 z m -30.59375,0.40625 c -1.23515,0 -2.09375,0.26401 -2.09375,1.5625 0,0.91845 0.70487,1.59375 1.75,1.59375 h 0.84375 v 5.71875 c 0,3.48376 2.45753,5.375 5.65625,5.375 1.74188,0 2.76022,-0.44899 4.34375,-1.9375 v 1.53125 h 3 c 1.10847,0 2.09375,-0.29526 2.09375,-1.59375 0,-1.01345 -0.70234,-1.59375 -1.9375,-1.59375 v -10.65625 h -4.28125 c -1.17182,0 -2.09375,0.26401 -2.09375,1.5625 0,0.60174 0.35608,1.59375 1.78125,1.59375 h 0.3125 1.125 v 5.75 c -1.64687,1.74188 -2.44772,2.15625 -4.03125,2.15625 -1.90023,0 -2.78125,-0.72939 -2.78125,-2.28125 v -8.78125 z m -88.875,2.71875 c 2.4703,0 4.40625,1.87471 4.40625,4.25 0,2.28029 -1.99929,4.125 -4.40625,4.125 -2.40696,0 -4.375,-1.84388 -4.375,-4.1875 0,-2.31196 1.96804,-4.1875 4.375,-4.1875 z m 77.625,0 c 2.81869,0 4.6875,1.84388 4.6875,4.1875 0,2.43863 -1.93215,4.1875 -4.6875,4.1875 -2.787,0 -4.71875,-1.71677 -4.71875,-4.21875 0,-2.28029 1.7734,-4.15625 4.71875,-4.15625 z m 55.3125,0 c 2.47029,0 4.40625,1.87471 4.40625,4.25 0,2.28029 -1.99929,4.125 -4.40625,4.125 -2.40696,0 -4.375,-1.84388 -4.375,-4.1875 0,-2.31196 1.96804,-4.1875 4.375,-4.1875 z m -256.25,0.0312 c 2.81868,0 4.6875,1.62764 4.6875,3.78125 0,2.21693 -1.96384,3.8125 -4.6875,3.8125 -2.78701,0 -4.71875,-1.59515 -4.71875,-3.84375 0,-2.09027 1.83673,-3.75 4.71875,-3.75 z m 55.96875,0 c 2.31194,0 4.14953,1.10187 4.65625,2.84375 h -9.3125 c 0.47506,-1.71021 2.34429,-2.84375 4.65625,-2.84375 z m 49.03125,0 c 2.31194,0 4.14951,1.10187 4.65625,2.84375 h -9.3125 c 0.47506,-1.71021 2.34429,-2.84375 4.65625,-2.84375 z m 37.96875,0 c 2.31195,0 4.14952,1.10187 4.65625,2.84375 h -9.3125 c 0.47506,-1.71021 2.3443,-2.84375 4.65625,-2.84375 z m -220.375,4.875 c 1.07681,0 2.26443,0.12205 3.53125,0.34375 v 1.59375 c -1.74188,1.0768 -3.53979,1.59375 -5.25,1.59375 -1.36184,0 -2.40625,-0.52199 -2.40625,-1.21875 0,-1.20347 1.9714,-2.3125 4.125,-2.3125 z m 94.96875,0 c 1.0768,0 2.23317,0.12205 3.5,0.34375 v 1.59375 c -1.74188,1.0768 -3.50853,1.59375 -5.21875,1.59375 -1.36183,0 -2.40625,-0.52199 -2.40625,-1.21875 0,-1.20347 1.97139,-2.3125 4.125,-2.3125 z"
         transform="translate(0,452.36218)"
         id="path3016" />
      <path
         style="fill:#ccbbbb;fill-opacity:1;fill-rule:nonzero;stroke:none"
         d="M 234.25,46.0625 C 192.55128,46.0941 158.75951,69.33213 158.78125,98 c 0.0184,24.17651 24.00416,44.61455 56.625,49.9375 6.80185,1.1099 10.64306,1.05083 14.6875,1.25 0.85078,0.0424 1.56808,0.92147 1.53125,1.6875 -0.0368,0.76603 -0.83672,1.60483 -1.6875,1.5625 -6.05104,-0.30107 -6.80481,-0.26271 -11.3125,-0.6875 v 15.28125 l -7.65625,0.0312 c -2.9688,0.0121 -5.54366,2.37975 -5.375,5.34375 l 6.3125,110.9375 c 0.16865,2.96401 2.41369,5.13276 5.375,5.34375 52.22003,3.72057 105.08725,3.94168 158.625,-0.125 2.96026,-0.22486 5.18009,-2.37945 5.34375,-5.34375 l 6.125,-110.9375 c 0.16366,-2.96427 -2.37498,-5.34375 -5.34375,-5.34375 h -6.125 l -0.0312,-19.71875 c -1.82352,0.21066 -4.00443,0.31409 -7.03125,0.3125 -0.87624,-4.6e-4 -1.69504,-0.87231 -1.6875,-1.65625 0.008,-0.78393 0.84268,-1.61127 1.71875,-1.59375 3.33937,0.0668 5.55119,0.0477 7.3125,-0.375 23.7574,-5.70175 40.60699,-20.77781 40.59375,-38.25 -0.0171,-22.58679 -28.21986,-40.8701 -62.96875,-40.84375 -18.22221,0.0138 -34.63862,5.07093 -46.125,13.125 2.19033,2.9639 4.0494,5.22289 6.125,6.75 2.11514,1.5562 4.47924,2.44251 8.15625,2.625 0.85079,0.0422 1.56808,0.92147 1.53125,1.6875 -0.0368,0.76604 -0.83672,1.60476 -1.6875,1.5625 -4.16153,-0.20668 -7.45101,-1.17873 -9.9375,-3.25 -3.03278,-2.52634 -4.5455,-3.53454 -7.21875,-8.15625 C 293.50632,59.87941 266.32929,46.03818 234.25,46.0625 Z m 28.875,146.90625 11.15625,0.125 c 2.54215,0.0306 4.556,2.0828 4.53125,4.625 l -0.65625,68.90625 c -0.0248,2.54221 -2.11409,4.59313 -4.65625,4.5625 l -11.125,-0.125 c -2.54215,-0.0306 -4.55599,-2.08279 -4.53125,-4.625 L 258.5,197.53125 c 0.0248,-2.5422 2.08285,-4.59313 4.625,-4.5625 z m 58.71875,0.59375 c 14.13405,0.14043 25.42939,17.42396 25.21875,38.625 -0.21064,21.20105 -11.80345,38.26542 -25.9375,38.125 -14.13403,-0.14043 -25.42939,-17.42394 -25.21875,-38.625 0.21064,-21.20104 11.80347,-38.26543 25.9375,-38.125 z"
         transform="translate(0,452.36218)"
         id="path3021" />
      <path
         style="fill:#ccbbbb;fill-opacity:1;fill-rule:nonzero;stroke:none"
         d="m 98.96875,716.01843 c -4.302151,0.12418 -9.599271,1.72351 -11.3125,5.90625 l -10.375,25.3125 c -2.58798,6.3184 4.23851,13.63043 7.8125,15.09375 L 194.5,807.11218 c 1.19855,-1.1948 2.86207,-1.95532 4.6875,-2 3.77989,-0.0925 6.93869,2.97004 7.03125,6.75 0.46168,0.20327 0.95246,0.43367 1.34375,0.59375 3.57439,1.46228 7.63132,-0.26944 9.09375,-3.84375 l 4.40625,-10.78125 51,20.875 15.3125,-6.71875 -61.71875,-25.28125 4.40625,-10.78125 c 1.46244,-3.57434 -0.23397,-7.67292 -3.8125,-9.125 l -1.34375,-0.53125 c -1.21896,1.43281 -3.03388,2.3566 -5.0625,2.40625 -3.77991,0.0925 -7.04805,-3.26028 -6.96875,-7.375 -37.70469,-15.62075 -74.99742,-30.705 -109.09375,-44.625 -1.1103,-0.45328 -2.85698,-0.7127 -4.8125,-0.65625 z m -0.25,12.78125 c 2.116,-0.0388 4.29579,0.20088 5.96875,0.875 35.44338,14.28186 68.90204,28.12122 104.28125,42.5625 1.02459,0.45196 1.51251,1.87845 1.125,2.8125 -0.38752,0.93405 -1.74446,1.61068 -2.78125,1.1875 l -103.875,-42.375 h -0.0312 c -4.36835,-1.77246 -7.91775,-0.78553 -9.9375,1.78125 -0.7632,0.9699 -2.37816,1.22467 -3.21875,0.53125 -0.84059,-0.69342 -0.90965,-2.35528 -0.09375,-3.28125 2.57498,-2.92235 5.8007,-4.04313 8.5625,-4.09375 z m -3.375,20.625 c 0.287473,-0.0176 0.57142,0.0323 0.875,0.15625 35.3593,14.44238 68.88896,28.21105 104.25,42.6875 1.05541,0.43208 1.60616,1.88898 1.21875,2.84375 -0.38742,0.95478 -1.78841,1.61973 -2.84375,1.1875 l -104.0625,-42.625 c -1.19033,-0.48752 -1.68718,-1.88923 -1.3125,-2.875 0.267675,-0.70426 1.01258,-1.32232 1.875,-1.375 z m 252.28125,87.25 -16.34375,6.28125 100.4375,41.125 c 0.7692,3.32152 9.6803,9.29423 16.0625,12.21875 4.0255,1.84463 8.2189,3.34339 12.3125,5.03125 2.8079,-6.94275 5.6454,-13.8888 8.5,-20.8125 -4.1076,-1.65371 -8.09045,-3.57043 -12.28125,-5 -5.3334,-1.8193 -15.7089,-4.28171 -20.0625,-2.5625 z"
         id="use3078"
         inkscape:connector-curvature="0" />
      <path
         style="fill:#ccbbbb;fill-opacity:1;fill-rule:nonzero;stroke:none"
         d="m 374.77989,754.93793 -9.2162,4.03936 c -1.89371,0.82954 -2.7524,2.99671 -1.92836,4.89282 l 2.49115,5.73207 -9.98036,14.35508 c -44.30192,20.66262 -92.70401,43.54194 -139.00235,65.35077 -3.49374,1.64572 -5.12695,5.64979 -3.57252,9.18509 l 2.94325,6.6941 c -3.96742,1.89454 -7.92374,3.79222 -11.87543,5.60399 -1.32234,-5.48391 -4.94832,-9.92099 -9.5538,-12.33957 -5.51013,-2.89366 -11.86627,-3.12478 -18.64278,-1.02962 -1.7021,0.52625 -3.49517,1.21787 -5.2498,2.11119 -1.75464,0.89331 -3.45789,1.99404 -4.99332,3.32858 -3.07087,2.66906 -5.51448,6.72118 -4.9111,11.43645 0.51529,4.02688 2.30706,8.02437 5.90076,10.51981 3.5937,2.49544 8.63024,3.13713 14.64048,1.54236 5.08377,-1.34893 10.00265,-3.03584 14.82092,-4.9419 -0.27382,0.44291 -0.38961,0.89871 -0.71542,1.33313 -2.18189,2.9092 -5.5308,5.48474 -9.09332,7.223 -14.55541,7.10204 -29.90506,14.65987 -45.26611,20.66068 l 2.39017,6.04855 c 15.7166,-6.13973 31.18584,-13.76604 45.72467,-20.85997 4.36512,-2.12988 8.49016,-5.2197 11.4511,-9.16767 1.93898,-2.58534 3.29875,-5.62055 3.83663,-8.891 4.77156,-2.13292 9.46337,-4.35456 14.1396,-6.58799 l 1.97171,4.45858 c 1.56202,3.53196 5.5776,5.1168 9.14023,3.62609 46.86635,-19.61023 96.88179,-40.63147 142.41898,-57.5676 l 17.27941,2.43991 2.51976,5.71964 c 0.8335,1.89202 2.99928,2.75828 4.89282,1.92835 l 9.21621,-4.03936 c 1.8937,-0.82954 2.78366,-3.01026 1.95701,-4.90527 l -9.13376,-20.9383 116.57676,-50.93657 c 2.28762,-0.99965 3.32854,-3.63107 2.33347,-5.92072 l -1.90573,-4.38504 29.06542,-12.69991 c 1.96611,-0.85883 6.82325,-4.85111 5.96441,-6.81724 -0.85517,-1.96773 -7.10366,-1.10843 -9.06969,-0.24939 l -29.06532,12.69986 -1.90573,-4.38503 c -0.99507,-2.28965 -3.66151,-3.31999 -5.94942,-2.321 l -116.56046,50.89541 -9.16246,-20.92582 c -0.82955,-1.89372 -3.02794,-2.74583 -4.92148,-1.9159 z M 176.277,864.41094 c 0.70685,-0.2903 1.42747,-0.57011 2.11337,-0.78217 5.40576,-1.67136 9.73329,-1.57173 13.76592,0.62764 3.28044,1.78915 5.84583,4.80654 6.49283,9.13807 -6.08039,2.60207 -12.1906,5.00245 -18.49695,6.67579 -4.794,1.27204 -7.55117,0.62969 -9.27652,-0.56838 -1.72535,-1.19808 -2.78183,-3.28977 -3.1328,-6.03247 -0.2823,-2.20612 0.64082,-3.91557 2.69976,-5.7051 1.02947,-0.89477 2.34885,-1.70053 3.72597,-2.40299 0.68855,-0.35125 1.40154,-0.66014 2.10844,-0.95034 z"
         id="path3858"
         inkscape:connector-curvature="0"
         sodipodi:nodetypes="sssccssccasssssscssccssccssccsssscsscscscsscssssacssssss" />
    </g>
  </g>
  <g
     inkscape:label="F.Mask-disabled"
     inkscape:groupmode="layer"
     id="g1454"
     transform="translate(-22.5355,-17.73187)" />
  <g
     inkscape:label="Dwgs.User-disabled"
     inkscape:groupmode="layer"
     id="g1456"
     transform="translate(-22.5355,-17.73187)" />
  <g
     inkscape:label="Cmts.User-disabled"
     inkscape:groupmode="layer"
     id="g1458"
     transform="translate(-22.5355,-17.73187)" />
  <g
     inkscape:label="Eco1.User-disabled"
     inkscape:groupmode="layer"
     id="g1460"
     transform="translate(-22.5355,-17.73187)" />
  <g
     inkscape:label="Eco2.User-disabled"
     inkscape:groupmode="layer"
     id="g1462"
     transform="translate(-22.5355,-17.73187)" />
  <g
     inkscape:label="Edge.Cuts"
     inkscape:groupmode="layer"
     id="g1464"
     transform="translate(-22.5355,-17.73187)" />
  <g
     inkscape:label="Margin-disabled"
     inkscape:groupmode="layer"
     id="g1466"
     transform="translate(-22.5355,-17.73187)" />
  <g
     inkscape:label="B.CrtYd-disabled"
     inkscape:groupmode="layer"
     id="g1468"
     transform="translate(-22.5355,-17.73187)" />
  <g
     inkscape:label="F.CrtYd-disabled"
     inkscape:groupmode="layer"
     id="g1470"
     transform="translate(-22.5355,-17.73187)" />
  <g
     inkscape:label="B.Fab-disabled"
     inkscape:groupmode="layer"
     id="g1472"
     transform="translate(-22.5355,-17.73187)" />
  <g
     inkscape:label="F.Fab-disabled"
     inkscape:groupmode="layer"
     id="g1474"
     transform="translate(-22.5355,-17.73187)" />
  <g
     inkscape:label="Drill"
     inkscape:groupmode="layer"
     id="g1476"
     transform="translate(-22.5355,-17.73187)" />
</svg>
