<?xml version="1.0" encoding="UTF-8" standalone="no"?>
<svg
   xmlns:dc="http://purl.org/dc/elements/1.1/"
   xmlns:cc="http://creativecommons.org/ns#"
   xmlns:rdf="http://www.w3.org/1999/02/22-rdf-syntax-ns#"
   xmlns:svg="http://www.w3.org/2000/svg"
   xmlns="http://www.w3.org/2000/svg"
   xmlns:sodipodi="http://sodipodi.sourceforge.net/DTD/sodipodi-0.dtd"
   xmlns:inkscape="http://www.inkscape.org/namespaces/inkscape"
   width="99.999786mm"
   height="67.556808mm"
   viewBox="0 0 99.999786 67.556808"
   version="1.1"
   id="svg878"
   inkscape:version="1.0.1 (3bc2e813f5, 2020-09-07)"
   sodipodi:docname="outline.svg">
  <defs
     id="defs872" />
  <sodipodi:namedview
     id="base"
     pagecolor="#ffffff"
     bordercolor="#666666"
     borderopacity="1.0"
     inkscape:pageopacity="0.0"
     inkscape:pageshadow="2"
     inkscape:zoom="0.79659046"
     inkscape:cx="245.54698"
     inkscape:cy="262.58326"
     inkscape:document-units="mm"
     inkscape:current-layer="layer1"
     inkscape:document-rotation="0"
     showgrid="false"
     fit-margin-top="0"
     fit-margin-left="0"
     fit-margin-right="0"
     fit-margin-bottom="0"
     inkscape:window-width="1920"
     inkscape:window-height="983"
     inkscape:window-x="0"
     inkscape:window-y="27"
     inkscape:window-maximized="1"
     showguides="true"
     inkscape:guide-bbox="true"
     inkscape:object-paths="true"
     inkscape:snap-intersection-paths="true"
     inkscape:snap-bbox="true"
     inkscape:bbox-paths="true">
    <sodipodi:guide
       position="-0.047864081,25.523686"
       orientation="1,0"
       id="guide839" />
  </sodipodi:namedview>
  <metadata
     id="metadata875">
    <rdf:RDF>
      <cc:Work
         rdf:about="">
        <dc:format>image/svg+xml</dc:format>
        <dc:type
           rdf:resource="http://purl.org/dc/dcmitype/StillImage" />
        <dc:title></dc:title>
      </cc:Work>
    </rdf:RDF>
  </metadata>
  <g
     inkscape:label="Layer 1"
     inkscape:groupmode="layer"
     id="layer1"
     transform="translate(-50.528625,-118.12725)">
    <path
       id="rect973"
       style="fill:#000000;fill-opacity:1;stroke:#000000;stroke-width:0;stroke-miterlimit:4;stroke-dasharray:none;stroke-opacity:1"
       d="M 222.32227 0 C 220.59616 -0.0064251969 219.22814 1.3773298 219.2168 3.1035156 L 219.18555 8.3203125 L 206.76172 15.931641 C 166.25408 18.093266 120.95933 18.614785 78.544922 19.169922 C 75.320698 19.212101 72.770724 21.759984 72.748047 24.984375 L 72.720703 29.054688 C 68.396697 28.898215 64.064788 28.756984 59.701172 28.708984 C 58.202283 26.382685 56.151017 24.509702 53.806641 23.173828 C 50.226665 21.133979 46.039576 20.137693 41.988281 19.957031 C 28.49471 19.35533 14.111766 18.655189 0.033203125 19.175781 L 0.21289062 24.603516 C 13.972956 24.094753 28.242988 24.782347 41.751953 25.384766 C 45.058348 25.532205 48.479134 26.391413 51.117188 27.894531 C 51.51112 28.11896 51.750445 28.429419 52.107422 28.677734 C 47.783423 28.819164 43.455667 29.163254 39.113281 29.818359 C 33.979742 30.594296 30.335356 32.759445 28.412109 35.865234 C 26.488859 38.97091 26.445071 42.629081 27.388672 45.884766 C 28.493583 49.696911 31.712007 51.98792 34.951172 53.011719 C 36.570741 53.52358 38.240027 53.801052 39.880859 53.902344 C 41.521707 54.003635 43.124915 53.936335 44.603516 53.773438 C 50.490262 53.12608 55.282216 50.836634 58.541016 46.789062 C 61.264778 43.40597 62.567512 38.803962 61.757812 34.164062 C 65.386737 34.238519 69.048331 34.377482 72.716797 34.509766 L 72.6875 40.615234 C 72.671823 43.839738 75.253604 46.363489 78.476562 46.462891 C 80.973617 46.539993 83.545361 46.619407 86.054688 46.697266 L 86.054688 66.355469 L 7.5605469 66.355469 C 3.3728303 66.355469 0 69.726346 0 73.914062 L 0 247.77344 C 0 251.96115 3.3728303 255.33203 7.5605469 255.33203 L 370.39258 255.33203 C 374.58029 255.33203 377.95117 251.96115 377.95117 247.77344 L 377.95117 73.914062 C 377.95117 69.726346 374.58029 66.355469 370.39258 66.355469 L 233.7207 66.355469 L 233.7207 62.386719 L 233.71289 62.386719 L 233.77344 44.179688 L 339.9668 44.425781 C 342.05128 44.430695 343.75218 42.754369 343.75195 40.669922 L 343.75586 36.677734 L 370.23828 36.746094 C 372.02963 36.750667 377.10197 35.332398 377.10352 33.541016 C 377.10794 31.749595 372.06088 30.303918 370.26953 30.300781 L 343.78516 30.232422 L 343.78906 26.240234 C 343.79031 24.155863 342.11765 22.48537 340.0332 22.482422 L 233.81445 22.208984 L 233.85352 3.1367188 C 233.85692 1.4104573 232.45072 0.038809055 230.72461 0.03125 L 222.32227 0 z M 56.304688 34.158203 C 57.248659 37.690965 56.287179 40.855896 54.369141 43.316406 C 52.011301 46.341238 48.729206 47.854848 44.033203 48.371094 C 43.437338 48.436858 42.79219 48.463271 42.154297 48.474609 L 42.154297 48.478516 C 41.516381 48.489098 40.868701 48.487329 40.224609 48.447266 C 38.93635 48.366913 37.658162 48.188884 36.572266 47.845703 C 34.4005 47.159341 33.124382 46.156606 32.607422 44.373047 C 31.964728 42.155598 32.078603 40.202037 33.001953 38.710938 C 33.925318 37.219876 35.825129 35.81169 39.919922 35.193359 C 45.30638 34.379287 50.782673 34.188439 56.304688 34.158203 z M 104.95312 47.283203 C 139.38394 48.355871 174.19634 49.44447 206.66211 50.322266 L 219.07812 58 L 219.07812 59.1875 L 219.07617 62.386719 L 219.07617 63.21875 L 219.07617 66.355469 L 104.95312 66.355469 L 104.95312 47.283203 z "
       transform="matrix(0.26458333,0,0,0.26458333,50.528625,118.12725)" />
  </g>
</svg>
