<?xml version="1.0" encoding="UTF-8" standalone="no"?>
<svg
   xmlns:dc="http://purl.org/dc/elements/1.1/"
   xmlns:cc="http://creativecommons.org/ns#"
   xmlns:rdf="http://www.w3.org/1999/02/22-rdf-syntax-ns#"
   xmlns:svg="http://www.w3.org/2000/svg"
   xmlns="http://www.w3.org/2000/svg"
   xmlns:sodipodi="http://sodipodi.sourceforge.net/DTD/sodipodi-0.dtd"
   xmlns:inkscape="http://www.inkscape.org/namespaces/inkscape"
   width="99.999786mm"
   height="67.556808mm"
   viewBox="0 0 99.999786 67.556808"
   version="1.1"
   id="svg878"
   inkscape:version="1.0.1 (3bc2e813f5, 2020-09-07)"
   sodipodi:docname="outline.svg">
  <defs
     id="defs872" />
  <sodipodi:namedview
     id="base"
     pagecolor="#ffffff"
     bordercolor="#666666"
     borderopacity="1.0"
     inkscape:pageopacity="0.0"
     inkscape:pageshadow="2"
     inkscape:zoom="1.5931809"
     inkscape:cx="262.95219"
     inkscape:cy="6.3337374"
     inkscape:document-units="mm"
     inkscape:current-layer="layer1"
     inkscape:document-rotation="0"
     showgrid="false"
     fit-margin-top="0"
     fit-margin-left="0"
     fit-margin-right="0"
     fit-margin-bottom="0"
     inkscape:window-width="1920"
     inkscape:window-height="983"
     inkscape:window-x="0"
     inkscape:window-y="27"
     inkscape:window-maximized="1"
     showguides="true"
     inkscape:guide-bbox="true"
     inkscape:object-paths="true"
     inkscape:snap-intersection-paths="true"
     inkscape:snap-bbox="true"
     inkscape:bbox-paths="true">
    <sodipodi:guide
       position="-0.047864081,25.523686"
       orientation="1,0"
       id="guide839" />
  </sodipodi:namedview>
  <metadata
     id="metadata875">
    <rdf:RDF>
      <cc:Work
         rdf:about="">
        <dc:format>image/svg+xml</dc:format>
        <dc:type
           rdf:resource="http://purl.org/dc/dcmitype/StillImage" />
        <dc:title />
      </cc:Work>
    </rdf:RDF>
  </metadata>
  <g
     inkscape:label="Layer 1"
     inkscape:groupmode="layer"
     id="layer1"
     transform="translate(-50.528625,-118.12725)">
    <path
       id="rect973"
       style="fill:#000000;fill-opacity:1;stroke:#000000;stroke-width:0;stroke-miterlimit:4;stroke-dasharray:none;stroke-opacity:1"
       d="M 222.32227 0 C 220.59616 -0.0064251966 219.22814 1.3773298 219.2168 3.1035156 L 219.18555 8.3203125 L 206.76172 15.931641 C 166.25408 18.093266 120.95933 18.614785 78.544922 19.169922 C 75.320698 19.212101 72.770724 21.759984 72.748047 24.984375 L 72.720703 29.054688 C 72.718755 29.054617 72.716792 29.054756 72.714844 29.054688 L 72.714844 34.509766 L 72.716797 34.509766 L 72.714844 34.916016 L 72.714844 41.210938 C 72.997372 44.145476 75.455041 46.369701 78.476562 46.462891 C 80.973617 46.539993 83.545361 46.619407 86.054688 46.697266 L 86.054688 66.355469 L 7.5605469 66.355469 C 3.3728303 66.355469 2.9605947e-15 69.726349 0 73.914062 L 0 247.77344 C 0 251.96115 3.3728303 255.33203 7.5605469 255.33203 L 370.39258 255.33203 C 374.58029 255.33203 377.95117 251.96115 377.95117 247.77344 L 377.95117 73.914062 C 377.95117 69.726349 374.58029 66.355469 370.39258 66.355469 L 329.13281 66.355469 L 329.13281 44.400391 L 339.9668 44.425781 C 341.75619 44.43 343.2559 43.19171 343.64648 41.523438 L 343.64648 41.552734 L 370.88477 36.703125 L 370.88477 36.695312 C 373.01229 36.452871 377.10212 35.15335 377.10352 33.541016 C 377.10748 31.935112 373.06991 30.615571 370.93945 30.355469 L 370.93945 30.349609 L 343.6875 25.363281 L 343.6875 25.396484 C 343.30713 23.724217 341.82618 22.484958 340.0332 22.482422 L 233.81445 22.208984 L 233.85352 3.1367188 C 233.85692 1.4104573 232.45072 0.038809055 230.72461 0.03125 L 222.32227 0 z M 233.77344 44.179688 L 314.44531 44.367188 L 314.44531 66.355469 L 233.7207 66.355469 L 233.7207 62.386719 L 233.71289 62.386719 L 233.77344 44.179688 z M 104.95312 47.283203 C 139.38394 48.355871 174.19634 49.44447 206.66211 50.322266 L 219.07812 58 L 219.07812 59.1875 L 219.07617 62.386719 L 219.07617 63.21875 L 219.07617 66.355469 L 104.95312 66.355469 L 104.95312 47.283203 z "
       transform="matrix(0.26458333,0,0,0.26458333,50.528625,118.12725)" />
    <rect
       style="fill:#ffff00;fill-opacity:1;stroke:none;stroke-width:2"
       id="rect846"
       width="0.020759046"
       height="0.11208288"
       x="112.92186"
       y="134.24269" />
  </g>
</svg>
