  0
SECTION
  2
HEADER
  9
$ACADVER
  1
AC1014
  9
$HANDSEED
  5
FFFF
  9
$MEASUREMENT
 70
     1
  0
ENDSEC
  0
SECTION
  2
TABLES
  0
TABLE
  2
VPORT
  5
8
330
0
100
AcDbSymbolTable
 70
     4
  0
VPORT
  5
2E
330
8
100
AcDbSymbolTableRecord
100
AcDbViewportTableRecord
  2
*ACTIVE
 70
     0
 10
0.0
 20
0.0
 11
1.0
 21
1.0
 12
210.0
 22
148.5
 13
0.0
 23
0.0
 14
10.0
 24
10.0
 15
10.0
 25
10.0
 16
0.0
 26
0.0
 36
1.0
 17
0.0
 27
0.0
 37
0.0
 40
341.0
 41
1.24
 42
50.0
 43
0.0
 44
0.0
 50
0.0
 51
0.0
 71
     0
 72
   100
 73
     1
 74
     3
 75
     0
 76
     0
 77
     0
 78
     0
  0
ENDTAB
  0
TABLE
  2
LTYPE
  5
5
330
0
100
AcDbSymbolTable
 70
     1
  0
LTYPE
  5
14
330
5
100
AcDbSymbolTableRecord
100
AcDbLinetypeTableRecord
  2
BYBLOCK
 70
     0
  3

 72
    65
 73
     0
 40
0.0
  0
LTYPE
  5
15
330
5
100
AcDbSymbolTableRecord
100
AcDbLinetypeTableRecord
  2
BYLAYER
 70
     0
  3

 72
    65
 73
     0
 40
0.0
  0
LTYPE
  5
16
330
5
100
AcDbSymbolTableRecord
100
AcDbLinetypeTableRecord
  2
CONTINUOUS
 70
     0
  3
Solid line
 72
    65
 73
     0
 40
0.0
  0
ENDTAB
  0
TABLE
  2
LAYER
  5
2
100
AcDbSymbolTable
 70
2
  0
LAYER
  5
50
100
AcDbSymbolTableRecord
100
AcDbLayerTableRecord
  2
0
 70
0
  6
CONTINUOUS
  0
LAYER
  5
51
100
AcDbSymbolTableRecord
100
AcDbLayerTableRecord
  2
Layer_1
 70
0
  6
CONTINUOUS
  0
ENDTAB
  0
TABLE
  2
STYLE
  5
3
330
0
100
AcDbSymbolTable
 70
     1
  0
STYLE
  5
11
330
3
100
AcDbSymbolTableRecord
100
AcDbTextStyleTableRecord
  2
STANDARD
 70
     0
 40
0.0
 41
1.0
 50
0.0
 71
     0
 42
2.5
  3
txt
  4

  0
ENDTAB
  0
TABLE
  2
VIEW
  5
6
330
0
100
AcDbSymbolTable
 70
     0
  0
ENDTAB
  0
TABLE
  2
UCS
  5
7
330
0
100
AcDbSymbolTable
 70
     0
  0
ENDTAB
  0
TABLE
  2
APPID
  5
9
330
0
100
AcDbSymbolTable
 70
     2
  0
APPID
  5
12
330
9
100
AcDbSymbolTableRecord
100
AcDbRegAppTableRecord
  2
ACAD
 70
     0
  0
ENDTAB
  0
TABLE
  2
DIMSTYLE
  5
A
330
0
100
AcDbSymbolTable
 70
     1
  0
DIMSTYLE
105
27
330
A
100
AcDbSymbolTableRecord
100
AcDbDimStyleTableRecord
  2
ISO-25
 70
     0
  3

  4

  5

  6

  7

 40
1.0
 41
2.5
 42
0.625
 43
3.75
 44
1.25
 45
0.0
 46
0.0
 47
0.0
 48
0.0
140
2.5
141
2.5
142
0.0
143
0.03937007874016
144
1.0
145
0.0
146
1.0
147
0.625
 71
     0
 72
     0
 73
     0
 74
     0
 75
     0
 76
     0
 77
     1
 78
     8
170
     0
171
     3
172
     1
173
     0
174
     0
175
     0
176
     0
177
     0
178
     0
270
     2
271
     2
272
     2
273
     2
274
     3
340
11
275
     0
280
     0
281
     0
282
     0
283
     0
284
     8
285
     0
286
     0
287
     3
288
     0
  0
ENDTAB
  0
TABLE
  2
BLOCK_RECORD
  5
1
330
0
100
AcDbSymbolTable
 70
     1
  0
BLOCK_RECORD
  5
1F
330
1
100
AcDbSymbolTableRecord
100
AcDbBlockTableRecord
  2
*MODEL_SPACE
  0
BLOCK_RECORD
  5
1B
330
1
100
AcDbSymbolTableRecord
100
AcDbBlockTableRecord
  2
*PAPER_SPACE
  0
ENDTAB
  0
ENDSEC
  0
SECTION
  2
BLOCKS
  0
BLOCK
  5
20
330
1F
100
AcDbEntity
  8
0
100
AcDbBlockBegin
  2
*MODEL_SPACE
 70
     0
 10
0.0
 20
0.0
 30
0.0
  3
*MODEL_SPACE
  1

  0
ENDBLK
  5
21
330
1F
100
AcDbEntity
  8
0
100
AcDbBlockEnd
  0
BLOCK
  5
1C
330
1B
100
AcDbEntity
 67
     1
  8
0
100
AcDbBlockBegin
  2
*PAPER_SPACE
  1

  0
ENDBLK
  5
1D
330
1B
100
AcDbEntity
 67
     1
  8
0
100
AcDbBlockEnd
  0
ENDSEC
  0
SECTION
  2
ENTITIES
  0
SPLINE
  5
100
100
AcDbEntity
  8
Layer_1
 62
7
100
AcDbSpline
 70
8
 71
3
 72
8
 73
4
 74
0
 40
0
 40
0
 40
0
 40
0
 40
1
 40
1
 40
1
 40
1
 10
58.822798
 20
67.556566
 30
0.0
 10
58.366099
 20
67.558266
 30
0.0
 10
58.004143
 20
67.192147
 30
0.0
 10
58.001143
 20
66.735427
 30
0.0
  0
SPLINE
  5
101
100
AcDbEntity
  8
Layer_1
 62
7
100
AcDbSpline
 70
8
 71
3
 72
8
 73
4
 74
0
 40
0
 40
0
 40
0
 40
0
 40
1
 40
1
 40
1
 40
1
 10
54.705736
 20
63.341319
 30
0.0
 10
43.988088
 20
62.769389
 30
0.0
 10
32.003851
 20
62.631404
 30
0.0
 10
20.781704
 20
62.484524
 30
0.0
  0
SPLINE
  5
102
100
AcDbEntity
  8
Layer_1
 62
7
100
AcDbSpline
 70
8
 71
3
 72
8
 73
4
 74
0
 40
0
 40
0
 40
0
 40
0
 40
1
 40
1
 40
1
 40
1
 10
20.781704
 20
62.484524
 30
0.0
 10
19.928628
 20
62.473364
 30
0.0
 10
19.253948
 20
61.799236
 30
0.0
 10
19.247948
 20
60.946116
 30
0.0
  0
LWPOLYLINE
  5
103
100
AcDbEntity
  8
Layer_1
 62
7
100
AcDbPolyline
 90
3
 70
0
 10
58.001143
 20
66.735427
 30
0.0
 10
57.992875
 20
65.355150
 30
0.0
 10
54.705736
 20
63.341319
 30
0.0
  0
SPLINE
  5
104
100
AcDbEntity
  8
Layer_1
 62
7
100
AcDbSpline
 70
8
 71
3
 72
8
 73
4
 74
0
 40
0
 40
0
 40
0
 40
0
 40
1
 40
1
 40
1
 40
1
 10
19.240713
 20
59.869179
 30
0.0
 10
18.096653
 20
59.910579
 30
0.0
 10
16.950502
 20
59.947947
 30
0.0
 10
15.795962
 20
59.960647
 30
0.0
  0
SPLINE
  5
105
100
AcDbEntity
  8
Layer_1
 62
7
100
AcDbSpline
 70
8
 71
3
 72
8
 73
4
 74
0
 40
0
 40
0
 40
0
 40
0
 40
1
 40
1
 40
1
 40
1
 10
15.795962
 20
59.960647
 30
0.0
 10
15.399381
 20
60.576147
 30
0.0
 10
14.856650
 20
61.071707
 30
0.0
 10
14.236367
 20
61.425157
 30
0.0
  0
SPLINE
  5
106
100
AcDbEntity
  8
Layer_1
 62
7
100
AcDbSpline
 70
8
 71
3
 72
8
 73
4
 74
0
 40
0
 40
0
 40
0
 40
0
 40
1
 40
1
 40
1
 40
1
 10
14.236367
 20
61.425157
 30
0.0
 10
13.289165
 20
61.964867
 30
0.0
 10
12.181331
 20
62.228467
 30
0.0
 10
11.109426
 20
62.276268
 30
0.0
  0
SPLINE
  5
107
100
AcDbEntity
  8
Layer_1
 62
7
100
AcDbSpline
 70
8
 71
3
 72
8
 73
4
 74
0
 40
0
 40
0
 40
0
 40
0
 40
1
 40
1
 40
1
 40
1
 10
11.109426
 20
62.276268
 30
0.0
 10
7.539251
 20
62.435468
 30
0.0
 10
3.733763
 20
62.620713
 30
0.0
 10
0.008810
 20
62.482973
 30
0.0
  0
LWPOLYLINE
  5
108
100
AcDbEntity
  8
Layer_1
 62
7
100
AcDbPolyline
 90
2
 70
0
 10
19.247948
 20
60.946116
 30
0.0
 10
19.240713
 20
59.869179
 30
0.0
  0
SPLINE
  5
109
100
AcDbEntity
  8
Layer_1
 62
7
100
AcDbSpline
 70
8
 71
3
 72
8
 73
4
 74
0
 40
0
 40
0
 40
0
 40
0
 40
1
 40
1
 40
1
 40
1
 10
0.056352
 20
61.046885
 30
0.0
 10
3.697037
 20
61.181495
 30
0.0
 10
7.472650
 20
60.999569
 30
0.0
 10
11.046897
 20
60.840179
 30
0.0
  0
SPLINE
  5
10a
100
AcDbEntity
  8
Layer_1
 62
7
100
AcDbSpline
 70
8
 71
3
 72
8
 73
4
 74
0
 40
0
 40
0
 40
0
 40
0
 40
1
 40
1
 40
1
 40
1
 10
11.046897
 20
60.840179
 30
0.0
 10
11.921714
 20
60.801169
 30
0.0
 10
12.826797
 20
60.573837
 30
0.0
 10
13.524782
 20
60.176137
 30
0.0
  0
SPLINE
  5
10b
100
AcDbEntity
  8
Layer_1
 62
7
100
AcDbSpline
 70
8
 71
3
 72
8
 73
4
 74
0
 40
0
 40
0
 40
0
 40
0
 40
1
 40
1
 40
1
 40
1
 10
13.524782
 20
60.176137
 30
0.0
 10
13.629010
 20
60.116757
 30
0.0
 10
13.692332
 20
60.034615
 30
0.0
 10
13.786782
 20
59.968915
 30
0.0
  0
SPLINE
  5
10c
100
AcDbEntity
  8
Layer_1
 62
7
100
AcDbSpline
 70
8
 71
3
 72
8
 73
4
 74
0
 40
0
 40
0
 40
0
 40
0
 40
1
 40
1
 40
1
 40
1
 10
13.786782
 20
59.968915
 30
0.0
 10
12.642724
 20
59.931495
 30
0.0
 10
11.497671
 20
59.840454
 30
0.0
 10
10.348748
 20
59.667124
 30
0.0
  0
SPLINE
  5
10d
100
AcDbEntity
  8
Layer_1
 62
7
100
AcDbSpline
 70
8
 71
3
 72
8
 73
4
 74
0
 40
0
 40
0
 40
0
 40
0
 40
1
 40
1
 40
1
 40
1
 10
10.348748
 20
59.667124
 30
0.0
 10
8.990499
 20
59.461824
 30
0.0
 10
8.026255
 20
58.888962
 30
0.0
 10
7.517396
 20
58.067222
 30
0.0
  0
SPLINE
  5
10e
100
AcDbEntity
  8
Layer_1
 62
7
100
AcDbSpline
 70
8
 71
3
 72
8
 73
4
 74
0
 40
0
 40
0
 40
0
 40
0
 40
1
 40
1
 40
1
 40
1
 10
7.517396
 20
58.067222
 30
0.0
 10
7.008536
 20
57.245512
 30
0.0
 10
6.996951
 20
56.277620
 30
0.0
 10
7.246612
 20
55.416220
 30
0.0
  0
SPLINE
  5
10f
100
AcDbEntity
  8
Layer_1
 62
7
100
AcDbSpline
 70
8
 71
3
 72
8
 73
4
 74
0
 40
0
 40
0
 40
0
 40
0
 40
1
 40
1
 40
1
 40
1
 10
7.246612
 20
55.416220
 30
0.0
 10
7.538953
 20
54.407590
 30
0.0
 10
8.390494
 20
53.801427
 30
0.0
 10
9.247524
 20
53.530547
 30
0.0
  0
SPLINE
  5
110
100
AcDbEntity
  8
Layer_1
 62
7
100
AcDbSpline
 70
8
 71
3
 72
8
 73
4
 74
0
 40
0
 40
0
 40
0
 40
0
 40
1
 40
1
 40
1
 40
1
 10
9.247524
 20
53.530547
 30
0.0
 10
9.676035
 20
53.395117
 30
0.0
 10
10.117700
 20
53.321703
 30
0.0
 10
10.551837
 20
53.294903
 30
0.0
  0
SPLINE
  5
111
100
AcDbEntity
  8
Layer_1
 62
7
100
AcDbSpline
 70
8
 71
3
 72
8
 73
4
 74
0
 40
0
 40
0
 40
0
 40
0
 40
1
 40
1
 40
1
 40
1
 10
10.551837
 20
53.294903
 30
0.0
 10
10.985978
 20
53.268103
 30
0.0
 10
11.410160
 20
53.285909
 30
0.0
 10
11.801373
 20
53.329009
 30
0.0
  0
SPLINE
  5
112
100
AcDbEntity
  8
Layer_1
 62
7
100
AcDbSpline
 70
8
 71
3
 72
8
 73
4
 74
0
 40
0
 40
0
 40
0
 40
0
 40
1
 40
1
 40
1
 40
1
 10
11.801373
 20
53.329009
 30
0.0
 10
13.358908
 20
53.500289
 30
0.0
 10
14.626780
 20
54.106038
 30
0.0
 10
15.489004
 20
55.176959
 30
0.0
  0
SPLINE
  5
113
100
AcDbEntity
  8
Layer_1
 62
7
100
AcDbSpline
 70
8
 71
3
 72
8
 73
4
 74
0
 40
0
 40
0
 40
0
 40
0
 40
1
 40
1
 40
1
 40
1
 10
15.489004
 20
55.176959
 30
0.0
 10
16.209666
 20
56.072069
 30
0.0
 10
16.554348
 20
57.289683
 30
0.0
 10
16.340114
 20
58.517324
 30
0.0
  0
SPLINE
  5
114
100
AcDbEntity
  8
Layer_1
 62
7
100
AcDbSpline
 70
8
 71
3
 72
8
 73
4
 74
0
 40
0
 40
0
 40
0
 40
0
 40
1
 40
1
 40
1
 40
1
 10
16.340114
 20
58.517324
 30
0.0
 10
17.300268
 20
58.497624
 30
0.0
 10
18.269065
 20
58.460856
 30
0.0
 10
19.239680
 20
58.425856
 30
0.0
  0
LWPOLYLINE
  5
115
100
AcDbEntity
  8
Layer_1
 62
7
100
AcDbPolyline
 90
2
 70
0
 10
0.008810
 20
62.482973
 30
0.0
 10
0.056352
 20
61.046885
 30
0.0
  0
SPLINE
  5
116
100
AcDbEntity
  8
Layer_1
 62
7
100
AcDbSpline
 70
8
 71
3
 72
8
 73
4
 74
0
 40
0
 40
0
 40
0
 40
0
 40
1
 40
1
 40
1
 40
1
 10
19.231928
 20
56.810451
 30
0.0
 10
19.227780
 20
55.957301
 30
0.0
 10
19.910876
 20
55.289558
 30
0.0
 10
20.763618
 20
55.263258
 30
0.0
  0
SPLINE
  5
117
100
AcDbEntity
  8
Layer_1
 62
7
100
AcDbSpline
 70
8
 71
3
 72
8
 73
4
 74
0
 40
0
 40
0
 40
0
 40
0
 40
1
 40
1
 40
1
 40
1
 10
20.763618
 20
55.263258
 30
0.0
 10
21.424297
 20
55.242858
 30
0.0
 10
22.104737
 20
55.221847
 30
0.0
 10
22.768664
 20
55.201246
 30
0.0
  0
LWPOLYLINE
  5
118
100
AcDbEntity
  8
Layer_1
 62
7
100
AcDbPolyline
 90
2
 70
0
 10
19.239680
 20
58.425856
 30
0.0
 10
19.231928
 20
56.810451
 30
0.0
  0
SPLINE
  5
119
100
AcDbEntity
  8
Layer_1
 62
7
100
AcDbSpline
 70
8
 71
3
 72
8
 73
4
 74
0
 40
0
 40
0
 40
0
 40
0
 40
1
 40
1
 40
1
 40
1
 10
2.000420
 20
50.000013
 30
0.0
 10
0.892420
 20
50.000013
 30
0.0
 10
0.000025
 20
49.108135
 30
0.0
 10
0.000025
 20
48.000135
 30
0.0
  0
LWPOLYLINE
  5
11a
100
AcDbEntity
  8
Layer_1
 62
7
100
AcDbPolyline
 90
3
 70
0
 10
22.768664
 20
55.201246
 30
0.0
 10
22.768664
 20
50.000013
 30
0.0
 10
2.000420
 20
50.000013
 30
0.0
  0
SPLINE
  5
11b
100
AcDbEntity
  8
Layer_1
 62
7
100
AcDbSpline
 70
8
 71
3
 72
8
 73
4
 74
0
 40
0
 40
0
 40
0
 40
0
 40
1
 40
1
 40
1
 40
1
 10
0.000025
 20
1.999836
 30
0.0
 10
0.000025
 20
0.891838
 30
0.0
 10
0.892420
 20
-0.000041
 30
0.0
 10
2.000420
 20
-0.000041
 30
0.0
  0
LWPOLYLINE
  5
11c
100
AcDbEntity
  8
Layer_1
 62
7
100
AcDbPolyline
 90
2
 70
0
 10
0.000025
 20
48.000135
 30
0.0
 10
0.000025
 20
1.999836
 30
0.0
  0
SPLINE
  5
11d
100
AcDbEntity
  8
Layer_1
 62
7
100
AcDbSpline
 70
8
 71
3
 72
8
 73
4
 74
0
 40
0
 40
0
 40
0
 40
0
 40
1
 40
1
 40
1
 40
1
 10
97.999739
 20
-0.000041
 30
0.0
 10
99.107737
 20
-0.000041
 30
0.0
 10
99.999616
 20
0.891838
 30
0.0
 10
99.999616
 20
1.999836
 30
0.0
  0
LWPOLYLINE
  5
11e
100
AcDbEntity
  8
Layer_1
 62
7
100
AcDbPolyline
 90
2
 70
0
 10
2.000420
 20
-0.000041
 30
0.0
 10
97.999739
 20
-0.000041
 30
0.0
  0
SPLINE
  5
11f
100
AcDbEntity
  8
Layer_1
 62
7
100
AcDbSpline
 70
8
 71
3
 72
8
 73
4
 74
0
 40
0
 40
0
 40
0
 40
0
 40
1
 40
1
 40
1
 40
1
 10
99.999616
 20
48.000135
 30
0.0
 10
99.999616
 20
49.108135
 30
0.0
 10
99.107737
 20
50.000013
 30
0.0
 10
97.999739
 20
50.000013
 30
0.0
  0
LWPOLYLINE
  5
120
100
AcDbEntity
  8
Layer_1
 62
7
100
AcDbPolyline
 90
2
 70
0
 10
99.999616
 20
1.999836
 30
0.0
 10
99.999616
 20
48.000135
 30
0.0
  0
SPLINE
  5
121
100
AcDbEntity
  8
Layer_1
 62
7
100
AcDbSpline
 70
8
 71
3
 72
8
 73
4
 74
0
 40
0
 40
0
 40
0
 40
0
 40
1
 40
1
 40
1
 40
1
 10
89.949584
 20
55.802244
 30
0.0
 10
90.501102
 20
55.800943
 30
0.0
 10
90.951132
 20
56.244471
 30
0.0
 10
90.951071
 20
56.795981
 30
0.0
  0
LWPOLYLINE
  5
122
100
AcDbEntity
  8
Layer_1
 62
7
100
AcDbPolyline
 90
6
 70
0
 10
97.999739
 20
50.000013
 30
0.0
 10
61.838633
 20
50.000013
 30
0.0
 10
61.838633
 20
51.050078
 30
0.0
 10
61.836567
 20
51.050078
 30
0.0
 10
61.852588
 20
55.867356
 30
0.0
 10
89.949584
 20
55.802244
 30
0.0
  0
SPLINE
  5
123
100
AcDbEntity
  8
Layer_1
 62
7
100
AcDbSpline
 70
8
 71
3
 72
8
 73
4
 74
0
 40
0
 40
0
 40
0
 40
0
 40
1
 40
1
 40
1
 40
1
 10
97.958914
 20
57.834161
 30
0.0
 10
98.432875
 20
57.832951
 30
0.0
 10
99.774932
 20
58.208201
 30
0.0
 10
99.775342
 20
58.682171
 30
0.0
  0
SPLINE
  5
124
100
AcDbEntity
  8
Layer_1
 62
7
100
AcDbSpline
 70
8
 71
3
 72
8
 73
4
 74
0
 40
0
 40
0
 40
0
 40
0
 40
1
 40
1
 40
1
 40
1
 10
99.775342
 20
58.682171
 30
0.0
 10
99.776511
 20
59.156151
 30
0.0
 10
98.441143
 20
59.538654
 30
0.0
 10
97.967182
 20
59.539484
 30
0.0
  0
LWPOLYLINE
  5
125
100
AcDbEntity
  8
Layer_1
 62
7
100
AcDbPolyline
 90
3
 70
0
 10
90.951071
 20
56.795981
 30
0.0
 10
90.952106
 20
57.852248
 30
0.0
 10
97.958914
 20
57.834161
 30
0.0
  0
SPLINE
  5
126
100
AcDbEntity
  8
Layer_1
 62
7
100
AcDbSpline
 70
8
 71
3
 72
8
 73
4
 74
0
 40
0
 40
0
 40
0
 40
0
 40
1
 40
1
 40
1
 40
1
 10
90.960890
 20
60.613837
 30
0.0
 10
90.961221
 20
61.165327
 30
0.0
 10
90.518663
 20
61.607311
 30
0.0
 10
89.967152
 20
61.608091
 30
0.0
  0
LWPOLYLINE
  5
127
100
AcDbEntity
  8
Layer_1
 62
7
100
AcDbPolyline
 90
3
 70
0
 10
97.967182
 20
59.539484
 30
0.0
 10
90.959858
 20
59.557570
 30
0.0
 10
90.960890
 20
60.613837
 30
0.0
  0
SPLINE
  5
128
100
AcDbEntity
  8
Layer_1
 62
7
100
AcDbSpline
 70
8
 71
3
 72
8
 73
4
 74
0
 40
0
 40
0
 40
0
 40
0
 40
1
 40
1
 40
1
 40
1
 10
61.873775
 20
66.726642
 30
0.0
 10
61.874675
 20
67.183382
 30
0.0
 10
61.502618
 20
67.546298
 30
0.0
 10
61.045918
 20
67.548298
 30
0.0
  0
LWPOLYLINE
  5
129
100
AcDbEntity
  8
Layer_1
 62
7
100
AcDbPolyline
 90
3
 70
0
 10
89.967152
 20
61.608091
 30
0.0
 10
61.863438
 20
61.680438
 30
0.0
 10
61.873775
 20
66.726642
 30
0.0
  0
SPLINE
  5
12a
100
AcDbEntity
  8
Layer_1
 62
7
100
AcDbSpline
 70
8
 71
3
 72
8
 73
4
 74
0
 40
0
 40
0
 40
0
 40
0
 40
1
 40
1
 40
1
 40
1
 10
14.897309
 20
58.518874
 30
0.0
 10
15.147068
 20
57.584164
 30
0.0
 10
14.892676
 20
56.746776
 30
0.0
 10
14.385195
 20
56.095766
 30
0.0
  0
SPLINE
  5
12b
100
AcDbEntity
  8
Layer_1
 62
7
100
AcDbSpline
 70
8
 71
3
 72
8
 73
4
 74
0
 40
0
 40
0
 40
0
 40
0
 40
1
 40
1
 40
1
 40
1
 10
14.385195
 20
56.095766
 30
0.0
 10
13.761350
 20
55.295445
 30
0.0
 10
12.892962
 20
54.894969
 30
0.0
 10
11.650478
 20
54.758379
 30
0.0
  0
SPLINE
  5
12c
100
AcDbEntity
  8
Layer_1
 62
7
100
AcDbSpline
 70
8
 71
3
 72
8
 73
4
 74
0
 40
0
 40
0
 40
0
 40
0
 40
1
 40
1
 40
1
 40
1
 10
11.650478
 20
54.758379
 30
0.0
 10
11.492822
 20
54.740979
 30
0.0
 10
11.322126
 20
54.733991
 30
0.0
 10
11.153351
 20
54.730991
 30
0.0
  0
LWPOLYLINE
  5
12d
100
AcDbEntity
  8
Layer_1
 62
7
100
AcDbPolyline
 90
3
 70
0
 10
61.045918
 20
67.548298
 30
0.0
 10
58.822798
 20
67.556566
 30
0.0
 10
58.822798
 20
67.556566
 30
0.0
  0
SPLINE
  5
12e
100
AcDbEntity
  8
Layer_1
 62
7
100
AcDbSpline
 70
8
 71
3
 72
8
 73
4
 74
0
 40
0
 40
0
 40
0
 40
0
 40
1
 40
1
 40
1
 40
1
 10
11.153351
 20
54.729957
 30
0.0
 10
10.984569
 20
54.727157
 30
0.0
 10
10.813203
 20
54.727626
 30
0.0
 10
10.642787
 20
54.738226
 30
0.0
  0
SPLINE
  5
12f
100
AcDbEntity
  8
Layer_1
 62
7
100
AcDbSpline
 70
8
 71
3
 72
8
 73
4
 74
0
 40
0
 40
0
 40
0
 40
0
 40
1
 40
1
 40
1
 40
1
 10
10.642787
 20
54.738226
 30
0.0
 10
10.301935
 20
54.759486
 30
0.0
 10
9.963748
 20
54.806589
 30
0.0
 10
9.676438
 20
54.897389
 30
0.0
  0
SPLINE
  5
130
100
AcDbEntity
  8
Layer_1
 62
7
100
AcDbSpline
 70
8
 71
3
 72
8
 73
4
 74
0
 40
0
 40
0
 40
0
 40
0
 40
1
 40
1
 40
1
 40
1
 10
9.676438
 20
54.897389
 30
0.0
 10
9.101825
 20
55.078989
 30
0.0
 10
8.764185
 20
55.344296
 30
0.0
 10
8.627406
 20
55.816196
 30
0.0
  0
SPLINE
  5
131
100
AcDbEntity
  8
Layer_1
 62
7
100
AcDbSpline
 70
8
 71
3
 72
8
 73
4
 74
0
 40
0
 40
0
 40
0
 40
0
 40
1
 40
1
 40
1
 40
1
 10
8.627406
 20
55.816196
 30
0.0
 10
8.457360
 20
56.402896
 30
0.0
 10
8.487490
 20
56.919776
 30
0.0
 10
8.731793
 20
57.314296
 30
0.0
  0
SPLINE
  5
132
100
AcDbEntity
  8
Layer_1
 62
7
100
AcDbSpline
 70
8
 71
3
 72
8
 73
4
 74
0
 40
0
 40
0
 40
0
 40
0
 40
1
 40
1
 40
1
 40
1
 10
8.731793
 20
57.314296
 30
0.0
 10
8.976100
 20
57.708806
 30
0.0
 10
9.478758
 20
58.081389
 30
0.0
 10
10.562172
 20
58.244989
 30
0.0
  0
SPLINE
  5
133
100
AcDbEntity
  8
Layer_1
 62
7
100
AcDbSpline
 70
8
 71
3
 72
8
 73
4
 74
0
 40
0
 40
0
 40
0
 40
0
 40
1
 40
1
 40
1
 40
1
 10
10.562172
 20
58.244989
 30
0.0
 10
11.987339
 20
58.460379
 30
0.0
 10
13.436275
 20
58.510874
 30
0.0
 10
14.897309
 20
58.518874
 30
0.0
  0
LWPOLYLINE
  5
134
100
AcDbEntity
  8
Layer_1
 62
7
100
AcDbPolyline
 90
2
 70
0
 10
11.153351
 20
54.730991
 30
0.0
 10
11.153351
 20
54.729957
 30
0.0
  0
SPLINE
  5
135
100
AcDbEntity
  8
Layer_1
 62
7
100
AcDbSpline
 70
8
 71
3
 72
8
 73
4
 74
0
 40
0
 40
0
 40
0
 40
0
 40
1
 40
1
 40
1
 40
1
 10
27.768874
 20
55.046217
 30
0.0
 10
36.878696
 20
54.762407
 30
0.0
 10
46.089478
 20
54.474382
 30
0.0
 10
54.679381
 20
54.242132
 30
0.0
  0
LWPOLYLINE
  5
136
100
AcDbEntity
  8
Layer_1
 62
7
100
AcDbPolyline
 90
1
 70
1
 10
14.897309
 20
58.518874
 30
0.0
  0
LWPOLYLINE
  5
137
100
AcDbEntity
  8
Layer_1
 62
7
100
AcDbPolyline
 90
9
 70
0
 10
54.679381
 20
54.242132
 30
0.0
 10
57.964450
 20
52.210731
 30
0.0
 10
57.964450
 20
51.896538
 30
0.0
 10
57.963934
 20
51.050078
 30
0.0
 10
57.963934
 20
50.829937
 30
0.0
 10
57.963934
 20
50.000013
 30
0.0
 10
27.768874
 20
50.000013
 30
0.0
 10
27.768874
 20
55.046217
 30
0.0
 10
27.768874
 20
55.046217
 30
0.0
  0
ENDSEC
  0
SECTION
  2
OBJECTS
  0
DICTIONARY
  5
C
330
0
100
AcDbDictionary
  3
ACAD_GROUP
350
D
  3
ACAD_MLINESTYLE
350
17
  0
DICTIONARY
  5
D
330
C
100
AcDbDictionary
  0
DICTIONARY
  5
1A
330
C
100
AcDbDictionary
  0
DICTIONARY
  5
17
330
C
100
AcDbDictionary
  3
STANDARD
350
18
  0
DICTIONARY
  5
19
330
C
100
AcDbDictionary
  0
ENDSEC
  0
EOF
