<?xml version="1.0" encoding="UTF-8" standalone="no"?>
<svg
   xmlns:dc="http://purl.org/dc/elements/1.1/"
   xmlns:cc="http://creativecommons.org/ns#"
   xmlns:rdf="http://www.w3.org/1999/02/22-rdf-syntax-ns#"
   xmlns:svg="http://www.w3.org/2000/svg"
   xmlns="http://www.w3.org/2000/svg"
   xmlns:sodipodi="http://sodipodi.sourceforge.net/DTD/sodipodi-0.dtd"
   xmlns:inkscape="http://www.inkscape.org/namespaces/inkscape"
   width="30mm"
   height="10.424189mm"
   viewBox="0 0 30.000001 10.424188"
   version="1.1"
   id="svg1156"
   sodipodi:docname="Tettnang_Logo.svg"
   inkscape:version="1.0.1 (3bc2e813f5, 2020-09-07)">
  <defs
     id="defs1150">
    <clipPath
       clipPathUnits="userSpaceOnUse"
       id="clipPath851">
      <path
         d="M 1226,0.921875 H 3732 V 7016.9219 H 1226 Z"
         clip-rule="evenodd"
         id="path849" />
    </clipPath>
  </defs>
  <sodipodi:namedview
     id="base"
     pagecolor="#ffffff"
     bordercolor="#666666"
     borderopacity="1.0"
     inkscape:pageopacity="0.0"
     inkscape:pageshadow="2"
     inkscape:zoom="1.4"
     inkscape:cx="35.28408"
     inkscape:cy="135.12396"
     inkscape:document-units="mm"
     inkscape:current-layer="g1744"
     inkscape:document-rotation="0"
     showgrid="true"
     inkscape:window-width="2560"
     inkscape:window-height="1343"
     inkscape:window-x="0"
     inkscape:window-y="27"
     inkscape:window-maximized="1"
     borderlayer="true"
     fit-margin-top="0"
     fit-margin-left="0"
     fit-margin-right="0"
     fit-margin-bottom="0">
    <inkscape:grid
       spacingx="2.54"
       spacingy="2.54"
       empspacing="1"
       type="xygrid"
       units="mm"
       id="grid1720"
       originx="-46.284533"
       originy="-44.395879" />
  </sodipodi:namedview>
  <metadata
     id="metadata1153">
    <rdf:RDF>
      <cc:Work
         rdf:about="">
        <dc:format>image/svg+xml</dc:format>
        <dc:type
           rdf:resource="http://purl.org/dc/dcmitype/StillImage" />
        <dc:title />
      </cc:Work>
    </rdf:RDF>
  </metadata>
  <g
     inkscape:label="[fixed] BG"
     inkscape:groupmode="layer"
     sodipodi:insensitive="true"
     id="g1726"
     transform="translate(-46.284531,-44.395884)">
    <rect
       x="0"
       y="0"
       width="100"
       height="100"
       style="fill:#ffffff;fill-opacity:1;stroke:none"
       id="rect1724" />
  </g>
  <g
     inkscape:label="F.Cu"
     inkscape:groupmode="layer"
     id="g1728"
     transform="translate(-46.284531,-44.395884)" />
  <g
     inkscape:label="B.Cu-disabled"
     inkscape:groupmode="layer"
     id="g1730"
     transform="translate(-46.284531,-44.395884)" />
  <g
     inkscape:label="B.Adhes-disabled"
     inkscape:groupmode="layer"
     id="g1732"
     transform="translate(-46.284531,-44.395884)" />
  <g
     inkscape:label="F.Adhes-disabled"
     inkscape:groupmode="layer"
     id="g1734"
     transform="translate(-46.284531,-44.395884)" />
  <g
     inkscape:label="B.Paste-disabled"
     inkscape:groupmode="layer"
     id="g1736"
     transform="translate(-46.284531,-44.395884)" />
  <g
     inkscape:label="F.Paste-disabled"
     inkscape:groupmode="layer"
     id="g1738"
     transform="translate(-46.284531,-44.395884)" />
  <g
     inkscape:label="B.SilkS-disabled"
     inkscape:groupmode="layer"
     id="g1740"
     transform="translate(-46.284531,-44.395884)" />
  <g
     inkscape:label="F.SilkS-disabled"
     inkscape:groupmode="layer"
     id="g1742"
     transform="translate(-46.284531,-44.395884)" />
  <g
     inkscape:label="B.Mask"
     inkscape:groupmode="layer"
     id="g1744"
     transform="translate(-46.284531,-44.395884)">
    <g
       id="g2711"
       transform="matrix(-0.29999998,0,0,0.29999998,75.923145,34.751313)">
      <path
         d="M -0.95260741,44.410911 H 19.025945"
         style="fill:none;stroke:#4f585e;stroke-width:0.330171;stroke-linecap:round;stroke-linejoin:round;stroke-miterlimit:10;stroke-dasharray:none;stroke-opacity:1"
         id="path853" />
      <path
         d="M -1.0395338,47.699626 H 17.78"
         style="fill:none;stroke:#4f585e;stroke-width:0.330171;stroke-linecap:round;stroke-linejoin:round;stroke-miterlimit:10;stroke-dasharray:none;stroke-opacity:1"
         id="path855" />
      <path
         d="M -0.95260741,50.8 H 17.78"
         style="fill:none;stroke:#4f585e;stroke-width:0.330171;stroke-linecap:round;stroke-linejoin:round;stroke-miterlimit:10;stroke-dasharray:none;stroke-opacity:1"
         id="path857" />
      <path
         d="M -0.95260741,54.262568 H 17.78"
         style="fill:none;stroke:#4f585e;stroke-width:0.330171;stroke-linecap:round;stroke-linejoin:round;stroke-miterlimit:10;stroke-dasharray:none;stroke-opacity:1"
         id="path859" />
      <path
         d="M -0.95260741,57.927963 H 19.982135"
         style="fill:none;stroke:#4f585e;stroke-width:0.330171;stroke-linecap:round;stroke-linejoin:round;stroke-miterlimit:10;stroke-dasharray:none;stroke-opacity:1"
         id="path861" />
      <path
         d="M -0.95260741,64.490905 H 19.895209"
         style="fill:none;stroke:#4f585e;stroke-width:0.330171;stroke-linecap:round;stroke-linejoin:round;stroke-miterlimit:10;stroke-dasharray:none;stroke-opacity:1"
         id="path863" />
      <path
         d="M 1.4813327,54.363982 V 33.661015"
         style="fill:none;stroke:#4f585e;stroke-width:0.330171;stroke-linecap:round;stroke-linejoin:round;stroke-miterlimit:10;stroke-dasharray:none;stroke-opacity:1"
         id="path865" />
      <path
         d="M 5.3350689,57.927963 V 36.254319"
         style="fill:none;stroke:#4f585e;stroke-width:0.330171;stroke-linecap:round;stroke-linejoin:round;stroke-miterlimit:10;stroke-dasharray:none;stroke-opacity:1"
         id="path867" />
      <path
         d="M 9.7393388,61.01385 V 36.065979"
         style="fill:none;stroke:#af1630;stroke-width:0.330171;stroke-linecap:round;stroke-linejoin:round;stroke-miterlimit:10;stroke-dasharray:none;stroke-opacity:1"
         id="path869" />
      <path
         d="M 13.955239,64.577831 V 34.197061"
         style="fill:none;stroke:#4f585e;stroke-width:0.330171;stroke-linecap:round;stroke-linejoin:round;stroke-miterlimit:10;stroke-dasharray:none;stroke-opacity:1"
         id="path871" />
      <path
         d="m 1.4813327,32.313657 c 0.3600346,0 0.6519478,0.291927 0.6519478,0.651947 0,0.360021 -0.2919132,0.651948 -0.6519478,0.651948 -0.3600491,0 -0.65194787,-0.291927 -0.65194787,-0.651948 0,-0.36002 0.29189877,-0.651947 0.65194787,-0.651947"
         style="fill:none;stroke:#4f585e;stroke-width:0.330171;stroke-linecap:round;stroke-linejoin:round;stroke-miterlimit:10;stroke-dasharray:none;stroke-opacity:1"
         id="path873" />
      <path
         d="m 5.3350689,34.935936 c 0.3600345,0 0.6519478,0.291927 0.6519478,0.651948 0,0.36002 -0.2919133,0.651947 -0.6519478,0.651947 -0.3600491,0 -0.6519479,-0.291927 -0.6519479,-0.651947 0,-0.360021 0.2918988,-0.651948 0.6519479,-0.651948"
         style="fill:none;stroke:#af1630;stroke-width:0.330171;stroke-linecap:round;stroke-linejoin:round;stroke-miterlimit:10;stroke-dasharray:none;stroke-opacity:1"
         id="path875" />
      <path
         d="m 9.7393388,34.747595 c 0.3600342,0 0.6519482,0.291928 0.6519482,0.651948 0,0.36002 -0.291914,0.651948 -0.6519482,0.651948 -0.3600491,0 -0.6519479,-0.291928 -0.6519479,-0.651948 0,-0.36002 0.2918988,-0.651948 0.6519479,-0.651948"
         style="fill:none;stroke:#4f585e;stroke-width:0.330171;stroke-linecap:round;stroke-linejoin:round;stroke-miterlimit:10;stroke-dasharray:none;stroke-opacity:1"
         id="path877" />
      <path
         d="m 13.955239,32.777264 c 0.36002,0 0.651948,0.291928 0.651948,0.651948 0,0.36002 -0.291928,0.651948 -0.651948,0.651948 -0.36002,0 -0.651948,-0.291928 -0.651948,-0.651948 0,-0.36002 0.291928,-0.651948 0.651948,-0.651948"
         style="fill:none;stroke:#4f585e;stroke-width:0.330171;stroke-linecap:round;stroke-linejoin:round;stroke-miterlimit:10;stroke-dasharray:none;stroke-opacity:1"
         id="path879" />
      <path
         d="m 5.3350689,57.276015 c 0.3600345,0 0.6519478,0.291928 0.6519478,0.651948 0,0.36002 -0.2919133,0.651948 -0.6519478,0.651948 -0.3600491,0 -0.6519479,-0.291928 -0.6519479,-0.651948 0,-0.36002 0.2918988,-0.651948 0.6519479,-0.651948"
         style="fill:#4f585e;fill-opacity:1;fill-rule:evenodd;stroke:none;stroke-width:0.0144877"
         id="path881" />
      <path
         d="m 5.3350689,57.276015 c 0.3600345,0 0.6519478,0.291928 0.6519478,0.651948 0,0.36002 -0.2919133,0.651948 -0.6519478,0.651948 -0.3600491,0 -0.6519479,-0.291928 -0.6519479,-0.651948 0,-0.36002 0.2918988,-0.651948 0.6519479,-0.651948"
         style="fill:none;stroke:#4f585e;stroke-width:0.330171;stroke-linecap:round;stroke-linejoin:round;stroke-miterlimit:10;stroke-dasharray:none;stroke-opacity:1"
         id="path883" />
      <path
         d="m 1.4813327,53.61062 c 0.3600346,0 0.6519478,0.291927 0.6519478,0.651948 0,0.36002 -0.2919132,0.651947 -0.6519478,0.651947 -0.3600491,0 -0.65194787,-0.291927 -0.65194787,-0.651947 0,-0.360021 0.29189877,-0.651948 0.65194787,-0.651948"
         style="fill:#af1630;fill-opacity:1;fill-rule:evenodd;stroke:none;stroke-width:0.0144877"
         id="path885" />
      <path
         d="m 1.4813327,53.61062 c 0.3600346,0 0.6519478,0.291927 0.6519478,0.651948 0,0.36002 -0.2919132,0.651947 -0.6519478,0.651947 -0.3600491,0 -0.65194787,-0.291927 -0.65194787,-0.651947 0,-0.360021 0.29189877,-0.651948 0.65194787,-0.651948"
         style="fill:none;stroke:#af1630;stroke-width:0.330171;stroke-linecap:round;stroke-linejoin:round;stroke-miterlimit:10;stroke-dasharray:none;stroke-opacity:1"
         id="path887" />
      <path
         d="m 9.7393388,60.361902 c 0.3600342,0 0.6519482,0.291928 0.6519482,0.651948 0,0.36002 -0.291914,0.651948 -0.6519482,0.651948 -0.3600491,0 -0.6519479,-0.291928 -0.6519479,-0.651948 0,-0.36002 0.2918988,-0.651948 0.6519479,-0.651948"
         style="fill:#4f585e;fill-opacity:1;fill-rule:evenodd;stroke:none;stroke-width:0.0144877"
         id="path889" />
      <path
         d="m 9.7393388,60.361902 c 0.3600342,0 0.6519482,0.291928 0.6519482,0.651948 0,0.36002 -0.291914,0.651948 -0.6519482,0.651948 -0.3600491,0 -0.6519479,-0.291928 -0.6519479,-0.651948 0,-0.36002 0.2918988,-0.651948 0.6519479,-0.651948"
         style="fill:none;stroke:#4f585e;stroke-width:0.330171;stroke-linecap:round;stroke-linejoin:round;stroke-miterlimit:10;stroke-dasharray:none;stroke-opacity:1"
         id="path891" />
      <path
         d="m 13.955239,63.838957 c 0.36002,0 0.651948,0.291928 0.651948,0.651948 0,0.36002 -0.291928,0.651948 -0.651948,0.651948 -0.36002,0 -0.651948,-0.291928 -0.651948,-0.651948 0,-0.36002 0.291928,-0.651948 0.651948,-0.651948"
         style="fill:#4f585e;fill-opacity:1;fill-rule:evenodd;stroke:none;stroke-width:0.0144877"
         id="path893" />
      <path
         d="m 13.955239,63.838957 c 0.36002,0 0.651948,0.291928 0.651948,0.651948 0,0.36002 -0.291928,0.651948 -0.651948,0.651948 -0.36002,0 -0.651948,-0.291928 -0.651948,-0.651948 0,-0.36002 0.291928,-0.651948 0.651948,-0.651948"
         style="fill:none;stroke:#4f585e;stroke-width:0.375195;stroke-linecap:butt;stroke-linejoin:miter;stroke-miterlimit:10;stroke-dasharray:none;stroke-opacity:1"
         id="path895" />
      <path
         d="m 19.431601,48.989034 c 0,0.420144 0,0.854776 0,1.289408 1.028629,0 2.057258,0 3.100374,0 0,0.434632 0,0.869264 0,1.318383 -1.028628,0 -2.057257,0 -3.100374,0 0,0.44912 0,0.912727 0,1.376335 1.115555,0 2.245598,0 3.375641,0 0,0.50707 0,1.014141 0,1.535699 -1.767503,0 -3.549494,0 -5.331484,0 0,-2.347012 0,-4.694025 0,-7.055525 1.753015,0 3.50603,0 5.273533,0 0,0.507071 0,1.014142 0,1.5357 -1.101067,0 -2.202135,0 -3.31769,0"
         style="fill:#b30033;fill-opacity:1;fill-rule:evenodd;stroke:none;stroke-width:0.0144877"
         id="path897" />
      <path
         d="m 24.589233,47.453334 c 0,2.347013 0,4.694025 0,7.055525 -0.246291,0 -0.492583,0 -0.738874,0 0,-2.347012 0,-4.694025 0,-7.055525 0.246291,0 0.492583,0 0.738874,0"
         style="fill:#4f585e;fill-opacity:1;fill-rule:evenodd;stroke:none;stroke-width:0.0144877"
         id="path899" />
      <path
         d="m 29.442623,52.929696 c 0.246291,0 0.50707,0 0.767849,0 0,0.101414 0,0.173853 0,0.231804 0,0.44912 -0.130389,0.782337 -0.391168,0.970678 -0.173853,0.13039 -0.405657,0.231804 -0.695411,0.289755 -0.275267,0.05795 -0.651948,0.08693 -1.144531,0.08693 -0.883752,0 -1.492236,-0.173853 -1.796479,-0.507071 -0.18834,-0.231803 -0.31873,-0.550533 -0.376681,-0.985165 -0.02897,-0.31873 -0.05795,-0.680924 -0.05795,-1.057605 0,-0.50707 0.02898,-0.912727 0.07244,-1.216969 0.05795,-0.289754 0.159365,-0.521558 0.289755,-0.709899 0.18834,-0.275267 0.463607,-0.449119 0.840288,-0.521558 0.304242,-0.07244 0.63746,-0.101414 1.028629,-0.101414 0.695411,0 1.187994,0.07244 1.463261,0.217316 0.449119,0.217316 0.695411,0.709899 0.738874,1.521212 0.01449,0.173852 0.01449,0.492582 0.02897,0.941702 -1.216969,0 -2.433938,0 -3.665395,0 0,0.608485 0.04346,1.043117 0.144877,1.303896 0.101414,0.246291 0.31873,0.391168 0.680923,0.449119 0.159365,0.02898 0.362193,0.04346 0.622973,0.04346 0.492582,0 0.840288,-0.02898 1.057604,-0.08693 0.217316,-0.07244 0.347705,-0.231804 0.376681,-0.492583 0,-0.07244 0.01449,-0.18834 0.01449,-0.376681 z m 0,-1.405309 c -0.01449,-0.521559 -0.05795,-0.869264 -0.101415,-1.043117 -0.08693,-0.231804 -0.275266,-0.376681 -0.550533,-0.44912 -0.159365,-0.02898 -0.420144,-0.05795 -0.738874,-0.05795 -0.44912,0 -0.782338,0.04346 -0.970678,0.115902 -0.289755,0.115902 -0.463608,0.405657 -0.507071,0.883752 -0.01449,0.130389 -0.02897,0.31873 -0.01449,0.550534 0.956191,0 1.912381,0 2.883059,0"
         style="fill:#4f585e;fill-opacity:1;fill-rule:evenodd;stroke:none;stroke-width:0.0144877"
         id="path901" />
      <path
         d="m 32.108365,47.453334 c 0,1.361847 0,2.723694 0,4.100028 0.101414,0 0.217316,0 0.333218,0 0.593997,-0.651948 1.187994,-1.318383 1.796478,-1.984819 0.304243,0 0.622973,0 0.941703,0 -0.724387,0.753362 -1.448773,1.506724 -2.17316,2.274574 0.854776,0.883751 1.709552,1.767503 2.564328,2.665742 -0.333217,0 -0.666435,0 -0.999653,0 -0.709899,-0.782337 -1.434285,-1.579163 -2.158672,-2.375988 -0.101414,0 -0.202828,0 -0.304242,0 0,0.782338 0,1.579163 0,2.375988 -0.246291,0 -0.492583,0 -0.738874,0 0,-2.347012 0,-4.694025 0,-7.055525 0.246291,0 0.492583,0 0.738874,0"
         style="fill:#4f585e;fill-opacity:1;fill-rule:evenodd;stroke:none;stroke-width:0.0144877"
         id="path903" />
      <path
         d="m 38.743745,49.481617 c 0,0.202828 0,0.405656 0,0.608484 -0.651948,0 -1.303895,0 -1.970331,0 0,0.999654 0,1.999307 0,3.013448 0,0.231804 0.02897,0.405657 0.08693,0.521558 0.04346,0.115902 0.13039,0.188341 0.26078,0.231804 0.08693,0.01449 0.217315,0.02898 0.391168,0.02898 0.31873,0 0.521558,-0.07244 0.608485,-0.217316 0.07244,-0.144878 0.115902,-0.391169 0.115902,-0.738875 0,-0.07244 0,-0.159365 0,-0.260779 0.231803,0 0.463607,0 0.695411,0 0,0.173853 0,0.304243 0,0.391169 0,0.420144 -0.08693,0.76785 -0.260779,0.999653 -0.217316,0.289755 -0.622973,0.44912 -1.187994,0.44912 -0.478095,0 -0.840289,-0.08693 -1.057605,-0.246291 -0.217315,-0.144878 -0.347705,-0.391169 -0.376681,-0.738875 -0.01449,-0.08693 -0.01449,-0.217316 -0.01449,-0.420144 0,-0.999653 0,-1.999307 0,-3.013448 -0.231804,0 -0.463608,0 -0.709899,0 0,-0.202828 0,-0.405656 0,-0.608484 0.231804,0 0.463607,0 0.709899,0 0,-0.391169 0,-0.782338 0,-1.187994 0.246291,0 0.492583,0 0.738874,0 0,0.391168 0,0.782337 0,1.187994 0.651948,0 1.303896,0 1.970331,0"
         style="fill:#4f585e;fill-opacity:1;fill-rule:evenodd;stroke:none;stroke-width:0.0144877"
         id="path905" />
      <path
         d="m 39.656472,49.568543 c 0.246292,0 0.492583,0 0.738874,0 -0.01449,0.18834 -0.04346,0.376681 -0.07244,0.565021 0,0 0,0 0.01449,0.01449 0.173852,-0.246291 0.347705,-0.434632 0.536046,-0.521558 0.260779,-0.115902 0.565021,-0.173853 0.927214,-0.173853 0.463608,0 0.825801,0.115902 1.043117,0.333218 0.231804,0.217316 0.362193,0.565021 0.362193,1.057604 0,0.08693 0,0.202828 0,0.347706 -0.246291,0 -0.492583,0 -0.753362,0 0.01449,-0.159365 0.01449,-0.289755 0.01449,-0.391169 0,-0.231804 -0.04346,-0.391169 -0.13039,-0.507071 -0.115902,-0.159365 -0.362193,-0.231803 -0.709898,-0.231803 -0.550534,0 -0.927215,0.173853 -1.08658,0.50707 -0.101414,0.202829 -0.144878,0.507071 -0.144878,0.985166 0,0.985166 0,1.970331 0,2.955497 -0.246291,0 -0.492582,0 -0.738874,0 0,-1.637114 0,-3.288715 0,-4.940316"
         style="fill:#4f585e;fill-opacity:1;fill-rule:evenodd;stroke:none;stroke-width:0.0144877"
         id="path907" />
      <path
         d="m 46.060049,49.409178 c 0.434632,0 0.76785,0.02898 1.014141,0.08693 0.260779,0.05795 0.463607,0.13039 0.622972,0.260779 0.26078,0.217316 0.420145,0.521559 0.478095,0.941703 0.05795,0.376681 0.08693,0.796825 0.08693,1.260432 0,0.782338 -0.07244,1.332872 -0.202828,1.666089 -0.08693,0.246292 -0.231804,0.420145 -0.391169,0.550534 -0.173853,0.13039 -0.405656,0.217316 -0.695411,0.289755 -0.217316,0.02898 -0.536046,0.04346 -0.95619,0.04346 -0.463608,0 -0.825801,-0.01449 -1.072092,-0.08693 -0.246292,-0.04346 -0.463608,-0.144878 -0.608485,-0.275267 -0.260779,-0.202829 -0.434632,-0.521559 -0.492583,-0.941703 -0.05795,-0.347705 -0.07244,-0.753362 -0.07244,-1.216969 0,-0.811313 0.05795,-1.376334 0.18834,-1.695065 0.173853,-0.463607 0.536046,-0.738874 1.08658,-0.8258 0.217316,-0.02898 0.550534,-0.05795 1.014141,-0.05795 z m -0.07244,0.608485 c -0.593997,0 -0.95619,0.07244 -1.115555,0.202828 -0.159365,0.130389 -0.260779,0.362193 -0.289755,0.695411 -0.02897,0.304242 -0.04346,0.63746 -0.04346,0.985166 0,0.695411 0.02898,1.159018 0.115902,1.390822 0.05795,0.231803 0.173853,0.391168 0.31873,0.463607 0.173853,0.08693 0.521558,0.13039 1.043117,0.13039 0.593997,0 0.970678,-0.05795 1.130043,-0.202829 0.159365,-0.115902 0.260779,-0.362193 0.289754,-0.680923 0.02898,-0.304242 0.04346,-0.651948 0.04346,-1.057604 0,-0.651948 -0.02898,-1.101068 -0.101414,-1.332871 -0.07244,-0.231804 -0.173852,-0.376681 -0.333217,-0.44912 -0.173853,-0.101414 -0.536046,-0.144877 -1.057605,-0.144877 v 0"
         style="fill:#4f585e;fill-opacity:1;fill-rule:evenodd;stroke:none;stroke-width:0.0144877"
         id="path909" />
      <path
         d="m 49.406715,49.568543 c 0.246291,0 0.492582,0 0.753362,0 0,0.217316 0,0.434632 -0.01449,0.666436 0,0 0,0 0.01449,0.01449 0.08693,-0.173852 0.173852,-0.304242 0.275266,-0.391168 0.289755,-0.246292 0.76785,-0.362194 1.419798,-0.362194 0.840288,0 1.390822,0.202829 1.651601,0.63746 0.115902,0.188341 0.173853,0.565022 0.173853,1.159019 0,1.072092 0,2.144184 0,3.216276 -0.246292,0 -0.492583,0 -0.738874,0 0,-1.043117 0,-2.100721 0,-3.158325 0,-0.420144 -0.04346,-0.695411 -0.115902,-0.854776 -0.13039,-0.260779 -0.478095,-0.391169 -1.072092,-0.391169 -0.420144,0 -0.738874,0.05795 -0.95619,0.173853 -0.333218,0.159365 -0.507071,0.434632 -0.57951,0.811313 -0.01449,0.144877 -0.02898,0.289754 -0.02898,0.449119 0,0.985166 0,1.970332 0,2.969985 -0.260779,0 -0.521558,0 -0.782337,0 0,-1.637114 0,-3.288715 0,-4.940316"
         style="fill:#4f585e;fill-opacity:1;fill-rule:evenodd;stroke:none;stroke-width:0.0144877"
         id="path911" />
      <path
         d="m 55.75234,47.453334 c 0,0.26078 0,0.536046 0,0.811313 -0.246291,0 -0.492583,0 -0.738874,0 0,-0.260779 0,-0.536046 0,-0.811313 0.246291,0 0.492583,0 0.738874,0 z m 0,2.115209 c 0,1.637113 0,3.288715 0,4.940316 -0.246291,0 -0.492583,0 -0.738874,0 0,-1.637114 0,-3.288715 0,-4.940316 0.246291,0 0.492583,0 0.738874,0"
         style="fill:#4f585e;fill-opacity:1;fill-rule:evenodd;stroke:none;stroke-width:0.0144877"
         id="path913" />
      <path
         d="m 57.809598,47.453334 c 0,1.361847 0,2.723694 0,4.100028 0.101414,0 0.217316,0 0.333218,0 0.593997,-0.651948 1.187994,-1.318383 1.796478,-1.984819 0.304243,0 0.622973,0 0.941703,0 -0.724387,0.753362 -1.448773,1.506724 -2.17316,2.274574 0.854776,0.883751 1.709552,1.767503 2.564328,2.665742 -0.333217,0 -0.666435,0 -0.999653,0 -0.709899,-0.782337 -1.434285,-1.579163 -2.158672,-2.375988 -0.101414,0 -0.202828,0 -0.304242,0 0,0.782338 0,1.579163 0,2.375988 -0.246291,0 -0.492583,0 -0.753362,0 0,-2.347012 0,-4.694025 0,-7.055525 0.246291,0 0.492583,0 0.753362,0"
         style="fill:#4f585e;fill-opacity:1;fill-rule:evenodd;stroke:none;stroke-width:0.0144877"
         id="path915" />
      <path
         d="m 73.876491,49.481617 c 0,1.637113 0,3.288714 0,4.940316 -0.246292,0 -0.492583,0 -0.738875,0 0.01449,-0.202829 0.02898,-0.420145 0.05795,-0.637461 0,0 -0.01449,-0.01449 -0.02898,-0.02898 -0.246292,0.507071 -0.811313,0.753362 -1.695065,0.753362 -0.796825,0 -1.318383,-0.246291 -1.564675,-0.753362 C 69.790951,53.523693 69.733,53.204963 69.733,52.770331 c 0,-1.086579 0,-2.187647 0,-3.288714 0.246291,0 0.492583,0 0.738874,0 0,1.086579 0,2.187647 0,3.288714 0,0.362194 0.04346,0.608485 0.13039,0.753362 0.08693,0.159365 0.231803,0.260779 0.434631,0.31873 0.13039,0.02898 0.31873,0.04346 0.565022,0.04346 0.478095,0 0.825801,-0.05795 1.028629,-0.202829 0.260779,-0.159365 0.405656,-0.434632 0.478095,-0.811313 0.01449,-0.144877 0.02897,-0.333217 0.02897,-0.550533 0,-0.941703 0,-1.883405 0,-2.839595 0.246292,0 0.492583,0 0.738875,0"
         style="fill:#4f585e;fill-opacity:1;fill-rule:evenodd;stroke:none;stroke-width:0.0144877"
         id="path917" />
      <path
         d="m 79.164512,50.771025 c -0.246291,0 -0.492583,0 -0.738874,0 -0.01449,-0.26078 -0.05795,-0.44912 -0.13039,-0.550534 -0.07244,-0.13039 -0.231804,-0.188341 -0.478095,-0.217316 -0.130389,-0.01449 -0.362193,-0.02898 -0.695411,-0.02898 -0.362193,0 -0.622972,0.01449 -0.782337,0.04346 -0.159365,0.01449 -0.275267,0.05795 -0.362194,0.130389 -0.115901,0.08693 -0.18834,0.275267 -0.18834,0.579509 0,0.275267 0.04346,0.463608 0.08693,0.57951 0.07244,0.130389 0.231804,0.217316 0.478095,0.231803 0.05795,0.01449 0.333218,0.02898 0.796825,0.05795 0.651948,0.01449 1.043117,0.04346 1.173507,0.07244 0.405656,0.05795 0.666435,0.246291 0.8258,0.550534 0.101414,0.217316 0.159365,0.492582 0.159365,0.8258 0,0.521558 -0.130389,0.883752 -0.405656,1.101068 -0.188341,0.159365 -0.434632,0.260779 -0.753362,0.31873 -0.304242,0.02898 -0.651948,0.04346 -1.028629,0.04346 -0.463607,0 -0.811313,-0.01449 -1.072092,-0.08693 -0.246291,-0.04346 -0.44912,-0.13039 -0.622972,-0.26078 -0.289755,-0.202828 -0.420145,-0.536046 -0.420145,-0.999653 0,-0.08693 0,-0.18834 0,-0.304242 0.246292,0 0.507071,0 0.76785,0 -0.01449,0.115902 -0.01449,0.202828 -0.01449,0.275267 0,0.144877 0.02898,0.275266 0.07244,0.391168 0.05795,0.13039 0.13039,0.217316 0.202828,0.275267 0.159365,0.08693 0.507071,0.13039 1.057605,0.13039 0.63746,0 1.028628,-0.05795 1.231457,-0.202828 0.144877,-0.115902 0.231803,-0.333218 0.231803,-0.680924 0,-0.304242 -0.04346,-0.50707 -0.144877,-0.622972 v 0 C 78.324223,52.306709 78.121398,52.263246 77.817156,52.248758 76.889941,52.234268 76.237994,52.190808 75.8758,52.103881 75.528095,52.031441 75.296291,51.843102 75.180389,51.59681 75.093459,51.40847 75.05,51.162178 75.05,50.799985 c 0,-0.536046 0.115901,-0.898239 0.347705,-1.072092 0.217316,-0.144877 0.478095,-0.231804 0.825801,-0.275267 0.304242,-0.02898 0.608484,-0.04346 0.927214,-0.04346 0.420145,0 0.753362,0.02898 1.014142,0.07244 0.246291,0.04346 0.449119,0.115901 0.608484,0.231803 0.260779,0.159365 0.391169,0.478095 0.391169,0.941703 0,0.02897 0,0.07244 0,0.115902 v 0"
         style="fill:#4f585e;fill-opacity:1;fill-rule:evenodd;stroke:none;stroke-width:0.0144877"
         id="path919" />
      <path
         d="m 83.873024,52.929696 c 0.246292,0 0.507071,0 0.76785,0 0,0.101414 0,0.173853 0,0.231804 0,0.44912 -0.13039,0.782337 -0.391169,0.970678 -0.173853,0.13039 -0.405656,0.231804 -0.680923,0.289755 -0.289755,0.05795 -0.666436,0.08693 -1.144531,0.08693 -0.883751,0 -1.492236,-0.173853 -1.796478,-0.507071 -0.188341,-0.231803 -0.31873,-0.550533 -0.376681,-0.985165 -0.02898,-0.31873 -0.05795,-0.680924 -0.05795,-1.057605 0,-0.50707 0.02898,-0.912727 0.08693,-1.216969 0.04346,-0.289754 0.144877,-0.521558 0.275267,-0.709899 0.188341,-0.275267 0.463607,-0.449119 0.840288,-0.521558 0.304243,-0.07244 0.637461,-0.101414 1.014141,-0.101414 0.695412,0 1.187994,0.07244 1.463261,0.217316 0.44912,0.217316 0.695411,0.709899 0.738874,1.521212 0.01449,0.173852 0.01449,0.492582 0.02898,0.941702 -1.216969,0 -2.433939,0 -3.650908,0 0,0.608485 0.04346,1.043117 0.144877,1.303896 0.101414,0.246291 0.31873,0.391168 0.666436,0.449119 0.159365,0.02898 0.376681,0.04346 0.63746,0.04346 0.492583,0 0.825801,-0.02898 1.043117,-0.08693 0.217315,-0.07244 0.347705,-0.231804 0.391168,-0.492583 0,-0.07244 0,-0.18834 0,-0.376681 z m 0,-1.405309 c 0,-0.521559 -0.04346,-0.869264 -0.101414,-1.043117 -0.08693,-0.231804 -0.275267,-0.376681 -0.536046,-0.44912 -0.173853,-0.02898 -0.420144,-0.05795 -0.753362,-0.05795 -0.434632,0 -0.76785,0.04346 -0.95619,0.115902 -0.289755,0.115902 -0.463607,0.405657 -0.507071,0.883752 -0.01449,0.130389 -0.02898,0.31873 -0.01449,0.550534 0.95619,0 1.91238,0 2.86857,0"
         style="fill:#4f585e;fill-opacity:1;fill-rule:evenodd;stroke:none;stroke-width:0.0144877"
         id="path921" />
      <path
         d="m 89.928895,49.481617 c 0,1.637113 0,3.288714 0,4.940316 -0.246291,0 -0.492582,0 -0.738874,0 0.01449,-0.202829 0.02898,-0.420145 0.05795,-0.637461 0,0 -0.01449,-0.01449 -0.02898,-0.02898 -0.246292,0.507071 -0.811313,0.753362 -1.695065,0.753362 -0.796825,0 -1.318383,-0.246291 -1.579162,-0.753362 -0.101415,-0.231804 -0.159365,-0.550534 -0.159365,-0.985166 0,-1.086579 0,-2.187647 0,-3.288714 0.246291,0 0.492582,0 0.738874,0 0,1.086579 0,2.187647 0,3.288714 0,0.362194 0.04346,0.608485 0.130389,0.753362 0.08693,0.159365 0.231804,0.260779 0.434632,0.31873 0.115902,0.02898 0.31873,0.04346 0.565022,0.04346 0.478095,0 0.8258,-0.05795 1.028629,-0.202829 0.260779,-0.159365 0.405656,-0.434632 0.478095,-0.811313 0.01449,-0.144877 0.02898,-0.333217 0.02898,-0.550533 0,-0.941703 0,-1.883405 0,-2.839595 0.246292,0 0.492583,0 0.738874,0"
         style="fill:#4f585e;fill-opacity:1;fill-rule:evenodd;stroke:none;stroke-width:0.0144877"
         id="path923" />
      <path
         d="m 91.276254,49.568543 c 0.246292,0 0.492583,0 0.738874,0 0,0.246291 0,0.492583 -0.01449,0.738874 0,0 0,0.01449 0.01449,0.02898 0.13039,-0.275267 0.289755,-0.463608 0.478096,-0.565022 0.304242,-0.18834 0.695411,-0.275267 1.187993,-0.275267 0.854776,0 1.376335,0.275267 1.564675,0.840289 0,0 0,0 0.01449,0 0.144877,-0.275267 0.333218,-0.463608 0.550534,-0.593997 0.304242,-0.159365 0.709899,-0.246292 1.187994,-0.246292 0.796825,0 1.303895,0.202829 1.564674,0.608485 0.159365,0.246291 0.231804,0.63746 0.231804,1.173506 0,1.072092 0,2.144184 0,3.230764 -0.246291,0 -0.492583,0 -0.738874,0 0,-1.101068 0,-2.202135 0,-3.303203 0,-0.31873 -0.04346,-0.550533 -0.115902,-0.724386 -0.13039,-0.246291 -0.463607,-0.376681 -0.999653,-0.376681 -0.76785,0 -1.245945,0.18834 -1.40531,0.579509 -0.08693,0.188341 -0.13039,0.507071 -0.13039,0.970678 0,0.941703 0,1.897893 0,2.854083 -0.246291,0 -0.492583,0 -0.738874,0 0,-1.072092 0,-2.144184 0,-3.230764 -0.01449,-0.333218 -0.01449,-0.521558 -0.02898,-0.593997 -0.01449,-0.07244 -0.02898,-0.130389 -0.07244,-0.18834 -0.13039,-0.260779 -0.478095,-0.391169 -1.028629,-0.391169 -0.666435,0 -1.101067,0.18834 -1.318383,0.565021 -0.13039,0.231804 -0.202829,0.57951 -0.202829,1.043117 0,0.927215 0,1.854429 0,2.796132 -0.246291,0 -0.492582,0 -0.738874,0 v 0 c 0,-1.637114 0,-3.288715 0,-4.940316"
         style="fill:#4f585e;fill-opacity:1;fill-rule:evenodd;stroke:none;stroke-width:0.0144877"
         id="path925" />
      <path
         d="m 20.503693,58.362595 c 0,2.100721 0,4.21593 0,6.331138 -0.246291,0 -0.50707,0 -0.767849,0 0,-2.100721 0,-4.215929 0,-6.331138 -0.753362,0 -1.506724,0 -2.274574,0 0,-0.246291 0,-0.492583 0,-0.738874 1.753015,0 3.520518,0 5.288021,0 0,0.246291 0,0.492583 0,0.738874 -0.738874,0 -1.492236,0 -2.245598,0"
         style="fill:#4f585e;fill-opacity:1;fill-rule:evenodd;stroke:none;stroke-width:0.0144877"
         id="path927" />
      <path
         d="m 25.777227,63.201497 c 0.246291,0 0.492583,0 0.753362,0 0,0.08693 0,0.159365 0,0.217316 0,0.44912 -0.13039,0.782337 -0.391169,0.970678 -0.173853,0.144877 -0.391169,0.231803 -0.666435,0.289754 -0.275267,0.05795 -0.651948,0.08693 -1.115556,0.08693 -0.883751,0 -1.46326,-0.173853 -1.767503,-0.507071 -0.18834,-0.231803 -0.31873,-0.550534 -0.362193,-0.985165 -0.04346,-0.304243 -0.05795,-0.666436 -0.05795,-1.057605 0,-0.50707 0.01449,-0.912727 0.07244,-1.216969 0.05795,-0.289755 0.159365,-0.521558 0.275267,-0.709899 0.18834,-0.275267 0.463607,-0.449119 0.8258,-0.521558 0.289755,-0.07244 0.622973,-0.101414 0.999654,-0.101414 0.680923,0 1.159018,0.07244 1.434285,0.217316 0.434632,0.217316 0.666435,0.709899 0.724386,1.521211 0.01449,0.173853 0.01449,0.492583 0.02898,0.941703 -1.187994,0 -2.375988,0 -3.578469,0 0,0.608485 0.04346,1.043116 0.130389,1.303896 0.101414,0.246291 0.31873,0.391168 0.666436,0.449119 0.159365,0.04346 0.362193,0.04346 0.608484,0.04346 0.478095,0 0.825801,-0.02898 1.043117,-0.08693 0.202828,-0.07244 0.333218,-0.231804 0.362193,-0.492583 0,-0.07244 0.01449,-0.18834 0.01449,-0.362193 z m 0,-1.419798 c -0.01449,-0.50707 -0.05795,-0.869263 -0.101414,-1.043116 -0.08693,-0.217316 -0.275267,-0.376681 -0.536046,-0.44912 C 24.980402,60.260488 24.73411,60.246 24.41538,60.246 c -0.434632,0 -0.753362,0.04346 -0.941702,0.115902 -0.275267,0.101414 -0.44912,0.391169 -0.507071,0.869264 -0.01449,0.130389 -0.01449,0.31873 -0.01449,0.550533 0.941702,0 1.883404,0 2.825107,0"
         style="fill:#4f585e;fill-opacity:1;fill-rule:evenodd;stroke:none;stroke-width:0.0144877"
         id="path929" />
      <path
         d="m 30.080083,59.144933 c 0,1.810966 0,3.621932 0,5.447386 -0.63746,0 -1.274921,0 -1.912381,0 0,-1.810966 0,-3.621932 0,-5.447386 -0.593997,0 -1.187993,0 -1.796478,0 0,-0.536046 0,-1.072092 0,-1.608138 1.868917,0 3.737834,0 5.621239,0 0,0.536046 0,1.072092 0,1.608138 -0.63746,0 -1.27492,0 -1.91238,0"
         style="fill:#af1630;fill-opacity:1;fill-rule:evenodd;stroke:none;stroke-width:0.0144877"
         id="path931" />
      <path
         d="m 36.628537,59.246347 c 0,1.810966 0,3.621932 0,5.447386 -0.622973,0 -1.260433,0 -1.897893,0 0,-1.810966 0,-3.621932 0,-5.447386 -0.593997,0 -1.187994,0 -1.796478,0 0,-0.536046 0,-1.072092 0,-1.622626 1.868917,0 3.737834,0 5.621239,0 0,0.536046 0,1.072092 0,1.622626 -0.63746,0 -1.27492,0 -1.926868,0"
         style="fill:#af1630;fill-opacity:1;fill-rule:evenodd;stroke:none;stroke-width:0.0144877"
         id="path933" />
      <path
         d="m 38.627843,59.738929 c 0.246292,0 0.492583,0 0.753362,0 0,0.217316 0,0.434632 -0.01449,0.666436 0,0 0,0.01449 0.01449,0.02898 0.07244,-0.188341 0.173853,-0.318731 0.275267,-0.405657 0.289755,-0.246291 0.76785,-0.362193 1.419798,-0.362193 0.840288,0 1.40531,0.217316 1.666089,0.63746 0.115902,0.18834 0.173853,0.579509 0.173853,1.159018 0,1.072092 0,2.144184 0,3.230764 -0.246292,0 -0.492583,0 -0.753362,0 0,-1.043116 0,-2.100721 0,-3.158325 0,-0.420144 -0.04346,-0.709899 -0.115902,-0.869264 -0.13039,-0.260779 -0.478095,-0.376681 -1.072092,-0.376681 -0.420144,0 -0.738875,0.04346 -0.95619,0.159365 -0.333218,0.159365 -0.521559,0.434632 -0.57951,0.825801 -0.02897,0.130389 -0.02897,0.275267 -0.02897,0.434632 0,0.985165 0,1.984819 0,2.984472 -0.260779,0 -0.521558,0 -0.782338,0 0,-1.651601 0,-3.303202 0,-4.954804"
         style="fill:#4f585e;fill-opacity:1;fill-rule:evenodd;stroke:none;stroke-width:0.0144877"
         id="path935" />
      <path
         d="m 45.016932,61.129752 c -0.246291,0 -0.492582,0 -0.738874,0 0.01449,-0.44912 0.07244,-0.76785 0.202828,-0.956191 0.13039,-0.202828 0.376681,-0.347705 0.724387,-0.420144 0.275267,-0.05795 0.63746,-0.08693 1.101067,-0.08693 0.63746,0 1.101068,0.07244 1.390822,0.18834 0.405657,0.188341 0.637461,0.521559 0.695411,1.028629 0.02898,0.231804 0.04346,0.391169 0.04346,0.536046 0,1.08658 0,2.17316 0,3.274227 -0.246292,0 -0.492583,0 -0.753362,0 0.01449,-0.173853 0.02897,-0.347705 0.05795,-0.536046 0,0 0,0 -0.01449,-0.01449 -0.115902,0.188341 -0.260779,0.31873 -0.405657,0.391169 -0.289754,0.159365 -0.724386,0.231804 -1.332871,0.231804 -0.405656,0 -0.709899,-0.02898 -0.95619,-0.08693 -0.246291,-0.07244 -0.434632,-0.159365 -0.593997,-0.304242 -0.260779,-0.217316 -0.376681,-0.579509 -0.376681,-1.101067 0,-0.304243 0.04346,-0.565022 0.115902,-0.796826 0.08693,-0.231803 0.217316,-0.391168 0.347706,-0.492582 0.289754,-0.202829 0.782337,-0.304243 1.492236,-0.304243 0.550533,0 0.999653,0.05795 1.303895,0.173853 0.13039,0.05795 0.26078,0.173853 0.362194,0.333218 v 0 c 0,-0.202828 0,-0.405657 0,-0.608485 0,-0.420144 -0.04346,-0.753362 -0.13039,-0.95619 -0.08693,-0.173853 -0.231804,-0.275267 -0.478095,-0.333218 -0.18834,-0.04346 -0.420144,-0.05795 -0.709899,-0.05795 -0.579509,0 -0.95619,0.05795 -1.130043,0.188341 -0.130389,0.101414 -0.217316,0.275267 -0.217316,0.536046 v 0 c 0,0.04346 0,0.101414 0,0.173853 z m 1.245945,1.130042 c -0.651948,0 -1.057604,0.07244 -1.245945,0.217316 -0.115901,0.101415 -0.18834,0.333218 -0.18834,0.695411 0,0.405657 0.101414,0.666436 0.260779,0.782338 0.18834,0.130389 0.536046,0.18834 1.043117,0.18834 0.680923,0 1.14453,-0.08693 1.376334,-0.275266 0.130389,-0.115902 0.217316,-0.333218 0.217316,-0.622973 0,-0.362193 -0.08693,-0.608485 -0.246292,-0.738874 -0.202828,-0.173853 -0.608484,-0.246292 -1.216969,-0.246292 v 0"
         style="fill:#4f585e;fill-opacity:1;fill-rule:evenodd;stroke:none;stroke-width:0.0144877"
         id="path937" />
      <path
         d="m 49.797883,59.738929 c 0.246292,0 0.492583,0 0.753362,0 0,0.217316 -0.01449,0.434632 -0.02898,0.666436 0,0 0.01449,0.01449 0.02898,0.02898 0.07244,-0.188341 0.173853,-0.318731 0.275267,-0.405657 0.289755,-0.246291 0.76785,-0.362193 1.419798,-0.362193 0.840288,0 1.390822,0.217316 1.666089,0.63746 0.115901,0.18834 0.173852,0.579509 0.173852,1.159018 0,1.072092 0,2.144184 0,3.230764 -0.246291,0 -0.492582,0 -0.753362,0 0,-1.043116 0,-2.100721 0,-3.158325 0,-0.420144 -0.04346,-0.709899 -0.115901,-0.869264 -0.13039,-0.260779 -0.478096,-0.376681 -1.072092,-0.376681 -0.420145,0 -0.738875,0.04346 -0.956191,0.159365 -0.333217,0.159365 -0.521558,0.434632 -0.579509,0.825801 -0.02897,0.130389 -0.04346,0.275267 -0.04346,0.434632 0,0.985165 0,1.984819 0,2.984472 -0.246291,0 -0.507071,0 -0.76785,0 0,-1.651601 0,-3.303202 0,-4.954804"
         style="fill:#4f585e;fill-opacity:1;fill-rule:evenodd;stroke:none;stroke-width:0.0144877"
         id="path939" />
      <path
         d="m 59.678515,59.738929 c 0,1.753016 0,3.506031 0,5.273534 0,0.565022 -0.07244,0.970678 -0.246291,1.21697 -0.144878,0.231803 -0.391169,0.391168 -0.695411,0.50707 -0.31873,0.115902 -0.738875,0.159365 -1.245945,0.159365 -0.565022,0 -0.985166,-0.04346 -1.27492,-0.159365 -0.405657,-0.159365 -0.651948,-0.463607 -0.709899,-0.912727 -0.02898,-0.115902 -0.04346,-0.304242 -0.04346,-0.536046 0.231803,0 0.478095,0 0.724386,0 0,0.347706 0.05795,0.593997 0.144877,0.724387 0.101415,0.130389 0.289755,0.202828 0.565022,0.246291 0.144877,0.01449 0.362193,0.02898 0.651948,0.02898 0.391169,0 0.680923,-0.04346 0.898239,-0.130389 0.260779,-0.101414 0.405657,-0.333218 0.44912,-0.651948 0.02898,-0.144877 0.04346,-0.304242 0.04346,-0.420144 0,-0.333218 0,-0.666436 0,-1.014141 0,0 0,0 -0.01449,0 -0.07244,0.144877 -0.130389,0.246291 -0.202828,0.31873 -0.07244,0.07244 -0.173853,0.144877 -0.304242,0.18834 -0.289755,0.13039 -0.666436,0.188341 -1.130043,0.188341 -0.666436,0 -1.173506,-0.159365 -1.492237,-0.44912 -0.246291,-0.231804 -0.391168,-0.536046 -0.449119,-0.883751 -0.05795,-0.31873 -0.07244,-0.695411 -0.07244,-1.115556 0,-0.782337 0.05795,-1.318383 0.159365,-1.622625 0.159365,-0.44912 0.463608,-0.738875 0.883752,-0.883752 0.260779,-0.101414 0.608484,-0.144877 1.043116,-0.144877 0.478095,0 0.869264,0.08693 1.144531,0.246291 0.173853,0.101414 0.333218,0.275267 0.44912,0.492583 0,0 0,0 0.01449,0 v 0 c 0,-0.217316 -0.01449,-0.434632 -0.02897,-0.666436 0.246291,0 0.492583,0 0.738874,0 z m -2.23111,0.550534 c -0.550534,0 -0.912727,0.101414 -1.101068,0.304243 -0.144877,0.159365 -0.231803,0.405656 -0.260779,0.738874 -0.02897,0.246291 -0.04346,0.521558 -0.04346,0.811313 0,0.63746 0.04346,1.086579 0.115902,1.332871 0.05795,0.217316 0.159365,0.362193 0.289754,0.449119 0.188341,0.144878 0.536046,0.217316 1.014141,0.217316 0.57951,0 0.956191,-0.115901 1.159019,-0.376681 0.130389,-0.173852 0.217316,-0.405656 0.246291,-0.695411 0.02898,-0.304242 0.04346,-0.622972 0.04346,-0.95619 0,-0.521558 -0.02898,-0.883751 -0.08693,-1.08658 C 58.722321,60.69512 58.53398,60.477804 58.244226,60.37639 58.041398,60.31844 57.780618,60.28946 57.447401,60.28946 v 0"
         style="fill:#4f585e;fill-opacity:1;fill-rule:evenodd;stroke:none;stroke-width:0.0144877"
         id="path941" />
      <path
         d="m 61.590895,63.100083 c 0.246292,0 0.44912,0.08693 0.622973,0.260779 0.18834,0.159365 0.275267,0.362193 0.275267,0.608485 0,0.231803 -0.08693,0.434632 -0.275267,0.608484 -0.173853,0.173853 -0.376681,0.260779 -0.622973,0.260779 -0.246291,0 -0.449119,-0.08693 -0.622972,-0.260779 -0.173853,-0.173852 -0.260779,-0.376681 -0.260779,-0.608484 0,-0.246292 0.08693,-0.44912 0.260779,-0.608485 0.173853,-0.173853 0.376681,-0.260779 0.622972,-0.260779 v 0"
         style="fill:#af1630;fill-opacity:1;fill-rule:evenodd;stroke:none;stroke-width:0.0144877"
         id="path943" />
      <path
         d="M -0.95260741,61.01385 H 19.982135"
         style="fill:none;stroke:#4f585e;stroke-width:0.330171;stroke-linecap:round;stroke-linejoin:round;stroke-miterlimit:10;stroke-dasharray:none;stroke-opacity:1"
         id="path945" />
      <path
         d="m 68.747834,47.453334 c 0,2.347013 0,4.694025 0,7.055525 -0.492583,0 -0.985166,0 -1.492236,0 0,-0.695411 0,-1.40531 0,-2.115209 0,-0.521558 0.01449,-1.347359 0.07244,-2.477401 0,-0.26078 0.01449,-0.536046 0.02898,-0.811313 -0.01449,0 -0.02898,0 -0.04346,0 -0.05795,0.260779 -0.13039,0.521558 -0.202828,0.796825 -0.05795,0.260779 -0.115902,0.536046 -0.188341,0.811313 -0.144877,0.536046 -0.289754,1.072092 -0.434632,1.608138 -0.18834,0.724386 -0.376681,1.448773 -0.579509,2.187647 -0.434632,0 -0.883752,0 -1.332871,0 -0.188341,-0.724387 -0.391169,-1.463261 -0.593997,-2.202135 -0.289755,-1.072092 -0.565022,-2.158672 -0.840288,-3.201788 -0.01449,0 -0.02898,0 -0.05795,0 0.01449,0.260779 0.02898,0.536046 0.04346,0.811313 0.05795,1.187993 0.08693,2.013794 0.08693,2.477401 0,0.695411 0,1.40531 0,2.115209 -0.492583,0 -0.999653,0 -1.506724,0 0,-2.347012 0,-4.694025 0,-7.055525 0.796825,0 1.593651,0 2.390476,0 0.173853,0.666436 0.347705,1.332872 0.521558,2.013795 0.159365,0.593997 0.347706,1.40531 0.579509,2.419451 0.01449,0 0.02898,0 0.05795,0 0.04346,-0.202828 0.08693,-0.405657 0.13039,-0.608485 0.144877,-0.622972 0.275267,-1.216969 0.420144,-1.796478 0.173853,-0.666436 0.347705,-1.347359 0.521558,-2.028283 0.796825,0 1.608138,0 2.419451,0"
         style="fill:#af1630;fill-opacity:1;fill-rule:evenodd;stroke:none;stroke-width:0.0144877"
         id="path947" />
    </g>
  </g>
  <g
     inkscape:label="F.Mask-disabled"
     inkscape:groupmode="layer"
     id="g1746"
     transform="translate(-46.284531,-44.395884)" />
  <g
     inkscape:label="Dwgs.User-disabled"
     inkscape:groupmode="layer"
     id="g1748"
     transform="translate(-46.284531,-44.395884)" />
  <g
     inkscape:label="Cmts.User-disabled"
     inkscape:groupmode="layer"
     id="g1750"
     transform="translate(-46.284531,-44.395884)" />
  <g
     inkscape:label="Eco1.User-disabled"
     inkscape:groupmode="layer"
     id="g1752"
     transform="translate(-46.284531,-44.395884)" />
  <g
     inkscape:label="Eco2.User-disabled"
     inkscape:groupmode="layer"
     id="g1754"
     transform="translate(-46.284531,-44.395884)" />
  <g
     inkscape:label="Edge.Cuts"
     inkscape:groupmode="layer"
     id="g1756"
     transform="translate(-46.2845, -44.3959)" />
  <g
     inkscape:label="Margin-disabled"
     inkscape:groupmode="layer"
     id="g1758"
     transform="translate(-46.284531,-44.395884)" />
  <g
     inkscape:label="B.CrtYd-disabled"
     inkscape:groupmode="layer"
     id="g1760"
     transform="translate(-46.284531,-44.395884)" />
  <g
     inkscape:label="F.CrtYd-disabled"
     inkscape:groupmode="layer"
     id="g1762"
     transform="translate(-46.284531,-44.395884)" />
  <g
     inkscape:label="B.Fab-disabled"
     inkscape:groupmode="layer"
     id="g1764"
     transform="translate(-46.284531,-44.395884)" />
  <g
     inkscape:label="F.Fab-disabled"
     inkscape:groupmode="layer"
     id="g1766"
     transform="translate(-46.284531,-44.395884)" />
  <g
     inkscape:label="Drill"
     inkscape:groupmode="layer"
     id="g1768"
     transform="translate(-46.2845, -44.3959)" />
</svg>
