M48
; DRILL file {KiCad 5.1.7} date Sat Oct 10 21:39:11 2020
; FORMAT={-:-/ absolute / inch / decimal}
; #@! TF.CreationDate,2020-10-10T21:39:11+02:00
; #@! TF.GenerationSoftware,Kicad,Pcbnew,5.1.7
; #@! TF.FileFunction,Plated,1,2,PTH
FMAT,2
INCH
T1C0.0195
T2C0.0295
T3C0.0315
T4C0.0354
T5C0.0394
T6C0.0512
T7C0.0591
T8C0.0967
%
G90
G05
T1
X7.8602Y-4.252
X7.8996Y-4.252
X6.3957Y-4.0886
X7.7795Y-4.252
X7.8189Y-4.252
X6.5591Y-4.25
X6.4764Y-4.0886
X6.5157Y-4.0886
X6.3996Y-4.25
X6.439Y-4.25
X6.5551Y-4.0886
X6.4803Y-4.25
X6.5197Y-4.25
X6.435Y-4.0886
T2
X5.8268Y-4.5276
X5.8768Y-4.4776
X5.9268Y-4.5276
X6.4961Y-4.5276
X6.5461Y-4.4776
X6.5961Y-4.5276
X6.8898Y-4.5276
X6.9398Y-4.4776
X6.9898Y-4.5276
X6.1614Y-4.5276
X6.2114Y-4.4776
X6.2614Y-4.5276
T3
X9.2717Y-4.7575
X9.2717Y-5.1575
X7.6575Y-4.7575
X7.6575Y-5.1575
X7.185Y-4.7575
X7.185Y-5.1575
X6.3976Y-4.7575
X6.3976Y-5.1575
X6.8898Y-4.7575
X6.8898Y-5.1575
X5.9311Y-4.7516
X5.9311Y-5.1516
X6.6142Y-4.7575
X6.6142Y-5.1575
X8.2382Y-4.5079
X8.6382Y-4.5079
X7.3701Y-3.9252
X7.7701Y-3.9252
X7.4606Y-4.7575
X7.4606Y-5.1575
X7.874Y-4.7575
X7.874Y-5.1575
X8.0807Y-4.7575
X8.0807Y-5.1575
X9.2717Y-5.2854
X9.2717Y-5.4823
X7.7264Y-4.5079
X8.1264Y-4.5079
X7.2146Y-4.5079
X7.6146Y-4.5079
X8.2874Y-4.7535
X8.2874Y-5.1535
X6.2008Y-4.7575
X6.2008Y-5.1575
X8.75Y-4.5079
X9.15Y-4.5079
X8.5591Y-4.7535
X8.5591Y-5.1535
T4
X9.2657Y-5.6909
X9.2657Y-5.7909
T5
X5.6398Y-5.9449
X6.313Y-3.9094
X9.0197Y-3.9252
X9.2165Y-5.9665
X9.3165Y-5.9665
T6
X8.7205Y-4.8524
X8.7205Y-5.0492
X9.1142Y-4.9508
T8
X5.5889Y-4.3661
X5.5889Y-6.1217
X9.313Y-4.3661
X9.313Y-6.1217
T7
G00X5.6496Y-5.0394
M15
G01X5.6496Y-4.9606
M16
G05
G00X5.6496Y-5.5512
M15
G01X5.6496Y-5.4724
M16
G05
T0
M30
