%TF.GenerationSoftware,KiCad,Pcbnew,5.1.7*%
%TF.CreationDate,2020-10-10T21:38:53+02:00*%
%TF.ProjectId,SawToothOrganDIP,53617754-6f6f-4746-984f-7267616e4449,rev?*%
%TF.SameCoordinates,Original*%
%TF.FileFunction,Copper,L2,Bot*%
%TF.FilePolarity,Positive*%
%FSLAX46Y46*%
G04 Gerber Fmt 4.6, Leading zero omitted, Abs format (unit mm)*
G04 Created by KiCad (PCBNEW 5.1.7) date 2020-10-10 21:38:53*
%MOMM*%
%LPD*%
G01*
G04 APERTURE LIST*
%TA.AperFunction,ComponentPad*%
%ADD10R,1.700000X1.700000*%
%TD*%
%TA.AperFunction,ComponentPad*%
%ADD11O,1.600000X1.600000*%
%TD*%
%TA.AperFunction,ComponentPad*%
%ADD12C,1.600000*%
%TD*%
%TA.AperFunction,ComponentPad*%
%ADD13C,0.495127*%
%TD*%
%TA.AperFunction,ComponentPad*%
%ADD14C,2.455530*%
%TD*%
%TA.AperFunction,ComponentPad*%
%ADD15C,2.340000*%
%TD*%
%TA.AperFunction,ComponentPad*%
%ADD16R,1.100000X1.800000*%
%TD*%
%TA.AperFunction,ComponentPad*%
%ADD17C,1.800000*%
%TD*%
%TA.AperFunction,ComponentPad*%
%ADD18R,1.800000X1.800000*%
%TD*%
%TA.AperFunction,ComponentPad*%
%ADD19O,1.700000X1.700000*%
%TD*%
%TA.AperFunction,Conductor*%
%ADD20C,0.250000*%
%TD*%
%TA.AperFunction,Conductor*%
%ADD21C,0.254000*%
%TD*%
%TA.AperFunction,Conductor*%
%ADD22C,0.100000*%
%TD*%
G04 APERTURE END LIST*
D10*
%TO.P,J2,1*%
%TO.N,Net-(J2-Pad1)*%
X160350000Y-99300000D03*
%TD*%
D11*
%TO.P,R6,2*%
%TO.N,Net-(LS1-Pad1)*%
X235500000Y-120840000D03*
D12*
%TO.P,R6,1*%
%TO.N,GND*%
X235500000Y-131000000D03*
%TD*%
D13*
%TO.P,Ref\u002A\u002A,2*%
%TO.N,N/C*%
X163549952Y-107950029D03*
%TO.P,Ref\u002A\u002A,1*%
X162549952Y-107950029D03*
%TD*%
%TO.P,Ref\u002A\u002A,2*%
%TO.N,N/C*%
X165599952Y-107950029D03*
%TO.P,Ref\u002A\u002A,1*%
X164599952Y-107950029D03*
%TD*%
%TO.P,SW1,2*%
%TO.N,+9V*%
%TA.AperFunction,SMDPad,CuDef*%
G36*
G01*
X224950000Y-152350000D02*
X224950000Y-150850000D01*
G75*
G02*
X225700000Y-150100000I750000J0D01*
G01*
X230200000Y-150100000D01*
G75*
G02*
X230950000Y-150850000I0J-750000D01*
G01*
X230950000Y-152350000D01*
G75*
G02*
X230200000Y-153100000I-750000J0D01*
G01*
X225700000Y-153100000D01*
G75*
G02*
X224950000Y-152350000I0J750000D01*
G01*
G37*
%TD.AperFunction*%
%TO.P,SW1,1*%
%TO.N,VS*%
%TA.AperFunction,SMDPad,CuDef*%
G36*
G01*
X200950000Y-152350000D02*
X200950000Y-150850000D01*
G75*
G02*
X201700000Y-150100000I750000J0D01*
G01*
X206200000Y-150100000D01*
G75*
G02*
X206950000Y-150850000I0J-750000D01*
G01*
X206950000Y-152350000D01*
G75*
G02*
X206200000Y-153100000I-750000J0D01*
G01*
X201700000Y-153100000D01*
G75*
G02*
X200950000Y-152350000I0J750000D01*
G01*
G37*
%TD.AperFunction*%
%TD*%
%TO.P,Ref\u002A\u002A,1*%
%TO.N,N/C*%
X166599952Y-107950029D03*
%TD*%
%TO.P,Ref\u002A\u002A,1*%
%TO.N,N/C*%
X166499952Y-103850029D03*
%TD*%
%TO.P,Ref\u002A\u002A,1*%
%TO.N,N/C*%
X164499952Y-103850029D03*
%TO.P,Ref\u002A\u002A,2*%
X165499952Y-103850029D03*
%TD*%
%TO.P,Ref\u002A\u002A,1*%
%TO.N,N/C*%
X162449952Y-103850029D03*
%TO.P,Ref\u002A\u002A,2*%
X163449952Y-103850029D03*
%TD*%
%TO.P,Ref\u002A\u002A,2*%
%TO.N,N/C*%
X200649952Y-108000029D03*
%TO.P,Ref\u002A\u002A,1*%
X199649952Y-108000029D03*
%TD*%
%TO.P,Ref\u002A\u002A,2*%
%TO.N,N/C*%
X198599952Y-108000029D03*
%TO.P,Ref\u002A\u002A,1*%
X197599952Y-108000029D03*
%TD*%
%TO.P,LS1,2*%
%TO.N,Net-(LS1-Pad2)*%
%TA.AperFunction,ComponentPad*%
G36*
G01*
X144000000Y-129000000D02*
X143000000Y-129000000D01*
G75*
G02*
X142500000Y-128500000I0J500000D01*
G01*
X142500000Y-125500000D01*
G75*
G02*
X143000000Y-125000000I500000J0D01*
G01*
X144000000Y-125000000D01*
G75*
G02*
X144500000Y-125500000I0J-500000D01*
G01*
X144500000Y-128500000D01*
G75*
G02*
X144000000Y-129000000I-500000J0D01*
G01*
G37*
%TD.AperFunction*%
%TO.P,LS1,1*%
%TO.N,Net-(LS1-Pad1)*%
%TA.AperFunction,ComponentPad*%
G36*
G01*
X144000000Y-142000000D02*
X143000000Y-142000000D01*
G75*
G02*
X142500000Y-141500000I0J500000D01*
G01*
X142500000Y-138500000D01*
G75*
G02*
X143000000Y-138000000I500000J0D01*
G01*
X144000000Y-138000000D01*
G75*
G02*
X144500000Y-138500000I0J-500000D01*
G01*
X144500000Y-141500000D01*
G75*
G02*
X144000000Y-142000000I-500000J0D01*
G01*
G37*
%TD.AperFunction*%
%TD*%
D10*
%TO.P,J3,1*%
%TO.N,Net-(J3-Pad1)*%
X229100000Y-99700000D03*
%TD*%
%TO.P,J1,1*%
%TO.N,VS*%
X143250000Y-151000000D03*
%TD*%
D12*
%TO.P,C1,2*%
%TO.N,GND*%
X235500000Y-139250000D03*
%TO.P,C1,1*%
%TO.N,Net-(C1-Pad1)*%
X235500000Y-134250000D03*
%TD*%
D14*
%TO.P,Ref\u002A\u002A,4*%
%TO.N,N/C*%
X236550000Y-110900000D03*
%TO.P,Ref\u002A\u002A,3*%
X236550000Y-155492001D03*
%TO.P,Ref\u002A\u002A,2*%
X141957999Y-155492001D03*
%TO.P,Ref\u002A\u002A,1*%
X141957999Y-110900000D03*
%TD*%
D15*
%TO.P,RV6,1*%
%TO.N,Net-(C1-Pad1)*%
X221500000Y-128250000D03*
%TO.P,RV6,2*%
%TO.N,Net-(RK12-Pad2)*%
X231500000Y-125750000D03*
%TO.P,RV6,3*%
%TO.N,Net-(RV6-Pad3)*%
X221500000Y-123250000D03*
%TD*%
D11*
%TO.P,RK12,2*%
%TO.N,Net-(RK12-Pad2)*%
X217400000Y-120740000D03*
D12*
%TO.P,RK12,1*%
%TO.N,Net-(RK11-Pad2)*%
X217400000Y-130900000D03*
%TD*%
D11*
%TO.P,RK11,2*%
%TO.N,Net-(RK11-Pad2)*%
X210500000Y-120740000D03*
D12*
%TO.P,RK11,1*%
%TO.N,Net-(RK10-Pad2)*%
X210500000Y-130900000D03*
%TD*%
D11*
%TO.P,RK10,2*%
%TO.N,Net-(RK10-Pad2)*%
X205250000Y-120840000D03*
D12*
%TO.P,RK10,1*%
%TO.N,Net-(RK10-Pad1)*%
X205250000Y-131000000D03*
%TD*%
D11*
%TO.P,RK9,2*%
%TO.N,Net-(RK10-Pad1)*%
X200000000Y-120840000D03*
D12*
%TO.P,RK9,1*%
%TO.N,Net-(RK8-Pad2)*%
X200000000Y-131000000D03*
%TD*%
D11*
%TO.P,RK8,2*%
%TO.N,Net-(RK8-Pad2)*%
X194500000Y-120840000D03*
D12*
%TO.P,RK8,1*%
%TO.N,Net-(RK7-Pad2)*%
X194500000Y-131000000D03*
%TD*%
D11*
%TO.P,RK7,2*%
%TO.N,Net-(RK7-Pad2)*%
X189500000Y-120840000D03*
D12*
%TO.P,RK7,1*%
%TO.N,Net-(RK6-Pad2)*%
X189500000Y-131000000D03*
%TD*%
D11*
%TO.P,RK6,2*%
%TO.N,Net-(RK6-Pad2)*%
X182500000Y-120840000D03*
D12*
%TO.P,RK6,1*%
%TO.N,Net-(RK5-Pad2)*%
X182500000Y-131000000D03*
%TD*%
D11*
%TO.P,RK5,2*%
%TO.N,Net-(RK5-Pad2)*%
X175000000Y-120840000D03*
D12*
%TO.P,RK5,1*%
%TO.N,Net-(RK4-Pad2)*%
X175000000Y-131000000D03*
%TD*%
D11*
%TO.P,RK4,2*%
%TO.N,Net-(RK4-Pad2)*%
X168000000Y-120840000D03*
D12*
%TO.P,RK4,1*%
%TO.N,Net-(RK3-Pad2)*%
X168000000Y-131000000D03*
%TD*%
D11*
%TO.P,RK3,2*%
%TO.N,Net-(RK3-Pad2)*%
X162500000Y-120840000D03*
D12*
%TO.P,RK3,1*%
%TO.N,Net-(RK2-Pad2)*%
X162500000Y-131000000D03*
%TD*%
D11*
%TO.P,RK2,2*%
%TO.N,Net-(RK2-Pad2)*%
X157500000Y-120840000D03*
D12*
%TO.P,RK2,1*%
%TO.N,Net-(RK1-Pad2)*%
X157500000Y-131000000D03*
%TD*%
D11*
%TO.P,RK1,2*%
%TO.N,Net-(RK1-Pad2)*%
X150650000Y-120690000D03*
D12*
%TO.P,RK1,1*%
%TO.N,Net-(RK1-Pad1)*%
X150650000Y-130850000D03*
%TD*%
D11*
%TO.P,R5,2*%
%TO.N,Net-(Q3-Pad2)*%
X193410000Y-114500000D03*
D12*
%TO.P,R5,1*%
%TO.N,Net-(C1-Pad1)*%
X183250000Y-114500000D03*
%TD*%
D11*
%TO.P,R4,2*%
%TO.N,Net-(Q1-Pad2)*%
X206410000Y-114500000D03*
D12*
%TO.P,R4,1*%
%TO.N,GND*%
X196250000Y-114500000D03*
%TD*%
D11*
%TO.P,R3,2*%
%TO.N,Net-(J3-Pad1)*%
X197360000Y-99700000D03*
D12*
%TO.P,R3,1*%
%TO.N,Net-(J2-Pad1)*%
X187200000Y-99700000D03*
%TD*%
D11*
%TO.P,R2,2*%
%TO.N,Net-(D1-Pad1)*%
X232410000Y-114500000D03*
D12*
%TO.P,R2,1*%
%TO.N,Net-(Q1-Pad1)*%
X222250000Y-114500000D03*
%TD*%
D11*
%TO.P,R1,2*%
%TO.N,Net-(Q1-Pad1)*%
X219410000Y-114500000D03*
D12*
%TO.P,R1,1*%
%TO.N,GND*%
X209250000Y-114500000D03*
%TD*%
D16*
%TO.P,Q3,1*%
%TO.N,VS*%
X165000000Y-115400000D03*
%TO.P,Q3,3*%
%TO.N,Net-(Q2-Pad2)*%
%TA.AperFunction,ComponentPad*%
G36*
G01*
X166990000Y-116025000D02*
X166990000Y-114775000D01*
G75*
G02*
X167265000Y-114500000I275000J0D01*
G01*
X167815000Y-114500000D01*
G75*
G02*
X168090000Y-114775000I0J-275000D01*
G01*
X168090000Y-116025000D01*
G75*
G02*
X167815000Y-116300000I-275000J0D01*
G01*
X167265000Y-116300000D01*
G75*
G02*
X166990000Y-116025000I0J275000D01*
G01*
G37*
%TD.AperFunction*%
%TO.P,Q3,2*%
%TO.N,Net-(Q3-Pad2)*%
%TA.AperFunction,ComponentPad*%
G36*
G01*
X165720000Y-113955000D02*
X165720000Y-112705000D01*
G75*
G02*
X165995000Y-112430000I275000J0D01*
G01*
X166545000Y-112430000D01*
G75*
G02*
X166820000Y-112705000I0J-275000D01*
G01*
X166820000Y-113955000D01*
G75*
G02*
X166545000Y-114230000I-275000J0D01*
G01*
X165995000Y-114230000D01*
G75*
G02*
X165720000Y-113955000I0J275000D01*
G01*
G37*
%TD.AperFunction*%
%TD*%
%TO.P,Q2,1*%
%TO.N,VS*%
X156500000Y-115400000D03*
%TO.P,Q2,3*%
%TO.N,Net-(LS1-Pad2)*%
%TA.AperFunction,ComponentPad*%
G36*
G01*
X158490000Y-116025000D02*
X158490000Y-114775000D01*
G75*
G02*
X158765000Y-114500000I275000J0D01*
G01*
X159315000Y-114500000D01*
G75*
G02*
X159590000Y-114775000I0J-275000D01*
G01*
X159590000Y-116025000D01*
G75*
G02*
X159315000Y-116300000I-275000J0D01*
G01*
X158765000Y-116300000D01*
G75*
G02*
X158490000Y-116025000I0J275000D01*
G01*
G37*
%TD.AperFunction*%
%TO.P,Q2,2*%
%TO.N,Net-(Q2-Pad2)*%
%TA.AperFunction,ComponentPad*%
G36*
G01*
X157220000Y-113955000D02*
X157220000Y-112705000D01*
G75*
G02*
X157495000Y-112430000I275000J0D01*
G01*
X158045000Y-112430000D01*
G75*
G02*
X158320000Y-112705000I0J-275000D01*
G01*
X158320000Y-113955000D01*
G75*
G02*
X158045000Y-114230000I-275000J0D01*
G01*
X157495000Y-114230000D01*
G75*
G02*
X157220000Y-113955000I0J275000D01*
G01*
G37*
%TD.AperFunction*%
%TD*%
%TO.P,Q4,1*%
%TO.N,Net-(Q1-Pad2)*%
X175000000Y-115400000D03*
%TO.P,Q4,3*%
%TO.N,Net-(C1-Pad1)*%
%TA.AperFunction,ComponentPad*%
G36*
G01*
X176990000Y-116025000D02*
X176990000Y-114775000D01*
G75*
G02*
X177265000Y-114500000I275000J0D01*
G01*
X177815000Y-114500000D01*
G75*
G02*
X178090000Y-114775000I0J-275000D01*
G01*
X178090000Y-116025000D01*
G75*
G02*
X177815000Y-116300000I-275000J0D01*
G01*
X177265000Y-116300000D01*
G75*
G02*
X176990000Y-116025000I0J275000D01*
G01*
G37*
%TD.AperFunction*%
%TO.P,Q4,2*%
%TO.N,Net-(Q1-Pad1)*%
%TA.AperFunction,ComponentPad*%
G36*
G01*
X175720000Y-113955000D02*
X175720000Y-112705000D01*
G75*
G02*
X175995000Y-112430000I275000J0D01*
G01*
X176545000Y-112430000D01*
G75*
G02*
X176820000Y-112705000I0J-275000D01*
G01*
X176820000Y-113955000D01*
G75*
G02*
X176545000Y-114230000I-275000J0D01*
G01*
X175995000Y-114230000D01*
G75*
G02*
X175720000Y-113955000I0J275000D01*
G01*
G37*
%TD.AperFunction*%
%TD*%
%TO.P,Q1,1*%
%TO.N,Net-(Q1-Pad1)*%
X148000000Y-115400000D03*
%TO.P,Q1,3*%
%TO.N,GND*%
%TA.AperFunction,ComponentPad*%
G36*
G01*
X149990000Y-116025000D02*
X149990000Y-114775000D01*
G75*
G02*
X150265000Y-114500000I275000J0D01*
G01*
X150815000Y-114500000D01*
G75*
G02*
X151090000Y-114775000I0J-275000D01*
G01*
X151090000Y-116025000D01*
G75*
G02*
X150815000Y-116300000I-275000J0D01*
G01*
X150265000Y-116300000D01*
G75*
G02*
X149990000Y-116025000I0J275000D01*
G01*
G37*
%TD.AperFunction*%
%TO.P,Q1,2*%
%TO.N,Net-(Q1-Pad2)*%
%TA.AperFunction,ComponentPad*%
G36*
G01*
X148720000Y-113955000D02*
X148720000Y-112705000D01*
G75*
G02*
X148995000Y-112430000I275000J0D01*
G01*
X149545000Y-112430000D01*
G75*
G02*
X149820000Y-112705000I0J-275000D01*
G01*
X149820000Y-113955000D01*
G75*
G02*
X149545000Y-114230000I-275000J0D01*
G01*
X148995000Y-114230000D01*
G75*
G02*
X148720000Y-113955000I0J275000D01*
G01*
G37*
%TD.AperFunction*%
%TD*%
D17*
%TO.P,D1,2*%
%TO.N,VS*%
X235350000Y-147090000D03*
D18*
%TO.P,D1,1*%
%TO.N,Net-(D1-Pad1)*%
X235350000Y-144550000D03*
%TD*%
D19*
%TO.P,BT1,2*%
%TO.N,GND*%
X236640000Y-151550000D03*
D10*
%TO.P,BT1,1*%
%TO.N,+9V*%
X234100000Y-151550000D03*
%TD*%
D20*
%TO.N,+9V*%
X234050000Y-151600000D02*
X234100000Y-151550000D01*
X227950000Y-151600000D02*
X234050000Y-151600000D01*
%TO.N,Net-(C1-Pad1)*%
X178040000Y-114500000D02*
X177540000Y-115000000D01*
X183250000Y-114500000D02*
X178040000Y-114500000D01*
%TO.N,Net-(D1-Pad1)*%
X234374999Y-116464999D02*
X232410000Y-114500000D01*
X234374999Y-143574999D02*
X234374999Y-116464999D01*
X235350000Y-144550000D02*
X234374999Y-143574999D01*
%TO.N,Net-(Q1-Pad1)*%
X222250000Y-114500000D02*
X219410000Y-114500000D01*
X176625001Y-113374999D02*
X176270000Y-113730000D01*
X218284999Y-113374999D02*
X176625001Y-113374999D01*
X219410000Y-114500000D02*
X218284999Y-113374999D01*
X148000000Y-112851456D02*
X148000000Y-115000000D01*
X174194980Y-111654980D02*
X149196476Y-111654980D01*
X149196476Y-111654980D02*
X148000000Y-112851456D01*
X176270000Y-113730000D02*
X174194980Y-111654980D01*
%TO.N,Net-(Q1-Pad2)*%
X176625010Y-116625010D02*
X175000000Y-115000000D01*
X204284990Y-116625010D02*
X176625010Y-116625010D01*
X206410000Y-114500000D02*
X204284990Y-116625010D01*
X172104990Y-112104990D02*
X175000000Y-115000000D01*
X150895010Y-112104990D02*
X172104990Y-112104990D01*
X149270000Y-113730000D02*
X150895010Y-112104990D01*
%TO.N,Net-(LS1-Pad2)*%
X159040000Y-115000000D02*
X159000000Y-115000000D01*
X159000000Y-115000000D02*
X155500000Y-118500000D01*
X143500000Y-125000000D02*
X143500000Y-127000000D01*
X150000000Y-118500000D02*
X143500000Y-125000000D01*
X155500000Y-118500000D02*
X150000000Y-118500000D01*
%TO.N,Net-(RK1-Pad2)*%
X157500000Y-127540000D02*
X150650000Y-120690000D01*
X157500000Y-131000000D02*
X157500000Y-127540000D01*
%TO.N,Net-(RK2-Pad2)*%
X162500000Y-125840000D02*
X157500000Y-120840000D01*
X162500000Y-131000000D02*
X162500000Y-125840000D01*
%TO.N,Net-(RK3-Pad2)*%
X168000000Y-126340000D02*
X162500000Y-120840000D01*
X168000000Y-131000000D02*
X168000000Y-126340000D01*
%TO.N,Net-(RK4-Pad2)*%
X175000000Y-127840000D02*
X168000000Y-120840000D01*
X175000000Y-131000000D02*
X175000000Y-127840000D01*
%TO.N,Net-(RK5-Pad2)*%
X182500000Y-128340000D02*
X175000000Y-120840000D01*
X182500000Y-131000000D02*
X182500000Y-128340000D01*
%TO.N,Net-(RK6-Pad2)*%
X189500000Y-127840000D02*
X182500000Y-120840000D01*
X189500000Y-131000000D02*
X189500000Y-127840000D01*
%TO.N,Net-(RK7-Pad2)*%
X194500000Y-125840000D02*
X189500000Y-120840000D01*
X194500000Y-131000000D02*
X194500000Y-125840000D01*
%TO.N,Net-(RK8-Pad2)*%
X200000000Y-126340000D02*
X194500000Y-120840000D01*
X200000000Y-131000000D02*
X200000000Y-126340000D01*
%TO.N,Net-(RK10-Pad1)*%
X205250000Y-126090000D02*
X200000000Y-120840000D01*
X205250000Y-131000000D02*
X205250000Y-126090000D01*
%TO.N,Net-(RK10-Pad2)*%
X210500000Y-126090000D02*
X205250000Y-120840000D01*
X210500000Y-130900000D02*
X210500000Y-126090000D01*
%TO.N,Net-(RK11-Pad2)*%
X217400000Y-127640000D02*
X210500000Y-120740000D01*
X217400000Y-130900000D02*
X217400000Y-127640000D01*
%TO.N,Net-(RK12-Pad2)*%
X221278630Y-125750000D02*
X231500000Y-125750000D01*
X217400000Y-121871370D02*
X221278630Y-125750000D01*
X217400000Y-120740000D02*
X217400000Y-121871370D01*
%TO.N,Net-(Q2-Pad2)*%
X159118544Y-113730000D02*
X157770000Y-113730000D01*
X162013545Y-116625001D02*
X159118544Y-113730000D01*
X165914999Y-116625001D02*
X162013545Y-116625001D01*
X167540000Y-115000000D02*
X165914999Y-116625001D01*
%TD*%
D21*
%TO.N,VS*%
X164181902Y-108732146D02*
X164342518Y-108798675D01*
X164513027Y-108832592D01*
X164686877Y-108832592D01*
X164857386Y-108798675D01*
X165018002Y-108732146D01*
X165099952Y-108677389D01*
X165181902Y-108732146D01*
X165342518Y-108798675D01*
X165513027Y-108832592D01*
X165686877Y-108832592D01*
X165857386Y-108798675D01*
X166018002Y-108732146D01*
X166099952Y-108677389D01*
X166181902Y-108732146D01*
X166342518Y-108798675D01*
X166468747Y-108823784D01*
X166553761Y-108927374D01*
X166663062Y-109017075D01*
X166665679Y-109019223D01*
X166793366Y-109087473D01*
X166931914Y-109129501D01*
X167075999Y-109143692D01*
X167112104Y-109140136D01*
X197234954Y-109140136D01*
X197271059Y-109143692D01*
X197307164Y-109140136D01*
X197415144Y-109129501D01*
X197553692Y-109087473D01*
X197681379Y-109019223D01*
X197793297Y-108927374D01*
X197858140Y-108848363D01*
X198018002Y-108782146D01*
X198099952Y-108727389D01*
X198181902Y-108782146D01*
X198342518Y-108848675D01*
X198513027Y-108882592D01*
X198686877Y-108882592D01*
X198857386Y-108848675D01*
X199018002Y-108782146D01*
X199124952Y-108710684D01*
X199231902Y-108782146D01*
X199392518Y-108848675D01*
X199563027Y-108882592D01*
X199736877Y-108882592D01*
X199907386Y-108848675D01*
X200068002Y-108782146D01*
X200149952Y-108727389D01*
X200231902Y-108782146D01*
X200392518Y-108848675D01*
X200563027Y-108882592D01*
X200586768Y-108882592D01*
X200623520Y-108927374D01*
X200732821Y-109017075D01*
X200735438Y-109019223D01*
X200863125Y-109087473D01*
X201001673Y-109129501D01*
X201145758Y-109143692D01*
X201181863Y-109140136D01*
X235931048Y-109140136D01*
X235667650Y-109249239D01*
X235362557Y-109453096D01*
X235103096Y-109712557D01*
X234899239Y-110017650D01*
X234758820Y-110356652D01*
X234687235Y-110716534D01*
X234687235Y-111083466D01*
X234758820Y-111443348D01*
X234899239Y-111782350D01*
X235103096Y-112087443D01*
X235362557Y-112346904D01*
X235667650Y-112550761D01*
X236006652Y-112691180D01*
X236366534Y-112762765D01*
X236733466Y-112762765D01*
X237093348Y-112691180D01*
X237432350Y-112550761D01*
X237737443Y-112346904D01*
X237996904Y-112087443D01*
X238200761Y-111782350D01*
X238341180Y-111443348D01*
X238412765Y-111083466D01*
X238412765Y-110716534D01*
X238341180Y-110356652D01*
X238200761Y-110017650D01*
X237996904Y-109712557D01*
X237737443Y-109453096D01*
X237432350Y-109249239D01*
X237168952Y-109140136D01*
X237288441Y-109140136D01*
X237438180Y-109147647D01*
X237555294Y-109165421D01*
X237743720Y-109218629D01*
X237910851Y-109293906D01*
X238064077Y-109391924D01*
X238201233Y-109510648D01*
X238319950Y-109647796D01*
X238417969Y-109801024D01*
X238493247Y-109968158D01*
X238546455Y-110156581D01*
X238564229Y-110273696D01*
X238571742Y-110423463D01*
X238571741Y-156386884D01*
X238564229Y-156536628D01*
X238546455Y-156653744D01*
X238493247Y-156842167D01*
X238417969Y-157009301D01*
X238319950Y-157162529D01*
X238201233Y-157299677D01*
X238064079Y-157418399D01*
X237910849Y-157516420D01*
X237743720Y-157591696D01*
X237555294Y-157644904D01*
X237438181Y-157662678D01*
X237288435Y-157670190D01*
X141325972Y-157670190D01*
X141176223Y-157662678D01*
X141059065Y-157644899D01*
X140870589Y-157591684D01*
X140703367Y-157516383D01*
X140550058Y-157418339D01*
X140412825Y-157299588D01*
X140294039Y-157162411D01*
X140195976Y-157009181D01*
X140120669Y-156842062D01*
X140067443Y-156653669D01*
X140049664Y-156536587D01*
X140042150Y-156386877D01*
X140042150Y-155308535D01*
X140095234Y-155308535D01*
X140095234Y-155675467D01*
X140166819Y-156035349D01*
X140307238Y-156374351D01*
X140511095Y-156679444D01*
X140770556Y-156938905D01*
X141075649Y-157142762D01*
X141414651Y-157283181D01*
X141774533Y-157354766D01*
X142141465Y-157354766D01*
X142501347Y-157283181D01*
X142840349Y-157142762D01*
X143145442Y-156938905D01*
X143404903Y-156679444D01*
X143608760Y-156374351D01*
X143749179Y-156035349D01*
X143820764Y-155675467D01*
X143820764Y-155308535D01*
X234687235Y-155308535D01*
X234687235Y-155675467D01*
X234758820Y-156035349D01*
X234899239Y-156374351D01*
X235103096Y-156679444D01*
X235362557Y-156938905D01*
X235667650Y-157142762D01*
X236006652Y-157283181D01*
X236366534Y-157354766D01*
X236733466Y-157354766D01*
X237093348Y-157283181D01*
X237432350Y-157142762D01*
X237737443Y-156938905D01*
X237996904Y-156679444D01*
X238200761Y-156374351D01*
X238341180Y-156035349D01*
X238412765Y-155675467D01*
X238412765Y-155308535D01*
X238341180Y-154948653D01*
X238200761Y-154609651D01*
X237996904Y-154304558D01*
X237737443Y-154045097D01*
X237432350Y-153841240D01*
X237093348Y-153700821D01*
X236733466Y-153629236D01*
X236366534Y-153629236D01*
X236006652Y-153700821D01*
X235667650Y-153841240D01*
X235362557Y-154045097D01*
X235103096Y-154304558D01*
X234899239Y-154609651D01*
X234758820Y-154948653D01*
X234687235Y-155308535D01*
X143820764Y-155308535D01*
X143749179Y-154948653D01*
X143608760Y-154609651D01*
X143404903Y-154304558D01*
X143145442Y-154045097D01*
X142840349Y-153841240D01*
X142501347Y-153700821D01*
X142141465Y-153629236D01*
X141774533Y-153629236D01*
X141414651Y-153700821D01*
X141075649Y-153841240D01*
X140770556Y-154045097D01*
X140511095Y-154304558D01*
X140307238Y-154609651D01*
X140166819Y-154948653D01*
X140095234Y-155308535D01*
X140042150Y-155308535D01*
X140042150Y-153100000D01*
X200311928Y-153100000D01*
X200324188Y-153224482D01*
X200360498Y-153344180D01*
X200419463Y-153454494D01*
X200498815Y-153551185D01*
X200595506Y-153630537D01*
X200705820Y-153689502D01*
X200825518Y-153725812D01*
X200950000Y-153738072D01*
X203664250Y-153735000D01*
X203823000Y-153576250D01*
X203823000Y-151727000D01*
X204077000Y-151727000D01*
X204077000Y-153576250D01*
X204235750Y-153735000D01*
X206950000Y-153738072D01*
X207074482Y-153725812D01*
X207194180Y-153689502D01*
X207304494Y-153630537D01*
X207401185Y-153551185D01*
X207480537Y-153454494D01*
X207539502Y-153344180D01*
X207575812Y-153224482D01*
X207588072Y-153100000D01*
X207585000Y-151885750D01*
X207426250Y-151727000D01*
X204077000Y-151727000D01*
X203823000Y-151727000D01*
X200473750Y-151727000D01*
X200315000Y-151885750D01*
X200311928Y-153100000D01*
X140042150Y-153100000D01*
X140042150Y-151850000D01*
X141761928Y-151850000D01*
X141774188Y-151974482D01*
X141810498Y-152094180D01*
X141869463Y-152204494D01*
X141948815Y-152301185D01*
X142045506Y-152380537D01*
X142155820Y-152439502D01*
X142275518Y-152475812D01*
X142400000Y-152488072D01*
X142964250Y-152485000D01*
X143123000Y-152326250D01*
X143123000Y-151127000D01*
X143377000Y-151127000D01*
X143377000Y-152326250D01*
X143535750Y-152485000D01*
X144100000Y-152488072D01*
X144224482Y-152475812D01*
X144344180Y-152439502D01*
X144454494Y-152380537D01*
X144551185Y-152301185D01*
X144630537Y-152204494D01*
X144689502Y-152094180D01*
X144725812Y-151974482D01*
X144738072Y-151850000D01*
X144735000Y-151285750D01*
X144576250Y-151127000D01*
X143377000Y-151127000D01*
X143123000Y-151127000D01*
X141923750Y-151127000D01*
X141765000Y-151285750D01*
X141761928Y-151850000D01*
X140042150Y-151850000D01*
X140042150Y-150150000D01*
X141761928Y-150150000D01*
X141765000Y-150714250D01*
X141923750Y-150873000D01*
X143123000Y-150873000D01*
X143123000Y-149673750D01*
X143377000Y-149673750D01*
X143377000Y-150873000D01*
X144576250Y-150873000D01*
X144735000Y-150714250D01*
X144738072Y-150150000D01*
X144733148Y-150100000D01*
X200311928Y-150100000D01*
X200315000Y-151314250D01*
X200473750Y-151473000D01*
X203823000Y-151473000D01*
X203823000Y-149623750D01*
X204077000Y-149623750D01*
X204077000Y-151473000D01*
X207426250Y-151473000D01*
X207585000Y-151314250D01*
X207586174Y-150850000D01*
X224311928Y-150850000D01*
X224311928Y-152350000D01*
X224338599Y-152620799D01*
X224417589Y-152881192D01*
X224545860Y-153121171D01*
X224718485Y-153331515D01*
X224928829Y-153504140D01*
X225168808Y-153632411D01*
X225429201Y-153711401D01*
X225700000Y-153738072D01*
X230200000Y-153738072D01*
X230470799Y-153711401D01*
X230731192Y-153632411D01*
X230971171Y-153504140D01*
X231181515Y-153331515D01*
X231354140Y-153121171D01*
X231482411Y-152881192D01*
X231561401Y-152620799D01*
X231587087Y-152360000D01*
X232611928Y-152360000D01*
X232611928Y-152400000D01*
X232624188Y-152524482D01*
X232660498Y-152644180D01*
X232719463Y-152754494D01*
X232798815Y-152851185D01*
X232895506Y-152930537D01*
X233005820Y-152989502D01*
X233125518Y-153025812D01*
X233250000Y-153038072D01*
X234950000Y-153038072D01*
X235074482Y-153025812D01*
X235194180Y-152989502D01*
X235304494Y-152930537D01*
X235401185Y-152851185D01*
X235480537Y-152754494D01*
X235539502Y-152644180D01*
X235561513Y-152571620D01*
X235693368Y-152703475D01*
X235936589Y-152865990D01*
X236206842Y-152977932D01*
X236493740Y-153035000D01*
X236786260Y-153035000D01*
X237073158Y-152977932D01*
X237343411Y-152865990D01*
X237586632Y-152703475D01*
X237793475Y-152496632D01*
X237955990Y-152253411D01*
X238067932Y-151983158D01*
X238125000Y-151696260D01*
X238125000Y-151403740D01*
X238067932Y-151116842D01*
X237955990Y-150846589D01*
X237793475Y-150603368D01*
X237586632Y-150396525D01*
X237343411Y-150234010D01*
X237073158Y-150122068D01*
X236786260Y-150065000D01*
X236493740Y-150065000D01*
X236206842Y-150122068D01*
X235936589Y-150234010D01*
X235693368Y-150396525D01*
X235561513Y-150528380D01*
X235539502Y-150455820D01*
X235480537Y-150345506D01*
X235401185Y-150248815D01*
X235304494Y-150169463D01*
X235194180Y-150110498D01*
X235074482Y-150074188D01*
X234950000Y-150061928D01*
X233250000Y-150061928D01*
X233125518Y-150074188D01*
X233005820Y-150110498D01*
X232895506Y-150169463D01*
X232798815Y-150248815D01*
X232719463Y-150345506D01*
X232660498Y-150455820D01*
X232624188Y-150575518D01*
X232611928Y-150700000D01*
X232611928Y-150840000D01*
X231587087Y-150840000D01*
X231561401Y-150579201D01*
X231482411Y-150318808D01*
X231354140Y-150078829D01*
X231181515Y-149868485D01*
X230971171Y-149695860D01*
X230731192Y-149567589D01*
X230470799Y-149488599D01*
X230200000Y-149461928D01*
X225700000Y-149461928D01*
X225429201Y-149488599D01*
X225168808Y-149567589D01*
X224928829Y-149695860D01*
X224718485Y-149868485D01*
X224545860Y-150078829D01*
X224417589Y-150318808D01*
X224338599Y-150579201D01*
X224311928Y-150850000D01*
X207586174Y-150850000D01*
X207588072Y-150100000D01*
X207575812Y-149975518D01*
X207539502Y-149855820D01*
X207480537Y-149745506D01*
X207401185Y-149648815D01*
X207304494Y-149569463D01*
X207194180Y-149510498D01*
X207074482Y-149474188D01*
X206950000Y-149461928D01*
X204235750Y-149465000D01*
X204077000Y-149623750D01*
X203823000Y-149623750D01*
X203664250Y-149465000D01*
X200950000Y-149461928D01*
X200825518Y-149474188D01*
X200705820Y-149510498D01*
X200595506Y-149569463D01*
X200498815Y-149648815D01*
X200419463Y-149745506D01*
X200360498Y-149855820D01*
X200324188Y-149975518D01*
X200311928Y-150100000D01*
X144733148Y-150100000D01*
X144725812Y-150025518D01*
X144689502Y-149905820D01*
X144630537Y-149795506D01*
X144551185Y-149698815D01*
X144454494Y-149619463D01*
X144344180Y-149560498D01*
X144224482Y-149524188D01*
X144100000Y-149511928D01*
X143535750Y-149515000D01*
X143377000Y-149673750D01*
X143123000Y-149673750D01*
X142964250Y-149515000D01*
X142400000Y-149511928D01*
X142275518Y-149524188D01*
X142155820Y-149560498D01*
X142045506Y-149619463D01*
X141948815Y-149698815D01*
X141869463Y-149795506D01*
X141810498Y-149905820D01*
X141774188Y-150025518D01*
X141761928Y-150150000D01*
X140042150Y-150150000D01*
X140042150Y-148154080D01*
X234465525Y-148154080D01*
X234549208Y-148408261D01*
X234821775Y-148539158D01*
X235114642Y-148614365D01*
X235416553Y-148630991D01*
X235715907Y-148588397D01*
X236001199Y-148488222D01*
X236150792Y-148408261D01*
X236234475Y-148154080D01*
X235350000Y-147269605D01*
X234465525Y-148154080D01*
X140042150Y-148154080D01*
X140042150Y-138500000D01*
X141861928Y-138500000D01*
X141861928Y-141500000D01*
X141883796Y-141722027D01*
X141948559Y-141935521D01*
X142053728Y-142132279D01*
X142195262Y-142304738D01*
X142367721Y-142446272D01*
X142564479Y-142551441D01*
X142777973Y-142616204D01*
X143000000Y-142638072D01*
X144000000Y-142638072D01*
X144222027Y-142616204D01*
X144435521Y-142551441D01*
X144632279Y-142446272D01*
X144804738Y-142304738D01*
X144946272Y-142132279D01*
X145051441Y-141935521D01*
X145116204Y-141722027D01*
X145138072Y-141500000D01*
X145138072Y-138500000D01*
X145116204Y-138277973D01*
X145051441Y-138064479D01*
X144946272Y-137867721D01*
X144804738Y-137695262D01*
X144632279Y-137553728D01*
X144435521Y-137448559D01*
X144222027Y-137383796D01*
X144000000Y-137361928D01*
X143000000Y-137361928D01*
X142777973Y-137383796D01*
X142564479Y-137448559D01*
X142367721Y-137553728D01*
X142195262Y-137695262D01*
X142053728Y-137867721D01*
X141948559Y-138064479D01*
X141883796Y-138277973D01*
X141861928Y-138500000D01*
X140042150Y-138500000D01*
X140042150Y-130708665D01*
X149215000Y-130708665D01*
X149215000Y-130991335D01*
X149270147Y-131268574D01*
X149378320Y-131529727D01*
X149535363Y-131764759D01*
X149735241Y-131964637D01*
X149970273Y-132121680D01*
X150231426Y-132229853D01*
X150508665Y-132285000D01*
X150791335Y-132285000D01*
X151068574Y-132229853D01*
X151329727Y-132121680D01*
X151564759Y-131964637D01*
X151764637Y-131764759D01*
X151921680Y-131529727D01*
X152029853Y-131268574D01*
X152085000Y-130991335D01*
X152085000Y-130708665D01*
X152029853Y-130431426D01*
X151921680Y-130170273D01*
X151764637Y-129935241D01*
X151564759Y-129735363D01*
X151329727Y-129578320D01*
X151068574Y-129470147D01*
X150791335Y-129415000D01*
X150508665Y-129415000D01*
X150231426Y-129470147D01*
X149970273Y-129578320D01*
X149735241Y-129735363D01*
X149535363Y-129935241D01*
X149378320Y-130170273D01*
X149270147Y-130431426D01*
X149215000Y-130708665D01*
X140042150Y-130708665D01*
X140042150Y-125500000D01*
X141861928Y-125500000D01*
X141861928Y-128500000D01*
X141883796Y-128722027D01*
X141948559Y-128935521D01*
X142053728Y-129132279D01*
X142195262Y-129304738D01*
X142367721Y-129446272D01*
X142564479Y-129551441D01*
X142777973Y-129616204D01*
X143000000Y-129638072D01*
X144000000Y-129638072D01*
X144222027Y-129616204D01*
X144435521Y-129551441D01*
X144632279Y-129446272D01*
X144804738Y-129304738D01*
X144946272Y-129132279D01*
X145051441Y-128935521D01*
X145116204Y-128722027D01*
X145138072Y-128500000D01*
X145138072Y-125500000D01*
X145116204Y-125277973D01*
X145051441Y-125064479D01*
X144946272Y-124867721D01*
X144838455Y-124736346D01*
X149261896Y-120312906D01*
X149215000Y-120548665D01*
X149215000Y-120831335D01*
X149270147Y-121108574D01*
X149378320Y-121369727D01*
X149535363Y-121604759D01*
X149735241Y-121804637D01*
X149970273Y-121961680D01*
X150231426Y-122069853D01*
X150508665Y-122125000D01*
X150791335Y-122125000D01*
X150973887Y-122088688D01*
X156740001Y-127854803D01*
X156740000Y-129781956D01*
X156585241Y-129885363D01*
X156385363Y-130085241D01*
X156228320Y-130320273D01*
X156120147Y-130581426D01*
X156065000Y-130858665D01*
X156065000Y-131141335D01*
X156120147Y-131418574D01*
X156228320Y-131679727D01*
X156385363Y-131914759D01*
X156585241Y-132114637D01*
X156820273Y-132271680D01*
X157081426Y-132379853D01*
X157358665Y-132435000D01*
X157641335Y-132435000D01*
X157918574Y-132379853D01*
X158179727Y-132271680D01*
X158414759Y-132114637D01*
X158614637Y-131914759D01*
X158771680Y-131679727D01*
X158879853Y-131418574D01*
X158935000Y-131141335D01*
X158935000Y-130858665D01*
X158879853Y-130581426D01*
X158771680Y-130320273D01*
X158614637Y-130085241D01*
X158414759Y-129885363D01*
X158260000Y-129781957D01*
X158260000Y-127577323D01*
X158263676Y-127540000D01*
X158260000Y-127502677D01*
X158260000Y-127502667D01*
X158249003Y-127391014D01*
X158205546Y-127247753D01*
X158154383Y-127152035D01*
X158134974Y-127115723D01*
X158063799Y-127028997D01*
X158040001Y-126999999D01*
X158011003Y-126976201D01*
X152048688Y-121013887D01*
X152085000Y-120831335D01*
X152085000Y-120698665D01*
X156065000Y-120698665D01*
X156065000Y-120981335D01*
X156120147Y-121258574D01*
X156228320Y-121519727D01*
X156385363Y-121754759D01*
X156585241Y-121954637D01*
X156820273Y-122111680D01*
X157081426Y-122219853D01*
X157358665Y-122275000D01*
X157641335Y-122275000D01*
X157823887Y-122238688D01*
X161740001Y-126154803D01*
X161740000Y-129781956D01*
X161585241Y-129885363D01*
X161385363Y-130085241D01*
X161228320Y-130320273D01*
X161120147Y-130581426D01*
X161065000Y-130858665D01*
X161065000Y-131141335D01*
X161120147Y-131418574D01*
X161228320Y-131679727D01*
X161385363Y-131914759D01*
X161585241Y-132114637D01*
X161820273Y-132271680D01*
X162081426Y-132379853D01*
X162358665Y-132435000D01*
X162641335Y-132435000D01*
X162918574Y-132379853D01*
X163179727Y-132271680D01*
X163414759Y-132114637D01*
X163614637Y-131914759D01*
X163771680Y-131679727D01*
X163879853Y-131418574D01*
X163935000Y-131141335D01*
X163935000Y-130858665D01*
X163879853Y-130581426D01*
X163771680Y-130320273D01*
X163614637Y-130085241D01*
X163414759Y-129885363D01*
X163260000Y-129781957D01*
X163260000Y-125877323D01*
X163263676Y-125840000D01*
X163260000Y-125802677D01*
X163260000Y-125802667D01*
X163249003Y-125691014D01*
X163205546Y-125547753D01*
X163134974Y-125415724D01*
X163040001Y-125299999D01*
X163011003Y-125276201D01*
X158898688Y-121163887D01*
X158935000Y-120981335D01*
X158935000Y-120698665D01*
X161065000Y-120698665D01*
X161065000Y-120981335D01*
X161120147Y-121258574D01*
X161228320Y-121519727D01*
X161385363Y-121754759D01*
X161585241Y-121954637D01*
X161820273Y-122111680D01*
X162081426Y-122219853D01*
X162358665Y-122275000D01*
X162641335Y-122275000D01*
X162823887Y-122238688D01*
X167240001Y-126654803D01*
X167240000Y-129781956D01*
X167085241Y-129885363D01*
X166885363Y-130085241D01*
X166728320Y-130320273D01*
X166620147Y-130581426D01*
X166565000Y-130858665D01*
X166565000Y-131141335D01*
X166620147Y-131418574D01*
X166728320Y-131679727D01*
X166885363Y-131914759D01*
X167085241Y-132114637D01*
X167320273Y-132271680D01*
X167581426Y-132379853D01*
X167858665Y-132435000D01*
X168141335Y-132435000D01*
X168418574Y-132379853D01*
X168679727Y-132271680D01*
X168914759Y-132114637D01*
X169114637Y-131914759D01*
X169271680Y-131679727D01*
X169379853Y-131418574D01*
X169435000Y-131141335D01*
X169435000Y-130858665D01*
X169379853Y-130581426D01*
X169271680Y-130320273D01*
X169114637Y-130085241D01*
X168914759Y-129885363D01*
X168760000Y-129781957D01*
X168760000Y-126377333D01*
X168763677Y-126340000D01*
X168749003Y-126191014D01*
X168705546Y-126047753D01*
X168634974Y-125915724D01*
X168563799Y-125828997D01*
X168540001Y-125799999D01*
X168511003Y-125776201D01*
X163898688Y-121163887D01*
X163935000Y-120981335D01*
X163935000Y-120698665D01*
X166565000Y-120698665D01*
X166565000Y-120981335D01*
X166620147Y-121258574D01*
X166728320Y-121519727D01*
X166885363Y-121754759D01*
X167085241Y-121954637D01*
X167320273Y-122111680D01*
X167581426Y-122219853D01*
X167858665Y-122275000D01*
X168141335Y-122275000D01*
X168323887Y-122238688D01*
X174240001Y-128154803D01*
X174240000Y-129781956D01*
X174085241Y-129885363D01*
X173885363Y-130085241D01*
X173728320Y-130320273D01*
X173620147Y-130581426D01*
X173565000Y-130858665D01*
X173565000Y-131141335D01*
X173620147Y-131418574D01*
X173728320Y-131679727D01*
X173885363Y-131914759D01*
X174085241Y-132114637D01*
X174320273Y-132271680D01*
X174581426Y-132379853D01*
X174858665Y-132435000D01*
X175141335Y-132435000D01*
X175418574Y-132379853D01*
X175679727Y-132271680D01*
X175914759Y-132114637D01*
X176114637Y-131914759D01*
X176271680Y-131679727D01*
X176379853Y-131418574D01*
X176435000Y-131141335D01*
X176435000Y-130858665D01*
X176379853Y-130581426D01*
X176271680Y-130320273D01*
X176114637Y-130085241D01*
X175914759Y-129885363D01*
X175760000Y-129781957D01*
X175760000Y-127877323D01*
X175763676Y-127840000D01*
X175760000Y-127802677D01*
X175760000Y-127802667D01*
X175749003Y-127691014D01*
X175705546Y-127547753D01*
X175672343Y-127485635D01*
X175634974Y-127415723D01*
X175563799Y-127328997D01*
X175540001Y-127299999D01*
X175511003Y-127276201D01*
X169398688Y-121163887D01*
X169435000Y-120981335D01*
X169435000Y-120698665D01*
X173565000Y-120698665D01*
X173565000Y-120981335D01*
X173620147Y-121258574D01*
X173728320Y-121519727D01*
X173885363Y-121754759D01*
X174085241Y-121954637D01*
X174320273Y-122111680D01*
X174581426Y-122219853D01*
X174858665Y-122275000D01*
X175141335Y-122275000D01*
X175323887Y-122238688D01*
X181740001Y-128654803D01*
X181740000Y-129781956D01*
X181585241Y-129885363D01*
X181385363Y-130085241D01*
X181228320Y-130320273D01*
X181120147Y-130581426D01*
X181065000Y-130858665D01*
X181065000Y-131141335D01*
X181120147Y-131418574D01*
X181228320Y-131679727D01*
X181385363Y-131914759D01*
X181585241Y-132114637D01*
X181820273Y-132271680D01*
X182081426Y-132379853D01*
X182358665Y-132435000D01*
X182641335Y-132435000D01*
X182918574Y-132379853D01*
X183179727Y-132271680D01*
X183414759Y-132114637D01*
X183614637Y-131914759D01*
X183771680Y-131679727D01*
X183879853Y-131418574D01*
X183935000Y-131141335D01*
X183935000Y-130858665D01*
X183879853Y-130581426D01*
X183771680Y-130320273D01*
X183614637Y-130085241D01*
X183414759Y-129885363D01*
X183260000Y-129781957D01*
X183260000Y-128377325D01*
X183263676Y-128340000D01*
X183260000Y-128302675D01*
X183260000Y-128302667D01*
X183249003Y-128191014D01*
X183205546Y-128047753D01*
X183134974Y-127915724D01*
X183040001Y-127799999D01*
X183011003Y-127776201D01*
X176398688Y-121163887D01*
X176435000Y-120981335D01*
X176435000Y-120698665D01*
X181065000Y-120698665D01*
X181065000Y-120981335D01*
X181120147Y-121258574D01*
X181228320Y-121519727D01*
X181385363Y-121754759D01*
X181585241Y-121954637D01*
X181820273Y-122111680D01*
X182081426Y-122219853D01*
X182358665Y-122275000D01*
X182641335Y-122275000D01*
X182823887Y-122238688D01*
X188740001Y-128154803D01*
X188740000Y-129781956D01*
X188585241Y-129885363D01*
X188385363Y-130085241D01*
X188228320Y-130320273D01*
X188120147Y-130581426D01*
X188065000Y-130858665D01*
X188065000Y-131141335D01*
X188120147Y-131418574D01*
X188228320Y-131679727D01*
X188385363Y-131914759D01*
X188585241Y-132114637D01*
X188820273Y-132271680D01*
X189081426Y-132379853D01*
X189358665Y-132435000D01*
X189641335Y-132435000D01*
X189918574Y-132379853D01*
X190179727Y-132271680D01*
X190414759Y-132114637D01*
X190614637Y-131914759D01*
X190771680Y-131679727D01*
X190879853Y-131418574D01*
X190935000Y-131141335D01*
X190935000Y-130858665D01*
X190879853Y-130581426D01*
X190771680Y-130320273D01*
X190614637Y-130085241D01*
X190414759Y-129885363D01*
X190260000Y-129781957D01*
X190260000Y-127877323D01*
X190263676Y-127840000D01*
X190260000Y-127802677D01*
X190260000Y-127802667D01*
X190249003Y-127691014D01*
X190205546Y-127547753D01*
X190172343Y-127485635D01*
X190134974Y-127415723D01*
X190063799Y-127328997D01*
X190040001Y-127299999D01*
X190011003Y-127276201D01*
X183898688Y-121163887D01*
X183935000Y-120981335D01*
X183935000Y-120698665D01*
X188065000Y-120698665D01*
X188065000Y-120981335D01*
X188120147Y-121258574D01*
X188228320Y-121519727D01*
X188385363Y-121754759D01*
X188585241Y-121954637D01*
X188820273Y-122111680D01*
X189081426Y-122219853D01*
X189358665Y-122275000D01*
X189641335Y-122275000D01*
X189823887Y-122238688D01*
X193740001Y-126154803D01*
X193740000Y-129781956D01*
X193585241Y-129885363D01*
X193385363Y-130085241D01*
X193228320Y-130320273D01*
X193120147Y-130581426D01*
X193065000Y-130858665D01*
X193065000Y-131141335D01*
X193120147Y-131418574D01*
X193228320Y-131679727D01*
X193385363Y-131914759D01*
X193585241Y-132114637D01*
X193820273Y-132271680D01*
X194081426Y-132379853D01*
X194358665Y-132435000D01*
X194641335Y-132435000D01*
X194918574Y-132379853D01*
X195179727Y-132271680D01*
X195414759Y-132114637D01*
X195614637Y-131914759D01*
X195771680Y-131679727D01*
X195879853Y-131418574D01*
X195935000Y-131141335D01*
X195935000Y-130858665D01*
X195879853Y-130581426D01*
X195771680Y-130320273D01*
X195614637Y-130085241D01*
X195414759Y-129885363D01*
X195260000Y-129781957D01*
X195260000Y-125877323D01*
X195263676Y-125840000D01*
X195260000Y-125802677D01*
X195260000Y-125802667D01*
X195249003Y-125691014D01*
X195205546Y-125547753D01*
X195134974Y-125415724D01*
X195040001Y-125299999D01*
X195011003Y-125276201D01*
X190898688Y-121163887D01*
X190935000Y-120981335D01*
X190935000Y-120698665D01*
X193065000Y-120698665D01*
X193065000Y-120981335D01*
X193120147Y-121258574D01*
X193228320Y-121519727D01*
X193385363Y-121754759D01*
X193585241Y-121954637D01*
X193820273Y-122111680D01*
X194081426Y-122219853D01*
X194358665Y-122275000D01*
X194641335Y-122275000D01*
X194823887Y-122238688D01*
X199240001Y-126654803D01*
X199240000Y-129781956D01*
X199085241Y-129885363D01*
X198885363Y-130085241D01*
X198728320Y-130320273D01*
X198620147Y-130581426D01*
X198565000Y-130858665D01*
X198565000Y-131141335D01*
X198620147Y-131418574D01*
X198728320Y-131679727D01*
X198885363Y-131914759D01*
X199085241Y-132114637D01*
X199320273Y-132271680D01*
X199581426Y-132379853D01*
X199858665Y-132435000D01*
X200141335Y-132435000D01*
X200418574Y-132379853D01*
X200679727Y-132271680D01*
X200914759Y-132114637D01*
X201114637Y-131914759D01*
X201271680Y-131679727D01*
X201379853Y-131418574D01*
X201435000Y-131141335D01*
X201435000Y-130858665D01*
X201379853Y-130581426D01*
X201271680Y-130320273D01*
X201114637Y-130085241D01*
X200914759Y-129885363D01*
X200760000Y-129781957D01*
X200760000Y-126377333D01*
X200763677Y-126340000D01*
X200749003Y-126191014D01*
X200705546Y-126047753D01*
X200634974Y-125915724D01*
X200563799Y-125828997D01*
X200540001Y-125799999D01*
X200511003Y-125776201D01*
X195898688Y-121163887D01*
X195935000Y-120981335D01*
X195935000Y-120698665D01*
X198565000Y-120698665D01*
X198565000Y-120981335D01*
X198620147Y-121258574D01*
X198728320Y-121519727D01*
X198885363Y-121754759D01*
X199085241Y-121954637D01*
X199320273Y-122111680D01*
X199581426Y-122219853D01*
X199858665Y-122275000D01*
X200141335Y-122275000D01*
X200323887Y-122238688D01*
X204490001Y-126404803D01*
X204490000Y-129781956D01*
X204335241Y-129885363D01*
X204135363Y-130085241D01*
X203978320Y-130320273D01*
X203870147Y-130581426D01*
X203815000Y-130858665D01*
X203815000Y-131141335D01*
X203870147Y-131418574D01*
X203978320Y-131679727D01*
X204135363Y-131914759D01*
X204335241Y-132114637D01*
X204570273Y-132271680D01*
X204831426Y-132379853D01*
X205108665Y-132435000D01*
X205391335Y-132435000D01*
X205668574Y-132379853D01*
X205929727Y-132271680D01*
X206164759Y-132114637D01*
X206364637Y-131914759D01*
X206521680Y-131679727D01*
X206629853Y-131418574D01*
X206685000Y-131141335D01*
X206685000Y-130858665D01*
X206629853Y-130581426D01*
X206521680Y-130320273D01*
X206364637Y-130085241D01*
X206164759Y-129885363D01*
X206010000Y-129781957D01*
X206010000Y-126127322D01*
X206013676Y-126089999D01*
X206010000Y-126052676D01*
X206010000Y-126052667D01*
X205999003Y-125941014D01*
X205955546Y-125797753D01*
X205884974Y-125665724D01*
X205790001Y-125549999D01*
X205761003Y-125526201D01*
X201398688Y-121163887D01*
X201435000Y-120981335D01*
X201435000Y-120698665D01*
X203815000Y-120698665D01*
X203815000Y-120981335D01*
X203870147Y-121258574D01*
X203978320Y-121519727D01*
X204135363Y-121754759D01*
X204335241Y-121954637D01*
X204570273Y-122111680D01*
X204831426Y-122219853D01*
X205108665Y-122275000D01*
X205391335Y-122275000D01*
X205573887Y-122238688D01*
X209740001Y-126404803D01*
X209740000Y-129681956D01*
X209585241Y-129785363D01*
X209385363Y-129985241D01*
X209228320Y-130220273D01*
X209120147Y-130481426D01*
X209065000Y-130758665D01*
X209065000Y-131041335D01*
X209120147Y-131318574D01*
X209228320Y-131579727D01*
X209385363Y-131814759D01*
X209585241Y-132014637D01*
X209820273Y-132171680D01*
X210081426Y-132279853D01*
X210358665Y-132335000D01*
X210641335Y-132335000D01*
X210918574Y-132279853D01*
X211179727Y-132171680D01*
X211414759Y-132014637D01*
X211614637Y-131814759D01*
X211771680Y-131579727D01*
X211879853Y-131318574D01*
X211935000Y-131041335D01*
X211935000Y-130758665D01*
X211879853Y-130481426D01*
X211771680Y-130220273D01*
X211614637Y-129985241D01*
X211414759Y-129785363D01*
X211260000Y-129681957D01*
X211260000Y-126127322D01*
X211263676Y-126089999D01*
X211260000Y-126052676D01*
X211260000Y-126052667D01*
X211249003Y-125941014D01*
X211205546Y-125797753D01*
X211134974Y-125665724D01*
X211040001Y-125549999D01*
X211011003Y-125526201D01*
X206648688Y-121163887D01*
X206685000Y-120981335D01*
X206685000Y-120698665D01*
X206665109Y-120598665D01*
X209065000Y-120598665D01*
X209065000Y-120881335D01*
X209120147Y-121158574D01*
X209228320Y-121419727D01*
X209385363Y-121654759D01*
X209585241Y-121854637D01*
X209820273Y-122011680D01*
X210081426Y-122119853D01*
X210358665Y-122175000D01*
X210641335Y-122175000D01*
X210823887Y-122138688D01*
X216640001Y-127954803D01*
X216640000Y-129681956D01*
X216485241Y-129785363D01*
X216285363Y-129985241D01*
X216128320Y-130220273D01*
X216020147Y-130481426D01*
X215965000Y-130758665D01*
X215965000Y-131041335D01*
X216020147Y-131318574D01*
X216128320Y-131579727D01*
X216285363Y-131814759D01*
X216485241Y-132014637D01*
X216720273Y-132171680D01*
X216981426Y-132279853D01*
X217258665Y-132335000D01*
X217541335Y-132335000D01*
X217818574Y-132279853D01*
X218079727Y-132171680D01*
X218314759Y-132014637D01*
X218514637Y-131814759D01*
X218671680Y-131579727D01*
X218779853Y-131318574D01*
X218835000Y-131041335D01*
X218835000Y-130758665D01*
X218779853Y-130481426D01*
X218671680Y-130220273D01*
X218514637Y-129985241D01*
X218314759Y-129785363D01*
X218160000Y-129681957D01*
X218160000Y-127677333D01*
X218163677Y-127640000D01*
X218149003Y-127491014D01*
X218105546Y-127347753D01*
X218034974Y-127215724D01*
X217963799Y-127128997D01*
X217940001Y-127099999D01*
X217911003Y-127076201D01*
X211898688Y-121063887D01*
X211935000Y-120881335D01*
X211935000Y-120598665D01*
X215965000Y-120598665D01*
X215965000Y-120881335D01*
X216020147Y-121158574D01*
X216128320Y-121419727D01*
X216285363Y-121654759D01*
X216485241Y-121854637D01*
X216645203Y-121961520D01*
X216650144Y-122011680D01*
X216650998Y-122020355D01*
X216694454Y-122163616D01*
X216765026Y-122295646D01*
X216836201Y-122382372D01*
X216860000Y-122411371D01*
X216888998Y-122435169D01*
X220714831Y-126261003D01*
X220738629Y-126290001D01*
X220767627Y-126313799D01*
X220854353Y-126384974D01*
X220966653Y-126445000D01*
X220986383Y-126455546D01*
X221098391Y-126489523D01*
X220973501Y-126514365D01*
X220645012Y-126650429D01*
X220349379Y-126847965D01*
X220097965Y-127099379D01*
X219900429Y-127395012D01*
X219764365Y-127723501D01*
X219695000Y-128072223D01*
X219695000Y-128427777D01*
X219764365Y-128776499D01*
X219900429Y-129104988D01*
X220097965Y-129400621D01*
X220349379Y-129652035D01*
X220645012Y-129849571D01*
X220973501Y-129985635D01*
X221322223Y-130055000D01*
X221677777Y-130055000D01*
X222026499Y-129985635D01*
X222354988Y-129849571D01*
X222650621Y-129652035D01*
X222902035Y-129400621D01*
X223099571Y-129104988D01*
X223235635Y-128776499D01*
X223305000Y-128427777D01*
X223305000Y-128072223D01*
X223235635Y-127723501D01*
X223099571Y-127395012D01*
X222902035Y-127099379D01*
X222650621Y-126847965D01*
X222354988Y-126650429D01*
X222026499Y-126514365D01*
X222004555Y-126510000D01*
X229861084Y-126510000D01*
X229900429Y-126604988D01*
X230097965Y-126900621D01*
X230349379Y-127152035D01*
X230645012Y-127349571D01*
X230973501Y-127485635D01*
X231322223Y-127555000D01*
X231677777Y-127555000D01*
X232026499Y-127485635D01*
X232354988Y-127349571D01*
X232650621Y-127152035D01*
X232902035Y-126900621D01*
X233099571Y-126604988D01*
X233235635Y-126276499D01*
X233305000Y-125927777D01*
X233305000Y-125572223D01*
X233235635Y-125223501D01*
X233099571Y-124895012D01*
X232902035Y-124599379D01*
X232650621Y-124347965D01*
X232354988Y-124150429D01*
X232026499Y-124014365D01*
X231677777Y-123945000D01*
X231322223Y-123945000D01*
X230973501Y-124014365D01*
X230645012Y-124150429D01*
X230349379Y-124347965D01*
X230097965Y-124599379D01*
X229900429Y-124895012D01*
X229861084Y-124990000D01*
X222004555Y-124990000D01*
X222026499Y-124985635D01*
X222354988Y-124849571D01*
X222650621Y-124652035D01*
X222902035Y-124400621D01*
X223099571Y-124104988D01*
X223235635Y-123776499D01*
X223305000Y-123427777D01*
X223305000Y-123072223D01*
X223235635Y-122723501D01*
X223099571Y-122395012D01*
X222902035Y-122099379D01*
X222650621Y-121847965D01*
X222354988Y-121650429D01*
X222026499Y-121514365D01*
X221677777Y-121445000D01*
X221322223Y-121445000D01*
X220973501Y-121514365D01*
X220645012Y-121650429D01*
X220349379Y-121847965D01*
X220097965Y-122099379D01*
X219900429Y-122395012D01*
X219764365Y-122723501D01*
X219695000Y-123072223D01*
X219695000Y-123091569D01*
X218386414Y-121782982D01*
X218514637Y-121654759D01*
X218671680Y-121419727D01*
X218779853Y-121158574D01*
X218835000Y-120881335D01*
X218835000Y-120598665D01*
X218779853Y-120321426D01*
X218671680Y-120060273D01*
X218514637Y-119825241D01*
X218314759Y-119625363D01*
X218079727Y-119468320D01*
X217818574Y-119360147D01*
X217541335Y-119305000D01*
X217258665Y-119305000D01*
X216981426Y-119360147D01*
X216720273Y-119468320D01*
X216485241Y-119625363D01*
X216285363Y-119825241D01*
X216128320Y-120060273D01*
X216020147Y-120321426D01*
X215965000Y-120598665D01*
X211935000Y-120598665D01*
X211879853Y-120321426D01*
X211771680Y-120060273D01*
X211614637Y-119825241D01*
X211414759Y-119625363D01*
X211179727Y-119468320D01*
X210918574Y-119360147D01*
X210641335Y-119305000D01*
X210358665Y-119305000D01*
X210081426Y-119360147D01*
X209820273Y-119468320D01*
X209585241Y-119625363D01*
X209385363Y-119825241D01*
X209228320Y-120060273D01*
X209120147Y-120321426D01*
X209065000Y-120598665D01*
X206665109Y-120598665D01*
X206629853Y-120421426D01*
X206521680Y-120160273D01*
X206364637Y-119925241D01*
X206164759Y-119725363D01*
X205929727Y-119568320D01*
X205668574Y-119460147D01*
X205391335Y-119405000D01*
X205108665Y-119405000D01*
X204831426Y-119460147D01*
X204570273Y-119568320D01*
X204335241Y-119725363D01*
X204135363Y-119925241D01*
X203978320Y-120160273D01*
X203870147Y-120421426D01*
X203815000Y-120698665D01*
X201435000Y-120698665D01*
X201379853Y-120421426D01*
X201271680Y-120160273D01*
X201114637Y-119925241D01*
X200914759Y-119725363D01*
X200679727Y-119568320D01*
X200418574Y-119460147D01*
X200141335Y-119405000D01*
X199858665Y-119405000D01*
X199581426Y-119460147D01*
X199320273Y-119568320D01*
X199085241Y-119725363D01*
X198885363Y-119925241D01*
X198728320Y-120160273D01*
X198620147Y-120421426D01*
X198565000Y-120698665D01*
X195935000Y-120698665D01*
X195879853Y-120421426D01*
X195771680Y-120160273D01*
X195614637Y-119925241D01*
X195414759Y-119725363D01*
X195179727Y-119568320D01*
X194918574Y-119460147D01*
X194641335Y-119405000D01*
X194358665Y-119405000D01*
X194081426Y-119460147D01*
X193820273Y-119568320D01*
X193585241Y-119725363D01*
X193385363Y-119925241D01*
X193228320Y-120160273D01*
X193120147Y-120421426D01*
X193065000Y-120698665D01*
X190935000Y-120698665D01*
X190879853Y-120421426D01*
X190771680Y-120160273D01*
X190614637Y-119925241D01*
X190414759Y-119725363D01*
X190179727Y-119568320D01*
X189918574Y-119460147D01*
X189641335Y-119405000D01*
X189358665Y-119405000D01*
X189081426Y-119460147D01*
X188820273Y-119568320D01*
X188585241Y-119725363D01*
X188385363Y-119925241D01*
X188228320Y-120160273D01*
X188120147Y-120421426D01*
X188065000Y-120698665D01*
X183935000Y-120698665D01*
X183879853Y-120421426D01*
X183771680Y-120160273D01*
X183614637Y-119925241D01*
X183414759Y-119725363D01*
X183179727Y-119568320D01*
X182918574Y-119460147D01*
X182641335Y-119405000D01*
X182358665Y-119405000D01*
X182081426Y-119460147D01*
X181820273Y-119568320D01*
X181585241Y-119725363D01*
X181385363Y-119925241D01*
X181228320Y-120160273D01*
X181120147Y-120421426D01*
X181065000Y-120698665D01*
X176435000Y-120698665D01*
X176379853Y-120421426D01*
X176271680Y-120160273D01*
X176114637Y-119925241D01*
X175914759Y-119725363D01*
X175679727Y-119568320D01*
X175418574Y-119460147D01*
X175141335Y-119405000D01*
X174858665Y-119405000D01*
X174581426Y-119460147D01*
X174320273Y-119568320D01*
X174085241Y-119725363D01*
X173885363Y-119925241D01*
X173728320Y-120160273D01*
X173620147Y-120421426D01*
X173565000Y-120698665D01*
X169435000Y-120698665D01*
X169379853Y-120421426D01*
X169271680Y-120160273D01*
X169114637Y-119925241D01*
X168914759Y-119725363D01*
X168679727Y-119568320D01*
X168418574Y-119460147D01*
X168141335Y-119405000D01*
X167858665Y-119405000D01*
X167581426Y-119460147D01*
X167320273Y-119568320D01*
X167085241Y-119725363D01*
X166885363Y-119925241D01*
X166728320Y-120160273D01*
X166620147Y-120421426D01*
X166565000Y-120698665D01*
X163935000Y-120698665D01*
X163879853Y-120421426D01*
X163771680Y-120160273D01*
X163614637Y-119925241D01*
X163414759Y-119725363D01*
X163179727Y-119568320D01*
X162918574Y-119460147D01*
X162641335Y-119405000D01*
X162358665Y-119405000D01*
X162081426Y-119460147D01*
X161820273Y-119568320D01*
X161585241Y-119725363D01*
X161385363Y-119925241D01*
X161228320Y-120160273D01*
X161120147Y-120421426D01*
X161065000Y-120698665D01*
X158935000Y-120698665D01*
X158879853Y-120421426D01*
X158771680Y-120160273D01*
X158614637Y-119925241D01*
X158414759Y-119725363D01*
X158179727Y-119568320D01*
X157918574Y-119460147D01*
X157641335Y-119405000D01*
X157358665Y-119405000D01*
X157081426Y-119460147D01*
X156820273Y-119568320D01*
X156585241Y-119725363D01*
X156385363Y-119925241D01*
X156228320Y-120160273D01*
X156120147Y-120421426D01*
X156065000Y-120698665D01*
X152085000Y-120698665D01*
X152085000Y-120548665D01*
X152029853Y-120271426D01*
X151921680Y-120010273D01*
X151764637Y-119775241D01*
X151564759Y-119575363D01*
X151329727Y-119418320D01*
X151068574Y-119310147D01*
X150816471Y-119260000D01*
X155462678Y-119260000D01*
X155500000Y-119263676D01*
X155537322Y-119260000D01*
X155537333Y-119260000D01*
X155648986Y-119249003D01*
X155792247Y-119205546D01*
X155924276Y-119134974D01*
X156040001Y-119040001D01*
X156063804Y-119010997D01*
X158279155Y-116795647D01*
X158415582Y-116868569D01*
X158586868Y-116920528D01*
X158765000Y-116938072D01*
X159315000Y-116938072D01*
X159493132Y-116920528D01*
X159664418Y-116868569D01*
X159822276Y-116784192D01*
X159960639Y-116670639D01*
X160074192Y-116532276D01*
X160158569Y-116374418D01*
X160210528Y-116203132D01*
X160228072Y-116025000D01*
X160228072Y-115914330D01*
X161449746Y-117136004D01*
X161473544Y-117165002D01*
X161589269Y-117259975D01*
X161721298Y-117330547D01*
X161864559Y-117374004D01*
X161976212Y-117385001D01*
X161976220Y-117385001D01*
X162013545Y-117388677D01*
X162050870Y-117385001D01*
X165877677Y-117385001D01*
X165914999Y-117388677D01*
X165952321Y-117385001D01*
X165952332Y-117385001D01*
X166063985Y-117374004D01*
X166207246Y-117330547D01*
X166339275Y-117259975D01*
X166455000Y-117165002D01*
X166478802Y-117135999D01*
X166805221Y-116809580D01*
X166915582Y-116868569D01*
X167086868Y-116920528D01*
X167265000Y-116938072D01*
X167815000Y-116938072D01*
X167993132Y-116920528D01*
X168164418Y-116868569D01*
X168322276Y-116784192D01*
X168460639Y-116670639D01*
X168574192Y-116532276D01*
X168658569Y-116374418D01*
X168710528Y-116203132D01*
X168728072Y-116025000D01*
X168728072Y-114775000D01*
X168710528Y-114596868D01*
X168658569Y-114425582D01*
X168574192Y-114267724D01*
X168460639Y-114129361D01*
X168322276Y-114015808D01*
X168164418Y-113931431D01*
X167993132Y-113879472D01*
X167815000Y-113861928D01*
X167458072Y-113861928D01*
X167458072Y-112864990D01*
X171790189Y-112864990D01*
X173811928Y-114886731D01*
X173811928Y-116300000D01*
X173824188Y-116424482D01*
X173860498Y-116544180D01*
X173919463Y-116654494D01*
X173998815Y-116751185D01*
X174095506Y-116830537D01*
X174205820Y-116889502D01*
X174325518Y-116925812D01*
X174450000Y-116938072D01*
X175550000Y-116938072D01*
X175674482Y-116925812D01*
X175794180Y-116889502D01*
X175807552Y-116882354D01*
X176061211Y-117136013D01*
X176085009Y-117165011D01*
X176200734Y-117259984D01*
X176332763Y-117330556D01*
X176476024Y-117374013D01*
X176587677Y-117385010D01*
X176587686Y-117385010D01*
X176625009Y-117388686D01*
X176662332Y-117385010D01*
X204247668Y-117385010D01*
X204284990Y-117388686D01*
X204322312Y-117385010D01*
X204322323Y-117385010D01*
X204433976Y-117374013D01*
X204577237Y-117330556D01*
X204709266Y-117259984D01*
X204824991Y-117165011D01*
X204848794Y-117136007D01*
X206086114Y-115898688D01*
X206268665Y-115935000D01*
X206551335Y-115935000D01*
X206828574Y-115879853D01*
X207089727Y-115771680D01*
X207324759Y-115614637D01*
X207524637Y-115414759D01*
X207681680Y-115179727D01*
X207789853Y-114918574D01*
X207830000Y-114716744D01*
X207870147Y-114918574D01*
X207978320Y-115179727D01*
X208135363Y-115414759D01*
X208335241Y-115614637D01*
X208570273Y-115771680D01*
X208831426Y-115879853D01*
X209108665Y-115935000D01*
X209391335Y-115935000D01*
X209668574Y-115879853D01*
X209929727Y-115771680D01*
X210164759Y-115614637D01*
X210364637Y-115414759D01*
X210521680Y-115179727D01*
X210629853Y-114918574D01*
X210685000Y-114641335D01*
X210685000Y-114358665D01*
X210640509Y-114134999D01*
X217970198Y-114134999D01*
X218011312Y-114176113D01*
X217975000Y-114358665D01*
X217975000Y-114641335D01*
X218030147Y-114918574D01*
X218138320Y-115179727D01*
X218295363Y-115414759D01*
X218495241Y-115614637D01*
X218730273Y-115771680D01*
X218991426Y-115879853D01*
X219268665Y-115935000D01*
X219551335Y-115935000D01*
X219828574Y-115879853D01*
X220089727Y-115771680D01*
X220324759Y-115614637D01*
X220524637Y-115414759D01*
X220628043Y-115260000D01*
X221031957Y-115260000D01*
X221135363Y-115414759D01*
X221335241Y-115614637D01*
X221570273Y-115771680D01*
X221831426Y-115879853D01*
X222108665Y-115935000D01*
X222391335Y-115935000D01*
X222668574Y-115879853D01*
X222929727Y-115771680D01*
X223164759Y-115614637D01*
X223364637Y-115414759D01*
X223521680Y-115179727D01*
X223629853Y-114918574D01*
X223685000Y-114641335D01*
X223685000Y-114358665D01*
X230975000Y-114358665D01*
X230975000Y-114641335D01*
X231030147Y-114918574D01*
X231138320Y-115179727D01*
X231295363Y-115414759D01*
X231495241Y-115614637D01*
X231730273Y-115771680D01*
X231991426Y-115879853D01*
X232268665Y-115935000D01*
X232551335Y-115935000D01*
X232733886Y-115898688D01*
X233615000Y-116779802D01*
X233614999Y-143537677D01*
X233611323Y-143574999D01*
X233614999Y-143612321D01*
X233614999Y-143612331D01*
X233625996Y-143723984D01*
X233669453Y-143867245D01*
X233740025Y-143999275D01*
X233779870Y-144047825D01*
X233811928Y-144086889D01*
X233811928Y-145450000D01*
X233824188Y-145574482D01*
X233860498Y-145694180D01*
X233919463Y-145804494D01*
X233998815Y-145901185D01*
X234095506Y-145980537D01*
X234205820Y-146039502D01*
X234216735Y-146042813D01*
X234169970Y-146089578D01*
X234285918Y-146205526D01*
X234031739Y-146289208D01*
X233900842Y-146561775D01*
X233825635Y-146854642D01*
X233809009Y-147156553D01*
X233851603Y-147455907D01*
X233951778Y-147741199D01*
X234031739Y-147890792D01*
X234285920Y-147974475D01*
X235170395Y-147090000D01*
X235156253Y-147075858D01*
X235335858Y-146896253D01*
X235350000Y-146910395D01*
X235364143Y-146896253D01*
X235543748Y-147075858D01*
X235529605Y-147090000D01*
X236414080Y-147974475D01*
X236668261Y-147890792D01*
X236799158Y-147618225D01*
X236874365Y-147325358D01*
X236890991Y-147023447D01*
X236848397Y-146724093D01*
X236748222Y-146438801D01*
X236668261Y-146289208D01*
X236414082Y-146205526D01*
X236530030Y-146089578D01*
X236483265Y-146042813D01*
X236494180Y-146039502D01*
X236604494Y-145980537D01*
X236701185Y-145901185D01*
X236780537Y-145804494D01*
X236839502Y-145694180D01*
X236875812Y-145574482D01*
X236888072Y-145450000D01*
X236888072Y-143650000D01*
X236875812Y-143525518D01*
X236839502Y-143405820D01*
X236780537Y-143295506D01*
X236701185Y-143198815D01*
X236604494Y-143119463D01*
X236494180Y-143060498D01*
X236374482Y-143024188D01*
X236250000Y-143011928D01*
X235134999Y-143011928D01*
X235134999Y-140640509D01*
X235358665Y-140685000D01*
X235641335Y-140685000D01*
X235918574Y-140629853D01*
X236179727Y-140521680D01*
X236414759Y-140364637D01*
X236614637Y-140164759D01*
X236771680Y-139929727D01*
X236879853Y-139668574D01*
X236935000Y-139391335D01*
X236935000Y-139108665D01*
X236879853Y-138831426D01*
X236771680Y-138570273D01*
X236614637Y-138335241D01*
X236414759Y-138135363D01*
X236179727Y-137978320D01*
X235918574Y-137870147D01*
X235641335Y-137815000D01*
X235358665Y-137815000D01*
X235134999Y-137859491D01*
X235134999Y-135640509D01*
X235358665Y-135685000D01*
X235641335Y-135685000D01*
X235918574Y-135629853D01*
X236179727Y-135521680D01*
X236414759Y-135364637D01*
X236614637Y-135164759D01*
X236771680Y-134929727D01*
X236879853Y-134668574D01*
X236935000Y-134391335D01*
X236935000Y-134108665D01*
X236879853Y-133831426D01*
X236771680Y-133570273D01*
X236614637Y-133335241D01*
X236414759Y-133135363D01*
X236179727Y-132978320D01*
X235918574Y-132870147D01*
X235641335Y-132815000D01*
X235358665Y-132815000D01*
X235134999Y-132859491D01*
X235134999Y-132390509D01*
X235358665Y-132435000D01*
X235641335Y-132435000D01*
X235918574Y-132379853D01*
X236179727Y-132271680D01*
X236414759Y-132114637D01*
X236614637Y-131914759D01*
X236771680Y-131679727D01*
X236879853Y-131418574D01*
X236935000Y-131141335D01*
X236935000Y-130858665D01*
X236879853Y-130581426D01*
X236771680Y-130320273D01*
X236614637Y-130085241D01*
X236414759Y-129885363D01*
X236179727Y-129728320D01*
X235918574Y-129620147D01*
X235641335Y-129565000D01*
X235358665Y-129565000D01*
X235134999Y-129609491D01*
X235134999Y-122230509D01*
X235358665Y-122275000D01*
X235641335Y-122275000D01*
X235918574Y-122219853D01*
X236179727Y-122111680D01*
X236414759Y-121954637D01*
X236614637Y-121754759D01*
X236771680Y-121519727D01*
X236879853Y-121258574D01*
X236935000Y-120981335D01*
X236935000Y-120698665D01*
X236879853Y-120421426D01*
X236771680Y-120160273D01*
X236614637Y-119925241D01*
X236414759Y-119725363D01*
X236179727Y-119568320D01*
X235918574Y-119460147D01*
X235641335Y-119405000D01*
X235358665Y-119405000D01*
X235134999Y-119449491D01*
X235134999Y-116502321D01*
X235138675Y-116464998D01*
X235134999Y-116427675D01*
X235134999Y-116427666D01*
X235124002Y-116316013D01*
X235080545Y-116172752D01*
X235009973Y-116040723D01*
X234915000Y-115924998D01*
X234886002Y-115901200D01*
X233808688Y-114823886D01*
X233845000Y-114641335D01*
X233845000Y-114358665D01*
X233789853Y-114081426D01*
X233681680Y-113820273D01*
X233524637Y-113585241D01*
X233324759Y-113385363D01*
X233089727Y-113228320D01*
X232828574Y-113120147D01*
X232551335Y-113065000D01*
X232268665Y-113065000D01*
X231991426Y-113120147D01*
X231730273Y-113228320D01*
X231495241Y-113385363D01*
X231295363Y-113585241D01*
X231138320Y-113820273D01*
X231030147Y-114081426D01*
X230975000Y-114358665D01*
X223685000Y-114358665D01*
X223629853Y-114081426D01*
X223521680Y-113820273D01*
X223364637Y-113585241D01*
X223164759Y-113385363D01*
X222929727Y-113228320D01*
X222668574Y-113120147D01*
X222391335Y-113065000D01*
X222108665Y-113065000D01*
X221831426Y-113120147D01*
X221570273Y-113228320D01*
X221335241Y-113385363D01*
X221135363Y-113585241D01*
X221031957Y-113740000D01*
X220628043Y-113740000D01*
X220524637Y-113585241D01*
X220324759Y-113385363D01*
X220089727Y-113228320D01*
X219828574Y-113120147D01*
X219551335Y-113065000D01*
X219268665Y-113065000D01*
X219086113Y-113101312D01*
X218848803Y-112864001D01*
X218825000Y-112834998D01*
X218709275Y-112740025D01*
X218577246Y-112669453D01*
X218433985Y-112625996D01*
X218322332Y-112614999D01*
X218322321Y-112614999D01*
X218284999Y-112611323D01*
X218247677Y-112614999D01*
X177449208Y-112614999D01*
X177440528Y-112526868D01*
X177388569Y-112355582D01*
X177304192Y-112197724D01*
X177190639Y-112059361D01*
X177052276Y-111945808D01*
X176894418Y-111861431D01*
X176723132Y-111809472D01*
X176545000Y-111791928D01*
X175995000Y-111791928D01*
X175816868Y-111809472D01*
X175645582Y-111861431D01*
X175535222Y-111920420D01*
X174758784Y-111143982D01*
X174734981Y-111114979D01*
X174619256Y-111020006D01*
X174487227Y-110949434D01*
X174343966Y-110905977D01*
X174232313Y-110894980D01*
X174232302Y-110894980D01*
X174194980Y-110891304D01*
X174157658Y-110894980D01*
X149233809Y-110894980D01*
X149196476Y-110891303D01*
X149159143Y-110894980D01*
X149047490Y-110905977D01*
X148904229Y-110949434D01*
X148772200Y-111020006D01*
X148656475Y-111114979D01*
X148632677Y-111143977D01*
X147489003Y-112287652D01*
X147459999Y-112311455D01*
X147419728Y-112360526D01*
X147365026Y-112427180D01*
X147311741Y-112526868D01*
X147294454Y-112559210D01*
X147250997Y-112702471D01*
X147240000Y-112814124D01*
X147240000Y-112814134D01*
X147236324Y-112851456D01*
X147240000Y-112888779D01*
X147240000Y-113900129D01*
X147205820Y-113910498D01*
X147095506Y-113969463D01*
X146998815Y-114048815D01*
X146919463Y-114145506D01*
X146860498Y-114255820D01*
X146824188Y-114375518D01*
X146811928Y-114500000D01*
X146811928Y-116300000D01*
X146824188Y-116424482D01*
X146860498Y-116544180D01*
X146919463Y-116654494D01*
X146998815Y-116751185D01*
X147095506Y-116830537D01*
X147205820Y-116889502D01*
X147325518Y-116925812D01*
X147450000Y-116938072D01*
X148550000Y-116938072D01*
X148674482Y-116925812D01*
X148794180Y-116889502D01*
X148904494Y-116830537D01*
X149001185Y-116751185D01*
X149080537Y-116654494D01*
X149139502Y-116544180D01*
X149175812Y-116424482D01*
X149188072Y-116300000D01*
X149188072Y-114868072D01*
X149351928Y-114868072D01*
X149351928Y-116025000D01*
X149369472Y-116203132D01*
X149421431Y-116374418D01*
X149505808Y-116532276D01*
X149619361Y-116670639D01*
X149757724Y-116784192D01*
X149915582Y-116868569D01*
X150086868Y-116920528D01*
X150265000Y-116938072D01*
X150815000Y-116938072D01*
X150993132Y-116920528D01*
X151164418Y-116868569D01*
X151322276Y-116784192D01*
X151460639Y-116670639D01*
X151574192Y-116532276D01*
X151658569Y-116374418D01*
X151710528Y-116203132D01*
X151728072Y-116025000D01*
X151728072Y-114775000D01*
X151710528Y-114596868D01*
X151681144Y-114500000D01*
X155311928Y-114500000D01*
X155315000Y-115114250D01*
X155473750Y-115273000D01*
X156373000Y-115273000D01*
X156373000Y-114023750D01*
X156214250Y-113865000D01*
X155950000Y-113861928D01*
X155825518Y-113874188D01*
X155705820Y-113910498D01*
X155595506Y-113969463D01*
X155498815Y-114048815D01*
X155419463Y-114145506D01*
X155360498Y-114255820D01*
X155324188Y-114375518D01*
X155311928Y-114500000D01*
X151681144Y-114500000D01*
X151658569Y-114425582D01*
X151574192Y-114267724D01*
X151460639Y-114129361D01*
X151322276Y-114015808D01*
X151164418Y-113931431D01*
X150993132Y-113879472D01*
X150815000Y-113861928D01*
X150458072Y-113861928D01*
X150458072Y-113616729D01*
X151209812Y-112864990D01*
X156581928Y-112864990D01*
X156581928Y-113955000D01*
X156599472Y-114133132D01*
X156627000Y-114223880D01*
X156627000Y-115273000D01*
X156647000Y-115273000D01*
X156647000Y-115527000D01*
X156627000Y-115527000D01*
X156627000Y-115547000D01*
X156373000Y-115547000D01*
X156373000Y-115527000D01*
X155473750Y-115527000D01*
X155315000Y-115685750D01*
X155311928Y-116300000D01*
X155324188Y-116424482D01*
X155360498Y-116544180D01*
X155419463Y-116654494D01*
X155498815Y-116751185D01*
X155595506Y-116830537D01*
X155705820Y-116889502D01*
X155825518Y-116925812D01*
X155950000Y-116938072D01*
X155987563Y-116937635D01*
X155185199Y-117740000D01*
X150037322Y-117740000D01*
X149999999Y-117736324D01*
X149962676Y-117740000D01*
X149962667Y-117740000D01*
X149851014Y-117750997D01*
X149707753Y-117794454D01*
X149575723Y-117865026D01*
X149492083Y-117933668D01*
X149459999Y-117959999D01*
X149436201Y-117988997D01*
X143063271Y-124361928D01*
X143000000Y-124361928D01*
X142777973Y-124383796D01*
X142564479Y-124448559D01*
X142367721Y-124553728D01*
X142195262Y-124695262D01*
X142053728Y-124867721D01*
X141948559Y-125064479D01*
X141883796Y-125277973D01*
X141861928Y-125500000D01*
X140042150Y-125500000D01*
X140042150Y-110423450D01*
X140049664Y-110273738D01*
X140067443Y-110156657D01*
X140120669Y-109968263D01*
X140195976Y-109801144D01*
X140294039Y-109647914D01*
X140412825Y-109510737D01*
X140550058Y-109391986D01*
X140703369Y-109293940D01*
X140870584Y-109218642D01*
X141059065Y-109165426D01*
X141176223Y-109147647D01*
X141325966Y-109140136D01*
X141339047Y-109140136D01*
X141075649Y-109249239D01*
X140770556Y-109453096D01*
X140511095Y-109712557D01*
X140307238Y-110017650D01*
X140166819Y-110356652D01*
X140095234Y-110716534D01*
X140095234Y-111083466D01*
X140166819Y-111443348D01*
X140307238Y-111782350D01*
X140511095Y-112087443D01*
X140770556Y-112346904D01*
X141075649Y-112550761D01*
X141414651Y-112691180D01*
X141774533Y-112762765D01*
X142141465Y-112762765D01*
X142501347Y-112691180D01*
X142840349Y-112550761D01*
X143145442Y-112346904D01*
X143404903Y-112087443D01*
X143608760Y-111782350D01*
X143749179Y-111443348D01*
X143820764Y-111083466D01*
X143820764Y-110716534D01*
X143749179Y-110356652D01*
X143608760Y-110017650D01*
X143404903Y-109712557D01*
X143145442Y-109453096D01*
X142840349Y-109249239D01*
X142576951Y-109140136D01*
X162039684Y-109140136D01*
X162075789Y-109143692D01*
X162111894Y-109140136D01*
X162219874Y-109129501D01*
X162358422Y-109087473D01*
X162486109Y-109019223D01*
X162598027Y-108927374D01*
X162683409Y-108823336D01*
X162807386Y-108798675D01*
X162968002Y-108732146D01*
X163049952Y-108677389D01*
X163131902Y-108732146D01*
X163292518Y-108798675D01*
X163463027Y-108832592D01*
X163636877Y-108832592D01*
X163807386Y-108798675D01*
X163968002Y-108732146D01*
X164074952Y-108660684D01*
X164181902Y-108732146D01*
%TA.AperFunction,Conductor*%
D22*
G36*
X164181902Y-108732146D02*
G01*
X164342518Y-108798675D01*
X164513027Y-108832592D01*
X164686877Y-108832592D01*
X164857386Y-108798675D01*
X165018002Y-108732146D01*
X165099952Y-108677389D01*
X165181902Y-108732146D01*
X165342518Y-108798675D01*
X165513027Y-108832592D01*
X165686877Y-108832592D01*
X165857386Y-108798675D01*
X166018002Y-108732146D01*
X166099952Y-108677389D01*
X166181902Y-108732146D01*
X166342518Y-108798675D01*
X166468747Y-108823784D01*
X166553761Y-108927374D01*
X166663062Y-109017075D01*
X166665679Y-109019223D01*
X166793366Y-109087473D01*
X166931914Y-109129501D01*
X167075999Y-109143692D01*
X167112104Y-109140136D01*
X197234954Y-109140136D01*
X197271059Y-109143692D01*
X197307164Y-109140136D01*
X197415144Y-109129501D01*
X197553692Y-109087473D01*
X197681379Y-109019223D01*
X197793297Y-108927374D01*
X197858140Y-108848363D01*
X198018002Y-108782146D01*
X198099952Y-108727389D01*
X198181902Y-108782146D01*
X198342518Y-108848675D01*
X198513027Y-108882592D01*
X198686877Y-108882592D01*
X198857386Y-108848675D01*
X199018002Y-108782146D01*
X199124952Y-108710684D01*
X199231902Y-108782146D01*
X199392518Y-108848675D01*
X199563027Y-108882592D01*
X199736877Y-108882592D01*
X199907386Y-108848675D01*
X200068002Y-108782146D01*
X200149952Y-108727389D01*
X200231902Y-108782146D01*
X200392518Y-108848675D01*
X200563027Y-108882592D01*
X200586768Y-108882592D01*
X200623520Y-108927374D01*
X200732821Y-109017075D01*
X200735438Y-109019223D01*
X200863125Y-109087473D01*
X201001673Y-109129501D01*
X201145758Y-109143692D01*
X201181863Y-109140136D01*
X235931048Y-109140136D01*
X235667650Y-109249239D01*
X235362557Y-109453096D01*
X235103096Y-109712557D01*
X234899239Y-110017650D01*
X234758820Y-110356652D01*
X234687235Y-110716534D01*
X234687235Y-111083466D01*
X234758820Y-111443348D01*
X234899239Y-111782350D01*
X235103096Y-112087443D01*
X235362557Y-112346904D01*
X235667650Y-112550761D01*
X236006652Y-112691180D01*
X236366534Y-112762765D01*
X236733466Y-112762765D01*
X237093348Y-112691180D01*
X237432350Y-112550761D01*
X237737443Y-112346904D01*
X237996904Y-112087443D01*
X238200761Y-111782350D01*
X238341180Y-111443348D01*
X238412765Y-111083466D01*
X238412765Y-110716534D01*
X238341180Y-110356652D01*
X238200761Y-110017650D01*
X237996904Y-109712557D01*
X237737443Y-109453096D01*
X237432350Y-109249239D01*
X237168952Y-109140136D01*
X237288441Y-109140136D01*
X237438180Y-109147647D01*
X237555294Y-109165421D01*
X237743720Y-109218629D01*
X237910851Y-109293906D01*
X238064077Y-109391924D01*
X238201233Y-109510648D01*
X238319950Y-109647796D01*
X238417969Y-109801024D01*
X238493247Y-109968158D01*
X238546455Y-110156581D01*
X238564229Y-110273696D01*
X238571742Y-110423463D01*
X238571741Y-156386884D01*
X238564229Y-156536628D01*
X238546455Y-156653744D01*
X238493247Y-156842167D01*
X238417969Y-157009301D01*
X238319950Y-157162529D01*
X238201233Y-157299677D01*
X238064079Y-157418399D01*
X237910849Y-157516420D01*
X237743720Y-157591696D01*
X237555294Y-157644904D01*
X237438181Y-157662678D01*
X237288435Y-157670190D01*
X141325972Y-157670190D01*
X141176223Y-157662678D01*
X141059065Y-157644899D01*
X140870589Y-157591684D01*
X140703367Y-157516383D01*
X140550058Y-157418339D01*
X140412825Y-157299588D01*
X140294039Y-157162411D01*
X140195976Y-157009181D01*
X140120669Y-156842062D01*
X140067443Y-156653669D01*
X140049664Y-156536587D01*
X140042150Y-156386877D01*
X140042150Y-155308535D01*
X140095234Y-155308535D01*
X140095234Y-155675467D01*
X140166819Y-156035349D01*
X140307238Y-156374351D01*
X140511095Y-156679444D01*
X140770556Y-156938905D01*
X141075649Y-157142762D01*
X141414651Y-157283181D01*
X141774533Y-157354766D01*
X142141465Y-157354766D01*
X142501347Y-157283181D01*
X142840349Y-157142762D01*
X143145442Y-156938905D01*
X143404903Y-156679444D01*
X143608760Y-156374351D01*
X143749179Y-156035349D01*
X143820764Y-155675467D01*
X143820764Y-155308535D01*
X234687235Y-155308535D01*
X234687235Y-155675467D01*
X234758820Y-156035349D01*
X234899239Y-156374351D01*
X235103096Y-156679444D01*
X235362557Y-156938905D01*
X235667650Y-157142762D01*
X236006652Y-157283181D01*
X236366534Y-157354766D01*
X236733466Y-157354766D01*
X237093348Y-157283181D01*
X237432350Y-157142762D01*
X237737443Y-156938905D01*
X237996904Y-156679444D01*
X238200761Y-156374351D01*
X238341180Y-156035349D01*
X238412765Y-155675467D01*
X238412765Y-155308535D01*
X238341180Y-154948653D01*
X238200761Y-154609651D01*
X237996904Y-154304558D01*
X237737443Y-154045097D01*
X237432350Y-153841240D01*
X237093348Y-153700821D01*
X236733466Y-153629236D01*
X236366534Y-153629236D01*
X236006652Y-153700821D01*
X235667650Y-153841240D01*
X235362557Y-154045097D01*
X235103096Y-154304558D01*
X234899239Y-154609651D01*
X234758820Y-154948653D01*
X234687235Y-155308535D01*
X143820764Y-155308535D01*
X143749179Y-154948653D01*
X143608760Y-154609651D01*
X143404903Y-154304558D01*
X143145442Y-154045097D01*
X142840349Y-153841240D01*
X142501347Y-153700821D01*
X142141465Y-153629236D01*
X141774533Y-153629236D01*
X141414651Y-153700821D01*
X141075649Y-153841240D01*
X140770556Y-154045097D01*
X140511095Y-154304558D01*
X140307238Y-154609651D01*
X140166819Y-154948653D01*
X140095234Y-155308535D01*
X140042150Y-155308535D01*
X140042150Y-153100000D01*
X200311928Y-153100000D01*
X200324188Y-153224482D01*
X200360498Y-153344180D01*
X200419463Y-153454494D01*
X200498815Y-153551185D01*
X200595506Y-153630537D01*
X200705820Y-153689502D01*
X200825518Y-153725812D01*
X200950000Y-153738072D01*
X203664250Y-153735000D01*
X203823000Y-153576250D01*
X203823000Y-151727000D01*
X204077000Y-151727000D01*
X204077000Y-153576250D01*
X204235750Y-153735000D01*
X206950000Y-153738072D01*
X207074482Y-153725812D01*
X207194180Y-153689502D01*
X207304494Y-153630537D01*
X207401185Y-153551185D01*
X207480537Y-153454494D01*
X207539502Y-153344180D01*
X207575812Y-153224482D01*
X207588072Y-153100000D01*
X207585000Y-151885750D01*
X207426250Y-151727000D01*
X204077000Y-151727000D01*
X203823000Y-151727000D01*
X200473750Y-151727000D01*
X200315000Y-151885750D01*
X200311928Y-153100000D01*
X140042150Y-153100000D01*
X140042150Y-151850000D01*
X141761928Y-151850000D01*
X141774188Y-151974482D01*
X141810498Y-152094180D01*
X141869463Y-152204494D01*
X141948815Y-152301185D01*
X142045506Y-152380537D01*
X142155820Y-152439502D01*
X142275518Y-152475812D01*
X142400000Y-152488072D01*
X142964250Y-152485000D01*
X143123000Y-152326250D01*
X143123000Y-151127000D01*
X143377000Y-151127000D01*
X143377000Y-152326250D01*
X143535750Y-152485000D01*
X144100000Y-152488072D01*
X144224482Y-152475812D01*
X144344180Y-152439502D01*
X144454494Y-152380537D01*
X144551185Y-152301185D01*
X144630537Y-152204494D01*
X144689502Y-152094180D01*
X144725812Y-151974482D01*
X144738072Y-151850000D01*
X144735000Y-151285750D01*
X144576250Y-151127000D01*
X143377000Y-151127000D01*
X143123000Y-151127000D01*
X141923750Y-151127000D01*
X141765000Y-151285750D01*
X141761928Y-151850000D01*
X140042150Y-151850000D01*
X140042150Y-150150000D01*
X141761928Y-150150000D01*
X141765000Y-150714250D01*
X141923750Y-150873000D01*
X143123000Y-150873000D01*
X143123000Y-149673750D01*
X143377000Y-149673750D01*
X143377000Y-150873000D01*
X144576250Y-150873000D01*
X144735000Y-150714250D01*
X144738072Y-150150000D01*
X144733148Y-150100000D01*
X200311928Y-150100000D01*
X200315000Y-151314250D01*
X200473750Y-151473000D01*
X203823000Y-151473000D01*
X203823000Y-149623750D01*
X204077000Y-149623750D01*
X204077000Y-151473000D01*
X207426250Y-151473000D01*
X207585000Y-151314250D01*
X207586174Y-150850000D01*
X224311928Y-150850000D01*
X224311928Y-152350000D01*
X224338599Y-152620799D01*
X224417589Y-152881192D01*
X224545860Y-153121171D01*
X224718485Y-153331515D01*
X224928829Y-153504140D01*
X225168808Y-153632411D01*
X225429201Y-153711401D01*
X225700000Y-153738072D01*
X230200000Y-153738072D01*
X230470799Y-153711401D01*
X230731192Y-153632411D01*
X230971171Y-153504140D01*
X231181515Y-153331515D01*
X231354140Y-153121171D01*
X231482411Y-152881192D01*
X231561401Y-152620799D01*
X231587087Y-152360000D01*
X232611928Y-152360000D01*
X232611928Y-152400000D01*
X232624188Y-152524482D01*
X232660498Y-152644180D01*
X232719463Y-152754494D01*
X232798815Y-152851185D01*
X232895506Y-152930537D01*
X233005820Y-152989502D01*
X233125518Y-153025812D01*
X233250000Y-153038072D01*
X234950000Y-153038072D01*
X235074482Y-153025812D01*
X235194180Y-152989502D01*
X235304494Y-152930537D01*
X235401185Y-152851185D01*
X235480537Y-152754494D01*
X235539502Y-152644180D01*
X235561513Y-152571620D01*
X235693368Y-152703475D01*
X235936589Y-152865990D01*
X236206842Y-152977932D01*
X236493740Y-153035000D01*
X236786260Y-153035000D01*
X237073158Y-152977932D01*
X237343411Y-152865990D01*
X237586632Y-152703475D01*
X237793475Y-152496632D01*
X237955990Y-152253411D01*
X238067932Y-151983158D01*
X238125000Y-151696260D01*
X238125000Y-151403740D01*
X238067932Y-151116842D01*
X237955990Y-150846589D01*
X237793475Y-150603368D01*
X237586632Y-150396525D01*
X237343411Y-150234010D01*
X237073158Y-150122068D01*
X236786260Y-150065000D01*
X236493740Y-150065000D01*
X236206842Y-150122068D01*
X235936589Y-150234010D01*
X235693368Y-150396525D01*
X235561513Y-150528380D01*
X235539502Y-150455820D01*
X235480537Y-150345506D01*
X235401185Y-150248815D01*
X235304494Y-150169463D01*
X235194180Y-150110498D01*
X235074482Y-150074188D01*
X234950000Y-150061928D01*
X233250000Y-150061928D01*
X233125518Y-150074188D01*
X233005820Y-150110498D01*
X232895506Y-150169463D01*
X232798815Y-150248815D01*
X232719463Y-150345506D01*
X232660498Y-150455820D01*
X232624188Y-150575518D01*
X232611928Y-150700000D01*
X232611928Y-150840000D01*
X231587087Y-150840000D01*
X231561401Y-150579201D01*
X231482411Y-150318808D01*
X231354140Y-150078829D01*
X231181515Y-149868485D01*
X230971171Y-149695860D01*
X230731192Y-149567589D01*
X230470799Y-149488599D01*
X230200000Y-149461928D01*
X225700000Y-149461928D01*
X225429201Y-149488599D01*
X225168808Y-149567589D01*
X224928829Y-149695860D01*
X224718485Y-149868485D01*
X224545860Y-150078829D01*
X224417589Y-150318808D01*
X224338599Y-150579201D01*
X224311928Y-150850000D01*
X207586174Y-150850000D01*
X207588072Y-150100000D01*
X207575812Y-149975518D01*
X207539502Y-149855820D01*
X207480537Y-149745506D01*
X207401185Y-149648815D01*
X207304494Y-149569463D01*
X207194180Y-149510498D01*
X207074482Y-149474188D01*
X206950000Y-149461928D01*
X204235750Y-149465000D01*
X204077000Y-149623750D01*
X203823000Y-149623750D01*
X203664250Y-149465000D01*
X200950000Y-149461928D01*
X200825518Y-149474188D01*
X200705820Y-149510498D01*
X200595506Y-149569463D01*
X200498815Y-149648815D01*
X200419463Y-149745506D01*
X200360498Y-149855820D01*
X200324188Y-149975518D01*
X200311928Y-150100000D01*
X144733148Y-150100000D01*
X144725812Y-150025518D01*
X144689502Y-149905820D01*
X144630537Y-149795506D01*
X144551185Y-149698815D01*
X144454494Y-149619463D01*
X144344180Y-149560498D01*
X144224482Y-149524188D01*
X144100000Y-149511928D01*
X143535750Y-149515000D01*
X143377000Y-149673750D01*
X143123000Y-149673750D01*
X142964250Y-149515000D01*
X142400000Y-149511928D01*
X142275518Y-149524188D01*
X142155820Y-149560498D01*
X142045506Y-149619463D01*
X141948815Y-149698815D01*
X141869463Y-149795506D01*
X141810498Y-149905820D01*
X141774188Y-150025518D01*
X141761928Y-150150000D01*
X140042150Y-150150000D01*
X140042150Y-148154080D01*
X234465525Y-148154080D01*
X234549208Y-148408261D01*
X234821775Y-148539158D01*
X235114642Y-148614365D01*
X235416553Y-148630991D01*
X235715907Y-148588397D01*
X236001199Y-148488222D01*
X236150792Y-148408261D01*
X236234475Y-148154080D01*
X235350000Y-147269605D01*
X234465525Y-148154080D01*
X140042150Y-148154080D01*
X140042150Y-138500000D01*
X141861928Y-138500000D01*
X141861928Y-141500000D01*
X141883796Y-141722027D01*
X141948559Y-141935521D01*
X142053728Y-142132279D01*
X142195262Y-142304738D01*
X142367721Y-142446272D01*
X142564479Y-142551441D01*
X142777973Y-142616204D01*
X143000000Y-142638072D01*
X144000000Y-142638072D01*
X144222027Y-142616204D01*
X144435521Y-142551441D01*
X144632279Y-142446272D01*
X144804738Y-142304738D01*
X144946272Y-142132279D01*
X145051441Y-141935521D01*
X145116204Y-141722027D01*
X145138072Y-141500000D01*
X145138072Y-138500000D01*
X145116204Y-138277973D01*
X145051441Y-138064479D01*
X144946272Y-137867721D01*
X144804738Y-137695262D01*
X144632279Y-137553728D01*
X144435521Y-137448559D01*
X144222027Y-137383796D01*
X144000000Y-137361928D01*
X143000000Y-137361928D01*
X142777973Y-137383796D01*
X142564479Y-137448559D01*
X142367721Y-137553728D01*
X142195262Y-137695262D01*
X142053728Y-137867721D01*
X141948559Y-138064479D01*
X141883796Y-138277973D01*
X141861928Y-138500000D01*
X140042150Y-138500000D01*
X140042150Y-130708665D01*
X149215000Y-130708665D01*
X149215000Y-130991335D01*
X149270147Y-131268574D01*
X149378320Y-131529727D01*
X149535363Y-131764759D01*
X149735241Y-131964637D01*
X149970273Y-132121680D01*
X150231426Y-132229853D01*
X150508665Y-132285000D01*
X150791335Y-132285000D01*
X151068574Y-132229853D01*
X151329727Y-132121680D01*
X151564759Y-131964637D01*
X151764637Y-131764759D01*
X151921680Y-131529727D01*
X152029853Y-131268574D01*
X152085000Y-130991335D01*
X152085000Y-130708665D01*
X152029853Y-130431426D01*
X151921680Y-130170273D01*
X151764637Y-129935241D01*
X151564759Y-129735363D01*
X151329727Y-129578320D01*
X151068574Y-129470147D01*
X150791335Y-129415000D01*
X150508665Y-129415000D01*
X150231426Y-129470147D01*
X149970273Y-129578320D01*
X149735241Y-129735363D01*
X149535363Y-129935241D01*
X149378320Y-130170273D01*
X149270147Y-130431426D01*
X149215000Y-130708665D01*
X140042150Y-130708665D01*
X140042150Y-125500000D01*
X141861928Y-125500000D01*
X141861928Y-128500000D01*
X141883796Y-128722027D01*
X141948559Y-128935521D01*
X142053728Y-129132279D01*
X142195262Y-129304738D01*
X142367721Y-129446272D01*
X142564479Y-129551441D01*
X142777973Y-129616204D01*
X143000000Y-129638072D01*
X144000000Y-129638072D01*
X144222027Y-129616204D01*
X144435521Y-129551441D01*
X144632279Y-129446272D01*
X144804738Y-129304738D01*
X144946272Y-129132279D01*
X145051441Y-128935521D01*
X145116204Y-128722027D01*
X145138072Y-128500000D01*
X145138072Y-125500000D01*
X145116204Y-125277973D01*
X145051441Y-125064479D01*
X144946272Y-124867721D01*
X144838455Y-124736346D01*
X149261896Y-120312906D01*
X149215000Y-120548665D01*
X149215000Y-120831335D01*
X149270147Y-121108574D01*
X149378320Y-121369727D01*
X149535363Y-121604759D01*
X149735241Y-121804637D01*
X149970273Y-121961680D01*
X150231426Y-122069853D01*
X150508665Y-122125000D01*
X150791335Y-122125000D01*
X150973887Y-122088688D01*
X156740001Y-127854803D01*
X156740000Y-129781956D01*
X156585241Y-129885363D01*
X156385363Y-130085241D01*
X156228320Y-130320273D01*
X156120147Y-130581426D01*
X156065000Y-130858665D01*
X156065000Y-131141335D01*
X156120147Y-131418574D01*
X156228320Y-131679727D01*
X156385363Y-131914759D01*
X156585241Y-132114637D01*
X156820273Y-132271680D01*
X157081426Y-132379853D01*
X157358665Y-132435000D01*
X157641335Y-132435000D01*
X157918574Y-132379853D01*
X158179727Y-132271680D01*
X158414759Y-132114637D01*
X158614637Y-131914759D01*
X158771680Y-131679727D01*
X158879853Y-131418574D01*
X158935000Y-131141335D01*
X158935000Y-130858665D01*
X158879853Y-130581426D01*
X158771680Y-130320273D01*
X158614637Y-130085241D01*
X158414759Y-129885363D01*
X158260000Y-129781957D01*
X158260000Y-127577323D01*
X158263676Y-127540000D01*
X158260000Y-127502677D01*
X158260000Y-127502667D01*
X158249003Y-127391014D01*
X158205546Y-127247753D01*
X158154383Y-127152035D01*
X158134974Y-127115723D01*
X158063799Y-127028997D01*
X158040001Y-126999999D01*
X158011003Y-126976201D01*
X152048688Y-121013887D01*
X152085000Y-120831335D01*
X152085000Y-120698665D01*
X156065000Y-120698665D01*
X156065000Y-120981335D01*
X156120147Y-121258574D01*
X156228320Y-121519727D01*
X156385363Y-121754759D01*
X156585241Y-121954637D01*
X156820273Y-122111680D01*
X157081426Y-122219853D01*
X157358665Y-122275000D01*
X157641335Y-122275000D01*
X157823887Y-122238688D01*
X161740001Y-126154803D01*
X161740000Y-129781956D01*
X161585241Y-129885363D01*
X161385363Y-130085241D01*
X161228320Y-130320273D01*
X161120147Y-130581426D01*
X161065000Y-130858665D01*
X161065000Y-131141335D01*
X161120147Y-131418574D01*
X161228320Y-131679727D01*
X161385363Y-131914759D01*
X161585241Y-132114637D01*
X161820273Y-132271680D01*
X162081426Y-132379853D01*
X162358665Y-132435000D01*
X162641335Y-132435000D01*
X162918574Y-132379853D01*
X163179727Y-132271680D01*
X163414759Y-132114637D01*
X163614637Y-131914759D01*
X163771680Y-131679727D01*
X163879853Y-131418574D01*
X163935000Y-131141335D01*
X163935000Y-130858665D01*
X163879853Y-130581426D01*
X163771680Y-130320273D01*
X163614637Y-130085241D01*
X163414759Y-129885363D01*
X163260000Y-129781957D01*
X163260000Y-125877323D01*
X163263676Y-125840000D01*
X163260000Y-125802677D01*
X163260000Y-125802667D01*
X163249003Y-125691014D01*
X163205546Y-125547753D01*
X163134974Y-125415724D01*
X163040001Y-125299999D01*
X163011003Y-125276201D01*
X158898688Y-121163887D01*
X158935000Y-120981335D01*
X158935000Y-120698665D01*
X161065000Y-120698665D01*
X161065000Y-120981335D01*
X161120147Y-121258574D01*
X161228320Y-121519727D01*
X161385363Y-121754759D01*
X161585241Y-121954637D01*
X161820273Y-122111680D01*
X162081426Y-122219853D01*
X162358665Y-122275000D01*
X162641335Y-122275000D01*
X162823887Y-122238688D01*
X167240001Y-126654803D01*
X167240000Y-129781956D01*
X167085241Y-129885363D01*
X166885363Y-130085241D01*
X166728320Y-130320273D01*
X166620147Y-130581426D01*
X166565000Y-130858665D01*
X166565000Y-131141335D01*
X166620147Y-131418574D01*
X166728320Y-131679727D01*
X166885363Y-131914759D01*
X167085241Y-132114637D01*
X167320273Y-132271680D01*
X167581426Y-132379853D01*
X167858665Y-132435000D01*
X168141335Y-132435000D01*
X168418574Y-132379853D01*
X168679727Y-132271680D01*
X168914759Y-132114637D01*
X169114637Y-131914759D01*
X169271680Y-131679727D01*
X169379853Y-131418574D01*
X169435000Y-131141335D01*
X169435000Y-130858665D01*
X169379853Y-130581426D01*
X169271680Y-130320273D01*
X169114637Y-130085241D01*
X168914759Y-129885363D01*
X168760000Y-129781957D01*
X168760000Y-126377333D01*
X168763677Y-126340000D01*
X168749003Y-126191014D01*
X168705546Y-126047753D01*
X168634974Y-125915724D01*
X168563799Y-125828997D01*
X168540001Y-125799999D01*
X168511003Y-125776201D01*
X163898688Y-121163887D01*
X163935000Y-120981335D01*
X163935000Y-120698665D01*
X166565000Y-120698665D01*
X166565000Y-120981335D01*
X166620147Y-121258574D01*
X166728320Y-121519727D01*
X166885363Y-121754759D01*
X167085241Y-121954637D01*
X167320273Y-122111680D01*
X167581426Y-122219853D01*
X167858665Y-122275000D01*
X168141335Y-122275000D01*
X168323887Y-122238688D01*
X174240001Y-128154803D01*
X174240000Y-129781956D01*
X174085241Y-129885363D01*
X173885363Y-130085241D01*
X173728320Y-130320273D01*
X173620147Y-130581426D01*
X173565000Y-130858665D01*
X173565000Y-131141335D01*
X173620147Y-131418574D01*
X173728320Y-131679727D01*
X173885363Y-131914759D01*
X174085241Y-132114637D01*
X174320273Y-132271680D01*
X174581426Y-132379853D01*
X174858665Y-132435000D01*
X175141335Y-132435000D01*
X175418574Y-132379853D01*
X175679727Y-132271680D01*
X175914759Y-132114637D01*
X176114637Y-131914759D01*
X176271680Y-131679727D01*
X176379853Y-131418574D01*
X176435000Y-131141335D01*
X176435000Y-130858665D01*
X176379853Y-130581426D01*
X176271680Y-130320273D01*
X176114637Y-130085241D01*
X175914759Y-129885363D01*
X175760000Y-129781957D01*
X175760000Y-127877323D01*
X175763676Y-127840000D01*
X175760000Y-127802677D01*
X175760000Y-127802667D01*
X175749003Y-127691014D01*
X175705546Y-127547753D01*
X175672343Y-127485635D01*
X175634974Y-127415723D01*
X175563799Y-127328997D01*
X175540001Y-127299999D01*
X175511003Y-127276201D01*
X169398688Y-121163887D01*
X169435000Y-120981335D01*
X169435000Y-120698665D01*
X173565000Y-120698665D01*
X173565000Y-120981335D01*
X173620147Y-121258574D01*
X173728320Y-121519727D01*
X173885363Y-121754759D01*
X174085241Y-121954637D01*
X174320273Y-122111680D01*
X174581426Y-122219853D01*
X174858665Y-122275000D01*
X175141335Y-122275000D01*
X175323887Y-122238688D01*
X181740001Y-128654803D01*
X181740000Y-129781956D01*
X181585241Y-129885363D01*
X181385363Y-130085241D01*
X181228320Y-130320273D01*
X181120147Y-130581426D01*
X181065000Y-130858665D01*
X181065000Y-131141335D01*
X181120147Y-131418574D01*
X181228320Y-131679727D01*
X181385363Y-131914759D01*
X181585241Y-132114637D01*
X181820273Y-132271680D01*
X182081426Y-132379853D01*
X182358665Y-132435000D01*
X182641335Y-132435000D01*
X182918574Y-132379853D01*
X183179727Y-132271680D01*
X183414759Y-132114637D01*
X183614637Y-131914759D01*
X183771680Y-131679727D01*
X183879853Y-131418574D01*
X183935000Y-131141335D01*
X183935000Y-130858665D01*
X183879853Y-130581426D01*
X183771680Y-130320273D01*
X183614637Y-130085241D01*
X183414759Y-129885363D01*
X183260000Y-129781957D01*
X183260000Y-128377325D01*
X183263676Y-128340000D01*
X183260000Y-128302675D01*
X183260000Y-128302667D01*
X183249003Y-128191014D01*
X183205546Y-128047753D01*
X183134974Y-127915724D01*
X183040001Y-127799999D01*
X183011003Y-127776201D01*
X176398688Y-121163887D01*
X176435000Y-120981335D01*
X176435000Y-120698665D01*
X181065000Y-120698665D01*
X181065000Y-120981335D01*
X181120147Y-121258574D01*
X181228320Y-121519727D01*
X181385363Y-121754759D01*
X181585241Y-121954637D01*
X181820273Y-122111680D01*
X182081426Y-122219853D01*
X182358665Y-122275000D01*
X182641335Y-122275000D01*
X182823887Y-122238688D01*
X188740001Y-128154803D01*
X188740000Y-129781956D01*
X188585241Y-129885363D01*
X188385363Y-130085241D01*
X188228320Y-130320273D01*
X188120147Y-130581426D01*
X188065000Y-130858665D01*
X188065000Y-131141335D01*
X188120147Y-131418574D01*
X188228320Y-131679727D01*
X188385363Y-131914759D01*
X188585241Y-132114637D01*
X188820273Y-132271680D01*
X189081426Y-132379853D01*
X189358665Y-132435000D01*
X189641335Y-132435000D01*
X189918574Y-132379853D01*
X190179727Y-132271680D01*
X190414759Y-132114637D01*
X190614637Y-131914759D01*
X190771680Y-131679727D01*
X190879853Y-131418574D01*
X190935000Y-131141335D01*
X190935000Y-130858665D01*
X190879853Y-130581426D01*
X190771680Y-130320273D01*
X190614637Y-130085241D01*
X190414759Y-129885363D01*
X190260000Y-129781957D01*
X190260000Y-127877323D01*
X190263676Y-127840000D01*
X190260000Y-127802677D01*
X190260000Y-127802667D01*
X190249003Y-127691014D01*
X190205546Y-127547753D01*
X190172343Y-127485635D01*
X190134974Y-127415723D01*
X190063799Y-127328997D01*
X190040001Y-127299999D01*
X190011003Y-127276201D01*
X183898688Y-121163887D01*
X183935000Y-120981335D01*
X183935000Y-120698665D01*
X188065000Y-120698665D01*
X188065000Y-120981335D01*
X188120147Y-121258574D01*
X188228320Y-121519727D01*
X188385363Y-121754759D01*
X188585241Y-121954637D01*
X188820273Y-122111680D01*
X189081426Y-122219853D01*
X189358665Y-122275000D01*
X189641335Y-122275000D01*
X189823887Y-122238688D01*
X193740001Y-126154803D01*
X193740000Y-129781956D01*
X193585241Y-129885363D01*
X193385363Y-130085241D01*
X193228320Y-130320273D01*
X193120147Y-130581426D01*
X193065000Y-130858665D01*
X193065000Y-131141335D01*
X193120147Y-131418574D01*
X193228320Y-131679727D01*
X193385363Y-131914759D01*
X193585241Y-132114637D01*
X193820273Y-132271680D01*
X194081426Y-132379853D01*
X194358665Y-132435000D01*
X194641335Y-132435000D01*
X194918574Y-132379853D01*
X195179727Y-132271680D01*
X195414759Y-132114637D01*
X195614637Y-131914759D01*
X195771680Y-131679727D01*
X195879853Y-131418574D01*
X195935000Y-131141335D01*
X195935000Y-130858665D01*
X195879853Y-130581426D01*
X195771680Y-130320273D01*
X195614637Y-130085241D01*
X195414759Y-129885363D01*
X195260000Y-129781957D01*
X195260000Y-125877323D01*
X195263676Y-125840000D01*
X195260000Y-125802677D01*
X195260000Y-125802667D01*
X195249003Y-125691014D01*
X195205546Y-125547753D01*
X195134974Y-125415724D01*
X195040001Y-125299999D01*
X195011003Y-125276201D01*
X190898688Y-121163887D01*
X190935000Y-120981335D01*
X190935000Y-120698665D01*
X193065000Y-120698665D01*
X193065000Y-120981335D01*
X193120147Y-121258574D01*
X193228320Y-121519727D01*
X193385363Y-121754759D01*
X193585241Y-121954637D01*
X193820273Y-122111680D01*
X194081426Y-122219853D01*
X194358665Y-122275000D01*
X194641335Y-122275000D01*
X194823887Y-122238688D01*
X199240001Y-126654803D01*
X199240000Y-129781956D01*
X199085241Y-129885363D01*
X198885363Y-130085241D01*
X198728320Y-130320273D01*
X198620147Y-130581426D01*
X198565000Y-130858665D01*
X198565000Y-131141335D01*
X198620147Y-131418574D01*
X198728320Y-131679727D01*
X198885363Y-131914759D01*
X199085241Y-132114637D01*
X199320273Y-132271680D01*
X199581426Y-132379853D01*
X199858665Y-132435000D01*
X200141335Y-132435000D01*
X200418574Y-132379853D01*
X200679727Y-132271680D01*
X200914759Y-132114637D01*
X201114637Y-131914759D01*
X201271680Y-131679727D01*
X201379853Y-131418574D01*
X201435000Y-131141335D01*
X201435000Y-130858665D01*
X201379853Y-130581426D01*
X201271680Y-130320273D01*
X201114637Y-130085241D01*
X200914759Y-129885363D01*
X200760000Y-129781957D01*
X200760000Y-126377333D01*
X200763677Y-126340000D01*
X200749003Y-126191014D01*
X200705546Y-126047753D01*
X200634974Y-125915724D01*
X200563799Y-125828997D01*
X200540001Y-125799999D01*
X200511003Y-125776201D01*
X195898688Y-121163887D01*
X195935000Y-120981335D01*
X195935000Y-120698665D01*
X198565000Y-120698665D01*
X198565000Y-120981335D01*
X198620147Y-121258574D01*
X198728320Y-121519727D01*
X198885363Y-121754759D01*
X199085241Y-121954637D01*
X199320273Y-122111680D01*
X199581426Y-122219853D01*
X199858665Y-122275000D01*
X200141335Y-122275000D01*
X200323887Y-122238688D01*
X204490001Y-126404803D01*
X204490000Y-129781956D01*
X204335241Y-129885363D01*
X204135363Y-130085241D01*
X203978320Y-130320273D01*
X203870147Y-130581426D01*
X203815000Y-130858665D01*
X203815000Y-131141335D01*
X203870147Y-131418574D01*
X203978320Y-131679727D01*
X204135363Y-131914759D01*
X204335241Y-132114637D01*
X204570273Y-132271680D01*
X204831426Y-132379853D01*
X205108665Y-132435000D01*
X205391335Y-132435000D01*
X205668574Y-132379853D01*
X205929727Y-132271680D01*
X206164759Y-132114637D01*
X206364637Y-131914759D01*
X206521680Y-131679727D01*
X206629853Y-131418574D01*
X206685000Y-131141335D01*
X206685000Y-130858665D01*
X206629853Y-130581426D01*
X206521680Y-130320273D01*
X206364637Y-130085241D01*
X206164759Y-129885363D01*
X206010000Y-129781957D01*
X206010000Y-126127322D01*
X206013676Y-126089999D01*
X206010000Y-126052676D01*
X206010000Y-126052667D01*
X205999003Y-125941014D01*
X205955546Y-125797753D01*
X205884974Y-125665724D01*
X205790001Y-125549999D01*
X205761003Y-125526201D01*
X201398688Y-121163887D01*
X201435000Y-120981335D01*
X201435000Y-120698665D01*
X203815000Y-120698665D01*
X203815000Y-120981335D01*
X203870147Y-121258574D01*
X203978320Y-121519727D01*
X204135363Y-121754759D01*
X204335241Y-121954637D01*
X204570273Y-122111680D01*
X204831426Y-122219853D01*
X205108665Y-122275000D01*
X205391335Y-122275000D01*
X205573887Y-122238688D01*
X209740001Y-126404803D01*
X209740000Y-129681956D01*
X209585241Y-129785363D01*
X209385363Y-129985241D01*
X209228320Y-130220273D01*
X209120147Y-130481426D01*
X209065000Y-130758665D01*
X209065000Y-131041335D01*
X209120147Y-131318574D01*
X209228320Y-131579727D01*
X209385363Y-131814759D01*
X209585241Y-132014637D01*
X209820273Y-132171680D01*
X210081426Y-132279853D01*
X210358665Y-132335000D01*
X210641335Y-132335000D01*
X210918574Y-132279853D01*
X211179727Y-132171680D01*
X211414759Y-132014637D01*
X211614637Y-131814759D01*
X211771680Y-131579727D01*
X211879853Y-131318574D01*
X211935000Y-131041335D01*
X211935000Y-130758665D01*
X211879853Y-130481426D01*
X211771680Y-130220273D01*
X211614637Y-129985241D01*
X211414759Y-129785363D01*
X211260000Y-129681957D01*
X211260000Y-126127322D01*
X211263676Y-126089999D01*
X211260000Y-126052676D01*
X211260000Y-126052667D01*
X211249003Y-125941014D01*
X211205546Y-125797753D01*
X211134974Y-125665724D01*
X211040001Y-125549999D01*
X211011003Y-125526201D01*
X206648688Y-121163887D01*
X206685000Y-120981335D01*
X206685000Y-120698665D01*
X206665109Y-120598665D01*
X209065000Y-120598665D01*
X209065000Y-120881335D01*
X209120147Y-121158574D01*
X209228320Y-121419727D01*
X209385363Y-121654759D01*
X209585241Y-121854637D01*
X209820273Y-122011680D01*
X210081426Y-122119853D01*
X210358665Y-122175000D01*
X210641335Y-122175000D01*
X210823887Y-122138688D01*
X216640001Y-127954803D01*
X216640000Y-129681956D01*
X216485241Y-129785363D01*
X216285363Y-129985241D01*
X216128320Y-130220273D01*
X216020147Y-130481426D01*
X215965000Y-130758665D01*
X215965000Y-131041335D01*
X216020147Y-131318574D01*
X216128320Y-131579727D01*
X216285363Y-131814759D01*
X216485241Y-132014637D01*
X216720273Y-132171680D01*
X216981426Y-132279853D01*
X217258665Y-132335000D01*
X217541335Y-132335000D01*
X217818574Y-132279853D01*
X218079727Y-132171680D01*
X218314759Y-132014637D01*
X218514637Y-131814759D01*
X218671680Y-131579727D01*
X218779853Y-131318574D01*
X218835000Y-131041335D01*
X218835000Y-130758665D01*
X218779853Y-130481426D01*
X218671680Y-130220273D01*
X218514637Y-129985241D01*
X218314759Y-129785363D01*
X218160000Y-129681957D01*
X218160000Y-127677333D01*
X218163677Y-127640000D01*
X218149003Y-127491014D01*
X218105546Y-127347753D01*
X218034974Y-127215724D01*
X217963799Y-127128997D01*
X217940001Y-127099999D01*
X217911003Y-127076201D01*
X211898688Y-121063887D01*
X211935000Y-120881335D01*
X211935000Y-120598665D01*
X215965000Y-120598665D01*
X215965000Y-120881335D01*
X216020147Y-121158574D01*
X216128320Y-121419727D01*
X216285363Y-121654759D01*
X216485241Y-121854637D01*
X216645203Y-121961520D01*
X216650144Y-122011680D01*
X216650998Y-122020355D01*
X216694454Y-122163616D01*
X216765026Y-122295646D01*
X216836201Y-122382372D01*
X216860000Y-122411371D01*
X216888998Y-122435169D01*
X220714831Y-126261003D01*
X220738629Y-126290001D01*
X220767627Y-126313799D01*
X220854353Y-126384974D01*
X220966653Y-126445000D01*
X220986383Y-126455546D01*
X221098391Y-126489523D01*
X220973501Y-126514365D01*
X220645012Y-126650429D01*
X220349379Y-126847965D01*
X220097965Y-127099379D01*
X219900429Y-127395012D01*
X219764365Y-127723501D01*
X219695000Y-128072223D01*
X219695000Y-128427777D01*
X219764365Y-128776499D01*
X219900429Y-129104988D01*
X220097965Y-129400621D01*
X220349379Y-129652035D01*
X220645012Y-129849571D01*
X220973501Y-129985635D01*
X221322223Y-130055000D01*
X221677777Y-130055000D01*
X222026499Y-129985635D01*
X222354988Y-129849571D01*
X222650621Y-129652035D01*
X222902035Y-129400621D01*
X223099571Y-129104988D01*
X223235635Y-128776499D01*
X223305000Y-128427777D01*
X223305000Y-128072223D01*
X223235635Y-127723501D01*
X223099571Y-127395012D01*
X222902035Y-127099379D01*
X222650621Y-126847965D01*
X222354988Y-126650429D01*
X222026499Y-126514365D01*
X222004555Y-126510000D01*
X229861084Y-126510000D01*
X229900429Y-126604988D01*
X230097965Y-126900621D01*
X230349379Y-127152035D01*
X230645012Y-127349571D01*
X230973501Y-127485635D01*
X231322223Y-127555000D01*
X231677777Y-127555000D01*
X232026499Y-127485635D01*
X232354988Y-127349571D01*
X232650621Y-127152035D01*
X232902035Y-126900621D01*
X233099571Y-126604988D01*
X233235635Y-126276499D01*
X233305000Y-125927777D01*
X233305000Y-125572223D01*
X233235635Y-125223501D01*
X233099571Y-124895012D01*
X232902035Y-124599379D01*
X232650621Y-124347965D01*
X232354988Y-124150429D01*
X232026499Y-124014365D01*
X231677777Y-123945000D01*
X231322223Y-123945000D01*
X230973501Y-124014365D01*
X230645012Y-124150429D01*
X230349379Y-124347965D01*
X230097965Y-124599379D01*
X229900429Y-124895012D01*
X229861084Y-124990000D01*
X222004555Y-124990000D01*
X222026499Y-124985635D01*
X222354988Y-124849571D01*
X222650621Y-124652035D01*
X222902035Y-124400621D01*
X223099571Y-124104988D01*
X223235635Y-123776499D01*
X223305000Y-123427777D01*
X223305000Y-123072223D01*
X223235635Y-122723501D01*
X223099571Y-122395012D01*
X222902035Y-122099379D01*
X222650621Y-121847965D01*
X222354988Y-121650429D01*
X222026499Y-121514365D01*
X221677777Y-121445000D01*
X221322223Y-121445000D01*
X220973501Y-121514365D01*
X220645012Y-121650429D01*
X220349379Y-121847965D01*
X220097965Y-122099379D01*
X219900429Y-122395012D01*
X219764365Y-122723501D01*
X219695000Y-123072223D01*
X219695000Y-123091569D01*
X218386414Y-121782982D01*
X218514637Y-121654759D01*
X218671680Y-121419727D01*
X218779853Y-121158574D01*
X218835000Y-120881335D01*
X218835000Y-120598665D01*
X218779853Y-120321426D01*
X218671680Y-120060273D01*
X218514637Y-119825241D01*
X218314759Y-119625363D01*
X218079727Y-119468320D01*
X217818574Y-119360147D01*
X217541335Y-119305000D01*
X217258665Y-119305000D01*
X216981426Y-119360147D01*
X216720273Y-119468320D01*
X216485241Y-119625363D01*
X216285363Y-119825241D01*
X216128320Y-120060273D01*
X216020147Y-120321426D01*
X215965000Y-120598665D01*
X211935000Y-120598665D01*
X211879853Y-120321426D01*
X211771680Y-120060273D01*
X211614637Y-119825241D01*
X211414759Y-119625363D01*
X211179727Y-119468320D01*
X210918574Y-119360147D01*
X210641335Y-119305000D01*
X210358665Y-119305000D01*
X210081426Y-119360147D01*
X209820273Y-119468320D01*
X209585241Y-119625363D01*
X209385363Y-119825241D01*
X209228320Y-120060273D01*
X209120147Y-120321426D01*
X209065000Y-120598665D01*
X206665109Y-120598665D01*
X206629853Y-120421426D01*
X206521680Y-120160273D01*
X206364637Y-119925241D01*
X206164759Y-119725363D01*
X205929727Y-119568320D01*
X205668574Y-119460147D01*
X205391335Y-119405000D01*
X205108665Y-119405000D01*
X204831426Y-119460147D01*
X204570273Y-119568320D01*
X204335241Y-119725363D01*
X204135363Y-119925241D01*
X203978320Y-120160273D01*
X203870147Y-120421426D01*
X203815000Y-120698665D01*
X201435000Y-120698665D01*
X201379853Y-120421426D01*
X201271680Y-120160273D01*
X201114637Y-119925241D01*
X200914759Y-119725363D01*
X200679727Y-119568320D01*
X200418574Y-119460147D01*
X200141335Y-119405000D01*
X199858665Y-119405000D01*
X199581426Y-119460147D01*
X199320273Y-119568320D01*
X199085241Y-119725363D01*
X198885363Y-119925241D01*
X198728320Y-120160273D01*
X198620147Y-120421426D01*
X198565000Y-120698665D01*
X195935000Y-120698665D01*
X195879853Y-120421426D01*
X195771680Y-120160273D01*
X195614637Y-119925241D01*
X195414759Y-119725363D01*
X195179727Y-119568320D01*
X194918574Y-119460147D01*
X194641335Y-119405000D01*
X194358665Y-119405000D01*
X194081426Y-119460147D01*
X193820273Y-119568320D01*
X193585241Y-119725363D01*
X193385363Y-119925241D01*
X193228320Y-120160273D01*
X193120147Y-120421426D01*
X193065000Y-120698665D01*
X190935000Y-120698665D01*
X190879853Y-120421426D01*
X190771680Y-120160273D01*
X190614637Y-119925241D01*
X190414759Y-119725363D01*
X190179727Y-119568320D01*
X189918574Y-119460147D01*
X189641335Y-119405000D01*
X189358665Y-119405000D01*
X189081426Y-119460147D01*
X188820273Y-119568320D01*
X188585241Y-119725363D01*
X188385363Y-119925241D01*
X188228320Y-120160273D01*
X188120147Y-120421426D01*
X188065000Y-120698665D01*
X183935000Y-120698665D01*
X183879853Y-120421426D01*
X183771680Y-120160273D01*
X183614637Y-119925241D01*
X183414759Y-119725363D01*
X183179727Y-119568320D01*
X182918574Y-119460147D01*
X182641335Y-119405000D01*
X182358665Y-119405000D01*
X182081426Y-119460147D01*
X181820273Y-119568320D01*
X181585241Y-119725363D01*
X181385363Y-119925241D01*
X181228320Y-120160273D01*
X181120147Y-120421426D01*
X181065000Y-120698665D01*
X176435000Y-120698665D01*
X176379853Y-120421426D01*
X176271680Y-120160273D01*
X176114637Y-119925241D01*
X175914759Y-119725363D01*
X175679727Y-119568320D01*
X175418574Y-119460147D01*
X175141335Y-119405000D01*
X174858665Y-119405000D01*
X174581426Y-119460147D01*
X174320273Y-119568320D01*
X174085241Y-119725363D01*
X173885363Y-119925241D01*
X173728320Y-120160273D01*
X173620147Y-120421426D01*
X173565000Y-120698665D01*
X169435000Y-120698665D01*
X169379853Y-120421426D01*
X169271680Y-120160273D01*
X169114637Y-119925241D01*
X168914759Y-119725363D01*
X168679727Y-119568320D01*
X168418574Y-119460147D01*
X168141335Y-119405000D01*
X167858665Y-119405000D01*
X167581426Y-119460147D01*
X167320273Y-119568320D01*
X167085241Y-119725363D01*
X166885363Y-119925241D01*
X166728320Y-120160273D01*
X166620147Y-120421426D01*
X166565000Y-120698665D01*
X163935000Y-120698665D01*
X163879853Y-120421426D01*
X163771680Y-120160273D01*
X163614637Y-119925241D01*
X163414759Y-119725363D01*
X163179727Y-119568320D01*
X162918574Y-119460147D01*
X162641335Y-119405000D01*
X162358665Y-119405000D01*
X162081426Y-119460147D01*
X161820273Y-119568320D01*
X161585241Y-119725363D01*
X161385363Y-119925241D01*
X161228320Y-120160273D01*
X161120147Y-120421426D01*
X161065000Y-120698665D01*
X158935000Y-120698665D01*
X158879853Y-120421426D01*
X158771680Y-120160273D01*
X158614637Y-119925241D01*
X158414759Y-119725363D01*
X158179727Y-119568320D01*
X157918574Y-119460147D01*
X157641335Y-119405000D01*
X157358665Y-119405000D01*
X157081426Y-119460147D01*
X156820273Y-119568320D01*
X156585241Y-119725363D01*
X156385363Y-119925241D01*
X156228320Y-120160273D01*
X156120147Y-120421426D01*
X156065000Y-120698665D01*
X152085000Y-120698665D01*
X152085000Y-120548665D01*
X152029853Y-120271426D01*
X151921680Y-120010273D01*
X151764637Y-119775241D01*
X151564759Y-119575363D01*
X151329727Y-119418320D01*
X151068574Y-119310147D01*
X150816471Y-119260000D01*
X155462678Y-119260000D01*
X155500000Y-119263676D01*
X155537322Y-119260000D01*
X155537333Y-119260000D01*
X155648986Y-119249003D01*
X155792247Y-119205546D01*
X155924276Y-119134974D01*
X156040001Y-119040001D01*
X156063804Y-119010997D01*
X158279155Y-116795647D01*
X158415582Y-116868569D01*
X158586868Y-116920528D01*
X158765000Y-116938072D01*
X159315000Y-116938072D01*
X159493132Y-116920528D01*
X159664418Y-116868569D01*
X159822276Y-116784192D01*
X159960639Y-116670639D01*
X160074192Y-116532276D01*
X160158569Y-116374418D01*
X160210528Y-116203132D01*
X160228072Y-116025000D01*
X160228072Y-115914330D01*
X161449746Y-117136004D01*
X161473544Y-117165002D01*
X161589269Y-117259975D01*
X161721298Y-117330547D01*
X161864559Y-117374004D01*
X161976212Y-117385001D01*
X161976220Y-117385001D01*
X162013545Y-117388677D01*
X162050870Y-117385001D01*
X165877677Y-117385001D01*
X165914999Y-117388677D01*
X165952321Y-117385001D01*
X165952332Y-117385001D01*
X166063985Y-117374004D01*
X166207246Y-117330547D01*
X166339275Y-117259975D01*
X166455000Y-117165002D01*
X166478802Y-117135999D01*
X166805221Y-116809580D01*
X166915582Y-116868569D01*
X167086868Y-116920528D01*
X167265000Y-116938072D01*
X167815000Y-116938072D01*
X167993132Y-116920528D01*
X168164418Y-116868569D01*
X168322276Y-116784192D01*
X168460639Y-116670639D01*
X168574192Y-116532276D01*
X168658569Y-116374418D01*
X168710528Y-116203132D01*
X168728072Y-116025000D01*
X168728072Y-114775000D01*
X168710528Y-114596868D01*
X168658569Y-114425582D01*
X168574192Y-114267724D01*
X168460639Y-114129361D01*
X168322276Y-114015808D01*
X168164418Y-113931431D01*
X167993132Y-113879472D01*
X167815000Y-113861928D01*
X167458072Y-113861928D01*
X167458072Y-112864990D01*
X171790189Y-112864990D01*
X173811928Y-114886731D01*
X173811928Y-116300000D01*
X173824188Y-116424482D01*
X173860498Y-116544180D01*
X173919463Y-116654494D01*
X173998815Y-116751185D01*
X174095506Y-116830537D01*
X174205820Y-116889502D01*
X174325518Y-116925812D01*
X174450000Y-116938072D01*
X175550000Y-116938072D01*
X175674482Y-116925812D01*
X175794180Y-116889502D01*
X175807552Y-116882354D01*
X176061211Y-117136013D01*
X176085009Y-117165011D01*
X176200734Y-117259984D01*
X176332763Y-117330556D01*
X176476024Y-117374013D01*
X176587677Y-117385010D01*
X176587686Y-117385010D01*
X176625009Y-117388686D01*
X176662332Y-117385010D01*
X204247668Y-117385010D01*
X204284990Y-117388686D01*
X204322312Y-117385010D01*
X204322323Y-117385010D01*
X204433976Y-117374013D01*
X204577237Y-117330556D01*
X204709266Y-117259984D01*
X204824991Y-117165011D01*
X204848794Y-117136007D01*
X206086114Y-115898688D01*
X206268665Y-115935000D01*
X206551335Y-115935000D01*
X206828574Y-115879853D01*
X207089727Y-115771680D01*
X207324759Y-115614637D01*
X207524637Y-115414759D01*
X207681680Y-115179727D01*
X207789853Y-114918574D01*
X207830000Y-114716744D01*
X207870147Y-114918574D01*
X207978320Y-115179727D01*
X208135363Y-115414759D01*
X208335241Y-115614637D01*
X208570273Y-115771680D01*
X208831426Y-115879853D01*
X209108665Y-115935000D01*
X209391335Y-115935000D01*
X209668574Y-115879853D01*
X209929727Y-115771680D01*
X210164759Y-115614637D01*
X210364637Y-115414759D01*
X210521680Y-115179727D01*
X210629853Y-114918574D01*
X210685000Y-114641335D01*
X210685000Y-114358665D01*
X210640509Y-114134999D01*
X217970198Y-114134999D01*
X218011312Y-114176113D01*
X217975000Y-114358665D01*
X217975000Y-114641335D01*
X218030147Y-114918574D01*
X218138320Y-115179727D01*
X218295363Y-115414759D01*
X218495241Y-115614637D01*
X218730273Y-115771680D01*
X218991426Y-115879853D01*
X219268665Y-115935000D01*
X219551335Y-115935000D01*
X219828574Y-115879853D01*
X220089727Y-115771680D01*
X220324759Y-115614637D01*
X220524637Y-115414759D01*
X220628043Y-115260000D01*
X221031957Y-115260000D01*
X221135363Y-115414759D01*
X221335241Y-115614637D01*
X221570273Y-115771680D01*
X221831426Y-115879853D01*
X222108665Y-115935000D01*
X222391335Y-115935000D01*
X222668574Y-115879853D01*
X222929727Y-115771680D01*
X223164759Y-115614637D01*
X223364637Y-115414759D01*
X223521680Y-115179727D01*
X223629853Y-114918574D01*
X223685000Y-114641335D01*
X223685000Y-114358665D01*
X230975000Y-114358665D01*
X230975000Y-114641335D01*
X231030147Y-114918574D01*
X231138320Y-115179727D01*
X231295363Y-115414759D01*
X231495241Y-115614637D01*
X231730273Y-115771680D01*
X231991426Y-115879853D01*
X232268665Y-115935000D01*
X232551335Y-115935000D01*
X232733886Y-115898688D01*
X233615000Y-116779802D01*
X233614999Y-143537677D01*
X233611323Y-143574999D01*
X233614999Y-143612321D01*
X233614999Y-143612331D01*
X233625996Y-143723984D01*
X233669453Y-143867245D01*
X233740025Y-143999275D01*
X233779870Y-144047825D01*
X233811928Y-144086889D01*
X233811928Y-145450000D01*
X233824188Y-145574482D01*
X233860498Y-145694180D01*
X233919463Y-145804494D01*
X233998815Y-145901185D01*
X234095506Y-145980537D01*
X234205820Y-146039502D01*
X234216735Y-146042813D01*
X234169970Y-146089578D01*
X234285918Y-146205526D01*
X234031739Y-146289208D01*
X233900842Y-146561775D01*
X233825635Y-146854642D01*
X233809009Y-147156553D01*
X233851603Y-147455907D01*
X233951778Y-147741199D01*
X234031739Y-147890792D01*
X234285920Y-147974475D01*
X235170395Y-147090000D01*
X235156253Y-147075858D01*
X235335858Y-146896253D01*
X235350000Y-146910395D01*
X235364143Y-146896253D01*
X235543748Y-147075858D01*
X235529605Y-147090000D01*
X236414080Y-147974475D01*
X236668261Y-147890792D01*
X236799158Y-147618225D01*
X236874365Y-147325358D01*
X236890991Y-147023447D01*
X236848397Y-146724093D01*
X236748222Y-146438801D01*
X236668261Y-146289208D01*
X236414082Y-146205526D01*
X236530030Y-146089578D01*
X236483265Y-146042813D01*
X236494180Y-146039502D01*
X236604494Y-145980537D01*
X236701185Y-145901185D01*
X236780537Y-145804494D01*
X236839502Y-145694180D01*
X236875812Y-145574482D01*
X236888072Y-145450000D01*
X236888072Y-143650000D01*
X236875812Y-143525518D01*
X236839502Y-143405820D01*
X236780537Y-143295506D01*
X236701185Y-143198815D01*
X236604494Y-143119463D01*
X236494180Y-143060498D01*
X236374482Y-143024188D01*
X236250000Y-143011928D01*
X235134999Y-143011928D01*
X235134999Y-140640509D01*
X235358665Y-140685000D01*
X235641335Y-140685000D01*
X235918574Y-140629853D01*
X236179727Y-140521680D01*
X236414759Y-140364637D01*
X236614637Y-140164759D01*
X236771680Y-139929727D01*
X236879853Y-139668574D01*
X236935000Y-139391335D01*
X236935000Y-139108665D01*
X236879853Y-138831426D01*
X236771680Y-138570273D01*
X236614637Y-138335241D01*
X236414759Y-138135363D01*
X236179727Y-137978320D01*
X235918574Y-137870147D01*
X235641335Y-137815000D01*
X235358665Y-137815000D01*
X235134999Y-137859491D01*
X235134999Y-135640509D01*
X235358665Y-135685000D01*
X235641335Y-135685000D01*
X235918574Y-135629853D01*
X236179727Y-135521680D01*
X236414759Y-135364637D01*
X236614637Y-135164759D01*
X236771680Y-134929727D01*
X236879853Y-134668574D01*
X236935000Y-134391335D01*
X236935000Y-134108665D01*
X236879853Y-133831426D01*
X236771680Y-133570273D01*
X236614637Y-133335241D01*
X236414759Y-133135363D01*
X236179727Y-132978320D01*
X235918574Y-132870147D01*
X235641335Y-132815000D01*
X235358665Y-132815000D01*
X235134999Y-132859491D01*
X235134999Y-132390509D01*
X235358665Y-132435000D01*
X235641335Y-132435000D01*
X235918574Y-132379853D01*
X236179727Y-132271680D01*
X236414759Y-132114637D01*
X236614637Y-131914759D01*
X236771680Y-131679727D01*
X236879853Y-131418574D01*
X236935000Y-131141335D01*
X236935000Y-130858665D01*
X236879853Y-130581426D01*
X236771680Y-130320273D01*
X236614637Y-130085241D01*
X236414759Y-129885363D01*
X236179727Y-129728320D01*
X235918574Y-129620147D01*
X235641335Y-129565000D01*
X235358665Y-129565000D01*
X235134999Y-129609491D01*
X235134999Y-122230509D01*
X235358665Y-122275000D01*
X235641335Y-122275000D01*
X235918574Y-122219853D01*
X236179727Y-122111680D01*
X236414759Y-121954637D01*
X236614637Y-121754759D01*
X236771680Y-121519727D01*
X236879853Y-121258574D01*
X236935000Y-120981335D01*
X236935000Y-120698665D01*
X236879853Y-120421426D01*
X236771680Y-120160273D01*
X236614637Y-119925241D01*
X236414759Y-119725363D01*
X236179727Y-119568320D01*
X235918574Y-119460147D01*
X235641335Y-119405000D01*
X235358665Y-119405000D01*
X235134999Y-119449491D01*
X235134999Y-116502321D01*
X235138675Y-116464998D01*
X235134999Y-116427675D01*
X235134999Y-116427666D01*
X235124002Y-116316013D01*
X235080545Y-116172752D01*
X235009973Y-116040723D01*
X234915000Y-115924998D01*
X234886002Y-115901200D01*
X233808688Y-114823886D01*
X233845000Y-114641335D01*
X233845000Y-114358665D01*
X233789853Y-114081426D01*
X233681680Y-113820273D01*
X233524637Y-113585241D01*
X233324759Y-113385363D01*
X233089727Y-113228320D01*
X232828574Y-113120147D01*
X232551335Y-113065000D01*
X232268665Y-113065000D01*
X231991426Y-113120147D01*
X231730273Y-113228320D01*
X231495241Y-113385363D01*
X231295363Y-113585241D01*
X231138320Y-113820273D01*
X231030147Y-114081426D01*
X230975000Y-114358665D01*
X223685000Y-114358665D01*
X223629853Y-114081426D01*
X223521680Y-113820273D01*
X223364637Y-113585241D01*
X223164759Y-113385363D01*
X222929727Y-113228320D01*
X222668574Y-113120147D01*
X222391335Y-113065000D01*
X222108665Y-113065000D01*
X221831426Y-113120147D01*
X221570273Y-113228320D01*
X221335241Y-113385363D01*
X221135363Y-113585241D01*
X221031957Y-113740000D01*
X220628043Y-113740000D01*
X220524637Y-113585241D01*
X220324759Y-113385363D01*
X220089727Y-113228320D01*
X219828574Y-113120147D01*
X219551335Y-113065000D01*
X219268665Y-113065000D01*
X219086113Y-113101312D01*
X218848803Y-112864001D01*
X218825000Y-112834998D01*
X218709275Y-112740025D01*
X218577246Y-112669453D01*
X218433985Y-112625996D01*
X218322332Y-112614999D01*
X218322321Y-112614999D01*
X218284999Y-112611323D01*
X218247677Y-112614999D01*
X177449208Y-112614999D01*
X177440528Y-112526868D01*
X177388569Y-112355582D01*
X177304192Y-112197724D01*
X177190639Y-112059361D01*
X177052276Y-111945808D01*
X176894418Y-111861431D01*
X176723132Y-111809472D01*
X176545000Y-111791928D01*
X175995000Y-111791928D01*
X175816868Y-111809472D01*
X175645582Y-111861431D01*
X175535222Y-111920420D01*
X174758784Y-111143982D01*
X174734981Y-111114979D01*
X174619256Y-111020006D01*
X174487227Y-110949434D01*
X174343966Y-110905977D01*
X174232313Y-110894980D01*
X174232302Y-110894980D01*
X174194980Y-110891304D01*
X174157658Y-110894980D01*
X149233809Y-110894980D01*
X149196476Y-110891303D01*
X149159143Y-110894980D01*
X149047490Y-110905977D01*
X148904229Y-110949434D01*
X148772200Y-111020006D01*
X148656475Y-111114979D01*
X148632677Y-111143977D01*
X147489003Y-112287652D01*
X147459999Y-112311455D01*
X147419728Y-112360526D01*
X147365026Y-112427180D01*
X147311741Y-112526868D01*
X147294454Y-112559210D01*
X147250997Y-112702471D01*
X147240000Y-112814124D01*
X147240000Y-112814134D01*
X147236324Y-112851456D01*
X147240000Y-112888779D01*
X147240000Y-113900129D01*
X147205820Y-113910498D01*
X147095506Y-113969463D01*
X146998815Y-114048815D01*
X146919463Y-114145506D01*
X146860498Y-114255820D01*
X146824188Y-114375518D01*
X146811928Y-114500000D01*
X146811928Y-116300000D01*
X146824188Y-116424482D01*
X146860498Y-116544180D01*
X146919463Y-116654494D01*
X146998815Y-116751185D01*
X147095506Y-116830537D01*
X147205820Y-116889502D01*
X147325518Y-116925812D01*
X147450000Y-116938072D01*
X148550000Y-116938072D01*
X148674482Y-116925812D01*
X148794180Y-116889502D01*
X148904494Y-116830537D01*
X149001185Y-116751185D01*
X149080537Y-116654494D01*
X149139502Y-116544180D01*
X149175812Y-116424482D01*
X149188072Y-116300000D01*
X149188072Y-114868072D01*
X149351928Y-114868072D01*
X149351928Y-116025000D01*
X149369472Y-116203132D01*
X149421431Y-116374418D01*
X149505808Y-116532276D01*
X149619361Y-116670639D01*
X149757724Y-116784192D01*
X149915582Y-116868569D01*
X150086868Y-116920528D01*
X150265000Y-116938072D01*
X150815000Y-116938072D01*
X150993132Y-116920528D01*
X151164418Y-116868569D01*
X151322276Y-116784192D01*
X151460639Y-116670639D01*
X151574192Y-116532276D01*
X151658569Y-116374418D01*
X151710528Y-116203132D01*
X151728072Y-116025000D01*
X151728072Y-114775000D01*
X151710528Y-114596868D01*
X151681144Y-114500000D01*
X155311928Y-114500000D01*
X155315000Y-115114250D01*
X155473750Y-115273000D01*
X156373000Y-115273000D01*
X156373000Y-114023750D01*
X156214250Y-113865000D01*
X155950000Y-113861928D01*
X155825518Y-113874188D01*
X155705820Y-113910498D01*
X155595506Y-113969463D01*
X155498815Y-114048815D01*
X155419463Y-114145506D01*
X155360498Y-114255820D01*
X155324188Y-114375518D01*
X155311928Y-114500000D01*
X151681144Y-114500000D01*
X151658569Y-114425582D01*
X151574192Y-114267724D01*
X151460639Y-114129361D01*
X151322276Y-114015808D01*
X151164418Y-113931431D01*
X150993132Y-113879472D01*
X150815000Y-113861928D01*
X150458072Y-113861928D01*
X150458072Y-113616729D01*
X151209812Y-112864990D01*
X156581928Y-112864990D01*
X156581928Y-113955000D01*
X156599472Y-114133132D01*
X156627000Y-114223880D01*
X156627000Y-115273000D01*
X156647000Y-115273000D01*
X156647000Y-115527000D01*
X156627000Y-115527000D01*
X156627000Y-115547000D01*
X156373000Y-115547000D01*
X156373000Y-115527000D01*
X155473750Y-115527000D01*
X155315000Y-115685750D01*
X155311928Y-116300000D01*
X155324188Y-116424482D01*
X155360498Y-116544180D01*
X155419463Y-116654494D01*
X155498815Y-116751185D01*
X155595506Y-116830537D01*
X155705820Y-116889502D01*
X155825518Y-116925812D01*
X155950000Y-116938072D01*
X155987563Y-116937635D01*
X155185199Y-117740000D01*
X150037322Y-117740000D01*
X149999999Y-117736324D01*
X149962676Y-117740000D01*
X149962667Y-117740000D01*
X149851014Y-117750997D01*
X149707753Y-117794454D01*
X149575723Y-117865026D01*
X149492083Y-117933668D01*
X149459999Y-117959999D01*
X149436201Y-117988997D01*
X143063271Y-124361928D01*
X143000000Y-124361928D01*
X142777973Y-124383796D01*
X142564479Y-124448559D01*
X142367721Y-124553728D01*
X142195262Y-124695262D01*
X142053728Y-124867721D01*
X141948559Y-125064479D01*
X141883796Y-125277973D01*
X141861928Y-125500000D01*
X140042150Y-125500000D01*
X140042150Y-110423450D01*
X140049664Y-110273738D01*
X140067443Y-110156657D01*
X140120669Y-109968263D01*
X140195976Y-109801144D01*
X140294039Y-109647914D01*
X140412825Y-109510737D01*
X140550058Y-109391986D01*
X140703369Y-109293940D01*
X140870584Y-109218642D01*
X141059065Y-109165426D01*
X141176223Y-109147647D01*
X141325966Y-109140136D01*
X141339047Y-109140136D01*
X141075649Y-109249239D01*
X140770556Y-109453096D01*
X140511095Y-109712557D01*
X140307238Y-110017650D01*
X140166819Y-110356652D01*
X140095234Y-110716534D01*
X140095234Y-111083466D01*
X140166819Y-111443348D01*
X140307238Y-111782350D01*
X140511095Y-112087443D01*
X140770556Y-112346904D01*
X141075649Y-112550761D01*
X141414651Y-112691180D01*
X141774533Y-112762765D01*
X142141465Y-112762765D01*
X142501347Y-112691180D01*
X142840349Y-112550761D01*
X143145442Y-112346904D01*
X143404903Y-112087443D01*
X143608760Y-111782350D01*
X143749179Y-111443348D01*
X143820764Y-111083466D01*
X143820764Y-110716534D01*
X143749179Y-110356652D01*
X143608760Y-110017650D01*
X143404903Y-109712557D01*
X143145442Y-109453096D01*
X142840349Y-109249239D01*
X142576951Y-109140136D01*
X162039684Y-109140136D01*
X162075789Y-109143692D01*
X162111894Y-109140136D01*
X162219874Y-109129501D01*
X162358422Y-109087473D01*
X162486109Y-109019223D01*
X162598027Y-108927374D01*
X162683409Y-108823336D01*
X162807386Y-108798675D01*
X162968002Y-108732146D01*
X163049952Y-108677389D01*
X163131902Y-108732146D01*
X163292518Y-108798675D01*
X163463027Y-108832592D01*
X163636877Y-108832592D01*
X163807386Y-108798675D01*
X163968002Y-108732146D01*
X164074952Y-108660684D01*
X164181902Y-108732146D01*
G37*
%TD.AperFunction*%
D21*
X165081928Y-113955000D02*
X165099472Y-114133132D01*
X165127000Y-114223880D01*
X165127000Y-115273000D01*
X165147000Y-115273000D01*
X165147000Y-115527000D01*
X165127000Y-115527000D01*
X165127000Y-115547000D01*
X164873000Y-115547000D01*
X164873000Y-115527000D01*
X163973750Y-115527000D01*
X163815000Y-115685750D01*
X163814104Y-115865001D01*
X162328347Y-115865001D01*
X160963346Y-114500000D01*
X163811928Y-114500000D01*
X163815000Y-115114250D01*
X163973750Y-115273000D01*
X164873000Y-115273000D01*
X164873000Y-114023750D01*
X164714250Y-113865000D01*
X164450000Y-113861928D01*
X164325518Y-113874188D01*
X164205820Y-113910498D01*
X164095506Y-113969463D01*
X163998815Y-114048815D01*
X163919463Y-114145506D01*
X163860498Y-114255820D01*
X163824188Y-114375518D01*
X163811928Y-114500000D01*
X160963346Y-114500000D01*
X159682348Y-113219003D01*
X159658545Y-113189999D01*
X159542820Y-113095026D01*
X159410791Y-113024454D01*
X159267530Y-112980997D01*
X159155877Y-112970000D01*
X159155866Y-112970000D01*
X159118544Y-112966324D01*
X159081222Y-112970000D01*
X158958072Y-112970000D01*
X158958072Y-112864990D01*
X165081928Y-112864990D01*
X165081928Y-113955000D01*
%TA.AperFunction,Conductor*%
D22*
G36*
X165081928Y-113955000D02*
G01*
X165099472Y-114133132D01*
X165127000Y-114223880D01*
X165127000Y-115273000D01*
X165147000Y-115273000D01*
X165147000Y-115527000D01*
X165127000Y-115527000D01*
X165127000Y-115547000D01*
X164873000Y-115547000D01*
X164873000Y-115527000D01*
X163973750Y-115527000D01*
X163815000Y-115685750D01*
X163814104Y-115865001D01*
X162328347Y-115865001D01*
X160963346Y-114500000D01*
X163811928Y-114500000D01*
X163815000Y-115114250D01*
X163973750Y-115273000D01*
X164873000Y-115273000D01*
X164873000Y-114023750D01*
X164714250Y-113865000D01*
X164450000Y-113861928D01*
X164325518Y-113874188D01*
X164205820Y-113910498D01*
X164095506Y-113969463D01*
X163998815Y-114048815D01*
X163919463Y-114145506D01*
X163860498Y-114255820D01*
X163824188Y-114375518D01*
X163811928Y-114500000D01*
X160963346Y-114500000D01*
X159682348Y-113219003D01*
X159658545Y-113189999D01*
X159542820Y-113095026D01*
X159410791Y-113024454D01*
X159267530Y-112980997D01*
X159155877Y-112970000D01*
X159155866Y-112970000D01*
X159118544Y-112966324D01*
X159081222Y-112970000D01*
X158958072Y-112970000D01*
X158958072Y-112864990D01*
X165081928Y-112864990D01*
X165081928Y-113955000D01*
G37*
%TD.AperFunction*%
%TD*%
D21*
%TO.N,Net-(J2-Pad1)*%
X163823000Y-103183253D02*
X162572663Y-103288618D01*
X162506542Y-103275466D01*
X162393362Y-103275466D01*
X162328189Y-103288430D01*
X162328189Y-103191505D01*
X162324537Y-103154424D01*
X162310104Y-103106846D01*
X162286667Y-103062999D01*
X162255126Y-103024566D01*
X162216693Y-102993025D01*
X162172845Y-102969588D01*
X162125267Y-102955155D01*
X162075789Y-102950282D01*
X162067300Y-102951118D01*
X161833937Y-102943881D01*
X161833928Y-102943881D01*
X161583129Y-102936112D01*
X161583122Y-102936112D01*
X161331625Y-102928328D01*
X161331618Y-102928328D01*
X161079964Y-102920546D01*
X161079845Y-102920541D01*
X160828227Y-102912764D01*
X160828224Y-102912764D01*
X160577183Y-102905009D01*
X160577181Y-102905009D01*
X160327144Y-102897287D01*
X160327142Y-102897287D01*
X160084481Y-102889795D01*
X159947528Y-102879086D01*
X159752189Y-102840256D01*
X159571570Y-102776801D01*
X159404659Y-102690125D01*
X159253513Y-102582220D01*
X159120234Y-102455107D01*
X159006879Y-102310787D01*
X158915435Y-102151173D01*
X158847825Y-101977965D01*
X158806010Y-101792541D01*
X158791495Y-101586424D01*
X158798388Y-100150000D01*
X158861928Y-100150000D01*
X158874188Y-100274482D01*
X158910498Y-100394180D01*
X158969463Y-100504494D01*
X159048815Y-100601185D01*
X159145506Y-100680537D01*
X159255820Y-100739502D01*
X159375518Y-100775812D01*
X159500000Y-100788072D01*
X160064250Y-100785000D01*
X160223000Y-100626250D01*
X160223000Y-99427000D01*
X160477000Y-99427000D01*
X160477000Y-100626250D01*
X160635750Y-100785000D01*
X161200000Y-100788072D01*
X161324482Y-100775812D01*
X161444180Y-100739502D01*
X161554494Y-100680537D01*
X161651185Y-100601185D01*
X161730537Y-100504494D01*
X161789502Y-100394180D01*
X161825812Y-100274482D01*
X161838072Y-100150000D01*
X161835000Y-99585750D01*
X161676250Y-99427000D01*
X160477000Y-99427000D01*
X160223000Y-99427000D01*
X159023750Y-99427000D01*
X158865000Y-99585750D01*
X158861928Y-100150000D01*
X158798388Y-100150000D01*
X158799261Y-99968106D01*
X158795787Y-99931008D01*
X158781583Y-99883362D01*
X158758356Y-99839403D01*
X158727000Y-99800819D01*
X158688719Y-99769094D01*
X158644985Y-99745447D01*
X158597477Y-99730785D01*
X158548022Y-99725675D01*
X158539569Y-99726467D01*
X158374069Y-99720483D01*
X158373975Y-99720479D01*
X158101126Y-99710594D01*
X158101115Y-99710595D01*
X158101075Y-99710593D01*
X157828378Y-99700769D01*
X157828369Y-99700770D01*
X157828239Y-99700764D01*
X157555728Y-99691096D01*
X157555716Y-99691097D01*
X157555506Y-99691088D01*
X157283215Y-99681668D01*
X157283200Y-99681669D01*
X157282906Y-99681657D01*
X157010868Y-99672578D01*
X157010835Y-99672580D01*
X157010473Y-99672566D01*
X156738722Y-99663922D01*
X156738695Y-99663924D01*
X156738241Y-99663907D01*
X156466812Y-99655791D01*
X156466785Y-99655793D01*
X156466245Y-99655774D01*
X156195169Y-99648278D01*
X156195130Y-99648281D01*
X156194514Y-99648261D01*
X155923826Y-99641479D01*
X155923780Y-99641482D01*
X155923083Y-99641462D01*
X155652818Y-99635487D01*
X155632658Y-99637015D01*
X155612429Y-99637837D01*
X155608118Y-99638874D01*
X155603698Y-99639209D01*
X155584211Y-99644626D01*
X155564536Y-99649359D01*
X155560508Y-99651214D01*
X155556238Y-99652401D01*
X155538168Y-99661503D01*
X155519793Y-99669965D01*
X155516205Y-99672565D01*
X155512244Y-99674560D01*
X155496283Y-99687000D01*
X155479904Y-99698868D01*
X155476889Y-99702116D01*
X155473391Y-99704842D01*
X155460155Y-99720141D01*
X155446389Y-99734969D01*
X155444059Y-99738745D01*
X155441161Y-99742095D01*
X155431156Y-99759659D01*
X155420524Y-99776892D01*
X155418972Y-99781048D01*
X155416780Y-99784897D01*
X155410378Y-99804068D01*
X155403295Y-99823040D01*
X155402581Y-99827414D01*
X155401176Y-99831621D01*
X155398616Y-99851700D01*
X155395358Y-99871656D01*
X155395507Y-99876085D01*
X155394946Y-99880485D01*
X155396334Y-99900672D01*
X155397014Y-99920888D01*
X155397500Y-99924379D01*
X155430162Y-100147526D01*
X155449749Y-100363123D01*
X155457522Y-100577579D01*
X155453735Y-100790536D01*
X155438644Y-101001551D01*
X155412496Y-101210195D01*
X155375546Y-101416033D01*
X155328043Y-101618646D01*
X155270244Y-101817588D01*
X155202415Y-102012384D01*
X155124808Y-102202626D01*
X155037686Y-102387861D01*
X154941323Y-102567636D01*
X154835981Y-102741521D01*
X154721946Y-102909055D01*
X154599522Y-103069764D01*
X154442136Y-103254543D01*
X154276081Y-103428882D01*
X154101387Y-103592981D01*
X153918150Y-103746941D01*
X153726405Y-103890895D01*
X153526253Y-104024893D01*
X153317754Y-104149008D01*
X153100975Y-104263291D01*
X152876018Y-104367760D01*
X152642928Y-104462457D01*
X152401852Y-104547369D01*
X152152904Y-104622501D01*
X151896156Y-104687865D01*
X151631836Y-104743434D01*
X151360005Y-104789221D01*
X151079669Y-104825367D01*
X150937972Y-104839650D01*
X150717245Y-104856596D01*
X150492110Y-104867091D01*
X150262538Y-104870462D01*
X150069556Y-104867311D01*
X149873393Y-104858243D01*
X149797723Y-104853065D01*
X149600807Y-104834881D01*
X149405103Y-104809847D01*
X149209742Y-104777529D01*
X149015311Y-104737641D01*
X148822152Y-104689859D01*
X148630835Y-104633910D01*
X148482496Y-104583320D01*
X148258894Y-104492415D01*
X148041785Y-104385392D01*
X147832628Y-104261669D01*
X147634093Y-104121241D01*
X147448691Y-103964083D01*
X147278777Y-103790122D01*
X147126550Y-103599159D01*
X146994081Y-103390780D01*
X146883390Y-103164271D01*
X146794968Y-102914036D01*
X146755460Y-102766923D01*
X146705187Y-102533086D01*
X146670040Y-102297923D01*
X146650763Y-102061537D01*
X146649652Y-101954119D01*
X147576114Y-101954119D01*
X147576949Y-101966048D01*
X147576580Y-101977997D01*
X147576839Y-101981512D01*
X147593171Y-102183211D01*
X147594806Y-102192272D01*
X147595319Y-102201449D01*
X147595882Y-102204928D01*
X147631308Y-102414402D01*
X147633441Y-102422254D01*
X147634529Y-102430317D01*
X147635363Y-102433741D01*
X147689720Y-102650379D01*
X147693475Y-102660876D01*
X147696086Y-102671716D01*
X147697265Y-102675037D01*
X147758043Y-102842555D01*
X147766089Y-102859392D01*
X147773318Y-102876577D01*
X147775016Y-102879665D01*
X147878113Y-103064021D01*
X147890781Y-103082237D01*
X147903082Y-103100684D01*
X147905333Y-103103395D01*
X148039341Y-103262550D01*
X148054438Y-103277284D01*
X148069070Y-103292398D01*
X148071772Y-103294660D01*
X148237518Y-103431429D01*
X148252408Y-103441445D01*
X148266729Y-103452230D01*
X148269750Y-103454044D01*
X148468060Y-103571237D01*
X148479488Y-103576562D01*
X148490359Y-103582955D01*
X148493567Y-103584414D01*
X148676216Y-103665966D01*
X148684162Y-103668619D01*
X148691691Y-103672269D01*
X148695005Y-103673467D01*
X148899448Y-103745732D01*
X148904674Y-103747022D01*
X148909629Y-103749088D01*
X148913005Y-103750097D01*
X149023037Y-103782133D01*
X149028246Y-103783111D01*
X149033246Y-103784875D01*
X149036674Y-103785694D01*
X149239008Y-103832530D01*
X149244682Y-103833270D01*
X149250179Y-103834851D01*
X149253649Y-103835466D01*
X149465832Y-103871518D01*
X149470182Y-103871825D01*
X149474420Y-103872825D01*
X149477915Y-103873271D01*
X149696919Y-103899661D01*
X149700212Y-103899734D01*
X149703448Y-103900362D01*
X149706959Y-103900668D01*
X149929756Y-103918517D01*
X149931601Y-103918484D01*
X149933417Y-103918783D01*
X149936935Y-103918989D01*
X150032870Y-103923928D01*
X150034773Y-103923840D01*
X150036664Y-103924095D01*
X150040187Y-103924199D01*
X150248070Y-103928862D01*
X150249961Y-103928719D01*
X150251833Y-103928917D01*
X150255357Y-103928920D01*
X150448893Y-103927672D01*
X150460476Y-103928813D01*
X150489090Y-103925995D01*
X150545162Y-103924775D01*
X150545746Y-103924705D01*
X150546334Y-103924747D01*
X150549856Y-103924629D01*
X150754628Y-103916360D01*
X150758030Y-103915887D01*
X150761460Y-103915991D01*
X150764974Y-103915730D01*
X150978134Y-103898334D01*
X150980856Y-103897841D01*
X150983607Y-103897826D01*
X150987110Y-103897439D01*
X151102501Y-103883856D01*
X151103756Y-103883582D01*
X151105042Y-103883544D01*
X151108535Y-103883072D01*
X151332835Y-103851169D01*
X151335396Y-103850545D01*
X151338020Y-103850376D01*
X151341494Y-103849784D01*
X151557311Y-103811397D01*
X151560224Y-103810579D01*
X151563229Y-103810271D01*
X151566678Y-103809547D01*
X151774203Y-103764477D01*
X151777465Y-103763426D01*
X151780847Y-103762939D01*
X151784264Y-103762075D01*
X151983685Y-103710124D01*
X151987274Y-103708804D01*
X151991033Y-103708091D01*
X151994408Y-103707076D01*
X152185913Y-103648043D01*
X152191237Y-103645812D01*
X152196837Y-103644401D01*
X152200145Y-103643188D01*
X152472982Y-103540927D01*
X152480186Y-103537391D01*
X152487785Y-103534836D01*
X152490990Y-103533370D01*
X152747087Y-103414056D01*
X152754582Y-103409627D01*
X152762578Y-103406179D01*
X152765650Y-103404453D01*
X153005649Y-103267414D01*
X153013151Y-103262097D01*
X153021242Y-103257742D01*
X153024154Y-103255757D01*
X153248695Y-103100322D01*
X153255887Y-103094224D01*
X153263750Y-103089047D01*
X153266475Y-103086813D01*
X153476199Y-102912307D01*
X153482783Y-102905639D01*
X153490120Y-102899822D01*
X153492638Y-102897356D01*
X153688185Y-102703110D01*
X153693944Y-102696147D01*
X153700522Y-102689947D01*
X153702820Y-102687275D01*
X153884832Y-102472616D01*
X153888522Y-102467286D01*
X153892937Y-102462545D01*
X153895056Y-102459729D01*
X153987181Y-102335502D01*
X153990291Y-102330317D01*
X153994125Y-102325654D01*
X153996067Y-102322713D01*
X154122329Y-102128468D01*
X154126019Y-102121356D01*
X154130610Y-102114799D01*
X154132318Y-102111717D01*
X154243164Y-101908377D01*
X154246477Y-101900572D01*
X154250757Y-101893263D01*
X154252211Y-101890053D01*
X154346401Y-101678058D01*
X154349213Y-101669583D01*
X154353058Y-101661525D01*
X154354235Y-101658204D01*
X154430528Y-101437995D01*
X154432711Y-101428910D01*
X154435979Y-101420156D01*
X154436860Y-101416744D01*
X154494014Y-101188761D01*
X154495442Y-101179176D01*
X154497995Y-101169833D01*
X154498563Y-101166355D01*
X154535336Y-100931039D01*
X154535904Y-100921128D01*
X154537626Y-100911344D01*
X154537871Y-100907829D01*
X154553024Y-100665619D01*
X154552669Y-100655570D01*
X154553479Y-100645560D01*
X154553395Y-100642037D01*
X154545685Y-100393375D01*
X154544397Y-100383426D01*
X154544271Y-100373410D01*
X154543859Y-100369910D01*
X154512045Y-100115235D01*
X154509876Y-100105624D01*
X154508848Y-100095825D01*
X154508116Y-100092378D01*
X154454157Y-99846697D01*
X154453182Y-99836796D01*
X154438749Y-99789218D01*
X154415312Y-99745371D01*
X154383771Y-99706938D01*
X154345338Y-99675397D01*
X154301491Y-99651960D01*
X154253913Y-99637527D01*
X154216832Y-99633875D01*
X154192036Y-99633875D01*
X154191103Y-99633967D01*
X153928765Y-99635909D01*
X153928715Y-99635914D01*
X153927678Y-99635919D01*
X153654179Y-99639123D01*
X153654120Y-99639129D01*
X153652926Y-99639141D01*
X153379745Y-99643698D01*
X153379683Y-99643705D01*
X153378321Y-99643726D01*
X153105475Y-99649818D01*
X153105414Y-99649825D01*
X153103883Y-99649858D01*
X152831389Y-99657663D01*
X152831318Y-99657672D01*
X152829627Y-99657720D01*
X152557502Y-99667417D01*
X152557438Y-99667426D01*
X152555569Y-99667493D01*
X152283830Y-99679262D01*
X152283766Y-99679271D01*
X152281727Y-99679362D01*
X152010391Y-99693382D01*
X152010330Y-99693391D01*
X152008118Y-99693510D01*
X151737201Y-99709960D01*
X151737142Y-99709969D01*
X151734757Y-99710120D01*
X151464279Y-99729180D01*
X151464223Y-99729190D01*
X151461665Y-99729378D01*
X151191642Y-99751227D01*
X151191593Y-99751236D01*
X151188858Y-99751468D01*
X150919306Y-99776285D01*
X150919268Y-99776292D01*
X150916353Y-99776574D01*
X150647290Y-99804539D01*
X150647257Y-99804546D01*
X150644171Y-99804883D01*
X150375614Y-99836175D01*
X150375590Y-99836180D01*
X150372331Y-99836579D01*
X150104296Y-99871376D01*
X150104285Y-99871378D01*
X150100848Y-99871848D01*
X149833355Y-99910332D01*
X149832123Y-99910634D01*
X149830860Y-99910704D01*
X149827381Y-99911265D01*
X149630967Y-99944343D01*
X149627129Y-99945383D01*
X149623172Y-99945782D01*
X149619721Y-99946500D01*
X149349590Y-100004702D01*
X149344000Y-100006492D01*
X149338214Y-100007431D01*
X149334813Y-100008356D01*
X149092651Y-100076036D01*
X149086382Y-100078469D01*
X149079843Y-100079986D01*
X149076511Y-100081137D01*
X148860725Y-100157373D01*
X148853830Y-100160597D01*
X148846569Y-100162859D01*
X148843333Y-100164252D01*
X148652327Y-100248117D01*
X148643383Y-100253137D01*
X148633934Y-100257100D01*
X148630844Y-100258795D01*
X148411965Y-100380886D01*
X148401012Y-100388485D01*
X148389429Y-100395065D01*
X148386563Y-100397116D01*
X148205127Y-100528935D01*
X148192882Y-100539806D01*
X148179972Y-100549831D01*
X148177429Y-100552271D01*
X147997534Y-100727384D01*
X147985371Y-100741791D01*
X147972566Y-100755616D01*
X147970454Y-100758437D01*
X147835784Y-100941045D01*
X147826127Y-100957241D01*
X147815743Y-100972961D01*
X147814118Y-100976088D01*
X147715235Y-101169780D01*
X147708494Y-101186943D01*
X147700913Y-101203757D01*
X147699808Y-101207103D01*
X147631976Y-101417516D01*
X147628351Y-101434189D01*
X147623733Y-101450588D01*
X147623137Y-101454061D01*
X147586038Y-101679995D01*
X147585045Y-101695243D01*
X147582924Y-101710348D01*
X147582801Y-101713870D01*
X147576114Y-101954119D01*
X146649652Y-101954119D01*
X146648319Y-101825266D01*
X146663628Y-101590283D01*
X146697599Y-101357751D01*
X146751144Y-101128697D01*
X146825222Y-100904032D01*
X146920884Y-100684572D01*
X147040251Y-100469351D01*
X147129473Y-100335489D01*
X147286241Y-100137936D01*
X147463882Y-99954034D01*
X147663879Y-99782562D01*
X147887834Y-99623056D01*
X148047161Y-99525915D01*
X148218136Y-99434101D01*
X148399124Y-99348829D01*
X148590146Y-99270316D01*
X148791142Y-99198811D01*
X149002052Y-99134555D01*
X149222826Y-99077782D01*
X149453388Y-99028728D01*
X149695433Y-98987324D01*
X149906786Y-98956370D01*
X150119866Y-98927020D01*
X150332969Y-98899480D01*
X150546203Y-98873702D01*
X150759309Y-98849675D01*
X150972250Y-98827360D01*
X151185165Y-98806703D01*
X151398169Y-98787651D01*
X151611309Y-98770163D01*
X151824271Y-98754223D01*
X152037227Y-98739776D01*
X152250184Y-98726781D01*
X152463250Y-98715193D01*
X152676056Y-98704987D01*
X152889135Y-98696098D01*
X153102903Y-98688474D01*
X153110889Y-98687402D01*
X153118952Y-98687389D01*
X153135258Y-98684132D01*
X153151725Y-98681922D01*
X153159353Y-98679319D01*
X153167258Y-98677740D01*
X153182615Y-98671381D01*
X153198345Y-98666013D01*
X153205320Y-98661979D01*
X153212770Y-98658894D01*
X153226608Y-98649667D01*
X153240987Y-98641351D01*
X153247044Y-98636041D01*
X153253755Y-98631566D01*
X153265536Y-98619828D01*
X153278027Y-98608877D01*
X153282937Y-98602491D01*
X153288651Y-98596798D01*
X153297929Y-98582993D01*
X153308053Y-98569826D01*
X153311630Y-98562606D01*
X153316128Y-98555914D01*
X153322546Y-98540576D01*
X153329923Y-98525688D01*
X153332029Y-98517914D01*
X153335143Y-98510472D01*
X153338462Y-98494166D01*
X153342803Y-98478141D01*
X153343359Y-98470108D01*
X153344968Y-98462202D01*
X153345056Y-98445571D01*
X153346203Y-98428999D01*
X153345187Y-98421006D01*
X153345230Y-98412943D01*
X153342086Y-98396609D01*
X153339992Y-98380132D01*
X153337445Y-98372494D01*
X153335920Y-98364571D01*
X153329663Y-98349157D01*
X153324409Y-98333402D01*
X153320426Y-98326403D01*
X153317392Y-98318929D01*
X153308260Y-98305025D01*
X153300045Y-98290589D01*
X153294776Y-98284493D01*
X153290350Y-98277755D01*
X153278702Y-98265899D01*
X153267831Y-98253324D01*
X153261475Y-98248366D01*
X153255827Y-98242617D01*
X153253108Y-98240375D01*
X153156185Y-98161593D01*
X153155408Y-98161079D01*
X153154743Y-98160430D01*
X153151977Y-98158247D01*
X152986901Y-98029807D01*
X152971059Y-98019798D01*
X152955712Y-98009062D01*
X152952629Y-98007355D01*
X152819387Y-97934787D01*
X152815669Y-97933211D01*
X152812257Y-97931050D01*
X152809099Y-97929486D01*
X152600897Y-97828178D01*
X152596444Y-97826526D01*
X152592311Y-97824198D01*
X152589077Y-97822798D01*
X152371910Y-97730623D01*
X152367782Y-97729329D01*
X152363918Y-97727391D01*
X152360620Y-97726148D01*
X152135661Y-97643194D01*
X152131806Y-97642187D01*
X152128179Y-97640569D01*
X152124828Y-97639477D01*
X151893251Y-97565832D01*
X151889625Y-97565058D01*
X151886185Y-97563699D01*
X151882791Y-97562752D01*
X151645767Y-97498506D01*
X151642319Y-97497925D01*
X151639026Y-97496779D01*
X151635595Y-97495975D01*
X151394301Y-97441216D01*
X151390988Y-97440798D01*
X151387789Y-97439828D01*
X151384328Y-97439163D01*
X151139936Y-97393980D01*
X151136695Y-97393704D01*
X151133557Y-97392886D01*
X151130073Y-97392358D01*
X150883757Y-97356840D01*
X150880547Y-97356694D01*
X150877415Y-97356008D01*
X150873912Y-97355617D01*
X150626844Y-97329853D01*
X150623615Y-97329833D01*
X150620440Y-97329268D01*
X150616925Y-97329016D01*
X150370282Y-97313094D01*
X150369537Y-97313119D01*
X150368809Y-97313004D01*
X150365289Y-97312822D01*
X150029723Y-97297827D01*
X150029637Y-97297823D01*
X149692854Y-97282755D01*
X149692850Y-97282755D01*
X149692826Y-97282754D01*
X149354985Y-97267677D01*
X149354977Y-97267677D01*
X149354911Y-97267674D01*
X149016076Y-97252652D01*
X149016067Y-97252652D01*
X149015960Y-97252647D01*
X148676190Y-97237741D01*
X148676180Y-97237742D01*
X148676030Y-97237734D01*
X148335389Y-97223007D01*
X148335379Y-97223008D01*
X148335186Y-97222998D01*
X147993734Y-97208511D01*
X147993716Y-97208512D01*
X147993488Y-97208501D01*
X147651288Y-97194317D01*
X147651272Y-97194318D01*
X147650999Y-97194305D01*
X147308112Y-97180485D01*
X147308090Y-97180486D01*
X147307780Y-97180472D01*
X146964267Y-97167079D01*
X146964251Y-97167080D01*
X146963894Y-97167064D01*
X146619816Y-97154159D01*
X146619788Y-97154161D01*
X146619398Y-97154144D01*
X146274820Y-97141791D01*
X146274792Y-97141793D01*
X146274361Y-97141775D01*
X145929339Y-97130035D01*
X145929313Y-97130037D01*
X145928837Y-97130018D01*
X145583438Y-97118953D01*
X145583398Y-97118956D01*
X145582893Y-97118937D01*
X145237175Y-97108608D01*
X145237141Y-97108610D01*
X145236585Y-97108591D01*
X144890611Y-97099063D01*
X144890580Y-97099065D01*
X144889982Y-97099046D01*
X144543812Y-97090378D01*
X144543774Y-97090381D01*
X144543137Y-97090362D01*
X144196835Y-97082618D01*
X144196794Y-97082621D01*
X144196116Y-97082603D01*
X143849743Y-97075844D01*
X143849704Y-97075847D01*
X143848980Y-97075830D01*
X143502597Y-97070119D01*
X143502553Y-97070123D01*
X143501789Y-97070107D01*
X143155457Y-97065506D01*
X143155413Y-97065510D01*
X143154604Y-97065496D01*
X142808385Y-97062066D01*
X142808336Y-97062070D01*
X142807487Y-97062059D01*
X142461444Y-97059863D01*
X142461393Y-97059868D01*
X142460498Y-97059859D01*
X142114691Y-97058960D01*
X142114643Y-97058965D01*
X142113700Y-97058959D01*
X141768190Y-97059417D01*
X141768133Y-97059423D01*
X141767152Y-97059421D01*
X141422003Y-97061299D01*
X141421951Y-97061304D01*
X141420916Y-97061307D01*
X141076187Y-97064667D01*
X141076131Y-97064673D01*
X141075051Y-97064681D01*
X140730805Y-97069586D01*
X140730753Y-97069592D01*
X140729621Y-97069605D01*
X140385919Y-97076116D01*
X140385856Y-97076123D01*
X140384684Y-97076143D01*
X140041588Y-97084323D01*
X140041529Y-97084330D01*
X140040302Y-97084357D01*
X139697875Y-97094267D01*
X139697820Y-97094274D01*
X139696536Y-97094309D01*
X139607378Y-97097363D01*
X139576538Y-96165792D01*
X139673356Y-96162473D01*
X140021877Y-96152362D01*
X140370951Y-96144006D01*
X140720123Y-96137347D01*
X141069707Y-96132318D01*
X141419682Y-96128853D01*
X141769504Y-96126895D01*
X142119823Y-96126378D01*
X142469829Y-96127236D01*
X142819954Y-96129409D01*
X143170168Y-96132834D01*
X143520089Y-96137444D01*
X143869982Y-96143180D01*
X144219425Y-96149972D01*
X144568704Y-96157764D01*
X144917774Y-96166492D01*
X145266147Y-96176081D01*
X145614195Y-96186481D01*
X145961446Y-96197615D01*
X145961474Y-96197616D01*
X146308893Y-96209453D01*
X146308896Y-96209453D01*
X146654733Y-96221872D01*
X146654742Y-96221872D01*
X147000337Y-96234859D01*
X147000356Y-96234860D01*
X147345546Y-96248348D01*
X147345551Y-96248348D01*
X147689544Y-96262245D01*
X148032397Y-96276491D01*
X148032424Y-96276492D01*
X148374867Y-96291056D01*
X148374869Y-96291056D01*
X148716073Y-96305842D01*
X148716074Y-96305842D01*
X149056119Y-96320792D01*
X149056121Y-96320792D01*
X149395216Y-96335854D01*
X149395225Y-96335854D01*
X149733159Y-96350956D01*
X149733169Y-96350957D01*
X150069875Y-96366037D01*
X150069876Y-96366037D01*
X150069896Y-96366038D01*
X150403690Y-96380958D01*
X150600333Y-96392195D01*
X150795851Y-96408319D01*
X150991587Y-96429509D01*
X151187162Y-96455834D01*
X151382373Y-96487383D01*
X151576843Y-96524219D01*
X151770305Y-96566423D01*
X151962506Y-96614075D01*
X152153063Y-96667224D01*
X152341770Y-96725963D01*
X152528335Y-96790360D01*
X152712392Y-96860455D01*
X152893709Y-96936331D01*
X153072046Y-97018070D01*
X153247032Y-97105693D01*
X153418935Y-97199555D01*
X153526934Y-97263142D01*
X153687989Y-97365867D01*
X153843823Y-97474983D01*
X153994839Y-97590838D01*
X154140730Y-97713322D01*
X154281180Y-97842327D01*
X154415879Y-97977744D01*
X154544499Y-98119445D01*
X154666737Y-98267328D01*
X154782280Y-98421281D01*
X154894247Y-98586247D01*
X154907655Y-98602359D01*
X154920593Y-98618863D01*
X154923395Y-98621274D01*
X154925757Y-98624112D01*
X154942026Y-98637302D01*
X154957935Y-98650989D01*
X154961155Y-98652811D01*
X154964020Y-98655134D01*
X154982522Y-98664903D01*
X155000806Y-98675250D01*
X155004321Y-98676413D01*
X155007581Y-98678134D01*
X155027657Y-98684132D01*
X155047574Y-98690721D01*
X155051236Y-98691178D01*
X155054779Y-98692236D01*
X155075661Y-98694222D01*
X155096455Y-98696814D01*
X155099979Y-98696883D01*
X155316144Y-98699545D01*
X155531699Y-98702749D01*
X155746794Y-98706464D01*
X155962264Y-98710675D01*
X156177732Y-98715346D01*
X156177733Y-98715346D01*
X156392289Y-98720426D01*
X156392295Y-98720426D01*
X156607689Y-98725925D01*
X156607691Y-98725925D01*
X156822217Y-98731771D01*
X157037257Y-98737970D01*
X157251695Y-98744461D01*
X157466195Y-98751232D01*
X157466221Y-98751233D01*
X157681047Y-98758263D01*
X157681051Y-98758263D01*
X157895253Y-98765490D01*
X157895310Y-98765492D01*
X158109973Y-98772923D01*
X158109978Y-98772923D01*
X158324194Y-98780494D01*
X158324234Y-98780496D01*
X158530080Y-98787895D01*
X158546135Y-98789585D01*
X158595644Y-98785044D01*
X158643318Y-98770931D01*
X158687322Y-98747789D01*
X158725966Y-98716507D01*
X158757764Y-98678287D01*
X158781495Y-98634598D01*
X158796247Y-98587118D01*
X158800149Y-98550063D01*
X158800821Y-98450000D01*
X158861928Y-98450000D01*
X158865000Y-99014250D01*
X159023750Y-99173000D01*
X160223000Y-99173000D01*
X160223000Y-97973750D01*
X160477000Y-97973750D01*
X160477000Y-99173000D01*
X161676250Y-99173000D01*
X161835000Y-99014250D01*
X161838072Y-98450000D01*
X161825812Y-98325518D01*
X161789502Y-98205820D01*
X161730537Y-98095506D01*
X161651185Y-97998815D01*
X161554494Y-97919463D01*
X161444180Y-97860498D01*
X161324482Y-97824188D01*
X161200000Y-97811928D01*
X160635750Y-97815000D01*
X160477000Y-97973750D01*
X160223000Y-97973750D01*
X160064250Y-97815000D01*
X159500000Y-97811928D01*
X159375518Y-97824188D01*
X159255820Y-97860498D01*
X159145506Y-97919463D01*
X159048815Y-97998815D01*
X158969463Y-98095506D01*
X158910498Y-98205820D01*
X158874188Y-98325518D01*
X158861928Y-98450000D01*
X158800821Y-98450000D01*
X158807425Y-97466969D01*
X158815051Y-97330906D01*
X158850050Y-97137319D01*
X158910470Y-96958670D01*
X158994849Y-96793452D01*
X159101230Y-96643451D01*
X159227639Y-96510603D01*
X159372062Y-96396920D01*
X159532520Y-96304392D01*
X159707115Y-96234996D01*
X159894128Y-96190724D01*
X160101307Y-96172884D01*
X161146369Y-96159246D01*
X161146370Y-96159246D01*
X162204704Y-96145460D01*
X162204713Y-96145459D01*
X162204718Y-96145459D01*
X163266750Y-96131562D01*
X163266817Y-96131562D01*
X163823000Y-96124208D01*
X163823000Y-103183253D01*
%TA.AperFunction,Conductor*%
D22*
G36*
X163823000Y-103183253D02*
G01*
X162572663Y-103288618D01*
X162506542Y-103275466D01*
X162393362Y-103275466D01*
X162328189Y-103288430D01*
X162328189Y-103191505D01*
X162324537Y-103154424D01*
X162310104Y-103106846D01*
X162286667Y-103062999D01*
X162255126Y-103024566D01*
X162216693Y-102993025D01*
X162172845Y-102969588D01*
X162125267Y-102955155D01*
X162075789Y-102950282D01*
X162067300Y-102951118D01*
X161833937Y-102943881D01*
X161833928Y-102943881D01*
X161583129Y-102936112D01*
X161583122Y-102936112D01*
X161331625Y-102928328D01*
X161331618Y-102928328D01*
X161079964Y-102920546D01*
X161079845Y-102920541D01*
X160828227Y-102912764D01*
X160828224Y-102912764D01*
X160577183Y-102905009D01*
X160577181Y-102905009D01*
X160327144Y-102897287D01*
X160327142Y-102897287D01*
X160084481Y-102889795D01*
X159947528Y-102879086D01*
X159752189Y-102840256D01*
X159571570Y-102776801D01*
X159404659Y-102690125D01*
X159253513Y-102582220D01*
X159120234Y-102455107D01*
X159006879Y-102310787D01*
X158915435Y-102151173D01*
X158847825Y-101977965D01*
X158806010Y-101792541D01*
X158791495Y-101586424D01*
X158798388Y-100150000D01*
X158861928Y-100150000D01*
X158874188Y-100274482D01*
X158910498Y-100394180D01*
X158969463Y-100504494D01*
X159048815Y-100601185D01*
X159145506Y-100680537D01*
X159255820Y-100739502D01*
X159375518Y-100775812D01*
X159500000Y-100788072D01*
X160064250Y-100785000D01*
X160223000Y-100626250D01*
X160223000Y-99427000D01*
X160477000Y-99427000D01*
X160477000Y-100626250D01*
X160635750Y-100785000D01*
X161200000Y-100788072D01*
X161324482Y-100775812D01*
X161444180Y-100739502D01*
X161554494Y-100680537D01*
X161651185Y-100601185D01*
X161730537Y-100504494D01*
X161789502Y-100394180D01*
X161825812Y-100274482D01*
X161838072Y-100150000D01*
X161835000Y-99585750D01*
X161676250Y-99427000D01*
X160477000Y-99427000D01*
X160223000Y-99427000D01*
X159023750Y-99427000D01*
X158865000Y-99585750D01*
X158861928Y-100150000D01*
X158798388Y-100150000D01*
X158799261Y-99968106D01*
X158795787Y-99931008D01*
X158781583Y-99883362D01*
X158758356Y-99839403D01*
X158727000Y-99800819D01*
X158688719Y-99769094D01*
X158644985Y-99745447D01*
X158597477Y-99730785D01*
X158548022Y-99725675D01*
X158539569Y-99726467D01*
X158374069Y-99720483D01*
X158373975Y-99720479D01*
X158101126Y-99710594D01*
X158101115Y-99710595D01*
X158101075Y-99710593D01*
X157828378Y-99700769D01*
X157828369Y-99700770D01*
X157828239Y-99700764D01*
X157555728Y-99691096D01*
X157555716Y-99691097D01*
X157555506Y-99691088D01*
X157283215Y-99681668D01*
X157283200Y-99681669D01*
X157282906Y-99681657D01*
X157010868Y-99672578D01*
X157010835Y-99672580D01*
X157010473Y-99672566D01*
X156738722Y-99663922D01*
X156738695Y-99663924D01*
X156738241Y-99663907D01*
X156466812Y-99655791D01*
X156466785Y-99655793D01*
X156466245Y-99655774D01*
X156195169Y-99648278D01*
X156195130Y-99648281D01*
X156194514Y-99648261D01*
X155923826Y-99641479D01*
X155923780Y-99641482D01*
X155923083Y-99641462D01*
X155652818Y-99635487D01*
X155632658Y-99637015D01*
X155612429Y-99637837D01*
X155608118Y-99638874D01*
X155603698Y-99639209D01*
X155584211Y-99644626D01*
X155564536Y-99649359D01*
X155560508Y-99651214D01*
X155556238Y-99652401D01*
X155538168Y-99661503D01*
X155519793Y-99669965D01*
X155516205Y-99672565D01*
X155512244Y-99674560D01*
X155496283Y-99687000D01*
X155479904Y-99698868D01*
X155476889Y-99702116D01*
X155473391Y-99704842D01*
X155460155Y-99720141D01*
X155446389Y-99734969D01*
X155444059Y-99738745D01*
X155441161Y-99742095D01*
X155431156Y-99759659D01*
X155420524Y-99776892D01*
X155418972Y-99781048D01*
X155416780Y-99784897D01*
X155410378Y-99804068D01*
X155403295Y-99823040D01*
X155402581Y-99827414D01*
X155401176Y-99831621D01*
X155398616Y-99851700D01*
X155395358Y-99871656D01*
X155395507Y-99876085D01*
X155394946Y-99880485D01*
X155396334Y-99900672D01*
X155397014Y-99920888D01*
X155397500Y-99924379D01*
X155430162Y-100147526D01*
X155449749Y-100363123D01*
X155457522Y-100577579D01*
X155453735Y-100790536D01*
X155438644Y-101001551D01*
X155412496Y-101210195D01*
X155375546Y-101416033D01*
X155328043Y-101618646D01*
X155270244Y-101817588D01*
X155202415Y-102012384D01*
X155124808Y-102202626D01*
X155037686Y-102387861D01*
X154941323Y-102567636D01*
X154835981Y-102741521D01*
X154721946Y-102909055D01*
X154599522Y-103069764D01*
X154442136Y-103254543D01*
X154276081Y-103428882D01*
X154101387Y-103592981D01*
X153918150Y-103746941D01*
X153726405Y-103890895D01*
X153526253Y-104024893D01*
X153317754Y-104149008D01*
X153100975Y-104263291D01*
X152876018Y-104367760D01*
X152642928Y-104462457D01*
X152401852Y-104547369D01*
X152152904Y-104622501D01*
X151896156Y-104687865D01*
X151631836Y-104743434D01*
X151360005Y-104789221D01*
X151079669Y-104825367D01*
X150937972Y-104839650D01*
X150717245Y-104856596D01*
X150492110Y-104867091D01*
X150262538Y-104870462D01*
X150069556Y-104867311D01*
X149873393Y-104858243D01*
X149797723Y-104853065D01*
X149600807Y-104834881D01*
X149405103Y-104809847D01*
X149209742Y-104777529D01*
X149015311Y-104737641D01*
X148822152Y-104689859D01*
X148630835Y-104633910D01*
X148482496Y-104583320D01*
X148258894Y-104492415D01*
X148041785Y-104385392D01*
X147832628Y-104261669D01*
X147634093Y-104121241D01*
X147448691Y-103964083D01*
X147278777Y-103790122D01*
X147126550Y-103599159D01*
X146994081Y-103390780D01*
X146883390Y-103164271D01*
X146794968Y-102914036D01*
X146755460Y-102766923D01*
X146705187Y-102533086D01*
X146670040Y-102297923D01*
X146650763Y-102061537D01*
X146649652Y-101954119D01*
X147576114Y-101954119D01*
X147576949Y-101966048D01*
X147576580Y-101977997D01*
X147576839Y-101981512D01*
X147593171Y-102183211D01*
X147594806Y-102192272D01*
X147595319Y-102201449D01*
X147595882Y-102204928D01*
X147631308Y-102414402D01*
X147633441Y-102422254D01*
X147634529Y-102430317D01*
X147635363Y-102433741D01*
X147689720Y-102650379D01*
X147693475Y-102660876D01*
X147696086Y-102671716D01*
X147697265Y-102675037D01*
X147758043Y-102842555D01*
X147766089Y-102859392D01*
X147773318Y-102876577D01*
X147775016Y-102879665D01*
X147878113Y-103064021D01*
X147890781Y-103082237D01*
X147903082Y-103100684D01*
X147905333Y-103103395D01*
X148039341Y-103262550D01*
X148054438Y-103277284D01*
X148069070Y-103292398D01*
X148071772Y-103294660D01*
X148237518Y-103431429D01*
X148252408Y-103441445D01*
X148266729Y-103452230D01*
X148269750Y-103454044D01*
X148468060Y-103571237D01*
X148479488Y-103576562D01*
X148490359Y-103582955D01*
X148493567Y-103584414D01*
X148676216Y-103665966D01*
X148684162Y-103668619D01*
X148691691Y-103672269D01*
X148695005Y-103673467D01*
X148899448Y-103745732D01*
X148904674Y-103747022D01*
X148909629Y-103749088D01*
X148913005Y-103750097D01*
X149023037Y-103782133D01*
X149028246Y-103783111D01*
X149033246Y-103784875D01*
X149036674Y-103785694D01*
X149239008Y-103832530D01*
X149244682Y-103833270D01*
X149250179Y-103834851D01*
X149253649Y-103835466D01*
X149465832Y-103871518D01*
X149470182Y-103871825D01*
X149474420Y-103872825D01*
X149477915Y-103873271D01*
X149696919Y-103899661D01*
X149700212Y-103899734D01*
X149703448Y-103900362D01*
X149706959Y-103900668D01*
X149929756Y-103918517D01*
X149931601Y-103918484D01*
X149933417Y-103918783D01*
X149936935Y-103918989D01*
X150032870Y-103923928D01*
X150034773Y-103923840D01*
X150036664Y-103924095D01*
X150040187Y-103924199D01*
X150248070Y-103928862D01*
X150249961Y-103928719D01*
X150251833Y-103928917D01*
X150255357Y-103928920D01*
X150448893Y-103927672D01*
X150460476Y-103928813D01*
X150489090Y-103925995D01*
X150545162Y-103924775D01*
X150545746Y-103924705D01*
X150546334Y-103924747D01*
X150549856Y-103924629D01*
X150754628Y-103916360D01*
X150758030Y-103915887D01*
X150761460Y-103915991D01*
X150764974Y-103915730D01*
X150978134Y-103898334D01*
X150980856Y-103897841D01*
X150983607Y-103897826D01*
X150987110Y-103897439D01*
X151102501Y-103883856D01*
X151103756Y-103883582D01*
X151105042Y-103883544D01*
X151108535Y-103883072D01*
X151332835Y-103851169D01*
X151335396Y-103850545D01*
X151338020Y-103850376D01*
X151341494Y-103849784D01*
X151557311Y-103811397D01*
X151560224Y-103810579D01*
X151563229Y-103810271D01*
X151566678Y-103809547D01*
X151774203Y-103764477D01*
X151777465Y-103763426D01*
X151780847Y-103762939D01*
X151784264Y-103762075D01*
X151983685Y-103710124D01*
X151987274Y-103708804D01*
X151991033Y-103708091D01*
X151994408Y-103707076D01*
X152185913Y-103648043D01*
X152191237Y-103645812D01*
X152196837Y-103644401D01*
X152200145Y-103643188D01*
X152472982Y-103540927D01*
X152480186Y-103537391D01*
X152487785Y-103534836D01*
X152490990Y-103533370D01*
X152747087Y-103414056D01*
X152754582Y-103409627D01*
X152762578Y-103406179D01*
X152765650Y-103404453D01*
X153005649Y-103267414D01*
X153013151Y-103262097D01*
X153021242Y-103257742D01*
X153024154Y-103255757D01*
X153248695Y-103100322D01*
X153255887Y-103094224D01*
X153263750Y-103089047D01*
X153266475Y-103086813D01*
X153476199Y-102912307D01*
X153482783Y-102905639D01*
X153490120Y-102899822D01*
X153492638Y-102897356D01*
X153688185Y-102703110D01*
X153693944Y-102696147D01*
X153700522Y-102689947D01*
X153702820Y-102687275D01*
X153884832Y-102472616D01*
X153888522Y-102467286D01*
X153892937Y-102462545D01*
X153895056Y-102459729D01*
X153987181Y-102335502D01*
X153990291Y-102330317D01*
X153994125Y-102325654D01*
X153996067Y-102322713D01*
X154122329Y-102128468D01*
X154126019Y-102121356D01*
X154130610Y-102114799D01*
X154132318Y-102111717D01*
X154243164Y-101908377D01*
X154246477Y-101900572D01*
X154250757Y-101893263D01*
X154252211Y-101890053D01*
X154346401Y-101678058D01*
X154349213Y-101669583D01*
X154353058Y-101661525D01*
X154354235Y-101658204D01*
X154430528Y-101437995D01*
X154432711Y-101428910D01*
X154435979Y-101420156D01*
X154436860Y-101416744D01*
X154494014Y-101188761D01*
X154495442Y-101179176D01*
X154497995Y-101169833D01*
X154498563Y-101166355D01*
X154535336Y-100931039D01*
X154535904Y-100921128D01*
X154537626Y-100911344D01*
X154537871Y-100907829D01*
X154553024Y-100665619D01*
X154552669Y-100655570D01*
X154553479Y-100645560D01*
X154553395Y-100642037D01*
X154545685Y-100393375D01*
X154544397Y-100383426D01*
X154544271Y-100373410D01*
X154543859Y-100369910D01*
X154512045Y-100115235D01*
X154509876Y-100105624D01*
X154508848Y-100095825D01*
X154508116Y-100092378D01*
X154454157Y-99846697D01*
X154453182Y-99836796D01*
X154438749Y-99789218D01*
X154415312Y-99745371D01*
X154383771Y-99706938D01*
X154345338Y-99675397D01*
X154301491Y-99651960D01*
X154253913Y-99637527D01*
X154216832Y-99633875D01*
X154192036Y-99633875D01*
X154191103Y-99633967D01*
X153928765Y-99635909D01*
X153928715Y-99635914D01*
X153927678Y-99635919D01*
X153654179Y-99639123D01*
X153654120Y-99639129D01*
X153652926Y-99639141D01*
X153379745Y-99643698D01*
X153379683Y-99643705D01*
X153378321Y-99643726D01*
X153105475Y-99649818D01*
X153105414Y-99649825D01*
X153103883Y-99649858D01*
X152831389Y-99657663D01*
X152831318Y-99657672D01*
X152829627Y-99657720D01*
X152557502Y-99667417D01*
X152557438Y-99667426D01*
X152555569Y-99667493D01*
X152283830Y-99679262D01*
X152283766Y-99679271D01*
X152281727Y-99679362D01*
X152010391Y-99693382D01*
X152010330Y-99693391D01*
X152008118Y-99693510D01*
X151737201Y-99709960D01*
X151737142Y-99709969D01*
X151734757Y-99710120D01*
X151464279Y-99729180D01*
X151464223Y-99729190D01*
X151461665Y-99729378D01*
X151191642Y-99751227D01*
X151191593Y-99751236D01*
X151188858Y-99751468D01*
X150919306Y-99776285D01*
X150919268Y-99776292D01*
X150916353Y-99776574D01*
X150647290Y-99804539D01*
X150647257Y-99804546D01*
X150644171Y-99804883D01*
X150375614Y-99836175D01*
X150375590Y-99836180D01*
X150372331Y-99836579D01*
X150104296Y-99871376D01*
X150104285Y-99871378D01*
X150100848Y-99871848D01*
X149833355Y-99910332D01*
X149832123Y-99910634D01*
X149830860Y-99910704D01*
X149827381Y-99911265D01*
X149630967Y-99944343D01*
X149627129Y-99945383D01*
X149623172Y-99945782D01*
X149619721Y-99946500D01*
X149349590Y-100004702D01*
X149344000Y-100006492D01*
X149338214Y-100007431D01*
X149334813Y-100008356D01*
X149092651Y-100076036D01*
X149086382Y-100078469D01*
X149079843Y-100079986D01*
X149076511Y-100081137D01*
X148860725Y-100157373D01*
X148853830Y-100160597D01*
X148846569Y-100162859D01*
X148843333Y-100164252D01*
X148652327Y-100248117D01*
X148643383Y-100253137D01*
X148633934Y-100257100D01*
X148630844Y-100258795D01*
X148411965Y-100380886D01*
X148401012Y-100388485D01*
X148389429Y-100395065D01*
X148386563Y-100397116D01*
X148205127Y-100528935D01*
X148192882Y-100539806D01*
X148179972Y-100549831D01*
X148177429Y-100552271D01*
X147997534Y-100727384D01*
X147985371Y-100741791D01*
X147972566Y-100755616D01*
X147970454Y-100758437D01*
X147835784Y-100941045D01*
X147826127Y-100957241D01*
X147815743Y-100972961D01*
X147814118Y-100976088D01*
X147715235Y-101169780D01*
X147708494Y-101186943D01*
X147700913Y-101203757D01*
X147699808Y-101207103D01*
X147631976Y-101417516D01*
X147628351Y-101434189D01*
X147623733Y-101450588D01*
X147623137Y-101454061D01*
X147586038Y-101679995D01*
X147585045Y-101695243D01*
X147582924Y-101710348D01*
X147582801Y-101713870D01*
X147576114Y-101954119D01*
X146649652Y-101954119D01*
X146648319Y-101825266D01*
X146663628Y-101590283D01*
X146697599Y-101357751D01*
X146751144Y-101128697D01*
X146825222Y-100904032D01*
X146920884Y-100684572D01*
X147040251Y-100469351D01*
X147129473Y-100335489D01*
X147286241Y-100137936D01*
X147463882Y-99954034D01*
X147663879Y-99782562D01*
X147887834Y-99623056D01*
X148047161Y-99525915D01*
X148218136Y-99434101D01*
X148399124Y-99348829D01*
X148590146Y-99270316D01*
X148791142Y-99198811D01*
X149002052Y-99134555D01*
X149222826Y-99077782D01*
X149453388Y-99028728D01*
X149695433Y-98987324D01*
X149906786Y-98956370D01*
X150119866Y-98927020D01*
X150332969Y-98899480D01*
X150546203Y-98873702D01*
X150759309Y-98849675D01*
X150972250Y-98827360D01*
X151185165Y-98806703D01*
X151398169Y-98787651D01*
X151611309Y-98770163D01*
X151824271Y-98754223D01*
X152037227Y-98739776D01*
X152250184Y-98726781D01*
X152463250Y-98715193D01*
X152676056Y-98704987D01*
X152889135Y-98696098D01*
X153102903Y-98688474D01*
X153110889Y-98687402D01*
X153118952Y-98687389D01*
X153135258Y-98684132D01*
X153151725Y-98681922D01*
X153159353Y-98679319D01*
X153167258Y-98677740D01*
X153182615Y-98671381D01*
X153198345Y-98666013D01*
X153205320Y-98661979D01*
X153212770Y-98658894D01*
X153226608Y-98649667D01*
X153240987Y-98641351D01*
X153247044Y-98636041D01*
X153253755Y-98631566D01*
X153265536Y-98619828D01*
X153278027Y-98608877D01*
X153282937Y-98602491D01*
X153288651Y-98596798D01*
X153297929Y-98582993D01*
X153308053Y-98569826D01*
X153311630Y-98562606D01*
X153316128Y-98555914D01*
X153322546Y-98540576D01*
X153329923Y-98525688D01*
X153332029Y-98517914D01*
X153335143Y-98510472D01*
X153338462Y-98494166D01*
X153342803Y-98478141D01*
X153343359Y-98470108D01*
X153344968Y-98462202D01*
X153345056Y-98445571D01*
X153346203Y-98428999D01*
X153345187Y-98421006D01*
X153345230Y-98412943D01*
X153342086Y-98396609D01*
X153339992Y-98380132D01*
X153337445Y-98372494D01*
X153335920Y-98364571D01*
X153329663Y-98349157D01*
X153324409Y-98333402D01*
X153320426Y-98326403D01*
X153317392Y-98318929D01*
X153308260Y-98305025D01*
X153300045Y-98290589D01*
X153294776Y-98284493D01*
X153290350Y-98277755D01*
X153278702Y-98265899D01*
X153267831Y-98253324D01*
X153261475Y-98248366D01*
X153255827Y-98242617D01*
X153253108Y-98240375D01*
X153156185Y-98161593D01*
X153155408Y-98161079D01*
X153154743Y-98160430D01*
X153151977Y-98158247D01*
X152986901Y-98029807D01*
X152971059Y-98019798D01*
X152955712Y-98009062D01*
X152952629Y-98007355D01*
X152819387Y-97934787D01*
X152815669Y-97933211D01*
X152812257Y-97931050D01*
X152809099Y-97929486D01*
X152600897Y-97828178D01*
X152596444Y-97826526D01*
X152592311Y-97824198D01*
X152589077Y-97822798D01*
X152371910Y-97730623D01*
X152367782Y-97729329D01*
X152363918Y-97727391D01*
X152360620Y-97726148D01*
X152135661Y-97643194D01*
X152131806Y-97642187D01*
X152128179Y-97640569D01*
X152124828Y-97639477D01*
X151893251Y-97565832D01*
X151889625Y-97565058D01*
X151886185Y-97563699D01*
X151882791Y-97562752D01*
X151645767Y-97498506D01*
X151642319Y-97497925D01*
X151639026Y-97496779D01*
X151635595Y-97495975D01*
X151394301Y-97441216D01*
X151390988Y-97440798D01*
X151387789Y-97439828D01*
X151384328Y-97439163D01*
X151139936Y-97393980D01*
X151136695Y-97393704D01*
X151133557Y-97392886D01*
X151130073Y-97392358D01*
X150883757Y-97356840D01*
X150880547Y-97356694D01*
X150877415Y-97356008D01*
X150873912Y-97355617D01*
X150626844Y-97329853D01*
X150623615Y-97329833D01*
X150620440Y-97329268D01*
X150616925Y-97329016D01*
X150370282Y-97313094D01*
X150369537Y-97313119D01*
X150368809Y-97313004D01*
X150365289Y-97312822D01*
X150029723Y-97297827D01*
X150029637Y-97297823D01*
X149692854Y-97282755D01*
X149692850Y-97282755D01*
X149692826Y-97282754D01*
X149354985Y-97267677D01*
X149354977Y-97267677D01*
X149354911Y-97267674D01*
X149016076Y-97252652D01*
X149016067Y-97252652D01*
X149015960Y-97252647D01*
X148676190Y-97237741D01*
X148676180Y-97237742D01*
X148676030Y-97237734D01*
X148335389Y-97223007D01*
X148335379Y-97223008D01*
X148335186Y-97222998D01*
X147993734Y-97208511D01*
X147993716Y-97208512D01*
X147993488Y-97208501D01*
X147651288Y-97194317D01*
X147651272Y-97194318D01*
X147650999Y-97194305D01*
X147308112Y-97180485D01*
X147308090Y-97180486D01*
X147307780Y-97180472D01*
X146964267Y-97167079D01*
X146964251Y-97167080D01*
X146963894Y-97167064D01*
X146619816Y-97154159D01*
X146619788Y-97154161D01*
X146619398Y-97154144D01*
X146274820Y-97141791D01*
X146274792Y-97141793D01*
X146274361Y-97141775D01*
X145929339Y-97130035D01*
X145929313Y-97130037D01*
X145928837Y-97130018D01*
X145583438Y-97118953D01*
X145583398Y-97118956D01*
X145582893Y-97118937D01*
X145237175Y-97108608D01*
X145237141Y-97108610D01*
X145236585Y-97108591D01*
X144890611Y-97099063D01*
X144890580Y-97099065D01*
X144889982Y-97099046D01*
X144543812Y-97090378D01*
X144543774Y-97090381D01*
X144543137Y-97090362D01*
X144196835Y-97082618D01*
X144196794Y-97082621D01*
X144196116Y-97082603D01*
X143849743Y-97075844D01*
X143849704Y-97075847D01*
X143848980Y-97075830D01*
X143502597Y-97070119D01*
X143502553Y-97070123D01*
X143501789Y-97070107D01*
X143155457Y-97065506D01*
X143155413Y-97065510D01*
X143154604Y-97065496D01*
X142808385Y-97062066D01*
X142808336Y-97062070D01*
X142807487Y-97062059D01*
X142461444Y-97059863D01*
X142461393Y-97059868D01*
X142460498Y-97059859D01*
X142114691Y-97058960D01*
X142114643Y-97058965D01*
X142113700Y-97058959D01*
X141768190Y-97059417D01*
X141768133Y-97059423D01*
X141767152Y-97059421D01*
X141422003Y-97061299D01*
X141421951Y-97061304D01*
X141420916Y-97061307D01*
X141076187Y-97064667D01*
X141076131Y-97064673D01*
X141075051Y-97064681D01*
X140730805Y-97069586D01*
X140730753Y-97069592D01*
X140729621Y-97069605D01*
X140385919Y-97076116D01*
X140385856Y-97076123D01*
X140384684Y-97076143D01*
X140041588Y-97084323D01*
X140041529Y-97084330D01*
X140040302Y-97084357D01*
X139697875Y-97094267D01*
X139697820Y-97094274D01*
X139696536Y-97094309D01*
X139607378Y-97097363D01*
X139576538Y-96165792D01*
X139673356Y-96162473D01*
X140021877Y-96152362D01*
X140370951Y-96144006D01*
X140720123Y-96137347D01*
X141069707Y-96132318D01*
X141419682Y-96128853D01*
X141769504Y-96126895D01*
X142119823Y-96126378D01*
X142469829Y-96127236D01*
X142819954Y-96129409D01*
X143170168Y-96132834D01*
X143520089Y-96137444D01*
X143869982Y-96143180D01*
X144219425Y-96149972D01*
X144568704Y-96157764D01*
X144917774Y-96166492D01*
X145266147Y-96176081D01*
X145614195Y-96186481D01*
X145961446Y-96197615D01*
X145961474Y-96197616D01*
X146308893Y-96209453D01*
X146308896Y-96209453D01*
X146654733Y-96221872D01*
X146654742Y-96221872D01*
X147000337Y-96234859D01*
X147000356Y-96234860D01*
X147345546Y-96248348D01*
X147345551Y-96248348D01*
X147689544Y-96262245D01*
X148032397Y-96276491D01*
X148032424Y-96276492D01*
X148374867Y-96291056D01*
X148374869Y-96291056D01*
X148716073Y-96305842D01*
X148716074Y-96305842D01*
X149056119Y-96320792D01*
X149056121Y-96320792D01*
X149395216Y-96335854D01*
X149395225Y-96335854D01*
X149733159Y-96350956D01*
X149733169Y-96350957D01*
X150069875Y-96366037D01*
X150069876Y-96366037D01*
X150069896Y-96366038D01*
X150403690Y-96380958D01*
X150600333Y-96392195D01*
X150795851Y-96408319D01*
X150991587Y-96429509D01*
X151187162Y-96455834D01*
X151382373Y-96487383D01*
X151576843Y-96524219D01*
X151770305Y-96566423D01*
X151962506Y-96614075D01*
X152153063Y-96667224D01*
X152341770Y-96725963D01*
X152528335Y-96790360D01*
X152712392Y-96860455D01*
X152893709Y-96936331D01*
X153072046Y-97018070D01*
X153247032Y-97105693D01*
X153418935Y-97199555D01*
X153526934Y-97263142D01*
X153687989Y-97365867D01*
X153843823Y-97474983D01*
X153994839Y-97590838D01*
X154140730Y-97713322D01*
X154281180Y-97842327D01*
X154415879Y-97977744D01*
X154544499Y-98119445D01*
X154666737Y-98267328D01*
X154782280Y-98421281D01*
X154894247Y-98586247D01*
X154907655Y-98602359D01*
X154920593Y-98618863D01*
X154923395Y-98621274D01*
X154925757Y-98624112D01*
X154942026Y-98637302D01*
X154957935Y-98650989D01*
X154961155Y-98652811D01*
X154964020Y-98655134D01*
X154982522Y-98664903D01*
X155000806Y-98675250D01*
X155004321Y-98676413D01*
X155007581Y-98678134D01*
X155027657Y-98684132D01*
X155047574Y-98690721D01*
X155051236Y-98691178D01*
X155054779Y-98692236D01*
X155075661Y-98694222D01*
X155096455Y-98696814D01*
X155099979Y-98696883D01*
X155316144Y-98699545D01*
X155531699Y-98702749D01*
X155746794Y-98706464D01*
X155962264Y-98710675D01*
X156177732Y-98715346D01*
X156177733Y-98715346D01*
X156392289Y-98720426D01*
X156392295Y-98720426D01*
X156607689Y-98725925D01*
X156607691Y-98725925D01*
X156822217Y-98731771D01*
X157037257Y-98737970D01*
X157251695Y-98744461D01*
X157466195Y-98751232D01*
X157466221Y-98751233D01*
X157681047Y-98758263D01*
X157681051Y-98758263D01*
X157895253Y-98765490D01*
X157895310Y-98765492D01*
X158109973Y-98772923D01*
X158109978Y-98772923D01*
X158324194Y-98780494D01*
X158324234Y-98780496D01*
X158530080Y-98787895D01*
X158546135Y-98789585D01*
X158595644Y-98785044D01*
X158643318Y-98770931D01*
X158687322Y-98747789D01*
X158725966Y-98716507D01*
X158757764Y-98678287D01*
X158781495Y-98634598D01*
X158796247Y-98587118D01*
X158800149Y-98550063D01*
X158800821Y-98450000D01*
X158861928Y-98450000D01*
X158865000Y-99014250D01*
X159023750Y-99173000D01*
X160223000Y-99173000D01*
X160223000Y-97973750D01*
X160477000Y-97973750D01*
X160477000Y-99173000D01*
X161676250Y-99173000D01*
X161835000Y-99014250D01*
X161838072Y-98450000D01*
X161825812Y-98325518D01*
X161789502Y-98205820D01*
X161730537Y-98095506D01*
X161651185Y-97998815D01*
X161554494Y-97919463D01*
X161444180Y-97860498D01*
X161324482Y-97824188D01*
X161200000Y-97811928D01*
X160635750Y-97815000D01*
X160477000Y-97973750D01*
X160223000Y-97973750D01*
X160064250Y-97815000D01*
X159500000Y-97811928D01*
X159375518Y-97824188D01*
X159255820Y-97860498D01*
X159145506Y-97919463D01*
X159048815Y-97998815D01*
X158969463Y-98095506D01*
X158910498Y-98205820D01*
X158874188Y-98325518D01*
X158861928Y-98450000D01*
X158800821Y-98450000D01*
X158807425Y-97466969D01*
X158815051Y-97330906D01*
X158850050Y-97137319D01*
X158910470Y-96958670D01*
X158994849Y-96793452D01*
X159101230Y-96643451D01*
X159227639Y-96510603D01*
X159372062Y-96396920D01*
X159532520Y-96304392D01*
X159707115Y-96234996D01*
X159894128Y-96190724D01*
X160101307Y-96172884D01*
X161146369Y-96159246D01*
X161146370Y-96159246D01*
X162204704Y-96145460D01*
X162204713Y-96145459D01*
X162204718Y-96145459D01*
X163266750Y-96131562D01*
X163266817Y-96131562D01*
X163823000Y-96124208D01*
X163823000Y-103183253D01*
G37*
%TD.AperFunction*%
%TD*%
D21*
%TO.N,Net-(J3-Pad1)*%
X229264356Y-97049433D02*
X229381969Y-97058395D01*
X229563823Y-97109670D01*
X229718111Y-97198034D01*
X229845838Y-97319762D01*
X229941186Y-97469039D01*
X229999680Y-97643543D01*
X230015604Y-97803713D01*
X230015199Y-98218349D01*
X229950000Y-98211928D01*
X229385750Y-98215000D01*
X229227000Y-98373750D01*
X229227000Y-99573000D01*
X230426250Y-99573000D01*
X230585000Y-99414250D01*
X230586707Y-99100805D01*
X237270788Y-99118057D01*
X237303770Y-99118892D01*
X237512589Y-99142543D01*
X237701372Y-99179623D01*
X237910070Y-99232890D01*
X238124017Y-99300121D01*
X238330608Y-99379053D01*
X238516920Y-99466640D01*
X238665517Y-99555771D01*
X238782747Y-99659237D01*
X238814107Y-99734809D01*
X238768801Y-99802307D01*
X238618682Y-99917502D01*
X238455684Y-100005756D01*
X238260062Y-100089891D01*
X238048574Y-100164137D01*
X237834028Y-100225863D01*
X237629077Y-100273036D01*
X237449175Y-100303584D01*
X237256565Y-100318563D01*
X230586718Y-100301346D01*
X230585000Y-99985750D01*
X230426250Y-99827000D01*
X229227000Y-99827000D01*
X229227000Y-101026250D01*
X229385750Y-101185000D01*
X229950000Y-101188072D01*
X230006214Y-101182536D01*
X230005805Y-101599451D01*
X229996898Y-101716523D01*
X229945176Y-101897903D01*
X229855739Y-102052270D01*
X229732351Y-102180446D01*
X229581208Y-102276204D01*
X229405284Y-102334761D01*
X229244677Y-102350477D01*
X224686602Y-102339914D01*
X224694557Y-100550000D01*
X227611928Y-100550000D01*
X227624188Y-100674482D01*
X227660498Y-100794180D01*
X227719463Y-100904494D01*
X227798815Y-101001185D01*
X227895506Y-101080537D01*
X228005820Y-101139502D01*
X228125518Y-101175812D01*
X228250000Y-101188072D01*
X228814250Y-101185000D01*
X228973000Y-101026250D01*
X228973000Y-99827000D01*
X227773750Y-99827000D01*
X227615000Y-99985750D01*
X227611928Y-100550000D01*
X224694557Y-100550000D01*
X224702112Y-98850000D01*
X227611928Y-98850000D01*
X227615000Y-99414250D01*
X227773750Y-99573000D01*
X228973000Y-99573000D01*
X228973000Y-98373750D01*
X228814250Y-98215000D01*
X228250000Y-98211928D01*
X228125518Y-98224188D01*
X228005820Y-98260498D01*
X227895506Y-98319463D01*
X227798815Y-98398815D01*
X227719463Y-98495506D01*
X227660498Y-98605820D01*
X227624188Y-98725518D01*
X227611928Y-98850000D01*
X224702112Y-98850000D01*
X224710167Y-97037709D01*
X229264356Y-97049433D01*
%TA.AperFunction,Conductor*%
D22*
G36*
X229264356Y-97049433D02*
G01*
X229381969Y-97058395D01*
X229563823Y-97109670D01*
X229718111Y-97198034D01*
X229845838Y-97319762D01*
X229941186Y-97469039D01*
X229999680Y-97643543D01*
X230015604Y-97803713D01*
X230015199Y-98218349D01*
X229950000Y-98211928D01*
X229385750Y-98215000D01*
X229227000Y-98373750D01*
X229227000Y-99573000D01*
X230426250Y-99573000D01*
X230585000Y-99414250D01*
X230586707Y-99100805D01*
X237270788Y-99118057D01*
X237303770Y-99118892D01*
X237512589Y-99142543D01*
X237701372Y-99179623D01*
X237910070Y-99232890D01*
X238124017Y-99300121D01*
X238330608Y-99379053D01*
X238516920Y-99466640D01*
X238665517Y-99555771D01*
X238782747Y-99659237D01*
X238814107Y-99734809D01*
X238768801Y-99802307D01*
X238618682Y-99917502D01*
X238455684Y-100005756D01*
X238260062Y-100089891D01*
X238048574Y-100164137D01*
X237834028Y-100225863D01*
X237629077Y-100273036D01*
X237449175Y-100303584D01*
X237256565Y-100318563D01*
X230586718Y-100301346D01*
X230585000Y-99985750D01*
X230426250Y-99827000D01*
X229227000Y-99827000D01*
X229227000Y-101026250D01*
X229385750Y-101185000D01*
X229950000Y-101188072D01*
X230006214Y-101182536D01*
X230005805Y-101599451D01*
X229996898Y-101716523D01*
X229945176Y-101897903D01*
X229855739Y-102052270D01*
X229732351Y-102180446D01*
X229581208Y-102276204D01*
X229405284Y-102334761D01*
X229244677Y-102350477D01*
X224686602Y-102339914D01*
X224694557Y-100550000D01*
X227611928Y-100550000D01*
X227624188Y-100674482D01*
X227660498Y-100794180D01*
X227719463Y-100904494D01*
X227798815Y-101001185D01*
X227895506Y-101080537D01*
X228005820Y-101139502D01*
X228125518Y-101175812D01*
X228250000Y-101188072D01*
X228814250Y-101185000D01*
X228973000Y-101026250D01*
X228973000Y-99827000D01*
X227773750Y-99827000D01*
X227615000Y-99985750D01*
X227611928Y-100550000D01*
X224694557Y-100550000D01*
X224702112Y-98850000D01*
X227611928Y-98850000D01*
X227615000Y-99414250D01*
X227773750Y-99573000D01*
X228973000Y-99573000D01*
X228973000Y-98373750D01*
X228814250Y-98215000D01*
X228250000Y-98211928D01*
X228125518Y-98224188D01*
X228005820Y-98260498D01*
X227895506Y-98319463D01*
X227798815Y-98398815D01*
X227719463Y-98495506D01*
X227660498Y-98605820D01*
X227624188Y-98725518D01*
X227611928Y-98850000D01*
X224702112Y-98850000D01*
X224710167Y-97037709D01*
X229264356Y-97049433D01*
G37*
%TD.AperFunction*%
%TD*%
M02*
