%TF.GenerationSoftware,KiCad,Pcbnew,5.1.8*%
%TF.CreationDate,2020-12-04T21:14:45+01:00*%
%TF.ProjectId,SawToothOrganDIP,53617754-6f6f-4746-984f-7267616e4449,rev?*%
%TF.SameCoordinates,Original*%
%TF.FileFunction,Copper,L1,Top*%
%TF.FilePolarity,Positive*%
%FSLAX46Y46*%
G04 Gerber Fmt 4.6, Leading zero omitted, Abs format (unit mm)*
G04 Created by KiCad (PCBNEW 5.1.8) date 2020-12-04 21:14:45*
%MOMM*%
%LPD*%
G01*
G04 APERTURE LIST*
%TA.AperFunction,EtchedComponent*%
%ADD10C,0.010000*%
%TD*%
%TA.AperFunction,ComponentPad*%
%ADD11C,0.495127*%
%TD*%
%TA.AperFunction,ComponentPad*%
%ADD12R,1.700000X1.700000*%
%TD*%
%TA.AperFunction,ComponentPad*%
%ADD13O,1.600000X1.600000*%
%TD*%
%TA.AperFunction,ComponentPad*%
%ADD14C,1.600000*%
%TD*%
%TA.AperFunction,SMDPad,CuDef*%
%ADD15R,4.000000X10.000000*%
%TD*%
%TA.AperFunction,SMDPad,CuDef*%
%ADD16R,3.500000X10.000000*%
%TD*%
%TA.AperFunction,ComponentPad*%
%ADD17C,2.455530*%
%TD*%
%TA.AperFunction,ComponentPad*%
%ADD18C,2.340000*%
%TD*%
%TA.AperFunction,ComponentPad*%
%ADD19R,1.100000X1.800000*%
%TD*%
%TA.AperFunction,ComponentPad*%
%ADD20C,1.800000*%
%TD*%
%TA.AperFunction,ComponentPad*%
%ADD21R,1.800000X1.800000*%
%TD*%
%TA.AperFunction,ComponentPad*%
%ADD22O,1.700000X1.700000*%
%TD*%
%TA.AperFunction,Conductor*%
%ADD23C,0.250000*%
%TD*%
%TA.AperFunction,Conductor*%
%ADD24C,0.254000*%
%TD*%
%TA.AperFunction,Conductor*%
%ADD25C,0.100000*%
%TD*%
%TA.AperFunction,NonConductor*%
%ADD26C,0.254000*%
%TD*%
%TA.AperFunction,NonConductor*%
%ADD27C,0.100000*%
%TD*%
G04 APERTURE END LIST*
D10*
%TO.C,U1*%
G36*
X154140334Y-146897334D02*
G01*
X157146000Y-146897334D01*
X157146000Y-157523000D01*
X147028334Y-157523000D01*
X147028334Y-132419334D01*
X154140334Y-132419334D01*
X154140334Y-146897334D01*
G37*
X154140334Y-146897334D02*
X157146000Y-146897334D01*
X157146000Y-157523000D01*
X147028334Y-157523000D01*
X147028334Y-132419334D01*
X154140334Y-132419334D01*
X154140334Y-146897334D01*
G36*
X164723667Y-146897334D02*
G01*
X167729334Y-146897334D01*
X167729334Y-157523000D01*
X157611667Y-157523000D01*
X157611667Y-146897334D01*
X160617334Y-146897334D01*
X160617334Y-132419334D01*
X164723667Y-132419334D01*
X164723667Y-146897334D01*
G37*
X164723667Y-146897334D02*
X167729334Y-146897334D01*
X167729334Y-157523000D01*
X157611667Y-157523000D01*
X157611667Y-146897334D01*
X160617334Y-146897334D01*
X160617334Y-132419334D01*
X164723667Y-132419334D01*
X164723667Y-146897334D01*
G36*
X178312667Y-157523000D02*
G01*
X168195000Y-157523000D01*
X168195000Y-146897334D01*
X171200667Y-146897334D01*
X171200667Y-132419334D01*
X178312667Y-132419334D01*
X178312667Y-157523000D01*
G37*
X178312667Y-157523000D02*
X168195000Y-157523000D01*
X168195000Y-146897334D01*
X171200667Y-146897334D01*
X171200667Y-132419334D01*
X178312667Y-132419334D01*
X178312667Y-157523000D01*
G36*
X185932667Y-146897334D02*
G01*
X188938334Y-146897334D01*
X188938334Y-157523000D01*
X178778334Y-157523000D01*
X178778334Y-132419334D01*
X185932667Y-132419334D01*
X185932667Y-146897334D01*
G37*
X185932667Y-146897334D02*
X188938334Y-146897334D01*
X188938334Y-157523000D01*
X178778334Y-157523000D01*
X178778334Y-132419334D01*
X185932667Y-132419334D01*
X185932667Y-146897334D01*
G36*
X196516000Y-146897334D02*
G01*
X199521667Y-146897334D01*
X199521667Y-157523000D01*
X189361667Y-157523000D01*
X189361667Y-146897334D01*
X192367334Y-146897334D01*
X192367334Y-132419334D01*
X196516000Y-132419334D01*
X196516000Y-146897334D01*
G37*
X196516000Y-146897334D02*
X199521667Y-146897334D01*
X199521667Y-157523000D01*
X189361667Y-157523000D01*
X189361667Y-146897334D01*
X192367334Y-146897334D01*
X192367334Y-132419334D01*
X196516000Y-132419334D01*
X196516000Y-146897334D01*
G36*
X207099334Y-146897334D02*
G01*
X210105000Y-146897334D01*
X210105000Y-157523000D01*
X199987334Y-157523000D01*
X199987334Y-146897334D01*
X202993000Y-146897334D01*
X202993000Y-132419334D01*
X207099334Y-132419334D01*
X207099334Y-146897334D01*
G37*
X207099334Y-146897334D02*
X210105000Y-146897334D01*
X210105000Y-157523000D01*
X199987334Y-157523000D01*
X199987334Y-146897334D01*
X202993000Y-146897334D01*
X202993000Y-132419334D01*
X207099334Y-132419334D01*
X207099334Y-146897334D01*
G36*
X220688334Y-157523000D02*
G01*
X210570667Y-157523000D01*
X210570667Y-146897334D01*
X213576334Y-146897334D01*
X213576334Y-132419334D01*
X220688334Y-132419334D01*
X220688334Y-157523000D01*
G37*
X220688334Y-157523000D02*
X210570667Y-157523000D01*
X210570667Y-146897334D01*
X213576334Y-146897334D01*
X213576334Y-132419334D01*
X220688334Y-132419334D01*
X220688334Y-157523000D01*
G36*
X231271667Y-157523000D02*
G01*
X221154000Y-157523000D01*
X221154000Y-132419334D01*
X231271667Y-132419334D01*
X231271667Y-157523000D01*
G37*
X231271667Y-157523000D02*
X221154000Y-157523000D01*
X221154000Y-132419334D01*
X231271667Y-132419334D01*
X231271667Y-157523000D01*
G36*
X160225874Y-139478417D02*
G01*
X160215167Y-146537500D01*
X157410584Y-146548386D01*
X154606000Y-146559271D01*
X154606000Y-132419334D01*
X160236582Y-132419334D01*
X160225874Y-139478417D01*
G37*
X160225874Y-139478417D02*
X160215167Y-146537500D01*
X157410584Y-146548386D01*
X154606000Y-146559271D01*
X154606000Y-132419334D01*
X160236582Y-132419334D01*
X160225874Y-139478417D01*
G36*
X170819667Y-146558667D02*
G01*
X168032722Y-146558667D01*
X167554574Y-146558249D01*
X167101503Y-146557043D01*
X166680590Y-146555119D01*
X166298914Y-146552549D01*
X165963554Y-146549404D01*
X165681592Y-146545754D01*
X165460106Y-146541671D01*
X165306177Y-146537225D01*
X165226884Y-146532488D01*
X165217556Y-146530445D01*
X165214487Y-146485739D01*
X165211512Y-146360784D01*
X165208648Y-146159999D01*
X165205912Y-145887801D01*
X165203322Y-145548609D01*
X165200896Y-145146841D01*
X165198651Y-144686914D01*
X165196605Y-144173246D01*
X165194775Y-143610256D01*
X165193180Y-143002362D01*
X165191836Y-142353982D01*
X165190762Y-141669533D01*
X165189975Y-140953434D01*
X165189493Y-140210103D01*
X165189334Y-139460778D01*
X165189334Y-132419334D01*
X170819667Y-132419334D01*
X170819667Y-146558667D01*
G37*
X170819667Y-146558667D02*
X168032722Y-146558667D01*
X167554574Y-146558249D01*
X167101503Y-146557043D01*
X166680590Y-146555119D01*
X166298914Y-146552549D01*
X165963554Y-146549404D01*
X165681592Y-146545754D01*
X165460106Y-146541671D01*
X165306177Y-146537225D01*
X165226884Y-146532488D01*
X165217556Y-146530445D01*
X165214487Y-146485739D01*
X165211512Y-146360784D01*
X165208648Y-146159999D01*
X165205912Y-145887801D01*
X165203322Y-145548609D01*
X165200896Y-145146841D01*
X165198651Y-144686914D01*
X165196605Y-144173246D01*
X165194775Y-143610256D01*
X165193180Y-143002362D01*
X165191836Y-142353982D01*
X165190762Y-141669533D01*
X165189975Y-140953434D01*
X165189493Y-140210103D01*
X165189334Y-139460778D01*
X165189334Y-132419334D01*
X170819667Y-132419334D01*
X170819667Y-146558667D01*
G36*
X192018208Y-139478417D02*
G01*
X192007500Y-146537500D01*
X189202917Y-146548386D01*
X186398334Y-146559271D01*
X186398334Y-132419334D01*
X192028915Y-132419334D01*
X192018208Y-139478417D01*
G37*
X192018208Y-139478417D02*
X192007500Y-146537500D01*
X189202917Y-146548386D01*
X186398334Y-146559271D01*
X186398334Y-132419334D01*
X192028915Y-132419334D01*
X192018208Y-139478417D01*
G36*
X202590834Y-146537500D02*
G01*
X199786250Y-146548386D01*
X196981667Y-146559271D01*
X196981667Y-132419334D01*
X202612248Y-132419334D01*
X202590834Y-146537500D01*
G37*
X202590834Y-146537500D02*
X199786250Y-146548386D01*
X196981667Y-146559271D01*
X196981667Y-132419334D01*
X202612248Y-132419334D01*
X202590834Y-146537500D01*
G36*
X213195334Y-146558667D02*
G01*
X210408389Y-146558667D01*
X209930241Y-146558249D01*
X209477170Y-146557043D01*
X209056256Y-146555119D01*
X208674580Y-146552549D01*
X208339221Y-146549404D01*
X208057259Y-146545754D01*
X207835773Y-146541671D01*
X207681844Y-146537225D01*
X207602550Y-146532488D01*
X207593222Y-146530445D01*
X207590154Y-146485739D01*
X207587179Y-146360784D01*
X207584315Y-146159999D01*
X207581579Y-145887801D01*
X207578989Y-145548609D01*
X207576562Y-145146841D01*
X207574317Y-144686914D01*
X207572271Y-144173246D01*
X207570442Y-143610256D01*
X207568846Y-143002362D01*
X207567503Y-142353982D01*
X207566429Y-141669533D01*
X207565642Y-140953434D01*
X207565160Y-140210103D01*
X207565000Y-139460778D01*
X207565000Y-132419334D01*
X213195334Y-132419334D01*
X213195334Y-146558667D01*
G37*
X213195334Y-146558667D02*
X210408389Y-146558667D01*
X209930241Y-146558249D01*
X209477170Y-146557043D01*
X209056256Y-146555119D01*
X208674580Y-146552549D01*
X208339221Y-146549404D01*
X208057259Y-146545754D01*
X207835773Y-146541671D01*
X207681844Y-146537225D01*
X207602550Y-146532488D01*
X207593222Y-146530445D01*
X207590154Y-146485739D01*
X207587179Y-146360784D01*
X207584315Y-146159999D01*
X207581579Y-145887801D01*
X207578989Y-145548609D01*
X207576562Y-145146841D01*
X207574317Y-144686914D01*
X207572271Y-144173246D01*
X207570442Y-143610256D01*
X207568846Y-143002362D01*
X207567503Y-142353982D01*
X207566429Y-141669533D01*
X207565642Y-140953434D01*
X207565160Y-140210103D01*
X207565000Y-139460778D01*
X207565000Y-132419334D01*
X213195334Y-132419334D01*
X213195334Y-146558667D01*
%TD*%
D11*
%TO.P,Ref\u002A\u002A,2*%
%TO.N,N/C*%
X225939952Y-103010029D03*
%TO.P,Ref\u002A\u002A,1*%
X224939952Y-103010029D03*
%TD*%
%TO.P,Ref\u002A\u002A,2*%
%TO.N,N/C*%
X223889952Y-103010029D03*
%TO.P,Ref\u002A\u002A,1*%
X222889952Y-103010029D03*
%TD*%
%TO.P,Ref\u002A\u002A,2*%
%TO.N,N/C*%
X225909952Y-108000029D03*
%TO.P,Ref\u002A\u002A,1*%
X224909952Y-108000029D03*
%TD*%
%TO.P,Ref\u002A\u002A,2*%
%TO.N,N/C*%
X223859952Y-108000029D03*
%TO.P,Ref\u002A\u002A,1*%
X222859952Y-108000029D03*
%TD*%
D12*
%TO.P,J2,1*%
%TO.N,Net-(J2-Pad1)*%
X164630000Y-99680000D03*
%TD*%
D13*
%TO.P,R6,2*%
%TO.N,Net-(LS1-Pad1)*%
X235500000Y-120840000D03*
D14*
%TO.P,R6,1*%
%TO.N,GND*%
X235500000Y-131000000D03*
%TD*%
D11*
%TO.P,Ref\u002A\u002A,2*%
%TO.N,N/C*%
X163549952Y-107950029D03*
%TO.P,Ref\u002A\u002A,1*%
X162549952Y-107950029D03*
%TD*%
%TO.P,Ref\u002A\u002A,2*%
%TO.N,N/C*%
X165599952Y-107950029D03*
%TO.P,Ref\u002A\u002A,1*%
X164599952Y-107950029D03*
%TD*%
%TO.P,Ref\u002A\u002A,1*%
%TO.N,N/C*%
X166599952Y-107950029D03*
%TD*%
%TO.P,Ref\u002A\u002A,1*%
%TO.N,N/C*%
X166499952Y-103850029D03*
%TD*%
%TO.P,Ref\u002A\u002A,1*%
%TO.N,N/C*%
X164499952Y-103850029D03*
%TO.P,Ref\u002A\u002A,2*%
X165499952Y-103850029D03*
%TD*%
%TO.P,Ref\u002A\u002A,1*%
%TO.N,N/C*%
X162449952Y-103850029D03*
%TO.P,Ref\u002A\u002A,2*%
X163449952Y-103850029D03*
%TD*%
%TO.P,Ref\u002A\u002A,2*%
%TO.N,N/C*%
X200649952Y-108000029D03*
%TO.P,Ref\u002A\u002A,1*%
X199649952Y-108000029D03*
%TD*%
%TO.P,Ref\u002A\u002A,2*%
%TO.N,N/C*%
X198599952Y-108000029D03*
%TO.P,Ref\u002A\u002A,1*%
X197599952Y-108000029D03*
%TD*%
D15*
%TO.P,U1,13*%
%TO.N,Net-(RK12-Pad2)*%
X226150000Y-137450000D03*
%TO.P,U1,12*%
%TO.N,Net-(RK11-Pad2)*%
X217400000Y-137450000D03*
%TO.P,U1,11*%
%TO.N,Net-(RK10-Pad2)*%
X210400000Y-137450000D03*
D16*
%TO.P,U1,10*%
%TO.N,Net-(RK10-Pad1)*%
X205100000Y-137450000D03*
D15*
%TO.P,U1,9*%
%TO.N,Net-(RK8-Pad2)*%
X199900000Y-137450000D03*
%TO.P,U1,8*%
%TO.N,Net-(RK7-Pad2)*%
X194400000Y-137450000D03*
%TO.P,U1,7*%
%TO.N,Net-(RK6-Pad2)*%
X189400000Y-137450000D03*
%TO.P,U1,6*%
%TO.N,Net-(RK5-Pad2)*%
X182400000Y-137450000D03*
%TO.P,U1,5*%
%TO.N,Net-(RK4-Pad2)*%
X174900000Y-137450000D03*
D16*
%TO.P,U1,3*%
%TO.N,Net-(RK2-Pad2)*%
X162650000Y-137450000D03*
D15*
%TO.P,U1,4*%
%TO.N,Net-(RK3-Pad2)*%
X168150000Y-137450000D03*
%TO.P,U1,1*%
%TO.N,Net-(RK1-Pad1)*%
X150650000Y-137450000D03*
%TO.P,U1,2*%
%TO.N,Net-(RK1-Pad2)*%
X157400000Y-137450000D03*
%TD*%
%TO.P,LS1,2*%
%TO.N,Net-(LS1-Pad2)*%
%TA.AperFunction,ComponentPad*%
G36*
G01*
X144000000Y-129000000D02*
X143000000Y-129000000D01*
G75*
G02*
X142500000Y-128500000I0J500000D01*
G01*
X142500000Y-125500000D01*
G75*
G02*
X143000000Y-125000000I500000J0D01*
G01*
X144000000Y-125000000D01*
G75*
G02*
X144500000Y-125500000I0J-500000D01*
G01*
X144500000Y-128500000D01*
G75*
G02*
X144000000Y-129000000I-500000J0D01*
G01*
G37*
%TD.AperFunction*%
%TO.P,LS1,1*%
%TO.N,Net-(LS1-Pad1)*%
%TA.AperFunction,ComponentPad*%
G36*
G01*
X144000000Y-142000000D02*
X143000000Y-142000000D01*
G75*
G02*
X142500000Y-141500000I0J500000D01*
G01*
X142500000Y-138500000D01*
G75*
G02*
X143000000Y-138000000I500000J0D01*
G01*
X144000000Y-138000000D01*
G75*
G02*
X144500000Y-138500000I0J-500000D01*
G01*
X144500000Y-141500000D01*
G75*
G02*
X144000000Y-142000000I-500000J0D01*
G01*
G37*
%TD.AperFunction*%
%TD*%
D12*
%TO.P,J3,1*%
%TO.N,Net-(J3-Pad1)*%
X229100000Y-99700000D03*
%TD*%
%TO.P,J1,1*%
%TO.N,VS*%
X143250000Y-151000000D03*
%TD*%
D14*
%TO.P,C1,2*%
%TO.N,GND*%
X235500000Y-139250000D03*
%TO.P,C1,1*%
%TO.N,Net-(C1-Pad1)*%
X235500000Y-134250000D03*
%TD*%
D17*
%TO.P,Ref\u002A\u002A,4*%
%TO.N,N/C*%
X236550000Y-110900000D03*
%TO.P,Ref\u002A\u002A,3*%
X236550000Y-155492001D03*
%TO.P,Ref\u002A\u002A,2*%
X141957999Y-155492001D03*
%TO.P,Ref\u002A\u002A,1*%
X141957999Y-110900000D03*
%TD*%
D18*
%TO.P,RV6,1*%
%TO.N,Net-(C1-Pad1)*%
X221500000Y-128250000D03*
%TO.P,RV6,2*%
%TO.N,Net-(RK12-Pad2)*%
X231500000Y-125750000D03*
%TO.P,RV6,3*%
%TO.N,Net-(RV6-Pad3)*%
X221500000Y-123250000D03*
%TD*%
D13*
%TO.P,RK12,2*%
%TO.N,Net-(RK12-Pad2)*%
X217400000Y-120740000D03*
D14*
%TO.P,RK12,1*%
%TO.N,Net-(RK11-Pad2)*%
X217400000Y-130900000D03*
%TD*%
D13*
%TO.P,RK11,2*%
%TO.N,Net-(RK11-Pad2)*%
X210500000Y-120740000D03*
D14*
%TO.P,RK11,1*%
%TO.N,Net-(RK10-Pad2)*%
X210500000Y-130900000D03*
%TD*%
D13*
%TO.P,RK10,2*%
%TO.N,Net-(RK10-Pad2)*%
X205250000Y-120840000D03*
D14*
%TO.P,RK10,1*%
%TO.N,Net-(RK10-Pad1)*%
X205250000Y-131000000D03*
%TD*%
D13*
%TO.P,RK9,2*%
%TO.N,Net-(RK10-Pad1)*%
X200000000Y-120840000D03*
D14*
%TO.P,RK9,1*%
%TO.N,Net-(RK8-Pad2)*%
X200000000Y-131000000D03*
%TD*%
D13*
%TO.P,RK8,2*%
%TO.N,Net-(RK8-Pad2)*%
X194500000Y-120840000D03*
D14*
%TO.P,RK8,1*%
%TO.N,Net-(RK7-Pad2)*%
X194500000Y-131000000D03*
%TD*%
D13*
%TO.P,RK7,2*%
%TO.N,Net-(RK7-Pad2)*%
X189500000Y-120840000D03*
D14*
%TO.P,RK7,1*%
%TO.N,Net-(RK6-Pad2)*%
X189500000Y-131000000D03*
%TD*%
D13*
%TO.P,RK6,2*%
%TO.N,Net-(RK6-Pad2)*%
X182500000Y-120840000D03*
D14*
%TO.P,RK6,1*%
%TO.N,Net-(RK5-Pad2)*%
X182500000Y-131000000D03*
%TD*%
D13*
%TO.P,RK5,2*%
%TO.N,Net-(RK5-Pad2)*%
X175000000Y-120840000D03*
D14*
%TO.P,RK5,1*%
%TO.N,Net-(RK4-Pad2)*%
X175000000Y-131000000D03*
%TD*%
D13*
%TO.P,RK4,2*%
%TO.N,Net-(RK4-Pad2)*%
X168000000Y-120840000D03*
D14*
%TO.P,RK4,1*%
%TO.N,Net-(RK3-Pad2)*%
X168000000Y-131000000D03*
%TD*%
D13*
%TO.P,RK3,2*%
%TO.N,Net-(RK3-Pad2)*%
X162500000Y-120840000D03*
D14*
%TO.P,RK3,1*%
%TO.N,Net-(RK2-Pad2)*%
X162500000Y-131000000D03*
%TD*%
D13*
%TO.P,RK2,2*%
%TO.N,Net-(RK2-Pad2)*%
X157500000Y-120840000D03*
D14*
%TO.P,RK2,1*%
%TO.N,Net-(RK1-Pad2)*%
X157500000Y-131000000D03*
%TD*%
D13*
%TO.P,RK1,2*%
%TO.N,Net-(RK1-Pad2)*%
X150650000Y-120690000D03*
D14*
%TO.P,RK1,1*%
%TO.N,Net-(RK1-Pad1)*%
X150650000Y-130850000D03*
%TD*%
D13*
%TO.P,R5,2*%
%TO.N,Net-(Q3-Pad2)*%
X193410000Y-114500000D03*
D14*
%TO.P,R5,1*%
%TO.N,Net-(C1-Pad1)*%
X183250000Y-114500000D03*
%TD*%
D13*
%TO.P,R4,2*%
%TO.N,Net-(Q1-Pad2)*%
X206410000Y-114500000D03*
D14*
%TO.P,R4,1*%
%TO.N,GND*%
X196250000Y-114500000D03*
%TD*%
D13*
%TO.P,R3,2*%
%TO.N,Net-(J3-Pad1)*%
X197360000Y-99700000D03*
D14*
%TO.P,R3,1*%
%TO.N,Net-(J2-Pad1)*%
X187200000Y-99700000D03*
%TD*%
D13*
%TO.P,R2,2*%
%TO.N,Net-(D1-Pad1)*%
X232410000Y-114500000D03*
D14*
%TO.P,R2,1*%
%TO.N,Net-(Q1-Pad1)*%
X222250000Y-114500000D03*
%TD*%
D13*
%TO.P,R1,2*%
%TO.N,Net-(Q1-Pad1)*%
X219410000Y-114500000D03*
D14*
%TO.P,R1,1*%
%TO.N,GND*%
X209250000Y-114500000D03*
%TD*%
D19*
%TO.P,Q3,1*%
%TO.N,VS*%
X165000000Y-115400000D03*
%TO.P,Q3,3*%
%TO.N,Net-(Q2-Pad2)*%
%TA.AperFunction,ComponentPad*%
G36*
G01*
X166990000Y-116025000D02*
X166990000Y-114775000D01*
G75*
G02*
X167265000Y-114500000I275000J0D01*
G01*
X167815000Y-114500000D01*
G75*
G02*
X168090000Y-114775000I0J-275000D01*
G01*
X168090000Y-116025000D01*
G75*
G02*
X167815000Y-116300000I-275000J0D01*
G01*
X167265000Y-116300000D01*
G75*
G02*
X166990000Y-116025000I0J275000D01*
G01*
G37*
%TD.AperFunction*%
%TO.P,Q3,2*%
%TO.N,Net-(Q3-Pad2)*%
%TA.AperFunction,ComponentPad*%
G36*
G01*
X165720000Y-113955000D02*
X165720000Y-112705000D01*
G75*
G02*
X165995000Y-112430000I275000J0D01*
G01*
X166545000Y-112430000D01*
G75*
G02*
X166820000Y-112705000I0J-275000D01*
G01*
X166820000Y-113955000D01*
G75*
G02*
X166545000Y-114230000I-275000J0D01*
G01*
X165995000Y-114230000D01*
G75*
G02*
X165720000Y-113955000I0J275000D01*
G01*
G37*
%TD.AperFunction*%
%TD*%
%TO.P,Q2,1*%
%TO.N,VS*%
X156500000Y-115400000D03*
%TO.P,Q2,3*%
%TO.N,Net-(LS1-Pad2)*%
%TA.AperFunction,ComponentPad*%
G36*
G01*
X158490000Y-116025000D02*
X158490000Y-114775000D01*
G75*
G02*
X158765000Y-114500000I275000J0D01*
G01*
X159315000Y-114500000D01*
G75*
G02*
X159590000Y-114775000I0J-275000D01*
G01*
X159590000Y-116025000D01*
G75*
G02*
X159315000Y-116300000I-275000J0D01*
G01*
X158765000Y-116300000D01*
G75*
G02*
X158490000Y-116025000I0J275000D01*
G01*
G37*
%TD.AperFunction*%
%TO.P,Q2,2*%
%TO.N,Net-(Q2-Pad2)*%
%TA.AperFunction,ComponentPad*%
G36*
G01*
X157220000Y-113955000D02*
X157220000Y-112705000D01*
G75*
G02*
X157495000Y-112430000I275000J0D01*
G01*
X158045000Y-112430000D01*
G75*
G02*
X158320000Y-112705000I0J-275000D01*
G01*
X158320000Y-113955000D01*
G75*
G02*
X158045000Y-114230000I-275000J0D01*
G01*
X157495000Y-114230000D01*
G75*
G02*
X157220000Y-113955000I0J275000D01*
G01*
G37*
%TD.AperFunction*%
%TD*%
%TO.P,Q4,1*%
%TO.N,Net-(Q1-Pad2)*%
X175000000Y-115400000D03*
%TO.P,Q4,3*%
%TO.N,Net-(C1-Pad1)*%
%TA.AperFunction,ComponentPad*%
G36*
G01*
X176990000Y-116025000D02*
X176990000Y-114775000D01*
G75*
G02*
X177265000Y-114500000I275000J0D01*
G01*
X177815000Y-114500000D01*
G75*
G02*
X178090000Y-114775000I0J-275000D01*
G01*
X178090000Y-116025000D01*
G75*
G02*
X177815000Y-116300000I-275000J0D01*
G01*
X177265000Y-116300000D01*
G75*
G02*
X176990000Y-116025000I0J275000D01*
G01*
G37*
%TD.AperFunction*%
%TO.P,Q4,2*%
%TO.N,Net-(Q1-Pad1)*%
%TA.AperFunction,ComponentPad*%
G36*
G01*
X175720000Y-113955000D02*
X175720000Y-112705000D01*
G75*
G02*
X175995000Y-112430000I275000J0D01*
G01*
X176545000Y-112430000D01*
G75*
G02*
X176820000Y-112705000I0J-275000D01*
G01*
X176820000Y-113955000D01*
G75*
G02*
X176545000Y-114230000I-275000J0D01*
G01*
X175995000Y-114230000D01*
G75*
G02*
X175720000Y-113955000I0J275000D01*
G01*
G37*
%TD.AperFunction*%
%TD*%
%TO.P,Q1,1*%
%TO.N,Net-(Q1-Pad1)*%
X148000000Y-115400000D03*
%TO.P,Q1,3*%
%TO.N,GND*%
%TA.AperFunction,ComponentPad*%
G36*
G01*
X149990000Y-116025000D02*
X149990000Y-114775000D01*
G75*
G02*
X150265000Y-114500000I275000J0D01*
G01*
X150815000Y-114500000D01*
G75*
G02*
X151090000Y-114775000I0J-275000D01*
G01*
X151090000Y-116025000D01*
G75*
G02*
X150815000Y-116300000I-275000J0D01*
G01*
X150265000Y-116300000D01*
G75*
G02*
X149990000Y-116025000I0J275000D01*
G01*
G37*
%TD.AperFunction*%
%TO.P,Q1,2*%
%TO.N,Net-(Q1-Pad2)*%
%TA.AperFunction,ComponentPad*%
G36*
G01*
X148720000Y-113955000D02*
X148720000Y-112705000D01*
G75*
G02*
X148995000Y-112430000I275000J0D01*
G01*
X149545000Y-112430000D01*
G75*
G02*
X149820000Y-112705000I0J-275000D01*
G01*
X149820000Y-113955000D01*
G75*
G02*
X149545000Y-114230000I-275000J0D01*
G01*
X148995000Y-114230000D01*
G75*
G02*
X148720000Y-113955000I0J275000D01*
G01*
G37*
%TD.AperFunction*%
%TD*%
D20*
%TO.P,D1,2*%
%TO.N,VS*%
X235390000Y-145260000D03*
D21*
%TO.P,D1,1*%
%TO.N,Net-(D1-Pad1)*%
X235390000Y-142720000D03*
%TD*%
D22*
%TO.P,BT1,2*%
%TO.N,GND*%
X236640000Y-151550000D03*
D12*
%TO.P,BT1,1*%
%TO.N,+9V*%
X234100000Y-151550000D03*
%TD*%
D23*
%TO.N,GND*%
X236575001Y-151485001D02*
X236640000Y-151550000D01*
X235500000Y-139250000D02*
X237500000Y-137250000D01*
X237500000Y-133000000D02*
X235500000Y-131000000D01*
X237500000Y-137250000D02*
X237500000Y-133000000D01*
X236640000Y-151550000D02*
X238220000Y-149970000D01*
X238220000Y-141970000D02*
X235500000Y-139250000D01*
X238220000Y-149970000D02*
X238220000Y-141970000D01*
%TO.N,Net-(C1-Pad1)*%
X193750000Y-128250000D02*
X183250000Y-117750000D01*
X221500000Y-128250000D02*
X193750000Y-128250000D01*
X183250000Y-117750000D02*
X183250000Y-114500000D01*
X227250000Y-122500000D02*
X221500000Y-128250000D01*
X233500000Y-124000000D02*
X232000000Y-122500000D01*
X233500000Y-132250000D02*
X233500000Y-124000000D01*
X232000000Y-122500000D02*
X227250000Y-122500000D01*
X235500000Y-134250000D02*
X233500000Y-132250000D01*
%TO.N,VS*%
X165000000Y-115000000D02*
X165000000Y-116000000D01*
X165000000Y-116000000D02*
X163000000Y-118000000D01*
X159500000Y-118000000D02*
X156500000Y-115000000D01*
X163000000Y-118000000D02*
X159500000Y-118000000D01*
%TO.N,Net-(RK1-Pad2)*%
X157500000Y-137350000D02*
X157400000Y-137450000D01*
X157500000Y-131000000D02*
X157500000Y-137350000D01*
%TO.N,Net-(RK1-Pad1)*%
X150650000Y-130850000D02*
X150650000Y-137450000D01*
%TO.N,Net-(RK2-Pad2)*%
X162500000Y-137300000D02*
X162650000Y-137450000D01*
X162500000Y-131000000D02*
X162500000Y-137300000D01*
%TO.N,Net-(RK3-Pad2)*%
X168000000Y-137300000D02*
X168150000Y-137450000D01*
X168000000Y-131000000D02*
X168000000Y-137300000D01*
%TO.N,Net-(RK4-Pad2)*%
X175000000Y-137350000D02*
X174900000Y-137450000D01*
X175000000Y-131000000D02*
X175000000Y-137350000D01*
%TO.N,Net-(RK5-Pad2)*%
X182500000Y-137350000D02*
X182400000Y-137450000D01*
X182500000Y-131000000D02*
X182500000Y-137350000D01*
%TO.N,Net-(RK6-Pad2)*%
X189500000Y-137350000D02*
X189400000Y-137450000D01*
X189500000Y-131000000D02*
X189500000Y-137350000D01*
%TO.N,Net-(RK7-Pad2)*%
X194500000Y-137350000D02*
X194400000Y-137450000D01*
X194500000Y-131000000D02*
X194500000Y-137350000D01*
%TO.N,Net-(RK8-Pad2)*%
X200000000Y-137350000D02*
X199900000Y-137450000D01*
X200000000Y-131000000D02*
X200000000Y-137350000D01*
%TO.N,Net-(RK10-Pad1)*%
X205250000Y-137300000D02*
X205100000Y-137450000D01*
X205250000Y-131000000D02*
X205250000Y-137300000D01*
%TO.N,Net-(RK10-Pad2)*%
X210500000Y-137350000D02*
X210400000Y-137450000D01*
X210500000Y-130900000D02*
X210500000Y-137350000D01*
%TO.N,Net-(RK11-Pad2)*%
X217400000Y-130900000D02*
X217400000Y-137450000D01*
%TO.N,Net-(RK12-Pad2)*%
X226150000Y-131100000D02*
X231500000Y-125750000D01*
X226150000Y-137450000D02*
X226150000Y-131100000D01*
%TO.N,Net-(J2-Pad1)*%
X164650000Y-99700000D02*
X164630000Y-99680000D01*
X187200000Y-99700000D02*
X164650000Y-99700000D01*
%TO.N,Net-(J3-Pad1)*%
X229100000Y-99700000D02*
X197360000Y-99700000D01*
%TO.N,Net-(Q3-Pad2)*%
X167895010Y-112104990D02*
X166270000Y-113730000D01*
X191014990Y-112104990D02*
X167895010Y-112104990D01*
X193410000Y-114500000D02*
X191014990Y-112104990D01*
%TO.N,Net-(LS1-Pad1)*%
X235500000Y-120840000D02*
X235500000Y-112500000D01*
X235500000Y-112500000D02*
X233500000Y-110500000D01*
X141500000Y-138000000D02*
X143500000Y-140000000D01*
X141500000Y-115500000D02*
X141500000Y-138000000D01*
X145656094Y-111343906D02*
X146500000Y-110500000D01*
X141500000Y-115500000D02*
X145656094Y-111343906D01*
X233500000Y-110500000D02*
X146500000Y-110500000D01*
%TD*%
D24*
%TO.N,GND*%
X164181902Y-108732146D02*
X164342518Y-108798675D01*
X164513027Y-108832592D01*
X164686877Y-108832592D01*
X164857386Y-108798675D01*
X165018002Y-108732146D01*
X165099952Y-108677389D01*
X165181902Y-108732146D01*
X165342518Y-108798675D01*
X165513027Y-108832592D01*
X165686877Y-108832592D01*
X165857386Y-108798675D01*
X166018002Y-108732146D01*
X166099952Y-108677389D01*
X166181902Y-108732146D01*
X166342518Y-108798675D01*
X166401321Y-108810372D01*
X166415107Y-108836163D01*
X166506956Y-108948081D01*
X166604312Y-109027979D01*
X166618874Y-109039930D01*
X166746561Y-109108180D01*
X166885109Y-109150208D01*
X167029194Y-109164399D01*
X167065299Y-109160843D01*
X197188149Y-109160843D01*
X197224254Y-109164399D01*
X197260359Y-109160843D01*
X197368339Y-109150208D01*
X197506887Y-109108180D01*
X197634574Y-109039930D01*
X197746492Y-108948081D01*
X197822354Y-108855643D01*
X197857386Y-108848675D01*
X198018002Y-108782146D01*
X198099952Y-108727389D01*
X198181902Y-108782146D01*
X198342518Y-108848675D01*
X198513027Y-108882592D01*
X198686877Y-108882592D01*
X198857386Y-108848675D01*
X199018002Y-108782146D01*
X199124952Y-108710684D01*
X199231902Y-108782146D01*
X199392518Y-108848675D01*
X199563027Y-108882592D01*
X199736877Y-108882592D01*
X199907386Y-108848675D01*
X200068002Y-108782146D01*
X200149952Y-108727389D01*
X200231902Y-108782146D01*
X200392518Y-108848675D01*
X200515154Y-108873069D01*
X200576715Y-108948081D01*
X200674071Y-109027979D01*
X200688633Y-109039930D01*
X200816320Y-109108180D01*
X200954868Y-109150208D01*
X201098953Y-109164399D01*
X201135058Y-109160843D01*
X222421237Y-109160843D01*
X222457342Y-109164399D01*
X222493447Y-109160843D01*
X222601427Y-109150208D01*
X222739975Y-109108180D01*
X222867662Y-109039930D01*
X222979580Y-108948081D01*
X223050191Y-108862041D01*
X223117386Y-108848675D01*
X223278002Y-108782146D01*
X223359952Y-108727389D01*
X223441902Y-108782146D01*
X223602518Y-108848675D01*
X223773027Y-108882592D01*
X223946877Y-108882592D01*
X224117386Y-108848675D01*
X224278002Y-108782146D01*
X224384952Y-108710684D01*
X224491902Y-108782146D01*
X224652518Y-108848675D01*
X224823027Y-108882592D01*
X224996877Y-108882592D01*
X225167386Y-108848675D01*
X225328002Y-108782146D01*
X225409952Y-108727389D01*
X225491902Y-108782146D01*
X225652518Y-108848675D01*
X225756579Y-108869374D01*
X225821172Y-108948081D01*
X225918528Y-109027979D01*
X225933090Y-109039930D01*
X226060777Y-109108180D01*
X226199325Y-109150208D01*
X226343410Y-109164399D01*
X226379515Y-109160843D01*
X235881057Y-109160843D01*
X235667650Y-109249239D01*
X235362557Y-109453096D01*
X235103096Y-109712557D01*
X234899239Y-110017650D01*
X234758820Y-110356652D01*
X234704506Y-110629705D01*
X234063804Y-109989003D01*
X234040001Y-109959999D01*
X233924276Y-109865026D01*
X233792247Y-109794454D01*
X233648986Y-109750997D01*
X233537333Y-109740000D01*
X233537322Y-109740000D01*
X233500000Y-109736324D01*
X233462678Y-109740000D01*
X146537322Y-109740000D01*
X146499999Y-109736324D01*
X146462676Y-109740000D01*
X146462667Y-109740000D01*
X146351014Y-109750997D01*
X146207753Y-109794454D01*
X146075724Y-109865026D01*
X145959999Y-109959999D01*
X145936201Y-109988997D01*
X145145096Y-110780103D01*
X145145091Y-110780107D01*
X140989003Y-114936196D01*
X140959999Y-114959999D01*
X140904871Y-115027174D01*
X140865026Y-115075724D01*
X140843342Y-115116292D01*
X140794454Y-115207754D01*
X140750997Y-115351015D01*
X140740000Y-115462668D01*
X140740000Y-115462678D01*
X140736324Y-115500000D01*
X140740000Y-115537322D01*
X140740001Y-137962667D01*
X140736324Y-138000000D01*
X140750998Y-138148985D01*
X140794454Y-138292246D01*
X140865026Y-138424276D01*
X140927172Y-138500000D01*
X140960000Y-138540001D01*
X140988998Y-138563799D01*
X141861928Y-139436729D01*
X141861928Y-141500000D01*
X141883796Y-141722027D01*
X141948559Y-141935521D01*
X142053728Y-142132279D01*
X142195262Y-142304738D01*
X142367721Y-142446272D01*
X142564479Y-142551441D01*
X142777973Y-142616204D01*
X143000000Y-142638072D01*
X144000000Y-142638072D01*
X144222027Y-142616204D01*
X144435521Y-142551441D01*
X144632279Y-142446272D01*
X144804738Y-142304738D01*
X144946272Y-142132279D01*
X145051441Y-141935521D01*
X145116204Y-141722027D01*
X145138072Y-141500000D01*
X145138072Y-138500000D01*
X145116204Y-138277973D01*
X145051441Y-138064479D01*
X144946272Y-137867721D01*
X144804738Y-137695262D01*
X144632279Y-137553728D01*
X144435521Y-137448559D01*
X144222027Y-137383796D01*
X144000000Y-137361928D01*
X143000000Y-137361928D01*
X142777973Y-137383796D01*
X142564479Y-137448559D01*
X142367721Y-137553728D01*
X142260000Y-137642133D01*
X142260000Y-129357867D01*
X142367721Y-129446272D01*
X142564479Y-129551441D01*
X142777973Y-129616204D01*
X143000000Y-129638072D01*
X144000000Y-129638072D01*
X144222027Y-129616204D01*
X144435521Y-129551441D01*
X144632279Y-129446272D01*
X144804738Y-129304738D01*
X144946272Y-129132279D01*
X145051441Y-128935521D01*
X145116204Y-128722027D01*
X145138072Y-128500000D01*
X145138072Y-125500000D01*
X145116204Y-125277973D01*
X145051441Y-125064479D01*
X144946272Y-124867721D01*
X144804738Y-124695262D01*
X144632279Y-124553728D01*
X144435521Y-124448559D01*
X144222027Y-124383796D01*
X144000000Y-124361928D01*
X143000000Y-124361928D01*
X142777973Y-124383796D01*
X142564479Y-124448559D01*
X142367721Y-124553728D01*
X142260000Y-124642133D01*
X142260000Y-120548665D01*
X149215000Y-120548665D01*
X149215000Y-120831335D01*
X149270147Y-121108574D01*
X149378320Y-121369727D01*
X149535363Y-121604759D01*
X149735241Y-121804637D01*
X149970273Y-121961680D01*
X150231426Y-122069853D01*
X150508665Y-122125000D01*
X150791335Y-122125000D01*
X151068574Y-122069853D01*
X151329727Y-121961680D01*
X151564759Y-121804637D01*
X151764637Y-121604759D01*
X151921680Y-121369727D01*
X152029853Y-121108574D01*
X152085000Y-120831335D01*
X152085000Y-120698665D01*
X156065000Y-120698665D01*
X156065000Y-120981335D01*
X156120147Y-121258574D01*
X156228320Y-121519727D01*
X156385363Y-121754759D01*
X156585241Y-121954637D01*
X156820273Y-122111680D01*
X157081426Y-122219853D01*
X157358665Y-122275000D01*
X157641335Y-122275000D01*
X157918574Y-122219853D01*
X158179727Y-122111680D01*
X158414759Y-121954637D01*
X158614637Y-121754759D01*
X158771680Y-121519727D01*
X158879853Y-121258574D01*
X158935000Y-120981335D01*
X158935000Y-120698665D01*
X161065000Y-120698665D01*
X161065000Y-120981335D01*
X161120147Y-121258574D01*
X161228320Y-121519727D01*
X161385363Y-121754759D01*
X161585241Y-121954637D01*
X161820273Y-122111680D01*
X162081426Y-122219853D01*
X162358665Y-122275000D01*
X162641335Y-122275000D01*
X162918574Y-122219853D01*
X163179727Y-122111680D01*
X163414759Y-121954637D01*
X163614637Y-121754759D01*
X163771680Y-121519727D01*
X163879853Y-121258574D01*
X163935000Y-120981335D01*
X163935000Y-120698665D01*
X166565000Y-120698665D01*
X166565000Y-120981335D01*
X166620147Y-121258574D01*
X166728320Y-121519727D01*
X166885363Y-121754759D01*
X167085241Y-121954637D01*
X167320273Y-122111680D01*
X167581426Y-122219853D01*
X167858665Y-122275000D01*
X168141335Y-122275000D01*
X168418574Y-122219853D01*
X168679727Y-122111680D01*
X168914759Y-121954637D01*
X169114637Y-121754759D01*
X169271680Y-121519727D01*
X169379853Y-121258574D01*
X169435000Y-120981335D01*
X169435000Y-120698665D01*
X173565000Y-120698665D01*
X173565000Y-120981335D01*
X173620147Y-121258574D01*
X173728320Y-121519727D01*
X173885363Y-121754759D01*
X174085241Y-121954637D01*
X174320273Y-122111680D01*
X174581426Y-122219853D01*
X174858665Y-122275000D01*
X175141335Y-122275000D01*
X175418574Y-122219853D01*
X175679727Y-122111680D01*
X175914759Y-121954637D01*
X176114637Y-121754759D01*
X176271680Y-121519727D01*
X176379853Y-121258574D01*
X176435000Y-120981335D01*
X176435000Y-120698665D01*
X181065000Y-120698665D01*
X181065000Y-120981335D01*
X181120147Y-121258574D01*
X181228320Y-121519727D01*
X181385363Y-121754759D01*
X181585241Y-121954637D01*
X181820273Y-122111680D01*
X182081426Y-122219853D01*
X182358665Y-122275000D01*
X182641335Y-122275000D01*
X182918574Y-122219853D01*
X183179727Y-122111680D01*
X183414759Y-121954637D01*
X183614637Y-121754759D01*
X183771680Y-121519727D01*
X183879853Y-121258574D01*
X183935000Y-120981335D01*
X183935000Y-120698665D01*
X183879853Y-120421426D01*
X183771680Y-120160273D01*
X183614637Y-119925241D01*
X183414759Y-119725363D01*
X183179727Y-119568320D01*
X182918574Y-119460147D01*
X182641335Y-119405000D01*
X182358665Y-119405000D01*
X182081426Y-119460147D01*
X181820273Y-119568320D01*
X181585241Y-119725363D01*
X181385363Y-119925241D01*
X181228320Y-120160273D01*
X181120147Y-120421426D01*
X181065000Y-120698665D01*
X176435000Y-120698665D01*
X176379853Y-120421426D01*
X176271680Y-120160273D01*
X176114637Y-119925241D01*
X175914759Y-119725363D01*
X175679727Y-119568320D01*
X175418574Y-119460147D01*
X175141335Y-119405000D01*
X174858665Y-119405000D01*
X174581426Y-119460147D01*
X174320273Y-119568320D01*
X174085241Y-119725363D01*
X173885363Y-119925241D01*
X173728320Y-120160273D01*
X173620147Y-120421426D01*
X173565000Y-120698665D01*
X169435000Y-120698665D01*
X169379853Y-120421426D01*
X169271680Y-120160273D01*
X169114637Y-119925241D01*
X168914759Y-119725363D01*
X168679727Y-119568320D01*
X168418574Y-119460147D01*
X168141335Y-119405000D01*
X167858665Y-119405000D01*
X167581426Y-119460147D01*
X167320273Y-119568320D01*
X167085241Y-119725363D01*
X166885363Y-119925241D01*
X166728320Y-120160273D01*
X166620147Y-120421426D01*
X166565000Y-120698665D01*
X163935000Y-120698665D01*
X163879853Y-120421426D01*
X163771680Y-120160273D01*
X163614637Y-119925241D01*
X163414759Y-119725363D01*
X163179727Y-119568320D01*
X162918574Y-119460147D01*
X162641335Y-119405000D01*
X162358665Y-119405000D01*
X162081426Y-119460147D01*
X161820273Y-119568320D01*
X161585241Y-119725363D01*
X161385363Y-119925241D01*
X161228320Y-120160273D01*
X161120147Y-120421426D01*
X161065000Y-120698665D01*
X158935000Y-120698665D01*
X158879853Y-120421426D01*
X158771680Y-120160273D01*
X158614637Y-119925241D01*
X158414759Y-119725363D01*
X158179727Y-119568320D01*
X157918574Y-119460147D01*
X157641335Y-119405000D01*
X157358665Y-119405000D01*
X157081426Y-119460147D01*
X156820273Y-119568320D01*
X156585241Y-119725363D01*
X156385363Y-119925241D01*
X156228320Y-120160273D01*
X156120147Y-120421426D01*
X156065000Y-120698665D01*
X152085000Y-120698665D01*
X152085000Y-120548665D01*
X152029853Y-120271426D01*
X151921680Y-120010273D01*
X151764637Y-119775241D01*
X151564759Y-119575363D01*
X151329727Y-119418320D01*
X151068574Y-119310147D01*
X150791335Y-119255000D01*
X150508665Y-119255000D01*
X150231426Y-119310147D01*
X149970273Y-119418320D01*
X149735241Y-119575363D01*
X149535363Y-119775241D01*
X149378320Y-120010273D01*
X149270147Y-120271426D01*
X149215000Y-120548665D01*
X142260000Y-120548665D01*
X142260000Y-115814801D01*
X143574801Y-114500000D01*
X146811928Y-114500000D01*
X146811928Y-116300000D01*
X146824188Y-116424482D01*
X146860498Y-116544180D01*
X146919463Y-116654494D01*
X146998815Y-116751185D01*
X147095506Y-116830537D01*
X147205820Y-116889502D01*
X147325518Y-116925812D01*
X147450000Y-116938072D01*
X148550000Y-116938072D01*
X148674482Y-116925812D01*
X148794180Y-116889502D01*
X148904494Y-116830537D01*
X149001185Y-116751185D01*
X149080537Y-116654494D01*
X149139502Y-116544180D01*
X149175812Y-116424482D01*
X149188072Y-116300000D01*
X149351928Y-116300000D01*
X149364188Y-116424482D01*
X149400498Y-116544180D01*
X149459463Y-116654494D01*
X149538815Y-116751185D01*
X149635506Y-116830537D01*
X149745820Y-116889502D01*
X149865518Y-116925812D01*
X149990000Y-116938072D01*
X150254250Y-116935000D01*
X150413000Y-116776250D01*
X150413000Y-115527000D01*
X150667000Y-115527000D01*
X150667000Y-116776250D01*
X150825750Y-116935000D01*
X151090000Y-116938072D01*
X151214482Y-116925812D01*
X151334180Y-116889502D01*
X151444494Y-116830537D01*
X151541185Y-116751185D01*
X151620537Y-116654494D01*
X151679502Y-116544180D01*
X151715812Y-116424482D01*
X151728072Y-116300000D01*
X151725000Y-115685750D01*
X151566250Y-115527000D01*
X150667000Y-115527000D01*
X150413000Y-115527000D01*
X149513750Y-115527000D01*
X149355000Y-115685750D01*
X149351928Y-116300000D01*
X149188072Y-116300000D01*
X149188072Y-114868072D01*
X149353769Y-114868072D01*
X149355000Y-115114250D01*
X149513750Y-115273000D01*
X150413000Y-115273000D01*
X150413000Y-114223880D01*
X150440528Y-114133132D01*
X150451300Y-114023750D01*
X150667000Y-114023750D01*
X150667000Y-115273000D01*
X151566250Y-115273000D01*
X151725000Y-115114250D01*
X151728072Y-114500000D01*
X155311928Y-114500000D01*
X155311928Y-116300000D01*
X155324188Y-116424482D01*
X155360498Y-116544180D01*
X155419463Y-116654494D01*
X155498815Y-116751185D01*
X155595506Y-116830537D01*
X155705820Y-116889502D01*
X155825518Y-116925812D01*
X155950000Y-116938072D01*
X157050000Y-116938072D01*
X157174482Y-116925812D01*
X157294180Y-116889502D01*
X157307553Y-116882354D01*
X158936201Y-118511003D01*
X158959999Y-118540001D01*
X159075724Y-118634974D01*
X159207753Y-118705546D01*
X159351014Y-118749003D01*
X159462667Y-118760000D01*
X159462675Y-118760000D01*
X159500000Y-118763676D01*
X159537325Y-118760000D01*
X162962678Y-118760000D01*
X163000000Y-118763676D01*
X163037322Y-118760000D01*
X163037333Y-118760000D01*
X163148986Y-118749003D01*
X163292247Y-118705546D01*
X163424276Y-118634974D01*
X163540001Y-118540001D01*
X163563804Y-118510997D01*
X165136730Y-116938072D01*
X165550000Y-116938072D01*
X165674482Y-116925812D01*
X165794180Y-116889502D01*
X165904494Y-116830537D01*
X166001185Y-116751185D01*
X166080537Y-116654494D01*
X166139502Y-116544180D01*
X166175812Y-116424482D01*
X166188072Y-116300000D01*
X166188072Y-114868072D01*
X166351928Y-114868072D01*
X166351928Y-116025000D01*
X166369472Y-116203132D01*
X166421431Y-116374418D01*
X166505808Y-116532276D01*
X166619361Y-116670639D01*
X166757724Y-116784192D01*
X166915582Y-116868569D01*
X167086868Y-116920528D01*
X167265000Y-116938072D01*
X167815000Y-116938072D01*
X167993132Y-116920528D01*
X168164418Y-116868569D01*
X168322276Y-116784192D01*
X168460639Y-116670639D01*
X168574192Y-116532276D01*
X168658569Y-116374418D01*
X168710528Y-116203132D01*
X168728072Y-116025000D01*
X168728072Y-114775000D01*
X168710528Y-114596868D01*
X168658569Y-114425582D01*
X168574192Y-114267724D01*
X168460639Y-114129361D01*
X168322276Y-114015808D01*
X168164418Y-113931431D01*
X167993132Y-113879472D01*
X167815000Y-113861928D01*
X167458072Y-113861928D01*
X167458072Y-113616729D01*
X168209812Y-112864990D01*
X175081928Y-112864990D01*
X175081928Y-113861928D01*
X174450000Y-113861928D01*
X174325518Y-113874188D01*
X174205820Y-113910498D01*
X174095506Y-113969463D01*
X173998815Y-114048815D01*
X173919463Y-114145506D01*
X173860498Y-114255820D01*
X173824188Y-114375518D01*
X173811928Y-114500000D01*
X173811928Y-116300000D01*
X173824188Y-116424482D01*
X173860498Y-116544180D01*
X173919463Y-116654494D01*
X173998815Y-116751185D01*
X174095506Y-116830537D01*
X174205820Y-116889502D01*
X174325518Y-116925812D01*
X174450000Y-116938072D01*
X175550000Y-116938072D01*
X175674482Y-116925812D01*
X175794180Y-116889502D01*
X175904494Y-116830537D01*
X176001185Y-116751185D01*
X176080537Y-116654494D01*
X176139502Y-116544180D01*
X176175812Y-116424482D01*
X176188072Y-116300000D01*
X176188072Y-114868072D01*
X176351928Y-114868072D01*
X176351928Y-116025000D01*
X176369472Y-116203132D01*
X176421431Y-116374418D01*
X176505808Y-116532276D01*
X176619361Y-116670639D01*
X176757724Y-116784192D01*
X176915582Y-116868569D01*
X177086868Y-116920528D01*
X177265000Y-116938072D01*
X177815000Y-116938072D01*
X177993132Y-116920528D01*
X178164418Y-116868569D01*
X178322276Y-116784192D01*
X178460639Y-116670639D01*
X178574192Y-116532276D01*
X178658569Y-116374418D01*
X178710528Y-116203132D01*
X178728072Y-116025000D01*
X178728072Y-114775000D01*
X178710528Y-114596868D01*
X178658569Y-114425582D01*
X178574192Y-114267724D01*
X178460639Y-114129361D01*
X178322276Y-114015808D01*
X178164418Y-113931431D01*
X177993132Y-113879472D01*
X177815000Y-113861928D01*
X177458072Y-113861928D01*
X177458072Y-112864990D01*
X190700189Y-112864990D01*
X192011312Y-114176114D01*
X191975000Y-114358665D01*
X191975000Y-114641335D01*
X192030147Y-114918574D01*
X192138320Y-115179727D01*
X192295363Y-115414759D01*
X192495241Y-115614637D01*
X192730273Y-115771680D01*
X192991426Y-115879853D01*
X193268665Y-115935000D01*
X193551335Y-115935000D01*
X193828574Y-115879853D01*
X194089727Y-115771680D01*
X194324759Y-115614637D01*
X194446694Y-115492702D01*
X195436903Y-115492702D01*
X195508486Y-115736671D01*
X195763996Y-115857571D01*
X196038184Y-115926300D01*
X196320512Y-115940217D01*
X196600130Y-115898787D01*
X196866292Y-115803603D01*
X196991514Y-115736671D01*
X197063097Y-115492702D01*
X196250000Y-114679605D01*
X195436903Y-115492702D01*
X194446694Y-115492702D01*
X194524637Y-115414759D01*
X194681680Y-115179727D01*
X194789853Y-114918574D01*
X194830831Y-114712567D01*
X194851213Y-114850130D01*
X194946397Y-115116292D01*
X195013329Y-115241514D01*
X195257298Y-115313097D01*
X196070395Y-114500000D01*
X196429605Y-114500000D01*
X197242702Y-115313097D01*
X197486671Y-115241514D01*
X197607571Y-114986004D01*
X197676300Y-114711816D01*
X197690217Y-114429488D01*
X197679724Y-114358665D01*
X204975000Y-114358665D01*
X204975000Y-114641335D01*
X205030147Y-114918574D01*
X205138320Y-115179727D01*
X205295363Y-115414759D01*
X205495241Y-115614637D01*
X205730273Y-115771680D01*
X205991426Y-115879853D01*
X206268665Y-115935000D01*
X206551335Y-115935000D01*
X206828574Y-115879853D01*
X207089727Y-115771680D01*
X207324759Y-115614637D01*
X207446694Y-115492702D01*
X208436903Y-115492702D01*
X208508486Y-115736671D01*
X208763996Y-115857571D01*
X209038184Y-115926300D01*
X209320512Y-115940217D01*
X209600130Y-115898787D01*
X209866292Y-115803603D01*
X209991514Y-115736671D01*
X210063097Y-115492702D01*
X209250000Y-114679605D01*
X208436903Y-115492702D01*
X207446694Y-115492702D01*
X207524637Y-115414759D01*
X207681680Y-115179727D01*
X207789853Y-114918574D01*
X207830831Y-114712567D01*
X207851213Y-114850130D01*
X207946397Y-115116292D01*
X208013329Y-115241514D01*
X208257298Y-115313097D01*
X209070395Y-114500000D01*
X209429605Y-114500000D01*
X210242702Y-115313097D01*
X210486671Y-115241514D01*
X210607571Y-114986004D01*
X210676300Y-114711816D01*
X210690217Y-114429488D01*
X210679724Y-114358665D01*
X217975000Y-114358665D01*
X217975000Y-114641335D01*
X218030147Y-114918574D01*
X218138320Y-115179727D01*
X218295363Y-115414759D01*
X218495241Y-115614637D01*
X218730273Y-115771680D01*
X218991426Y-115879853D01*
X219268665Y-115935000D01*
X219551335Y-115935000D01*
X219828574Y-115879853D01*
X220089727Y-115771680D01*
X220324759Y-115614637D01*
X220524637Y-115414759D01*
X220681680Y-115179727D01*
X220789853Y-114918574D01*
X220830000Y-114716744D01*
X220870147Y-114918574D01*
X220978320Y-115179727D01*
X221135363Y-115414759D01*
X221335241Y-115614637D01*
X221570273Y-115771680D01*
X221831426Y-115879853D01*
X222108665Y-115935000D01*
X222391335Y-115935000D01*
X222668574Y-115879853D01*
X222929727Y-115771680D01*
X223164759Y-115614637D01*
X223364637Y-115414759D01*
X223521680Y-115179727D01*
X223629853Y-114918574D01*
X223685000Y-114641335D01*
X223685000Y-114358665D01*
X230975000Y-114358665D01*
X230975000Y-114641335D01*
X231030147Y-114918574D01*
X231138320Y-115179727D01*
X231295363Y-115414759D01*
X231495241Y-115614637D01*
X231730273Y-115771680D01*
X231991426Y-115879853D01*
X232268665Y-115935000D01*
X232551335Y-115935000D01*
X232828574Y-115879853D01*
X233089727Y-115771680D01*
X233324759Y-115614637D01*
X233524637Y-115414759D01*
X233681680Y-115179727D01*
X233789853Y-114918574D01*
X233845000Y-114641335D01*
X233845000Y-114358665D01*
X233789853Y-114081426D01*
X233681680Y-113820273D01*
X233524637Y-113585241D01*
X233324759Y-113385363D01*
X233089727Y-113228320D01*
X232828574Y-113120147D01*
X232551335Y-113065000D01*
X232268665Y-113065000D01*
X231991426Y-113120147D01*
X231730273Y-113228320D01*
X231495241Y-113385363D01*
X231295363Y-113585241D01*
X231138320Y-113820273D01*
X231030147Y-114081426D01*
X230975000Y-114358665D01*
X223685000Y-114358665D01*
X223629853Y-114081426D01*
X223521680Y-113820273D01*
X223364637Y-113585241D01*
X223164759Y-113385363D01*
X222929727Y-113228320D01*
X222668574Y-113120147D01*
X222391335Y-113065000D01*
X222108665Y-113065000D01*
X221831426Y-113120147D01*
X221570273Y-113228320D01*
X221335241Y-113385363D01*
X221135363Y-113585241D01*
X220978320Y-113820273D01*
X220870147Y-114081426D01*
X220830000Y-114283256D01*
X220789853Y-114081426D01*
X220681680Y-113820273D01*
X220524637Y-113585241D01*
X220324759Y-113385363D01*
X220089727Y-113228320D01*
X219828574Y-113120147D01*
X219551335Y-113065000D01*
X219268665Y-113065000D01*
X218991426Y-113120147D01*
X218730273Y-113228320D01*
X218495241Y-113385363D01*
X218295363Y-113585241D01*
X218138320Y-113820273D01*
X218030147Y-114081426D01*
X217975000Y-114358665D01*
X210679724Y-114358665D01*
X210648787Y-114149870D01*
X210553603Y-113883708D01*
X210486671Y-113758486D01*
X210242702Y-113686903D01*
X209429605Y-114500000D01*
X209070395Y-114500000D01*
X208257298Y-113686903D01*
X208013329Y-113758486D01*
X207892429Y-114013996D01*
X207827759Y-114271990D01*
X207789853Y-114081426D01*
X207681680Y-113820273D01*
X207524637Y-113585241D01*
X207446694Y-113507298D01*
X208436903Y-113507298D01*
X209250000Y-114320395D01*
X210063097Y-113507298D01*
X209991514Y-113263329D01*
X209736004Y-113142429D01*
X209461816Y-113073700D01*
X209179488Y-113059783D01*
X208899870Y-113101213D01*
X208633708Y-113196397D01*
X208508486Y-113263329D01*
X208436903Y-113507298D01*
X207446694Y-113507298D01*
X207324759Y-113385363D01*
X207089727Y-113228320D01*
X206828574Y-113120147D01*
X206551335Y-113065000D01*
X206268665Y-113065000D01*
X205991426Y-113120147D01*
X205730273Y-113228320D01*
X205495241Y-113385363D01*
X205295363Y-113585241D01*
X205138320Y-113820273D01*
X205030147Y-114081426D01*
X204975000Y-114358665D01*
X197679724Y-114358665D01*
X197648787Y-114149870D01*
X197553603Y-113883708D01*
X197486671Y-113758486D01*
X197242702Y-113686903D01*
X196429605Y-114500000D01*
X196070395Y-114500000D01*
X195257298Y-113686903D01*
X195013329Y-113758486D01*
X194892429Y-114013996D01*
X194827759Y-114271990D01*
X194789853Y-114081426D01*
X194681680Y-113820273D01*
X194524637Y-113585241D01*
X194446694Y-113507298D01*
X195436903Y-113507298D01*
X196250000Y-114320395D01*
X197063097Y-113507298D01*
X196991514Y-113263329D01*
X196736004Y-113142429D01*
X196461816Y-113073700D01*
X196179488Y-113059783D01*
X195899870Y-113101213D01*
X195633708Y-113196397D01*
X195508486Y-113263329D01*
X195436903Y-113507298D01*
X194446694Y-113507298D01*
X194324759Y-113385363D01*
X194089727Y-113228320D01*
X193828574Y-113120147D01*
X193551335Y-113065000D01*
X193268665Y-113065000D01*
X193086114Y-113101312D01*
X191578794Y-111593993D01*
X191554991Y-111564989D01*
X191439266Y-111470016D01*
X191307237Y-111399444D01*
X191163976Y-111355987D01*
X191052323Y-111344990D01*
X191052312Y-111344990D01*
X191014990Y-111341314D01*
X190977668Y-111344990D01*
X167932332Y-111344990D01*
X167895009Y-111341314D01*
X167857686Y-111344990D01*
X167857677Y-111344990D01*
X167746024Y-111355987D01*
X167602763Y-111399444D01*
X167470734Y-111470016D01*
X167355009Y-111564989D01*
X167331211Y-111593987D01*
X167004778Y-111920420D01*
X166894418Y-111861431D01*
X166723132Y-111809472D01*
X166545000Y-111791928D01*
X165995000Y-111791928D01*
X165816868Y-111809472D01*
X165645582Y-111861431D01*
X165487724Y-111945808D01*
X165349361Y-112059361D01*
X165235808Y-112197724D01*
X165151431Y-112355582D01*
X165099472Y-112526868D01*
X165081928Y-112705000D01*
X165081928Y-113861928D01*
X164450000Y-113861928D01*
X164325518Y-113874188D01*
X164205820Y-113910498D01*
X164095506Y-113969463D01*
X163998815Y-114048815D01*
X163919463Y-114145506D01*
X163860498Y-114255820D01*
X163824188Y-114375518D01*
X163811928Y-114500000D01*
X163811928Y-116113270D01*
X162685199Y-117240000D01*
X159814802Y-117240000D01*
X159494818Y-116920016D01*
X159664418Y-116868569D01*
X159822276Y-116784192D01*
X159960639Y-116670639D01*
X160074192Y-116532276D01*
X160158569Y-116374418D01*
X160210528Y-116203132D01*
X160228072Y-116025000D01*
X160228072Y-114775000D01*
X160210528Y-114596868D01*
X160158569Y-114425582D01*
X160074192Y-114267724D01*
X159960639Y-114129361D01*
X159822276Y-114015808D01*
X159664418Y-113931431D01*
X159493132Y-113879472D01*
X159315000Y-113861928D01*
X158958072Y-113861928D01*
X158958072Y-112705000D01*
X158940528Y-112526868D01*
X158888569Y-112355582D01*
X158804192Y-112197724D01*
X158690639Y-112059361D01*
X158552276Y-111945808D01*
X158394418Y-111861431D01*
X158223132Y-111809472D01*
X158045000Y-111791928D01*
X157495000Y-111791928D01*
X157316868Y-111809472D01*
X157145582Y-111861431D01*
X156987724Y-111945808D01*
X156849361Y-112059361D01*
X156735808Y-112197724D01*
X156651431Y-112355582D01*
X156599472Y-112526868D01*
X156581928Y-112705000D01*
X156581928Y-113861928D01*
X155950000Y-113861928D01*
X155825518Y-113874188D01*
X155705820Y-113910498D01*
X155595506Y-113969463D01*
X155498815Y-114048815D01*
X155419463Y-114145506D01*
X155360498Y-114255820D01*
X155324188Y-114375518D01*
X155311928Y-114500000D01*
X151728072Y-114500000D01*
X151715812Y-114375518D01*
X151679502Y-114255820D01*
X151620537Y-114145506D01*
X151541185Y-114048815D01*
X151444494Y-113969463D01*
X151334180Y-113910498D01*
X151214482Y-113874188D01*
X151090000Y-113861928D01*
X150825750Y-113865000D01*
X150667000Y-114023750D01*
X150451300Y-114023750D01*
X150458072Y-113955000D01*
X150458072Y-112705000D01*
X150440528Y-112526868D01*
X150388569Y-112355582D01*
X150304192Y-112197724D01*
X150190639Y-112059361D01*
X150052276Y-111945808D01*
X149894418Y-111861431D01*
X149723132Y-111809472D01*
X149545000Y-111791928D01*
X148995000Y-111791928D01*
X148816868Y-111809472D01*
X148645582Y-111861431D01*
X148487724Y-111945808D01*
X148349361Y-112059361D01*
X148235808Y-112197724D01*
X148151431Y-112355582D01*
X148099472Y-112526868D01*
X148081928Y-112705000D01*
X148081928Y-113861928D01*
X147450000Y-113861928D01*
X147325518Y-113874188D01*
X147205820Y-113910498D01*
X147095506Y-113969463D01*
X146998815Y-114048815D01*
X146919463Y-114145506D01*
X146860498Y-114255820D01*
X146824188Y-114375518D01*
X146811928Y-114500000D01*
X143574801Y-114500000D01*
X146219893Y-111854909D01*
X146219897Y-111854904D01*
X146814802Y-111260000D01*
X233185199Y-111260000D01*
X234740001Y-112814803D01*
X234740000Y-119621956D01*
X234585241Y-119725363D01*
X234385363Y-119925241D01*
X234228320Y-120160273D01*
X234120147Y-120421426D01*
X234065000Y-120698665D01*
X234065000Y-120981335D01*
X234120147Y-121258574D01*
X234228320Y-121519727D01*
X234385363Y-121754759D01*
X234585241Y-121954637D01*
X234820273Y-122111680D01*
X235081426Y-122219853D01*
X235358665Y-122275000D01*
X235641335Y-122275000D01*
X235918574Y-122219853D01*
X236179727Y-122111680D01*
X236414759Y-121954637D01*
X236614637Y-121754759D01*
X236771680Y-121519727D01*
X236879853Y-121258574D01*
X236935000Y-120981335D01*
X236935000Y-120698665D01*
X236879853Y-120421426D01*
X236771680Y-120160273D01*
X236614637Y-119925241D01*
X236414759Y-119725363D01*
X236260000Y-119621957D01*
X236260000Y-112741574D01*
X236366534Y-112762765D01*
X236733466Y-112762765D01*
X237093348Y-112691180D01*
X237432350Y-112550761D01*
X237737443Y-112346904D01*
X237996904Y-112087443D01*
X238200761Y-111782350D01*
X238341180Y-111443348D01*
X238412765Y-111083466D01*
X238412765Y-110716534D01*
X238341180Y-110356652D01*
X238200761Y-110017650D01*
X237996904Y-109712557D01*
X237737443Y-109453096D01*
X237432350Y-109249239D01*
X237218943Y-109160843D01*
X237241636Y-109160843D01*
X237391375Y-109168354D01*
X237508489Y-109186128D01*
X237696915Y-109239336D01*
X237864044Y-109314612D01*
X238017274Y-109412633D01*
X238154428Y-109531355D01*
X238273145Y-109668503D01*
X238371162Y-109821728D01*
X238446442Y-109988867D01*
X238499650Y-110177291D01*
X238517424Y-110294403D01*
X238524937Y-110444170D01*
X238524936Y-156407591D01*
X238517424Y-156557335D01*
X238499650Y-156674451D01*
X238446442Y-156862874D01*
X238371164Y-157030008D01*
X238273145Y-157183236D01*
X238154428Y-157320384D01*
X238017274Y-157439106D01*
X237864044Y-157537127D01*
X237696915Y-157612403D01*
X237508489Y-157665611D01*
X237391376Y-157683385D01*
X237241630Y-157690897D01*
X231886631Y-157690897D01*
X231897681Y-157656063D01*
X231897931Y-157653835D01*
X231898595Y-157651690D01*
X231904887Y-157591823D01*
X231911605Y-157531936D01*
X231911635Y-157527621D01*
X231911651Y-157527468D01*
X231911637Y-157527315D01*
X231911667Y-157523000D01*
X231911667Y-155308535D01*
X234687235Y-155308535D01*
X234687235Y-155675467D01*
X234758820Y-156035349D01*
X234899239Y-156374351D01*
X235103096Y-156679444D01*
X235362557Y-156938905D01*
X235667650Y-157142762D01*
X236006652Y-157283181D01*
X236366534Y-157354766D01*
X236733466Y-157354766D01*
X237093348Y-157283181D01*
X237432350Y-157142762D01*
X237737443Y-156938905D01*
X237996904Y-156679444D01*
X238200761Y-156374351D01*
X238341180Y-156035349D01*
X238412765Y-155675467D01*
X238412765Y-155308535D01*
X238341180Y-154948653D01*
X238200761Y-154609651D01*
X237996904Y-154304558D01*
X237737443Y-154045097D01*
X237432350Y-153841240D01*
X237093348Y-153700821D01*
X236733466Y-153629236D01*
X236366534Y-153629236D01*
X236006652Y-153700821D01*
X235667650Y-153841240D01*
X235362557Y-154045097D01*
X235103096Y-154304558D01*
X234899239Y-154609651D01*
X234758820Y-154948653D01*
X234687235Y-155308535D01*
X231911667Y-155308535D01*
X231911667Y-150700000D01*
X232611928Y-150700000D01*
X232611928Y-152400000D01*
X232624188Y-152524482D01*
X232660498Y-152644180D01*
X232719463Y-152754494D01*
X232798815Y-152851185D01*
X232895506Y-152930537D01*
X233005820Y-152989502D01*
X233125518Y-153025812D01*
X233250000Y-153038072D01*
X234950000Y-153038072D01*
X235074482Y-153025812D01*
X235194180Y-152989502D01*
X235304494Y-152930537D01*
X235401185Y-152851185D01*
X235480537Y-152754494D01*
X235539502Y-152644180D01*
X235563966Y-152563534D01*
X235639731Y-152647588D01*
X235873080Y-152821641D01*
X236135901Y-152946825D01*
X236283110Y-152991476D01*
X236513000Y-152870155D01*
X236513000Y-151677000D01*
X236767000Y-151677000D01*
X236767000Y-152870155D01*
X236996890Y-152991476D01*
X237144099Y-152946825D01*
X237406920Y-152821641D01*
X237640269Y-152647588D01*
X237835178Y-152431355D01*
X237984157Y-152181252D01*
X238081481Y-151906891D01*
X237960814Y-151677000D01*
X236767000Y-151677000D01*
X236513000Y-151677000D01*
X236493000Y-151677000D01*
X236493000Y-151423000D01*
X236513000Y-151423000D01*
X236513000Y-151403000D01*
X236767000Y-151403000D01*
X236767000Y-151423000D01*
X237960814Y-151423000D01*
X238081481Y-151193109D01*
X237984157Y-150918748D01*
X237835178Y-150668645D01*
X237640269Y-150452412D01*
X237406920Y-150278359D01*
X237144099Y-150153175D01*
X237069653Y-150130594D01*
X237113989Y-150121775D01*
X237366043Y-150017371D01*
X237592886Y-149865799D01*
X237785799Y-149672886D01*
X237937371Y-149446043D01*
X238041775Y-149193989D01*
X238095000Y-148926411D01*
X238095000Y-148653589D01*
X238041775Y-148386011D01*
X237937371Y-148133957D01*
X237785799Y-147907114D01*
X237592886Y-147714201D01*
X237366043Y-147562629D01*
X237113989Y-147458225D01*
X236846411Y-147405000D01*
X236573589Y-147405000D01*
X236306011Y-147458225D01*
X236053957Y-147562629D01*
X235827114Y-147714201D01*
X235634201Y-147907114D01*
X235482629Y-148133957D01*
X235417071Y-148292228D01*
X235347371Y-148123957D01*
X235195799Y-147897114D01*
X235002886Y-147704201D01*
X234776043Y-147552629D01*
X234523989Y-147448225D01*
X234256411Y-147395000D01*
X233983589Y-147395000D01*
X233716011Y-147448225D01*
X233463957Y-147552629D01*
X233237114Y-147704201D01*
X233044201Y-147897114D01*
X232892629Y-148123957D01*
X232788225Y-148376011D01*
X232735000Y-148643589D01*
X232735000Y-148916411D01*
X232788225Y-149183989D01*
X232892629Y-149436043D01*
X233044201Y-149662886D01*
X233237114Y-149855799D01*
X233463957Y-150007371D01*
X233595669Y-150061928D01*
X233250000Y-150061928D01*
X233125518Y-150074188D01*
X233005820Y-150110498D01*
X232895506Y-150169463D01*
X232798815Y-150248815D01*
X232719463Y-150345506D01*
X232660498Y-150455820D01*
X232624188Y-150575518D01*
X232611928Y-150700000D01*
X231911667Y-150700000D01*
X231911667Y-141820000D01*
X233851928Y-141820000D01*
X233851928Y-143620000D01*
X233864188Y-143744482D01*
X233900498Y-143864180D01*
X233959463Y-143974494D01*
X234038815Y-144071185D01*
X234135506Y-144150537D01*
X234245820Y-144209502D01*
X234264127Y-144215056D01*
X234197688Y-144281495D01*
X234029701Y-144532905D01*
X233913989Y-144812257D01*
X233855000Y-145108816D01*
X233855000Y-145411184D01*
X233913989Y-145707743D01*
X234029701Y-145987095D01*
X234197688Y-146238505D01*
X234411495Y-146452312D01*
X234662905Y-146620299D01*
X234942257Y-146736011D01*
X235238816Y-146795000D01*
X235541184Y-146795000D01*
X235837743Y-146736011D01*
X236117095Y-146620299D01*
X236368505Y-146452312D01*
X236582312Y-146238505D01*
X236750299Y-145987095D01*
X236866011Y-145707743D01*
X236925000Y-145411184D01*
X236925000Y-145108816D01*
X236866011Y-144812257D01*
X236750299Y-144532905D01*
X236582312Y-144281495D01*
X236515873Y-144215056D01*
X236534180Y-144209502D01*
X236644494Y-144150537D01*
X236741185Y-144071185D01*
X236820537Y-143974494D01*
X236879502Y-143864180D01*
X236915812Y-143744482D01*
X236928072Y-143620000D01*
X236928072Y-141820000D01*
X236915812Y-141695518D01*
X236879502Y-141575820D01*
X236820537Y-141465506D01*
X236741185Y-141368815D01*
X236644494Y-141289463D01*
X236534180Y-141230498D01*
X236414482Y-141194188D01*
X236290000Y-141181928D01*
X234490000Y-141181928D01*
X234365518Y-141194188D01*
X234245820Y-141230498D01*
X234135506Y-141289463D01*
X234038815Y-141368815D01*
X233959463Y-141465506D01*
X233900498Y-141575820D01*
X233864188Y-141695518D01*
X233851928Y-141820000D01*
X231911667Y-141820000D01*
X231911667Y-140242702D01*
X234686903Y-140242702D01*
X234758486Y-140486671D01*
X235013996Y-140607571D01*
X235288184Y-140676300D01*
X235570512Y-140690217D01*
X235850130Y-140648787D01*
X236116292Y-140553603D01*
X236241514Y-140486671D01*
X236313097Y-140242702D01*
X235500000Y-139429605D01*
X234686903Y-140242702D01*
X231911667Y-140242702D01*
X231911667Y-139320512D01*
X234059783Y-139320512D01*
X234101213Y-139600130D01*
X234196397Y-139866292D01*
X234263329Y-139991514D01*
X234507298Y-140063097D01*
X235320395Y-139250000D01*
X235679605Y-139250000D01*
X236492702Y-140063097D01*
X236736671Y-139991514D01*
X236857571Y-139736004D01*
X236926300Y-139461816D01*
X236940217Y-139179488D01*
X236898787Y-138899870D01*
X236803603Y-138633708D01*
X236736671Y-138508486D01*
X236492702Y-138436903D01*
X235679605Y-139250000D01*
X235320395Y-139250000D01*
X234507298Y-138436903D01*
X234263329Y-138508486D01*
X234142429Y-138763996D01*
X234073700Y-139038184D01*
X234059783Y-139320512D01*
X231911667Y-139320512D01*
X231911667Y-138257298D01*
X234686903Y-138257298D01*
X235500000Y-139070395D01*
X236313097Y-138257298D01*
X236241514Y-138013329D01*
X235986004Y-137892429D01*
X235711816Y-137823700D01*
X235429488Y-137809783D01*
X235149870Y-137851213D01*
X234883708Y-137946397D01*
X234758486Y-138013329D01*
X234686903Y-138257298D01*
X231911667Y-138257298D01*
X231911667Y-132419334D01*
X231905790Y-132359396D01*
X231900331Y-132299410D01*
X231899697Y-132297255D01*
X231899478Y-132295024D01*
X231882093Y-132237443D01*
X231865065Y-132179586D01*
X231864024Y-132177594D01*
X231863376Y-132175449D01*
X231835091Y-132122252D01*
X231807196Y-132068894D01*
X231805793Y-132067149D01*
X231804737Y-132065163D01*
X231766662Y-132018480D01*
X231728930Y-131971549D01*
X231727208Y-131970104D01*
X231725792Y-131968368D01*
X231679463Y-131930041D01*
X231633246Y-131891261D01*
X231631276Y-131890178D01*
X231629550Y-131888750D01*
X231576658Y-131860151D01*
X231523790Y-131831087D01*
X231521647Y-131830407D01*
X231519677Y-131829342D01*
X231462162Y-131811538D01*
X231404730Y-131793320D01*
X231402502Y-131793070D01*
X231400357Y-131792406D01*
X231340490Y-131786114D01*
X231280603Y-131779396D01*
X231276288Y-131779366D01*
X231276135Y-131779350D01*
X231275982Y-131779364D01*
X231271667Y-131779334D01*
X226910000Y-131779334D01*
X226910000Y-131414801D01*
X230878512Y-127446290D01*
X230973501Y-127485635D01*
X231322223Y-127555000D01*
X231677777Y-127555000D01*
X232026499Y-127485635D01*
X232354988Y-127349571D01*
X232650621Y-127152035D01*
X232740001Y-127062655D01*
X232740000Y-132212678D01*
X232736324Y-132250000D01*
X232740000Y-132287322D01*
X232740000Y-132287332D01*
X232750997Y-132398985D01*
X232793548Y-132539258D01*
X232794454Y-132542246D01*
X232865026Y-132674276D01*
X232904871Y-132722826D01*
X232959999Y-132790001D01*
X232989003Y-132813804D01*
X234101312Y-133926114D01*
X234065000Y-134108665D01*
X234065000Y-134391335D01*
X234120147Y-134668574D01*
X234228320Y-134929727D01*
X234385363Y-135164759D01*
X234585241Y-135364637D01*
X234820273Y-135521680D01*
X235081426Y-135629853D01*
X235358665Y-135685000D01*
X235641335Y-135685000D01*
X235918574Y-135629853D01*
X236179727Y-135521680D01*
X236414759Y-135364637D01*
X236614637Y-135164759D01*
X236771680Y-134929727D01*
X236879853Y-134668574D01*
X236935000Y-134391335D01*
X236935000Y-134108665D01*
X236879853Y-133831426D01*
X236771680Y-133570273D01*
X236614637Y-133335241D01*
X236414759Y-133135363D01*
X236179727Y-132978320D01*
X235918574Y-132870147D01*
X235641335Y-132815000D01*
X235358665Y-132815000D01*
X235176114Y-132851312D01*
X234317504Y-131992702D01*
X234686903Y-131992702D01*
X234758486Y-132236671D01*
X235013996Y-132357571D01*
X235288184Y-132426300D01*
X235570512Y-132440217D01*
X235850130Y-132398787D01*
X236116292Y-132303603D01*
X236241514Y-132236671D01*
X236313097Y-131992702D01*
X235500000Y-131179605D01*
X234686903Y-131992702D01*
X234317504Y-131992702D01*
X234260000Y-131935199D01*
X234260000Y-131735286D01*
X234263329Y-131741514D01*
X234507298Y-131813097D01*
X235320395Y-131000000D01*
X235679605Y-131000000D01*
X236492702Y-131813097D01*
X236736671Y-131741514D01*
X236857571Y-131486004D01*
X236926300Y-131211816D01*
X236940217Y-130929488D01*
X236898787Y-130649870D01*
X236803603Y-130383708D01*
X236736671Y-130258486D01*
X236492702Y-130186903D01*
X235679605Y-131000000D01*
X235320395Y-131000000D01*
X234507298Y-130186903D01*
X234263329Y-130258486D01*
X234260000Y-130265522D01*
X234260000Y-130007298D01*
X234686903Y-130007298D01*
X235500000Y-130820395D01*
X236313097Y-130007298D01*
X236241514Y-129763329D01*
X235986004Y-129642429D01*
X235711816Y-129573700D01*
X235429488Y-129559783D01*
X235149870Y-129601213D01*
X234883708Y-129696397D01*
X234758486Y-129763329D01*
X234686903Y-130007298D01*
X234260000Y-130007298D01*
X234260000Y-124037322D01*
X234263676Y-123999999D01*
X234260000Y-123962676D01*
X234260000Y-123962667D01*
X234249003Y-123851014D01*
X234205546Y-123707753D01*
X234134974Y-123575724D01*
X234040001Y-123459999D01*
X234011003Y-123436201D01*
X232563804Y-121989003D01*
X232540001Y-121959999D01*
X232424276Y-121865026D01*
X232292247Y-121794454D01*
X232148986Y-121750997D01*
X232037333Y-121740000D01*
X232037322Y-121740000D01*
X232000000Y-121736324D01*
X231962678Y-121740000D01*
X227287322Y-121740000D01*
X227250000Y-121736324D01*
X227212677Y-121740000D01*
X227212667Y-121740000D01*
X227101014Y-121750997D01*
X226957753Y-121794454D01*
X226825723Y-121865026D01*
X226742083Y-121933668D01*
X226709999Y-121959999D01*
X226686201Y-121988997D01*
X222121488Y-126553711D01*
X222026499Y-126514365D01*
X221677777Y-126445000D01*
X221322223Y-126445000D01*
X220973501Y-126514365D01*
X220645012Y-126650429D01*
X220349379Y-126847965D01*
X220097965Y-127099379D01*
X219900429Y-127395012D01*
X219861084Y-127490000D01*
X194064803Y-127490000D01*
X189647026Y-123072223D01*
X219695000Y-123072223D01*
X219695000Y-123427777D01*
X219764365Y-123776499D01*
X219900429Y-124104988D01*
X220097965Y-124400621D01*
X220349379Y-124652035D01*
X220645012Y-124849571D01*
X220973501Y-124985635D01*
X221322223Y-125055000D01*
X221677777Y-125055000D01*
X222026499Y-124985635D01*
X222354988Y-124849571D01*
X222650621Y-124652035D01*
X222902035Y-124400621D01*
X223099571Y-124104988D01*
X223235635Y-123776499D01*
X223305000Y-123427777D01*
X223305000Y-123072223D01*
X223235635Y-122723501D01*
X223099571Y-122395012D01*
X222902035Y-122099379D01*
X222650621Y-121847965D01*
X222354988Y-121650429D01*
X222026499Y-121514365D01*
X221677777Y-121445000D01*
X221322223Y-121445000D01*
X220973501Y-121514365D01*
X220645012Y-121650429D01*
X220349379Y-121847965D01*
X220097965Y-122099379D01*
X219900429Y-122395012D01*
X219764365Y-122723501D01*
X219695000Y-123072223D01*
X189647026Y-123072223D01*
X187273467Y-120698665D01*
X188065000Y-120698665D01*
X188065000Y-120981335D01*
X188120147Y-121258574D01*
X188228320Y-121519727D01*
X188385363Y-121754759D01*
X188585241Y-121954637D01*
X188820273Y-122111680D01*
X189081426Y-122219853D01*
X189358665Y-122275000D01*
X189641335Y-122275000D01*
X189918574Y-122219853D01*
X190179727Y-122111680D01*
X190414759Y-121954637D01*
X190614637Y-121754759D01*
X190771680Y-121519727D01*
X190879853Y-121258574D01*
X190935000Y-120981335D01*
X190935000Y-120698665D01*
X193065000Y-120698665D01*
X193065000Y-120981335D01*
X193120147Y-121258574D01*
X193228320Y-121519727D01*
X193385363Y-121754759D01*
X193585241Y-121954637D01*
X193820273Y-122111680D01*
X194081426Y-122219853D01*
X194358665Y-122275000D01*
X194641335Y-122275000D01*
X194918574Y-122219853D01*
X195179727Y-122111680D01*
X195414759Y-121954637D01*
X195614637Y-121754759D01*
X195771680Y-121519727D01*
X195879853Y-121258574D01*
X195935000Y-120981335D01*
X195935000Y-120698665D01*
X198565000Y-120698665D01*
X198565000Y-120981335D01*
X198620147Y-121258574D01*
X198728320Y-121519727D01*
X198885363Y-121754759D01*
X199085241Y-121954637D01*
X199320273Y-122111680D01*
X199581426Y-122219853D01*
X199858665Y-122275000D01*
X200141335Y-122275000D01*
X200418574Y-122219853D01*
X200679727Y-122111680D01*
X200914759Y-121954637D01*
X201114637Y-121754759D01*
X201271680Y-121519727D01*
X201379853Y-121258574D01*
X201435000Y-120981335D01*
X201435000Y-120698665D01*
X203815000Y-120698665D01*
X203815000Y-120981335D01*
X203870147Y-121258574D01*
X203978320Y-121519727D01*
X204135363Y-121754759D01*
X204335241Y-121954637D01*
X204570273Y-122111680D01*
X204831426Y-122219853D01*
X205108665Y-122275000D01*
X205391335Y-122275000D01*
X205668574Y-122219853D01*
X205929727Y-122111680D01*
X206164759Y-121954637D01*
X206364637Y-121754759D01*
X206521680Y-121519727D01*
X206629853Y-121258574D01*
X206685000Y-120981335D01*
X206685000Y-120698665D01*
X206665109Y-120598665D01*
X209065000Y-120598665D01*
X209065000Y-120881335D01*
X209120147Y-121158574D01*
X209228320Y-121419727D01*
X209385363Y-121654759D01*
X209585241Y-121854637D01*
X209820273Y-122011680D01*
X210081426Y-122119853D01*
X210358665Y-122175000D01*
X210641335Y-122175000D01*
X210918574Y-122119853D01*
X211179727Y-122011680D01*
X211414759Y-121854637D01*
X211614637Y-121654759D01*
X211771680Y-121419727D01*
X211879853Y-121158574D01*
X211935000Y-120881335D01*
X211935000Y-120598665D01*
X215965000Y-120598665D01*
X215965000Y-120881335D01*
X216020147Y-121158574D01*
X216128320Y-121419727D01*
X216285363Y-121654759D01*
X216485241Y-121854637D01*
X216720273Y-122011680D01*
X216981426Y-122119853D01*
X217258665Y-122175000D01*
X217541335Y-122175000D01*
X217818574Y-122119853D01*
X218079727Y-122011680D01*
X218314759Y-121854637D01*
X218514637Y-121654759D01*
X218671680Y-121419727D01*
X218779853Y-121158574D01*
X218835000Y-120881335D01*
X218835000Y-120598665D01*
X218779853Y-120321426D01*
X218671680Y-120060273D01*
X218514637Y-119825241D01*
X218314759Y-119625363D01*
X218079727Y-119468320D01*
X217818574Y-119360147D01*
X217541335Y-119305000D01*
X217258665Y-119305000D01*
X216981426Y-119360147D01*
X216720273Y-119468320D01*
X216485241Y-119625363D01*
X216285363Y-119825241D01*
X216128320Y-120060273D01*
X216020147Y-120321426D01*
X215965000Y-120598665D01*
X211935000Y-120598665D01*
X211879853Y-120321426D01*
X211771680Y-120060273D01*
X211614637Y-119825241D01*
X211414759Y-119625363D01*
X211179727Y-119468320D01*
X210918574Y-119360147D01*
X210641335Y-119305000D01*
X210358665Y-119305000D01*
X210081426Y-119360147D01*
X209820273Y-119468320D01*
X209585241Y-119625363D01*
X209385363Y-119825241D01*
X209228320Y-120060273D01*
X209120147Y-120321426D01*
X209065000Y-120598665D01*
X206665109Y-120598665D01*
X206629853Y-120421426D01*
X206521680Y-120160273D01*
X206364637Y-119925241D01*
X206164759Y-119725363D01*
X205929727Y-119568320D01*
X205668574Y-119460147D01*
X205391335Y-119405000D01*
X205108665Y-119405000D01*
X204831426Y-119460147D01*
X204570273Y-119568320D01*
X204335241Y-119725363D01*
X204135363Y-119925241D01*
X203978320Y-120160273D01*
X203870147Y-120421426D01*
X203815000Y-120698665D01*
X201435000Y-120698665D01*
X201379853Y-120421426D01*
X201271680Y-120160273D01*
X201114637Y-119925241D01*
X200914759Y-119725363D01*
X200679727Y-119568320D01*
X200418574Y-119460147D01*
X200141335Y-119405000D01*
X199858665Y-119405000D01*
X199581426Y-119460147D01*
X199320273Y-119568320D01*
X199085241Y-119725363D01*
X198885363Y-119925241D01*
X198728320Y-120160273D01*
X198620147Y-120421426D01*
X198565000Y-120698665D01*
X195935000Y-120698665D01*
X195879853Y-120421426D01*
X195771680Y-120160273D01*
X195614637Y-119925241D01*
X195414759Y-119725363D01*
X195179727Y-119568320D01*
X194918574Y-119460147D01*
X194641335Y-119405000D01*
X194358665Y-119405000D01*
X194081426Y-119460147D01*
X193820273Y-119568320D01*
X193585241Y-119725363D01*
X193385363Y-119925241D01*
X193228320Y-120160273D01*
X193120147Y-120421426D01*
X193065000Y-120698665D01*
X190935000Y-120698665D01*
X190879853Y-120421426D01*
X190771680Y-120160273D01*
X190614637Y-119925241D01*
X190414759Y-119725363D01*
X190179727Y-119568320D01*
X189918574Y-119460147D01*
X189641335Y-119405000D01*
X189358665Y-119405000D01*
X189081426Y-119460147D01*
X188820273Y-119568320D01*
X188585241Y-119725363D01*
X188385363Y-119925241D01*
X188228320Y-120160273D01*
X188120147Y-120421426D01*
X188065000Y-120698665D01*
X187273467Y-120698665D01*
X184010000Y-117435199D01*
X184010000Y-115718043D01*
X184164759Y-115614637D01*
X184364637Y-115414759D01*
X184521680Y-115179727D01*
X184629853Y-114918574D01*
X184685000Y-114641335D01*
X184685000Y-114358665D01*
X184629853Y-114081426D01*
X184521680Y-113820273D01*
X184364637Y-113585241D01*
X184164759Y-113385363D01*
X183929727Y-113228320D01*
X183668574Y-113120147D01*
X183391335Y-113065000D01*
X183108665Y-113065000D01*
X182831426Y-113120147D01*
X182570273Y-113228320D01*
X182335241Y-113385363D01*
X182135363Y-113585241D01*
X181978320Y-113820273D01*
X181870147Y-114081426D01*
X181815000Y-114358665D01*
X181815000Y-114641335D01*
X181870147Y-114918574D01*
X181978320Y-115179727D01*
X182135363Y-115414759D01*
X182335241Y-115614637D01*
X182490001Y-115718044D01*
X182490000Y-117712677D01*
X182486324Y-117750000D01*
X182490000Y-117787322D01*
X182490000Y-117787332D01*
X182500997Y-117898985D01*
X182531639Y-118000000D01*
X182544454Y-118042246D01*
X182615026Y-118174276D01*
X182654871Y-118222826D01*
X182709999Y-118290001D01*
X182739003Y-118313804D01*
X193186205Y-128761008D01*
X193209999Y-128790001D01*
X193238992Y-128813795D01*
X193238996Y-128813799D01*
X193309685Y-128871811D01*
X193325724Y-128884974D01*
X193457753Y-128955546D01*
X193601014Y-128999003D01*
X193712667Y-129010000D01*
X193712676Y-129010000D01*
X193749999Y-129013676D01*
X193787322Y-129010000D01*
X219861084Y-129010000D01*
X219900429Y-129104988D01*
X220097965Y-129400621D01*
X220349379Y-129652035D01*
X220645012Y-129849571D01*
X220973501Y-129985635D01*
X221322223Y-130055000D01*
X221677777Y-130055000D01*
X222026499Y-129985635D01*
X222354988Y-129849571D01*
X222650621Y-129652035D01*
X222902035Y-129400621D01*
X223099571Y-129104988D01*
X223235635Y-128776499D01*
X223305000Y-128427777D01*
X223305000Y-128072223D01*
X223235635Y-127723501D01*
X223196289Y-127628512D01*
X227564802Y-123260000D01*
X231685199Y-123260000D01*
X232740001Y-124314803D01*
X232740001Y-124437345D01*
X232650621Y-124347965D01*
X232354988Y-124150429D01*
X232026499Y-124014365D01*
X231677777Y-123945000D01*
X231322223Y-123945000D01*
X230973501Y-124014365D01*
X230645012Y-124150429D01*
X230349379Y-124347965D01*
X230097965Y-124599379D01*
X229900429Y-124895012D01*
X229764365Y-125223501D01*
X229695000Y-125572223D01*
X229695000Y-125927777D01*
X229764365Y-126276499D01*
X229803710Y-126371488D01*
X225638998Y-130536201D01*
X225610000Y-130559999D01*
X225586202Y-130588997D01*
X225586201Y-130588998D01*
X225515026Y-130675724D01*
X225444454Y-130807754D01*
X225400998Y-130951015D01*
X225386324Y-131100000D01*
X225390001Y-131137332D01*
X225390001Y-131779334D01*
X221154000Y-131779334D01*
X221094062Y-131785211D01*
X221034076Y-131790670D01*
X221031921Y-131791304D01*
X221029690Y-131791523D01*
X220972109Y-131808908D01*
X220919936Y-131824263D01*
X220878829Y-131811538D01*
X220821397Y-131793320D01*
X220819169Y-131793070D01*
X220817024Y-131792406D01*
X220757157Y-131786114D01*
X220697270Y-131779396D01*
X220692955Y-131779366D01*
X220692802Y-131779350D01*
X220692649Y-131779364D01*
X220688334Y-131779334D01*
X218538307Y-131779334D01*
X218671680Y-131579727D01*
X218779853Y-131318574D01*
X218835000Y-131041335D01*
X218835000Y-130758665D01*
X218779853Y-130481426D01*
X218671680Y-130220273D01*
X218514637Y-129985241D01*
X218314759Y-129785363D01*
X218079727Y-129628320D01*
X217818574Y-129520147D01*
X217541335Y-129465000D01*
X217258665Y-129465000D01*
X216981426Y-129520147D01*
X216720273Y-129628320D01*
X216485241Y-129785363D01*
X216285363Y-129985241D01*
X216128320Y-130220273D01*
X216020147Y-130481426D01*
X215965000Y-130758665D01*
X215965000Y-131041335D01*
X216020147Y-131318574D01*
X216128320Y-131579727D01*
X216261693Y-131779334D01*
X213576334Y-131779334D01*
X213516396Y-131785211D01*
X213456410Y-131790670D01*
X213454255Y-131791304D01*
X213452024Y-131791523D01*
X213394443Y-131808908D01*
X213385674Y-131811489D01*
X213328397Y-131793320D01*
X213326169Y-131793070D01*
X213324024Y-131792406D01*
X213264157Y-131786114D01*
X213204270Y-131779396D01*
X213199955Y-131779366D01*
X213199802Y-131779350D01*
X213199649Y-131779364D01*
X213195334Y-131779334D01*
X211638307Y-131779334D01*
X211771680Y-131579727D01*
X211879853Y-131318574D01*
X211935000Y-131041335D01*
X211935000Y-130758665D01*
X211879853Y-130481426D01*
X211771680Y-130220273D01*
X211614637Y-129985241D01*
X211414759Y-129785363D01*
X211179727Y-129628320D01*
X210918574Y-129520147D01*
X210641335Y-129465000D01*
X210358665Y-129465000D01*
X210081426Y-129520147D01*
X209820273Y-129628320D01*
X209585241Y-129785363D01*
X209385363Y-129985241D01*
X209228320Y-130220273D01*
X209120147Y-130481426D01*
X209065000Y-130758665D01*
X209065000Y-131041335D01*
X209120147Y-131318574D01*
X209228320Y-131579727D01*
X209361693Y-131779334D01*
X207565000Y-131779334D01*
X207505062Y-131785211D01*
X207445076Y-131790670D01*
X207442921Y-131791304D01*
X207440690Y-131791523D01*
X207383109Y-131808908D01*
X207330936Y-131824263D01*
X207289829Y-131811538D01*
X207232397Y-131793320D01*
X207230169Y-131793070D01*
X207228024Y-131792406D01*
X207168157Y-131786114D01*
X207108270Y-131779396D01*
X207103955Y-131779366D01*
X207103802Y-131779350D01*
X207103649Y-131779364D01*
X207099334Y-131779334D01*
X206455125Y-131779334D01*
X206521680Y-131679727D01*
X206629853Y-131418574D01*
X206685000Y-131141335D01*
X206685000Y-130858665D01*
X206629853Y-130581426D01*
X206521680Y-130320273D01*
X206364637Y-130085241D01*
X206164759Y-129885363D01*
X205929727Y-129728320D01*
X205668574Y-129620147D01*
X205391335Y-129565000D01*
X205108665Y-129565000D01*
X204831426Y-129620147D01*
X204570273Y-129728320D01*
X204335241Y-129885363D01*
X204135363Y-130085241D01*
X203978320Y-130320273D01*
X203870147Y-130581426D01*
X203815000Y-130858665D01*
X203815000Y-131141335D01*
X203870147Y-131418574D01*
X203978320Y-131679727D01*
X204044875Y-131779334D01*
X202993000Y-131779334D01*
X202933062Y-131785211D01*
X202873076Y-131790670D01*
X202870921Y-131791304D01*
X202868690Y-131791523D01*
X202811109Y-131808908D01*
X202802468Y-131811451D01*
X202745311Y-131793320D01*
X202743568Y-131793124D01*
X202741889Y-131792602D01*
X202681605Y-131786174D01*
X202621184Y-131779396D01*
X202617825Y-131779373D01*
X202617687Y-131779358D01*
X202617545Y-131779371D01*
X202612248Y-131779334D01*
X201205125Y-131779334D01*
X201271680Y-131679727D01*
X201379853Y-131418574D01*
X201435000Y-131141335D01*
X201435000Y-130858665D01*
X201379853Y-130581426D01*
X201271680Y-130320273D01*
X201114637Y-130085241D01*
X200914759Y-129885363D01*
X200679727Y-129728320D01*
X200418574Y-129620147D01*
X200141335Y-129565000D01*
X199858665Y-129565000D01*
X199581426Y-129620147D01*
X199320273Y-129728320D01*
X199085241Y-129885363D01*
X198885363Y-130085241D01*
X198728320Y-130320273D01*
X198620147Y-130581426D01*
X198565000Y-130858665D01*
X198565000Y-131141335D01*
X198620147Y-131418574D01*
X198728320Y-131679727D01*
X198794875Y-131779334D01*
X196981667Y-131779334D01*
X196921729Y-131785211D01*
X196861743Y-131790670D01*
X196859588Y-131791304D01*
X196857357Y-131791523D01*
X196799776Y-131808908D01*
X196747603Y-131824263D01*
X196706495Y-131811538D01*
X196649063Y-131793320D01*
X196646835Y-131793070D01*
X196644690Y-131792406D01*
X196584823Y-131786114D01*
X196524936Y-131779396D01*
X196520621Y-131779366D01*
X196520468Y-131779350D01*
X196520315Y-131779364D01*
X196516000Y-131779334D01*
X195705125Y-131779334D01*
X195771680Y-131679727D01*
X195879853Y-131418574D01*
X195935000Y-131141335D01*
X195935000Y-130858665D01*
X195879853Y-130581426D01*
X195771680Y-130320273D01*
X195614637Y-130085241D01*
X195414759Y-129885363D01*
X195179727Y-129728320D01*
X194918574Y-129620147D01*
X194641335Y-129565000D01*
X194358665Y-129565000D01*
X194081426Y-129620147D01*
X193820273Y-129728320D01*
X193585241Y-129885363D01*
X193385363Y-130085241D01*
X193228320Y-130320273D01*
X193120147Y-130581426D01*
X193065000Y-130858665D01*
X193065000Y-131141335D01*
X193120147Y-131418574D01*
X193228320Y-131679727D01*
X193294875Y-131779334D01*
X192367334Y-131779334D01*
X192307396Y-131785211D01*
X192247410Y-131790670D01*
X192245255Y-131791304D01*
X192243024Y-131791523D01*
X192198598Y-131804936D01*
X192161978Y-131793320D01*
X192160235Y-131793124D01*
X192158556Y-131792602D01*
X192098272Y-131786174D01*
X192037851Y-131779396D01*
X192034492Y-131779373D01*
X192034354Y-131779358D01*
X192034212Y-131779371D01*
X192028915Y-131779334D01*
X190705125Y-131779334D01*
X190771680Y-131679727D01*
X190879853Y-131418574D01*
X190935000Y-131141335D01*
X190935000Y-130858665D01*
X190879853Y-130581426D01*
X190771680Y-130320273D01*
X190614637Y-130085241D01*
X190414759Y-129885363D01*
X190179727Y-129728320D01*
X189918574Y-129620147D01*
X189641335Y-129565000D01*
X189358665Y-129565000D01*
X189081426Y-129620147D01*
X188820273Y-129728320D01*
X188585241Y-129885363D01*
X188385363Y-130085241D01*
X188228320Y-130320273D01*
X188120147Y-130581426D01*
X188065000Y-130858665D01*
X188065000Y-131141335D01*
X188120147Y-131418574D01*
X188228320Y-131679727D01*
X188294875Y-131779334D01*
X186398334Y-131779334D01*
X186338396Y-131785211D01*
X186278410Y-131790670D01*
X186276255Y-131791304D01*
X186274024Y-131791523D01*
X186216443Y-131808908D01*
X186164270Y-131824263D01*
X186123162Y-131811538D01*
X186065730Y-131793320D01*
X186063502Y-131793070D01*
X186061357Y-131792406D01*
X186001490Y-131786114D01*
X185941603Y-131779396D01*
X185937288Y-131779366D01*
X185937135Y-131779350D01*
X185936982Y-131779364D01*
X185932667Y-131779334D01*
X183705125Y-131779334D01*
X183771680Y-131679727D01*
X183879853Y-131418574D01*
X183935000Y-131141335D01*
X183935000Y-130858665D01*
X183879853Y-130581426D01*
X183771680Y-130320273D01*
X183614637Y-130085241D01*
X183414759Y-129885363D01*
X183179727Y-129728320D01*
X182918574Y-129620147D01*
X182641335Y-129565000D01*
X182358665Y-129565000D01*
X182081426Y-129620147D01*
X181820273Y-129728320D01*
X181585241Y-129885363D01*
X181385363Y-130085241D01*
X181228320Y-130320273D01*
X181120147Y-130581426D01*
X181065000Y-130858665D01*
X181065000Y-131141335D01*
X181120147Y-131418574D01*
X181228320Y-131679727D01*
X181294875Y-131779334D01*
X178778334Y-131779334D01*
X178718396Y-131785211D01*
X178658410Y-131790670D01*
X178656255Y-131791304D01*
X178654024Y-131791523D01*
X178596443Y-131808908D01*
X178544270Y-131824263D01*
X178503162Y-131811538D01*
X178445730Y-131793320D01*
X178443502Y-131793070D01*
X178441357Y-131792406D01*
X178381490Y-131786114D01*
X178321603Y-131779396D01*
X178317288Y-131779366D01*
X178317135Y-131779350D01*
X178316982Y-131779364D01*
X178312667Y-131779334D01*
X176205125Y-131779334D01*
X176271680Y-131679727D01*
X176379853Y-131418574D01*
X176435000Y-131141335D01*
X176435000Y-130858665D01*
X176379853Y-130581426D01*
X176271680Y-130320273D01*
X176114637Y-130085241D01*
X175914759Y-129885363D01*
X175679727Y-129728320D01*
X175418574Y-129620147D01*
X175141335Y-129565000D01*
X174858665Y-129565000D01*
X174581426Y-129620147D01*
X174320273Y-129728320D01*
X174085241Y-129885363D01*
X173885363Y-130085241D01*
X173728320Y-130320273D01*
X173620147Y-130581426D01*
X173565000Y-130858665D01*
X173565000Y-131141335D01*
X173620147Y-131418574D01*
X173728320Y-131679727D01*
X173794875Y-131779334D01*
X171200667Y-131779334D01*
X171140729Y-131785211D01*
X171080743Y-131790670D01*
X171078588Y-131791304D01*
X171076357Y-131791523D01*
X171018776Y-131808908D01*
X171010007Y-131811489D01*
X170952730Y-131793320D01*
X170950502Y-131793070D01*
X170948357Y-131792406D01*
X170888490Y-131786114D01*
X170828603Y-131779396D01*
X170824288Y-131779366D01*
X170824135Y-131779350D01*
X170823982Y-131779364D01*
X170819667Y-131779334D01*
X169205125Y-131779334D01*
X169271680Y-131679727D01*
X169379853Y-131418574D01*
X169435000Y-131141335D01*
X169435000Y-130858665D01*
X169379853Y-130581426D01*
X169271680Y-130320273D01*
X169114637Y-130085241D01*
X168914759Y-129885363D01*
X168679727Y-129728320D01*
X168418574Y-129620147D01*
X168141335Y-129565000D01*
X167858665Y-129565000D01*
X167581426Y-129620147D01*
X167320273Y-129728320D01*
X167085241Y-129885363D01*
X166885363Y-130085241D01*
X166728320Y-130320273D01*
X166620147Y-130581426D01*
X166565000Y-130858665D01*
X166565000Y-131141335D01*
X166620147Y-131418574D01*
X166728320Y-131679727D01*
X166794875Y-131779334D01*
X165189334Y-131779334D01*
X165129396Y-131785211D01*
X165069410Y-131790670D01*
X165067255Y-131791304D01*
X165065024Y-131791523D01*
X165007443Y-131808908D01*
X164955270Y-131824263D01*
X164914162Y-131811538D01*
X164856730Y-131793320D01*
X164854502Y-131793070D01*
X164852357Y-131792406D01*
X164792490Y-131786114D01*
X164732603Y-131779396D01*
X164728288Y-131779366D01*
X164728135Y-131779350D01*
X164727982Y-131779364D01*
X164723667Y-131779334D01*
X163705125Y-131779334D01*
X163771680Y-131679727D01*
X163879853Y-131418574D01*
X163935000Y-131141335D01*
X163935000Y-130858665D01*
X163879853Y-130581426D01*
X163771680Y-130320273D01*
X163614637Y-130085241D01*
X163414759Y-129885363D01*
X163179727Y-129728320D01*
X162918574Y-129620147D01*
X162641335Y-129565000D01*
X162358665Y-129565000D01*
X162081426Y-129620147D01*
X161820273Y-129728320D01*
X161585241Y-129885363D01*
X161385363Y-130085241D01*
X161228320Y-130320273D01*
X161120147Y-130581426D01*
X161065000Y-130858665D01*
X161065000Y-131141335D01*
X161120147Y-131418574D01*
X161228320Y-131679727D01*
X161294875Y-131779334D01*
X160617334Y-131779334D01*
X160557396Y-131785211D01*
X160497410Y-131790670D01*
X160495255Y-131791304D01*
X160493024Y-131791523D01*
X160435443Y-131808908D01*
X160426802Y-131811451D01*
X160369645Y-131793320D01*
X160367902Y-131793124D01*
X160366223Y-131792602D01*
X160305939Y-131786174D01*
X160245518Y-131779396D01*
X160242159Y-131779373D01*
X160242021Y-131779358D01*
X160241879Y-131779371D01*
X160236582Y-131779334D01*
X158705125Y-131779334D01*
X158771680Y-131679727D01*
X158879853Y-131418574D01*
X158935000Y-131141335D01*
X158935000Y-130858665D01*
X158879853Y-130581426D01*
X158771680Y-130320273D01*
X158614637Y-130085241D01*
X158414759Y-129885363D01*
X158179727Y-129728320D01*
X157918574Y-129620147D01*
X157641335Y-129565000D01*
X157358665Y-129565000D01*
X157081426Y-129620147D01*
X156820273Y-129728320D01*
X156585241Y-129885363D01*
X156385363Y-130085241D01*
X156228320Y-130320273D01*
X156120147Y-130581426D01*
X156065000Y-130858665D01*
X156065000Y-131141335D01*
X156120147Y-131418574D01*
X156228320Y-131679727D01*
X156294875Y-131779334D01*
X154606000Y-131779334D01*
X154546062Y-131785211D01*
X154486076Y-131790670D01*
X154483921Y-131791304D01*
X154481690Y-131791523D01*
X154424109Y-131808908D01*
X154371936Y-131824263D01*
X154330829Y-131811538D01*
X154273397Y-131793320D01*
X154271169Y-131793070D01*
X154269024Y-131792406D01*
X154209157Y-131786114D01*
X154149270Y-131779396D01*
X154144955Y-131779366D01*
X154144802Y-131779350D01*
X154144649Y-131779364D01*
X154140334Y-131779334D01*
X151750062Y-131779334D01*
X151764637Y-131764759D01*
X151921680Y-131529727D01*
X152029853Y-131268574D01*
X152085000Y-130991335D01*
X152085000Y-130708665D01*
X152029853Y-130431426D01*
X151921680Y-130170273D01*
X151764637Y-129935241D01*
X151564759Y-129735363D01*
X151329727Y-129578320D01*
X151068574Y-129470147D01*
X150791335Y-129415000D01*
X150508665Y-129415000D01*
X150231426Y-129470147D01*
X149970273Y-129578320D01*
X149735241Y-129735363D01*
X149535363Y-129935241D01*
X149378320Y-130170273D01*
X149270147Y-130431426D01*
X149215000Y-130708665D01*
X149215000Y-130991335D01*
X149270147Y-131268574D01*
X149378320Y-131529727D01*
X149535363Y-131764759D01*
X149549938Y-131779334D01*
X147028334Y-131779334D01*
X146968396Y-131785211D01*
X146908410Y-131790670D01*
X146906255Y-131791304D01*
X146904024Y-131791523D01*
X146846443Y-131808908D01*
X146788586Y-131825936D01*
X146786594Y-131826977D01*
X146784449Y-131827625D01*
X146731252Y-131855910D01*
X146677894Y-131883805D01*
X146676149Y-131885208D01*
X146674163Y-131886264D01*
X146627480Y-131924339D01*
X146580549Y-131962071D01*
X146579104Y-131963793D01*
X146577368Y-131965209D01*
X146539041Y-132011538D01*
X146500261Y-132057755D01*
X146499178Y-132059725D01*
X146497750Y-132061451D01*
X146469151Y-132114343D01*
X146440087Y-132167211D01*
X146439407Y-132169354D01*
X146438342Y-132171324D01*
X146420538Y-132228839D01*
X146402320Y-132286271D01*
X146402070Y-132288499D01*
X146401406Y-132290644D01*
X146395114Y-132350511D01*
X146388396Y-132410398D01*
X146388366Y-132414713D01*
X146388350Y-132414866D01*
X146388364Y-132415019D01*
X146388334Y-132419334D01*
X146388334Y-157523000D01*
X146394211Y-157582938D01*
X146399670Y-157642924D01*
X146400304Y-157645079D01*
X146400523Y-157647310D01*
X146413683Y-157690897D01*
X141279167Y-157690897D01*
X141129418Y-157683385D01*
X141012260Y-157665606D01*
X140823784Y-157612391D01*
X140656562Y-157537090D01*
X140503253Y-157439046D01*
X140366020Y-157320295D01*
X140247234Y-157183118D01*
X140149171Y-157029888D01*
X140073864Y-156862769D01*
X140020638Y-156674376D01*
X140002859Y-156557294D01*
X139995345Y-156407584D01*
X139995345Y-155308535D01*
X140095234Y-155308535D01*
X140095234Y-155675467D01*
X140166819Y-156035349D01*
X140307238Y-156374351D01*
X140511095Y-156679444D01*
X140770556Y-156938905D01*
X141075649Y-157142762D01*
X141414651Y-157283181D01*
X141774533Y-157354766D01*
X142141465Y-157354766D01*
X142501347Y-157283181D01*
X142840349Y-157142762D01*
X143145442Y-156938905D01*
X143404903Y-156679444D01*
X143608760Y-156374351D01*
X143749179Y-156035349D01*
X143820764Y-155675467D01*
X143820764Y-155308535D01*
X143749179Y-154948653D01*
X143608760Y-154609651D01*
X143404903Y-154304558D01*
X143145442Y-154045097D01*
X142840349Y-153841240D01*
X142501347Y-153700821D01*
X142141465Y-153629236D01*
X141774533Y-153629236D01*
X141414651Y-153700821D01*
X141075649Y-153841240D01*
X140770556Y-154045097D01*
X140511095Y-154304558D01*
X140307238Y-154609651D01*
X140166819Y-154948653D01*
X140095234Y-155308535D01*
X139995345Y-155308535D01*
X139995345Y-150150000D01*
X141761928Y-150150000D01*
X141761928Y-151850000D01*
X141774188Y-151974482D01*
X141810498Y-152094180D01*
X141869463Y-152204494D01*
X141948815Y-152301185D01*
X142045506Y-152380537D01*
X142155820Y-152439502D01*
X142275518Y-152475812D01*
X142400000Y-152488072D01*
X144100000Y-152488072D01*
X144224482Y-152475812D01*
X144344180Y-152439502D01*
X144454494Y-152380537D01*
X144551185Y-152301185D01*
X144630537Y-152204494D01*
X144689502Y-152094180D01*
X144725812Y-151974482D01*
X144738072Y-151850000D01*
X144738072Y-150150000D01*
X144725812Y-150025518D01*
X144689502Y-149905820D01*
X144630537Y-149795506D01*
X144551185Y-149698815D01*
X144454494Y-149619463D01*
X144344180Y-149560498D01*
X144224482Y-149524188D01*
X144100000Y-149511928D01*
X142400000Y-149511928D01*
X142275518Y-149524188D01*
X142155820Y-149560498D01*
X142045506Y-149619463D01*
X141948815Y-149698815D01*
X141869463Y-149795506D01*
X141810498Y-149905820D01*
X141774188Y-150025518D01*
X141761928Y-150150000D01*
X139995345Y-150150000D01*
X139995345Y-146633589D01*
X141925000Y-146633589D01*
X141925000Y-146906411D01*
X141978225Y-147173989D01*
X142082629Y-147426043D01*
X142234201Y-147652886D01*
X142427114Y-147845799D01*
X142653957Y-147997371D01*
X142906011Y-148101775D01*
X143173589Y-148155000D01*
X143446411Y-148155000D01*
X143713989Y-148101775D01*
X143966043Y-147997371D01*
X144192886Y-147845799D01*
X144385799Y-147652886D01*
X144537371Y-147426043D01*
X144641775Y-147173989D01*
X144695000Y-146906411D01*
X144695000Y-146633589D01*
X144641775Y-146366011D01*
X144537371Y-146113957D01*
X144385799Y-145887114D01*
X144192886Y-145694201D01*
X143966043Y-145542629D01*
X143713989Y-145438225D01*
X143446411Y-145385000D01*
X143173589Y-145385000D01*
X142906011Y-145438225D01*
X142653957Y-145542629D01*
X142427114Y-145694201D01*
X142234201Y-145887114D01*
X142082629Y-146113957D01*
X141978225Y-146366011D01*
X141925000Y-146633589D01*
X139995345Y-146633589D01*
X139995345Y-110444157D01*
X140002859Y-110294445D01*
X140020637Y-110177365D01*
X140073864Y-109988973D01*
X140149173Y-109821847D01*
X140247234Y-109668621D01*
X140366020Y-109531444D01*
X140503253Y-109412693D01*
X140656562Y-109314649D01*
X140823784Y-109239348D01*
X141012260Y-109186133D01*
X141129418Y-109168354D01*
X141279161Y-109160843D01*
X141289056Y-109160843D01*
X141075649Y-109249239D01*
X140770556Y-109453096D01*
X140511095Y-109712557D01*
X140307238Y-110017650D01*
X140166819Y-110356652D01*
X140095234Y-110716534D01*
X140095234Y-111083466D01*
X140166819Y-111443348D01*
X140307238Y-111782350D01*
X140511095Y-112087443D01*
X140770556Y-112346904D01*
X141075649Y-112550761D01*
X141414651Y-112691180D01*
X141774533Y-112762765D01*
X142141465Y-112762765D01*
X142501347Y-112691180D01*
X142840349Y-112550761D01*
X143145442Y-112346904D01*
X143404903Y-112087443D01*
X143608760Y-111782350D01*
X143749179Y-111443348D01*
X143820764Y-111083466D01*
X143820764Y-110716534D01*
X143749179Y-110356652D01*
X143608760Y-110017650D01*
X143404903Y-109712557D01*
X143145442Y-109453096D01*
X142840349Y-109249239D01*
X142626942Y-109160843D01*
X161992879Y-109160843D01*
X162028984Y-109164399D01*
X162065089Y-109160843D01*
X162173069Y-109150208D01*
X162311617Y-109108180D01*
X162439304Y-109039930D01*
X162551222Y-108948081D01*
X162643071Y-108836163D01*
X162645944Y-108830788D01*
X162807386Y-108798675D01*
X162968002Y-108732146D01*
X163049952Y-108677389D01*
X163131902Y-108732146D01*
X163292518Y-108798675D01*
X163463027Y-108832592D01*
X163636877Y-108832592D01*
X163807386Y-108798675D01*
X163968002Y-108732146D01*
X164074952Y-108660684D01*
X164181902Y-108732146D01*
%TA.AperFunction,Conductor*%
D25*
G36*
X164181902Y-108732146D02*
G01*
X164342518Y-108798675D01*
X164513027Y-108832592D01*
X164686877Y-108832592D01*
X164857386Y-108798675D01*
X165018002Y-108732146D01*
X165099952Y-108677389D01*
X165181902Y-108732146D01*
X165342518Y-108798675D01*
X165513027Y-108832592D01*
X165686877Y-108832592D01*
X165857386Y-108798675D01*
X166018002Y-108732146D01*
X166099952Y-108677389D01*
X166181902Y-108732146D01*
X166342518Y-108798675D01*
X166401321Y-108810372D01*
X166415107Y-108836163D01*
X166506956Y-108948081D01*
X166604312Y-109027979D01*
X166618874Y-109039930D01*
X166746561Y-109108180D01*
X166885109Y-109150208D01*
X167029194Y-109164399D01*
X167065299Y-109160843D01*
X197188149Y-109160843D01*
X197224254Y-109164399D01*
X197260359Y-109160843D01*
X197368339Y-109150208D01*
X197506887Y-109108180D01*
X197634574Y-109039930D01*
X197746492Y-108948081D01*
X197822354Y-108855643D01*
X197857386Y-108848675D01*
X198018002Y-108782146D01*
X198099952Y-108727389D01*
X198181902Y-108782146D01*
X198342518Y-108848675D01*
X198513027Y-108882592D01*
X198686877Y-108882592D01*
X198857386Y-108848675D01*
X199018002Y-108782146D01*
X199124952Y-108710684D01*
X199231902Y-108782146D01*
X199392518Y-108848675D01*
X199563027Y-108882592D01*
X199736877Y-108882592D01*
X199907386Y-108848675D01*
X200068002Y-108782146D01*
X200149952Y-108727389D01*
X200231902Y-108782146D01*
X200392518Y-108848675D01*
X200515154Y-108873069D01*
X200576715Y-108948081D01*
X200674071Y-109027979D01*
X200688633Y-109039930D01*
X200816320Y-109108180D01*
X200954868Y-109150208D01*
X201098953Y-109164399D01*
X201135058Y-109160843D01*
X222421237Y-109160843D01*
X222457342Y-109164399D01*
X222493447Y-109160843D01*
X222601427Y-109150208D01*
X222739975Y-109108180D01*
X222867662Y-109039930D01*
X222979580Y-108948081D01*
X223050191Y-108862041D01*
X223117386Y-108848675D01*
X223278002Y-108782146D01*
X223359952Y-108727389D01*
X223441902Y-108782146D01*
X223602518Y-108848675D01*
X223773027Y-108882592D01*
X223946877Y-108882592D01*
X224117386Y-108848675D01*
X224278002Y-108782146D01*
X224384952Y-108710684D01*
X224491902Y-108782146D01*
X224652518Y-108848675D01*
X224823027Y-108882592D01*
X224996877Y-108882592D01*
X225167386Y-108848675D01*
X225328002Y-108782146D01*
X225409952Y-108727389D01*
X225491902Y-108782146D01*
X225652518Y-108848675D01*
X225756579Y-108869374D01*
X225821172Y-108948081D01*
X225918528Y-109027979D01*
X225933090Y-109039930D01*
X226060777Y-109108180D01*
X226199325Y-109150208D01*
X226343410Y-109164399D01*
X226379515Y-109160843D01*
X235881057Y-109160843D01*
X235667650Y-109249239D01*
X235362557Y-109453096D01*
X235103096Y-109712557D01*
X234899239Y-110017650D01*
X234758820Y-110356652D01*
X234704506Y-110629705D01*
X234063804Y-109989003D01*
X234040001Y-109959999D01*
X233924276Y-109865026D01*
X233792247Y-109794454D01*
X233648986Y-109750997D01*
X233537333Y-109740000D01*
X233537322Y-109740000D01*
X233500000Y-109736324D01*
X233462678Y-109740000D01*
X146537322Y-109740000D01*
X146499999Y-109736324D01*
X146462676Y-109740000D01*
X146462667Y-109740000D01*
X146351014Y-109750997D01*
X146207753Y-109794454D01*
X146075724Y-109865026D01*
X145959999Y-109959999D01*
X145936201Y-109988997D01*
X145145096Y-110780103D01*
X145145091Y-110780107D01*
X140989003Y-114936196D01*
X140959999Y-114959999D01*
X140904871Y-115027174D01*
X140865026Y-115075724D01*
X140843342Y-115116292D01*
X140794454Y-115207754D01*
X140750997Y-115351015D01*
X140740000Y-115462668D01*
X140740000Y-115462678D01*
X140736324Y-115500000D01*
X140740000Y-115537322D01*
X140740001Y-137962667D01*
X140736324Y-138000000D01*
X140750998Y-138148985D01*
X140794454Y-138292246D01*
X140865026Y-138424276D01*
X140927172Y-138500000D01*
X140960000Y-138540001D01*
X140988998Y-138563799D01*
X141861928Y-139436729D01*
X141861928Y-141500000D01*
X141883796Y-141722027D01*
X141948559Y-141935521D01*
X142053728Y-142132279D01*
X142195262Y-142304738D01*
X142367721Y-142446272D01*
X142564479Y-142551441D01*
X142777973Y-142616204D01*
X143000000Y-142638072D01*
X144000000Y-142638072D01*
X144222027Y-142616204D01*
X144435521Y-142551441D01*
X144632279Y-142446272D01*
X144804738Y-142304738D01*
X144946272Y-142132279D01*
X145051441Y-141935521D01*
X145116204Y-141722027D01*
X145138072Y-141500000D01*
X145138072Y-138500000D01*
X145116204Y-138277973D01*
X145051441Y-138064479D01*
X144946272Y-137867721D01*
X144804738Y-137695262D01*
X144632279Y-137553728D01*
X144435521Y-137448559D01*
X144222027Y-137383796D01*
X144000000Y-137361928D01*
X143000000Y-137361928D01*
X142777973Y-137383796D01*
X142564479Y-137448559D01*
X142367721Y-137553728D01*
X142260000Y-137642133D01*
X142260000Y-129357867D01*
X142367721Y-129446272D01*
X142564479Y-129551441D01*
X142777973Y-129616204D01*
X143000000Y-129638072D01*
X144000000Y-129638072D01*
X144222027Y-129616204D01*
X144435521Y-129551441D01*
X144632279Y-129446272D01*
X144804738Y-129304738D01*
X144946272Y-129132279D01*
X145051441Y-128935521D01*
X145116204Y-128722027D01*
X145138072Y-128500000D01*
X145138072Y-125500000D01*
X145116204Y-125277973D01*
X145051441Y-125064479D01*
X144946272Y-124867721D01*
X144804738Y-124695262D01*
X144632279Y-124553728D01*
X144435521Y-124448559D01*
X144222027Y-124383796D01*
X144000000Y-124361928D01*
X143000000Y-124361928D01*
X142777973Y-124383796D01*
X142564479Y-124448559D01*
X142367721Y-124553728D01*
X142260000Y-124642133D01*
X142260000Y-120548665D01*
X149215000Y-120548665D01*
X149215000Y-120831335D01*
X149270147Y-121108574D01*
X149378320Y-121369727D01*
X149535363Y-121604759D01*
X149735241Y-121804637D01*
X149970273Y-121961680D01*
X150231426Y-122069853D01*
X150508665Y-122125000D01*
X150791335Y-122125000D01*
X151068574Y-122069853D01*
X151329727Y-121961680D01*
X151564759Y-121804637D01*
X151764637Y-121604759D01*
X151921680Y-121369727D01*
X152029853Y-121108574D01*
X152085000Y-120831335D01*
X152085000Y-120698665D01*
X156065000Y-120698665D01*
X156065000Y-120981335D01*
X156120147Y-121258574D01*
X156228320Y-121519727D01*
X156385363Y-121754759D01*
X156585241Y-121954637D01*
X156820273Y-122111680D01*
X157081426Y-122219853D01*
X157358665Y-122275000D01*
X157641335Y-122275000D01*
X157918574Y-122219853D01*
X158179727Y-122111680D01*
X158414759Y-121954637D01*
X158614637Y-121754759D01*
X158771680Y-121519727D01*
X158879853Y-121258574D01*
X158935000Y-120981335D01*
X158935000Y-120698665D01*
X161065000Y-120698665D01*
X161065000Y-120981335D01*
X161120147Y-121258574D01*
X161228320Y-121519727D01*
X161385363Y-121754759D01*
X161585241Y-121954637D01*
X161820273Y-122111680D01*
X162081426Y-122219853D01*
X162358665Y-122275000D01*
X162641335Y-122275000D01*
X162918574Y-122219853D01*
X163179727Y-122111680D01*
X163414759Y-121954637D01*
X163614637Y-121754759D01*
X163771680Y-121519727D01*
X163879853Y-121258574D01*
X163935000Y-120981335D01*
X163935000Y-120698665D01*
X166565000Y-120698665D01*
X166565000Y-120981335D01*
X166620147Y-121258574D01*
X166728320Y-121519727D01*
X166885363Y-121754759D01*
X167085241Y-121954637D01*
X167320273Y-122111680D01*
X167581426Y-122219853D01*
X167858665Y-122275000D01*
X168141335Y-122275000D01*
X168418574Y-122219853D01*
X168679727Y-122111680D01*
X168914759Y-121954637D01*
X169114637Y-121754759D01*
X169271680Y-121519727D01*
X169379853Y-121258574D01*
X169435000Y-120981335D01*
X169435000Y-120698665D01*
X173565000Y-120698665D01*
X173565000Y-120981335D01*
X173620147Y-121258574D01*
X173728320Y-121519727D01*
X173885363Y-121754759D01*
X174085241Y-121954637D01*
X174320273Y-122111680D01*
X174581426Y-122219853D01*
X174858665Y-122275000D01*
X175141335Y-122275000D01*
X175418574Y-122219853D01*
X175679727Y-122111680D01*
X175914759Y-121954637D01*
X176114637Y-121754759D01*
X176271680Y-121519727D01*
X176379853Y-121258574D01*
X176435000Y-120981335D01*
X176435000Y-120698665D01*
X181065000Y-120698665D01*
X181065000Y-120981335D01*
X181120147Y-121258574D01*
X181228320Y-121519727D01*
X181385363Y-121754759D01*
X181585241Y-121954637D01*
X181820273Y-122111680D01*
X182081426Y-122219853D01*
X182358665Y-122275000D01*
X182641335Y-122275000D01*
X182918574Y-122219853D01*
X183179727Y-122111680D01*
X183414759Y-121954637D01*
X183614637Y-121754759D01*
X183771680Y-121519727D01*
X183879853Y-121258574D01*
X183935000Y-120981335D01*
X183935000Y-120698665D01*
X183879853Y-120421426D01*
X183771680Y-120160273D01*
X183614637Y-119925241D01*
X183414759Y-119725363D01*
X183179727Y-119568320D01*
X182918574Y-119460147D01*
X182641335Y-119405000D01*
X182358665Y-119405000D01*
X182081426Y-119460147D01*
X181820273Y-119568320D01*
X181585241Y-119725363D01*
X181385363Y-119925241D01*
X181228320Y-120160273D01*
X181120147Y-120421426D01*
X181065000Y-120698665D01*
X176435000Y-120698665D01*
X176379853Y-120421426D01*
X176271680Y-120160273D01*
X176114637Y-119925241D01*
X175914759Y-119725363D01*
X175679727Y-119568320D01*
X175418574Y-119460147D01*
X175141335Y-119405000D01*
X174858665Y-119405000D01*
X174581426Y-119460147D01*
X174320273Y-119568320D01*
X174085241Y-119725363D01*
X173885363Y-119925241D01*
X173728320Y-120160273D01*
X173620147Y-120421426D01*
X173565000Y-120698665D01*
X169435000Y-120698665D01*
X169379853Y-120421426D01*
X169271680Y-120160273D01*
X169114637Y-119925241D01*
X168914759Y-119725363D01*
X168679727Y-119568320D01*
X168418574Y-119460147D01*
X168141335Y-119405000D01*
X167858665Y-119405000D01*
X167581426Y-119460147D01*
X167320273Y-119568320D01*
X167085241Y-119725363D01*
X166885363Y-119925241D01*
X166728320Y-120160273D01*
X166620147Y-120421426D01*
X166565000Y-120698665D01*
X163935000Y-120698665D01*
X163879853Y-120421426D01*
X163771680Y-120160273D01*
X163614637Y-119925241D01*
X163414759Y-119725363D01*
X163179727Y-119568320D01*
X162918574Y-119460147D01*
X162641335Y-119405000D01*
X162358665Y-119405000D01*
X162081426Y-119460147D01*
X161820273Y-119568320D01*
X161585241Y-119725363D01*
X161385363Y-119925241D01*
X161228320Y-120160273D01*
X161120147Y-120421426D01*
X161065000Y-120698665D01*
X158935000Y-120698665D01*
X158879853Y-120421426D01*
X158771680Y-120160273D01*
X158614637Y-119925241D01*
X158414759Y-119725363D01*
X158179727Y-119568320D01*
X157918574Y-119460147D01*
X157641335Y-119405000D01*
X157358665Y-119405000D01*
X157081426Y-119460147D01*
X156820273Y-119568320D01*
X156585241Y-119725363D01*
X156385363Y-119925241D01*
X156228320Y-120160273D01*
X156120147Y-120421426D01*
X156065000Y-120698665D01*
X152085000Y-120698665D01*
X152085000Y-120548665D01*
X152029853Y-120271426D01*
X151921680Y-120010273D01*
X151764637Y-119775241D01*
X151564759Y-119575363D01*
X151329727Y-119418320D01*
X151068574Y-119310147D01*
X150791335Y-119255000D01*
X150508665Y-119255000D01*
X150231426Y-119310147D01*
X149970273Y-119418320D01*
X149735241Y-119575363D01*
X149535363Y-119775241D01*
X149378320Y-120010273D01*
X149270147Y-120271426D01*
X149215000Y-120548665D01*
X142260000Y-120548665D01*
X142260000Y-115814801D01*
X143574801Y-114500000D01*
X146811928Y-114500000D01*
X146811928Y-116300000D01*
X146824188Y-116424482D01*
X146860498Y-116544180D01*
X146919463Y-116654494D01*
X146998815Y-116751185D01*
X147095506Y-116830537D01*
X147205820Y-116889502D01*
X147325518Y-116925812D01*
X147450000Y-116938072D01*
X148550000Y-116938072D01*
X148674482Y-116925812D01*
X148794180Y-116889502D01*
X148904494Y-116830537D01*
X149001185Y-116751185D01*
X149080537Y-116654494D01*
X149139502Y-116544180D01*
X149175812Y-116424482D01*
X149188072Y-116300000D01*
X149351928Y-116300000D01*
X149364188Y-116424482D01*
X149400498Y-116544180D01*
X149459463Y-116654494D01*
X149538815Y-116751185D01*
X149635506Y-116830537D01*
X149745820Y-116889502D01*
X149865518Y-116925812D01*
X149990000Y-116938072D01*
X150254250Y-116935000D01*
X150413000Y-116776250D01*
X150413000Y-115527000D01*
X150667000Y-115527000D01*
X150667000Y-116776250D01*
X150825750Y-116935000D01*
X151090000Y-116938072D01*
X151214482Y-116925812D01*
X151334180Y-116889502D01*
X151444494Y-116830537D01*
X151541185Y-116751185D01*
X151620537Y-116654494D01*
X151679502Y-116544180D01*
X151715812Y-116424482D01*
X151728072Y-116300000D01*
X151725000Y-115685750D01*
X151566250Y-115527000D01*
X150667000Y-115527000D01*
X150413000Y-115527000D01*
X149513750Y-115527000D01*
X149355000Y-115685750D01*
X149351928Y-116300000D01*
X149188072Y-116300000D01*
X149188072Y-114868072D01*
X149353769Y-114868072D01*
X149355000Y-115114250D01*
X149513750Y-115273000D01*
X150413000Y-115273000D01*
X150413000Y-114223880D01*
X150440528Y-114133132D01*
X150451300Y-114023750D01*
X150667000Y-114023750D01*
X150667000Y-115273000D01*
X151566250Y-115273000D01*
X151725000Y-115114250D01*
X151728072Y-114500000D01*
X155311928Y-114500000D01*
X155311928Y-116300000D01*
X155324188Y-116424482D01*
X155360498Y-116544180D01*
X155419463Y-116654494D01*
X155498815Y-116751185D01*
X155595506Y-116830537D01*
X155705820Y-116889502D01*
X155825518Y-116925812D01*
X155950000Y-116938072D01*
X157050000Y-116938072D01*
X157174482Y-116925812D01*
X157294180Y-116889502D01*
X157307553Y-116882354D01*
X158936201Y-118511003D01*
X158959999Y-118540001D01*
X159075724Y-118634974D01*
X159207753Y-118705546D01*
X159351014Y-118749003D01*
X159462667Y-118760000D01*
X159462675Y-118760000D01*
X159500000Y-118763676D01*
X159537325Y-118760000D01*
X162962678Y-118760000D01*
X163000000Y-118763676D01*
X163037322Y-118760000D01*
X163037333Y-118760000D01*
X163148986Y-118749003D01*
X163292247Y-118705546D01*
X163424276Y-118634974D01*
X163540001Y-118540001D01*
X163563804Y-118510997D01*
X165136730Y-116938072D01*
X165550000Y-116938072D01*
X165674482Y-116925812D01*
X165794180Y-116889502D01*
X165904494Y-116830537D01*
X166001185Y-116751185D01*
X166080537Y-116654494D01*
X166139502Y-116544180D01*
X166175812Y-116424482D01*
X166188072Y-116300000D01*
X166188072Y-114868072D01*
X166351928Y-114868072D01*
X166351928Y-116025000D01*
X166369472Y-116203132D01*
X166421431Y-116374418D01*
X166505808Y-116532276D01*
X166619361Y-116670639D01*
X166757724Y-116784192D01*
X166915582Y-116868569D01*
X167086868Y-116920528D01*
X167265000Y-116938072D01*
X167815000Y-116938072D01*
X167993132Y-116920528D01*
X168164418Y-116868569D01*
X168322276Y-116784192D01*
X168460639Y-116670639D01*
X168574192Y-116532276D01*
X168658569Y-116374418D01*
X168710528Y-116203132D01*
X168728072Y-116025000D01*
X168728072Y-114775000D01*
X168710528Y-114596868D01*
X168658569Y-114425582D01*
X168574192Y-114267724D01*
X168460639Y-114129361D01*
X168322276Y-114015808D01*
X168164418Y-113931431D01*
X167993132Y-113879472D01*
X167815000Y-113861928D01*
X167458072Y-113861928D01*
X167458072Y-113616729D01*
X168209812Y-112864990D01*
X175081928Y-112864990D01*
X175081928Y-113861928D01*
X174450000Y-113861928D01*
X174325518Y-113874188D01*
X174205820Y-113910498D01*
X174095506Y-113969463D01*
X173998815Y-114048815D01*
X173919463Y-114145506D01*
X173860498Y-114255820D01*
X173824188Y-114375518D01*
X173811928Y-114500000D01*
X173811928Y-116300000D01*
X173824188Y-116424482D01*
X173860498Y-116544180D01*
X173919463Y-116654494D01*
X173998815Y-116751185D01*
X174095506Y-116830537D01*
X174205820Y-116889502D01*
X174325518Y-116925812D01*
X174450000Y-116938072D01*
X175550000Y-116938072D01*
X175674482Y-116925812D01*
X175794180Y-116889502D01*
X175904494Y-116830537D01*
X176001185Y-116751185D01*
X176080537Y-116654494D01*
X176139502Y-116544180D01*
X176175812Y-116424482D01*
X176188072Y-116300000D01*
X176188072Y-114868072D01*
X176351928Y-114868072D01*
X176351928Y-116025000D01*
X176369472Y-116203132D01*
X176421431Y-116374418D01*
X176505808Y-116532276D01*
X176619361Y-116670639D01*
X176757724Y-116784192D01*
X176915582Y-116868569D01*
X177086868Y-116920528D01*
X177265000Y-116938072D01*
X177815000Y-116938072D01*
X177993132Y-116920528D01*
X178164418Y-116868569D01*
X178322276Y-116784192D01*
X178460639Y-116670639D01*
X178574192Y-116532276D01*
X178658569Y-116374418D01*
X178710528Y-116203132D01*
X178728072Y-116025000D01*
X178728072Y-114775000D01*
X178710528Y-114596868D01*
X178658569Y-114425582D01*
X178574192Y-114267724D01*
X178460639Y-114129361D01*
X178322276Y-114015808D01*
X178164418Y-113931431D01*
X177993132Y-113879472D01*
X177815000Y-113861928D01*
X177458072Y-113861928D01*
X177458072Y-112864990D01*
X190700189Y-112864990D01*
X192011312Y-114176114D01*
X191975000Y-114358665D01*
X191975000Y-114641335D01*
X192030147Y-114918574D01*
X192138320Y-115179727D01*
X192295363Y-115414759D01*
X192495241Y-115614637D01*
X192730273Y-115771680D01*
X192991426Y-115879853D01*
X193268665Y-115935000D01*
X193551335Y-115935000D01*
X193828574Y-115879853D01*
X194089727Y-115771680D01*
X194324759Y-115614637D01*
X194446694Y-115492702D01*
X195436903Y-115492702D01*
X195508486Y-115736671D01*
X195763996Y-115857571D01*
X196038184Y-115926300D01*
X196320512Y-115940217D01*
X196600130Y-115898787D01*
X196866292Y-115803603D01*
X196991514Y-115736671D01*
X197063097Y-115492702D01*
X196250000Y-114679605D01*
X195436903Y-115492702D01*
X194446694Y-115492702D01*
X194524637Y-115414759D01*
X194681680Y-115179727D01*
X194789853Y-114918574D01*
X194830831Y-114712567D01*
X194851213Y-114850130D01*
X194946397Y-115116292D01*
X195013329Y-115241514D01*
X195257298Y-115313097D01*
X196070395Y-114500000D01*
X196429605Y-114500000D01*
X197242702Y-115313097D01*
X197486671Y-115241514D01*
X197607571Y-114986004D01*
X197676300Y-114711816D01*
X197690217Y-114429488D01*
X197679724Y-114358665D01*
X204975000Y-114358665D01*
X204975000Y-114641335D01*
X205030147Y-114918574D01*
X205138320Y-115179727D01*
X205295363Y-115414759D01*
X205495241Y-115614637D01*
X205730273Y-115771680D01*
X205991426Y-115879853D01*
X206268665Y-115935000D01*
X206551335Y-115935000D01*
X206828574Y-115879853D01*
X207089727Y-115771680D01*
X207324759Y-115614637D01*
X207446694Y-115492702D01*
X208436903Y-115492702D01*
X208508486Y-115736671D01*
X208763996Y-115857571D01*
X209038184Y-115926300D01*
X209320512Y-115940217D01*
X209600130Y-115898787D01*
X209866292Y-115803603D01*
X209991514Y-115736671D01*
X210063097Y-115492702D01*
X209250000Y-114679605D01*
X208436903Y-115492702D01*
X207446694Y-115492702D01*
X207524637Y-115414759D01*
X207681680Y-115179727D01*
X207789853Y-114918574D01*
X207830831Y-114712567D01*
X207851213Y-114850130D01*
X207946397Y-115116292D01*
X208013329Y-115241514D01*
X208257298Y-115313097D01*
X209070395Y-114500000D01*
X209429605Y-114500000D01*
X210242702Y-115313097D01*
X210486671Y-115241514D01*
X210607571Y-114986004D01*
X210676300Y-114711816D01*
X210690217Y-114429488D01*
X210679724Y-114358665D01*
X217975000Y-114358665D01*
X217975000Y-114641335D01*
X218030147Y-114918574D01*
X218138320Y-115179727D01*
X218295363Y-115414759D01*
X218495241Y-115614637D01*
X218730273Y-115771680D01*
X218991426Y-115879853D01*
X219268665Y-115935000D01*
X219551335Y-115935000D01*
X219828574Y-115879853D01*
X220089727Y-115771680D01*
X220324759Y-115614637D01*
X220524637Y-115414759D01*
X220681680Y-115179727D01*
X220789853Y-114918574D01*
X220830000Y-114716744D01*
X220870147Y-114918574D01*
X220978320Y-115179727D01*
X221135363Y-115414759D01*
X221335241Y-115614637D01*
X221570273Y-115771680D01*
X221831426Y-115879853D01*
X222108665Y-115935000D01*
X222391335Y-115935000D01*
X222668574Y-115879853D01*
X222929727Y-115771680D01*
X223164759Y-115614637D01*
X223364637Y-115414759D01*
X223521680Y-115179727D01*
X223629853Y-114918574D01*
X223685000Y-114641335D01*
X223685000Y-114358665D01*
X230975000Y-114358665D01*
X230975000Y-114641335D01*
X231030147Y-114918574D01*
X231138320Y-115179727D01*
X231295363Y-115414759D01*
X231495241Y-115614637D01*
X231730273Y-115771680D01*
X231991426Y-115879853D01*
X232268665Y-115935000D01*
X232551335Y-115935000D01*
X232828574Y-115879853D01*
X233089727Y-115771680D01*
X233324759Y-115614637D01*
X233524637Y-115414759D01*
X233681680Y-115179727D01*
X233789853Y-114918574D01*
X233845000Y-114641335D01*
X233845000Y-114358665D01*
X233789853Y-114081426D01*
X233681680Y-113820273D01*
X233524637Y-113585241D01*
X233324759Y-113385363D01*
X233089727Y-113228320D01*
X232828574Y-113120147D01*
X232551335Y-113065000D01*
X232268665Y-113065000D01*
X231991426Y-113120147D01*
X231730273Y-113228320D01*
X231495241Y-113385363D01*
X231295363Y-113585241D01*
X231138320Y-113820273D01*
X231030147Y-114081426D01*
X230975000Y-114358665D01*
X223685000Y-114358665D01*
X223629853Y-114081426D01*
X223521680Y-113820273D01*
X223364637Y-113585241D01*
X223164759Y-113385363D01*
X222929727Y-113228320D01*
X222668574Y-113120147D01*
X222391335Y-113065000D01*
X222108665Y-113065000D01*
X221831426Y-113120147D01*
X221570273Y-113228320D01*
X221335241Y-113385363D01*
X221135363Y-113585241D01*
X220978320Y-113820273D01*
X220870147Y-114081426D01*
X220830000Y-114283256D01*
X220789853Y-114081426D01*
X220681680Y-113820273D01*
X220524637Y-113585241D01*
X220324759Y-113385363D01*
X220089727Y-113228320D01*
X219828574Y-113120147D01*
X219551335Y-113065000D01*
X219268665Y-113065000D01*
X218991426Y-113120147D01*
X218730273Y-113228320D01*
X218495241Y-113385363D01*
X218295363Y-113585241D01*
X218138320Y-113820273D01*
X218030147Y-114081426D01*
X217975000Y-114358665D01*
X210679724Y-114358665D01*
X210648787Y-114149870D01*
X210553603Y-113883708D01*
X210486671Y-113758486D01*
X210242702Y-113686903D01*
X209429605Y-114500000D01*
X209070395Y-114500000D01*
X208257298Y-113686903D01*
X208013329Y-113758486D01*
X207892429Y-114013996D01*
X207827759Y-114271990D01*
X207789853Y-114081426D01*
X207681680Y-113820273D01*
X207524637Y-113585241D01*
X207446694Y-113507298D01*
X208436903Y-113507298D01*
X209250000Y-114320395D01*
X210063097Y-113507298D01*
X209991514Y-113263329D01*
X209736004Y-113142429D01*
X209461816Y-113073700D01*
X209179488Y-113059783D01*
X208899870Y-113101213D01*
X208633708Y-113196397D01*
X208508486Y-113263329D01*
X208436903Y-113507298D01*
X207446694Y-113507298D01*
X207324759Y-113385363D01*
X207089727Y-113228320D01*
X206828574Y-113120147D01*
X206551335Y-113065000D01*
X206268665Y-113065000D01*
X205991426Y-113120147D01*
X205730273Y-113228320D01*
X205495241Y-113385363D01*
X205295363Y-113585241D01*
X205138320Y-113820273D01*
X205030147Y-114081426D01*
X204975000Y-114358665D01*
X197679724Y-114358665D01*
X197648787Y-114149870D01*
X197553603Y-113883708D01*
X197486671Y-113758486D01*
X197242702Y-113686903D01*
X196429605Y-114500000D01*
X196070395Y-114500000D01*
X195257298Y-113686903D01*
X195013329Y-113758486D01*
X194892429Y-114013996D01*
X194827759Y-114271990D01*
X194789853Y-114081426D01*
X194681680Y-113820273D01*
X194524637Y-113585241D01*
X194446694Y-113507298D01*
X195436903Y-113507298D01*
X196250000Y-114320395D01*
X197063097Y-113507298D01*
X196991514Y-113263329D01*
X196736004Y-113142429D01*
X196461816Y-113073700D01*
X196179488Y-113059783D01*
X195899870Y-113101213D01*
X195633708Y-113196397D01*
X195508486Y-113263329D01*
X195436903Y-113507298D01*
X194446694Y-113507298D01*
X194324759Y-113385363D01*
X194089727Y-113228320D01*
X193828574Y-113120147D01*
X193551335Y-113065000D01*
X193268665Y-113065000D01*
X193086114Y-113101312D01*
X191578794Y-111593993D01*
X191554991Y-111564989D01*
X191439266Y-111470016D01*
X191307237Y-111399444D01*
X191163976Y-111355987D01*
X191052323Y-111344990D01*
X191052312Y-111344990D01*
X191014990Y-111341314D01*
X190977668Y-111344990D01*
X167932332Y-111344990D01*
X167895009Y-111341314D01*
X167857686Y-111344990D01*
X167857677Y-111344990D01*
X167746024Y-111355987D01*
X167602763Y-111399444D01*
X167470734Y-111470016D01*
X167355009Y-111564989D01*
X167331211Y-111593987D01*
X167004778Y-111920420D01*
X166894418Y-111861431D01*
X166723132Y-111809472D01*
X166545000Y-111791928D01*
X165995000Y-111791928D01*
X165816868Y-111809472D01*
X165645582Y-111861431D01*
X165487724Y-111945808D01*
X165349361Y-112059361D01*
X165235808Y-112197724D01*
X165151431Y-112355582D01*
X165099472Y-112526868D01*
X165081928Y-112705000D01*
X165081928Y-113861928D01*
X164450000Y-113861928D01*
X164325518Y-113874188D01*
X164205820Y-113910498D01*
X164095506Y-113969463D01*
X163998815Y-114048815D01*
X163919463Y-114145506D01*
X163860498Y-114255820D01*
X163824188Y-114375518D01*
X163811928Y-114500000D01*
X163811928Y-116113270D01*
X162685199Y-117240000D01*
X159814802Y-117240000D01*
X159494818Y-116920016D01*
X159664418Y-116868569D01*
X159822276Y-116784192D01*
X159960639Y-116670639D01*
X160074192Y-116532276D01*
X160158569Y-116374418D01*
X160210528Y-116203132D01*
X160228072Y-116025000D01*
X160228072Y-114775000D01*
X160210528Y-114596868D01*
X160158569Y-114425582D01*
X160074192Y-114267724D01*
X159960639Y-114129361D01*
X159822276Y-114015808D01*
X159664418Y-113931431D01*
X159493132Y-113879472D01*
X159315000Y-113861928D01*
X158958072Y-113861928D01*
X158958072Y-112705000D01*
X158940528Y-112526868D01*
X158888569Y-112355582D01*
X158804192Y-112197724D01*
X158690639Y-112059361D01*
X158552276Y-111945808D01*
X158394418Y-111861431D01*
X158223132Y-111809472D01*
X158045000Y-111791928D01*
X157495000Y-111791928D01*
X157316868Y-111809472D01*
X157145582Y-111861431D01*
X156987724Y-111945808D01*
X156849361Y-112059361D01*
X156735808Y-112197724D01*
X156651431Y-112355582D01*
X156599472Y-112526868D01*
X156581928Y-112705000D01*
X156581928Y-113861928D01*
X155950000Y-113861928D01*
X155825518Y-113874188D01*
X155705820Y-113910498D01*
X155595506Y-113969463D01*
X155498815Y-114048815D01*
X155419463Y-114145506D01*
X155360498Y-114255820D01*
X155324188Y-114375518D01*
X155311928Y-114500000D01*
X151728072Y-114500000D01*
X151715812Y-114375518D01*
X151679502Y-114255820D01*
X151620537Y-114145506D01*
X151541185Y-114048815D01*
X151444494Y-113969463D01*
X151334180Y-113910498D01*
X151214482Y-113874188D01*
X151090000Y-113861928D01*
X150825750Y-113865000D01*
X150667000Y-114023750D01*
X150451300Y-114023750D01*
X150458072Y-113955000D01*
X150458072Y-112705000D01*
X150440528Y-112526868D01*
X150388569Y-112355582D01*
X150304192Y-112197724D01*
X150190639Y-112059361D01*
X150052276Y-111945808D01*
X149894418Y-111861431D01*
X149723132Y-111809472D01*
X149545000Y-111791928D01*
X148995000Y-111791928D01*
X148816868Y-111809472D01*
X148645582Y-111861431D01*
X148487724Y-111945808D01*
X148349361Y-112059361D01*
X148235808Y-112197724D01*
X148151431Y-112355582D01*
X148099472Y-112526868D01*
X148081928Y-112705000D01*
X148081928Y-113861928D01*
X147450000Y-113861928D01*
X147325518Y-113874188D01*
X147205820Y-113910498D01*
X147095506Y-113969463D01*
X146998815Y-114048815D01*
X146919463Y-114145506D01*
X146860498Y-114255820D01*
X146824188Y-114375518D01*
X146811928Y-114500000D01*
X143574801Y-114500000D01*
X146219893Y-111854909D01*
X146219897Y-111854904D01*
X146814802Y-111260000D01*
X233185199Y-111260000D01*
X234740001Y-112814803D01*
X234740000Y-119621956D01*
X234585241Y-119725363D01*
X234385363Y-119925241D01*
X234228320Y-120160273D01*
X234120147Y-120421426D01*
X234065000Y-120698665D01*
X234065000Y-120981335D01*
X234120147Y-121258574D01*
X234228320Y-121519727D01*
X234385363Y-121754759D01*
X234585241Y-121954637D01*
X234820273Y-122111680D01*
X235081426Y-122219853D01*
X235358665Y-122275000D01*
X235641335Y-122275000D01*
X235918574Y-122219853D01*
X236179727Y-122111680D01*
X236414759Y-121954637D01*
X236614637Y-121754759D01*
X236771680Y-121519727D01*
X236879853Y-121258574D01*
X236935000Y-120981335D01*
X236935000Y-120698665D01*
X236879853Y-120421426D01*
X236771680Y-120160273D01*
X236614637Y-119925241D01*
X236414759Y-119725363D01*
X236260000Y-119621957D01*
X236260000Y-112741574D01*
X236366534Y-112762765D01*
X236733466Y-112762765D01*
X237093348Y-112691180D01*
X237432350Y-112550761D01*
X237737443Y-112346904D01*
X237996904Y-112087443D01*
X238200761Y-111782350D01*
X238341180Y-111443348D01*
X238412765Y-111083466D01*
X238412765Y-110716534D01*
X238341180Y-110356652D01*
X238200761Y-110017650D01*
X237996904Y-109712557D01*
X237737443Y-109453096D01*
X237432350Y-109249239D01*
X237218943Y-109160843D01*
X237241636Y-109160843D01*
X237391375Y-109168354D01*
X237508489Y-109186128D01*
X237696915Y-109239336D01*
X237864044Y-109314612D01*
X238017274Y-109412633D01*
X238154428Y-109531355D01*
X238273145Y-109668503D01*
X238371162Y-109821728D01*
X238446442Y-109988867D01*
X238499650Y-110177291D01*
X238517424Y-110294403D01*
X238524937Y-110444170D01*
X238524936Y-156407591D01*
X238517424Y-156557335D01*
X238499650Y-156674451D01*
X238446442Y-156862874D01*
X238371164Y-157030008D01*
X238273145Y-157183236D01*
X238154428Y-157320384D01*
X238017274Y-157439106D01*
X237864044Y-157537127D01*
X237696915Y-157612403D01*
X237508489Y-157665611D01*
X237391376Y-157683385D01*
X237241630Y-157690897D01*
X231886631Y-157690897D01*
X231897681Y-157656063D01*
X231897931Y-157653835D01*
X231898595Y-157651690D01*
X231904887Y-157591823D01*
X231911605Y-157531936D01*
X231911635Y-157527621D01*
X231911651Y-157527468D01*
X231911637Y-157527315D01*
X231911667Y-157523000D01*
X231911667Y-155308535D01*
X234687235Y-155308535D01*
X234687235Y-155675467D01*
X234758820Y-156035349D01*
X234899239Y-156374351D01*
X235103096Y-156679444D01*
X235362557Y-156938905D01*
X235667650Y-157142762D01*
X236006652Y-157283181D01*
X236366534Y-157354766D01*
X236733466Y-157354766D01*
X237093348Y-157283181D01*
X237432350Y-157142762D01*
X237737443Y-156938905D01*
X237996904Y-156679444D01*
X238200761Y-156374351D01*
X238341180Y-156035349D01*
X238412765Y-155675467D01*
X238412765Y-155308535D01*
X238341180Y-154948653D01*
X238200761Y-154609651D01*
X237996904Y-154304558D01*
X237737443Y-154045097D01*
X237432350Y-153841240D01*
X237093348Y-153700821D01*
X236733466Y-153629236D01*
X236366534Y-153629236D01*
X236006652Y-153700821D01*
X235667650Y-153841240D01*
X235362557Y-154045097D01*
X235103096Y-154304558D01*
X234899239Y-154609651D01*
X234758820Y-154948653D01*
X234687235Y-155308535D01*
X231911667Y-155308535D01*
X231911667Y-150700000D01*
X232611928Y-150700000D01*
X232611928Y-152400000D01*
X232624188Y-152524482D01*
X232660498Y-152644180D01*
X232719463Y-152754494D01*
X232798815Y-152851185D01*
X232895506Y-152930537D01*
X233005820Y-152989502D01*
X233125518Y-153025812D01*
X233250000Y-153038072D01*
X234950000Y-153038072D01*
X235074482Y-153025812D01*
X235194180Y-152989502D01*
X235304494Y-152930537D01*
X235401185Y-152851185D01*
X235480537Y-152754494D01*
X235539502Y-152644180D01*
X235563966Y-152563534D01*
X235639731Y-152647588D01*
X235873080Y-152821641D01*
X236135901Y-152946825D01*
X236283110Y-152991476D01*
X236513000Y-152870155D01*
X236513000Y-151677000D01*
X236767000Y-151677000D01*
X236767000Y-152870155D01*
X236996890Y-152991476D01*
X237144099Y-152946825D01*
X237406920Y-152821641D01*
X237640269Y-152647588D01*
X237835178Y-152431355D01*
X237984157Y-152181252D01*
X238081481Y-151906891D01*
X237960814Y-151677000D01*
X236767000Y-151677000D01*
X236513000Y-151677000D01*
X236493000Y-151677000D01*
X236493000Y-151423000D01*
X236513000Y-151423000D01*
X236513000Y-151403000D01*
X236767000Y-151403000D01*
X236767000Y-151423000D01*
X237960814Y-151423000D01*
X238081481Y-151193109D01*
X237984157Y-150918748D01*
X237835178Y-150668645D01*
X237640269Y-150452412D01*
X237406920Y-150278359D01*
X237144099Y-150153175D01*
X237069653Y-150130594D01*
X237113989Y-150121775D01*
X237366043Y-150017371D01*
X237592886Y-149865799D01*
X237785799Y-149672886D01*
X237937371Y-149446043D01*
X238041775Y-149193989D01*
X238095000Y-148926411D01*
X238095000Y-148653589D01*
X238041775Y-148386011D01*
X237937371Y-148133957D01*
X237785799Y-147907114D01*
X237592886Y-147714201D01*
X237366043Y-147562629D01*
X237113989Y-147458225D01*
X236846411Y-147405000D01*
X236573589Y-147405000D01*
X236306011Y-147458225D01*
X236053957Y-147562629D01*
X235827114Y-147714201D01*
X235634201Y-147907114D01*
X235482629Y-148133957D01*
X235417071Y-148292228D01*
X235347371Y-148123957D01*
X235195799Y-147897114D01*
X235002886Y-147704201D01*
X234776043Y-147552629D01*
X234523989Y-147448225D01*
X234256411Y-147395000D01*
X233983589Y-147395000D01*
X233716011Y-147448225D01*
X233463957Y-147552629D01*
X233237114Y-147704201D01*
X233044201Y-147897114D01*
X232892629Y-148123957D01*
X232788225Y-148376011D01*
X232735000Y-148643589D01*
X232735000Y-148916411D01*
X232788225Y-149183989D01*
X232892629Y-149436043D01*
X233044201Y-149662886D01*
X233237114Y-149855799D01*
X233463957Y-150007371D01*
X233595669Y-150061928D01*
X233250000Y-150061928D01*
X233125518Y-150074188D01*
X233005820Y-150110498D01*
X232895506Y-150169463D01*
X232798815Y-150248815D01*
X232719463Y-150345506D01*
X232660498Y-150455820D01*
X232624188Y-150575518D01*
X232611928Y-150700000D01*
X231911667Y-150700000D01*
X231911667Y-141820000D01*
X233851928Y-141820000D01*
X233851928Y-143620000D01*
X233864188Y-143744482D01*
X233900498Y-143864180D01*
X233959463Y-143974494D01*
X234038815Y-144071185D01*
X234135506Y-144150537D01*
X234245820Y-144209502D01*
X234264127Y-144215056D01*
X234197688Y-144281495D01*
X234029701Y-144532905D01*
X233913989Y-144812257D01*
X233855000Y-145108816D01*
X233855000Y-145411184D01*
X233913989Y-145707743D01*
X234029701Y-145987095D01*
X234197688Y-146238505D01*
X234411495Y-146452312D01*
X234662905Y-146620299D01*
X234942257Y-146736011D01*
X235238816Y-146795000D01*
X235541184Y-146795000D01*
X235837743Y-146736011D01*
X236117095Y-146620299D01*
X236368505Y-146452312D01*
X236582312Y-146238505D01*
X236750299Y-145987095D01*
X236866011Y-145707743D01*
X236925000Y-145411184D01*
X236925000Y-145108816D01*
X236866011Y-144812257D01*
X236750299Y-144532905D01*
X236582312Y-144281495D01*
X236515873Y-144215056D01*
X236534180Y-144209502D01*
X236644494Y-144150537D01*
X236741185Y-144071185D01*
X236820537Y-143974494D01*
X236879502Y-143864180D01*
X236915812Y-143744482D01*
X236928072Y-143620000D01*
X236928072Y-141820000D01*
X236915812Y-141695518D01*
X236879502Y-141575820D01*
X236820537Y-141465506D01*
X236741185Y-141368815D01*
X236644494Y-141289463D01*
X236534180Y-141230498D01*
X236414482Y-141194188D01*
X236290000Y-141181928D01*
X234490000Y-141181928D01*
X234365518Y-141194188D01*
X234245820Y-141230498D01*
X234135506Y-141289463D01*
X234038815Y-141368815D01*
X233959463Y-141465506D01*
X233900498Y-141575820D01*
X233864188Y-141695518D01*
X233851928Y-141820000D01*
X231911667Y-141820000D01*
X231911667Y-140242702D01*
X234686903Y-140242702D01*
X234758486Y-140486671D01*
X235013996Y-140607571D01*
X235288184Y-140676300D01*
X235570512Y-140690217D01*
X235850130Y-140648787D01*
X236116292Y-140553603D01*
X236241514Y-140486671D01*
X236313097Y-140242702D01*
X235500000Y-139429605D01*
X234686903Y-140242702D01*
X231911667Y-140242702D01*
X231911667Y-139320512D01*
X234059783Y-139320512D01*
X234101213Y-139600130D01*
X234196397Y-139866292D01*
X234263329Y-139991514D01*
X234507298Y-140063097D01*
X235320395Y-139250000D01*
X235679605Y-139250000D01*
X236492702Y-140063097D01*
X236736671Y-139991514D01*
X236857571Y-139736004D01*
X236926300Y-139461816D01*
X236940217Y-139179488D01*
X236898787Y-138899870D01*
X236803603Y-138633708D01*
X236736671Y-138508486D01*
X236492702Y-138436903D01*
X235679605Y-139250000D01*
X235320395Y-139250000D01*
X234507298Y-138436903D01*
X234263329Y-138508486D01*
X234142429Y-138763996D01*
X234073700Y-139038184D01*
X234059783Y-139320512D01*
X231911667Y-139320512D01*
X231911667Y-138257298D01*
X234686903Y-138257298D01*
X235500000Y-139070395D01*
X236313097Y-138257298D01*
X236241514Y-138013329D01*
X235986004Y-137892429D01*
X235711816Y-137823700D01*
X235429488Y-137809783D01*
X235149870Y-137851213D01*
X234883708Y-137946397D01*
X234758486Y-138013329D01*
X234686903Y-138257298D01*
X231911667Y-138257298D01*
X231911667Y-132419334D01*
X231905790Y-132359396D01*
X231900331Y-132299410D01*
X231899697Y-132297255D01*
X231899478Y-132295024D01*
X231882093Y-132237443D01*
X231865065Y-132179586D01*
X231864024Y-132177594D01*
X231863376Y-132175449D01*
X231835091Y-132122252D01*
X231807196Y-132068894D01*
X231805793Y-132067149D01*
X231804737Y-132065163D01*
X231766662Y-132018480D01*
X231728930Y-131971549D01*
X231727208Y-131970104D01*
X231725792Y-131968368D01*
X231679463Y-131930041D01*
X231633246Y-131891261D01*
X231631276Y-131890178D01*
X231629550Y-131888750D01*
X231576658Y-131860151D01*
X231523790Y-131831087D01*
X231521647Y-131830407D01*
X231519677Y-131829342D01*
X231462162Y-131811538D01*
X231404730Y-131793320D01*
X231402502Y-131793070D01*
X231400357Y-131792406D01*
X231340490Y-131786114D01*
X231280603Y-131779396D01*
X231276288Y-131779366D01*
X231276135Y-131779350D01*
X231275982Y-131779364D01*
X231271667Y-131779334D01*
X226910000Y-131779334D01*
X226910000Y-131414801D01*
X230878512Y-127446290D01*
X230973501Y-127485635D01*
X231322223Y-127555000D01*
X231677777Y-127555000D01*
X232026499Y-127485635D01*
X232354988Y-127349571D01*
X232650621Y-127152035D01*
X232740001Y-127062655D01*
X232740000Y-132212678D01*
X232736324Y-132250000D01*
X232740000Y-132287322D01*
X232740000Y-132287332D01*
X232750997Y-132398985D01*
X232793548Y-132539258D01*
X232794454Y-132542246D01*
X232865026Y-132674276D01*
X232904871Y-132722826D01*
X232959999Y-132790001D01*
X232989003Y-132813804D01*
X234101312Y-133926114D01*
X234065000Y-134108665D01*
X234065000Y-134391335D01*
X234120147Y-134668574D01*
X234228320Y-134929727D01*
X234385363Y-135164759D01*
X234585241Y-135364637D01*
X234820273Y-135521680D01*
X235081426Y-135629853D01*
X235358665Y-135685000D01*
X235641335Y-135685000D01*
X235918574Y-135629853D01*
X236179727Y-135521680D01*
X236414759Y-135364637D01*
X236614637Y-135164759D01*
X236771680Y-134929727D01*
X236879853Y-134668574D01*
X236935000Y-134391335D01*
X236935000Y-134108665D01*
X236879853Y-133831426D01*
X236771680Y-133570273D01*
X236614637Y-133335241D01*
X236414759Y-133135363D01*
X236179727Y-132978320D01*
X235918574Y-132870147D01*
X235641335Y-132815000D01*
X235358665Y-132815000D01*
X235176114Y-132851312D01*
X234317504Y-131992702D01*
X234686903Y-131992702D01*
X234758486Y-132236671D01*
X235013996Y-132357571D01*
X235288184Y-132426300D01*
X235570512Y-132440217D01*
X235850130Y-132398787D01*
X236116292Y-132303603D01*
X236241514Y-132236671D01*
X236313097Y-131992702D01*
X235500000Y-131179605D01*
X234686903Y-131992702D01*
X234317504Y-131992702D01*
X234260000Y-131935199D01*
X234260000Y-131735286D01*
X234263329Y-131741514D01*
X234507298Y-131813097D01*
X235320395Y-131000000D01*
X235679605Y-131000000D01*
X236492702Y-131813097D01*
X236736671Y-131741514D01*
X236857571Y-131486004D01*
X236926300Y-131211816D01*
X236940217Y-130929488D01*
X236898787Y-130649870D01*
X236803603Y-130383708D01*
X236736671Y-130258486D01*
X236492702Y-130186903D01*
X235679605Y-131000000D01*
X235320395Y-131000000D01*
X234507298Y-130186903D01*
X234263329Y-130258486D01*
X234260000Y-130265522D01*
X234260000Y-130007298D01*
X234686903Y-130007298D01*
X235500000Y-130820395D01*
X236313097Y-130007298D01*
X236241514Y-129763329D01*
X235986004Y-129642429D01*
X235711816Y-129573700D01*
X235429488Y-129559783D01*
X235149870Y-129601213D01*
X234883708Y-129696397D01*
X234758486Y-129763329D01*
X234686903Y-130007298D01*
X234260000Y-130007298D01*
X234260000Y-124037322D01*
X234263676Y-123999999D01*
X234260000Y-123962676D01*
X234260000Y-123962667D01*
X234249003Y-123851014D01*
X234205546Y-123707753D01*
X234134974Y-123575724D01*
X234040001Y-123459999D01*
X234011003Y-123436201D01*
X232563804Y-121989003D01*
X232540001Y-121959999D01*
X232424276Y-121865026D01*
X232292247Y-121794454D01*
X232148986Y-121750997D01*
X232037333Y-121740000D01*
X232037322Y-121740000D01*
X232000000Y-121736324D01*
X231962678Y-121740000D01*
X227287322Y-121740000D01*
X227250000Y-121736324D01*
X227212677Y-121740000D01*
X227212667Y-121740000D01*
X227101014Y-121750997D01*
X226957753Y-121794454D01*
X226825723Y-121865026D01*
X226742083Y-121933668D01*
X226709999Y-121959999D01*
X226686201Y-121988997D01*
X222121488Y-126553711D01*
X222026499Y-126514365D01*
X221677777Y-126445000D01*
X221322223Y-126445000D01*
X220973501Y-126514365D01*
X220645012Y-126650429D01*
X220349379Y-126847965D01*
X220097965Y-127099379D01*
X219900429Y-127395012D01*
X219861084Y-127490000D01*
X194064803Y-127490000D01*
X189647026Y-123072223D01*
X219695000Y-123072223D01*
X219695000Y-123427777D01*
X219764365Y-123776499D01*
X219900429Y-124104988D01*
X220097965Y-124400621D01*
X220349379Y-124652035D01*
X220645012Y-124849571D01*
X220973501Y-124985635D01*
X221322223Y-125055000D01*
X221677777Y-125055000D01*
X222026499Y-124985635D01*
X222354988Y-124849571D01*
X222650621Y-124652035D01*
X222902035Y-124400621D01*
X223099571Y-124104988D01*
X223235635Y-123776499D01*
X223305000Y-123427777D01*
X223305000Y-123072223D01*
X223235635Y-122723501D01*
X223099571Y-122395012D01*
X222902035Y-122099379D01*
X222650621Y-121847965D01*
X222354988Y-121650429D01*
X222026499Y-121514365D01*
X221677777Y-121445000D01*
X221322223Y-121445000D01*
X220973501Y-121514365D01*
X220645012Y-121650429D01*
X220349379Y-121847965D01*
X220097965Y-122099379D01*
X219900429Y-122395012D01*
X219764365Y-122723501D01*
X219695000Y-123072223D01*
X189647026Y-123072223D01*
X187273467Y-120698665D01*
X188065000Y-120698665D01*
X188065000Y-120981335D01*
X188120147Y-121258574D01*
X188228320Y-121519727D01*
X188385363Y-121754759D01*
X188585241Y-121954637D01*
X188820273Y-122111680D01*
X189081426Y-122219853D01*
X189358665Y-122275000D01*
X189641335Y-122275000D01*
X189918574Y-122219853D01*
X190179727Y-122111680D01*
X190414759Y-121954637D01*
X190614637Y-121754759D01*
X190771680Y-121519727D01*
X190879853Y-121258574D01*
X190935000Y-120981335D01*
X190935000Y-120698665D01*
X193065000Y-120698665D01*
X193065000Y-120981335D01*
X193120147Y-121258574D01*
X193228320Y-121519727D01*
X193385363Y-121754759D01*
X193585241Y-121954637D01*
X193820273Y-122111680D01*
X194081426Y-122219853D01*
X194358665Y-122275000D01*
X194641335Y-122275000D01*
X194918574Y-122219853D01*
X195179727Y-122111680D01*
X195414759Y-121954637D01*
X195614637Y-121754759D01*
X195771680Y-121519727D01*
X195879853Y-121258574D01*
X195935000Y-120981335D01*
X195935000Y-120698665D01*
X198565000Y-120698665D01*
X198565000Y-120981335D01*
X198620147Y-121258574D01*
X198728320Y-121519727D01*
X198885363Y-121754759D01*
X199085241Y-121954637D01*
X199320273Y-122111680D01*
X199581426Y-122219853D01*
X199858665Y-122275000D01*
X200141335Y-122275000D01*
X200418574Y-122219853D01*
X200679727Y-122111680D01*
X200914759Y-121954637D01*
X201114637Y-121754759D01*
X201271680Y-121519727D01*
X201379853Y-121258574D01*
X201435000Y-120981335D01*
X201435000Y-120698665D01*
X203815000Y-120698665D01*
X203815000Y-120981335D01*
X203870147Y-121258574D01*
X203978320Y-121519727D01*
X204135363Y-121754759D01*
X204335241Y-121954637D01*
X204570273Y-122111680D01*
X204831426Y-122219853D01*
X205108665Y-122275000D01*
X205391335Y-122275000D01*
X205668574Y-122219853D01*
X205929727Y-122111680D01*
X206164759Y-121954637D01*
X206364637Y-121754759D01*
X206521680Y-121519727D01*
X206629853Y-121258574D01*
X206685000Y-120981335D01*
X206685000Y-120698665D01*
X206665109Y-120598665D01*
X209065000Y-120598665D01*
X209065000Y-120881335D01*
X209120147Y-121158574D01*
X209228320Y-121419727D01*
X209385363Y-121654759D01*
X209585241Y-121854637D01*
X209820273Y-122011680D01*
X210081426Y-122119853D01*
X210358665Y-122175000D01*
X210641335Y-122175000D01*
X210918574Y-122119853D01*
X211179727Y-122011680D01*
X211414759Y-121854637D01*
X211614637Y-121654759D01*
X211771680Y-121419727D01*
X211879853Y-121158574D01*
X211935000Y-120881335D01*
X211935000Y-120598665D01*
X215965000Y-120598665D01*
X215965000Y-120881335D01*
X216020147Y-121158574D01*
X216128320Y-121419727D01*
X216285363Y-121654759D01*
X216485241Y-121854637D01*
X216720273Y-122011680D01*
X216981426Y-122119853D01*
X217258665Y-122175000D01*
X217541335Y-122175000D01*
X217818574Y-122119853D01*
X218079727Y-122011680D01*
X218314759Y-121854637D01*
X218514637Y-121654759D01*
X218671680Y-121419727D01*
X218779853Y-121158574D01*
X218835000Y-120881335D01*
X218835000Y-120598665D01*
X218779853Y-120321426D01*
X218671680Y-120060273D01*
X218514637Y-119825241D01*
X218314759Y-119625363D01*
X218079727Y-119468320D01*
X217818574Y-119360147D01*
X217541335Y-119305000D01*
X217258665Y-119305000D01*
X216981426Y-119360147D01*
X216720273Y-119468320D01*
X216485241Y-119625363D01*
X216285363Y-119825241D01*
X216128320Y-120060273D01*
X216020147Y-120321426D01*
X215965000Y-120598665D01*
X211935000Y-120598665D01*
X211879853Y-120321426D01*
X211771680Y-120060273D01*
X211614637Y-119825241D01*
X211414759Y-119625363D01*
X211179727Y-119468320D01*
X210918574Y-119360147D01*
X210641335Y-119305000D01*
X210358665Y-119305000D01*
X210081426Y-119360147D01*
X209820273Y-119468320D01*
X209585241Y-119625363D01*
X209385363Y-119825241D01*
X209228320Y-120060273D01*
X209120147Y-120321426D01*
X209065000Y-120598665D01*
X206665109Y-120598665D01*
X206629853Y-120421426D01*
X206521680Y-120160273D01*
X206364637Y-119925241D01*
X206164759Y-119725363D01*
X205929727Y-119568320D01*
X205668574Y-119460147D01*
X205391335Y-119405000D01*
X205108665Y-119405000D01*
X204831426Y-119460147D01*
X204570273Y-119568320D01*
X204335241Y-119725363D01*
X204135363Y-119925241D01*
X203978320Y-120160273D01*
X203870147Y-120421426D01*
X203815000Y-120698665D01*
X201435000Y-120698665D01*
X201379853Y-120421426D01*
X201271680Y-120160273D01*
X201114637Y-119925241D01*
X200914759Y-119725363D01*
X200679727Y-119568320D01*
X200418574Y-119460147D01*
X200141335Y-119405000D01*
X199858665Y-119405000D01*
X199581426Y-119460147D01*
X199320273Y-119568320D01*
X199085241Y-119725363D01*
X198885363Y-119925241D01*
X198728320Y-120160273D01*
X198620147Y-120421426D01*
X198565000Y-120698665D01*
X195935000Y-120698665D01*
X195879853Y-120421426D01*
X195771680Y-120160273D01*
X195614637Y-119925241D01*
X195414759Y-119725363D01*
X195179727Y-119568320D01*
X194918574Y-119460147D01*
X194641335Y-119405000D01*
X194358665Y-119405000D01*
X194081426Y-119460147D01*
X193820273Y-119568320D01*
X193585241Y-119725363D01*
X193385363Y-119925241D01*
X193228320Y-120160273D01*
X193120147Y-120421426D01*
X193065000Y-120698665D01*
X190935000Y-120698665D01*
X190879853Y-120421426D01*
X190771680Y-120160273D01*
X190614637Y-119925241D01*
X190414759Y-119725363D01*
X190179727Y-119568320D01*
X189918574Y-119460147D01*
X189641335Y-119405000D01*
X189358665Y-119405000D01*
X189081426Y-119460147D01*
X188820273Y-119568320D01*
X188585241Y-119725363D01*
X188385363Y-119925241D01*
X188228320Y-120160273D01*
X188120147Y-120421426D01*
X188065000Y-120698665D01*
X187273467Y-120698665D01*
X184010000Y-117435199D01*
X184010000Y-115718043D01*
X184164759Y-115614637D01*
X184364637Y-115414759D01*
X184521680Y-115179727D01*
X184629853Y-114918574D01*
X184685000Y-114641335D01*
X184685000Y-114358665D01*
X184629853Y-114081426D01*
X184521680Y-113820273D01*
X184364637Y-113585241D01*
X184164759Y-113385363D01*
X183929727Y-113228320D01*
X183668574Y-113120147D01*
X183391335Y-113065000D01*
X183108665Y-113065000D01*
X182831426Y-113120147D01*
X182570273Y-113228320D01*
X182335241Y-113385363D01*
X182135363Y-113585241D01*
X181978320Y-113820273D01*
X181870147Y-114081426D01*
X181815000Y-114358665D01*
X181815000Y-114641335D01*
X181870147Y-114918574D01*
X181978320Y-115179727D01*
X182135363Y-115414759D01*
X182335241Y-115614637D01*
X182490001Y-115718044D01*
X182490000Y-117712677D01*
X182486324Y-117750000D01*
X182490000Y-117787322D01*
X182490000Y-117787332D01*
X182500997Y-117898985D01*
X182531639Y-118000000D01*
X182544454Y-118042246D01*
X182615026Y-118174276D01*
X182654871Y-118222826D01*
X182709999Y-118290001D01*
X182739003Y-118313804D01*
X193186205Y-128761008D01*
X193209999Y-128790001D01*
X193238992Y-128813795D01*
X193238996Y-128813799D01*
X193309685Y-128871811D01*
X193325724Y-128884974D01*
X193457753Y-128955546D01*
X193601014Y-128999003D01*
X193712667Y-129010000D01*
X193712676Y-129010000D01*
X193749999Y-129013676D01*
X193787322Y-129010000D01*
X219861084Y-129010000D01*
X219900429Y-129104988D01*
X220097965Y-129400621D01*
X220349379Y-129652035D01*
X220645012Y-129849571D01*
X220973501Y-129985635D01*
X221322223Y-130055000D01*
X221677777Y-130055000D01*
X222026499Y-129985635D01*
X222354988Y-129849571D01*
X222650621Y-129652035D01*
X222902035Y-129400621D01*
X223099571Y-129104988D01*
X223235635Y-128776499D01*
X223305000Y-128427777D01*
X223305000Y-128072223D01*
X223235635Y-127723501D01*
X223196289Y-127628512D01*
X227564802Y-123260000D01*
X231685199Y-123260000D01*
X232740001Y-124314803D01*
X232740001Y-124437345D01*
X232650621Y-124347965D01*
X232354988Y-124150429D01*
X232026499Y-124014365D01*
X231677777Y-123945000D01*
X231322223Y-123945000D01*
X230973501Y-124014365D01*
X230645012Y-124150429D01*
X230349379Y-124347965D01*
X230097965Y-124599379D01*
X229900429Y-124895012D01*
X229764365Y-125223501D01*
X229695000Y-125572223D01*
X229695000Y-125927777D01*
X229764365Y-126276499D01*
X229803710Y-126371488D01*
X225638998Y-130536201D01*
X225610000Y-130559999D01*
X225586202Y-130588997D01*
X225586201Y-130588998D01*
X225515026Y-130675724D01*
X225444454Y-130807754D01*
X225400998Y-130951015D01*
X225386324Y-131100000D01*
X225390001Y-131137332D01*
X225390001Y-131779334D01*
X221154000Y-131779334D01*
X221094062Y-131785211D01*
X221034076Y-131790670D01*
X221031921Y-131791304D01*
X221029690Y-131791523D01*
X220972109Y-131808908D01*
X220919936Y-131824263D01*
X220878829Y-131811538D01*
X220821397Y-131793320D01*
X220819169Y-131793070D01*
X220817024Y-131792406D01*
X220757157Y-131786114D01*
X220697270Y-131779396D01*
X220692955Y-131779366D01*
X220692802Y-131779350D01*
X220692649Y-131779364D01*
X220688334Y-131779334D01*
X218538307Y-131779334D01*
X218671680Y-131579727D01*
X218779853Y-131318574D01*
X218835000Y-131041335D01*
X218835000Y-130758665D01*
X218779853Y-130481426D01*
X218671680Y-130220273D01*
X218514637Y-129985241D01*
X218314759Y-129785363D01*
X218079727Y-129628320D01*
X217818574Y-129520147D01*
X217541335Y-129465000D01*
X217258665Y-129465000D01*
X216981426Y-129520147D01*
X216720273Y-129628320D01*
X216485241Y-129785363D01*
X216285363Y-129985241D01*
X216128320Y-130220273D01*
X216020147Y-130481426D01*
X215965000Y-130758665D01*
X215965000Y-131041335D01*
X216020147Y-131318574D01*
X216128320Y-131579727D01*
X216261693Y-131779334D01*
X213576334Y-131779334D01*
X213516396Y-131785211D01*
X213456410Y-131790670D01*
X213454255Y-131791304D01*
X213452024Y-131791523D01*
X213394443Y-131808908D01*
X213385674Y-131811489D01*
X213328397Y-131793320D01*
X213326169Y-131793070D01*
X213324024Y-131792406D01*
X213264157Y-131786114D01*
X213204270Y-131779396D01*
X213199955Y-131779366D01*
X213199802Y-131779350D01*
X213199649Y-131779364D01*
X213195334Y-131779334D01*
X211638307Y-131779334D01*
X211771680Y-131579727D01*
X211879853Y-131318574D01*
X211935000Y-131041335D01*
X211935000Y-130758665D01*
X211879853Y-130481426D01*
X211771680Y-130220273D01*
X211614637Y-129985241D01*
X211414759Y-129785363D01*
X211179727Y-129628320D01*
X210918574Y-129520147D01*
X210641335Y-129465000D01*
X210358665Y-129465000D01*
X210081426Y-129520147D01*
X209820273Y-129628320D01*
X209585241Y-129785363D01*
X209385363Y-129985241D01*
X209228320Y-130220273D01*
X209120147Y-130481426D01*
X209065000Y-130758665D01*
X209065000Y-131041335D01*
X209120147Y-131318574D01*
X209228320Y-131579727D01*
X209361693Y-131779334D01*
X207565000Y-131779334D01*
X207505062Y-131785211D01*
X207445076Y-131790670D01*
X207442921Y-131791304D01*
X207440690Y-131791523D01*
X207383109Y-131808908D01*
X207330936Y-131824263D01*
X207289829Y-131811538D01*
X207232397Y-131793320D01*
X207230169Y-131793070D01*
X207228024Y-131792406D01*
X207168157Y-131786114D01*
X207108270Y-131779396D01*
X207103955Y-131779366D01*
X207103802Y-131779350D01*
X207103649Y-131779364D01*
X207099334Y-131779334D01*
X206455125Y-131779334D01*
X206521680Y-131679727D01*
X206629853Y-131418574D01*
X206685000Y-131141335D01*
X206685000Y-130858665D01*
X206629853Y-130581426D01*
X206521680Y-130320273D01*
X206364637Y-130085241D01*
X206164759Y-129885363D01*
X205929727Y-129728320D01*
X205668574Y-129620147D01*
X205391335Y-129565000D01*
X205108665Y-129565000D01*
X204831426Y-129620147D01*
X204570273Y-129728320D01*
X204335241Y-129885363D01*
X204135363Y-130085241D01*
X203978320Y-130320273D01*
X203870147Y-130581426D01*
X203815000Y-130858665D01*
X203815000Y-131141335D01*
X203870147Y-131418574D01*
X203978320Y-131679727D01*
X204044875Y-131779334D01*
X202993000Y-131779334D01*
X202933062Y-131785211D01*
X202873076Y-131790670D01*
X202870921Y-131791304D01*
X202868690Y-131791523D01*
X202811109Y-131808908D01*
X202802468Y-131811451D01*
X202745311Y-131793320D01*
X202743568Y-131793124D01*
X202741889Y-131792602D01*
X202681605Y-131786174D01*
X202621184Y-131779396D01*
X202617825Y-131779373D01*
X202617687Y-131779358D01*
X202617545Y-131779371D01*
X202612248Y-131779334D01*
X201205125Y-131779334D01*
X201271680Y-131679727D01*
X201379853Y-131418574D01*
X201435000Y-131141335D01*
X201435000Y-130858665D01*
X201379853Y-130581426D01*
X201271680Y-130320273D01*
X201114637Y-130085241D01*
X200914759Y-129885363D01*
X200679727Y-129728320D01*
X200418574Y-129620147D01*
X200141335Y-129565000D01*
X199858665Y-129565000D01*
X199581426Y-129620147D01*
X199320273Y-129728320D01*
X199085241Y-129885363D01*
X198885363Y-130085241D01*
X198728320Y-130320273D01*
X198620147Y-130581426D01*
X198565000Y-130858665D01*
X198565000Y-131141335D01*
X198620147Y-131418574D01*
X198728320Y-131679727D01*
X198794875Y-131779334D01*
X196981667Y-131779334D01*
X196921729Y-131785211D01*
X196861743Y-131790670D01*
X196859588Y-131791304D01*
X196857357Y-131791523D01*
X196799776Y-131808908D01*
X196747603Y-131824263D01*
X196706495Y-131811538D01*
X196649063Y-131793320D01*
X196646835Y-131793070D01*
X196644690Y-131792406D01*
X196584823Y-131786114D01*
X196524936Y-131779396D01*
X196520621Y-131779366D01*
X196520468Y-131779350D01*
X196520315Y-131779364D01*
X196516000Y-131779334D01*
X195705125Y-131779334D01*
X195771680Y-131679727D01*
X195879853Y-131418574D01*
X195935000Y-131141335D01*
X195935000Y-130858665D01*
X195879853Y-130581426D01*
X195771680Y-130320273D01*
X195614637Y-130085241D01*
X195414759Y-129885363D01*
X195179727Y-129728320D01*
X194918574Y-129620147D01*
X194641335Y-129565000D01*
X194358665Y-129565000D01*
X194081426Y-129620147D01*
X193820273Y-129728320D01*
X193585241Y-129885363D01*
X193385363Y-130085241D01*
X193228320Y-130320273D01*
X193120147Y-130581426D01*
X193065000Y-130858665D01*
X193065000Y-131141335D01*
X193120147Y-131418574D01*
X193228320Y-131679727D01*
X193294875Y-131779334D01*
X192367334Y-131779334D01*
X192307396Y-131785211D01*
X192247410Y-131790670D01*
X192245255Y-131791304D01*
X192243024Y-131791523D01*
X192198598Y-131804936D01*
X192161978Y-131793320D01*
X192160235Y-131793124D01*
X192158556Y-131792602D01*
X192098272Y-131786174D01*
X192037851Y-131779396D01*
X192034492Y-131779373D01*
X192034354Y-131779358D01*
X192034212Y-131779371D01*
X192028915Y-131779334D01*
X190705125Y-131779334D01*
X190771680Y-131679727D01*
X190879853Y-131418574D01*
X190935000Y-131141335D01*
X190935000Y-130858665D01*
X190879853Y-130581426D01*
X190771680Y-130320273D01*
X190614637Y-130085241D01*
X190414759Y-129885363D01*
X190179727Y-129728320D01*
X189918574Y-129620147D01*
X189641335Y-129565000D01*
X189358665Y-129565000D01*
X189081426Y-129620147D01*
X188820273Y-129728320D01*
X188585241Y-129885363D01*
X188385363Y-130085241D01*
X188228320Y-130320273D01*
X188120147Y-130581426D01*
X188065000Y-130858665D01*
X188065000Y-131141335D01*
X188120147Y-131418574D01*
X188228320Y-131679727D01*
X188294875Y-131779334D01*
X186398334Y-131779334D01*
X186338396Y-131785211D01*
X186278410Y-131790670D01*
X186276255Y-131791304D01*
X186274024Y-131791523D01*
X186216443Y-131808908D01*
X186164270Y-131824263D01*
X186123162Y-131811538D01*
X186065730Y-131793320D01*
X186063502Y-131793070D01*
X186061357Y-131792406D01*
X186001490Y-131786114D01*
X185941603Y-131779396D01*
X185937288Y-131779366D01*
X185937135Y-131779350D01*
X185936982Y-131779364D01*
X185932667Y-131779334D01*
X183705125Y-131779334D01*
X183771680Y-131679727D01*
X183879853Y-131418574D01*
X183935000Y-131141335D01*
X183935000Y-130858665D01*
X183879853Y-130581426D01*
X183771680Y-130320273D01*
X183614637Y-130085241D01*
X183414759Y-129885363D01*
X183179727Y-129728320D01*
X182918574Y-129620147D01*
X182641335Y-129565000D01*
X182358665Y-129565000D01*
X182081426Y-129620147D01*
X181820273Y-129728320D01*
X181585241Y-129885363D01*
X181385363Y-130085241D01*
X181228320Y-130320273D01*
X181120147Y-130581426D01*
X181065000Y-130858665D01*
X181065000Y-131141335D01*
X181120147Y-131418574D01*
X181228320Y-131679727D01*
X181294875Y-131779334D01*
X178778334Y-131779334D01*
X178718396Y-131785211D01*
X178658410Y-131790670D01*
X178656255Y-131791304D01*
X178654024Y-131791523D01*
X178596443Y-131808908D01*
X178544270Y-131824263D01*
X178503162Y-131811538D01*
X178445730Y-131793320D01*
X178443502Y-131793070D01*
X178441357Y-131792406D01*
X178381490Y-131786114D01*
X178321603Y-131779396D01*
X178317288Y-131779366D01*
X178317135Y-131779350D01*
X178316982Y-131779364D01*
X178312667Y-131779334D01*
X176205125Y-131779334D01*
X176271680Y-131679727D01*
X176379853Y-131418574D01*
X176435000Y-131141335D01*
X176435000Y-130858665D01*
X176379853Y-130581426D01*
X176271680Y-130320273D01*
X176114637Y-130085241D01*
X175914759Y-129885363D01*
X175679727Y-129728320D01*
X175418574Y-129620147D01*
X175141335Y-129565000D01*
X174858665Y-129565000D01*
X174581426Y-129620147D01*
X174320273Y-129728320D01*
X174085241Y-129885363D01*
X173885363Y-130085241D01*
X173728320Y-130320273D01*
X173620147Y-130581426D01*
X173565000Y-130858665D01*
X173565000Y-131141335D01*
X173620147Y-131418574D01*
X173728320Y-131679727D01*
X173794875Y-131779334D01*
X171200667Y-131779334D01*
X171140729Y-131785211D01*
X171080743Y-131790670D01*
X171078588Y-131791304D01*
X171076357Y-131791523D01*
X171018776Y-131808908D01*
X171010007Y-131811489D01*
X170952730Y-131793320D01*
X170950502Y-131793070D01*
X170948357Y-131792406D01*
X170888490Y-131786114D01*
X170828603Y-131779396D01*
X170824288Y-131779366D01*
X170824135Y-131779350D01*
X170823982Y-131779364D01*
X170819667Y-131779334D01*
X169205125Y-131779334D01*
X169271680Y-131679727D01*
X169379853Y-131418574D01*
X169435000Y-131141335D01*
X169435000Y-130858665D01*
X169379853Y-130581426D01*
X169271680Y-130320273D01*
X169114637Y-130085241D01*
X168914759Y-129885363D01*
X168679727Y-129728320D01*
X168418574Y-129620147D01*
X168141335Y-129565000D01*
X167858665Y-129565000D01*
X167581426Y-129620147D01*
X167320273Y-129728320D01*
X167085241Y-129885363D01*
X166885363Y-130085241D01*
X166728320Y-130320273D01*
X166620147Y-130581426D01*
X166565000Y-130858665D01*
X166565000Y-131141335D01*
X166620147Y-131418574D01*
X166728320Y-131679727D01*
X166794875Y-131779334D01*
X165189334Y-131779334D01*
X165129396Y-131785211D01*
X165069410Y-131790670D01*
X165067255Y-131791304D01*
X165065024Y-131791523D01*
X165007443Y-131808908D01*
X164955270Y-131824263D01*
X164914162Y-131811538D01*
X164856730Y-131793320D01*
X164854502Y-131793070D01*
X164852357Y-131792406D01*
X164792490Y-131786114D01*
X164732603Y-131779396D01*
X164728288Y-131779366D01*
X164728135Y-131779350D01*
X164727982Y-131779364D01*
X164723667Y-131779334D01*
X163705125Y-131779334D01*
X163771680Y-131679727D01*
X163879853Y-131418574D01*
X163935000Y-131141335D01*
X163935000Y-130858665D01*
X163879853Y-130581426D01*
X163771680Y-130320273D01*
X163614637Y-130085241D01*
X163414759Y-129885363D01*
X163179727Y-129728320D01*
X162918574Y-129620147D01*
X162641335Y-129565000D01*
X162358665Y-129565000D01*
X162081426Y-129620147D01*
X161820273Y-129728320D01*
X161585241Y-129885363D01*
X161385363Y-130085241D01*
X161228320Y-130320273D01*
X161120147Y-130581426D01*
X161065000Y-130858665D01*
X161065000Y-131141335D01*
X161120147Y-131418574D01*
X161228320Y-131679727D01*
X161294875Y-131779334D01*
X160617334Y-131779334D01*
X160557396Y-131785211D01*
X160497410Y-131790670D01*
X160495255Y-131791304D01*
X160493024Y-131791523D01*
X160435443Y-131808908D01*
X160426802Y-131811451D01*
X160369645Y-131793320D01*
X160367902Y-131793124D01*
X160366223Y-131792602D01*
X160305939Y-131786174D01*
X160245518Y-131779396D01*
X160242159Y-131779373D01*
X160242021Y-131779358D01*
X160241879Y-131779371D01*
X160236582Y-131779334D01*
X158705125Y-131779334D01*
X158771680Y-131679727D01*
X158879853Y-131418574D01*
X158935000Y-131141335D01*
X158935000Y-130858665D01*
X158879853Y-130581426D01*
X158771680Y-130320273D01*
X158614637Y-130085241D01*
X158414759Y-129885363D01*
X158179727Y-129728320D01*
X157918574Y-129620147D01*
X157641335Y-129565000D01*
X157358665Y-129565000D01*
X157081426Y-129620147D01*
X156820273Y-129728320D01*
X156585241Y-129885363D01*
X156385363Y-130085241D01*
X156228320Y-130320273D01*
X156120147Y-130581426D01*
X156065000Y-130858665D01*
X156065000Y-131141335D01*
X156120147Y-131418574D01*
X156228320Y-131679727D01*
X156294875Y-131779334D01*
X154606000Y-131779334D01*
X154546062Y-131785211D01*
X154486076Y-131790670D01*
X154483921Y-131791304D01*
X154481690Y-131791523D01*
X154424109Y-131808908D01*
X154371936Y-131824263D01*
X154330829Y-131811538D01*
X154273397Y-131793320D01*
X154271169Y-131793070D01*
X154269024Y-131792406D01*
X154209157Y-131786114D01*
X154149270Y-131779396D01*
X154144955Y-131779366D01*
X154144802Y-131779350D01*
X154144649Y-131779364D01*
X154140334Y-131779334D01*
X151750062Y-131779334D01*
X151764637Y-131764759D01*
X151921680Y-131529727D01*
X152029853Y-131268574D01*
X152085000Y-130991335D01*
X152085000Y-130708665D01*
X152029853Y-130431426D01*
X151921680Y-130170273D01*
X151764637Y-129935241D01*
X151564759Y-129735363D01*
X151329727Y-129578320D01*
X151068574Y-129470147D01*
X150791335Y-129415000D01*
X150508665Y-129415000D01*
X150231426Y-129470147D01*
X149970273Y-129578320D01*
X149735241Y-129735363D01*
X149535363Y-129935241D01*
X149378320Y-130170273D01*
X149270147Y-130431426D01*
X149215000Y-130708665D01*
X149215000Y-130991335D01*
X149270147Y-131268574D01*
X149378320Y-131529727D01*
X149535363Y-131764759D01*
X149549938Y-131779334D01*
X147028334Y-131779334D01*
X146968396Y-131785211D01*
X146908410Y-131790670D01*
X146906255Y-131791304D01*
X146904024Y-131791523D01*
X146846443Y-131808908D01*
X146788586Y-131825936D01*
X146786594Y-131826977D01*
X146784449Y-131827625D01*
X146731252Y-131855910D01*
X146677894Y-131883805D01*
X146676149Y-131885208D01*
X146674163Y-131886264D01*
X146627480Y-131924339D01*
X146580549Y-131962071D01*
X146579104Y-131963793D01*
X146577368Y-131965209D01*
X146539041Y-132011538D01*
X146500261Y-132057755D01*
X146499178Y-132059725D01*
X146497750Y-132061451D01*
X146469151Y-132114343D01*
X146440087Y-132167211D01*
X146439407Y-132169354D01*
X146438342Y-132171324D01*
X146420538Y-132228839D01*
X146402320Y-132286271D01*
X146402070Y-132288499D01*
X146401406Y-132290644D01*
X146395114Y-132350511D01*
X146388396Y-132410398D01*
X146388366Y-132414713D01*
X146388350Y-132414866D01*
X146388364Y-132415019D01*
X146388334Y-132419334D01*
X146388334Y-157523000D01*
X146394211Y-157582938D01*
X146399670Y-157642924D01*
X146400304Y-157645079D01*
X146400523Y-157647310D01*
X146413683Y-157690897D01*
X141279167Y-157690897D01*
X141129418Y-157683385D01*
X141012260Y-157665606D01*
X140823784Y-157612391D01*
X140656562Y-157537090D01*
X140503253Y-157439046D01*
X140366020Y-157320295D01*
X140247234Y-157183118D01*
X140149171Y-157029888D01*
X140073864Y-156862769D01*
X140020638Y-156674376D01*
X140002859Y-156557294D01*
X139995345Y-156407584D01*
X139995345Y-155308535D01*
X140095234Y-155308535D01*
X140095234Y-155675467D01*
X140166819Y-156035349D01*
X140307238Y-156374351D01*
X140511095Y-156679444D01*
X140770556Y-156938905D01*
X141075649Y-157142762D01*
X141414651Y-157283181D01*
X141774533Y-157354766D01*
X142141465Y-157354766D01*
X142501347Y-157283181D01*
X142840349Y-157142762D01*
X143145442Y-156938905D01*
X143404903Y-156679444D01*
X143608760Y-156374351D01*
X143749179Y-156035349D01*
X143820764Y-155675467D01*
X143820764Y-155308535D01*
X143749179Y-154948653D01*
X143608760Y-154609651D01*
X143404903Y-154304558D01*
X143145442Y-154045097D01*
X142840349Y-153841240D01*
X142501347Y-153700821D01*
X142141465Y-153629236D01*
X141774533Y-153629236D01*
X141414651Y-153700821D01*
X141075649Y-153841240D01*
X140770556Y-154045097D01*
X140511095Y-154304558D01*
X140307238Y-154609651D01*
X140166819Y-154948653D01*
X140095234Y-155308535D01*
X139995345Y-155308535D01*
X139995345Y-150150000D01*
X141761928Y-150150000D01*
X141761928Y-151850000D01*
X141774188Y-151974482D01*
X141810498Y-152094180D01*
X141869463Y-152204494D01*
X141948815Y-152301185D01*
X142045506Y-152380537D01*
X142155820Y-152439502D01*
X142275518Y-152475812D01*
X142400000Y-152488072D01*
X144100000Y-152488072D01*
X144224482Y-152475812D01*
X144344180Y-152439502D01*
X144454494Y-152380537D01*
X144551185Y-152301185D01*
X144630537Y-152204494D01*
X144689502Y-152094180D01*
X144725812Y-151974482D01*
X144738072Y-151850000D01*
X144738072Y-150150000D01*
X144725812Y-150025518D01*
X144689502Y-149905820D01*
X144630537Y-149795506D01*
X144551185Y-149698815D01*
X144454494Y-149619463D01*
X144344180Y-149560498D01*
X144224482Y-149524188D01*
X144100000Y-149511928D01*
X142400000Y-149511928D01*
X142275518Y-149524188D01*
X142155820Y-149560498D01*
X142045506Y-149619463D01*
X141948815Y-149698815D01*
X141869463Y-149795506D01*
X141810498Y-149905820D01*
X141774188Y-150025518D01*
X141761928Y-150150000D01*
X139995345Y-150150000D01*
X139995345Y-146633589D01*
X141925000Y-146633589D01*
X141925000Y-146906411D01*
X141978225Y-147173989D01*
X142082629Y-147426043D01*
X142234201Y-147652886D01*
X142427114Y-147845799D01*
X142653957Y-147997371D01*
X142906011Y-148101775D01*
X143173589Y-148155000D01*
X143446411Y-148155000D01*
X143713989Y-148101775D01*
X143966043Y-147997371D01*
X144192886Y-147845799D01*
X144385799Y-147652886D01*
X144537371Y-147426043D01*
X144641775Y-147173989D01*
X144695000Y-146906411D01*
X144695000Y-146633589D01*
X144641775Y-146366011D01*
X144537371Y-146113957D01*
X144385799Y-145887114D01*
X144192886Y-145694201D01*
X143966043Y-145542629D01*
X143713989Y-145438225D01*
X143446411Y-145385000D01*
X143173589Y-145385000D01*
X142906011Y-145438225D01*
X142653957Y-145542629D01*
X142427114Y-145694201D01*
X142234201Y-145887114D01*
X142082629Y-146113957D01*
X141978225Y-146366011D01*
X141925000Y-146633589D01*
X139995345Y-146633589D01*
X139995345Y-110444157D01*
X140002859Y-110294445D01*
X140020637Y-110177365D01*
X140073864Y-109988973D01*
X140149173Y-109821847D01*
X140247234Y-109668621D01*
X140366020Y-109531444D01*
X140503253Y-109412693D01*
X140656562Y-109314649D01*
X140823784Y-109239348D01*
X141012260Y-109186133D01*
X141129418Y-109168354D01*
X141279161Y-109160843D01*
X141289056Y-109160843D01*
X141075649Y-109249239D01*
X140770556Y-109453096D01*
X140511095Y-109712557D01*
X140307238Y-110017650D01*
X140166819Y-110356652D01*
X140095234Y-110716534D01*
X140095234Y-111083466D01*
X140166819Y-111443348D01*
X140307238Y-111782350D01*
X140511095Y-112087443D01*
X140770556Y-112346904D01*
X141075649Y-112550761D01*
X141414651Y-112691180D01*
X141774533Y-112762765D01*
X142141465Y-112762765D01*
X142501347Y-112691180D01*
X142840349Y-112550761D01*
X143145442Y-112346904D01*
X143404903Y-112087443D01*
X143608760Y-111782350D01*
X143749179Y-111443348D01*
X143820764Y-111083466D01*
X143820764Y-110716534D01*
X143749179Y-110356652D01*
X143608760Y-110017650D01*
X143404903Y-109712557D01*
X143145442Y-109453096D01*
X142840349Y-109249239D01*
X142626942Y-109160843D01*
X161992879Y-109160843D01*
X162028984Y-109164399D01*
X162065089Y-109160843D01*
X162173069Y-109150208D01*
X162311617Y-109108180D01*
X162439304Y-109039930D01*
X162551222Y-108948081D01*
X162643071Y-108836163D01*
X162645944Y-108830788D01*
X162807386Y-108798675D01*
X162968002Y-108732146D01*
X163049952Y-108677389D01*
X163131902Y-108732146D01*
X163292518Y-108798675D01*
X163463027Y-108832592D01*
X163636877Y-108832592D01*
X163807386Y-108798675D01*
X163968002Y-108732146D01*
X164074952Y-108660684D01*
X164181902Y-108732146D01*
G37*
%TD.AperFunction*%
%TD*%
D26*
X229221541Y-97070150D02*
X229285217Y-97072981D01*
X229449403Y-97105354D01*
X229590800Y-97166488D01*
X229714808Y-97254581D01*
X229817896Y-97366098D01*
X229896375Y-97497320D01*
X229954082Y-97666247D01*
X229960024Y-97685834D01*
X229983461Y-97729681D01*
X230015002Y-97768114D01*
X230053435Y-97799655D01*
X230097283Y-97823092D01*
X230144861Y-97837525D01*
X230194339Y-97842398D01*
X230215005Y-97840363D01*
X237332332Y-99142631D01*
X237355273Y-99149590D01*
X237372922Y-99151328D01*
X237528471Y-99175569D01*
X237768927Y-99228950D01*
X237958285Y-99282410D01*
X238148442Y-99346608D01*
X238329357Y-99419503D01*
X238489404Y-99497594D01*
X238659903Y-99606362D01*
X238746958Y-99691692D01*
X238768353Y-99749135D01*
X238711124Y-99833808D01*
X238580363Y-99933000D01*
X238378635Y-100040481D01*
X238202724Y-100114193D01*
X238012809Y-100180501D01*
X237820940Y-100236493D01*
X237574334Y-100293573D01*
X237358155Y-100327802D01*
X237340806Y-100329511D01*
X237314828Y-100337391D01*
X230201581Y-101603862D01*
X230183486Y-101602080D01*
X230134007Y-101606953D01*
X230086429Y-101621386D01*
X230042582Y-101644823D01*
X230004149Y-101676364D01*
X229972608Y-101714797D01*
X229949171Y-101758645D01*
X229934738Y-101806223D01*
X229934466Y-101808981D01*
X229922698Y-101851052D01*
X229856216Y-101999580D01*
X229766125Y-102123341D01*
X229652768Y-102226000D01*
X229520125Y-102303649D01*
X229371876Y-102352722D01*
X229196917Y-102371181D01*
X226813022Y-102365595D01*
X226803173Y-100152000D01*
X227921418Y-100152000D01*
X227921418Y-100550000D01*
X227927732Y-100614103D01*
X227946430Y-100675743D01*
X227976794Y-100732550D01*
X228017657Y-100782343D01*
X228067450Y-100823206D01*
X228124257Y-100853570D01*
X228185897Y-100872268D01*
X228250000Y-100878582D01*
X229950000Y-100878582D01*
X230014103Y-100872268D01*
X230075743Y-100853570D01*
X230132550Y-100823206D01*
X230182343Y-100782343D01*
X230223206Y-100732550D01*
X230253570Y-100675743D01*
X230272268Y-100614103D01*
X230278582Y-100550000D01*
X230278582Y-98850000D01*
X230272268Y-98785897D01*
X230253570Y-98724257D01*
X230223206Y-98667450D01*
X230182343Y-98617657D01*
X230132550Y-98576794D01*
X230075743Y-98546430D01*
X230014103Y-98527732D01*
X229950000Y-98521418D01*
X228250000Y-98521418D01*
X228185897Y-98527732D01*
X228124257Y-98546430D01*
X228067450Y-98576794D01*
X228017657Y-98617657D01*
X227976794Y-98667450D01*
X227946430Y-98724257D01*
X227927732Y-98785897D01*
X227921418Y-98850000D01*
X227921418Y-99248000D01*
X226799150Y-99248000D01*
X226789433Y-97063889D01*
X229221541Y-97070150D01*
%TA.AperFunction,NonConductor*%
D27*
G36*
X229221541Y-97070150D02*
G01*
X229285217Y-97072981D01*
X229449403Y-97105354D01*
X229590800Y-97166488D01*
X229714808Y-97254581D01*
X229817896Y-97366098D01*
X229896375Y-97497320D01*
X229954082Y-97666247D01*
X229960024Y-97685834D01*
X229983461Y-97729681D01*
X230015002Y-97768114D01*
X230053435Y-97799655D01*
X230097283Y-97823092D01*
X230144861Y-97837525D01*
X230194339Y-97842398D01*
X230215005Y-97840363D01*
X237332332Y-99142631D01*
X237355273Y-99149590D01*
X237372922Y-99151328D01*
X237528471Y-99175569D01*
X237768927Y-99228950D01*
X237958285Y-99282410D01*
X238148442Y-99346608D01*
X238329357Y-99419503D01*
X238489404Y-99497594D01*
X238659903Y-99606362D01*
X238746958Y-99691692D01*
X238768353Y-99749135D01*
X238711124Y-99833808D01*
X238580363Y-99933000D01*
X238378635Y-100040481D01*
X238202724Y-100114193D01*
X238012809Y-100180501D01*
X237820940Y-100236493D01*
X237574334Y-100293573D01*
X237358155Y-100327802D01*
X237340806Y-100329511D01*
X237314828Y-100337391D01*
X230201581Y-101603862D01*
X230183486Y-101602080D01*
X230134007Y-101606953D01*
X230086429Y-101621386D01*
X230042582Y-101644823D01*
X230004149Y-101676364D01*
X229972608Y-101714797D01*
X229949171Y-101758645D01*
X229934738Y-101806223D01*
X229934466Y-101808981D01*
X229922698Y-101851052D01*
X229856216Y-101999580D01*
X229766125Y-102123341D01*
X229652768Y-102226000D01*
X229520125Y-102303649D01*
X229371876Y-102352722D01*
X229196917Y-102371181D01*
X226813022Y-102365595D01*
X226803173Y-100152000D01*
X227921418Y-100152000D01*
X227921418Y-100550000D01*
X227927732Y-100614103D01*
X227946430Y-100675743D01*
X227976794Y-100732550D01*
X228017657Y-100782343D01*
X228067450Y-100823206D01*
X228124257Y-100853570D01*
X228185897Y-100872268D01*
X228250000Y-100878582D01*
X229950000Y-100878582D01*
X230014103Y-100872268D01*
X230075743Y-100853570D01*
X230132550Y-100823206D01*
X230182343Y-100782343D01*
X230223206Y-100732550D01*
X230253570Y-100675743D01*
X230272268Y-100614103D01*
X230278582Y-100550000D01*
X230278582Y-98850000D01*
X230272268Y-98785897D01*
X230253570Y-98724257D01*
X230223206Y-98667450D01*
X230182343Y-98617657D01*
X230132550Y-98576794D01*
X230075743Y-98546430D01*
X230014103Y-98527732D01*
X229950000Y-98521418D01*
X228250000Y-98521418D01*
X228185897Y-98527732D01*
X228124257Y-98546430D01*
X228067450Y-98576794D01*
X228017657Y-98617657D01*
X227976794Y-98667450D01*
X227946430Y-98724257D01*
X227927732Y-98785897D01*
X227921418Y-98850000D01*
X227921418Y-99248000D01*
X226799150Y-99248000D01*
X226789433Y-97063889D01*
X229221541Y-97070150D01*
G37*
%TD.AperFunction*%
M02*
