%TF.GenerationSoftware,KiCad,Pcbnew,5.1.8*%
%TF.CreationDate,2020-11-27T20:44:41+01:00*%
%TF.ProjectId,SawToothOrganDIP,53617754-6f6f-4746-984f-7267616e4449,rev?*%
%TF.SameCoordinates,Original*%
%TF.FileFunction,Soldermask,Top*%
%TF.FilePolarity,Negative*%
%FSLAX46Y46*%
G04 Gerber Fmt 4.6, Leading zero omitted, Abs format (unit mm)*
G04 Created by KiCad (PCBNEW 5.1.8) date 2020-11-27 20:44:41*
%MOMM*%
%LPD*%
G01*
G04 APERTURE LIST*
%ADD10C,0.010000*%
%ADD11C,0.595127*%
%ADD12O,1.700000X1.700000*%
%ADD13C,1.700000*%
%ADD14C,2.555530*%
%ADD15C,2.440000*%
%ADD16C,1.900000*%
%ADD17O,1.800000X1.800000*%
G04 APERTURE END LIST*
D10*
%TO.C,Ref\u002A\u002A*%
G36*
X230241612Y-98196212D02*
G01*
X230244855Y-98283107D01*
X230244973Y-98288083D01*
X230258124Y-98849000D01*
X237441477Y-98849000D01*
X237854190Y-98953693D01*
X238117262Y-99031088D01*
X238374813Y-99125977D01*
X238609460Y-99230303D01*
X238803820Y-99336014D01*
X238940509Y-99435055D01*
X238977798Y-99474310D01*
X239052143Y-99629806D01*
X239055271Y-99797518D01*
X238988864Y-99950774D01*
X238944584Y-100000771D01*
X238778661Y-100123440D01*
X238548419Y-100246711D01*
X238273658Y-100361580D01*
X237974179Y-100459040D01*
X237884122Y-100483119D01*
X237483810Y-100584667D01*
X230213334Y-100584667D01*
X230222578Y-99155917D01*
X230225025Y-98845783D01*
X230227942Y-98588753D01*
X230231194Y-98390054D01*
X230234646Y-98254913D01*
X230238164Y-98188557D01*
X230241612Y-98196212D01*
G37*
X230241612Y-98196212D02*
X230244855Y-98283107D01*
X230244973Y-98288083D01*
X230258124Y-98849000D01*
X237441477Y-98849000D01*
X237854190Y-98953693D01*
X238117262Y-99031088D01*
X238374813Y-99125977D01*
X238609460Y-99230303D01*
X238803820Y-99336014D01*
X238940509Y-99435055D01*
X238977798Y-99474310D01*
X239052143Y-99629806D01*
X239055271Y-99797518D01*
X238988864Y-99950774D01*
X238944584Y-100000771D01*
X238778661Y-100123440D01*
X238548419Y-100246711D01*
X238273658Y-100361580D01*
X237974179Y-100459040D01*
X237884122Y-100483119D01*
X237483810Y-100584667D01*
X230213334Y-100584667D01*
X230222578Y-99155917D01*
X230225025Y-98845783D01*
X230227942Y-98588753D01*
X230231194Y-98390054D01*
X230234646Y-98254913D01*
X230238164Y-98188557D01*
X230241612Y-98196212D01*
%TO.C,U1*%
G36*
X231271667Y-157523000D02*
G01*
X147028334Y-157523000D01*
X147028334Y-132419334D01*
X231271667Y-132419334D01*
X231271667Y-157523000D01*
G37*
X231271667Y-157523000D02*
X147028334Y-157523000D01*
X147028334Y-132419334D01*
X231271667Y-132419334D01*
X231271667Y-157523000D01*
%TD*%
D11*
%TO.C,Ref\u002A\u002A*%
X225939952Y-103010029D03*
X224939952Y-103010029D03*
%TD*%
%TO.C,Ref\u002A\u002A*%
X223889952Y-103010029D03*
X222889952Y-103010029D03*
%TD*%
%TO.C,Ref\u002A\u002A*%
X225909952Y-108000029D03*
X224909952Y-108000029D03*
%TD*%
%TO.C,Ref\u002A\u002A*%
X223859952Y-108000029D03*
X222859952Y-108000029D03*
%TD*%
%TO.C,J2*%
G36*
G01*
X159450000Y-100150000D02*
X159450000Y-98450000D01*
G75*
G02*
X159500000Y-98400000I50000J0D01*
G01*
X161200000Y-98400000D01*
G75*
G02*
X161250000Y-98450000I0J-50000D01*
G01*
X161250000Y-100150000D01*
G75*
G02*
X161200000Y-100200000I-50000J0D01*
G01*
X159500000Y-100200000D01*
G75*
G02*
X159450000Y-100150000I0J50000D01*
G01*
G37*
%TD*%
D12*
%TO.C,R6*%
X235500000Y-120840000D03*
D13*
X235500000Y-131000000D03*
%TD*%
D11*
%TO.C,Ref\u002A\u002A*%
X163549952Y-107950029D03*
X162549952Y-107950029D03*
%TD*%
%TO.C,Ref\u002A\u002A*%
X165599952Y-107950029D03*
X164599952Y-107950029D03*
%TD*%
%TO.C,Ref\u002A\u002A*%
X166599952Y-107950029D03*
%TD*%
%TO.C,Ref\u002A\u002A*%
X166499952Y-103850029D03*
%TD*%
%TO.C,Ref\u002A\u002A*%
X164499952Y-103850029D03*
X165499952Y-103850029D03*
%TD*%
%TO.C,Ref\u002A\u002A*%
X162449952Y-103850029D03*
X163449952Y-103850029D03*
%TD*%
%TO.C,Ref\u002A\u002A*%
X200649952Y-108000029D03*
X199649952Y-108000029D03*
%TD*%
%TO.C,Ref\u002A\u002A*%
X198599952Y-108000029D03*
X197599952Y-108000029D03*
%TD*%
%TO.C,U1*%
G36*
G01*
X224100000Y-142450000D02*
X224100000Y-132450000D01*
G75*
G02*
X224150000Y-132400000I50000J0D01*
G01*
X228150000Y-132400000D01*
G75*
G02*
X228200000Y-132450000I0J-50000D01*
G01*
X228200000Y-142450000D01*
G75*
G02*
X228150000Y-142500000I-50000J0D01*
G01*
X224150000Y-142500000D01*
G75*
G02*
X224100000Y-142450000I0J50000D01*
G01*
G37*
G36*
G01*
X215350000Y-142450000D02*
X215350000Y-132450000D01*
G75*
G02*
X215400000Y-132400000I50000J0D01*
G01*
X219400000Y-132400000D01*
G75*
G02*
X219450000Y-132450000I0J-50000D01*
G01*
X219450000Y-142450000D01*
G75*
G02*
X219400000Y-142500000I-50000J0D01*
G01*
X215400000Y-142500000D01*
G75*
G02*
X215350000Y-142450000I0J50000D01*
G01*
G37*
G36*
G01*
X208350000Y-142450000D02*
X208350000Y-132450000D01*
G75*
G02*
X208400000Y-132400000I50000J0D01*
G01*
X212400000Y-132400000D01*
G75*
G02*
X212450000Y-132450000I0J-50000D01*
G01*
X212450000Y-142450000D01*
G75*
G02*
X212400000Y-142500000I-50000J0D01*
G01*
X208400000Y-142500000D01*
G75*
G02*
X208350000Y-142450000I0J50000D01*
G01*
G37*
G36*
G01*
X203300000Y-142450000D02*
X203300000Y-132450000D01*
G75*
G02*
X203350000Y-132400000I50000J0D01*
G01*
X206850000Y-132400000D01*
G75*
G02*
X206900000Y-132450000I0J-50000D01*
G01*
X206900000Y-142450000D01*
G75*
G02*
X206850000Y-142500000I-50000J0D01*
G01*
X203350000Y-142500000D01*
G75*
G02*
X203300000Y-142450000I0J50000D01*
G01*
G37*
G36*
G01*
X197850000Y-142450000D02*
X197850000Y-132450000D01*
G75*
G02*
X197900000Y-132400000I50000J0D01*
G01*
X201900000Y-132400000D01*
G75*
G02*
X201950000Y-132450000I0J-50000D01*
G01*
X201950000Y-142450000D01*
G75*
G02*
X201900000Y-142500000I-50000J0D01*
G01*
X197900000Y-142500000D01*
G75*
G02*
X197850000Y-142450000I0J50000D01*
G01*
G37*
G36*
G01*
X192350000Y-142450000D02*
X192350000Y-132450000D01*
G75*
G02*
X192400000Y-132400000I50000J0D01*
G01*
X196400000Y-132400000D01*
G75*
G02*
X196450000Y-132450000I0J-50000D01*
G01*
X196450000Y-142450000D01*
G75*
G02*
X196400000Y-142500000I-50000J0D01*
G01*
X192400000Y-142500000D01*
G75*
G02*
X192350000Y-142450000I0J50000D01*
G01*
G37*
G36*
G01*
X187350000Y-142450000D02*
X187350000Y-132450000D01*
G75*
G02*
X187400000Y-132400000I50000J0D01*
G01*
X191400000Y-132400000D01*
G75*
G02*
X191450000Y-132450000I0J-50000D01*
G01*
X191450000Y-142450000D01*
G75*
G02*
X191400000Y-142500000I-50000J0D01*
G01*
X187400000Y-142500000D01*
G75*
G02*
X187350000Y-142450000I0J50000D01*
G01*
G37*
G36*
G01*
X180350000Y-142450000D02*
X180350000Y-132450000D01*
G75*
G02*
X180400000Y-132400000I50000J0D01*
G01*
X184400000Y-132400000D01*
G75*
G02*
X184450000Y-132450000I0J-50000D01*
G01*
X184450000Y-142450000D01*
G75*
G02*
X184400000Y-142500000I-50000J0D01*
G01*
X180400000Y-142500000D01*
G75*
G02*
X180350000Y-142450000I0J50000D01*
G01*
G37*
G36*
G01*
X172850000Y-142450000D02*
X172850000Y-132450000D01*
G75*
G02*
X172900000Y-132400000I50000J0D01*
G01*
X176900000Y-132400000D01*
G75*
G02*
X176950000Y-132450000I0J-50000D01*
G01*
X176950000Y-142450000D01*
G75*
G02*
X176900000Y-142500000I-50000J0D01*
G01*
X172900000Y-142500000D01*
G75*
G02*
X172850000Y-142450000I0J50000D01*
G01*
G37*
G36*
G01*
X160850000Y-142450000D02*
X160850000Y-132450000D01*
G75*
G02*
X160900000Y-132400000I50000J0D01*
G01*
X164400000Y-132400000D01*
G75*
G02*
X164450000Y-132450000I0J-50000D01*
G01*
X164450000Y-142450000D01*
G75*
G02*
X164400000Y-142500000I-50000J0D01*
G01*
X160900000Y-142500000D01*
G75*
G02*
X160850000Y-142450000I0J50000D01*
G01*
G37*
G36*
G01*
X166100000Y-142450000D02*
X166100000Y-132450000D01*
G75*
G02*
X166150000Y-132400000I50000J0D01*
G01*
X170150000Y-132400000D01*
G75*
G02*
X170200000Y-132450000I0J-50000D01*
G01*
X170200000Y-142450000D01*
G75*
G02*
X170150000Y-142500000I-50000J0D01*
G01*
X166150000Y-142500000D01*
G75*
G02*
X166100000Y-142450000I0J50000D01*
G01*
G37*
G36*
G01*
X148600000Y-142450000D02*
X148600000Y-132450000D01*
G75*
G02*
X148650000Y-132400000I50000J0D01*
G01*
X152650000Y-132400000D01*
G75*
G02*
X152700000Y-132450000I0J-50000D01*
G01*
X152700000Y-142450000D01*
G75*
G02*
X152650000Y-142500000I-50000J0D01*
G01*
X148650000Y-142500000D01*
G75*
G02*
X148600000Y-142450000I0J50000D01*
G01*
G37*
G36*
G01*
X155350000Y-142450000D02*
X155350000Y-132450000D01*
G75*
G02*
X155400000Y-132400000I50000J0D01*
G01*
X159400000Y-132400000D01*
G75*
G02*
X159450000Y-132450000I0J-50000D01*
G01*
X159450000Y-142450000D01*
G75*
G02*
X159400000Y-142500000I-50000J0D01*
G01*
X155400000Y-142500000D01*
G75*
G02*
X155350000Y-142450000I0J50000D01*
G01*
G37*
%TD*%
%TO.C,LS1*%
G36*
G01*
X144025000Y-129050000D02*
X142975000Y-129050000D01*
G75*
G02*
X142450000Y-128525000I0J525000D01*
G01*
X142450000Y-125475000D01*
G75*
G02*
X142975000Y-124950000I525000J0D01*
G01*
X144025000Y-124950000D01*
G75*
G02*
X144550000Y-125475000I0J-525000D01*
G01*
X144550000Y-128525000D01*
G75*
G02*
X144025000Y-129050000I-525000J0D01*
G01*
G37*
G36*
G01*
X144025000Y-142050000D02*
X142975000Y-142050000D01*
G75*
G02*
X142450000Y-141525000I0J525000D01*
G01*
X142450000Y-138475000D01*
G75*
G02*
X142975000Y-137950000I525000J0D01*
G01*
X144025000Y-137950000D01*
G75*
G02*
X144550000Y-138475000I0J-525000D01*
G01*
X144550000Y-141525000D01*
G75*
G02*
X144025000Y-142050000I-525000J0D01*
G01*
G37*
%TD*%
%TO.C,J3*%
G36*
G01*
X228200000Y-100550000D02*
X228200000Y-98850000D01*
G75*
G02*
X228250000Y-98800000I50000J0D01*
G01*
X229950000Y-98800000D01*
G75*
G02*
X230000000Y-98850000I0J-50000D01*
G01*
X230000000Y-100550000D01*
G75*
G02*
X229950000Y-100600000I-50000J0D01*
G01*
X228250000Y-100600000D01*
G75*
G02*
X228200000Y-100550000I0J50000D01*
G01*
G37*
%TD*%
%TO.C,J1*%
G36*
G01*
X142350000Y-151850000D02*
X142350000Y-150150000D01*
G75*
G02*
X142400000Y-150100000I50000J0D01*
G01*
X144100000Y-150100000D01*
G75*
G02*
X144150000Y-150150000I0J-50000D01*
G01*
X144150000Y-151850000D01*
G75*
G02*
X144100000Y-151900000I-50000J0D01*
G01*
X142400000Y-151900000D01*
G75*
G02*
X142350000Y-151850000I0J50000D01*
G01*
G37*
%TD*%
D13*
%TO.C,C1*%
X235500000Y-139250000D03*
X235500000Y-134250000D03*
%TD*%
D14*
%TO.C,Ref\u002A\u002A*%
X236550000Y-110900000D03*
X236550000Y-155492001D03*
X141957999Y-155492001D03*
X141957999Y-110900000D03*
%TD*%
D15*
%TO.C,RV6*%
X221500000Y-128250000D03*
X231500000Y-125750000D03*
X221500000Y-123250000D03*
%TD*%
D12*
%TO.C,RK12*%
X217400000Y-120740000D03*
D13*
X217400000Y-130900000D03*
%TD*%
D12*
%TO.C,RK11*%
X210500000Y-120740000D03*
D13*
X210500000Y-130900000D03*
%TD*%
D12*
%TO.C,RK10*%
X205250000Y-120840000D03*
D13*
X205250000Y-131000000D03*
%TD*%
D12*
%TO.C,RK9*%
X200000000Y-120840000D03*
D13*
X200000000Y-131000000D03*
%TD*%
D12*
%TO.C,RK8*%
X194500000Y-120840000D03*
D13*
X194500000Y-131000000D03*
%TD*%
D12*
%TO.C,RK7*%
X189500000Y-120840000D03*
D13*
X189500000Y-131000000D03*
%TD*%
D12*
%TO.C,RK6*%
X182500000Y-120840000D03*
D13*
X182500000Y-131000000D03*
%TD*%
D12*
%TO.C,RK5*%
X175000000Y-120840000D03*
D13*
X175000000Y-131000000D03*
%TD*%
D12*
%TO.C,RK4*%
X168000000Y-120840000D03*
D13*
X168000000Y-131000000D03*
%TD*%
D12*
%TO.C,RK3*%
X162500000Y-120840000D03*
D13*
X162500000Y-131000000D03*
%TD*%
D12*
%TO.C,RK2*%
X157500000Y-120840000D03*
D13*
X157500000Y-131000000D03*
%TD*%
D12*
%TO.C,RK1*%
X150650000Y-120690000D03*
D13*
X150650000Y-130850000D03*
%TD*%
D12*
%TO.C,R5*%
X193410000Y-114500000D03*
D13*
X183250000Y-114500000D03*
%TD*%
D12*
%TO.C,R4*%
X206410000Y-114500000D03*
D13*
X196250000Y-114500000D03*
%TD*%
D12*
%TO.C,R3*%
X197360000Y-99700000D03*
D13*
X187200000Y-99700000D03*
%TD*%
D12*
%TO.C,R2*%
X232410000Y-114500000D03*
D13*
X222250000Y-114500000D03*
%TD*%
D12*
%TO.C,R1*%
X219410000Y-114500000D03*
D13*
X209250000Y-114500000D03*
%TD*%
%TO.C,Q3*%
G36*
G01*
X164400000Y-116300000D02*
X164400000Y-114500000D01*
G75*
G02*
X164450000Y-114450000I50000J0D01*
G01*
X165550000Y-114450000D01*
G75*
G02*
X165600000Y-114500000I0J-50000D01*
G01*
X165600000Y-116300000D01*
G75*
G02*
X165550000Y-116350000I-50000J0D01*
G01*
X164450000Y-116350000D01*
G75*
G02*
X164400000Y-116300000I0J50000D01*
G01*
G37*
G36*
G01*
X166940000Y-116050000D02*
X166940000Y-114750000D01*
G75*
G02*
X167240000Y-114450000I300000J0D01*
G01*
X167840000Y-114450000D01*
G75*
G02*
X168140000Y-114750000I0J-300000D01*
G01*
X168140000Y-116050000D01*
G75*
G02*
X167840000Y-116350000I-300000J0D01*
G01*
X167240000Y-116350000D01*
G75*
G02*
X166940000Y-116050000I0J300000D01*
G01*
G37*
G36*
G01*
X165670000Y-113980000D02*
X165670000Y-112680000D01*
G75*
G02*
X165970000Y-112380000I300000J0D01*
G01*
X166570000Y-112380000D01*
G75*
G02*
X166870000Y-112680000I0J-300000D01*
G01*
X166870000Y-113980000D01*
G75*
G02*
X166570000Y-114280000I-300000J0D01*
G01*
X165970000Y-114280000D01*
G75*
G02*
X165670000Y-113980000I0J300000D01*
G01*
G37*
%TD*%
%TO.C,Q2*%
G36*
G01*
X155900000Y-116300000D02*
X155900000Y-114500000D01*
G75*
G02*
X155950000Y-114450000I50000J0D01*
G01*
X157050000Y-114450000D01*
G75*
G02*
X157100000Y-114500000I0J-50000D01*
G01*
X157100000Y-116300000D01*
G75*
G02*
X157050000Y-116350000I-50000J0D01*
G01*
X155950000Y-116350000D01*
G75*
G02*
X155900000Y-116300000I0J50000D01*
G01*
G37*
G36*
G01*
X158440000Y-116050000D02*
X158440000Y-114750000D01*
G75*
G02*
X158740000Y-114450000I300000J0D01*
G01*
X159340000Y-114450000D01*
G75*
G02*
X159640000Y-114750000I0J-300000D01*
G01*
X159640000Y-116050000D01*
G75*
G02*
X159340000Y-116350000I-300000J0D01*
G01*
X158740000Y-116350000D01*
G75*
G02*
X158440000Y-116050000I0J300000D01*
G01*
G37*
G36*
G01*
X157170000Y-113980000D02*
X157170000Y-112680000D01*
G75*
G02*
X157470000Y-112380000I300000J0D01*
G01*
X158070000Y-112380000D01*
G75*
G02*
X158370000Y-112680000I0J-300000D01*
G01*
X158370000Y-113980000D01*
G75*
G02*
X158070000Y-114280000I-300000J0D01*
G01*
X157470000Y-114280000D01*
G75*
G02*
X157170000Y-113980000I0J300000D01*
G01*
G37*
%TD*%
%TO.C,Q4*%
G36*
G01*
X174400000Y-116300000D02*
X174400000Y-114500000D01*
G75*
G02*
X174450000Y-114450000I50000J0D01*
G01*
X175550000Y-114450000D01*
G75*
G02*
X175600000Y-114500000I0J-50000D01*
G01*
X175600000Y-116300000D01*
G75*
G02*
X175550000Y-116350000I-50000J0D01*
G01*
X174450000Y-116350000D01*
G75*
G02*
X174400000Y-116300000I0J50000D01*
G01*
G37*
G36*
G01*
X176940000Y-116050000D02*
X176940000Y-114750000D01*
G75*
G02*
X177240000Y-114450000I300000J0D01*
G01*
X177840000Y-114450000D01*
G75*
G02*
X178140000Y-114750000I0J-300000D01*
G01*
X178140000Y-116050000D01*
G75*
G02*
X177840000Y-116350000I-300000J0D01*
G01*
X177240000Y-116350000D01*
G75*
G02*
X176940000Y-116050000I0J300000D01*
G01*
G37*
G36*
G01*
X175670000Y-113980000D02*
X175670000Y-112680000D01*
G75*
G02*
X175970000Y-112380000I300000J0D01*
G01*
X176570000Y-112380000D01*
G75*
G02*
X176870000Y-112680000I0J-300000D01*
G01*
X176870000Y-113980000D01*
G75*
G02*
X176570000Y-114280000I-300000J0D01*
G01*
X175970000Y-114280000D01*
G75*
G02*
X175670000Y-113980000I0J300000D01*
G01*
G37*
%TD*%
%TO.C,Q1*%
G36*
G01*
X147400000Y-116300000D02*
X147400000Y-114500000D01*
G75*
G02*
X147450000Y-114450000I50000J0D01*
G01*
X148550000Y-114450000D01*
G75*
G02*
X148600000Y-114500000I0J-50000D01*
G01*
X148600000Y-116300000D01*
G75*
G02*
X148550000Y-116350000I-50000J0D01*
G01*
X147450000Y-116350000D01*
G75*
G02*
X147400000Y-116300000I0J50000D01*
G01*
G37*
G36*
G01*
X149940000Y-116050000D02*
X149940000Y-114750000D01*
G75*
G02*
X150240000Y-114450000I300000J0D01*
G01*
X150840000Y-114450000D01*
G75*
G02*
X151140000Y-114750000I0J-300000D01*
G01*
X151140000Y-116050000D01*
G75*
G02*
X150840000Y-116350000I-300000J0D01*
G01*
X150240000Y-116350000D01*
G75*
G02*
X149940000Y-116050000I0J300000D01*
G01*
G37*
G36*
G01*
X148670000Y-113980000D02*
X148670000Y-112680000D01*
G75*
G02*
X148970000Y-112380000I300000J0D01*
G01*
X149570000Y-112380000D01*
G75*
G02*
X149870000Y-112680000I0J-300000D01*
G01*
X149870000Y-113980000D01*
G75*
G02*
X149570000Y-114280000I-300000J0D01*
G01*
X148970000Y-114280000D01*
G75*
G02*
X148670000Y-113980000I0J300000D01*
G01*
G37*
%TD*%
D16*
%TO.C,D1*%
X235350000Y-147090000D03*
G36*
G01*
X234450000Y-143600000D02*
X236250000Y-143600000D01*
G75*
G02*
X236300000Y-143650000I0J-50000D01*
G01*
X236300000Y-145450000D01*
G75*
G02*
X236250000Y-145500000I-50000J0D01*
G01*
X234450000Y-145500000D01*
G75*
G02*
X234400000Y-145450000I0J50000D01*
G01*
X234400000Y-143650000D01*
G75*
G02*
X234450000Y-143600000I50000J0D01*
G01*
G37*
%TD*%
D17*
%TO.C,BT1*%
X236640000Y-151550000D03*
G36*
G01*
X234950000Y-152450000D02*
X233250000Y-152450000D01*
G75*
G02*
X233200000Y-152400000I0J50000D01*
G01*
X233200000Y-150700000D01*
G75*
G02*
X233250000Y-150650000I50000J0D01*
G01*
X234950000Y-150650000D01*
G75*
G02*
X235000000Y-150700000I0J-50000D01*
G01*
X235000000Y-152400000D01*
G75*
G02*
X234950000Y-152450000I-50000J0D01*
G01*
G37*
%TD*%
M02*
