%TF.GenerationSoftware,KiCad,Pcbnew,5.1.8*%
%TF.CreationDate,2020-12-04T21:14:45+01:00*%
%TF.ProjectId,SawToothOrganDIP,53617754-6f6f-4746-984f-7267616e4449,rev?*%
%TF.SameCoordinates,Original*%
%TF.FileFunction,Copper,L2,Bot*%
%TF.FilePolarity,Positive*%
%FSLAX46Y46*%
G04 Gerber Fmt 4.6, Leading zero omitted, Abs format (unit mm)*
G04 Created by KiCad (PCBNEW 5.1.8) date 2020-12-04 21:14:45*
%MOMM*%
%LPD*%
G01*
G04 APERTURE LIST*
%TA.AperFunction,ComponentPad*%
%ADD10C,0.495127*%
%TD*%
%TA.AperFunction,ComponentPad*%
%ADD11R,1.700000X1.700000*%
%TD*%
%TA.AperFunction,ComponentPad*%
%ADD12O,1.600000X1.600000*%
%TD*%
%TA.AperFunction,ComponentPad*%
%ADD13C,1.600000*%
%TD*%
%TA.AperFunction,ComponentPad*%
%ADD14C,2.455530*%
%TD*%
%TA.AperFunction,ComponentPad*%
%ADD15C,2.340000*%
%TD*%
%TA.AperFunction,ComponentPad*%
%ADD16R,1.100000X1.800000*%
%TD*%
%TA.AperFunction,ComponentPad*%
%ADD17C,1.800000*%
%TD*%
%TA.AperFunction,ComponentPad*%
%ADD18R,1.800000X1.800000*%
%TD*%
%TA.AperFunction,ComponentPad*%
%ADD19O,1.700000X1.700000*%
%TD*%
%TA.AperFunction,Conductor*%
%ADD20C,0.250000*%
%TD*%
%TA.AperFunction,Conductor*%
%ADD21C,0.254000*%
%TD*%
%TA.AperFunction,Conductor*%
%ADD22C,0.100000*%
%TD*%
G04 APERTURE END LIST*
D10*
%TO.P,Ref\u002A\u002A,2*%
%TO.N,N/C*%
X225939952Y-103010029D03*
%TO.P,Ref\u002A\u002A,1*%
X224939952Y-103010029D03*
%TD*%
%TO.P,Ref\u002A\u002A,2*%
%TO.N,N/C*%
X223889952Y-103010029D03*
%TO.P,Ref\u002A\u002A,1*%
X222889952Y-103010029D03*
%TD*%
%TO.P,Ref\u002A\u002A,2*%
%TO.N,N/C*%
X225909952Y-108000029D03*
%TO.P,Ref\u002A\u002A,1*%
X224909952Y-108000029D03*
%TD*%
%TO.P,Ref\u002A\u002A,2*%
%TO.N,N/C*%
X223859952Y-108000029D03*
%TO.P,Ref\u002A\u002A,1*%
X222859952Y-108000029D03*
%TD*%
D11*
%TO.P,J2,1*%
%TO.N,Net-(J2-Pad1)*%
X164630000Y-99680000D03*
%TD*%
D12*
%TO.P,R6,2*%
%TO.N,Net-(LS1-Pad1)*%
X235500000Y-120840000D03*
D13*
%TO.P,R6,1*%
%TO.N,GND*%
X235500000Y-131000000D03*
%TD*%
D10*
%TO.P,Ref\u002A\u002A,2*%
%TO.N,N/C*%
X163549952Y-107950029D03*
%TO.P,Ref\u002A\u002A,1*%
X162549952Y-107950029D03*
%TD*%
%TO.P,Ref\u002A\u002A,2*%
%TO.N,N/C*%
X165599952Y-107950029D03*
%TO.P,Ref\u002A\u002A,1*%
X164599952Y-107950029D03*
%TD*%
%TO.P,SW1,2*%
%TO.N,+9V*%
%TA.AperFunction,SMDPad,CuDef*%
G36*
G01*
X224950000Y-152350000D02*
X224950000Y-150850000D01*
G75*
G02*
X225700000Y-150100000I750000J0D01*
G01*
X230200000Y-150100000D01*
G75*
G02*
X230950000Y-150850000I0J-750000D01*
G01*
X230950000Y-152350000D01*
G75*
G02*
X230200000Y-153100000I-750000J0D01*
G01*
X225700000Y-153100000D01*
G75*
G02*
X224950000Y-152350000I0J750000D01*
G01*
G37*
%TD.AperFunction*%
%TO.P,SW1,1*%
%TO.N,VS*%
%TA.AperFunction,SMDPad,CuDef*%
G36*
G01*
X200950000Y-152350000D02*
X200950000Y-150850000D01*
G75*
G02*
X201700000Y-150100000I750000J0D01*
G01*
X206200000Y-150100000D01*
G75*
G02*
X206950000Y-150850000I0J-750000D01*
G01*
X206950000Y-152350000D01*
G75*
G02*
X206200000Y-153100000I-750000J0D01*
G01*
X201700000Y-153100000D01*
G75*
G02*
X200950000Y-152350000I0J750000D01*
G01*
G37*
%TD.AperFunction*%
%TD*%
%TO.P,Ref\u002A\u002A,1*%
%TO.N,N/C*%
X166599952Y-107950029D03*
%TD*%
%TO.P,Ref\u002A\u002A,1*%
%TO.N,N/C*%
X166499952Y-103850029D03*
%TD*%
%TO.P,Ref\u002A\u002A,1*%
%TO.N,N/C*%
X164499952Y-103850029D03*
%TO.P,Ref\u002A\u002A,2*%
X165499952Y-103850029D03*
%TD*%
%TO.P,Ref\u002A\u002A,1*%
%TO.N,N/C*%
X162449952Y-103850029D03*
%TO.P,Ref\u002A\u002A,2*%
X163449952Y-103850029D03*
%TD*%
%TO.P,Ref\u002A\u002A,2*%
%TO.N,N/C*%
X200649952Y-108000029D03*
%TO.P,Ref\u002A\u002A,1*%
X199649952Y-108000029D03*
%TD*%
%TO.P,Ref\u002A\u002A,2*%
%TO.N,N/C*%
X198599952Y-108000029D03*
%TO.P,Ref\u002A\u002A,1*%
X197599952Y-108000029D03*
%TD*%
%TO.P,LS1,2*%
%TO.N,Net-(LS1-Pad2)*%
%TA.AperFunction,ComponentPad*%
G36*
G01*
X144000000Y-129000000D02*
X143000000Y-129000000D01*
G75*
G02*
X142500000Y-128500000I0J500000D01*
G01*
X142500000Y-125500000D01*
G75*
G02*
X143000000Y-125000000I500000J0D01*
G01*
X144000000Y-125000000D01*
G75*
G02*
X144500000Y-125500000I0J-500000D01*
G01*
X144500000Y-128500000D01*
G75*
G02*
X144000000Y-129000000I-500000J0D01*
G01*
G37*
%TD.AperFunction*%
%TO.P,LS1,1*%
%TO.N,Net-(LS1-Pad1)*%
%TA.AperFunction,ComponentPad*%
G36*
G01*
X144000000Y-142000000D02*
X143000000Y-142000000D01*
G75*
G02*
X142500000Y-141500000I0J500000D01*
G01*
X142500000Y-138500000D01*
G75*
G02*
X143000000Y-138000000I500000J0D01*
G01*
X144000000Y-138000000D01*
G75*
G02*
X144500000Y-138500000I0J-500000D01*
G01*
X144500000Y-141500000D01*
G75*
G02*
X144000000Y-142000000I-500000J0D01*
G01*
G37*
%TD.AperFunction*%
%TD*%
D11*
%TO.P,J3,1*%
%TO.N,Net-(J3-Pad1)*%
X229100000Y-99700000D03*
%TD*%
%TO.P,J1,1*%
%TO.N,VS*%
X143250000Y-151000000D03*
%TD*%
D13*
%TO.P,C1,2*%
%TO.N,GND*%
X235500000Y-139250000D03*
%TO.P,C1,1*%
%TO.N,Net-(C1-Pad1)*%
X235500000Y-134250000D03*
%TD*%
D14*
%TO.P,Ref\u002A\u002A,4*%
%TO.N,N/C*%
X236550000Y-110900000D03*
%TO.P,Ref\u002A\u002A,3*%
X236550000Y-155492001D03*
%TO.P,Ref\u002A\u002A,2*%
X141957999Y-155492001D03*
%TO.P,Ref\u002A\u002A,1*%
X141957999Y-110900000D03*
%TD*%
D15*
%TO.P,RV6,1*%
%TO.N,Net-(C1-Pad1)*%
X221500000Y-128250000D03*
%TO.P,RV6,2*%
%TO.N,Net-(RK12-Pad2)*%
X231500000Y-125750000D03*
%TO.P,RV6,3*%
%TO.N,Net-(RV6-Pad3)*%
X221500000Y-123250000D03*
%TD*%
D12*
%TO.P,RK12,2*%
%TO.N,Net-(RK12-Pad2)*%
X217400000Y-120740000D03*
D13*
%TO.P,RK12,1*%
%TO.N,Net-(RK11-Pad2)*%
X217400000Y-130900000D03*
%TD*%
D12*
%TO.P,RK11,2*%
%TO.N,Net-(RK11-Pad2)*%
X210500000Y-120740000D03*
D13*
%TO.P,RK11,1*%
%TO.N,Net-(RK10-Pad2)*%
X210500000Y-130900000D03*
%TD*%
D12*
%TO.P,RK10,2*%
%TO.N,Net-(RK10-Pad2)*%
X205250000Y-120840000D03*
D13*
%TO.P,RK10,1*%
%TO.N,Net-(RK10-Pad1)*%
X205250000Y-131000000D03*
%TD*%
D12*
%TO.P,RK9,2*%
%TO.N,Net-(RK10-Pad1)*%
X200000000Y-120840000D03*
D13*
%TO.P,RK9,1*%
%TO.N,Net-(RK8-Pad2)*%
X200000000Y-131000000D03*
%TD*%
D12*
%TO.P,RK8,2*%
%TO.N,Net-(RK8-Pad2)*%
X194500000Y-120840000D03*
D13*
%TO.P,RK8,1*%
%TO.N,Net-(RK7-Pad2)*%
X194500000Y-131000000D03*
%TD*%
D12*
%TO.P,RK7,2*%
%TO.N,Net-(RK7-Pad2)*%
X189500000Y-120840000D03*
D13*
%TO.P,RK7,1*%
%TO.N,Net-(RK6-Pad2)*%
X189500000Y-131000000D03*
%TD*%
D12*
%TO.P,RK6,2*%
%TO.N,Net-(RK6-Pad2)*%
X182500000Y-120840000D03*
D13*
%TO.P,RK6,1*%
%TO.N,Net-(RK5-Pad2)*%
X182500000Y-131000000D03*
%TD*%
D12*
%TO.P,RK5,2*%
%TO.N,Net-(RK5-Pad2)*%
X175000000Y-120840000D03*
D13*
%TO.P,RK5,1*%
%TO.N,Net-(RK4-Pad2)*%
X175000000Y-131000000D03*
%TD*%
D12*
%TO.P,RK4,2*%
%TO.N,Net-(RK4-Pad2)*%
X168000000Y-120840000D03*
D13*
%TO.P,RK4,1*%
%TO.N,Net-(RK3-Pad2)*%
X168000000Y-131000000D03*
%TD*%
D12*
%TO.P,RK3,2*%
%TO.N,Net-(RK3-Pad2)*%
X162500000Y-120840000D03*
D13*
%TO.P,RK3,1*%
%TO.N,Net-(RK2-Pad2)*%
X162500000Y-131000000D03*
%TD*%
D12*
%TO.P,RK2,2*%
%TO.N,Net-(RK2-Pad2)*%
X157500000Y-120840000D03*
D13*
%TO.P,RK2,1*%
%TO.N,Net-(RK1-Pad2)*%
X157500000Y-131000000D03*
%TD*%
D12*
%TO.P,RK1,2*%
%TO.N,Net-(RK1-Pad2)*%
X150650000Y-120690000D03*
D13*
%TO.P,RK1,1*%
%TO.N,Net-(RK1-Pad1)*%
X150650000Y-130850000D03*
%TD*%
D12*
%TO.P,R5,2*%
%TO.N,Net-(Q3-Pad2)*%
X193410000Y-114500000D03*
D13*
%TO.P,R5,1*%
%TO.N,Net-(C1-Pad1)*%
X183250000Y-114500000D03*
%TD*%
D12*
%TO.P,R4,2*%
%TO.N,Net-(Q1-Pad2)*%
X206410000Y-114500000D03*
D13*
%TO.P,R4,1*%
%TO.N,GND*%
X196250000Y-114500000D03*
%TD*%
D12*
%TO.P,R3,2*%
%TO.N,Net-(J3-Pad1)*%
X197360000Y-99700000D03*
D13*
%TO.P,R3,1*%
%TO.N,Net-(J2-Pad1)*%
X187200000Y-99700000D03*
%TD*%
D12*
%TO.P,R2,2*%
%TO.N,Net-(D1-Pad1)*%
X232410000Y-114500000D03*
D13*
%TO.P,R2,1*%
%TO.N,Net-(Q1-Pad1)*%
X222250000Y-114500000D03*
%TD*%
D12*
%TO.P,R1,2*%
%TO.N,Net-(Q1-Pad1)*%
X219410000Y-114500000D03*
D13*
%TO.P,R1,1*%
%TO.N,GND*%
X209250000Y-114500000D03*
%TD*%
D16*
%TO.P,Q3,1*%
%TO.N,VS*%
X165000000Y-115400000D03*
%TO.P,Q3,3*%
%TO.N,Net-(Q2-Pad2)*%
%TA.AperFunction,ComponentPad*%
G36*
G01*
X166990000Y-116025000D02*
X166990000Y-114775000D01*
G75*
G02*
X167265000Y-114500000I275000J0D01*
G01*
X167815000Y-114500000D01*
G75*
G02*
X168090000Y-114775000I0J-275000D01*
G01*
X168090000Y-116025000D01*
G75*
G02*
X167815000Y-116300000I-275000J0D01*
G01*
X167265000Y-116300000D01*
G75*
G02*
X166990000Y-116025000I0J275000D01*
G01*
G37*
%TD.AperFunction*%
%TO.P,Q3,2*%
%TO.N,Net-(Q3-Pad2)*%
%TA.AperFunction,ComponentPad*%
G36*
G01*
X165720000Y-113955000D02*
X165720000Y-112705000D01*
G75*
G02*
X165995000Y-112430000I275000J0D01*
G01*
X166545000Y-112430000D01*
G75*
G02*
X166820000Y-112705000I0J-275000D01*
G01*
X166820000Y-113955000D01*
G75*
G02*
X166545000Y-114230000I-275000J0D01*
G01*
X165995000Y-114230000D01*
G75*
G02*
X165720000Y-113955000I0J275000D01*
G01*
G37*
%TD.AperFunction*%
%TD*%
%TO.P,Q2,1*%
%TO.N,VS*%
X156500000Y-115400000D03*
%TO.P,Q2,3*%
%TO.N,Net-(LS1-Pad2)*%
%TA.AperFunction,ComponentPad*%
G36*
G01*
X158490000Y-116025000D02*
X158490000Y-114775000D01*
G75*
G02*
X158765000Y-114500000I275000J0D01*
G01*
X159315000Y-114500000D01*
G75*
G02*
X159590000Y-114775000I0J-275000D01*
G01*
X159590000Y-116025000D01*
G75*
G02*
X159315000Y-116300000I-275000J0D01*
G01*
X158765000Y-116300000D01*
G75*
G02*
X158490000Y-116025000I0J275000D01*
G01*
G37*
%TD.AperFunction*%
%TO.P,Q2,2*%
%TO.N,Net-(Q2-Pad2)*%
%TA.AperFunction,ComponentPad*%
G36*
G01*
X157220000Y-113955000D02*
X157220000Y-112705000D01*
G75*
G02*
X157495000Y-112430000I275000J0D01*
G01*
X158045000Y-112430000D01*
G75*
G02*
X158320000Y-112705000I0J-275000D01*
G01*
X158320000Y-113955000D01*
G75*
G02*
X158045000Y-114230000I-275000J0D01*
G01*
X157495000Y-114230000D01*
G75*
G02*
X157220000Y-113955000I0J275000D01*
G01*
G37*
%TD.AperFunction*%
%TD*%
%TO.P,Q4,1*%
%TO.N,Net-(Q1-Pad2)*%
X175000000Y-115400000D03*
%TO.P,Q4,3*%
%TO.N,Net-(C1-Pad1)*%
%TA.AperFunction,ComponentPad*%
G36*
G01*
X176990000Y-116025000D02*
X176990000Y-114775000D01*
G75*
G02*
X177265000Y-114500000I275000J0D01*
G01*
X177815000Y-114500000D01*
G75*
G02*
X178090000Y-114775000I0J-275000D01*
G01*
X178090000Y-116025000D01*
G75*
G02*
X177815000Y-116300000I-275000J0D01*
G01*
X177265000Y-116300000D01*
G75*
G02*
X176990000Y-116025000I0J275000D01*
G01*
G37*
%TD.AperFunction*%
%TO.P,Q4,2*%
%TO.N,Net-(Q1-Pad1)*%
%TA.AperFunction,ComponentPad*%
G36*
G01*
X175720000Y-113955000D02*
X175720000Y-112705000D01*
G75*
G02*
X175995000Y-112430000I275000J0D01*
G01*
X176545000Y-112430000D01*
G75*
G02*
X176820000Y-112705000I0J-275000D01*
G01*
X176820000Y-113955000D01*
G75*
G02*
X176545000Y-114230000I-275000J0D01*
G01*
X175995000Y-114230000D01*
G75*
G02*
X175720000Y-113955000I0J275000D01*
G01*
G37*
%TD.AperFunction*%
%TD*%
%TO.P,Q1,1*%
%TO.N,Net-(Q1-Pad1)*%
X148000000Y-115400000D03*
%TO.P,Q1,3*%
%TO.N,GND*%
%TA.AperFunction,ComponentPad*%
G36*
G01*
X149990000Y-116025000D02*
X149990000Y-114775000D01*
G75*
G02*
X150265000Y-114500000I275000J0D01*
G01*
X150815000Y-114500000D01*
G75*
G02*
X151090000Y-114775000I0J-275000D01*
G01*
X151090000Y-116025000D01*
G75*
G02*
X150815000Y-116300000I-275000J0D01*
G01*
X150265000Y-116300000D01*
G75*
G02*
X149990000Y-116025000I0J275000D01*
G01*
G37*
%TD.AperFunction*%
%TO.P,Q1,2*%
%TO.N,Net-(Q1-Pad2)*%
%TA.AperFunction,ComponentPad*%
G36*
G01*
X148720000Y-113955000D02*
X148720000Y-112705000D01*
G75*
G02*
X148995000Y-112430000I275000J0D01*
G01*
X149545000Y-112430000D01*
G75*
G02*
X149820000Y-112705000I0J-275000D01*
G01*
X149820000Y-113955000D01*
G75*
G02*
X149545000Y-114230000I-275000J0D01*
G01*
X148995000Y-114230000D01*
G75*
G02*
X148720000Y-113955000I0J275000D01*
G01*
G37*
%TD.AperFunction*%
%TD*%
D17*
%TO.P,D1,2*%
%TO.N,VS*%
X235390000Y-145260000D03*
D18*
%TO.P,D1,1*%
%TO.N,Net-(D1-Pad1)*%
X235390000Y-142720000D03*
%TD*%
D19*
%TO.P,BT1,2*%
%TO.N,GND*%
X236640000Y-151550000D03*
D11*
%TO.P,BT1,1*%
%TO.N,+9V*%
X234100000Y-151550000D03*
%TD*%
D20*
%TO.N,+9V*%
X234050000Y-151600000D02*
X234100000Y-151550000D01*
X227950000Y-151600000D02*
X234050000Y-151600000D01*
%TO.N,Net-(C1-Pad1)*%
X178040000Y-114500000D02*
X177540000Y-115000000D01*
X183250000Y-114500000D02*
X178040000Y-114500000D01*
%TO.N,Net-(D1-Pad1)*%
X233209999Y-115299999D02*
X233209999Y-140929999D01*
X232410000Y-114500000D02*
X233209999Y-115299999D01*
X235000000Y-142720000D02*
X235390000Y-142720000D01*
X233209999Y-140929999D02*
X235000000Y-142720000D01*
%TO.N,Net-(Q1-Pad1)*%
X222250000Y-114500000D02*
X219410000Y-114500000D01*
X176625001Y-113374999D02*
X176270000Y-113730000D01*
X218284999Y-113374999D02*
X176625001Y-113374999D01*
X219410000Y-114500000D02*
X218284999Y-113374999D01*
X148000000Y-112851456D02*
X148000000Y-115000000D01*
X174194980Y-111654980D02*
X149196476Y-111654980D01*
X149196476Y-111654980D02*
X148000000Y-112851456D01*
X176270000Y-113730000D02*
X174194980Y-111654980D01*
%TO.N,Net-(Q1-Pad2)*%
X176625010Y-116625010D02*
X175000000Y-115000000D01*
X204284990Y-116625010D02*
X176625010Y-116625010D01*
X206410000Y-114500000D02*
X204284990Y-116625010D01*
X172104990Y-112104990D02*
X175000000Y-115000000D01*
X150895010Y-112104990D02*
X172104990Y-112104990D01*
X149270000Y-113730000D02*
X150895010Y-112104990D01*
%TO.N,Net-(LS1-Pad2)*%
X159040000Y-115000000D02*
X159000000Y-115000000D01*
X159000000Y-115000000D02*
X155500000Y-118500000D01*
X143500000Y-125000000D02*
X143500000Y-127000000D01*
X150000000Y-118500000D02*
X143500000Y-125000000D01*
X155500000Y-118500000D02*
X150000000Y-118500000D01*
%TO.N,Net-(RK1-Pad2)*%
X157500000Y-127540000D02*
X150650000Y-120690000D01*
X157500000Y-131000000D02*
X157500000Y-127540000D01*
%TO.N,Net-(RK2-Pad2)*%
X162500000Y-125840000D02*
X157500000Y-120840000D01*
X162500000Y-131000000D02*
X162500000Y-125840000D01*
%TO.N,Net-(RK3-Pad2)*%
X168000000Y-126340000D02*
X162500000Y-120840000D01*
X168000000Y-131000000D02*
X168000000Y-126340000D01*
%TO.N,Net-(RK4-Pad2)*%
X175000000Y-127840000D02*
X168000000Y-120840000D01*
X175000000Y-131000000D02*
X175000000Y-127840000D01*
%TO.N,Net-(RK5-Pad2)*%
X182500000Y-128340000D02*
X175000000Y-120840000D01*
X182500000Y-131000000D02*
X182500000Y-128340000D01*
%TO.N,Net-(RK6-Pad2)*%
X189500000Y-127840000D02*
X182500000Y-120840000D01*
X189500000Y-131000000D02*
X189500000Y-127840000D01*
%TO.N,Net-(RK7-Pad2)*%
X194500000Y-125840000D02*
X189500000Y-120840000D01*
X194500000Y-131000000D02*
X194500000Y-125840000D01*
%TO.N,Net-(RK8-Pad2)*%
X200000000Y-126340000D02*
X194500000Y-120840000D01*
X200000000Y-131000000D02*
X200000000Y-126340000D01*
%TO.N,Net-(RK10-Pad1)*%
X205250000Y-126090000D02*
X200000000Y-120840000D01*
X205250000Y-131000000D02*
X205250000Y-126090000D01*
%TO.N,Net-(RK10-Pad2)*%
X210500000Y-126090000D02*
X205250000Y-120840000D01*
X210500000Y-130900000D02*
X210500000Y-126090000D01*
%TO.N,Net-(RK11-Pad2)*%
X217400000Y-127640000D02*
X210500000Y-120740000D01*
X217400000Y-130900000D02*
X217400000Y-127640000D01*
%TO.N,Net-(RK12-Pad2)*%
X221278630Y-125750000D02*
X231500000Y-125750000D01*
X217400000Y-121871370D02*
X221278630Y-125750000D01*
X217400000Y-120740000D02*
X217400000Y-121871370D01*
%TO.N,Net-(Q2-Pad2)*%
X159118544Y-113730000D02*
X157770000Y-113730000D01*
X162013545Y-116625001D02*
X159118544Y-113730000D01*
X165914999Y-116625001D02*
X162013545Y-116625001D01*
X167540000Y-115000000D02*
X165914999Y-116625001D01*
%TD*%
D21*
%TO.N,VS*%
X164181902Y-108732146D02*
X164342518Y-108798675D01*
X164513027Y-108832592D01*
X164686877Y-108832592D01*
X164857386Y-108798675D01*
X165018002Y-108732146D01*
X165099952Y-108677389D01*
X165181902Y-108732146D01*
X165342518Y-108798675D01*
X165513027Y-108832592D01*
X165686877Y-108832592D01*
X165857386Y-108798675D01*
X166018002Y-108732146D01*
X166099952Y-108677389D01*
X166181902Y-108732146D01*
X166342518Y-108798675D01*
X166401321Y-108810372D01*
X166415107Y-108836163D01*
X166506956Y-108948081D01*
X166604312Y-109027979D01*
X166618874Y-109039930D01*
X166746561Y-109108180D01*
X166885109Y-109150208D01*
X167029194Y-109164399D01*
X167065299Y-109160843D01*
X197188149Y-109160843D01*
X197224254Y-109164399D01*
X197260359Y-109160843D01*
X197368339Y-109150208D01*
X197506887Y-109108180D01*
X197634574Y-109039930D01*
X197746492Y-108948081D01*
X197822354Y-108855643D01*
X197857386Y-108848675D01*
X198018002Y-108782146D01*
X198099952Y-108727389D01*
X198181902Y-108782146D01*
X198342518Y-108848675D01*
X198513027Y-108882592D01*
X198686877Y-108882592D01*
X198857386Y-108848675D01*
X199018002Y-108782146D01*
X199124952Y-108710684D01*
X199231902Y-108782146D01*
X199392518Y-108848675D01*
X199563027Y-108882592D01*
X199736877Y-108882592D01*
X199907386Y-108848675D01*
X200068002Y-108782146D01*
X200149952Y-108727389D01*
X200231902Y-108782146D01*
X200392518Y-108848675D01*
X200515154Y-108873069D01*
X200576715Y-108948081D01*
X200674071Y-109027979D01*
X200688633Y-109039930D01*
X200816320Y-109108180D01*
X200954868Y-109150208D01*
X201098953Y-109164399D01*
X201135058Y-109160843D01*
X222421237Y-109160843D01*
X222457342Y-109164399D01*
X222493447Y-109160843D01*
X222601427Y-109150208D01*
X222739975Y-109108180D01*
X222867662Y-109039930D01*
X222979580Y-108948081D01*
X223050191Y-108862041D01*
X223117386Y-108848675D01*
X223278002Y-108782146D01*
X223359952Y-108727389D01*
X223441902Y-108782146D01*
X223602518Y-108848675D01*
X223773027Y-108882592D01*
X223946877Y-108882592D01*
X224117386Y-108848675D01*
X224278002Y-108782146D01*
X224384952Y-108710684D01*
X224491902Y-108782146D01*
X224652518Y-108848675D01*
X224823027Y-108882592D01*
X224996877Y-108882592D01*
X225167386Y-108848675D01*
X225328002Y-108782146D01*
X225409952Y-108727389D01*
X225491902Y-108782146D01*
X225652518Y-108848675D01*
X225756579Y-108869374D01*
X225821172Y-108948081D01*
X225918528Y-109027979D01*
X225933090Y-109039930D01*
X226060777Y-109108180D01*
X226199325Y-109150208D01*
X226343410Y-109164399D01*
X226379515Y-109160843D01*
X235881057Y-109160843D01*
X235667650Y-109249239D01*
X235362557Y-109453096D01*
X235103096Y-109712557D01*
X234899239Y-110017650D01*
X234758820Y-110356652D01*
X234687235Y-110716534D01*
X234687235Y-111083466D01*
X234758820Y-111443348D01*
X234899239Y-111782350D01*
X235103096Y-112087443D01*
X235362557Y-112346904D01*
X235667650Y-112550761D01*
X236006652Y-112691180D01*
X236366534Y-112762765D01*
X236733466Y-112762765D01*
X237093348Y-112691180D01*
X237432350Y-112550761D01*
X237737443Y-112346904D01*
X237996904Y-112087443D01*
X238200761Y-111782350D01*
X238341180Y-111443348D01*
X238412765Y-111083466D01*
X238412765Y-110716534D01*
X238341180Y-110356652D01*
X238200761Y-110017650D01*
X237996904Y-109712557D01*
X237737443Y-109453096D01*
X237432350Y-109249239D01*
X237218943Y-109160843D01*
X237241636Y-109160843D01*
X237391375Y-109168354D01*
X237508489Y-109186128D01*
X237696915Y-109239336D01*
X237864044Y-109314612D01*
X238017274Y-109412633D01*
X238154428Y-109531355D01*
X238273145Y-109668503D01*
X238371162Y-109821728D01*
X238446442Y-109988867D01*
X238499650Y-110177291D01*
X238517424Y-110294403D01*
X238524937Y-110444170D01*
X238524936Y-156407591D01*
X238517424Y-156557335D01*
X238499650Y-156674451D01*
X238446442Y-156862874D01*
X238371164Y-157030008D01*
X238273145Y-157183236D01*
X238154428Y-157320384D01*
X238017274Y-157439106D01*
X237864044Y-157537127D01*
X237696915Y-157612403D01*
X237508489Y-157665611D01*
X237391376Y-157683385D01*
X237241630Y-157690897D01*
X141279167Y-157690897D01*
X141129418Y-157683385D01*
X141012260Y-157665606D01*
X140823784Y-157612391D01*
X140656562Y-157537090D01*
X140503253Y-157439046D01*
X140366020Y-157320295D01*
X140247234Y-157183118D01*
X140149171Y-157029888D01*
X140073864Y-156862769D01*
X140020638Y-156674376D01*
X140002859Y-156557294D01*
X139995345Y-156407584D01*
X139995345Y-155308535D01*
X140095234Y-155308535D01*
X140095234Y-155675467D01*
X140166819Y-156035349D01*
X140307238Y-156374351D01*
X140511095Y-156679444D01*
X140770556Y-156938905D01*
X141075649Y-157142762D01*
X141414651Y-157283181D01*
X141774533Y-157354766D01*
X142141465Y-157354766D01*
X142501347Y-157283181D01*
X142840349Y-157142762D01*
X143145442Y-156938905D01*
X143404903Y-156679444D01*
X143608760Y-156374351D01*
X143749179Y-156035349D01*
X143820764Y-155675467D01*
X143820764Y-155308535D01*
X234687235Y-155308535D01*
X234687235Y-155675467D01*
X234758820Y-156035349D01*
X234899239Y-156374351D01*
X235103096Y-156679444D01*
X235362557Y-156938905D01*
X235667650Y-157142762D01*
X236006652Y-157283181D01*
X236366534Y-157354766D01*
X236733466Y-157354766D01*
X237093348Y-157283181D01*
X237432350Y-157142762D01*
X237737443Y-156938905D01*
X237996904Y-156679444D01*
X238200761Y-156374351D01*
X238341180Y-156035349D01*
X238412765Y-155675467D01*
X238412765Y-155308535D01*
X238341180Y-154948653D01*
X238200761Y-154609651D01*
X237996904Y-154304558D01*
X237737443Y-154045097D01*
X237432350Y-153841240D01*
X237093348Y-153700821D01*
X236733466Y-153629236D01*
X236366534Y-153629236D01*
X236006652Y-153700821D01*
X235667650Y-153841240D01*
X235362557Y-154045097D01*
X235103096Y-154304558D01*
X234899239Y-154609651D01*
X234758820Y-154948653D01*
X234687235Y-155308535D01*
X143820764Y-155308535D01*
X143749179Y-154948653D01*
X143608760Y-154609651D01*
X143404903Y-154304558D01*
X143145442Y-154045097D01*
X142840349Y-153841240D01*
X142501347Y-153700821D01*
X142141465Y-153629236D01*
X141774533Y-153629236D01*
X141414651Y-153700821D01*
X141075649Y-153841240D01*
X140770556Y-154045097D01*
X140511095Y-154304558D01*
X140307238Y-154609651D01*
X140166819Y-154948653D01*
X140095234Y-155308535D01*
X139995345Y-155308535D01*
X139995345Y-153100000D01*
X200311928Y-153100000D01*
X200324188Y-153224482D01*
X200360498Y-153344180D01*
X200419463Y-153454494D01*
X200498815Y-153551185D01*
X200595506Y-153630537D01*
X200705820Y-153689502D01*
X200825518Y-153725812D01*
X200950000Y-153738072D01*
X203664250Y-153735000D01*
X203823000Y-153576250D01*
X203823000Y-151727000D01*
X204077000Y-151727000D01*
X204077000Y-153576250D01*
X204235750Y-153735000D01*
X206950000Y-153738072D01*
X207074482Y-153725812D01*
X207194180Y-153689502D01*
X207304494Y-153630537D01*
X207401185Y-153551185D01*
X207480537Y-153454494D01*
X207539502Y-153344180D01*
X207575812Y-153224482D01*
X207588072Y-153100000D01*
X207585000Y-151885750D01*
X207426250Y-151727000D01*
X204077000Y-151727000D01*
X203823000Y-151727000D01*
X200473750Y-151727000D01*
X200315000Y-151885750D01*
X200311928Y-153100000D01*
X139995345Y-153100000D01*
X139995345Y-151850000D01*
X141761928Y-151850000D01*
X141774188Y-151974482D01*
X141810498Y-152094180D01*
X141869463Y-152204494D01*
X141948815Y-152301185D01*
X142045506Y-152380537D01*
X142155820Y-152439502D01*
X142275518Y-152475812D01*
X142400000Y-152488072D01*
X142964250Y-152485000D01*
X143123000Y-152326250D01*
X143123000Y-151127000D01*
X143377000Y-151127000D01*
X143377000Y-152326250D01*
X143535750Y-152485000D01*
X144100000Y-152488072D01*
X144224482Y-152475812D01*
X144344180Y-152439502D01*
X144454494Y-152380537D01*
X144551185Y-152301185D01*
X144630537Y-152204494D01*
X144689502Y-152094180D01*
X144725812Y-151974482D01*
X144738072Y-151850000D01*
X144735000Y-151285750D01*
X144576250Y-151127000D01*
X143377000Y-151127000D01*
X143123000Y-151127000D01*
X141923750Y-151127000D01*
X141765000Y-151285750D01*
X141761928Y-151850000D01*
X139995345Y-151850000D01*
X139995345Y-150150000D01*
X141761928Y-150150000D01*
X141765000Y-150714250D01*
X141923750Y-150873000D01*
X143123000Y-150873000D01*
X143123000Y-149673750D01*
X143377000Y-149673750D01*
X143377000Y-150873000D01*
X144576250Y-150873000D01*
X144735000Y-150714250D01*
X144738072Y-150150000D01*
X144733148Y-150100000D01*
X200311928Y-150100000D01*
X200315000Y-151314250D01*
X200473750Y-151473000D01*
X203823000Y-151473000D01*
X203823000Y-149623750D01*
X204077000Y-149623750D01*
X204077000Y-151473000D01*
X207426250Y-151473000D01*
X207585000Y-151314250D01*
X207586174Y-150850000D01*
X224311928Y-150850000D01*
X224311928Y-152350000D01*
X224338599Y-152620799D01*
X224417589Y-152881192D01*
X224545860Y-153121171D01*
X224718485Y-153331515D01*
X224928829Y-153504140D01*
X225168808Y-153632411D01*
X225429201Y-153711401D01*
X225700000Y-153738072D01*
X230200000Y-153738072D01*
X230470799Y-153711401D01*
X230731192Y-153632411D01*
X230971171Y-153504140D01*
X231181515Y-153331515D01*
X231354140Y-153121171D01*
X231482411Y-152881192D01*
X231561401Y-152620799D01*
X231587087Y-152360000D01*
X232611928Y-152360000D01*
X232611928Y-152400000D01*
X232624188Y-152524482D01*
X232660498Y-152644180D01*
X232719463Y-152754494D01*
X232798815Y-152851185D01*
X232895506Y-152930537D01*
X233005820Y-152989502D01*
X233125518Y-153025812D01*
X233250000Y-153038072D01*
X234950000Y-153038072D01*
X235074482Y-153025812D01*
X235194180Y-152989502D01*
X235304494Y-152930537D01*
X235401185Y-152851185D01*
X235480537Y-152754494D01*
X235539502Y-152644180D01*
X235561513Y-152571620D01*
X235693368Y-152703475D01*
X235936589Y-152865990D01*
X236206842Y-152977932D01*
X236493740Y-153035000D01*
X236786260Y-153035000D01*
X237073158Y-152977932D01*
X237343411Y-152865990D01*
X237586632Y-152703475D01*
X237793475Y-152496632D01*
X237955990Y-152253411D01*
X238067932Y-151983158D01*
X238125000Y-151696260D01*
X238125000Y-151403740D01*
X238067932Y-151116842D01*
X237955990Y-150846589D01*
X237793475Y-150603368D01*
X237586632Y-150396525D01*
X237343411Y-150234010D01*
X237085927Y-150127357D01*
X237113989Y-150121775D01*
X237366043Y-150017371D01*
X237592886Y-149865799D01*
X237785799Y-149672886D01*
X237937371Y-149446043D01*
X238041775Y-149193989D01*
X238095000Y-148926411D01*
X238095000Y-148653589D01*
X238041775Y-148386011D01*
X237937371Y-148133957D01*
X237785799Y-147907114D01*
X237592886Y-147714201D01*
X237366043Y-147562629D01*
X237113989Y-147458225D01*
X236846411Y-147405000D01*
X236573589Y-147405000D01*
X236306011Y-147458225D01*
X236053957Y-147562629D01*
X235827114Y-147714201D01*
X235634201Y-147907114D01*
X235482629Y-148133957D01*
X235417071Y-148292228D01*
X235347371Y-148123957D01*
X235195799Y-147897114D01*
X235002886Y-147704201D01*
X234776043Y-147552629D01*
X234523989Y-147448225D01*
X234256411Y-147395000D01*
X233983589Y-147395000D01*
X233716011Y-147448225D01*
X233463957Y-147552629D01*
X233237114Y-147704201D01*
X233044201Y-147897114D01*
X232892629Y-148123957D01*
X232788225Y-148376011D01*
X232735000Y-148643589D01*
X232735000Y-148916411D01*
X232788225Y-149183989D01*
X232892629Y-149436043D01*
X233044201Y-149662886D01*
X233237114Y-149855799D01*
X233463957Y-150007371D01*
X233595669Y-150061928D01*
X233250000Y-150061928D01*
X233125518Y-150074188D01*
X233005820Y-150110498D01*
X232895506Y-150169463D01*
X232798815Y-150248815D01*
X232719463Y-150345506D01*
X232660498Y-150455820D01*
X232624188Y-150575518D01*
X232611928Y-150700000D01*
X232611928Y-150840000D01*
X231587087Y-150840000D01*
X231561401Y-150579201D01*
X231482411Y-150318808D01*
X231354140Y-150078829D01*
X231181515Y-149868485D01*
X230971171Y-149695860D01*
X230731192Y-149567589D01*
X230470799Y-149488599D01*
X230200000Y-149461928D01*
X225700000Y-149461928D01*
X225429201Y-149488599D01*
X225168808Y-149567589D01*
X224928829Y-149695860D01*
X224718485Y-149868485D01*
X224545860Y-150078829D01*
X224417589Y-150318808D01*
X224338599Y-150579201D01*
X224311928Y-150850000D01*
X207586174Y-150850000D01*
X207588072Y-150100000D01*
X207575812Y-149975518D01*
X207539502Y-149855820D01*
X207480537Y-149745506D01*
X207401185Y-149648815D01*
X207304494Y-149569463D01*
X207194180Y-149510498D01*
X207074482Y-149474188D01*
X206950000Y-149461928D01*
X204235750Y-149465000D01*
X204077000Y-149623750D01*
X203823000Y-149623750D01*
X203664250Y-149465000D01*
X200950000Y-149461928D01*
X200825518Y-149474188D01*
X200705820Y-149510498D01*
X200595506Y-149569463D01*
X200498815Y-149648815D01*
X200419463Y-149745506D01*
X200360498Y-149855820D01*
X200324188Y-149975518D01*
X200311928Y-150100000D01*
X144733148Y-150100000D01*
X144725812Y-150025518D01*
X144689502Y-149905820D01*
X144630537Y-149795506D01*
X144551185Y-149698815D01*
X144454494Y-149619463D01*
X144344180Y-149560498D01*
X144224482Y-149524188D01*
X144100000Y-149511928D01*
X143535750Y-149515000D01*
X143377000Y-149673750D01*
X143123000Y-149673750D01*
X142964250Y-149515000D01*
X142400000Y-149511928D01*
X142275518Y-149524188D01*
X142155820Y-149560498D01*
X142045506Y-149619463D01*
X141948815Y-149698815D01*
X141869463Y-149795506D01*
X141810498Y-149905820D01*
X141774188Y-150025518D01*
X141761928Y-150150000D01*
X139995345Y-150150000D01*
X139995345Y-146633589D01*
X141925000Y-146633589D01*
X141925000Y-146906411D01*
X141978225Y-147173989D01*
X142082629Y-147426043D01*
X142234201Y-147652886D01*
X142427114Y-147845799D01*
X142653957Y-147997371D01*
X142906011Y-148101775D01*
X143173589Y-148155000D01*
X143446411Y-148155000D01*
X143713989Y-148101775D01*
X143966043Y-147997371D01*
X144192886Y-147845799D01*
X144385799Y-147652886D01*
X144537371Y-147426043D01*
X144641775Y-147173989D01*
X144695000Y-146906411D01*
X144695000Y-146633589D01*
X144641775Y-146366011D01*
X144624407Y-146324080D01*
X234505525Y-146324080D01*
X234589208Y-146578261D01*
X234861775Y-146709158D01*
X235154642Y-146784365D01*
X235456553Y-146800991D01*
X235755907Y-146758397D01*
X236041199Y-146658222D01*
X236190792Y-146578261D01*
X236274475Y-146324080D01*
X235390000Y-145439605D01*
X234505525Y-146324080D01*
X144624407Y-146324080D01*
X144537371Y-146113957D01*
X144385799Y-145887114D01*
X144192886Y-145694201D01*
X143966043Y-145542629D01*
X143713989Y-145438225D01*
X143446411Y-145385000D01*
X143173589Y-145385000D01*
X142906011Y-145438225D01*
X142653957Y-145542629D01*
X142427114Y-145694201D01*
X142234201Y-145887114D01*
X142082629Y-146113957D01*
X141978225Y-146366011D01*
X141925000Y-146633589D01*
X139995345Y-146633589D01*
X139995345Y-138500000D01*
X141861928Y-138500000D01*
X141861928Y-141500000D01*
X141883796Y-141722027D01*
X141948559Y-141935521D01*
X142053728Y-142132279D01*
X142195262Y-142304738D01*
X142367721Y-142446272D01*
X142564479Y-142551441D01*
X142777973Y-142616204D01*
X143000000Y-142638072D01*
X144000000Y-142638072D01*
X144222027Y-142616204D01*
X144435521Y-142551441D01*
X144632279Y-142446272D01*
X144804738Y-142304738D01*
X144946272Y-142132279D01*
X145051441Y-141935521D01*
X145116204Y-141722027D01*
X145138072Y-141500000D01*
X145138072Y-138500000D01*
X145116204Y-138277973D01*
X145051441Y-138064479D01*
X144946272Y-137867721D01*
X144804738Y-137695262D01*
X144632279Y-137553728D01*
X144435521Y-137448559D01*
X144222027Y-137383796D01*
X144000000Y-137361928D01*
X143000000Y-137361928D01*
X142777973Y-137383796D01*
X142564479Y-137448559D01*
X142367721Y-137553728D01*
X142195262Y-137695262D01*
X142053728Y-137867721D01*
X141948559Y-138064479D01*
X141883796Y-138277973D01*
X141861928Y-138500000D01*
X139995345Y-138500000D01*
X139995345Y-130708665D01*
X149215000Y-130708665D01*
X149215000Y-130991335D01*
X149270147Y-131268574D01*
X149378320Y-131529727D01*
X149535363Y-131764759D01*
X149735241Y-131964637D01*
X149970273Y-132121680D01*
X150231426Y-132229853D01*
X150508665Y-132285000D01*
X150791335Y-132285000D01*
X151068574Y-132229853D01*
X151329727Y-132121680D01*
X151564759Y-131964637D01*
X151764637Y-131764759D01*
X151921680Y-131529727D01*
X152029853Y-131268574D01*
X152085000Y-130991335D01*
X152085000Y-130708665D01*
X152029853Y-130431426D01*
X151921680Y-130170273D01*
X151764637Y-129935241D01*
X151564759Y-129735363D01*
X151329727Y-129578320D01*
X151068574Y-129470147D01*
X150791335Y-129415000D01*
X150508665Y-129415000D01*
X150231426Y-129470147D01*
X149970273Y-129578320D01*
X149735241Y-129735363D01*
X149535363Y-129935241D01*
X149378320Y-130170273D01*
X149270147Y-130431426D01*
X149215000Y-130708665D01*
X139995345Y-130708665D01*
X139995345Y-125500000D01*
X141861928Y-125500000D01*
X141861928Y-128500000D01*
X141883796Y-128722027D01*
X141948559Y-128935521D01*
X142053728Y-129132279D01*
X142195262Y-129304738D01*
X142367721Y-129446272D01*
X142564479Y-129551441D01*
X142777973Y-129616204D01*
X143000000Y-129638072D01*
X144000000Y-129638072D01*
X144222027Y-129616204D01*
X144435521Y-129551441D01*
X144632279Y-129446272D01*
X144804738Y-129304738D01*
X144946272Y-129132279D01*
X145051441Y-128935521D01*
X145116204Y-128722027D01*
X145138072Y-128500000D01*
X145138072Y-125500000D01*
X145116204Y-125277973D01*
X145051441Y-125064479D01*
X144946272Y-124867721D01*
X144838455Y-124736346D01*
X149261896Y-120312906D01*
X149215000Y-120548665D01*
X149215000Y-120831335D01*
X149270147Y-121108574D01*
X149378320Y-121369727D01*
X149535363Y-121604759D01*
X149735241Y-121804637D01*
X149970273Y-121961680D01*
X150231426Y-122069853D01*
X150508665Y-122125000D01*
X150791335Y-122125000D01*
X150973887Y-122088688D01*
X156740001Y-127854803D01*
X156740000Y-129781956D01*
X156585241Y-129885363D01*
X156385363Y-130085241D01*
X156228320Y-130320273D01*
X156120147Y-130581426D01*
X156065000Y-130858665D01*
X156065000Y-131141335D01*
X156120147Y-131418574D01*
X156228320Y-131679727D01*
X156385363Y-131914759D01*
X156585241Y-132114637D01*
X156820273Y-132271680D01*
X157081426Y-132379853D01*
X157358665Y-132435000D01*
X157641335Y-132435000D01*
X157918574Y-132379853D01*
X158179727Y-132271680D01*
X158414759Y-132114637D01*
X158614637Y-131914759D01*
X158771680Y-131679727D01*
X158879853Y-131418574D01*
X158935000Y-131141335D01*
X158935000Y-130858665D01*
X158879853Y-130581426D01*
X158771680Y-130320273D01*
X158614637Y-130085241D01*
X158414759Y-129885363D01*
X158260000Y-129781957D01*
X158260000Y-127577323D01*
X158263676Y-127540000D01*
X158260000Y-127502677D01*
X158260000Y-127502667D01*
X158249003Y-127391014D01*
X158205546Y-127247753D01*
X158154383Y-127152035D01*
X158134974Y-127115723D01*
X158063799Y-127028997D01*
X158040001Y-126999999D01*
X158011003Y-126976201D01*
X152048688Y-121013887D01*
X152085000Y-120831335D01*
X152085000Y-120698665D01*
X156065000Y-120698665D01*
X156065000Y-120981335D01*
X156120147Y-121258574D01*
X156228320Y-121519727D01*
X156385363Y-121754759D01*
X156585241Y-121954637D01*
X156820273Y-122111680D01*
X157081426Y-122219853D01*
X157358665Y-122275000D01*
X157641335Y-122275000D01*
X157823887Y-122238688D01*
X161740001Y-126154803D01*
X161740000Y-129781956D01*
X161585241Y-129885363D01*
X161385363Y-130085241D01*
X161228320Y-130320273D01*
X161120147Y-130581426D01*
X161065000Y-130858665D01*
X161065000Y-131141335D01*
X161120147Y-131418574D01*
X161228320Y-131679727D01*
X161385363Y-131914759D01*
X161585241Y-132114637D01*
X161820273Y-132271680D01*
X162081426Y-132379853D01*
X162358665Y-132435000D01*
X162641335Y-132435000D01*
X162918574Y-132379853D01*
X163179727Y-132271680D01*
X163414759Y-132114637D01*
X163614637Y-131914759D01*
X163771680Y-131679727D01*
X163879853Y-131418574D01*
X163935000Y-131141335D01*
X163935000Y-130858665D01*
X163879853Y-130581426D01*
X163771680Y-130320273D01*
X163614637Y-130085241D01*
X163414759Y-129885363D01*
X163260000Y-129781957D01*
X163260000Y-125877323D01*
X163263676Y-125840000D01*
X163260000Y-125802677D01*
X163260000Y-125802667D01*
X163249003Y-125691014D01*
X163205546Y-125547753D01*
X163134974Y-125415724D01*
X163040001Y-125299999D01*
X163011003Y-125276201D01*
X158898688Y-121163887D01*
X158935000Y-120981335D01*
X158935000Y-120698665D01*
X161065000Y-120698665D01*
X161065000Y-120981335D01*
X161120147Y-121258574D01*
X161228320Y-121519727D01*
X161385363Y-121754759D01*
X161585241Y-121954637D01*
X161820273Y-122111680D01*
X162081426Y-122219853D01*
X162358665Y-122275000D01*
X162641335Y-122275000D01*
X162823887Y-122238688D01*
X167240001Y-126654803D01*
X167240000Y-129781956D01*
X167085241Y-129885363D01*
X166885363Y-130085241D01*
X166728320Y-130320273D01*
X166620147Y-130581426D01*
X166565000Y-130858665D01*
X166565000Y-131141335D01*
X166620147Y-131418574D01*
X166728320Y-131679727D01*
X166885363Y-131914759D01*
X167085241Y-132114637D01*
X167320273Y-132271680D01*
X167581426Y-132379853D01*
X167858665Y-132435000D01*
X168141335Y-132435000D01*
X168418574Y-132379853D01*
X168679727Y-132271680D01*
X168914759Y-132114637D01*
X169114637Y-131914759D01*
X169271680Y-131679727D01*
X169379853Y-131418574D01*
X169435000Y-131141335D01*
X169435000Y-130858665D01*
X169379853Y-130581426D01*
X169271680Y-130320273D01*
X169114637Y-130085241D01*
X168914759Y-129885363D01*
X168760000Y-129781957D01*
X168760000Y-126377333D01*
X168763677Y-126340000D01*
X168749003Y-126191014D01*
X168705546Y-126047753D01*
X168634974Y-125915724D01*
X168563799Y-125828997D01*
X168540001Y-125799999D01*
X168511003Y-125776201D01*
X163898688Y-121163887D01*
X163935000Y-120981335D01*
X163935000Y-120698665D01*
X166565000Y-120698665D01*
X166565000Y-120981335D01*
X166620147Y-121258574D01*
X166728320Y-121519727D01*
X166885363Y-121754759D01*
X167085241Y-121954637D01*
X167320273Y-122111680D01*
X167581426Y-122219853D01*
X167858665Y-122275000D01*
X168141335Y-122275000D01*
X168323887Y-122238688D01*
X174240001Y-128154803D01*
X174240000Y-129781956D01*
X174085241Y-129885363D01*
X173885363Y-130085241D01*
X173728320Y-130320273D01*
X173620147Y-130581426D01*
X173565000Y-130858665D01*
X173565000Y-131141335D01*
X173620147Y-131418574D01*
X173728320Y-131679727D01*
X173885363Y-131914759D01*
X174085241Y-132114637D01*
X174320273Y-132271680D01*
X174581426Y-132379853D01*
X174858665Y-132435000D01*
X175141335Y-132435000D01*
X175418574Y-132379853D01*
X175679727Y-132271680D01*
X175914759Y-132114637D01*
X176114637Y-131914759D01*
X176271680Y-131679727D01*
X176379853Y-131418574D01*
X176435000Y-131141335D01*
X176435000Y-130858665D01*
X176379853Y-130581426D01*
X176271680Y-130320273D01*
X176114637Y-130085241D01*
X175914759Y-129885363D01*
X175760000Y-129781957D01*
X175760000Y-127877323D01*
X175763676Y-127840000D01*
X175760000Y-127802677D01*
X175760000Y-127802667D01*
X175749003Y-127691014D01*
X175705546Y-127547753D01*
X175672343Y-127485635D01*
X175634974Y-127415723D01*
X175563799Y-127328997D01*
X175540001Y-127299999D01*
X175511003Y-127276201D01*
X169398688Y-121163887D01*
X169435000Y-120981335D01*
X169435000Y-120698665D01*
X173565000Y-120698665D01*
X173565000Y-120981335D01*
X173620147Y-121258574D01*
X173728320Y-121519727D01*
X173885363Y-121754759D01*
X174085241Y-121954637D01*
X174320273Y-122111680D01*
X174581426Y-122219853D01*
X174858665Y-122275000D01*
X175141335Y-122275000D01*
X175323887Y-122238688D01*
X181740001Y-128654803D01*
X181740000Y-129781956D01*
X181585241Y-129885363D01*
X181385363Y-130085241D01*
X181228320Y-130320273D01*
X181120147Y-130581426D01*
X181065000Y-130858665D01*
X181065000Y-131141335D01*
X181120147Y-131418574D01*
X181228320Y-131679727D01*
X181385363Y-131914759D01*
X181585241Y-132114637D01*
X181820273Y-132271680D01*
X182081426Y-132379853D01*
X182358665Y-132435000D01*
X182641335Y-132435000D01*
X182918574Y-132379853D01*
X183179727Y-132271680D01*
X183414759Y-132114637D01*
X183614637Y-131914759D01*
X183771680Y-131679727D01*
X183879853Y-131418574D01*
X183935000Y-131141335D01*
X183935000Y-130858665D01*
X183879853Y-130581426D01*
X183771680Y-130320273D01*
X183614637Y-130085241D01*
X183414759Y-129885363D01*
X183260000Y-129781957D01*
X183260000Y-128377325D01*
X183263676Y-128340000D01*
X183260000Y-128302675D01*
X183260000Y-128302667D01*
X183249003Y-128191014D01*
X183205546Y-128047753D01*
X183134974Y-127915724D01*
X183040001Y-127799999D01*
X183011003Y-127776201D01*
X176398688Y-121163887D01*
X176435000Y-120981335D01*
X176435000Y-120698665D01*
X181065000Y-120698665D01*
X181065000Y-120981335D01*
X181120147Y-121258574D01*
X181228320Y-121519727D01*
X181385363Y-121754759D01*
X181585241Y-121954637D01*
X181820273Y-122111680D01*
X182081426Y-122219853D01*
X182358665Y-122275000D01*
X182641335Y-122275000D01*
X182823887Y-122238688D01*
X188740001Y-128154803D01*
X188740000Y-129781956D01*
X188585241Y-129885363D01*
X188385363Y-130085241D01*
X188228320Y-130320273D01*
X188120147Y-130581426D01*
X188065000Y-130858665D01*
X188065000Y-131141335D01*
X188120147Y-131418574D01*
X188228320Y-131679727D01*
X188385363Y-131914759D01*
X188585241Y-132114637D01*
X188820273Y-132271680D01*
X189081426Y-132379853D01*
X189358665Y-132435000D01*
X189641335Y-132435000D01*
X189918574Y-132379853D01*
X190179727Y-132271680D01*
X190414759Y-132114637D01*
X190614637Y-131914759D01*
X190771680Y-131679727D01*
X190879853Y-131418574D01*
X190935000Y-131141335D01*
X190935000Y-130858665D01*
X190879853Y-130581426D01*
X190771680Y-130320273D01*
X190614637Y-130085241D01*
X190414759Y-129885363D01*
X190260000Y-129781957D01*
X190260000Y-127877323D01*
X190263676Y-127840000D01*
X190260000Y-127802677D01*
X190260000Y-127802667D01*
X190249003Y-127691014D01*
X190205546Y-127547753D01*
X190172343Y-127485635D01*
X190134974Y-127415723D01*
X190063799Y-127328997D01*
X190040001Y-127299999D01*
X190011003Y-127276201D01*
X183898688Y-121163887D01*
X183935000Y-120981335D01*
X183935000Y-120698665D01*
X188065000Y-120698665D01*
X188065000Y-120981335D01*
X188120147Y-121258574D01*
X188228320Y-121519727D01*
X188385363Y-121754759D01*
X188585241Y-121954637D01*
X188820273Y-122111680D01*
X189081426Y-122219853D01*
X189358665Y-122275000D01*
X189641335Y-122275000D01*
X189823887Y-122238688D01*
X193740001Y-126154803D01*
X193740000Y-129781956D01*
X193585241Y-129885363D01*
X193385363Y-130085241D01*
X193228320Y-130320273D01*
X193120147Y-130581426D01*
X193065000Y-130858665D01*
X193065000Y-131141335D01*
X193120147Y-131418574D01*
X193228320Y-131679727D01*
X193385363Y-131914759D01*
X193585241Y-132114637D01*
X193820273Y-132271680D01*
X194081426Y-132379853D01*
X194358665Y-132435000D01*
X194641335Y-132435000D01*
X194918574Y-132379853D01*
X195179727Y-132271680D01*
X195414759Y-132114637D01*
X195614637Y-131914759D01*
X195771680Y-131679727D01*
X195879853Y-131418574D01*
X195935000Y-131141335D01*
X195935000Y-130858665D01*
X195879853Y-130581426D01*
X195771680Y-130320273D01*
X195614637Y-130085241D01*
X195414759Y-129885363D01*
X195260000Y-129781957D01*
X195260000Y-125877323D01*
X195263676Y-125840000D01*
X195260000Y-125802677D01*
X195260000Y-125802667D01*
X195249003Y-125691014D01*
X195205546Y-125547753D01*
X195134974Y-125415724D01*
X195040001Y-125299999D01*
X195011003Y-125276201D01*
X190898688Y-121163887D01*
X190935000Y-120981335D01*
X190935000Y-120698665D01*
X193065000Y-120698665D01*
X193065000Y-120981335D01*
X193120147Y-121258574D01*
X193228320Y-121519727D01*
X193385363Y-121754759D01*
X193585241Y-121954637D01*
X193820273Y-122111680D01*
X194081426Y-122219853D01*
X194358665Y-122275000D01*
X194641335Y-122275000D01*
X194823887Y-122238688D01*
X199240001Y-126654803D01*
X199240000Y-129781956D01*
X199085241Y-129885363D01*
X198885363Y-130085241D01*
X198728320Y-130320273D01*
X198620147Y-130581426D01*
X198565000Y-130858665D01*
X198565000Y-131141335D01*
X198620147Y-131418574D01*
X198728320Y-131679727D01*
X198885363Y-131914759D01*
X199085241Y-132114637D01*
X199320273Y-132271680D01*
X199581426Y-132379853D01*
X199858665Y-132435000D01*
X200141335Y-132435000D01*
X200418574Y-132379853D01*
X200679727Y-132271680D01*
X200914759Y-132114637D01*
X201114637Y-131914759D01*
X201271680Y-131679727D01*
X201379853Y-131418574D01*
X201435000Y-131141335D01*
X201435000Y-130858665D01*
X201379853Y-130581426D01*
X201271680Y-130320273D01*
X201114637Y-130085241D01*
X200914759Y-129885363D01*
X200760000Y-129781957D01*
X200760000Y-126377333D01*
X200763677Y-126340000D01*
X200749003Y-126191014D01*
X200705546Y-126047753D01*
X200634974Y-125915724D01*
X200563799Y-125828997D01*
X200540001Y-125799999D01*
X200511003Y-125776201D01*
X195898688Y-121163887D01*
X195935000Y-120981335D01*
X195935000Y-120698665D01*
X198565000Y-120698665D01*
X198565000Y-120981335D01*
X198620147Y-121258574D01*
X198728320Y-121519727D01*
X198885363Y-121754759D01*
X199085241Y-121954637D01*
X199320273Y-122111680D01*
X199581426Y-122219853D01*
X199858665Y-122275000D01*
X200141335Y-122275000D01*
X200323887Y-122238688D01*
X204490001Y-126404803D01*
X204490000Y-129781956D01*
X204335241Y-129885363D01*
X204135363Y-130085241D01*
X203978320Y-130320273D01*
X203870147Y-130581426D01*
X203815000Y-130858665D01*
X203815000Y-131141335D01*
X203870147Y-131418574D01*
X203978320Y-131679727D01*
X204135363Y-131914759D01*
X204335241Y-132114637D01*
X204570273Y-132271680D01*
X204831426Y-132379853D01*
X205108665Y-132435000D01*
X205391335Y-132435000D01*
X205668574Y-132379853D01*
X205929727Y-132271680D01*
X206164759Y-132114637D01*
X206364637Y-131914759D01*
X206521680Y-131679727D01*
X206629853Y-131418574D01*
X206685000Y-131141335D01*
X206685000Y-130858665D01*
X206629853Y-130581426D01*
X206521680Y-130320273D01*
X206364637Y-130085241D01*
X206164759Y-129885363D01*
X206010000Y-129781957D01*
X206010000Y-126127322D01*
X206013676Y-126089999D01*
X206010000Y-126052676D01*
X206010000Y-126052667D01*
X205999003Y-125941014D01*
X205955546Y-125797753D01*
X205884974Y-125665724D01*
X205790001Y-125549999D01*
X205761003Y-125526201D01*
X201398688Y-121163887D01*
X201435000Y-120981335D01*
X201435000Y-120698665D01*
X203815000Y-120698665D01*
X203815000Y-120981335D01*
X203870147Y-121258574D01*
X203978320Y-121519727D01*
X204135363Y-121754759D01*
X204335241Y-121954637D01*
X204570273Y-122111680D01*
X204831426Y-122219853D01*
X205108665Y-122275000D01*
X205391335Y-122275000D01*
X205573887Y-122238688D01*
X209740001Y-126404803D01*
X209740000Y-129681956D01*
X209585241Y-129785363D01*
X209385363Y-129985241D01*
X209228320Y-130220273D01*
X209120147Y-130481426D01*
X209065000Y-130758665D01*
X209065000Y-131041335D01*
X209120147Y-131318574D01*
X209228320Y-131579727D01*
X209385363Y-131814759D01*
X209585241Y-132014637D01*
X209820273Y-132171680D01*
X210081426Y-132279853D01*
X210358665Y-132335000D01*
X210641335Y-132335000D01*
X210918574Y-132279853D01*
X211179727Y-132171680D01*
X211414759Y-132014637D01*
X211614637Y-131814759D01*
X211771680Y-131579727D01*
X211879853Y-131318574D01*
X211935000Y-131041335D01*
X211935000Y-130758665D01*
X211879853Y-130481426D01*
X211771680Y-130220273D01*
X211614637Y-129985241D01*
X211414759Y-129785363D01*
X211260000Y-129681957D01*
X211260000Y-126127322D01*
X211263676Y-126089999D01*
X211260000Y-126052676D01*
X211260000Y-126052667D01*
X211249003Y-125941014D01*
X211205546Y-125797753D01*
X211134974Y-125665724D01*
X211040001Y-125549999D01*
X211011003Y-125526201D01*
X206648688Y-121163887D01*
X206685000Y-120981335D01*
X206685000Y-120698665D01*
X206665109Y-120598665D01*
X209065000Y-120598665D01*
X209065000Y-120881335D01*
X209120147Y-121158574D01*
X209228320Y-121419727D01*
X209385363Y-121654759D01*
X209585241Y-121854637D01*
X209820273Y-122011680D01*
X210081426Y-122119853D01*
X210358665Y-122175000D01*
X210641335Y-122175000D01*
X210823887Y-122138688D01*
X216640001Y-127954803D01*
X216640000Y-129681956D01*
X216485241Y-129785363D01*
X216285363Y-129985241D01*
X216128320Y-130220273D01*
X216020147Y-130481426D01*
X215965000Y-130758665D01*
X215965000Y-131041335D01*
X216020147Y-131318574D01*
X216128320Y-131579727D01*
X216285363Y-131814759D01*
X216485241Y-132014637D01*
X216720273Y-132171680D01*
X216981426Y-132279853D01*
X217258665Y-132335000D01*
X217541335Y-132335000D01*
X217818574Y-132279853D01*
X218079727Y-132171680D01*
X218314759Y-132014637D01*
X218514637Y-131814759D01*
X218671680Y-131579727D01*
X218779853Y-131318574D01*
X218835000Y-131041335D01*
X218835000Y-130758665D01*
X218779853Y-130481426D01*
X218671680Y-130220273D01*
X218514637Y-129985241D01*
X218314759Y-129785363D01*
X218160000Y-129681957D01*
X218160000Y-127677333D01*
X218163677Y-127640000D01*
X218149003Y-127491014D01*
X218105546Y-127347753D01*
X218034974Y-127215724D01*
X217963799Y-127128997D01*
X217940001Y-127099999D01*
X217911003Y-127076201D01*
X211898688Y-121063887D01*
X211935000Y-120881335D01*
X211935000Y-120598665D01*
X215965000Y-120598665D01*
X215965000Y-120881335D01*
X216020147Y-121158574D01*
X216128320Y-121419727D01*
X216285363Y-121654759D01*
X216485241Y-121854637D01*
X216645203Y-121961520D01*
X216650144Y-122011680D01*
X216650998Y-122020355D01*
X216694454Y-122163616D01*
X216765026Y-122295646D01*
X216836201Y-122382372D01*
X216860000Y-122411371D01*
X216888998Y-122435169D01*
X220714831Y-126261003D01*
X220738629Y-126290001D01*
X220767627Y-126313799D01*
X220854353Y-126384974D01*
X220966653Y-126445000D01*
X220986383Y-126455546D01*
X221098391Y-126489523D01*
X220973501Y-126514365D01*
X220645012Y-126650429D01*
X220349379Y-126847965D01*
X220097965Y-127099379D01*
X219900429Y-127395012D01*
X219764365Y-127723501D01*
X219695000Y-128072223D01*
X219695000Y-128427777D01*
X219764365Y-128776499D01*
X219900429Y-129104988D01*
X220097965Y-129400621D01*
X220349379Y-129652035D01*
X220645012Y-129849571D01*
X220973501Y-129985635D01*
X221322223Y-130055000D01*
X221677777Y-130055000D01*
X222026499Y-129985635D01*
X222354988Y-129849571D01*
X222650621Y-129652035D01*
X222902035Y-129400621D01*
X223099571Y-129104988D01*
X223235635Y-128776499D01*
X223305000Y-128427777D01*
X223305000Y-128072223D01*
X223235635Y-127723501D01*
X223099571Y-127395012D01*
X222902035Y-127099379D01*
X222650621Y-126847965D01*
X222354988Y-126650429D01*
X222026499Y-126514365D01*
X222004555Y-126510000D01*
X229861084Y-126510000D01*
X229900429Y-126604988D01*
X230097965Y-126900621D01*
X230349379Y-127152035D01*
X230645012Y-127349571D01*
X230973501Y-127485635D01*
X231322223Y-127555000D01*
X231677777Y-127555000D01*
X232026499Y-127485635D01*
X232354988Y-127349571D01*
X232449999Y-127286086D01*
X232450000Y-140892666D01*
X232446323Y-140929999D01*
X232460997Y-141078984D01*
X232504453Y-141222245D01*
X232575025Y-141354275D01*
X232646200Y-141441001D01*
X232669999Y-141470000D01*
X232698997Y-141493798D01*
X233851928Y-142646730D01*
X233851928Y-143620000D01*
X233864188Y-143744482D01*
X233900498Y-143864180D01*
X233959463Y-143974494D01*
X234038815Y-144071185D01*
X234135506Y-144150537D01*
X234245820Y-144209502D01*
X234256735Y-144212813D01*
X234209970Y-144259578D01*
X234325918Y-144375526D01*
X234071739Y-144459208D01*
X233940842Y-144731775D01*
X233865635Y-145024642D01*
X233849009Y-145326553D01*
X233891603Y-145625907D01*
X233991778Y-145911199D01*
X234071739Y-146060792D01*
X234325920Y-146144475D01*
X235210395Y-145260000D01*
X235196253Y-145245858D01*
X235375858Y-145066253D01*
X235390000Y-145080395D01*
X235404143Y-145066253D01*
X235583748Y-145245858D01*
X235569605Y-145260000D01*
X236454080Y-146144475D01*
X236708261Y-146060792D01*
X236839158Y-145788225D01*
X236914365Y-145495358D01*
X236930991Y-145193447D01*
X236888397Y-144894093D01*
X236788222Y-144608801D01*
X236708261Y-144459208D01*
X236454082Y-144375526D01*
X236570030Y-144259578D01*
X236523265Y-144212813D01*
X236534180Y-144209502D01*
X236644494Y-144150537D01*
X236741185Y-144071185D01*
X236820537Y-143974494D01*
X236879502Y-143864180D01*
X236915812Y-143744482D01*
X236928072Y-143620000D01*
X236928072Y-141820000D01*
X236915812Y-141695518D01*
X236879502Y-141575820D01*
X236820537Y-141465506D01*
X236741185Y-141368815D01*
X236644494Y-141289463D01*
X236534180Y-141230498D01*
X236414482Y-141194188D01*
X236290000Y-141181928D01*
X234536729Y-141181928D01*
X233969999Y-140615198D01*
X233969999Y-139108665D01*
X234065000Y-139108665D01*
X234065000Y-139391335D01*
X234120147Y-139668574D01*
X234228320Y-139929727D01*
X234385363Y-140164759D01*
X234585241Y-140364637D01*
X234820273Y-140521680D01*
X235081426Y-140629853D01*
X235358665Y-140685000D01*
X235641335Y-140685000D01*
X235918574Y-140629853D01*
X236179727Y-140521680D01*
X236414759Y-140364637D01*
X236614637Y-140164759D01*
X236771680Y-139929727D01*
X236879853Y-139668574D01*
X236935000Y-139391335D01*
X236935000Y-139108665D01*
X236879853Y-138831426D01*
X236771680Y-138570273D01*
X236614637Y-138335241D01*
X236414759Y-138135363D01*
X236179727Y-137978320D01*
X235918574Y-137870147D01*
X235641335Y-137815000D01*
X235358665Y-137815000D01*
X235081426Y-137870147D01*
X234820273Y-137978320D01*
X234585241Y-138135363D01*
X234385363Y-138335241D01*
X234228320Y-138570273D01*
X234120147Y-138831426D01*
X234065000Y-139108665D01*
X233969999Y-139108665D01*
X233969999Y-134108665D01*
X234065000Y-134108665D01*
X234065000Y-134391335D01*
X234120147Y-134668574D01*
X234228320Y-134929727D01*
X234385363Y-135164759D01*
X234585241Y-135364637D01*
X234820273Y-135521680D01*
X235081426Y-135629853D01*
X235358665Y-135685000D01*
X235641335Y-135685000D01*
X235918574Y-135629853D01*
X236179727Y-135521680D01*
X236414759Y-135364637D01*
X236614637Y-135164759D01*
X236771680Y-134929727D01*
X236879853Y-134668574D01*
X236935000Y-134391335D01*
X236935000Y-134108665D01*
X236879853Y-133831426D01*
X236771680Y-133570273D01*
X236614637Y-133335241D01*
X236414759Y-133135363D01*
X236179727Y-132978320D01*
X235918574Y-132870147D01*
X235641335Y-132815000D01*
X235358665Y-132815000D01*
X235081426Y-132870147D01*
X234820273Y-132978320D01*
X234585241Y-133135363D01*
X234385363Y-133335241D01*
X234228320Y-133570273D01*
X234120147Y-133831426D01*
X234065000Y-134108665D01*
X233969999Y-134108665D01*
X233969999Y-130858665D01*
X234065000Y-130858665D01*
X234065000Y-131141335D01*
X234120147Y-131418574D01*
X234228320Y-131679727D01*
X234385363Y-131914759D01*
X234585241Y-132114637D01*
X234820273Y-132271680D01*
X235081426Y-132379853D01*
X235358665Y-132435000D01*
X235641335Y-132435000D01*
X235918574Y-132379853D01*
X236179727Y-132271680D01*
X236414759Y-132114637D01*
X236614637Y-131914759D01*
X236771680Y-131679727D01*
X236879853Y-131418574D01*
X236935000Y-131141335D01*
X236935000Y-130858665D01*
X236879853Y-130581426D01*
X236771680Y-130320273D01*
X236614637Y-130085241D01*
X236414759Y-129885363D01*
X236179727Y-129728320D01*
X235918574Y-129620147D01*
X235641335Y-129565000D01*
X235358665Y-129565000D01*
X235081426Y-129620147D01*
X234820273Y-129728320D01*
X234585241Y-129885363D01*
X234385363Y-130085241D01*
X234228320Y-130320273D01*
X234120147Y-130581426D01*
X234065000Y-130858665D01*
X233969999Y-130858665D01*
X233969999Y-120698665D01*
X234065000Y-120698665D01*
X234065000Y-120981335D01*
X234120147Y-121258574D01*
X234228320Y-121519727D01*
X234385363Y-121754759D01*
X234585241Y-121954637D01*
X234820273Y-122111680D01*
X235081426Y-122219853D01*
X235358665Y-122275000D01*
X235641335Y-122275000D01*
X235918574Y-122219853D01*
X236179727Y-122111680D01*
X236414759Y-121954637D01*
X236614637Y-121754759D01*
X236771680Y-121519727D01*
X236879853Y-121258574D01*
X236935000Y-120981335D01*
X236935000Y-120698665D01*
X236879853Y-120421426D01*
X236771680Y-120160273D01*
X236614637Y-119925241D01*
X236414759Y-119725363D01*
X236179727Y-119568320D01*
X235918574Y-119460147D01*
X235641335Y-119405000D01*
X235358665Y-119405000D01*
X235081426Y-119460147D01*
X234820273Y-119568320D01*
X234585241Y-119725363D01*
X234385363Y-119925241D01*
X234228320Y-120160273D01*
X234120147Y-120421426D01*
X234065000Y-120698665D01*
X233969999Y-120698665D01*
X233969999Y-115337321D01*
X233973675Y-115299998D01*
X233969999Y-115262675D01*
X233969999Y-115262666D01*
X233959002Y-115151013D01*
X233915545Y-115007752D01*
X233844973Y-114875723D01*
X233824296Y-114850528D01*
X233807467Y-114830022D01*
X233845000Y-114641335D01*
X233845000Y-114358665D01*
X233789853Y-114081426D01*
X233681680Y-113820273D01*
X233524637Y-113585241D01*
X233324759Y-113385363D01*
X233089727Y-113228320D01*
X232828574Y-113120147D01*
X232551335Y-113065000D01*
X232268665Y-113065000D01*
X231991426Y-113120147D01*
X231730273Y-113228320D01*
X231495241Y-113385363D01*
X231295363Y-113585241D01*
X231138320Y-113820273D01*
X231030147Y-114081426D01*
X230975000Y-114358665D01*
X230975000Y-114641335D01*
X231030147Y-114918574D01*
X231138320Y-115179727D01*
X231295363Y-115414759D01*
X231495241Y-115614637D01*
X231730273Y-115771680D01*
X231991426Y-115879853D01*
X232268665Y-115935000D01*
X232449999Y-115935000D01*
X232449999Y-124213914D01*
X232354988Y-124150429D01*
X232026499Y-124014365D01*
X231677777Y-123945000D01*
X231322223Y-123945000D01*
X230973501Y-124014365D01*
X230645012Y-124150429D01*
X230349379Y-124347965D01*
X230097965Y-124599379D01*
X229900429Y-124895012D01*
X229861084Y-124990000D01*
X222004555Y-124990000D01*
X222026499Y-124985635D01*
X222354988Y-124849571D01*
X222650621Y-124652035D01*
X222902035Y-124400621D01*
X223099571Y-124104988D01*
X223235635Y-123776499D01*
X223305000Y-123427777D01*
X223305000Y-123072223D01*
X223235635Y-122723501D01*
X223099571Y-122395012D01*
X222902035Y-122099379D01*
X222650621Y-121847965D01*
X222354988Y-121650429D01*
X222026499Y-121514365D01*
X221677777Y-121445000D01*
X221322223Y-121445000D01*
X220973501Y-121514365D01*
X220645012Y-121650429D01*
X220349379Y-121847965D01*
X220097965Y-122099379D01*
X219900429Y-122395012D01*
X219764365Y-122723501D01*
X219695000Y-123072223D01*
X219695000Y-123091569D01*
X218386414Y-121782982D01*
X218514637Y-121654759D01*
X218671680Y-121419727D01*
X218779853Y-121158574D01*
X218835000Y-120881335D01*
X218835000Y-120598665D01*
X218779853Y-120321426D01*
X218671680Y-120060273D01*
X218514637Y-119825241D01*
X218314759Y-119625363D01*
X218079727Y-119468320D01*
X217818574Y-119360147D01*
X217541335Y-119305000D01*
X217258665Y-119305000D01*
X216981426Y-119360147D01*
X216720273Y-119468320D01*
X216485241Y-119625363D01*
X216285363Y-119825241D01*
X216128320Y-120060273D01*
X216020147Y-120321426D01*
X215965000Y-120598665D01*
X211935000Y-120598665D01*
X211879853Y-120321426D01*
X211771680Y-120060273D01*
X211614637Y-119825241D01*
X211414759Y-119625363D01*
X211179727Y-119468320D01*
X210918574Y-119360147D01*
X210641335Y-119305000D01*
X210358665Y-119305000D01*
X210081426Y-119360147D01*
X209820273Y-119468320D01*
X209585241Y-119625363D01*
X209385363Y-119825241D01*
X209228320Y-120060273D01*
X209120147Y-120321426D01*
X209065000Y-120598665D01*
X206665109Y-120598665D01*
X206629853Y-120421426D01*
X206521680Y-120160273D01*
X206364637Y-119925241D01*
X206164759Y-119725363D01*
X205929727Y-119568320D01*
X205668574Y-119460147D01*
X205391335Y-119405000D01*
X205108665Y-119405000D01*
X204831426Y-119460147D01*
X204570273Y-119568320D01*
X204335241Y-119725363D01*
X204135363Y-119925241D01*
X203978320Y-120160273D01*
X203870147Y-120421426D01*
X203815000Y-120698665D01*
X201435000Y-120698665D01*
X201379853Y-120421426D01*
X201271680Y-120160273D01*
X201114637Y-119925241D01*
X200914759Y-119725363D01*
X200679727Y-119568320D01*
X200418574Y-119460147D01*
X200141335Y-119405000D01*
X199858665Y-119405000D01*
X199581426Y-119460147D01*
X199320273Y-119568320D01*
X199085241Y-119725363D01*
X198885363Y-119925241D01*
X198728320Y-120160273D01*
X198620147Y-120421426D01*
X198565000Y-120698665D01*
X195935000Y-120698665D01*
X195879853Y-120421426D01*
X195771680Y-120160273D01*
X195614637Y-119925241D01*
X195414759Y-119725363D01*
X195179727Y-119568320D01*
X194918574Y-119460147D01*
X194641335Y-119405000D01*
X194358665Y-119405000D01*
X194081426Y-119460147D01*
X193820273Y-119568320D01*
X193585241Y-119725363D01*
X193385363Y-119925241D01*
X193228320Y-120160273D01*
X193120147Y-120421426D01*
X193065000Y-120698665D01*
X190935000Y-120698665D01*
X190879853Y-120421426D01*
X190771680Y-120160273D01*
X190614637Y-119925241D01*
X190414759Y-119725363D01*
X190179727Y-119568320D01*
X189918574Y-119460147D01*
X189641335Y-119405000D01*
X189358665Y-119405000D01*
X189081426Y-119460147D01*
X188820273Y-119568320D01*
X188585241Y-119725363D01*
X188385363Y-119925241D01*
X188228320Y-120160273D01*
X188120147Y-120421426D01*
X188065000Y-120698665D01*
X183935000Y-120698665D01*
X183879853Y-120421426D01*
X183771680Y-120160273D01*
X183614637Y-119925241D01*
X183414759Y-119725363D01*
X183179727Y-119568320D01*
X182918574Y-119460147D01*
X182641335Y-119405000D01*
X182358665Y-119405000D01*
X182081426Y-119460147D01*
X181820273Y-119568320D01*
X181585241Y-119725363D01*
X181385363Y-119925241D01*
X181228320Y-120160273D01*
X181120147Y-120421426D01*
X181065000Y-120698665D01*
X176435000Y-120698665D01*
X176379853Y-120421426D01*
X176271680Y-120160273D01*
X176114637Y-119925241D01*
X175914759Y-119725363D01*
X175679727Y-119568320D01*
X175418574Y-119460147D01*
X175141335Y-119405000D01*
X174858665Y-119405000D01*
X174581426Y-119460147D01*
X174320273Y-119568320D01*
X174085241Y-119725363D01*
X173885363Y-119925241D01*
X173728320Y-120160273D01*
X173620147Y-120421426D01*
X173565000Y-120698665D01*
X169435000Y-120698665D01*
X169379853Y-120421426D01*
X169271680Y-120160273D01*
X169114637Y-119925241D01*
X168914759Y-119725363D01*
X168679727Y-119568320D01*
X168418574Y-119460147D01*
X168141335Y-119405000D01*
X167858665Y-119405000D01*
X167581426Y-119460147D01*
X167320273Y-119568320D01*
X167085241Y-119725363D01*
X166885363Y-119925241D01*
X166728320Y-120160273D01*
X166620147Y-120421426D01*
X166565000Y-120698665D01*
X163935000Y-120698665D01*
X163879853Y-120421426D01*
X163771680Y-120160273D01*
X163614637Y-119925241D01*
X163414759Y-119725363D01*
X163179727Y-119568320D01*
X162918574Y-119460147D01*
X162641335Y-119405000D01*
X162358665Y-119405000D01*
X162081426Y-119460147D01*
X161820273Y-119568320D01*
X161585241Y-119725363D01*
X161385363Y-119925241D01*
X161228320Y-120160273D01*
X161120147Y-120421426D01*
X161065000Y-120698665D01*
X158935000Y-120698665D01*
X158879853Y-120421426D01*
X158771680Y-120160273D01*
X158614637Y-119925241D01*
X158414759Y-119725363D01*
X158179727Y-119568320D01*
X157918574Y-119460147D01*
X157641335Y-119405000D01*
X157358665Y-119405000D01*
X157081426Y-119460147D01*
X156820273Y-119568320D01*
X156585241Y-119725363D01*
X156385363Y-119925241D01*
X156228320Y-120160273D01*
X156120147Y-120421426D01*
X156065000Y-120698665D01*
X152085000Y-120698665D01*
X152085000Y-120548665D01*
X152029853Y-120271426D01*
X151921680Y-120010273D01*
X151764637Y-119775241D01*
X151564759Y-119575363D01*
X151329727Y-119418320D01*
X151068574Y-119310147D01*
X150816471Y-119260000D01*
X155462678Y-119260000D01*
X155500000Y-119263676D01*
X155537322Y-119260000D01*
X155537333Y-119260000D01*
X155648986Y-119249003D01*
X155792247Y-119205546D01*
X155924276Y-119134974D01*
X156040001Y-119040001D01*
X156063804Y-119010997D01*
X158279155Y-116795647D01*
X158415582Y-116868569D01*
X158586868Y-116920528D01*
X158765000Y-116938072D01*
X159315000Y-116938072D01*
X159493132Y-116920528D01*
X159664418Y-116868569D01*
X159822276Y-116784192D01*
X159960639Y-116670639D01*
X160074192Y-116532276D01*
X160158569Y-116374418D01*
X160210528Y-116203132D01*
X160228072Y-116025000D01*
X160228072Y-115914330D01*
X161449746Y-117136004D01*
X161473544Y-117165002D01*
X161589269Y-117259975D01*
X161721298Y-117330547D01*
X161864559Y-117374004D01*
X161976212Y-117385001D01*
X161976220Y-117385001D01*
X162013545Y-117388677D01*
X162050870Y-117385001D01*
X165877677Y-117385001D01*
X165914999Y-117388677D01*
X165952321Y-117385001D01*
X165952332Y-117385001D01*
X166063985Y-117374004D01*
X166207246Y-117330547D01*
X166339275Y-117259975D01*
X166455000Y-117165002D01*
X166478802Y-117135999D01*
X166805221Y-116809580D01*
X166915582Y-116868569D01*
X167086868Y-116920528D01*
X167265000Y-116938072D01*
X167815000Y-116938072D01*
X167993132Y-116920528D01*
X168164418Y-116868569D01*
X168322276Y-116784192D01*
X168460639Y-116670639D01*
X168574192Y-116532276D01*
X168658569Y-116374418D01*
X168710528Y-116203132D01*
X168728072Y-116025000D01*
X168728072Y-114775000D01*
X168710528Y-114596868D01*
X168658569Y-114425582D01*
X168574192Y-114267724D01*
X168460639Y-114129361D01*
X168322276Y-114015808D01*
X168164418Y-113931431D01*
X167993132Y-113879472D01*
X167815000Y-113861928D01*
X167458072Y-113861928D01*
X167458072Y-112864990D01*
X171790189Y-112864990D01*
X173811928Y-114886731D01*
X173811928Y-116300000D01*
X173824188Y-116424482D01*
X173860498Y-116544180D01*
X173919463Y-116654494D01*
X173998815Y-116751185D01*
X174095506Y-116830537D01*
X174205820Y-116889502D01*
X174325518Y-116925812D01*
X174450000Y-116938072D01*
X175550000Y-116938072D01*
X175674482Y-116925812D01*
X175794180Y-116889502D01*
X175807552Y-116882354D01*
X176061211Y-117136013D01*
X176085009Y-117165011D01*
X176200734Y-117259984D01*
X176332763Y-117330556D01*
X176476024Y-117374013D01*
X176587677Y-117385010D01*
X176587686Y-117385010D01*
X176625009Y-117388686D01*
X176662332Y-117385010D01*
X204247668Y-117385010D01*
X204284990Y-117388686D01*
X204322312Y-117385010D01*
X204322323Y-117385010D01*
X204433976Y-117374013D01*
X204577237Y-117330556D01*
X204709266Y-117259984D01*
X204824991Y-117165011D01*
X204848794Y-117136007D01*
X206086114Y-115898688D01*
X206268665Y-115935000D01*
X206551335Y-115935000D01*
X206828574Y-115879853D01*
X207089727Y-115771680D01*
X207324759Y-115614637D01*
X207524637Y-115414759D01*
X207681680Y-115179727D01*
X207789853Y-114918574D01*
X207830000Y-114716744D01*
X207870147Y-114918574D01*
X207978320Y-115179727D01*
X208135363Y-115414759D01*
X208335241Y-115614637D01*
X208570273Y-115771680D01*
X208831426Y-115879853D01*
X209108665Y-115935000D01*
X209391335Y-115935000D01*
X209668574Y-115879853D01*
X209929727Y-115771680D01*
X210164759Y-115614637D01*
X210364637Y-115414759D01*
X210521680Y-115179727D01*
X210629853Y-114918574D01*
X210685000Y-114641335D01*
X210685000Y-114358665D01*
X210640509Y-114134999D01*
X217970198Y-114134999D01*
X218011312Y-114176113D01*
X217975000Y-114358665D01*
X217975000Y-114641335D01*
X218030147Y-114918574D01*
X218138320Y-115179727D01*
X218295363Y-115414759D01*
X218495241Y-115614637D01*
X218730273Y-115771680D01*
X218991426Y-115879853D01*
X219268665Y-115935000D01*
X219551335Y-115935000D01*
X219828574Y-115879853D01*
X220089727Y-115771680D01*
X220324759Y-115614637D01*
X220524637Y-115414759D01*
X220628043Y-115260000D01*
X221031957Y-115260000D01*
X221135363Y-115414759D01*
X221335241Y-115614637D01*
X221570273Y-115771680D01*
X221831426Y-115879853D01*
X222108665Y-115935000D01*
X222391335Y-115935000D01*
X222668574Y-115879853D01*
X222929727Y-115771680D01*
X223164759Y-115614637D01*
X223364637Y-115414759D01*
X223521680Y-115179727D01*
X223629853Y-114918574D01*
X223685000Y-114641335D01*
X223685000Y-114358665D01*
X223629853Y-114081426D01*
X223521680Y-113820273D01*
X223364637Y-113585241D01*
X223164759Y-113385363D01*
X222929727Y-113228320D01*
X222668574Y-113120147D01*
X222391335Y-113065000D01*
X222108665Y-113065000D01*
X221831426Y-113120147D01*
X221570273Y-113228320D01*
X221335241Y-113385363D01*
X221135363Y-113585241D01*
X221031957Y-113740000D01*
X220628043Y-113740000D01*
X220524637Y-113585241D01*
X220324759Y-113385363D01*
X220089727Y-113228320D01*
X219828574Y-113120147D01*
X219551335Y-113065000D01*
X219268665Y-113065000D01*
X219086113Y-113101312D01*
X218848803Y-112864001D01*
X218825000Y-112834998D01*
X218709275Y-112740025D01*
X218577246Y-112669453D01*
X218433985Y-112625996D01*
X218322332Y-112614999D01*
X218322321Y-112614999D01*
X218284999Y-112611323D01*
X218247677Y-112614999D01*
X177449208Y-112614999D01*
X177440528Y-112526868D01*
X177388569Y-112355582D01*
X177304192Y-112197724D01*
X177190639Y-112059361D01*
X177052276Y-111945808D01*
X176894418Y-111861431D01*
X176723132Y-111809472D01*
X176545000Y-111791928D01*
X175995000Y-111791928D01*
X175816868Y-111809472D01*
X175645582Y-111861431D01*
X175535222Y-111920420D01*
X174758784Y-111143982D01*
X174734981Y-111114979D01*
X174619256Y-111020006D01*
X174487227Y-110949434D01*
X174343966Y-110905977D01*
X174232313Y-110894980D01*
X174232302Y-110894980D01*
X174194980Y-110891304D01*
X174157658Y-110894980D01*
X149233809Y-110894980D01*
X149196476Y-110891303D01*
X149159143Y-110894980D01*
X149047490Y-110905977D01*
X148904229Y-110949434D01*
X148772200Y-111020006D01*
X148656475Y-111114979D01*
X148632677Y-111143977D01*
X147489003Y-112287652D01*
X147459999Y-112311455D01*
X147419728Y-112360526D01*
X147365026Y-112427180D01*
X147311741Y-112526868D01*
X147294454Y-112559210D01*
X147250997Y-112702471D01*
X147240000Y-112814124D01*
X147240000Y-112814134D01*
X147236324Y-112851456D01*
X147240000Y-112888779D01*
X147240000Y-113900129D01*
X147205820Y-113910498D01*
X147095506Y-113969463D01*
X146998815Y-114048815D01*
X146919463Y-114145506D01*
X146860498Y-114255820D01*
X146824188Y-114375518D01*
X146811928Y-114500000D01*
X146811928Y-116300000D01*
X146824188Y-116424482D01*
X146860498Y-116544180D01*
X146919463Y-116654494D01*
X146998815Y-116751185D01*
X147095506Y-116830537D01*
X147205820Y-116889502D01*
X147325518Y-116925812D01*
X147450000Y-116938072D01*
X148550000Y-116938072D01*
X148674482Y-116925812D01*
X148794180Y-116889502D01*
X148904494Y-116830537D01*
X149001185Y-116751185D01*
X149080537Y-116654494D01*
X149139502Y-116544180D01*
X149175812Y-116424482D01*
X149188072Y-116300000D01*
X149188072Y-114868072D01*
X149351928Y-114868072D01*
X149351928Y-116025000D01*
X149369472Y-116203132D01*
X149421431Y-116374418D01*
X149505808Y-116532276D01*
X149619361Y-116670639D01*
X149757724Y-116784192D01*
X149915582Y-116868569D01*
X150086868Y-116920528D01*
X150265000Y-116938072D01*
X150815000Y-116938072D01*
X150993132Y-116920528D01*
X151164418Y-116868569D01*
X151322276Y-116784192D01*
X151460639Y-116670639D01*
X151574192Y-116532276D01*
X151658569Y-116374418D01*
X151710528Y-116203132D01*
X151728072Y-116025000D01*
X151728072Y-114775000D01*
X151710528Y-114596868D01*
X151681144Y-114500000D01*
X155311928Y-114500000D01*
X155315000Y-115114250D01*
X155473750Y-115273000D01*
X156373000Y-115273000D01*
X156373000Y-114023750D01*
X156214250Y-113865000D01*
X155950000Y-113861928D01*
X155825518Y-113874188D01*
X155705820Y-113910498D01*
X155595506Y-113969463D01*
X155498815Y-114048815D01*
X155419463Y-114145506D01*
X155360498Y-114255820D01*
X155324188Y-114375518D01*
X155311928Y-114500000D01*
X151681144Y-114500000D01*
X151658569Y-114425582D01*
X151574192Y-114267724D01*
X151460639Y-114129361D01*
X151322276Y-114015808D01*
X151164418Y-113931431D01*
X150993132Y-113879472D01*
X150815000Y-113861928D01*
X150458072Y-113861928D01*
X150458072Y-113616729D01*
X151209812Y-112864990D01*
X156581928Y-112864990D01*
X156581928Y-113955000D01*
X156599472Y-114133132D01*
X156627000Y-114223880D01*
X156627000Y-115273000D01*
X156647000Y-115273000D01*
X156647000Y-115527000D01*
X156627000Y-115527000D01*
X156627000Y-115547000D01*
X156373000Y-115547000D01*
X156373000Y-115527000D01*
X155473750Y-115527000D01*
X155315000Y-115685750D01*
X155311928Y-116300000D01*
X155324188Y-116424482D01*
X155360498Y-116544180D01*
X155419463Y-116654494D01*
X155498815Y-116751185D01*
X155595506Y-116830537D01*
X155705820Y-116889502D01*
X155825518Y-116925812D01*
X155950000Y-116938072D01*
X155987563Y-116937635D01*
X155185199Y-117740000D01*
X150037322Y-117740000D01*
X149999999Y-117736324D01*
X149962676Y-117740000D01*
X149962667Y-117740000D01*
X149851014Y-117750997D01*
X149707753Y-117794454D01*
X149575723Y-117865026D01*
X149492083Y-117933668D01*
X149459999Y-117959999D01*
X149436201Y-117988997D01*
X143063271Y-124361928D01*
X143000000Y-124361928D01*
X142777973Y-124383796D01*
X142564479Y-124448559D01*
X142367721Y-124553728D01*
X142195262Y-124695262D01*
X142053728Y-124867721D01*
X141948559Y-125064479D01*
X141883796Y-125277973D01*
X141861928Y-125500000D01*
X139995345Y-125500000D01*
X139995345Y-110444157D01*
X140002859Y-110294445D01*
X140020637Y-110177365D01*
X140073864Y-109988973D01*
X140149173Y-109821847D01*
X140247234Y-109668621D01*
X140366020Y-109531444D01*
X140503253Y-109412693D01*
X140656562Y-109314649D01*
X140823784Y-109239348D01*
X141012260Y-109186133D01*
X141129418Y-109168354D01*
X141279161Y-109160843D01*
X141289056Y-109160843D01*
X141075649Y-109249239D01*
X140770556Y-109453096D01*
X140511095Y-109712557D01*
X140307238Y-110017650D01*
X140166819Y-110356652D01*
X140095234Y-110716534D01*
X140095234Y-111083466D01*
X140166819Y-111443348D01*
X140307238Y-111782350D01*
X140511095Y-112087443D01*
X140770556Y-112346904D01*
X141075649Y-112550761D01*
X141414651Y-112691180D01*
X141774533Y-112762765D01*
X142141465Y-112762765D01*
X142501347Y-112691180D01*
X142840349Y-112550761D01*
X143145442Y-112346904D01*
X143404903Y-112087443D01*
X143608760Y-111782350D01*
X143749179Y-111443348D01*
X143820764Y-111083466D01*
X143820764Y-110716534D01*
X143749179Y-110356652D01*
X143608760Y-110017650D01*
X143404903Y-109712557D01*
X143145442Y-109453096D01*
X142840349Y-109249239D01*
X142626942Y-109160843D01*
X161992879Y-109160843D01*
X162028984Y-109164399D01*
X162065089Y-109160843D01*
X162173069Y-109150208D01*
X162311617Y-109108180D01*
X162439304Y-109039930D01*
X162551222Y-108948081D01*
X162643071Y-108836163D01*
X162645944Y-108830788D01*
X162807386Y-108798675D01*
X162968002Y-108732146D01*
X163049952Y-108677389D01*
X163131902Y-108732146D01*
X163292518Y-108798675D01*
X163463027Y-108832592D01*
X163636877Y-108832592D01*
X163807386Y-108798675D01*
X163968002Y-108732146D01*
X164074952Y-108660684D01*
X164181902Y-108732146D01*
%TA.AperFunction,Conductor*%
D22*
G36*
X164181902Y-108732146D02*
G01*
X164342518Y-108798675D01*
X164513027Y-108832592D01*
X164686877Y-108832592D01*
X164857386Y-108798675D01*
X165018002Y-108732146D01*
X165099952Y-108677389D01*
X165181902Y-108732146D01*
X165342518Y-108798675D01*
X165513027Y-108832592D01*
X165686877Y-108832592D01*
X165857386Y-108798675D01*
X166018002Y-108732146D01*
X166099952Y-108677389D01*
X166181902Y-108732146D01*
X166342518Y-108798675D01*
X166401321Y-108810372D01*
X166415107Y-108836163D01*
X166506956Y-108948081D01*
X166604312Y-109027979D01*
X166618874Y-109039930D01*
X166746561Y-109108180D01*
X166885109Y-109150208D01*
X167029194Y-109164399D01*
X167065299Y-109160843D01*
X197188149Y-109160843D01*
X197224254Y-109164399D01*
X197260359Y-109160843D01*
X197368339Y-109150208D01*
X197506887Y-109108180D01*
X197634574Y-109039930D01*
X197746492Y-108948081D01*
X197822354Y-108855643D01*
X197857386Y-108848675D01*
X198018002Y-108782146D01*
X198099952Y-108727389D01*
X198181902Y-108782146D01*
X198342518Y-108848675D01*
X198513027Y-108882592D01*
X198686877Y-108882592D01*
X198857386Y-108848675D01*
X199018002Y-108782146D01*
X199124952Y-108710684D01*
X199231902Y-108782146D01*
X199392518Y-108848675D01*
X199563027Y-108882592D01*
X199736877Y-108882592D01*
X199907386Y-108848675D01*
X200068002Y-108782146D01*
X200149952Y-108727389D01*
X200231902Y-108782146D01*
X200392518Y-108848675D01*
X200515154Y-108873069D01*
X200576715Y-108948081D01*
X200674071Y-109027979D01*
X200688633Y-109039930D01*
X200816320Y-109108180D01*
X200954868Y-109150208D01*
X201098953Y-109164399D01*
X201135058Y-109160843D01*
X222421237Y-109160843D01*
X222457342Y-109164399D01*
X222493447Y-109160843D01*
X222601427Y-109150208D01*
X222739975Y-109108180D01*
X222867662Y-109039930D01*
X222979580Y-108948081D01*
X223050191Y-108862041D01*
X223117386Y-108848675D01*
X223278002Y-108782146D01*
X223359952Y-108727389D01*
X223441902Y-108782146D01*
X223602518Y-108848675D01*
X223773027Y-108882592D01*
X223946877Y-108882592D01*
X224117386Y-108848675D01*
X224278002Y-108782146D01*
X224384952Y-108710684D01*
X224491902Y-108782146D01*
X224652518Y-108848675D01*
X224823027Y-108882592D01*
X224996877Y-108882592D01*
X225167386Y-108848675D01*
X225328002Y-108782146D01*
X225409952Y-108727389D01*
X225491902Y-108782146D01*
X225652518Y-108848675D01*
X225756579Y-108869374D01*
X225821172Y-108948081D01*
X225918528Y-109027979D01*
X225933090Y-109039930D01*
X226060777Y-109108180D01*
X226199325Y-109150208D01*
X226343410Y-109164399D01*
X226379515Y-109160843D01*
X235881057Y-109160843D01*
X235667650Y-109249239D01*
X235362557Y-109453096D01*
X235103096Y-109712557D01*
X234899239Y-110017650D01*
X234758820Y-110356652D01*
X234687235Y-110716534D01*
X234687235Y-111083466D01*
X234758820Y-111443348D01*
X234899239Y-111782350D01*
X235103096Y-112087443D01*
X235362557Y-112346904D01*
X235667650Y-112550761D01*
X236006652Y-112691180D01*
X236366534Y-112762765D01*
X236733466Y-112762765D01*
X237093348Y-112691180D01*
X237432350Y-112550761D01*
X237737443Y-112346904D01*
X237996904Y-112087443D01*
X238200761Y-111782350D01*
X238341180Y-111443348D01*
X238412765Y-111083466D01*
X238412765Y-110716534D01*
X238341180Y-110356652D01*
X238200761Y-110017650D01*
X237996904Y-109712557D01*
X237737443Y-109453096D01*
X237432350Y-109249239D01*
X237218943Y-109160843D01*
X237241636Y-109160843D01*
X237391375Y-109168354D01*
X237508489Y-109186128D01*
X237696915Y-109239336D01*
X237864044Y-109314612D01*
X238017274Y-109412633D01*
X238154428Y-109531355D01*
X238273145Y-109668503D01*
X238371162Y-109821728D01*
X238446442Y-109988867D01*
X238499650Y-110177291D01*
X238517424Y-110294403D01*
X238524937Y-110444170D01*
X238524936Y-156407591D01*
X238517424Y-156557335D01*
X238499650Y-156674451D01*
X238446442Y-156862874D01*
X238371164Y-157030008D01*
X238273145Y-157183236D01*
X238154428Y-157320384D01*
X238017274Y-157439106D01*
X237864044Y-157537127D01*
X237696915Y-157612403D01*
X237508489Y-157665611D01*
X237391376Y-157683385D01*
X237241630Y-157690897D01*
X141279167Y-157690897D01*
X141129418Y-157683385D01*
X141012260Y-157665606D01*
X140823784Y-157612391D01*
X140656562Y-157537090D01*
X140503253Y-157439046D01*
X140366020Y-157320295D01*
X140247234Y-157183118D01*
X140149171Y-157029888D01*
X140073864Y-156862769D01*
X140020638Y-156674376D01*
X140002859Y-156557294D01*
X139995345Y-156407584D01*
X139995345Y-155308535D01*
X140095234Y-155308535D01*
X140095234Y-155675467D01*
X140166819Y-156035349D01*
X140307238Y-156374351D01*
X140511095Y-156679444D01*
X140770556Y-156938905D01*
X141075649Y-157142762D01*
X141414651Y-157283181D01*
X141774533Y-157354766D01*
X142141465Y-157354766D01*
X142501347Y-157283181D01*
X142840349Y-157142762D01*
X143145442Y-156938905D01*
X143404903Y-156679444D01*
X143608760Y-156374351D01*
X143749179Y-156035349D01*
X143820764Y-155675467D01*
X143820764Y-155308535D01*
X234687235Y-155308535D01*
X234687235Y-155675467D01*
X234758820Y-156035349D01*
X234899239Y-156374351D01*
X235103096Y-156679444D01*
X235362557Y-156938905D01*
X235667650Y-157142762D01*
X236006652Y-157283181D01*
X236366534Y-157354766D01*
X236733466Y-157354766D01*
X237093348Y-157283181D01*
X237432350Y-157142762D01*
X237737443Y-156938905D01*
X237996904Y-156679444D01*
X238200761Y-156374351D01*
X238341180Y-156035349D01*
X238412765Y-155675467D01*
X238412765Y-155308535D01*
X238341180Y-154948653D01*
X238200761Y-154609651D01*
X237996904Y-154304558D01*
X237737443Y-154045097D01*
X237432350Y-153841240D01*
X237093348Y-153700821D01*
X236733466Y-153629236D01*
X236366534Y-153629236D01*
X236006652Y-153700821D01*
X235667650Y-153841240D01*
X235362557Y-154045097D01*
X235103096Y-154304558D01*
X234899239Y-154609651D01*
X234758820Y-154948653D01*
X234687235Y-155308535D01*
X143820764Y-155308535D01*
X143749179Y-154948653D01*
X143608760Y-154609651D01*
X143404903Y-154304558D01*
X143145442Y-154045097D01*
X142840349Y-153841240D01*
X142501347Y-153700821D01*
X142141465Y-153629236D01*
X141774533Y-153629236D01*
X141414651Y-153700821D01*
X141075649Y-153841240D01*
X140770556Y-154045097D01*
X140511095Y-154304558D01*
X140307238Y-154609651D01*
X140166819Y-154948653D01*
X140095234Y-155308535D01*
X139995345Y-155308535D01*
X139995345Y-153100000D01*
X200311928Y-153100000D01*
X200324188Y-153224482D01*
X200360498Y-153344180D01*
X200419463Y-153454494D01*
X200498815Y-153551185D01*
X200595506Y-153630537D01*
X200705820Y-153689502D01*
X200825518Y-153725812D01*
X200950000Y-153738072D01*
X203664250Y-153735000D01*
X203823000Y-153576250D01*
X203823000Y-151727000D01*
X204077000Y-151727000D01*
X204077000Y-153576250D01*
X204235750Y-153735000D01*
X206950000Y-153738072D01*
X207074482Y-153725812D01*
X207194180Y-153689502D01*
X207304494Y-153630537D01*
X207401185Y-153551185D01*
X207480537Y-153454494D01*
X207539502Y-153344180D01*
X207575812Y-153224482D01*
X207588072Y-153100000D01*
X207585000Y-151885750D01*
X207426250Y-151727000D01*
X204077000Y-151727000D01*
X203823000Y-151727000D01*
X200473750Y-151727000D01*
X200315000Y-151885750D01*
X200311928Y-153100000D01*
X139995345Y-153100000D01*
X139995345Y-151850000D01*
X141761928Y-151850000D01*
X141774188Y-151974482D01*
X141810498Y-152094180D01*
X141869463Y-152204494D01*
X141948815Y-152301185D01*
X142045506Y-152380537D01*
X142155820Y-152439502D01*
X142275518Y-152475812D01*
X142400000Y-152488072D01*
X142964250Y-152485000D01*
X143123000Y-152326250D01*
X143123000Y-151127000D01*
X143377000Y-151127000D01*
X143377000Y-152326250D01*
X143535750Y-152485000D01*
X144100000Y-152488072D01*
X144224482Y-152475812D01*
X144344180Y-152439502D01*
X144454494Y-152380537D01*
X144551185Y-152301185D01*
X144630537Y-152204494D01*
X144689502Y-152094180D01*
X144725812Y-151974482D01*
X144738072Y-151850000D01*
X144735000Y-151285750D01*
X144576250Y-151127000D01*
X143377000Y-151127000D01*
X143123000Y-151127000D01*
X141923750Y-151127000D01*
X141765000Y-151285750D01*
X141761928Y-151850000D01*
X139995345Y-151850000D01*
X139995345Y-150150000D01*
X141761928Y-150150000D01*
X141765000Y-150714250D01*
X141923750Y-150873000D01*
X143123000Y-150873000D01*
X143123000Y-149673750D01*
X143377000Y-149673750D01*
X143377000Y-150873000D01*
X144576250Y-150873000D01*
X144735000Y-150714250D01*
X144738072Y-150150000D01*
X144733148Y-150100000D01*
X200311928Y-150100000D01*
X200315000Y-151314250D01*
X200473750Y-151473000D01*
X203823000Y-151473000D01*
X203823000Y-149623750D01*
X204077000Y-149623750D01*
X204077000Y-151473000D01*
X207426250Y-151473000D01*
X207585000Y-151314250D01*
X207586174Y-150850000D01*
X224311928Y-150850000D01*
X224311928Y-152350000D01*
X224338599Y-152620799D01*
X224417589Y-152881192D01*
X224545860Y-153121171D01*
X224718485Y-153331515D01*
X224928829Y-153504140D01*
X225168808Y-153632411D01*
X225429201Y-153711401D01*
X225700000Y-153738072D01*
X230200000Y-153738072D01*
X230470799Y-153711401D01*
X230731192Y-153632411D01*
X230971171Y-153504140D01*
X231181515Y-153331515D01*
X231354140Y-153121171D01*
X231482411Y-152881192D01*
X231561401Y-152620799D01*
X231587087Y-152360000D01*
X232611928Y-152360000D01*
X232611928Y-152400000D01*
X232624188Y-152524482D01*
X232660498Y-152644180D01*
X232719463Y-152754494D01*
X232798815Y-152851185D01*
X232895506Y-152930537D01*
X233005820Y-152989502D01*
X233125518Y-153025812D01*
X233250000Y-153038072D01*
X234950000Y-153038072D01*
X235074482Y-153025812D01*
X235194180Y-152989502D01*
X235304494Y-152930537D01*
X235401185Y-152851185D01*
X235480537Y-152754494D01*
X235539502Y-152644180D01*
X235561513Y-152571620D01*
X235693368Y-152703475D01*
X235936589Y-152865990D01*
X236206842Y-152977932D01*
X236493740Y-153035000D01*
X236786260Y-153035000D01*
X237073158Y-152977932D01*
X237343411Y-152865990D01*
X237586632Y-152703475D01*
X237793475Y-152496632D01*
X237955990Y-152253411D01*
X238067932Y-151983158D01*
X238125000Y-151696260D01*
X238125000Y-151403740D01*
X238067932Y-151116842D01*
X237955990Y-150846589D01*
X237793475Y-150603368D01*
X237586632Y-150396525D01*
X237343411Y-150234010D01*
X237085927Y-150127357D01*
X237113989Y-150121775D01*
X237366043Y-150017371D01*
X237592886Y-149865799D01*
X237785799Y-149672886D01*
X237937371Y-149446043D01*
X238041775Y-149193989D01*
X238095000Y-148926411D01*
X238095000Y-148653589D01*
X238041775Y-148386011D01*
X237937371Y-148133957D01*
X237785799Y-147907114D01*
X237592886Y-147714201D01*
X237366043Y-147562629D01*
X237113989Y-147458225D01*
X236846411Y-147405000D01*
X236573589Y-147405000D01*
X236306011Y-147458225D01*
X236053957Y-147562629D01*
X235827114Y-147714201D01*
X235634201Y-147907114D01*
X235482629Y-148133957D01*
X235417071Y-148292228D01*
X235347371Y-148123957D01*
X235195799Y-147897114D01*
X235002886Y-147704201D01*
X234776043Y-147552629D01*
X234523989Y-147448225D01*
X234256411Y-147395000D01*
X233983589Y-147395000D01*
X233716011Y-147448225D01*
X233463957Y-147552629D01*
X233237114Y-147704201D01*
X233044201Y-147897114D01*
X232892629Y-148123957D01*
X232788225Y-148376011D01*
X232735000Y-148643589D01*
X232735000Y-148916411D01*
X232788225Y-149183989D01*
X232892629Y-149436043D01*
X233044201Y-149662886D01*
X233237114Y-149855799D01*
X233463957Y-150007371D01*
X233595669Y-150061928D01*
X233250000Y-150061928D01*
X233125518Y-150074188D01*
X233005820Y-150110498D01*
X232895506Y-150169463D01*
X232798815Y-150248815D01*
X232719463Y-150345506D01*
X232660498Y-150455820D01*
X232624188Y-150575518D01*
X232611928Y-150700000D01*
X232611928Y-150840000D01*
X231587087Y-150840000D01*
X231561401Y-150579201D01*
X231482411Y-150318808D01*
X231354140Y-150078829D01*
X231181515Y-149868485D01*
X230971171Y-149695860D01*
X230731192Y-149567589D01*
X230470799Y-149488599D01*
X230200000Y-149461928D01*
X225700000Y-149461928D01*
X225429201Y-149488599D01*
X225168808Y-149567589D01*
X224928829Y-149695860D01*
X224718485Y-149868485D01*
X224545860Y-150078829D01*
X224417589Y-150318808D01*
X224338599Y-150579201D01*
X224311928Y-150850000D01*
X207586174Y-150850000D01*
X207588072Y-150100000D01*
X207575812Y-149975518D01*
X207539502Y-149855820D01*
X207480537Y-149745506D01*
X207401185Y-149648815D01*
X207304494Y-149569463D01*
X207194180Y-149510498D01*
X207074482Y-149474188D01*
X206950000Y-149461928D01*
X204235750Y-149465000D01*
X204077000Y-149623750D01*
X203823000Y-149623750D01*
X203664250Y-149465000D01*
X200950000Y-149461928D01*
X200825518Y-149474188D01*
X200705820Y-149510498D01*
X200595506Y-149569463D01*
X200498815Y-149648815D01*
X200419463Y-149745506D01*
X200360498Y-149855820D01*
X200324188Y-149975518D01*
X200311928Y-150100000D01*
X144733148Y-150100000D01*
X144725812Y-150025518D01*
X144689502Y-149905820D01*
X144630537Y-149795506D01*
X144551185Y-149698815D01*
X144454494Y-149619463D01*
X144344180Y-149560498D01*
X144224482Y-149524188D01*
X144100000Y-149511928D01*
X143535750Y-149515000D01*
X143377000Y-149673750D01*
X143123000Y-149673750D01*
X142964250Y-149515000D01*
X142400000Y-149511928D01*
X142275518Y-149524188D01*
X142155820Y-149560498D01*
X142045506Y-149619463D01*
X141948815Y-149698815D01*
X141869463Y-149795506D01*
X141810498Y-149905820D01*
X141774188Y-150025518D01*
X141761928Y-150150000D01*
X139995345Y-150150000D01*
X139995345Y-146633589D01*
X141925000Y-146633589D01*
X141925000Y-146906411D01*
X141978225Y-147173989D01*
X142082629Y-147426043D01*
X142234201Y-147652886D01*
X142427114Y-147845799D01*
X142653957Y-147997371D01*
X142906011Y-148101775D01*
X143173589Y-148155000D01*
X143446411Y-148155000D01*
X143713989Y-148101775D01*
X143966043Y-147997371D01*
X144192886Y-147845799D01*
X144385799Y-147652886D01*
X144537371Y-147426043D01*
X144641775Y-147173989D01*
X144695000Y-146906411D01*
X144695000Y-146633589D01*
X144641775Y-146366011D01*
X144624407Y-146324080D01*
X234505525Y-146324080D01*
X234589208Y-146578261D01*
X234861775Y-146709158D01*
X235154642Y-146784365D01*
X235456553Y-146800991D01*
X235755907Y-146758397D01*
X236041199Y-146658222D01*
X236190792Y-146578261D01*
X236274475Y-146324080D01*
X235390000Y-145439605D01*
X234505525Y-146324080D01*
X144624407Y-146324080D01*
X144537371Y-146113957D01*
X144385799Y-145887114D01*
X144192886Y-145694201D01*
X143966043Y-145542629D01*
X143713989Y-145438225D01*
X143446411Y-145385000D01*
X143173589Y-145385000D01*
X142906011Y-145438225D01*
X142653957Y-145542629D01*
X142427114Y-145694201D01*
X142234201Y-145887114D01*
X142082629Y-146113957D01*
X141978225Y-146366011D01*
X141925000Y-146633589D01*
X139995345Y-146633589D01*
X139995345Y-138500000D01*
X141861928Y-138500000D01*
X141861928Y-141500000D01*
X141883796Y-141722027D01*
X141948559Y-141935521D01*
X142053728Y-142132279D01*
X142195262Y-142304738D01*
X142367721Y-142446272D01*
X142564479Y-142551441D01*
X142777973Y-142616204D01*
X143000000Y-142638072D01*
X144000000Y-142638072D01*
X144222027Y-142616204D01*
X144435521Y-142551441D01*
X144632279Y-142446272D01*
X144804738Y-142304738D01*
X144946272Y-142132279D01*
X145051441Y-141935521D01*
X145116204Y-141722027D01*
X145138072Y-141500000D01*
X145138072Y-138500000D01*
X145116204Y-138277973D01*
X145051441Y-138064479D01*
X144946272Y-137867721D01*
X144804738Y-137695262D01*
X144632279Y-137553728D01*
X144435521Y-137448559D01*
X144222027Y-137383796D01*
X144000000Y-137361928D01*
X143000000Y-137361928D01*
X142777973Y-137383796D01*
X142564479Y-137448559D01*
X142367721Y-137553728D01*
X142195262Y-137695262D01*
X142053728Y-137867721D01*
X141948559Y-138064479D01*
X141883796Y-138277973D01*
X141861928Y-138500000D01*
X139995345Y-138500000D01*
X139995345Y-130708665D01*
X149215000Y-130708665D01*
X149215000Y-130991335D01*
X149270147Y-131268574D01*
X149378320Y-131529727D01*
X149535363Y-131764759D01*
X149735241Y-131964637D01*
X149970273Y-132121680D01*
X150231426Y-132229853D01*
X150508665Y-132285000D01*
X150791335Y-132285000D01*
X151068574Y-132229853D01*
X151329727Y-132121680D01*
X151564759Y-131964637D01*
X151764637Y-131764759D01*
X151921680Y-131529727D01*
X152029853Y-131268574D01*
X152085000Y-130991335D01*
X152085000Y-130708665D01*
X152029853Y-130431426D01*
X151921680Y-130170273D01*
X151764637Y-129935241D01*
X151564759Y-129735363D01*
X151329727Y-129578320D01*
X151068574Y-129470147D01*
X150791335Y-129415000D01*
X150508665Y-129415000D01*
X150231426Y-129470147D01*
X149970273Y-129578320D01*
X149735241Y-129735363D01*
X149535363Y-129935241D01*
X149378320Y-130170273D01*
X149270147Y-130431426D01*
X149215000Y-130708665D01*
X139995345Y-130708665D01*
X139995345Y-125500000D01*
X141861928Y-125500000D01*
X141861928Y-128500000D01*
X141883796Y-128722027D01*
X141948559Y-128935521D01*
X142053728Y-129132279D01*
X142195262Y-129304738D01*
X142367721Y-129446272D01*
X142564479Y-129551441D01*
X142777973Y-129616204D01*
X143000000Y-129638072D01*
X144000000Y-129638072D01*
X144222027Y-129616204D01*
X144435521Y-129551441D01*
X144632279Y-129446272D01*
X144804738Y-129304738D01*
X144946272Y-129132279D01*
X145051441Y-128935521D01*
X145116204Y-128722027D01*
X145138072Y-128500000D01*
X145138072Y-125500000D01*
X145116204Y-125277973D01*
X145051441Y-125064479D01*
X144946272Y-124867721D01*
X144838455Y-124736346D01*
X149261896Y-120312906D01*
X149215000Y-120548665D01*
X149215000Y-120831335D01*
X149270147Y-121108574D01*
X149378320Y-121369727D01*
X149535363Y-121604759D01*
X149735241Y-121804637D01*
X149970273Y-121961680D01*
X150231426Y-122069853D01*
X150508665Y-122125000D01*
X150791335Y-122125000D01*
X150973887Y-122088688D01*
X156740001Y-127854803D01*
X156740000Y-129781956D01*
X156585241Y-129885363D01*
X156385363Y-130085241D01*
X156228320Y-130320273D01*
X156120147Y-130581426D01*
X156065000Y-130858665D01*
X156065000Y-131141335D01*
X156120147Y-131418574D01*
X156228320Y-131679727D01*
X156385363Y-131914759D01*
X156585241Y-132114637D01*
X156820273Y-132271680D01*
X157081426Y-132379853D01*
X157358665Y-132435000D01*
X157641335Y-132435000D01*
X157918574Y-132379853D01*
X158179727Y-132271680D01*
X158414759Y-132114637D01*
X158614637Y-131914759D01*
X158771680Y-131679727D01*
X158879853Y-131418574D01*
X158935000Y-131141335D01*
X158935000Y-130858665D01*
X158879853Y-130581426D01*
X158771680Y-130320273D01*
X158614637Y-130085241D01*
X158414759Y-129885363D01*
X158260000Y-129781957D01*
X158260000Y-127577323D01*
X158263676Y-127540000D01*
X158260000Y-127502677D01*
X158260000Y-127502667D01*
X158249003Y-127391014D01*
X158205546Y-127247753D01*
X158154383Y-127152035D01*
X158134974Y-127115723D01*
X158063799Y-127028997D01*
X158040001Y-126999999D01*
X158011003Y-126976201D01*
X152048688Y-121013887D01*
X152085000Y-120831335D01*
X152085000Y-120698665D01*
X156065000Y-120698665D01*
X156065000Y-120981335D01*
X156120147Y-121258574D01*
X156228320Y-121519727D01*
X156385363Y-121754759D01*
X156585241Y-121954637D01*
X156820273Y-122111680D01*
X157081426Y-122219853D01*
X157358665Y-122275000D01*
X157641335Y-122275000D01*
X157823887Y-122238688D01*
X161740001Y-126154803D01*
X161740000Y-129781956D01*
X161585241Y-129885363D01*
X161385363Y-130085241D01*
X161228320Y-130320273D01*
X161120147Y-130581426D01*
X161065000Y-130858665D01*
X161065000Y-131141335D01*
X161120147Y-131418574D01*
X161228320Y-131679727D01*
X161385363Y-131914759D01*
X161585241Y-132114637D01*
X161820273Y-132271680D01*
X162081426Y-132379853D01*
X162358665Y-132435000D01*
X162641335Y-132435000D01*
X162918574Y-132379853D01*
X163179727Y-132271680D01*
X163414759Y-132114637D01*
X163614637Y-131914759D01*
X163771680Y-131679727D01*
X163879853Y-131418574D01*
X163935000Y-131141335D01*
X163935000Y-130858665D01*
X163879853Y-130581426D01*
X163771680Y-130320273D01*
X163614637Y-130085241D01*
X163414759Y-129885363D01*
X163260000Y-129781957D01*
X163260000Y-125877323D01*
X163263676Y-125840000D01*
X163260000Y-125802677D01*
X163260000Y-125802667D01*
X163249003Y-125691014D01*
X163205546Y-125547753D01*
X163134974Y-125415724D01*
X163040001Y-125299999D01*
X163011003Y-125276201D01*
X158898688Y-121163887D01*
X158935000Y-120981335D01*
X158935000Y-120698665D01*
X161065000Y-120698665D01*
X161065000Y-120981335D01*
X161120147Y-121258574D01*
X161228320Y-121519727D01*
X161385363Y-121754759D01*
X161585241Y-121954637D01*
X161820273Y-122111680D01*
X162081426Y-122219853D01*
X162358665Y-122275000D01*
X162641335Y-122275000D01*
X162823887Y-122238688D01*
X167240001Y-126654803D01*
X167240000Y-129781956D01*
X167085241Y-129885363D01*
X166885363Y-130085241D01*
X166728320Y-130320273D01*
X166620147Y-130581426D01*
X166565000Y-130858665D01*
X166565000Y-131141335D01*
X166620147Y-131418574D01*
X166728320Y-131679727D01*
X166885363Y-131914759D01*
X167085241Y-132114637D01*
X167320273Y-132271680D01*
X167581426Y-132379853D01*
X167858665Y-132435000D01*
X168141335Y-132435000D01*
X168418574Y-132379853D01*
X168679727Y-132271680D01*
X168914759Y-132114637D01*
X169114637Y-131914759D01*
X169271680Y-131679727D01*
X169379853Y-131418574D01*
X169435000Y-131141335D01*
X169435000Y-130858665D01*
X169379853Y-130581426D01*
X169271680Y-130320273D01*
X169114637Y-130085241D01*
X168914759Y-129885363D01*
X168760000Y-129781957D01*
X168760000Y-126377333D01*
X168763677Y-126340000D01*
X168749003Y-126191014D01*
X168705546Y-126047753D01*
X168634974Y-125915724D01*
X168563799Y-125828997D01*
X168540001Y-125799999D01*
X168511003Y-125776201D01*
X163898688Y-121163887D01*
X163935000Y-120981335D01*
X163935000Y-120698665D01*
X166565000Y-120698665D01*
X166565000Y-120981335D01*
X166620147Y-121258574D01*
X166728320Y-121519727D01*
X166885363Y-121754759D01*
X167085241Y-121954637D01*
X167320273Y-122111680D01*
X167581426Y-122219853D01*
X167858665Y-122275000D01*
X168141335Y-122275000D01*
X168323887Y-122238688D01*
X174240001Y-128154803D01*
X174240000Y-129781956D01*
X174085241Y-129885363D01*
X173885363Y-130085241D01*
X173728320Y-130320273D01*
X173620147Y-130581426D01*
X173565000Y-130858665D01*
X173565000Y-131141335D01*
X173620147Y-131418574D01*
X173728320Y-131679727D01*
X173885363Y-131914759D01*
X174085241Y-132114637D01*
X174320273Y-132271680D01*
X174581426Y-132379853D01*
X174858665Y-132435000D01*
X175141335Y-132435000D01*
X175418574Y-132379853D01*
X175679727Y-132271680D01*
X175914759Y-132114637D01*
X176114637Y-131914759D01*
X176271680Y-131679727D01*
X176379853Y-131418574D01*
X176435000Y-131141335D01*
X176435000Y-130858665D01*
X176379853Y-130581426D01*
X176271680Y-130320273D01*
X176114637Y-130085241D01*
X175914759Y-129885363D01*
X175760000Y-129781957D01*
X175760000Y-127877323D01*
X175763676Y-127840000D01*
X175760000Y-127802677D01*
X175760000Y-127802667D01*
X175749003Y-127691014D01*
X175705546Y-127547753D01*
X175672343Y-127485635D01*
X175634974Y-127415723D01*
X175563799Y-127328997D01*
X175540001Y-127299999D01*
X175511003Y-127276201D01*
X169398688Y-121163887D01*
X169435000Y-120981335D01*
X169435000Y-120698665D01*
X173565000Y-120698665D01*
X173565000Y-120981335D01*
X173620147Y-121258574D01*
X173728320Y-121519727D01*
X173885363Y-121754759D01*
X174085241Y-121954637D01*
X174320273Y-122111680D01*
X174581426Y-122219853D01*
X174858665Y-122275000D01*
X175141335Y-122275000D01*
X175323887Y-122238688D01*
X181740001Y-128654803D01*
X181740000Y-129781956D01*
X181585241Y-129885363D01*
X181385363Y-130085241D01*
X181228320Y-130320273D01*
X181120147Y-130581426D01*
X181065000Y-130858665D01*
X181065000Y-131141335D01*
X181120147Y-131418574D01*
X181228320Y-131679727D01*
X181385363Y-131914759D01*
X181585241Y-132114637D01*
X181820273Y-132271680D01*
X182081426Y-132379853D01*
X182358665Y-132435000D01*
X182641335Y-132435000D01*
X182918574Y-132379853D01*
X183179727Y-132271680D01*
X183414759Y-132114637D01*
X183614637Y-131914759D01*
X183771680Y-131679727D01*
X183879853Y-131418574D01*
X183935000Y-131141335D01*
X183935000Y-130858665D01*
X183879853Y-130581426D01*
X183771680Y-130320273D01*
X183614637Y-130085241D01*
X183414759Y-129885363D01*
X183260000Y-129781957D01*
X183260000Y-128377325D01*
X183263676Y-128340000D01*
X183260000Y-128302675D01*
X183260000Y-128302667D01*
X183249003Y-128191014D01*
X183205546Y-128047753D01*
X183134974Y-127915724D01*
X183040001Y-127799999D01*
X183011003Y-127776201D01*
X176398688Y-121163887D01*
X176435000Y-120981335D01*
X176435000Y-120698665D01*
X181065000Y-120698665D01*
X181065000Y-120981335D01*
X181120147Y-121258574D01*
X181228320Y-121519727D01*
X181385363Y-121754759D01*
X181585241Y-121954637D01*
X181820273Y-122111680D01*
X182081426Y-122219853D01*
X182358665Y-122275000D01*
X182641335Y-122275000D01*
X182823887Y-122238688D01*
X188740001Y-128154803D01*
X188740000Y-129781956D01*
X188585241Y-129885363D01*
X188385363Y-130085241D01*
X188228320Y-130320273D01*
X188120147Y-130581426D01*
X188065000Y-130858665D01*
X188065000Y-131141335D01*
X188120147Y-131418574D01*
X188228320Y-131679727D01*
X188385363Y-131914759D01*
X188585241Y-132114637D01*
X188820273Y-132271680D01*
X189081426Y-132379853D01*
X189358665Y-132435000D01*
X189641335Y-132435000D01*
X189918574Y-132379853D01*
X190179727Y-132271680D01*
X190414759Y-132114637D01*
X190614637Y-131914759D01*
X190771680Y-131679727D01*
X190879853Y-131418574D01*
X190935000Y-131141335D01*
X190935000Y-130858665D01*
X190879853Y-130581426D01*
X190771680Y-130320273D01*
X190614637Y-130085241D01*
X190414759Y-129885363D01*
X190260000Y-129781957D01*
X190260000Y-127877323D01*
X190263676Y-127840000D01*
X190260000Y-127802677D01*
X190260000Y-127802667D01*
X190249003Y-127691014D01*
X190205546Y-127547753D01*
X190172343Y-127485635D01*
X190134974Y-127415723D01*
X190063799Y-127328997D01*
X190040001Y-127299999D01*
X190011003Y-127276201D01*
X183898688Y-121163887D01*
X183935000Y-120981335D01*
X183935000Y-120698665D01*
X188065000Y-120698665D01*
X188065000Y-120981335D01*
X188120147Y-121258574D01*
X188228320Y-121519727D01*
X188385363Y-121754759D01*
X188585241Y-121954637D01*
X188820273Y-122111680D01*
X189081426Y-122219853D01*
X189358665Y-122275000D01*
X189641335Y-122275000D01*
X189823887Y-122238688D01*
X193740001Y-126154803D01*
X193740000Y-129781956D01*
X193585241Y-129885363D01*
X193385363Y-130085241D01*
X193228320Y-130320273D01*
X193120147Y-130581426D01*
X193065000Y-130858665D01*
X193065000Y-131141335D01*
X193120147Y-131418574D01*
X193228320Y-131679727D01*
X193385363Y-131914759D01*
X193585241Y-132114637D01*
X193820273Y-132271680D01*
X194081426Y-132379853D01*
X194358665Y-132435000D01*
X194641335Y-132435000D01*
X194918574Y-132379853D01*
X195179727Y-132271680D01*
X195414759Y-132114637D01*
X195614637Y-131914759D01*
X195771680Y-131679727D01*
X195879853Y-131418574D01*
X195935000Y-131141335D01*
X195935000Y-130858665D01*
X195879853Y-130581426D01*
X195771680Y-130320273D01*
X195614637Y-130085241D01*
X195414759Y-129885363D01*
X195260000Y-129781957D01*
X195260000Y-125877323D01*
X195263676Y-125840000D01*
X195260000Y-125802677D01*
X195260000Y-125802667D01*
X195249003Y-125691014D01*
X195205546Y-125547753D01*
X195134974Y-125415724D01*
X195040001Y-125299999D01*
X195011003Y-125276201D01*
X190898688Y-121163887D01*
X190935000Y-120981335D01*
X190935000Y-120698665D01*
X193065000Y-120698665D01*
X193065000Y-120981335D01*
X193120147Y-121258574D01*
X193228320Y-121519727D01*
X193385363Y-121754759D01*
X193585241Y-121954637D01*
X193820273Y-122111680D01*
X194081426Y-122219853D01*
X194358665Y-122275000D01*
X194641335Y-122275000D01*
X194823887Y-122238688D01*
X199240001Y-126654803D01*
X199240000Y-129781956D01*
X199085241Y-129885363D01*
X198885363Y-130085241D01*
X198728320Y-130320273D01*
X198620147Y-130581426D01*
X198565000Y-130858665D01*
X198565000Y-131141335D01*
X198620147Y-131418574D01*
X198728320Y-131679727D01*
X198885363Y-131914759D01*
X199085241Y-132114637D01*
X199320273Y-132271680D01*
X199581426Y-132379853D01*
X199858665Y-132435000D01*
X200141335Y-132435000D01*
X200418574Y-132379853D01*
X200679727Y-132271680D01*
X200914759Y-132114637D01*
X201114637Y-131914759D01*
X201271680Y-131679727D01*
X201379853Y-131418574D01*
X201435000Y-131141335D01*
X201435000Y-130858665D01*
X201379853Y-130581426D01*
X201271680Y-130320273D01*
X201114637Y-130085241D01*
X200914759Y-129885363D01*
X200760000Y-129781957D01*
X200760000Y-126377333D01*
X200763677Y-126340000D01*
X200749003Y-126191014D01*
X200705546Y-126047753D01*
X200634974Y-125915724D01*
X200563799Y-125828997D01*
X200540001Y-125799999D01*
X200511003Y-125776201D01*
X195898688Y-121163887D01*
X195935000Y-120981335D01*
X195935000Y-120698665D01*
X198565000Y-120698665D01*
X198565000Y-120981335D01*
X198620147Y-121258574D01*
X198728320Y-121519727D01*
X198885363Y-121754759D01*
X199085241Y-121954637D01*
X199320273Y-122111680D01*
X199581426Y-122219853D01*
X199858665Y-122275000D01*
X200141335Y-122275000D01*
X200323887Y-122238688D01*
X204490001Y-126404803D01*
X204490000Y-129781956D01*
X204335241Y-129885363D01*
X204135363Y-130085241D01*
X203978320Y-130320273D01*
X203870147Y-130581426D01*
X203815000Y-130858665D01*
X203815000Y-131141335D01*
X203870147Y-131418574D01*
X203978320Y-131679727D01*
X204135363Y-131914759D01*
X204335241Y-132114637D01*
X204570273Y-132271680D01*
X204831426Y-132379853D01*
X205108665Y-132435000D01*
X205391335Y-132435000D01*
X205668574Y-132379853D01*
X205929727Y-132271680D01*
X206164759Y-132114637D01*
X206364637Y-131914759D01*
X206521680Y-131679727D01*
X206629853Y-131418574D01*
X206685000Y-131141335D01*
X206685000Y-130858665D01*
X206629853Y-130581426D01*
X206521680Y-130320273D01*
X206364637Y-130085241D01*
X206164759Y-129885363D01*
X206010000Y-129781957D01*
X206010000Y-126127322D01*
X206013676Y-126089999D01*
X206010000Y-126052676D01*
X206010000Y-126052667D01*
X205999003Y-125941014D01*
X205955546Y-125797753D01*
X205884974Y-125665724D01*
X205790001Y-125549999D01*
X205761003Y-125526201D01*
X201398688Y-121163887D01*
X201435000Y-120981335D01*
X201435000Y-120698665D01*
X203815000Y-120698665D01*
X203815000Y-120981335D01*
X203870147Y-121258574D01*
X203978320Y-121519727D01*
X204135363Y-121754759D01*
X204335241Y-121954637D01*
X204570273Y-122111680D01*
X204831426Y-122219853D01*
X205108665Y-122275000D01*
X205391335Y-122275000D01*
X205573887Y-122238688D01*
X209740001Y-126404803D01*
X209740000Y-129681956D01*
X209585241Y-129785363D01*
X209385363Y-129985241D01*
X209228320Y-130220273D01*
X209120147Y-130481426D01*
X209065000Y-130758665D01*
X209065000Y-131041335D01*
X209120147Y-131318574D01*
X209228320Y-131579727D01*
X209385363Y-131814759D01*
X209585241Y-132014637D01*
X209820273Y-132171680D01*
X210081426Y-132279853D01*
X210358665Y-132335000D01*
X210641335Y-132335000D01*
X210918574Y-132279853D01*
X211179727Y-132171680D01*
X211414759Y-132014637D01*
X211614637Y-131814759D01*
X211771680Y-131579727D01*
X211879853Y-131318574D01*
X211935000Y-131041335D01*
X211935000Y-130758665D01*
X211879853Y-130481426D01*
X211771680Y-130220273D01*
X211614637Y-129985241D01*
X211414759Y-129785363D01*
X211260000Y-129681957D01*
X211260000Y-126127322D01*
X211263676Y-126089999D01*
X211260000Y-126052676D01*
X211260000Y-126052667D01*
X211249003Y-125941014D01*
X211205546Y-125797753D01*
X211134974Y-125665724D01*
X211040001Y-125549999D01*
X211011003Y-125526201D01*
X206648688Y-121163887D01*
X206685000Y-120981335D01*
X206685000Y-120698665D01*
X206665109Y-120598665D01*
X209065000Y-120598665D01*
X209065000Y-120881335D01*
X209120147Y-121158574D01*
X209228320Y-121419727D01*
X209385363Y-121654759D01*
X209585241Y-121854637D01*
X209820273Y-122011680D01*
X210081426Y-122119853D01*
X210358665Y-122175000D01*
X210641335Y-122175000D01*
X210823887Y-122138688D01*
X216640001Y-127954803D01*
X216640000Y-129681956D01*
X216485241Y-129785363D01*
X216285363Y-129985241D01*
X216128320Y-130220273D01*
X216020147Y-130481426D01*
X215965000Y-130758665D01*
X215965000Y-131041335D01*
X216020147Y-131318574D01*
X216128320Y-131579727D01*
X216285363Y-131814759D01*
X216485241Y-132014637D01*
X216720273Y-132171680D01*
X216981426Y-132279853D01*
X217258665Y-132335000D01*
X217541335Y-132335000D01*
X217818574Y-132279853D01*
X218079727Y-132171680D01*
X218314759Y-132014637D01*
X218514637Y-131814759D01*
X218671680Y-131579727D01*
X218779853Y-131318574D01*
X218835000Y-131041335D01*
X218835000Y-130758665D01*
X218779853Y-130481426D01*
X218671680Y-130220273D01*
X218514637Y-129985241D01*
X218314759Y-129785363D01*
X218160000Y-129681957D01*
X218160000Y-127677333D01*
X218163677Y-127640000D01*
X218149003Y-127491014D01*
X218105546Y-127347753D01*
X218034974Y-127215724D01*
X217963799Y-127128997D01*
X217940001Y-127099999D01*
X217911003Y-127076201D01*
X211898688Y-121063887D01*
X211935000Y-120881335D01*
X211935000Y-120598665D01*
X215965000Y-120598665D01*
X215965000Y-120881335D01*
X216020147Y-121158574D01*
X216128320Y-121419727D01*
X216285363Y-121654759D01*
X216485241Y-121854637D01*
X216645203Y-121961520D01*
X216650144Y-122011680D01*
X216650998Y-122020355D01*
X216694454Y-122163616D01*
X216765026Y-122295646D01*
X216836201Y-122382372D01*
X216860000Y-122411371D01*
X216888998Y-122435169D01*
X220714831Y-126261003D01*
X220738629Y-126290001D01*
X220767627Y-126313799D01*
X220854353Y-126384974D01*
X220966653Y-126445000D01*
X220986383Y-126455546D01*
X221098391Y-126489523D01*
X220973501Y-126514365D01*
X220645012Y-126650429D01*
X220349379Y-126847965D01*
X220097965Y-127099379D01*
X219900429Y-127395012D01*
X219764365Y-127723501D01*
X219695000Y-128072223D01*
X219695000Y-128427777D01*
X219764365Y-128776499D01*
X219900429Y-129104988D01*
X220097965Y-129400621D01*
X220349379Y-129652035D01*
X220645012Y-129849571D01*
X220973501Y-129985635D01*
X221322223Y-130055000D01*
X221677777Y-130055000D01*
X222026499Y-129985635D01*
X222354988Y-129849571D01*
X222650621Y-129652035D01*
X222902035Y-129400621D01*
X223099571Y-129104988D01*
X223235635Y-128776499D01*
X223305000Y-128427777D01*
X223305000Y-128072223D01*
X223235635Y-127723501D01*
X223099571Y-127395012D01*
X222902035Y-127099379D01*
X222650621Y-126847965D01*
X222354988Y-126650429D01*
X222026499Y-126514365D01*
X222004555Y-126510000D01*
X229861084Y-126510000D01*
X229900429Y-126604988D01*
X230097965Y-126900621D01*
X230349379Y-127152035D01*
X230645012Y-127349571D01*
X230973501Y-127485635D01*
X231322223Y-127555000D01*
X231677777Y-127555000D01*
X232026499Y-127485635D01*
X232354988Y-127349571D01*
X232449999Y-127286086D01*
X232450000Y-140892666D01*
X232446323Y-140929999D01*
X232460997Y-141078984D01*
X232504453Y-141222245D01*
X232575025Y-141354275D01*
X232646200Y-141441001D01*
X232669999Y-141470000D01*
X232698997Y-141493798D01*
X233851928Y-142646730D01*
X233851928Y-143620000D01*
X233864188Y-143744482D01*
X233900498Y-143864180D01*
X233959463Y-143974494D01*
X234038815Y-144071185D01*
X234135506Y-144150537D01*
X234245820Y-144209502D01*
X234256735Y-144212813D01*
X234209970Y-144259578D01*
X234325918Y-144375526D01*
X234071739Y-144459208D01*
X233940842Y-144731775D01*
X233865635Y-145024642D01*
X233849009Y-145326553D01*
X233891603Y-145625907D01*
X233991778Y-145911199D01*
X234071739Y-146060792D01*
X234325920Y-146144475D01*
X235210395Y-145260000D01*
X235196253Y-145245858D01*
X235375858Y-145066253D01*
X235390000Y-145080395D01*
X235404143Y-145066253D01*
X235583748Y-145245858D01*
X235569605Y-145260000D01*
X236454080Y-146144475D01*
X236708261Y-146060792D01*
X236839158Y-145788225D01*
X236914365Y-145495358D01*
X236930991Y-145193447D01*
X236888397Y-144894093D01*
X236788222Y-144608801D01*
X236708261Y-144459208D01*
X236454082Y-144375526D01*
X236570030Y-144259578D01*
X236523265Y-144212813D01*
X236534180Y-144209502D01*
X236644494Y-144150537D01*
X236741185Y-144071185D01*
X236820537Y-143974494D01*
X236879502Y-143864180D01*
X236915812Y-143744482D01*
X236928072Y-143620000D01*
X236928072Y-141820000D01*
X236915812Y-141695518D01*
X236879502Y-141575820D01*
X236820537Y-141465506D01*
X236741185Y-141368815D01*
X236644494Y-141289463D01*
X236534180Y-141230498D01*
X236414482Y-141194188D01*
X236290000Y-141181928D01*
X234536729Y-141181928D01*
X233969999Y-140615198D01*
X233969999Y-139108665D01*
X234065000Y-139108665D01*
X234065000Y-139391335D01*
X234120147Y-139668574D01*
X234228320Y-139929727D01*
X234385363Y-140164759D01*
X234585241Y-140364637D01*
X234820273Y-140521680D01*
X235081426Y-140629853D01*
X235358665Y-140685000D01*
X235641335Y-140685000D01*
X235918574Y-140629853D01*
X236179727Y-140521680D01*
X236414759Y-140364637D01*
X236614637Y-140164759D01*
X236771680Y-139929727D01*
X236879853Y-139668574D01*
X236935000Y-139391335D01*
X236935000Y-139108665D01*
X236879853Y-138831426D01*
X236771680Y-138570273D01*
X236614637Y-138335241D01*
X236414759Y-138135363D01*
X236179727Y-137978320D01*
X235918574Y-137870147D01*
X235641335Y-137815000D01*
X235358665Y-137815000D01*
X235081426Y-137870147D01*
X234820273Y-137978320D01*
X234585241Y-138135363D01*
X234385363Y-138335241D01*
X234228320Y-138570273D01*
X234120147Y-138831426D01*
X234065000Y-139108665D01*
X233969999Y-139108665D01*
X233969999Y-134108665D01*
X234065000Y-134108665D01*
X234065000Y-134391335D01*
X234120147Y-134668574D01*
X234228320Y-134929727D01*
X234385363Y-135164759D01*
X234585241Y-135364637D01*
X234820273Y-135521680D01*
X235081426Y-135629853D01*
X235358665Y-135685000D01*
X235641335Y-135685000D01*
X235918574Y-135629853D01*
X236179727Y-135521680D01*
X236414759Y-135364637D01*
X236614637Y-135164759D01*
X236771680Y-134929727D01*
X236879853Y-134668574D01*
X236935000Y-134391335D01*
X236935000Y-134108665D01*
X236879853Y-133831426D01*
X236771680Y-133570273D01*
X236614637Y-133335241D01*
X236414759Y-133135363D01*
X236179727Y-132978320D01*
X235918574Y-132870147D01*
X235641335Y-132815000D01*
X235358665Y-132815000D01*
X235081426Y-132870147D01*
X234820273Y-132978320D01*
X234585241Y-133135363D01*
X234385363Y-133335241D01*
X234228320Y-133570273D01*
X234120147Y-133831426D01*
X234065000Y-134108665D01*
X233969999Y-134108665D01*
X233969999Y-130858665D01*
X234065000Y-130858665D01*
X234065000Y-131141335D01*
X234120147Y-131418574D01*
X234228320Y-131679727D01*
X234385363Y-131914759D01*
X234585241Y-132114637D01*
X234820273Y-132271680D01*
X235081426Y-132379853D01*
X235358665Y-132435000D01*
X235641335Y-132435000D01*
X235918574Y-132379853D01*
X236179727Y-132271680D01*
X236414759Y-132114637D01*
X236614637Y-131914759D01*
X236771680Y-131679727D01*
X236879853Y-131418574D01*
X236935000Y-131141335D01*
X236935000Y-130858665D01*
X236879853Y-130581426D01*
X236771680Y-130320273D01*
X236614637Y-130085241D01*
X236414759Y-129885363D01*
X236179727Y-129728320D01*
X235918574Y-129620147D01*
X235641335Y-129565000D01*
X235358665Y-129565000D01*
X235081426Y-129620147D01*
X234820273Y-129728320D01*
X234585241Y-129885363D01*
X234385363Y-130085241D01*
X234228320Y-130320273D01*
X234120147Y-130581426D01*
X234065000Y-130858665D01*
X233969999Y-130858665D01*
X233969999Y-120698665D01*
X234065000Y-120698665D01*
X234065000Y-120981335D01*
X234120147Y-121258574D01*
X234228320Y-121519727D01*
X234385363Y-121754759D01*
X234585241Y-121954637D01*
X234820273Y-122111680D01*
X235081426Y-122219853D01*
X235358665Y-122275000D01*
X235641335Y-122275000D01*
X235918574Y-122219853D01*
X236179727Y-122111680D01*
X236414759Y-121954637D01*
X236614637Y-121754759D01*
X236771680Y-121519727D01*
X236879853Y-121258574D01*
X236935000Y-120981335D01*
X236935000Y-120698665D01*
X236879853Y-120421426D01*
X236771680Y-120160273D01*
X236614637Y-119925241D01*
X236414759Y-119725363D01*
X236179727Y-119568320D01*
X235918574Y-119460147D01*
X235641335Y-119405000D01*
X235358665Y-119405000D01*
X235081426Y-119460147D01*
X234820273Y-119568320D01*
X234585241Y-119725363D01*
X234385363Y-119925241D01*
X234228320Y-120160273D01*
X234120147Y-120421426D01*
X234065000Y-120698665D01*
X233969999Y-120698665D01*
X233969999Y-115337321D01*
X233973675Y-115299998D01*
X233969999Y-115262675D01*
X233969999Y-115262666D01*
X233959002Y-115151013D01*
X233915545Y-115007752D01*
X233844973Y-114875723D01*
X233824296Y-114850528D01*
X233807467Y-114830022D01*
X233845000Y-114641335D01*
X233845000Y-114358665D01*
X233789853Y-114081426D01*
X233681680Y-113820273D01*
X233524637Y-113585241D01*
X233324759Y-113385363D01*
X233089727Y-113228320D01*
X232828574Y-113120147D01*
X232551335Y-113065000D01*
X232268665Y-113065000D01*
X231991426Y-113120147D01*
X231730273Y-113228320D01*
X231495241Y-113385363D01*
X231295363Y-113585241D01*
X231138320Y-113820273D01*
X231030147Y-114081426D01*
X230975000Y-114358665D01*
X230975000Y-114641335D01*
X231030147Y-114918574D01*
X231138320Y-115179727D01*
X231295363Y-115414759D01*
X231495241Y-115614637D01*
X231730273Y-115771680D01*
X231991426Y-115879853D01*
X232268665Y-115935000D01*
X232449999Y-115935000D01*
X232449999Y-124213914D01*
X232354988Y-124150429D01*
X232026499Y-124014365D01*
X231677777Y-123945000D01*
X231322223Y-123945000D01*
X230973501Y-124014365D01*
X230645012Y-124150429D01*
X230349379Y-124347965D01*
X230097965Y-124599379D01*
X229900429Y-124895012D01*
X229861084Y-124990000D01*
X222004555Y-124990000D01*
X222026499Y-124985635D01*
X222354988Y-124849571D01*
X222650621Y-124652035D01*
X222902035Y-124400621D01*
X223099571Y-124104988D01*
X223235635Y-123776499D01*
X223305000Y-123427777D01*
X223305000Y-123072223D01*
X223235635Y-122723501D01*
X223099571Y-122395012D01*
X222902035Y-122099379D01*
X222650621Y-121847965D01*
X222354988Y-121650429D01*
X222026499Y-121514365D01*
X221677777Y-121445000D01*
X221322223Y-121445000D01*
X220973501Y-121514365D01*
X220645012Y-121650429D01*
X220349379Y-121847965D01*
X220097965Y-122099379D01*
X219900429Y-122395012D01*
X219764365Y-122723501D01*
X219695000Y-123072223D01*
X219695000Y-123091569D01*
X218386414Y-121782982D01*
X218514637Y-121654759D01*
X218671680Y-121419727D01*
X218779853Y-121158574D01*
X218835000Y-120881335D01*
X218835000Y-120598665D01*
X218779853Y-120321426D01*
X218671680Y-120060273D01*
X218514637Y-119825241D01*
X218314759Y-119625363D01*
X218079727Y-119468320D01*
X217818574Y-119360147D01*
X217541335Y-119305000D01*
X217258665Y-119305000D01*
X216981426Y-119360147D01*
X216720273Y-119468320D01*
X216485241Y-119625363D01*
X216285363Y-119825241D01*
X216128320Y-120060273D01*
X216020147Y-120321426D01*
X215965000Y-120598665D01*
X211935000Y-120598665D01*
X211879853Y-120321426D01*
X211771680Y-120060273D01*
X211614637Y-119825241D01*
X211414759Y-119625363D01*
X211179727Y-119468320D01*
X210918574Y-119360147D01*
X210641335Y-119305000D01*
X210358665Y-119305000D01*
X210081426Y-119360147D01*
X209820273Y-119468320D01*
X209585241Y-119625363D01*
X209385363Y-119825241D01*
X209228320Y-120060273D01*
X209120147Y-120321426D01*
X209065000Y-120598665D01*
X206665109Y-120598665D01*
X206629853Y-120421426D01*
X206521680Y-120160273D01*
X206364637Y-119925241D01*
X206164759Y-119725363D01*
X205929727Y-119568320D01*
X205668574Y-119460147D01*
X205391335Y-119405000D01*
X205108665Y-119405000D01*
X204831426Y-119460147D01*
X204570273Y-119568320D01*
X204335241Y-119725363D01*
X204135363Y-119925241D01*
X203978320Y-120160273D01*
X203870147Y-120421426D01*
X203815000Y-120698665D01*
X201435000Y-120698665D01*
X201379853Y-120421426D01*
X201271680Y-120160273D01*
X201114637Y-119925241D01*
X200914759Y-119725363D01*
X200679727Y-119568320D01*
X200418574Y-119460147D01*
X200141335Y-119405000D01*
X199858665Y-119405000D01*
X199581426Y-119460147D01*
X199320273Y-119568320D01*
X199085241Y-119725363D01*
X198885363Y-119925241D01*
X198728320Y-120160273D01*
X198620147Y-120421426D01*
X198565000Y-120698665D01*
X195935000Y-120698665D01*
X195879853Y-120421426D01*
X195771680Y-120160273D01*
X195614637Y-119925241D01*
X195414759Y-119725363D01*
X195179727Y-119568320D01*
X194918574Y-119460147D01*
X194641335Y-119405000D01*
X194358665Y-119405000D01*
X194081426Y-119460147D01*
X193820273Y-119568320D01*
X193585241Y-119725363D01*
X193385363Y-119925241D01*
X193228320Y-120160273D01*
X193120147Y-120421426D01*
X193065000Y-120698665D01*
X190935000Y-120698665D01*
X190879853Y-120421426D01*
X190771680Y-120160273D01*
X190614637Y-119925241D01*
X190414759Y-119725363D01*
X190179727Y-119568320D01*
X189918574Y-119460147D01*
X189641335Y-119405000D01*
X189358665Y-119405000D01*
X189081426Y-119460147D01*
X188820273Y-119568320D01*
X188585241Y-119725363D01*
X188385363Y-119925241D01*
X188228320Y-120160273D01*
X188120147Y-120421426D01*
X188065000Y-120698665D01*
X183935000Y-120698665D01*
X183879853Y-120421426D01*
X183771680Y-120160273D01*
X183614637Y-119925241D01*
X183414759Y-119725363D01*
X183179727Y-119568320D01*
X182918574Y-119460147D01*
X182641335Y-119405000D01*
X182358665Y-119405000D01*
X182081426Y-119460147D01*
X181820273Y-119568320D01*
X181585241Y-119725363D01*
X181385363Y-119925241D01*
X181228320Y-120160273D01*
X181120147Y-120421426D01*
X181065000Y-120698665D01*
X176435000Y-120698665D01*
X176379853Y-120421426D01*
X176271680Y-120160273D01*
X176114637Y-119925241D01*
X175914759Y-119725363D01*
X175679727Y-119568320D01*
X175418574Y-119460147D01*
X175141335Y-119405000D01*
X174858665Y-119405000D01*
X174581426Y-119460147D01*
X174320273Y-119568320D01*
X174085241Y-119725363D01*
X173885363Y-119925241D01*
X173728320Y-120160273D01*
X173620147Y-120421426D01*
X173565000Y-120698665D01*
X169435000Y-120698665D01*
X169379853Y-120421426D01*
X169271680Y-120160273D01*
X169114637Y-119925241D01*
X168914759Y-119725363D01*
X168679727Y-119568320D01*
X168418574Y-119460147D01*
X168141335Y-119405000D01*
X167858665Y-119405000D01*
X167581426Y-119460147D01*
X167320273Y-119568320D01*
X167085241Y-119725363D01*
X166885363Y-119925241D01*
X166728320Y-120160273D01*
X166620147Y-120421426D01*
X166565000Y-120698665D01*
X163935000Y-120698665D01*
X163879853Y-120421426D01*
X163771680Y-120160273D01*
X163614637Y-119925241D01*
X163414759Y-119725363D01*
X163179727Y-119568320D01*
X162918574Y-119460147D01*
X162641335Y-119405000D01*
X162358665Y-119405000D01*
X162081426Y-119460147D01*
X161820273Y-119568320D01*
X161585241Y-119725363D01*
X161385363Y-119925241D01*
X161228320Y-120160273D01*
X161120147Y-120421426D01*
X161065000Y-120698665D01*
X158935000Y-120698665D01*
X158879853Y-120421426D01*
X158771680Y-120160273D01*
X158614637Y-119925241D01*
X158414759Y-119725363D01*
X158179727Y-119568320D01*
X157918574Y-119460147D01*
X157641335Y-119405000D01*
X157358665Y-119405000D01*
X157081426Y-119460147D01*
X156820273Y-119568320D01*
X156585241Y-119725363D01*
X156385363Y-119925241D01*
X156228320Y-120160273D01*
X156120147Y-120421426D01*
X156065000Y-120698665D01*
X152085000Y-120698665D01*
X152085000Y-120548665D01*
X152029853Y-120271426D01*
X151921680Y-120010273D01*
X151764637Y-119775241D01*
X151564759Y-119575363D01*
X151329727Y-119418320D01*
X151068574Y-119310147D01*
X150816471Y-119260000D01*
X155462678Y-119260000D01*
X155500000Y-119263676D01*
X155537322Y-119260000D01*
X155537333Y-119260000D01*
X155648986Y-119249003D01*
X155792247Y-119205546D01*
X155924276Y-119134974D01*
X156040001Y-119040001D01*
X156063804Y-119010997D01*
X158279155Y-116795647D01*
X158415582Y-116868569D01*
X158586868Y-116920528D01*
X158765000Y-116938072D01*
X159315000Y-116938072D01*
X159493132Y-116920528D01*
X159664418Y-116868569D01*
X159822276Y-116784192D01*
X159960639Y-116670639D01*
X160074192Y-116532276D01*
X160158569Y-116374418D01*
X160210528Y-116203132D01*
X160228072Y-116025000D01*
X160228072Y-115914330D01*
X161449746Y-117136004D01*
X161473544Y-117165002D01*
X161589269Y-117259975D01*
X161721298Y-117330547D01*
X161864559Y-117374004D01*
X161976212Y-117385001D01*
X161976220Y-117385001D01*
X162013545Y-117388677D01*
X162050870Y-117385001D01*
X165877677Y-117385001D01*
X165914999Y-117388677D01*
X165952321Y-117385001D01*
X165952332Y-117385001D01*
X166063985Y-117374004D01*
X166207246Y-117330547D01*
X166339275Y-117259975D01*
X166455000Y-117165002D01*
X166478802Y-117135999D01*
X166805221Y-116809580D01*
X166915582Y-116868569D01*
X167086868Y-116920528D01*
X167265000Y-116938072D01*
X167815000Y-116938072D01*
X167993132Y-116920528D01*
X168164418Y-116868569D01*
X168322276Y-116784192D01*
X168460639Y-116670639D01*
X168574192Y-116532276D01*
X168658569Y-116374418D01*
X168710528Y-116203132D01*
X168728072Y-116025000D01*
X168728072Y-114775000D01*
X168710528Y-114596868D01*
X168658569Y-114425582D01*
X168574192Y-114267724D01*
X168460639Y-114129361D01*
X168322276Y-114015808D01*
X168164418Y-113931431D01*
X167993132Y-113879472D01*
X167815000Y-113861928D01*
X167458072Y-113861928D01*
X167458072Y-112864990D01*
X171790189Y-112864990D01*
X173811928Y-114886731D01*
X173811928Y-116300000D01*
X173824188Y-116424482D01*
X173860498Y-116544180D01*
X173919463Y-116654494D01*
X173998815Y-116751185D01*
X174095506Y-116830537D01*
X174205820Y-116889502D01*
X174325518Y-116925812D01*
X174450000Y-116938072D01*
X175550000Y-116938072D01*
X175674482Y-116925812D01*
X175794180Y-116889502D01*
X175807552Y-116882354D01*
X176061211Y-117136013D01*
X176085009Y-117165011D01*
X176200734Y-117259984D01*
X176332763Y-117330556D01*
X176476024Y-117374013D01*
X176587677Y-117385010D01*
X176587686Y-117385010D01*
X176625009Y-117388686D01*
X176662332Y-117385010D01*
X204247668Y-117385010D01*
X204284990Y-117388686D01*
X204322312Y-117385010D01*
X204322323Y-117385010D01*
X204433976Y-117374013D01*
X204577237Y-117330556D01*
X204709266Y-117259984D01*
X204824991Y-117165011D01*
X204848794Y-117136007D01*
X206086114Y-115898688D01*
X206268665Y-115935000D01*
X206551335Y-115935000D01*
X206828574Y-115879853D01*
X207089727Y-115771680D01*
X207324759Y-115614637D01*
X207524637Y-115414759D01*
X207681680Y-115179727D01*
X207789853Y-114918574D01*
X207830000Y-114716744D01*
X207870147Y-114918574D01*
X207978320Y-115179727D01*
X208135363Y-115414759D01*
X208335241Y-115614637D01*
X208570273Y-115771680D01*
X208831426Y-115879853D01*
X209108665Y-115935000D01*
X209391335Y-115935000D01*
X209668574Y-115879853D01*
X209929727Y-115771680D01*
X210164759Y-115614637D01*
X210364637Y-115414759D01*
X210521680Y-115179727D01*
X210629853Y-114918574D01*
X210685000Y-114641335D01*
X210685000Y-114358665D01*
X210640509Y-114134999D01*
X217970198Y-114134999D01*
X218011312Y-114176113D01*
X217975000Y-114358665D01*
X217975000Y-114641335D01*
X218030147Y-114918574D01*
X218138320Y-115179727D01*
X218295363Y-115414759D01*
X218495241Y-115614637D01*
X218730273Y-115771680D01*
X218991426Y-115879853D01*
X219268665Y-115935000D01*
X219551335Y-115935000D01*
X219828574Y-115879853D01*
X220089727Y-115771680D01*
X220324759Y-115614637D01*
X220524637Y-115414759D01*
X220628043Y-115260000D01*
X221031957Y-115260000D01*
X221135363Y-115414759D01*
X221335241Y-115614637D01*
X221570273Y-115771680D01*
X221831426Y-115879853D01*
X222108665Y-115935000D01*
X222391335Y-115935000D01*
X222668574Y-115879853D01*
X222929727Y-115771680D01*
X223164759Y-115614637D01*
X223364637Y-115414759D01*
X223521680Y-115179727D01*
X223629853Y-114918574D01*
X223685000Y-114641335D01*
X223685000Y-114358665D01*
X223629853Y-114081426D01*
X223521680Y-113820273D01*
X223364637Y-113585241D01*
X223164759Y-113385363D01*
X222929727Y-113228320D01*
X222668574Y-113120147D01*
X222391335Y-113065000D01*
X222108665Y-113065000D01*
X221831426Y-113120147D01*
X221570273Y-113228320D01*
X221335241Y-113385363D01*
X221135363Y-113585241D01*
X221031957Y-113740000D01*
X220628043Y-113740000D01*
X220524637Y-113585241D01*
X220324759Y-113385363D01*
X220089727Y-113228320D01*
X219828574Y-113120147D01*
X219551335Y-113065000D01*
X219268665Y-113065000D01*
X219086113Y-113101312D01*
X218848803Y-112864001D01*
X218825000Y-112834998D01*
X218709275Y-112740025D01*
X218577246Y-112669453D01*
X218433985Y-112625996D01*
X218322332Y-112614999D01*
X218322321Y-112614999D01*
X218284999Y-112611323D01*
X218247677Y-112614999D01*
X177449208Y-112614999D01*
X177440528Y-112526868D01*
X177388569Y-112355582D01*
X177304192Y-112197724D01*
X177190639Y-112059361D01*
X177052276Y-111945808D01*
X176894418Y-111861431D01*
X176723132Y-111809472D01*
X176545000Y-111791928D01*
X175995000Y-111791928D01*
X175816868Y-111809472D01*
X175645582Y-111861431D01*
X175535222Y-111920420D01*
X174758784Y-111143982D01*
X174734981Y-111114979D01*
X174619256Y-111020006D01*
X174487227Y-110949434D01*
X174343966Y-110905977D01*
X174232313Y-110894980D01*
X174232302Y-110894980D01*
X174194980Y-110891304D01*
X174157658Y-110894980D01*
X149233809Y-110894980D01*
X149196476Y-110891303D01*
X149159143Y-110894980D01*
X149047490Y-110905977D01*
X148904229Y-110949434D01*
X148772200Y-111020006D01*
X148656475Y-111114979D01*
X148632677Y-111143977D01*
X147489003Y-112287652D01*
X147459999Y-112311455D01*
X147419728Y-112360526D01*
X147365026Y-112427180D01*
X147311741Y-112526868D01*
X147294454Y-112559210D01*
X147250997Y-112702471D01*
X147240000Y-112814124D01*
X147240000Y-112814134D01*
X147236324Y-112851456D01*
X147240000Y-112888779D01*
X147240000Y-113900129D01*
X147205820Y-113910498D01*
X147095506Y-113969463D01*
X146998815Y-114048815D01*
X146919463Y-114145506D01*
X146860498Y-114255820D01*
X146824188Y-114375518D01*
X146811928Y-114500000D01*
X146811928Y-116300000D01*
X146824188Y-116424482D01*
X146860498Y-116544180D01*
X146919463Y-116654494D01*
X146998815Y-116751185D01*
X147095506Y-116830537D01*
X147205820Y-116889502D01*
X147325518Y-116925812D01*
X147450000Y-116938072D01*
X148550000Y-116938072D01*
X148674482Y-116925812D01*
X148794180Y-116889502D01*
X148904494Y-116830537D01*
X149001185Y-116751185D01*
X149080537Y-116654494D01*
X149139502Y-116544180D01*
X149175812Y-116424482D01*
X149188072Y-116300000D01*
X149188072Y-114868072D01*
X149351928Y-114868072D01*
X149351928Y-116025000D01*
X149369472Y-116203132D01*
X149421431Y-116374418D01*
X149505808Y-116532276D01*
X149619361Y-116670639D01*
X149757724Y-116784192D01*
X149915582Y-116868569D01*
X150086868Y-116920528D01*
X150265000Y-116938072D01*
X150815000Y-116938072D01*
X150993132Y-116920528D01*
X151164418Y-116868569D01*
X151322276Y-116784192D01*
X151460639Y-116670639D01*
X151574192Y-116532276D01*
X151658569Y-116374418D01*
X151710528Y-116203132D01*
X151728072Y-116025000D01*
X151728072Y-114775000D01*
X151710528Y-114596868D01*
X151681144Y-114500000D01*
X155311928Y-114500000D01*
X155315000Y-115114250D01*
X155473750Y-115273000D01*
X156373000Y-115273000D01*
X156373000Y-114023750D01*
X156214250Y-113865000D01*
X155950000Y-113861928D01*
X155825518Y-113874188D01*
X155705820Y-113910498D01*
X155595506Y-113969463D01*
X155498815Y-114048815D01*
X155419463Y-114145506D01*
X155360498Y-114255820D01*
X155324188Y-114375518D01*
X155311928Y-114500000D01*
X151681144Y-114500000D01*
X151658569Y-114425582D01*
X151574192Y-114267724D01*
X151460639Y-114129361D01*
X151322276Y-114015808D01*
X151164418Y-113931431D01*
X150993132Y-113879472D01*
X150815000Y-113861928D01*
X150458072Y-113861928D01*
X150458072Y-113616729D01*
X151209812Y-112864990D01*
X156581928Y-112864990D01*
X156581928Y-113955000D01*
X156599472Y-114133132D01*
X156627000Y-114223880D01*
X156627000Y-115273000D01*
X156647000Y-115273000D01*
X156647000Y-115527000D01*
X156627000Y-115527000D01*
X156627000Y-115547000D01*
X156373000Y-115547000D01*
X156373000Y-115527000D01*
X155473750Y-115527000D01*
X155315000Y-115685750D01*
X155311928Y-116300000D01*
X155324188Y-116424482D01*
X155360498Y-116544180D01*
X155419463Y-116654494D01*
X155498815Y-116751185D01*
X155595506Y-116830537D01*
X155705820Y-116889502D01*
X155825518Y-116925812D01*
X155950000Y-116938072D01*
X155987563Y-116937635D01*
X155185199Y-117740000D01*
X150037322Y-117740000D01*
X149999999Y-117736324D01*
X149962676Y-117740000D01*
X149962667Y-117740000D01*
X149851014Y-117750997D01*
X149707753Y-117794454D01*
X149575723Y-117865026D01*
X149492083Y-117933668D01*
X149459999Y-117959999D01*
X149436201Y-117988997D01*
X143063271Y-124361928D01*
X143000000Y-124361928D01*
X142777973Y-124383796D01*
X142564479Y-124448559D01*
X142367721Y-124553728D01*
X142195262Y-124695262D01*
X142053728Y-124867721D01*
X141948559Y-125064479D01*
X141883796Y-125277973D01*
X141861928Y-125500000D01*
X139995345Y-125500000D01*
X139995345Y-110444157D01*
X140002859Y-110294445D01*
X140020637Y-110177365D01*
X140073864Y-109988973D01*
X140149173Y-109821847D01*
X140247234Y-109668621D01*
X140366020Y-109531444D01*
X140503253Y-109412693D01*
X140656562Y-109314649D01*
X140823784Y-109239348D01*
X141012260Y-109186133D01*
X141129418Y-109168354D01*
X141279161Y-109160843D01*
X141289056Y-109160843D01*
X141075649Y-109249239D01*
X140770556Y-109453096D01*
X140511095Y-109712557D01*
X140307238Y-110017650D01*
X140166819Y-110356652D01*
X140095234Y-110716534D01*
X140095234Y-111083466D01*
X140166819Y-111443348D01*
X140307238Y-111782350D01*
X140511095Y-112087443D01*
X140770556Y-112346904D01*
X141075649Y-112550761D01*
X141414651Y-112691180D01*
X141774533Y-112762765D01*
X142141465Y-112762765D01*
X142501347Y-112691180D01*
X142840349Y-112550761D01*
X143145442Y-112346904D01*
X143404903Y-112087443D01*
X143608760Y-111782350D01*
X143749179Y-111443348D01*
X143820764Y-111083466D01*
X143820764Y-110716534D01*
X143749179Y-110356652D01*
X143608760Y-110017650D01*
X143404903Y-109712557D01*
X143145442Y-109453096D01*
X142840349Y-109249239D01*
X142626942Y-109160843D01*
X161992879Y-109160843D01*
X162028984Y-109164399D01*
X162065089Y-109160843D01*
X162173069Y-109150208D01*
X162311617Y-109108180D01*
X162439304Y-109039930D01*
X162551222Y-108948081D01*
X162643071Y-108836163D01*
X162645944Y-108830788D01*
X162807386Y-108798675D01*
X162968002Y-108732146D01*
X163049952Y-108677389D01*
X163131902Y-108732146D01*
X163292518Y-108798675D01*
X163463027Y-108832592D01*
X163636877Y-108832592D01*
X163807386Y-108798675D01*
X163968002Y-108732146D01*
X164074952Y-108660684D01*
X164181902Y-108732146D01*
G37*
%TD.AperFunction*%
D21*
X165081928Y-113955000D02*
X165099472Y-114133132D01*
X165127000Y-114223880D01*
X165127000Y-115273000D01*
X165147000Y-115273000D01*
X165147000Y-115527000D01*
X165127000Y-115527000D01*
X165127000Y-115547000D01*
X164873000Y-115547000D01*
X164873000Y-115527000D01*
X163973750Y-115527000D01*
X163815000Y-115685750D01*
X163814104Y-115865001D01*
X162328347Y-115865001D01*
X160963346Y-114500000D01*
X163811928Y-114500000D01*
X163815000Y-115114250D01*
X163973750Y-115273000D01*
X164873000Y-115273000D01*
X164873000Y-114023750D01*
X164714250Y-113865000D01*
X164450000Y-113861928D01*
X164325518Y-113874188D01*
X164205820Y-113910498D01*
X164095506Y-113969463D01*
X163998815Y-114048815D01*
X163919463Y-114145506D01*
X163860498Y-114255820D01*
X163824188Y-114375518D01*
X163811928Y-114500000D01*
X160963346Y-114500000D01*
X159682348Y-113219003D01*
X159658545Y-113189999D01*
X159542820Y-113095026D01*
X159410791Y-113024454D01*
X159267530Y-112980997D01*
X159155877Y-112970000D01*
X159155866Y-112970000D01*
X159118544Y-112966324D01*
X159081222Y-112970000D01*
X158958072Y-112970000D01*
X158958072Y-112864990D01*
X165081928Y-112864990D01*
X165081928Y-113955000D01*
%TA.AperFunction,Conductor*%
D22*
G36*
X165081928Y-113955000D02*
G01*
X165099472Y-114133132D01*
X165127000Y-114223880D01*
X165127000Y-115273000D01*
X165147000Y-115273000D01*
X165147000Y-115527000D01*
X165127000Y-115527000D01*
X165127000Y-115547000D01*
X164873000Y-115547000D01*
X164873000Y-115527000D01*
X163973750Y-115527000D01*
X163815000Y-115685750D01*
X163814104Y-115865001D01*
X162328347Y-115865001D01*
X160963346Y-114500000D01*
X163811928Y-114500000D01*
X163815000Y-115114250D01*
X163973750Y-115273000D01*
X164873000Y-115273000D01*
X164873000Y-114023750D01*
X164714250Y-113865000D01*
X164450000Y-113861928D01*
X164325518Y-113874188D01*
X164205820Y-113910498D01*
X164095506Y-113969463D01*
X163998815Y-114048815D01*
X163919463Y-114145506D01*
X163860498Y-114255820D01*
X163824188Y-114375518D01*
X163811928Y-114500000D01*
X160963346Y-114500000D01*
X159682348Y-113219003D01*
X159658545Y-113189999D01*
X159542820Y-113095026D01*
X159410791Y-113024454D01*
X159267530Y-112980997D01*
X159155877Y-112970000D01*
X159155866Y-112970000D01*
X159118544Y-112966324D01*
X159081222Y-112970000D01*
X158958072Y-112970000D01*
X158958072Y-112864990D01*
X165081928Y-112864990D01*
X165081928Y-113955000D01*
G37*
%TD.AperFunction*%
%TD*%
D21*
%TO.N,Net-(J3-Pad1)*%
X229221541Y-97070150D02*
X229285217Y-97072981D01*
X229449403Y-97105354D01*
X229590800Y-97166488D01*
X229714808Y-97254581D01*
X229817896Y-97366098D01*
X229896375Y-97497320D01*
X229954082Y-97666247D01*
X229960024Y-97685834D01*
X229983461Y-97729681D01*
X230015002Y-97768114D01*
X230053435Y-97799655D01*
X230097283Y-97823092D01*
X230144861Y-97837525D01*
X230194339Y-97842398D01*
X230215005Y-97840363D01*
X237332332Y-99142631D01*
X237355273Y-99149590D01*
X237372922Y-99151328D01*
X237528471Y-99175569D01*
X237768927Y-99228950D01*
X237958285Y-99282410D01*
X238148442Y-99346608D01*
X238329357Y-99419503D01*
X238489404Y-99497594D01*
X238659903Y-99606362D01*
X238746958Y-99691692D01*
X238768353Y-99749135D01*
X238711124Y-99833808D01*
X238580363Y-99933000D01*
X238378635Y-100040481D01*
X238202724Y-100114193D01*
X238012809Y-100180501D01*
X237820940Y-100236493D01*
X237574334Y-100293573D01*
X237358155Y-100327802D01*
X237340806Y-100329511D01*
X237314828Y-100337391D01*
X230201581Y-101603862D01*
X230183486Y-101602080D01*
X230134007Y-101606953D01*
X230086429Y-101621386D01*
X230042582Y-101644823D01*
X230004149Y-101676364D01*
X229972608Y-101714797D01*
X229949171Y-101758645D01*
X229934738Y-101806223D01*
X229934466Y-101808981D01*
X229922698Y-101851052D01*
X229856216Y-101999580D01*
X229766125Y-102123341D01*
X229652768Y-102226000D01*
X229520125Y-102303649D01*
X229371876Y-102352722D01*
X229196917Y-102371181D01*
X226772021Y-102365499D01*
X226766559Y-100550000D01*
X227611928Y-100550000D01*
X227624188Y-100674482D01*
X227660498Y-100794180D01*
X227719463Y-100904494D01*
X227798815Y-101001185D01*
X227895506Y-101080537D01*
X228005820Y-101139502D01*
X228125518Y-101175812D01*
X228250000Y-101188072D01*
X228814250Y-101185000D01*
X228973000Y-101026250D01*
X228973000Y-99827000D01*
X229227000Y-99827000D01*
X229227000Y-101026250D01*
X229385750Y-101185000D01*
X229950000Y-101188072D01*
X230074482Y-101175812D01*
X230194180Y-101139502D01*
X230304494Y-101080537D01*
X230401185Y-101001185D01*
X230480537Y-100904494D01*
X230539502Y-100794180D01*
X230575812Y-100674482D01*
X230588072Y-100550000D01*
X230585000Y-99985750D01*
X230426250Y-99827000D01*
X229227000Y-99827000D01*
X228973000Y-99827000D01*
X227773750Y-99827000D01*
X227615000Y-99985750D01*
X227611928Y-100550000D01*
X226766559Y-100550000D01*
X226761444Y-98850000D01*
X227611928Y-98850000D01*
X227615000Y-99414250D01*
X227773750Y-99573000D01*
X228973000Y-99573000D01*
X228973000Y-98373750D01*
X229227000Y-98373750D01*
X229227000Y-99573000D01*
X230426250Y-99573000D01*
X230585000Y-99414250D01*
X230588072Y-98850000D01*
X230575812Y-98725518D01*
X230539502Y-98605820D01*
X230480537Y-98495506D01*
X230401185Y-98398815D01*
X230304494Y-98319463D01*
X230194180Y-98260498D01*
X230074482Y-98224188D01*
X229950000Y-98211928D01*
X229385750Y-98215000D01*
X229227000Y-98373750D01*
X228973000Y-98373750D01*
X228814250Y-98215000D01*
X228250000Y-98211928D01*
X228125518Y-98224188D01*
X228005820Y-98260498D01*
X227895506Y-98319463D01*
X227798815Y-98398815D01*
X227719463Y-98495506D01*
X227660498Y-98605820D01*
X227624188Y-98725518D01*
X227611928Y-98850000D01*
X226761444Y-98850000D01*
X226756068Y-97063803D01*
X229221541Y-97070150D01*
%TA.AperFunction,Conductor*%
D22*
G36*
X229221541Y-97070150D02*
G01*
X229285217Y-97072981D01*
X229449403Y-97105354D01*
X229590800Y-97166488D01*
X229714808Y-97254581D01*
X229817896Y-97366098D01*
X229896375Y-97497320D01*
X229954082Y-97666247D01*
X229960024Y-97685834D01*
X229983461Y-97729681D01*
X230015002Y-97768114D01*
X230053435Y-97799655D01*
X230097283Y-97823092D01*
X230144861Y-97837525D01*
X230194339Y-97842398D01*
X230215005Y-97840363D01*
X237332332Y-99142631D01*
X237355273Y-99149590D01*
X237372922Y-99151328D01*
X237528471Y-99175569D01*
X237768927Y-99228950D01*
X237958285Y-99282410D01*
X238148442Y-99346608D01*
X238329357Y-99419503D01*
X238489404Y-99497594D01*
X238659903Y-99606362D01*
X238746958Y-99691692D01*
X238768353Y-99749135D01*
X238711124Y-99833808D01*
X238580363Y-99933000D01*
X238378635Y-100040481D01*
X238202724Y-100114193D01*
X238012809Y-100180501D01*
X237820940Y-100236493D01*
X237574334Y-100293573D01*
X237358155Y-100327802D01*
X237340806Y-100329511D01*
X237314828Y-100337391D01*
X230201581Y-101603862D01*
X230183486Y-101602080D01*
X230134007Y-101606953D01*
X230086429Y-101621386D01*
X230042582Y-101644823D01*
X230004149Y-101676364D01*
X229972608Y-101714797D01*
X229949171Y-101758645D01*
X229934738Y-101806223D01*
X229934466Y-101808981D01*
X229922698Y-101851052D01*
X229856216Y-101999580D01*
X229766125Y-102123341D01*
X229652768Y-102226000D01*
X229520125Y-102303649D01*
X229371876Y-102352722D01*
X229196917Y-102371181D01*
X226772021Y-102365499D01*
X226766559Y-100550000D01*
X227611928Y-100550000D01*
X227624188Y-100674482D01*
X227660498Y-100794180D01*
X227719463Y-100904494D01*
X227798815Y-101001185D01*
X227895506Y-101080537D01*
X228005820Y-101139502D01*
X228125518Y-101175812D01*
X228250000Y-101188072D01*
X228814250Y-101185000D01*
X228973000Y-101026250D01*
X228973000Y-99827000D01*
X229227000Y-99827000D01*
X229227000Y-101026250D01*
X229385750Y-101185000D01*
X229950000Y-101188072D01*
X230074482Y-101175812D01*
X230194180Y-101139502D01*
X230304494Y-101080537D01*
X230401185Y-101001185D01*
X230480537Y-100904494D01*
X230539502Y-100794180D01*
X230575812Y-100674482D01*
X230588072Y-100550000D01*
X230585000Y-99985750D01*
X230426250Y-99827000D01*
X229227000Y-99827000D01*
X228973000Y-99827000D01*
X227773750Y-99827000D01*
X227615000Y-99985750D01*
X227611928Y-100550000D01*
X226766559Y-100550000D01*
X226761444Y-98850000D01*
X227611928Y-98850000D01*
X227615000Y-99414250D01*
X227773750Y-99573000D01*
X228973000Y-99573000D01*
X228973000Y-98373750D01*
X229227000Y-98373750D01*
X229227000Y-99573000D01*
X230426250Y-99573000D01*
X230585000Y-99414250D01*
X230588072Y-98850000D01*
X230575812Y-98725518D01*
X230539502Y-98605820D01*
X230480537Y-98495506D01*
X230401185Y-98398815D01*
X230304494Y-98319463D01*
X230194180Y-98260498D01*
X230074482Y-98224188D01*
X229950000Y-98211928D01*
X229385750Y-98215000D01*
X229227000Y-98373750D01*
X228973000Y-98373750D01*
X228814250Y-98215000D01*
X228250000Y-98211928D01*
X228125518Y-98224188D01*
X228005820Y-98260498D01*
X227895506Y-98319463D01*
X227798815Y-98398815D01*
X227719463Y-98495506D01*
X227660498Y-98605820D01*
X227624188Y-98725518D01*
X227611928Y-98850000D01*
X226761444Y-98850000D01*
X226756068Y-97063803D01*
X229221541Y-97070150D01*
G37*
%TD.AperFunction*%
%TD*%
M02*
