%TF.GenerationSoftware,KiCad,Pcbnew,5.1.8*%
%TF.CreationDate,2020-12-04T21:14:45+01:00*%
%TF.ProjectId,SawToothOrganDIP,53617754-6f6f-4746-984f-7267616e4449,rev?*%
%TF.SameCoordinates,Original*%
%TF.FileFunction,Profile,NP*%
%FSLAX46Y46*%
G04 Gerber Fmt 4.6, Leading zero omitted, Abs format (unit mm)*
G04 Created by KiCad (PCBNEW 5.1.8) date 2020-12-04 21:14:45*
%MOMM*%
%LPD*%
G01*
G04 APERTURE LIST*
%TA.AperFunction,Profile*%
%ADD10C,0.200000*%
%TD*%
G04 APERTURE END LIST*
D10*
X167029194Y-103379639D02*
X167029194Y-103379639D01*
X167029194Y-108425843D02*
X167029194Y-103379639D01*
X197224254Y-108425843D02*
X167029194Y-108425843D01*
X197224254Y-107595919D02*
X197224254Y-108425843D01*
X197224254Y-107375778D02*
X197224254Y-107595919D01*
X197224770Y-106529318D02*
X197224254Y-107375778D01*
X197224770Y-106215125D02*
X197224770Y-106529318D01*
X158499483Y-100107487D02*
X158499483Y-101773018D01*
X158499483Y-100000000D02*
X158500000Y-100000000D01*
X139260345Y-156426020D02*
X139270637Y-156631072D01*
X139270637Y-156631072D02*
X139300854Y-156830068D01*
X139300854Y-156830068D02*
X139381368Y-157115045D01*
X139381368Y-157115045D02*
X139501134Y-157380829D01*
X139501134Y-157380829D02*
X139656808Y-157624080D01*
X139656808Y-157624080D02*
X139845042Y-157841457D01*
X139845042Y-157841457D02*
X140062491Y-158029620D01*
X140062491Y-158029620D02*
X140305809Y-158185226D01*
X140305809Y-158185226D02*
X140571650Y-158304937D01*
X140571650Y-158304937D02*
X140856668Y-158385410D01*
X140856668Y-158385410D02*
X141055681Y-158415610D01*
X141055681Y-158415610D02*
X141260740Y-158425897D01*
X162028984Y-108425843D02*
X141260740Y-108425843D01*
X198083118Y-90869290D02*
X197876987Y-90894375D01*
X197876987Y-90894375D02*
X197656464Y-90986665D01*
X197656464Y-90986665D02*
X197475085Y-91136441D01*
X197475085Y-91136441D02*
X197343298Y-91332738D01*
X197343298Y-91332738D02*
X197278898Y-91523947D01*
X197278898Y-91523947D02*
X197261463Y-91690429D01*
X193966056Y-95084537D02*
X192957627Y-95136897D01*
X192957627Y-95136897D02*
X191942149Y-95186796D01*
X191942149Y-95186796D02*
X190919992Y-95234315D01*
X190919992Y-95234315D02*
X189891528Y-95279534D01*
X189891528Y-95279534D02*
X188857129Y-95322535D01*
X188857129Y-95322535D02*
X187817165Y-95363399D01*
X187817165Y-95363399D02*
X186772009Y-95402206D01*
X186772009Y-95402206D02*
X185722032Y-95439039D01*
X185722032Y-95439039D02*
X184667605Y-95473977D01*
X184667605Y-95473977D02*
X183609100Y-95507103D01*
X183609100Y-95507103D02*
X182546888Y-95538497D01*
X182546888Y-95538497D02*
X181481340Y-95568240D01*
X181481340Y-95568240D02*
X180412829Y-95596414D01*
X180412829Y-95596414D02*
X179341725Y-95623099D01*
X179341725Y-95623099D02*
X178268400Y-95648376D01*
X178268400Y-95648376D02*
X177193226Y-95672328D01*
X177193226Y-95672328D02*
X176116574Y-95695034D01*
X176116574Y-95695034D02*
X175038815Y-95716576D01*
X175038815Y-95716576D02*
X173960322Y-95737034D01*
X173960322Y-95737034D02*
X172881464Y-95756491D01*
X172881464Y-95756491D02*
X171802614Y-95775027D01*
X171802614Y-95775027D02*
X170724144Y-95792723D01*
X170724144Y-95792723D02*
X169646424Y-95809660D01*
X169646424Y-95809660D02*
X168569827Y-95825920D01*
X168569827Y-95825920D02*
X167494723Y-95841583D01*
X167494723Y-95841583D02*
X166421485Y-95856731D01*
X166421485Y-95856731D02*
X165350483Y-95871444D01*
X165350483Y-95871444D02*
X164282089Y-95885804D01*
X164282089Y-95885804D02*
X163216675Y-95899891D01*
X163216675Y-95899891D02*
X162154611Y-95913788D01*
X162154611Y-95913788D02*
X161096270Y-95927574D01*
X161096270Y-95927574D02*
X160042024Y-95941332D01*
X197261463Y-91690429D02*
X197253195Y-93070707D01*
X160042024Y-95941332D02*
X159807204Y-95961552D01*
X159807204Y-95961552D02*
X159584215Y-96014341D01*
X159584215Y-96014341D02*
X159375482Y-96097306D01*
X159375482Y-96097306D02*
X159183429Y-96208054D01*
X159183429Y-96208054D02*
X159010478Y-96344192D01*
X159010478Y-96344192D02*
X158859055Y-96503328D01*
X158859055Y-96503328D02*
X158731582Y-96683069D01*
X158731582Y-96683069D02*
X158630484Y-96881023D01*
X158630484Y-96881023D02*
X158558185Y-97094795D01*
X158558185Y-97094795D02*
X158517109Y-97321995D01*
X158517109Y-97321995D02*
X158508268Y-97479740D01*
X158508268Y-97479740D02*
X158501033Y-98556677D01*
X197253195Y-93070707D02*
X193966056Y-95084537D01*
X158501033Y-98556677D02*
X158499483Y-98556677D01*
X162028984Y-103224610D02*
X162028984Y-108425843D01*
X158499483Y-101773018D02*
X158535330Y-101986123D01*
X158535330Y-101986123D02*
X158599418Y-102187460D01*
X158599418Y-102187460D02*
X158689640Y-102375169D01*
X158689640Y-102375169D02*
X158803888Y-102547393D01*
X158803888Y-102547393D02*
X158940055Y-102702272D01*
X158940055Y-102702272D02*
X159096032Y-102837948D01*
X159096032Y-102837948D02*
X159269712Y-102952563D01*
X159269712Y-102952563D02*
X159458988Y-103044259D01*
X159458988Y-103044259D02*
X159661751Y-103111177D01*
X159661751Y-103111177D02*
X159875894Y-103151459D01*
X159875894Y-103151459D02*
X160023938Y-103162598D01*
X141260740Y-108425843D02*
X141055681Y-108436129D01*
X141055681Y-108436129D02*
X140856668Y-108466329D01*
X140856668Y-108466329D02*
X140571650Y-108546802D01*
X140571650Y-108546802D02*
X140305809Y-108666513D01*
X140305809Y-108666513D02*
X140062491Y-108822119D01*
X140062491Y-108822119D02*
X139845042Y-109010282D01*
X139845042Y-109010282D02*
X139656808Y-109227659D01*
X139656808Y-109227659D02*
X139501134Y-109470910D01*
X139501134Y-109470910D02*
X139381368Y-109736695D01*
X139381368Y-109736695D02*
X139300854Y-110021671D01*
X139300854Y-110021671D02*
X139270637Y-110220668D01*
X139270637Y-110220668D02*
X139260345Y-110425721D01*
X158499483Y-98556677D02*
X158499483Y-100000000D01*
X229227472Y-96817765D02*
X201123758Y-96745418D01*
X201134095Y-91699214D02*
X201108300Y-91493007D01*
X201108300Y-91493007D02*
X201034472Y-91306658D01*
X201034472Y-91306658D02*
X200891766Y-91117858D01*
X200891766Y-91117858D02*
X200700797Y-90977019D01*
X200700797Y-90977019D02*
X200513016Y-90903910D01*
X200513016Y-90903910D02*
X200306238Y-90877558D01*
X230194339Y-97579992D02*
X230194339Y-97588777D01*
X237404752Y-98899292D02*
X230194339Y-97579992D01*
X237404752Y-98900842D02*
X237404752Y-98899292D01*
X230194339Y-97588777D02*
X230126632Y-97390579D01*
X230126632Y-97390579D02*
X230021045Y-97214030D01*
X230021045Y-97214030D02*
X229882353Y-97063998D01*
X229882353Y-97063998D02*
X229715332Y-96945350D01*
X229715332Y-96945350D02*
X229524756Y-96862952D01*
X229524756Y-96862952D02*
X229315402Y-96821673D01*
X229315402Y-96821673D02*
X229227472Y-96817765D01*
X237390284Y-100580326D02*
X237390284Y-100578259D01*
X230183486Y-101863452D02*
X237390284Y-100580326D01*
X230183486Y-101855701D02*
X230183486Y-101863452D01*
X139260345Y-110425721D02*
X139260345Y-156426020D01*
X193939701Y-104183724D02*
X197224770Y-106215125D01*
X201112908Y-102558500D02*
X201112908Y-102558500D01*
X201096887Y-107375778D02*
X201112908Y-102558500D01*
X201098953Y-107375778D02*
X201096887Y-107375778D01*
X201098953Y-108425843D02*
X201098953Y-107375778D01*
X222457342Y-108425843D02*
X201098953Y-108425843D01*
X222457342Y-102608110D02*
X222457342Y-108425843D01*
X201112908Y-102558500D02*
X222457342Y-102608110D01*
X167029194Y-103379639D02*
X167883513Y-103406256D01*
X167883513Y-103406256D02*
X168738292Y-103432888D01*
X168738292Y-103432888D02*
X169593398Y-103459522D01*
X169593398Y-103459522D02*
X170448699Y-103486148D01*
X170448699Y-103486148D02*
X171304063Y-103512754D01*
X171304063Y-103512754D02*
X172159358Y-103539331D01*
X172159358Y-103539331D02*
X173014452Y-103565866D01*
X173014452Y-103565866D02*
X173869211Y-103592349D01*
X173869211Y-103592349D02*
X174723505Y-103618769D01*
X174723505Y-103618769D02*
X175577201Y-103645114D01*
X175577201Y-103645114D02*
X176430167Y-103671375D01*
X176430167Y-103671375D02*
X177282270Y-103697539D01*
X177282270Y-103697539D02*
X178133379Y-103723597D01*
X178133379Y-103723597D02*
X178983361Y-103749536D01*
X178983361Y-103749536D02*
X179832084Y-103775346D01*
X179832084Y-103775346D02*
X180679417Y-103801016D01*
X180679417Y-103801016D02*
X181525226Y-103826535D01*
X181525226Y-103826535D02*
X182369379Y-103851892D01*
X182369379Y-103851892D02*
X183211746Y-103877076D01*
X183211746Y-103877076D02*
X184052192Y-103902076D01*
X184052192Y-103902076D02*
X184890587Y-103926881D01*
X184890587Y-103926881D02*
X185726797Y-103951480D01*
X185726797Y-103951480D02*
X186560691Y-103975862D01*
X186560691Y-103975862D02*
X187392137Y-104000016D01*
X187392137Y-104000016D02*
X188221002Y-104023931D01*
X188221002Y-104023931D02*
X189047155Y-104047596D01*
X189047155Y-104047596D02*
X189870463Y-104071000D01*
X189870463Y-104071000D02*
X190690793Y-104094132D01*
X190690793Y-104094132D02*
X191508014Y-104116982D01*
X191508014Y-104116982D02*
X192321994Y-104139538D01*
X192321994Y-104139538D02*
X193132600Y-104161788D01*
X193132600Y-104161788D02*
X193939701Y-104183724D01*
X198083118Y-90869290D02*
X198083118Y-90869290D01*
X200306238Y-90877558D02*
X198083118Y-90869290D01*
X201123758Y-96745418D02*
X201134095Y-91699214D01*
X239035662Y-99743685D02*
X238963837Y-99550844D01*
X238963837Y-99550844D02*
X238817806Y-99407709D01*
X238817806Y-99407709D02*
X238613025Y-99277070D01*
X238613025Y-99277070D02*
X238431981Y-99188734D01*
X238431981Y-99188734D02*
X238236046Y-99109787D01*
X238236046Y-99109787D02*
X238033002Y-99041239D01*
X238033002Y-99041239D02*
X237830630Y-98984103D01*
X237830630Y-98984103D02*
X237575295Y-98927419D01*
X237575295Y-98927419D02*
X237404752Y-98900842D01*
X237260059Y-158425897D02*
X237465111Y-158415610D01*
X237465111Y-158415610D02*
X237664107Y-158385410D01*
X237664107Y-158385410D02*
X237949084Y-158304937D01*
X237949084Y-158304937D02*
X238214868Y-158185226D01*
X238214868Y-158185226D02*
X238458119Y-158029620D01*
X238458119Y-158029620D02*
X238675496Y-157841457D01*
X238675496Y-157841457D02*
X238863659Y-157624080D01*
X238863659Y-157624080D02*
X239019265Y-157380829D01*
X239019265Y-157380829D02*
X239138976Y-157115045D01*
X239138976Y-157115045D02*
X239219449Y-156830068D01*
X239219449Y-156830068D02*
X239249649Y-156631072D01*
X239249649Y-156631072D02*
X239259936Y-156426020D01*
X237390284Y-100578259D02*
X237622584Y-100541478D01*
X237622584Y-100541478D02*
X237884798Y-100480785D01*
X237884798Y-100480785D02*
X238089804Y-100420960D01*
X238089804Y-100420960D02*
X238293168Y-100349957D01*
X238293168Y-100349957D02*
X238486976Y-100268747D01*
X238486976Y-100268747D02*
X238716842Y-100146274D01*
X238716842Y-100146274D02*
X238896888Y-100009696D01*
X238896888Y-100009696D02*
X239023306Y-99822653D01*
X239023306Y-99822653D02*
X239035662Y-99743685D01*
X226343410Y-102616895D02*
X229209904Y-102623612D01*
X226343410Y-108425843D02*
X226343410Y-102616895D01*
X237260059Y-108425843D02*
X226343410Y-108425843D01*
X229209904Y-102623612D02*
X229425389Y-102600877D01*
X229425389Y-102600877D02*
X229624685Y-102534907D01*
X229624685Y-102534907D02*
X229802829Y-102430621D01*
X229802829Y-102430621D02*
X229954858Y-102292940D01*
X229954858Y-102292940D02*
X230075810Y-102126785D01*
X230075810Y-102126785D02*
X230160723Y-101937077D01*
X230160723Y-101937077D02*
X230183486Y-101855701D01*
X239259936Y-156426020D02*
X239259936Y-110425721D01*
X160023938Y-103162598D02*
X160272548Y-103170274D01*
X160272548Y-103170274D02*
X160522585Y-103177996D01*
X160522585Y-103177996D02*
X160773625Y-103185751D01*
X160773625Y-103185751D02*
X161025243Y-103193528D01*
X161025243Y-103193528D02*
X161277012Y-103201314D01*
X161277012Y-103201314D02*
X161528509Y-103209098D01*
X161528509Y-103209098D02*
X161779308Y-103216867D01*
X161779308Y-103216867D02*
X162028984Y-103224610D01*
X239259936Y-110425721D02*
X239249649Y-110220668D01*
X239249649Y-110220668D02*
X239219449Y-110021671D01*
X239219449Y-110021671D02*
X239138976Y-109736695D01*
X239138976Y-109736695D02*
X239019265Y-109470910D01*
X239019265Y-109470910D02*
X238863659Y-109227659D01*
X238863659Y-109227659D02*
X238675496Y-109010282D01*
X238675496Y-109010282D02*
X238458119Y-108822119D01*
X238458119Y-108822119D02*
X238214868Y-108666513D01*
X238214868Y-108666513D02*
X237949084Y-108546802D01*
X237949084Y-108546802D02*
X237664107Y-108466329D01*
X237664107Y-108466329D02*
X237465111Y-108436129D01*
X237465111Y-108436129D02*
X237260059Y-108425843D01*
X141260740Y-158425897D02*
X237260059Y-158425897D01*
X158500000Y-100000000D02*
X158499483Y-100107487D01*
M02*
