%TF.GenerationSoftware,KiCad,Pcbnew,5.1.7*%
%TF.CreationDate,2020-10-10T21:38:53+02:00*%
%TF.ProjectId,SawToothOrganDIP,53617754-6f6f-4746-984f-7267616e4449,rev?*%
%TF.SameCoordinates,Original*%
%TF.FileFunction,Legend,Bot*%
%TF.FilePolarity,Positive*%
%FSLAX46Y46*%
G04 Gerber Fmt 4.6, Leading zero omitted, Abs format (unit mm)*
G04 Created by KiCad (PCBNEW 5.1.7) date 2020-10-10 21:38:53*
%MOMM*%
%LPD*%
G01*
G04 APERTURE LIST*
%ADD10C,0.127000*%
%ADD11C,0.150000*%
%ADD12C,0.120000*%
G04 APERTURE END LIST*
D10*
X170725714Y-153891142D02*
X170604761Y-154229809D01*
X170483809Y-153891142D01*
X170024190Y-154229809D02*
X170314476Y-154229809D01*
X170169333Y-154229809D02*
X170169333Y-153721809D01*
X170217714Y-153794380D01*
X170266095Y-153842761D01*
X170314476Y-153866952D01*
X169806476Y-154181428D02*
X169782285Y-154205619D01*
X169806476Y-154229809D01*
X169830666Y-154205619D01*
X169806476Y-154181428D01*
X169806476Y-154229809D01*
X169467809Y-153721809D02*
X169419428Y-153721809D01*
X169371047Y-153746000D01*
X169346857Y-153770190D01*
X169322666Y-153818571D01*
X169298476Y-153915333D01*
X169298476Y-154036285D01*
X169322666Y-154133047D01*
X169346857Y-154181428D01*
X169371047Y-154205619D01*
X169419428Y-154229809D01*
X169467809Y-154229809D01*
X169516190Y-154205619D01*
X169540380Y-154181428D01*
X169564571Y-154133047D01*
X169588761Y-154036285D01*
X169588761Y-153915333D01*
X169564571Y-153818571D01*
X169540380Y-153770190D01*
X169516190Y-153746000D01*
X169467809Y-153721809D01*
X181455333Y-154681428D02*
X181479523Y-154705619D01*
X181552095Y-154729809D01*
X181600476Y-154729809D01*
X181673047Y-154705619D01*
X181721428Y-154657238D01*
X181745619Y-154608857D01*
X181769809Y-154512095D01*
X181769809Y-154439523D01*
X181745619Y-154342761D01*
X181721428Y-154294380D01*
X181673047Y-154246000D01*
X181600476Y-154221809D01*
X181552095Y-154221809D01*
X181479523Y-154246000D01*
X181455333Y-154270190D01*
X180947333Y-154681428D02*
X180971523Y-154705619D01*
X181044095Y-154729809D01*
X181092476Y-154729809D01*
X181165047Y-154705619D01*
X181213428Y-154657238D01*
X181237619Y-154608857D01*
X181261809Y-154512095D01*
X181261809Y-154439523D01*
X181237619Y-154342761D01*
X181213428Y-154294380D01*
X181165047Y-154246000D01*
X181092476Y-154221809D01*
X181044095Y-154221809D01*
X180971523Y-154246000D01*
X180947333Y-154270190D01*
X180729619Y-154536285D02*
X180342571Y-154536285D01*
X179931333Y-154463714D02*
X179858761Y-154487904D01*
X179834571Y-154512095D01*
X179810380Y-154560476D01*
X179810380Y-154633047D01*
X179834571Y-154681428D01*
X179858761Y-154705619D01*
X179907142Y-154729809D01*
X180100666Y-154729809D01*
X180100666Y-154221809D01*
X179931333Y-154221809D01*
X179882952Y-154246000D01*
X179858761Y-154270190D01*
X179834571Y-154318571D01*
X179834571Y-154366952D01*
X179858761Y-154415333D01*
X179882952Y-154439523D01*
X179931333Y-154463714D01*
X180100666Y-154463714D01*
X179495904Y-154487904D02*
X179495904Y-154729809D01*
X179665238Y-154221809D02*
X179495904Y-154487904D01*
X179326571Y-154221809D01*
X179157238Y-154536285D02*
X178770190Y-154536285D01*
X178552476Y-154705619D02*
X178479904Y-154729809D01*
X178358952Y-154729809D01*
X178310571Y-154705619D01*
X178286380Y-154681428D01*
X178262190Y-154633047D01*
X178262190Y-154584666D01*
X178286380Y-154536285D01*
X178310571Y-154512095D01*
X178358952Y-154487904D01*
X178455714Y-154463714D01*
X178504095Y-154439523D01*
X178528285Y-154415333D01*
X178552476Y-154366952D01*
X178552476Y-154318571D01*
X178528285Y-154270190D01*
X178504095Y-154246000D01*
X178455714Y-154221809D01*
X178334761Y-154221809D01*
X178262190Y-154246000D01*
X178068666Y-154584666D02*
X177826761Y-154584666D01*
X178117047Y-154729809D02*
X177947714Y-154221809D01*
X177778380Y-154729809D01*
X177004285Y-154391142D02*
X177004285Y-154729809D01*
X177125238Y-154197619D02*
X177246190Y-154560476D01*
X176931714Y-154560476D01*
X176738190Y-154681428D02*
X176714000Y-154705619D01*
X176738190Y-154729809D01*
X176762380Y-154705619D01*
X176738190Y-154681428D01*
X176738190Y-154729809D01*
X176399523Y-154221809D02*
X176351142Y-154221809D01*
X176302761Y-154246000D01*
X176278571Y-154270190D01*
X176254380Y-154318571D01*
X176230190Y-154415333D01*
X176230190Y-154536285D01*
X176254380Y-154633047D01*
X176278571Y-154681428D01*
X176302761Y-154705619D01*
X176351142Y-154729809D01*
X176399523Y-154729809D01*
X176447904Y-154705619D01*
X176472095Y-154681428D01*
X176496285Y-154633047D01*
X176520476Y-154536285D01*
X176520476Y-154415333D01*
X176496285Y-154318571D01*
X176472095Y-154270190D01*
X176447904Y-154246000D01*
X176399523Y-154221809D01*
D11*
X181738095Y-152904761D02*
X181595238Y-152952380D01*
X181357142Y-152952380D01*
X181261904Y-152904761D01*
X181214285Y-152857142D01*
X181166666Y-152761904D01*
X181166666Y-152666666D01*
X181214285Y-152571428D01*
X181261904Y-152523809D01*
X181357142Y-152476190D01*
X181547619Y-152428571D01*
X181642857Y-152380952D01*
X181690476Y-152333333D01*
X181738095Y-152238095D01*
X181738095Y-152142857D01*
X181690476Y-152047619D01*
X181642857Y-152000000D01*
X181547619Y-151952380D01*
X181309523Y-151952380D01*
X181166666Y-152000000D01*
X180309523Y-152952380D02*
X180309523Y-152428571D01*
X180357142Y-152333333D01*
X180452380Y-152285714D01*
X180642857Y-152285714D01*
X180738095Y-152333333D01*
X180309523Y-152904761D02*
X180404761Y-152952380D01*
X180642857Y-152952380D01*
X180738095Y-152904761D01*
X180785714Y-152809523D01*
X180785714Y-152714285D01*
X180738095Y-152619047D01*
X180642857Y-152571428D01*
X180404761Y-152571428D01*
X180309523Y-152523809D01*
X179928571Y-152285714D02*
X179738095Y-152952380D01*
X179547619Y-152476190D01*
X179357142Y-152952380D01*
X179166666Y-152285714D01*
X178166666Y-151952380D02*
X177595238Y-151952380D01*
X177880952Y-152952380D02*
X177880952Y-151952380D01*
X177119047Y-152952380D02*
X177214285Y-152904761D01*
X177261904Y-152857142D01*
X177309523Y-152761904D01*
X177309523Y-152476190D01*
X177261904Y-152380952D01*
X177214285Y-152333333D01*
X177119047Y-152285714D01*
X176976190Y-152285714D01*
X176880952Y-152333333D01*
X176833333Y-152380952D01*
X176785714Y-152476190D01*
X176785714Y-152761904D01*
X176833333Y-152857142D01*
X176880952Y-152904761D01*
X176976190Y-152952380D01*
X177119047Y-152952380D01*
X176214285Y-152952380D02*
X176309523Y-152904761D01*
X176357142Y-152857142D01*
X176404761Y-152761904D01*
X176404761Y-152476190D01*
X176357142Y-152380952D01*
X176309523Y-152333333D01*
X176214285Y-152285714D01*
X176071428Y-152285714D01*
X175976190Y-152333333D01*
X175928571Y-152380952D01*
X175880952Y-152476190D01*
X175880952Y-152761904D01*
X175928571Y-152857142D01*
X175976190Y-152904761D01*
X176071428Y-152952380D01*
X176214285Y-152952380D01*
X175595238Y-152285714D02*
X175214285Y-152285714D01*
X175452380Y-151952380D02*
X175452380Y-152809523D01*
X175404761Y-152904761D01*
X175309523Y-152952380D01*
X175214285Y-152952380D01*
X174880952Y-152952380D02*
X174880952Y-151952380D01*
X174452380Y-152952380D02*
X174452380Y-152428571D01*
X174500000Y-152333333D01*
X174595238Y-152285714D01*
X174738095Y-152285714D01*
X174833333Y-152333333D01*
X174880952Y-152380952D01*
X173023809Y-151952380D02*
X172833333Y-151952380D01*
X172738095Y-152000000D01*
X172642857Y-152095238D01*
X172595238Y-152285714D01*
X172595238Y-152619047D01*
X172642857Y-152809523D01*
X172738095Y-152904761D01*
X172833333Y-152952380D01*
X173023809Y-152952380D01*
X173119047Y-152904761D01*
X173214285Y-152809523D01*
X173261904Y-152619047D01*
X173261904Y-152285714D01*
X173214285Y-152095238D01*
X173119047Y-152000000D01*
X173023809Y-151952380D01*
X172166666Y-152952380D02*
X172166666Y-152285714D01*
X172166666Y-152476190D02*
X172119047Y-152380952D01*
X172071428Y-152333333D01*
X171976190Y-152285714D01*
X171880952Y-152285714D01*
X171119047Y-152285714D02*
X171119047Y-153095238D01*
X171166666Y-153190476D01*
X171214285Y-153238095D01*
X171309523Y-153285714D01*
X171452380Y-153285714D01*
X171547619Y-153238095D01*
X171119047Y-152904761D02*
X171214285Y-152952380D01*
X171404761Y-152952380D01*
X171500000Y-152904761D01*
X171547619Y-152857142D01*
X171595238Y-152761904D01*
X171595238Y-152476190D01*
X171547619Y-152380952D01*
X171500000Y-152333333D01*
X171404761Y-152285714D01*
X171214285Y-152285714D01*
X171119047Y-152333333D01*
X170214285Y-152952380D02*
X170214285Y-152428571D01*
X170261904Y-152333333D01*
X170357142Y-152285714D01*
X170547619Y-152285714D01*
X170642857Y-152333333D01*
X170214285Y-152904761D02*
X170309523Y-152952380D01*
X170547619Y-152952380D01*
X170642857Y-152904761D01*
X170690476Y-152809523D01*
X170690476Y-152714285D01*
X170642857Y-152619047D01*
X170547619Y-152571428D01*
X170309523Y-152571428D01*
X170214285Y-152523809D01*
X169738095Y-152285714D02*
X169738095Y-152952380D01*
X169738095Y-152380952D02*
X169690476Y-152333333D01*
X169595238Y-152285714D01*
X169452380Y-152285714D01*
X169357142Y-152333333D01*
X169309523Y-152428571D01*
X169309523Y-152952380D01*
X220214285Y-145904761D02*
X220309523Y-145952380D01*
X220500000Y-145952380D01*
X220595238Y-145904761D01*
X220642857Y-145809523D01*
X220642857Y-145428571D01*
X220595238Y-145333333D01*
X220500000Y-145285714D01*
X220309523Y-145285714D01*
X220214285Y-145333333D01*
X220166666Y-145428571D01*
X220166666Y-145523809D01*
X220642857Y-145619047D01*
X219738095Y-145952380D02*
X219738095Y-145285714D01*
X219738095Y-145380952D02*
X219690476Y-145333333D01*
X219595238Y-145285714D01*
X219452380Y-145285714D01*
X219357142Y-145333333D01*
X219309523Y-145428571D01*
X219309523Y-145952380D01*
X219309523Y-145428571D02*
X219261904Y-145333333D01*
X219166666Y-145285714D01*
X219023809Y-145285714D01*
X218928571Y-145333333D01*
X218880952Y-145428571D01*
X218880952Y-145952380D01*
X217976190Y-145285714D02*
X217976190Y-145952380D01*
X218404761Y-145285714D02*
X218404761Y-145809523D01*
X218357142Y-145904761D01*
X218261904Y-145952380D01*
X218119047Y-145952380D01*
X218023809Y-145904761D01*
X217976190Y-145857142D01*
X217547619Y-145904761D02*
X217452380Y-145952380D01*
X217261904Y-145952380D01*
X217166666Y-145904761D01*
X217119047Y-145809523D01*
X217119047Y-145761904D01*
X217166666Y-145666666D01*
X217261904Y-145619047D01*
X217404761Y-145619047D01*
X217500000Y-145571428D01*
X217547619Y-145476190D01*
X217547619Y-145428571D01*
X217500000Y-145333333D01*
X217404761Y-145285714D01*
X217261904Y-145285714D01*
X217166666Y-145333333D01*
X216309523Y-145904761D02*
X216404761Y-145952380D01*
X216595238Y-145952380D01*
X216690476Y-145904761D01*
X216738095Y-145809523D01*
X216738095Y-145428571D01*
X216690476Y-145333333D01*
X216595238Y-145285714D01*
X216404761Y-145285714D01*
X216309523Y-145333333D01*
X216261904Y-145428571D01*
X216261904Y-145523809D01*
X216738095Y-145619047D01*
X215404761Y-145285714D02*
X215404761Y-145952380D01*
X215833333Y-145285714D02*
X215833333Y-145809523D01*
X215785714Y-145904761D01*
X215690476Y-145952380D01*
X215547619Y-145952380D01*
X215452380Y-145904761D01*
X215404761Y-145857142D01*
X214928571Y-145952380D02*
X214928571Y-145285714D01*
X214928571Y-145380952D02*
X214880952Y-145333333D01*
X214785714Y-145285714D01*
X214642857Y-145285714D01*
X214547619Y-145333333D01*
X214500000Y-145428571D01*
X214500000Y-145952380D01*
X214500000Y-145428571D02*
X214452380Y-145333333D01*
X214357142Y-145285714D01*
X214214285Y-145285714D01*
X214119047Y-145333333D01*
X214071428Y-145428571D01*
X214071428Y-145952380D01*
X213595238Y-145571428D02*
X212833333Y-145571428D01*
X212500000Y-145285714D02*
X212119047Y-145285714D01*
X212357142Y-144952380D02*
X212357142Y-145809523D01*
X212309523Y-145904761D01*
X212214285Y-145952380D01*
X212119047Y-145952380D01*
X211404761Y-145904761D02*
X211500000Y-145952380D01*
X211690476Y-145952380D01*
X211785714Y-145904761D01*
X211833333Y-145809523D01*
X211833333Y-145428571D01*
X211785714Y-145333333D01*
X211690476Y-145285714D01*
X211500000Y-145285714D01*
X211404761Y-145333333D01*
X211357142Y-145428571D01*
X211357142Y-145523809D01*
X211833333Y-145619047D01*
X211071428Y-145285714D02*
X210690476Y-145285714D01*
X210928571Y-144952380D02*
X210928571Y-145809523D01*
X210880952Y-145904761D01*
X210785714Y-145952380D01*
X210690476Y-145952380D01*
X210500000Y-145285714D02*
X210119047Y-145285714D01*
X210357142Y-144952380D02*
X210357142Y-145809523D01*
X210309523Y-145904761D01*
X210214285Y-145952380D01*
X210119047Y-145952380D01*
X209785714Y-145285714D02*
X209785714Y-145952380D01*
X209785714Y-145380952D02*
X209738095Y-145333333D01*
X209642857Y-145285714D01*
X209500000Y-145285714D01*
X209404761Y-145333333D01*
X209357142Y-145428571D01*
X209357142Y-145952380D01*
X208452380Y-145952380D02*
X208452380Y-145428571D01*
X208500000Y-145333333D01*
X208595238Y-145285714D01*
X208785714Y-145285714D01*
X208880952Y-145333333D01*
X208452380Y-145904761D02*
X208547619Y-145952380D01*
X208785714Y-145952380D01*
X208880952Y-145904761D01*
X208928571Y-145809523D01*
X208928571Y-145714285D01*
X208880952Y-145619047D01*
X208785714Y-145571428D01*
X208547619Y-145571428D01*
X208452380Y-145523809D01*
X207976190Y-145285714D02*
X207976190Y-145952380D01*
X207976190Y-145380952D02*
X207928571Y-145333333D01*
X207833333Y-145285714D01*
X207690476Y-145285714D01*
X207595238Y-145333333D01*
X207547619Y-145428571D01*
X207547619Y-145952380D01*
X206642857Y-145285714D02*
X206642857Y-146095238D01*
X206690476Y-146190476D01*
X206738095Y-146238095D01*
X206833333Y-146285714D01*
X206976190Y-146285714D01*
X207071428Y-146238095D01*
X206642857Y-145904761D02*
X206738095Y-145952380D01*
X206928571Y-145952380D01*
X207023809Y-145904761D01*
X207071428Y-145857142D01*
X207119047Y-145761904D01*
X207119047Y-145476190D01*
X207071428Y-145380952D01*
X207023809Y-145333333D01*
X206928571Y-145285714D01*
X206738095Y-145285714D01*
X206642857Y-145333333D01*
X206166666Y-145857142D02*
X206119047Y-145904761D01*
X206166666Y-145952380D01*
X206214285Y-145904761D01*
X206166666Y-145857142D01*
X206166666Y-145952380D01*
X205261904Y-145952380D02*
X205261904Y-144952380D01*
X205261904Y-145904761D02*
X205357142Y-145952380D01*
X205547619Y-145952380D01*
X205642857Y-145904761D01*
X205690476Y-145857142D01*
X205738095Y-145761904D01*
X205738095Y-145476190D01*
X205690476Y-145380952D01*
X205642857Y-145333333D01*
X205547619Y-145285714D01*
X205357142Y-145285714D01*
X205261904Y-145333333D01*
X204404761Y-145904761D02*
X204500000Y-145952380D01*
X204690476Y-145952380D01*
X204785714Y-145904761D01*
X204833333Y-145809523D01*
X204833333Y-145428571D01*
X204785714Y-145333333D01*
X204690476Y-145285714D01*
X204500000Y-145285714D01*
X204404761Y-145333333D01*
X204357142Y-145428571D01*
X204357142Y-145523809D01*
X204833333Y-145619047D01*
D12*
%TO.C,SW1*%
X219450000Y-151600000D02*
G75*
G03*
X219450000Y-151600000I-3500000J0D01*
G01*
X217950000Y-151600000D02*
G75*
G03*
X217950000Y-151600000I-2000000J0D01*
G01*
%TO.C,LS1*%
X172250000Y-133750000D02*
G75*
G03*
X172250000Y-133750000I-13500000J0D01*
G01*
X177750000Y-133750000D02*
G75*
G03*
X177750000Y-133750000I-19000000J0D01*
G01*
%TO.C,SW1*%
D11*
X220330952Y-157302380D02*
X220330952Y-156302380D01*
X219950000Y-156302380D01*
X219854761Y-156350000D01*
X219807142Y-156397619D01*
X219759523Y-156492857D01*
X219759523Y-156635714D01*
X219807142Y-156730952D01*
X219854761Y-156778571D01*
X219950000Y-156826190D01*
X220330952Y-156826190D01*
X218902380Y-156635714D02*
X218902380Y-157302380D01*
X219330952Y-156635714D02*
X219330952Y-157159523D01*
X219283333Y-157254761D01*
X219188095Y-157302380D01*
X219045238Y-157302380D01*
X218950000Y-157254761D01*
X218902380Y-157207142D01*
X218473809Y-157254761D02*
X218378571Y-157302380D01*
X218188095Y-157302380D01*
X218092857Y-157254761D01*
X218045238Y-157159523D01*
X218045238Y-157111904D01*
X218092857Y-157016666D01*
X218188095Y-156969047D01*
X218330952Y-156969047D01*
X218426190Y-156921428D01*
X218473809Y-156826190D01*
X218473809Y-156778571D01*
X218426190Y-156683333D01*
X218330952Y-156635714D01*
X218188095Y-156635714D01*
X218092857Y-156683333D01*
X217616666Y-157302380D02*
X217616666Y-156302380D01*
X217188095Y-157302380D02*
X217188095Y-156778571D01*
X217235714Y-156683333D01*
X217330952Y-156635714D01*
X217473809Y-156635714D01*
X217569047Y-156683333D01*
X217616666Y-156730952D01*
X215616666Y-156778571D02*
X215473809Y-156826190D01*
X215426190Y-156873809D01*
X215378571Y-156969047D01*
X215378571Y-157111904D01*
X215426190Y-157207142D01*
X215473809Y-157254761D01*
X215569047Y-157302380D01*
X215950000Y-157302380D01*
X215950000Y-156302380D01*
X215616666Y-156302380D01*
X215521428Y-156350000D01*
X215473809Y-156397619D01*
X215426190Y-156492857D01*
X215426190Y-156588095D01*
X215473809Y-156683333D01*
X215521428Y-156730952D01*
X215616666Y-156778571D01*
X215950000Y-156778571D01*
X214521428Y-156635714D02*
X214521428Y-157302380D01*
X214950000Y-156635714D02*
X214950000Y-157159523D01*
X214902380Y-157254761D01*
X214807142Y-157302380D01*
X214664285Y-157302380D01*
X214569047Y-157254761D01*
X214521428Y-157207142D01*
X214188095Y-156635714D02*
X213807142Y-156635714D01*
X214045238Y-156302380D02*
X214045238Y-157159523D01*
X213997619Y-157254761D01*
X213902380Y-157302380D01*
X213807142Y-157302380D01*
X213616666Y-156635714D02*
X213235714Y-156635714D01*
X213473809Y-156302380D02*
X213473809Y-157159523D01*
X213426190Y-157254761D01*
X213330952Y-157302380D01*
X213235714Y-157302380D01*
X212759523Y-157302380D02*
X212854761Y-157254761D01*
X212902380Y-157207142D01*
X212950000Y-157111904D01*
X212950000Y-156826190D01*
X212902380Y-156730952D01*
X212854761Y-156683333D01*
X212759523Y-156635714D01*
X212616666Y-156635714D01*
X212521428Y-156683333D01*
X212473809Y-156730952D01*
X212426190Y-156826190D01*
X212426190Y-157111904D01*
X212473809Y-157207142D01*
X212521428Y-157254761D01*
X212616666Y-157302380D01*
X212759523Y-157302380D01*
X211997619Y-156635714D02*
X211997619Y-157302380D01*
X211997619Y-156730952D02*
X211950000Y-156683333D01*
X211854761Y-156635714D01*
X211711904Y-156635714D01*
X211616666Y-156683333D01*
X211569047Y-156778571D01*
X211569047Y-157302380D01*
%TO.C,LS1*%
X143654761Y-130738095D02*
X143702380Y-130880952D01*
X143702380Y-131119047D01*
X143654761Y-131214285D01*
X143607142Y-131261904D01*
X143511904Y-131309523D01*
X143416666Y-131309523D01*
X143321428Y-131261904D01*
X143273809Y-131214285D01*
X143226190Y-131119047D01*
X143178571Y-130928571D01*
X143130952Y-130833333D01*
X143083333Y-130785714D01*
X142988095Y-130738095D01*
X142892857Y-130738095D01*
X142797619Y-130785714D01*
X142750000Y-130833333D01*
X142702380Y-130928571D01*
X142702380Y-131166666D01*
X142750000Y-131309523D01*
X143035714Y-131738095D02*
X144035714Y-131738095D01*
X143083333Y-131738095D02*
X143035714Y-131833333D01*
X143035714Y-132023809D01*
X143083333Y-132119047D01*
X143130952Y-132166666D01*
X143226190Y-132214285D01*
X143511904Y-132214285D01*
X143607142Y-132166666D01*
X143654761Y-132119047D01*
X143702380Y-132023809D01*
X143702380Y-131833333D01*
X143654761Y-131738095D01*
X143654761Y-133023809D02*
X143702380Y-132928571D01*
X143702380Y-132738095D01*
X143654761Y-132642857D01*
X143559523Y-132595238D01*
X143178571Y-132595238D01*
X143083333Y-132642857D01*
X143035714Y-132738095D01*
X143035714Y-132928571D01*
X143083333Y-133023809D01*
X143178571Y-133071428D01*
X143273809Y-133071428D01*
X143369047Y-132595238D01*
X143702380Y-133928571D02*
X143178571Y-133928571D01*
X143083333Y-133880952D01*
X143035714Y-133785714D01*
X143035714Y-133595238D01*
X143083333Y-133500000D01*
X143654761Y-133928571D02*
X143702380Y-133833333D01*
X143702380Y-133595238D01*
X143654761Y-133500000D01*
X143559523Y-133452380D01*
X143464285Y-133452380D01*
X143369047Y-133500000D01*
X143321428Y-133595238D01*
X143321428Y-133833333D01*
X143273809Y-133928571D01*
X143702380Y-134404761D02*
X142702380Y-134404761D01*
X143321428Y-134500000D02*
X143702380Y-134785714D01*
X143035714Y-134785714D02*
X143416666Y-134404761D01*
X143654761Y-135595238D02*
X143702380Y-135500000D01*
X143702380Y-135309523D01*
X143654761Y-135214285D01*
X143559523Y-135166666D01*
X143178571Y-135166666D01*
X143083333Y-135214285D01*
X143035714Y-135309523D01*
X143035714Y-135500000D01*
X143083333Y-135595238D01*
X143178571Y-135642857D01*
X143273809Y-135642857D01*
X143369047Y-135166666D01*
X143702380Y-136071428D02*
X143035714Y-136071428D01*
X143226190Y-136071428D02*
X143130952Y-136119047D01*
X143083333Y-136166666D01*
X143035714Y-136261904D01*
X143035714Y-136357142D01*
%TD*%
M02*
